<svg xmlns="http://www.w3.org/2000/svg" width="25.472" height="30.007"><path data-name="Path 517" d="M4.448 3.516h9.606V1.758H2.693v9.67h1.755z" fill="#b8b8b8"/><path data-name="Path 518" d="M21.743 26.486h-9.67v1.758h11.428v-9.729h-1.758z" fill="#b8b8b8"/><path data-name="Path 519" d="M23.343 7.352a4.129 4.129 0 001.527-3.2 4.19 4.19 0 00-8.379 0 4.129 4.129 0 001.527 3.2 4.791 4.791 0 00-2.129 3.982v5.415h9.583v-5.415a4.791 4.791 0 00-2.129-3.982zm-5.094-3.2a2.432 2.432 0 014.862 0 2.432 2.432 0 01-4.862 0zm5.465 10.841h-6.067v-3.659a3.034 3.034 0 116.067 0v3.657z" fill="#b8b8b8"/><path data-name="Path 520" d="M19.801 10.766h1.758v1.758h-1.758z" fill="#b8b8b8"/><path data-name="Path 521" d="M7.455 20.61a4.129 4.129 0 001.527-3.2 4.19 4.19 0 00-8.379 0 4.129 4.129 0 001.527 3.2 4.791 4.791 0 00-2.129 3.982v5.415h9.583v-5.415a4.791 4.791 0 00-2.129-3.982zm-5.094-3.2a2.431 2.431 0 112.431 2.392 2.415 2.415 0 01-2.431-2.394zm5.464 10.836H1.758v-3.657a3.034 3.034 0 116.067 0v3.657z" fill="#b8b8b8"/><path data-name="Path 522" d="M3.913 24.024h1.758v1.758H3.913z" fill="#b8b8b8"/></svg>