<svg xmlns="http://www.w3.org/2000/svg" width="25.471" height="27.19"><g data-name="file (1)" fill="#b8b8b8"><path data-name="Path 953" d="M25.417 20.663l-2.145-8.739v-7a1.834 1.834 0 00-1.832-1.832h-.374L20.698 1.6A1.919 1.919 0 0018.379.2l-1.594.386a.54.54 0 000-.055.531.531 0 00-.528-.531h-5.989a.531.531 0 100 1.062h.649L10.7 2.08 6.574 3.093H5.087a1.83 1.83 0 00-1.457.723l-2.169.532a1.917 1.917 0 00-1.4 2.319l3.2 13.029v3.8a1.835 1.835 0 001.409 1.782l.111.45a1.919 1.919 0 001.858 1.461 1.931 1.931 0 00.461-.056l7.355-1.805h6.991A1.834 1.834 0 0023.27 23.5v-.334l.741-.182a1.917 1.917 0 001.4-2.319zM3.255 15.24L1.088 6.413a.855.855 0 01.629-1.034L3.255 5zM18.633 1.226a.856.856 0 011.034.626l.3 1.24h-3.924l-.251-1.169zm-6.627-.164h2.511l.836 3.891h-4.184zm-1.739 4.954h5.991v1.429h-5.991zM6.84 26.1a.855.855 0 01-1.034-.626l-.036-.147h4.222zm15.368-2.6a.771.771 0 01-.77.77H5.087a.771.771 0 01-.77-.77V4.924a.771.771 0 01.77-.77h5.168l-.172.8h-.347a.531.531 0 00-.531.531v2.491a.531.531 0 00.531.531h3v2.64a.531.531 0 101.062 0v-2.64h3a.531.531 0 00.531-.531V5.485a.531.531 0 00-.531-.531h-.347l-.172-.8h5.168a.771.771 0 01.77.77zm2.077-1.934a.849.849 0 01-.527.387l-.488.12v-5.694l1.114 4.537a.849.849 0 01-.099.647z"/><path data-name="Path 954" d="M19.141 13.054H7.385a.531.531 0 100 1.062h11.756a.531.531 0 000-1.062z"/><path data-name="Path 955" d="M19.141 16.786H7.385a.531.531 0 100 1.062h11.756a.531.531 0 000-1.062z"/></g></svg>