<svg xmlns="http://www.w3.org/2000/svg" width="31.974" height="26.116"><g data-name="Group 439"><g data-name="Group 438"><path data-name="Path 967" d="M22.047 18.56a.625.625 0 00-.883.009l-.018.018a.625.625 0 00.892.874l.018-.018a.625.625 0 00-.009-.883z" fill="#a1a1a1"/></g></g><g data-name="Group 441"><g data-name="Group 440"><path data-name="Path 968" d="M28.763 12.014h-1.66v-1.66a.625.625 0 10-1.249 0v1.66h-1.659a.625.625 0 100 1.249h1.659v1.66a.625.625 0 101.249 0v-1.66h1.66a.625.625 0 000-1.249z" fill="#a1a1a1"/></g></g><g data-name="Group 443"><g data-name="Group 442"><path data-name="Path 969" d="M28.52 7.536A8.607 8.607 0 0020.055.001a8.347 8.347 0 00-5.755 2.28A8.347 8.347 0 008.546.001 8.66 8.66 0 000 8.75a7.658 7.658 0 00.831 3.2H.624a.625.625 0 100 1.249H1.5a35.376 35.376 0 005.522 6.722 80.493 80.493 0 006.9 6.067.624.624 0 00.759 0c.026-.02 2.67-2.047 5.6-4.809a.625.625 0 10-.857-.909 83.139 83.139 0 01-5.121 4.429 80.052 80.052 0 01-6.407-5.673 37.146 37.146 0 01-4.932-5.825h5.591a.624.624 0 00.6-.452l1.091-3.8 3.022 9.681a.624.624 0 001.192 0l1.673-5.363h2.788a.625.625 0 100-1.249h-3.247a.624.624 0 00-.6.438l-1.214 3.891-3.043-9.766a.625.625 0 00-1.2.014l-1.533 5.356H2.225a7.1 7.1 0 01-.976-3.2 7.409 7.409 0 017.3-7.5 7.14 7.14 0 015.3 2.341.625.625 0 00.918 0 7.14 7.14 0 015.3-2.341 7.343 7.343 0 017.139 5.94 5.5 5.5 0 101.325.347zm-2.042 9.349a4.247 4.247 0 114.247-4.247 4.251 4.251 0 01-4.247 4.247z" fill="#a1a1a1"/></g></g></svg>