<svg xmlns="http://www.w3.org/2000/svg" width="27.581" height="25.856"><g fill="#fff"><path data-name="Path 970" d="M22.949 25.856H4.633a2.481 2.481 0 01-2.478-2.478V10.34a.862.862 0 111.724 0v13.038a.755.755 0 00.754.754h18.316a.755.755 0 00.754-.754V10.34a.862.862 0 111.724 0v13.038a2.481 2.481 0 01-2.478 2.478z"/><path data-name="Path 971" d="M26.72 13.357a.859.859 0 01-.609-.252L15.391 2.383a2.265 2.265 0 00-3.2 0L1.472 13.104a.863.863 0 11-1.219-1.221l10.719-10.72a3.991 3.991 0 015.637 0l10.72 10.72a.862.862 0 01-.609 1.471z"/><path data-name="Path 972" d="M17.238 25.856h-6.9a.862.862 0 01-.862-.862v-7.65a2.7 2.7 0 012.694-2.694h3.232a2.7 2.7 0 012.693 2.694v7.65a.862.862 0 01-.857.862zm-6.033-1.724h5.176v-6.788a.971.971 0 00-.97-.97h-3.232a.971.971 0 00-.97.97z"/></g></svg>