<svg xmlns="http://www.w3.org/2000/svg" width="22.79" height="30.229"><path data-name="Path 523" d="M16.635 1.686V0H6.155v1.686H0v28.543h17.2l5.592-5.592V1.686zm-8.709.085h6.937v1.774H7.926zM1.771 3.457h4.384v1.859h10.48V3.457h4.384v19.922h-5.074v5.079H1.771zm18 21.693l-2.055 2.055V25.15z" fill="#b8b8b8"/><path data-name="Path 524" d="M11.398 15.528a1.552 1.552 0 111.86-1.521h1.771a3.378 3.378 0 00-2.745-3.193V9.447h-1.771v1.367a3.378 3.378 0 00-2.745 3.193 3.478 3.478 0 003.631 3.292 1.552 1.552 0 11-1.86 1.521H7.768a3.378 3.378 0 002.745 3.193v1.367h1.771v-1.367a3.378 3.378 0 002.745-3.193 3.478 3.478 0 00-3.631-3.292z" fill="#b8b8b8"/></svg>