<?xml version="1.0" encoding="UTF-8"?>
<svg id="Layer_1" data-name="Layer 1" xmlns="http://www.w3.org/2000/svg" viewBox="0 0 46.86 48.4">
  <defs>
    <style>
      .cls-1 {
        fill: #b9f3fc;
      }

      .cls-2 {
        fill: #2192ff;
      }
    </style>
  </defs>
  <g>
    <path class="cls-1" d="M35.22,31.63l-6.66,7.23s-.53,.69-.53,2.34-.03,6.87-.03,6.87l-2.63,.03,.03-6.97,.66-2.97,5.94-5.97s1.44-2.13,3.22-.56Z"/>
    <path class="cls-1" d="M3.07,27.47l-.07,7.1s-.37,1.55,1.77,2.59,8.74,5.7,8.74,5.7c0,0,.72,.74,.72,1.77s-.07,3.39-.07,3.39l-1.8,.06-.2-3.39s-1.03-1.48-2.88-2.51-7.91-5.62-7.91-5.62l-.22-5.47s-.52-3.47,1.92-3.62Z"/>
  </g>
  <g>
    <path class="cls-2" d="M23.43,.56c2.47,0,4.94,.01,7.41,0,.78,0,1.29,.31,1.64,1,1.15,2.2,2.91,3.7,5.27,4.49,.92,.31,1.21,.72,1.21,1.7,0,2.94-.03,1.17,0,4.11,.09,7.85-3.33,13.73-10.01,17.74-1.51,.9-3.11,1.66-4.7,2.41-.4,.19-1.01,.27-1.4,.11-3.62-1.5-7-3.42-9.77-6.26-3.1-3.17-4.8-7.02-5.02-11.41-.2-3.87-.11-3.04-.13-6.92,0-.72,.34-1.19,1.03-1.41,2.5-.79,4.33-2.37,5.53-4.7,.31-.61,.82-.85,1.49-.84,2.49,.01,4.98,0,7.47,0ZM8.86,12.91s.07,0,.11,0c0,2.1-.12-.51,.03,1.57,.28,3.93,1.74,7.41,4.43,10.33,2.7,2.93,6.07,4.85,9.68,6.39,.23,.1,.59,.03,.83-.08,1.49-.73,3.01-1.42,4.44-2.28,6.43-3.85,9.75-9.48,9.65-17.05-.04-2.88-.02-1.05,0-3.93,0-.53-.16-.8-.69-.98-2.51-.84-4.38-2.46-5.63-4.78-.24-.44-.51-.6-1.01-.6-4.84,.02-9.68,.02-14.52,0-.49,0-.77,.15-1.01,.6-1.26,2.35-3.15,3.97-5.68,4.81-.48,.16-.64,.41-.63,.9,.02,1.7,0,3.41,0,5.12Z"/>
    <path class="cls-2" d="M23.36,32.56c-.23,0-.45-.03-.65-.12-4.25-1.76-7.39-3.78-9.9-6.34-3.18-3.26-4.9-7.18-5.13-11.65-.14-2.71-.14-3.12-.13-4.46,0-.57,0-1.31,0-2.48,0-.89,.44-1.5,1.29-1.77,2.4-.76,4.13-2.24,5.31-4.51,.36-.69,.97-1.05,1.81-1.05h.01c1.79,0,3.58,0,5.37,0h2.09s2.05,0,2.05,0c1.79,0,3.57,0,5.35,0,.88-.02,1.55,.38,1.98,1.2,1.1,2.11,2.8,3.55,5.05,4.31,1.07,.36,1.46,.91,1.46,2.05,0,1.25,0,1.65,0,1.92,0,.37,0,.5,.01,2.18,.09,7.88-3.34,13.96-10.19,18.07-1.53,.92-3.16,1.68-4.73,2.42-.28,.13-.67,.23-1.05,.23ZM15.95,.93c-.56,0-.92,.2-1.15,.64-1.25,2.43-3.19,4.07-5.75,4.88-.53,.17-.77,.49-.76,1.05,0,1.17,0,1.91,0,2.49,0,1.33,0,1.73,.13,4.42,.22,4.29,1.87,8.05,4.92,11.17,2.43,2.49,5.49,4.45,9.65,6.18,.26,.11,.75,.06,1.1-.1,1.56-.73,3.17-1.49,4.66-2.39,6.61-3.96,9.91-9.82,9.83-17.42-.02-1.7-.02-1.83-.01-2.2,0-.27,0-.67,0-1.91,0-.82-.19-1.09-.95-1.34-2.45-.82-4.29-2.39-5.48-4.67-.29-.56-.67-.79-1.29-.79h-.02c-1.79,.01-3.58,.01-5.36,0h-2.05s-2.09,0-2.09,0c-1.79,0-3.58,0-5.38,0h0Zm7.42,30.69c-.15,0-.29-.02-.42-.08-4.38-1.88-7.41-3.88-9.81-6.48-2.71-2.95-4.24-6.5-4.53-10.55-.02-.34-.04-.55-.05-.68-.01-.05-.02-.11-.02-.18,0-.07,.01-.14,.04-.2,0-.07,0-.17,0-.28-.07-.07-.11-.16-.11-.27v-1.43c0-1.23,0-2.45,0-3.68,0-.66,.26-1.05,.89-1.26,2.41-.8,4.25-2.36,5.47-4.63,.3-.56,.72-.8,1.34-.79,4.83,.01,9.68,.02,14.52,0h0c.64,0,1.03,.24,1.33,.8,1.21,2.26,3.03,3.81,5.42,4.61,.67,.22,.95,.62,.94,1.34,0,1.07-.02,1.49-.02,1.75q0,.38,0,1.66v.52c.1,7.57-3.21,13.42-9.83,17.38-1.13,.67-2.33,1.25-3.48,1.81l-.98,.48c-.2,.1-.47,.17-.72,.17ZM9.32,13.8c.02,.17,.03,.38,.05,.65,.28,3.88,1.74,7.28,4.33,10.1,2.33,2.52,5.27,4.47,9.55,6.3,.09,.04,.34,.01,.52-.08l.98-.48c1.14-.55,2.33-1.13,3.43-1.78,6.37-3.81,9.56-9.44,9.47-16.72v-.52q-.02-1.3-.02-1.68c0-.25,.01-.67,.02-1.74,0-.38-.08-.5-.43-.62-2.57-.86-4.54-2.53-5.84-4.96-.17-.32-.32-.41-.67-.41h0c-4.84,.02-9.68,.02-14.52,0h0c-.36,0-.5,.09-.67,.4-1.31,2.45-3.3,4.13-5.9,4.99-.31,.1-.38,.2-.37,.54,.02,1.23,.01,2.46,0,3.69v1.17c.07,.07,.11,.16,.11,.27,0,.42,0,.7-.03,.89Z"/>
  </g>
  <g>
    <path class="cls-2" d="M25.78,48.03h-.94c0-.22,0-.41,0-.6,0-2.1,0-4.19,0-6.29,0-1.74,.58-3.24,1.84-4.48,1.79-1.76,3.52-3.57,5.3-5.34,1.44-1.42,3.69-.85,4.19,1.04,.24,.91,0,1.71-.65,2.38-.67,.69-1.37,1.35-2.03,2.04-.52,.55-.55,1.22-.1,1.68,.38,.4,.91,.49,1.45,.17,2.18-1.27,4.36-2.55,6.52-3.86,.21-.13,.39-.5,.39-.76,.04-1.53,.01-3.06,.02-4.58,0-1.48,.97-2.54,2.33-2.56,1.33-.01,2.36,1.07,2.37,2.54,.01,2.04,0,4.08,0,6.11,0,1.01-.4,1.76-1.24,2.31-2.91,1.92-5.79,3.88-8.71,5.79-.94,.62-1.41,1.42-1.35,2.55,.03,.6,0,1.21,0,1.84h-.87c0-.96-.08-1.92,.02-2.86,.1-.99,.75-1.69,1.57-2.23,2.81-1.86,5.59-3.76,8.42-5.59,.87-.56,1.27-1.2,1.23-2.25-.07-1.8-.02-3.6-.02-5.41,0-.2,0-.39-.02-.59-.12-.77-.74-1.3-1.45-1.27-.75,.04-1.33,.63-1.34,1.44-.02,1.57-.03,3.14,0,4.7,.02,.8-.3,1.32-.99,1.71-2.1,1.21-4.18,2.46-6.28,3.69-1.09,.64-2.2,.47-2.9-.42-.66-.84-.55-1.99,.3-2.88,.62-.65,1.28-1.27,1.91-1.92,.69-.71,.72-1.62,.1-2.25-.63-.63-1.53-.61-2.24,.1-1.87,1.87-3.75,3.73-5.59,5.63-.88,.91-1.25,2.06-1.26,3.33-.01,2.12,0,4.23,0,6.35,0,.21,0,.43,0,.71Z"/>
    <path class="cls-2" d="M25.78,48.4h-.94c-.21,0-.38-.17-.38-.38v-6.89c0-1.88,.66-3.48,1.95-4.75,.93-.92,1.85-1.85,2.77-2.79,.84-.85,1.68-1.71,2.53-2.55,.79-.78,1.85-1.08,2.86-.81,.96,.26,1.7,1.02,1.96,2.02,.27,1.01,0,1.96-.75,2.73-.3,.31-.61,.61-.91,.92-.38,.37-.75,.74-1.11,1.12-.38,.39-.41,.84-.1,1.17,.27,.29,.62,.33,.99,.11,2.43-1.42,4.47-2.61,6.51-3.85,.08-.05,.21-.29,.21-.44,.03-1.06,.02-2.12,.02-3.19v-1.39c0-1.68,1.14-2.92,2.7-2.93h.03c.7,0,1.35,.27,1.85,.75,.55,.55,.86,1.31,.87,2.16,0,.94,0,1.87,0,2.81,0,1.1,0,2.2,0,3.3,0,1.13-.45,1.99-1.41,2.63-1.22,.81-2.44,1.62-3.65,2.43-1.68,1.12-3.37,2.25-5.06,3.36-.87,.57-1.23,1.25-1.18,2.21,.02,.42,.02,.84,.01,1.28v.58c0,.21-.17,.38-.38,.38h-.87c-.21,0-.38-.17-.38-.38,0-.29,0-.58-.01-.87-.02-.66-.03-1.35,.04-2.03,.1-.98,.67-1.8,1.73-2.5,1-.66,1.99-1.33,2.98-1.99,1.81-1.21,3.61-2.42,5.44-3.6,.81-.52,1.09-1.04,1.06-1.92-.05-1.27-.04-2.56-.03-3.81,0-.54,0-1.08,0-1.62v-.1c0-.14,0-.29-.02-.42-.09-.58-.56-.99-1.07-.95-.57,.03-.97,.47-.98,1.07-.01,1.42-.03,3.07,0,4.69,.02,.92-.35,1.57-1.17,2.05-1.32,.76-2.64,1.54-3.95,2.32-.77,.46-1.55,.92-2.32,1.37-1.24,.73-2.57,.53-3.38-.52-.78-1-.65-2.35,.32-3.37,.34-.36,.7-.71,1.05-1.06,.29-.28,.57-.57,.85-.86,.55-.56,.59-1.24,.11-1.72-.22-.22-.49-.34-.77-.34h0c-.33,0-.65,.15-.94,.45l-.62,.62c-1.66,1.66-3.33,3.32-4.97,5.01-.76,.78-1.15,1.82-1.15,3.07,0,1.52,0,3.05,0,4.57v2.49c0,.21-.17,.38-.37,.38Zm-.57-.75h.19v-2.11c0-1.52,0-3.05,0-4.57,0-1.45,.47-2.66,1.36-3.58,1.64-1.69,3.31-3.36,4.98-5.02l.62-.62c.43-.43,.95-.67,1.47-.67h0c.48,0,.93,.2,1.3,.57,.77,.78,.73,1.92-.1,2.78-.28,.29-.57,.58-.86,.87-.35,.35-.7,.69-1.04,1.05-.72,.75-.82,1.69-.28,2.39,.58,.74,1.5,.87,2.41,.33,.77-.45,1.55-.91,2.32-1.37,1.32-.78,2.63-1.56,3.96-2.32,.58-.33,.81-.73,.8-1.38-.03-1.63-.02-3.29,0-4.71,.01-1,.72-1.76,1.69-1.81,.91-.04,1.69,.62,1.84,1.58,.03,.18,.03,.36,.03,.55v.1c0,.54,0,1.08,0,1.62-.01,1.24-.02,2.52,.03,3.77,.05,1.15-.37,1.92-1.4,2.58-1.82,1.18-3.63,2.38-5.43,3.59-.99,.67-1.99,1.33-2.99,1.99-.88,.58-1.33,1.21-1.4,1.96-.06,.63-.05,1.26-.03,1.93,0,.17,0,.34,.01,.52h.12v-.22c0-.42,.01-.82,0-1.23-.07-1.23,.43-2.17,1.52-2.88,1.69-1.11,3.37-2.23,5.05-3.35,1.22-.81,2.43-1.62,3.65-2.43,.74-.49,1.08-1.12,1.07-2,0-1.1,0-2.21,0-3.31,0-.94,0-1.87,0-2.81,0-.64-.23-1.22-.64-1.63-.36-.35-.85-.55-1.35-.54-1.15,.01-1.96,.91-1.96,2.19v1.38c0,1.07,0,2.14-.02,3.21,0,.36-.22,.86-.57,1.07-2.05,1.24-4.09,2.44-6.52,3.86-.68,.4-1.39,.3-1.91-.24-.59-.62-.55-1.52,.1-2.2,.37-.39,.75-.76,1.13-1.14,.3-.3,.61-.6,.9-.91,.57-.58,.76-1.26,.56-2.02-.2-.75-.72-1.29-1.43-1.49-.74-.2-1.54,.03-2.14,.62-.85,.84-1.69,1.69-2.52,2.54-.92,.94-1.84,1.87-2.78,2.79-1.16,1.14-1.73,2.52-1.73,4.22v6.51Z"/>
  </g>
  <g>
    <path class="cls-2" d="M21.99,48.02h-.91c0-.24,0-.46,0-.67,0-2.1,0-4.19,0-6.29,0-1.44-.49-2.67-1.52-3.69-1.74-1.73-3.45-3.48-5.18-5.21-.24-.24-.54-.48-.85-.59-.67-.25-1.38,.04-1.74,.61-.37,.59-.33,1.31,.18,1.84,.69,.73,1.42,1.41,2.11,2.13,.67,.7,.82,1.65,.45,2.44-.35,.75-1.16,1.25-2.01,1.16-.36-.04-.73-.17-1.04-.35-2.17-1.26-4.32-2.54-6.48-3.81-.58-.34-.85-.82-.84-1.5,.01-1.55,0-3.1,0-4.64,0-.97-.56-1.62-1.39-1.63-.82,0-1.42,.65-1.43,1.61-.01,2.08,0,4.15,0,6.23,0,.67,.34,1.08,.87,1.43,2.86,1.89,5.69,3.82,8.56,5.69,1.29,.84,1.94,1.94,1.86,3.48-.03,.56,0,1.13,0,1.74h-.94c0-.55-.04-1.09,0-1.63,.11-1.3-.46-2.17-1.54-2.87-2.83-1.83-5.6-3.74-8.42-5.58-.92-.61-1.36-1.39-1.34-2.49,.03-2.02,0-4.04,.01-6.06,.01-1.62,1.31-2.72,2.83-2.43,1.07,.21,1.86,1.16,1.87,2.32,.01,1.57,.02,3.14,0,4.7,0,.42,.13,.68,.5,.9,2.1,1.22,4.18,2.46,6.28,3.69,.69,.41,1.29,.34,1.68-.17,.39-.5,.31-1.11-.25-1.68-.62-.63-1.25-1.24-1.87-1.87-1.05-1.08-1.09-2.59-.11-3.57,.98-.99,2.57-.95,3.63,.12,1.88,1.89,3.76,3.78,5.61,5.69,.88,.9,1.38,2.05,1.42,3.28,.08,2.54,.02,5.09,.02,7.68Z"/>
    <path class="cls-2" d="M21.99,48.39h-.91c-.21,0-.38-.17-.38-.38v-2.6c0-1.45,0-2.9,0-4.35,0-1.37-.46-2.49-1.41-3.43-.92-.92-1.84-1.84-2.75-2.76-.81-.82-1.62-1.64-2.43-2.45-.26-.26-.5-.43-.72-.51-.48-.18-1.01,.01-1.3,.46-.29,.46-.24,.99,.13,1.38,.35,.37,.7,.72,1.06,1.08,.35,.35,.7,.7,1.04,1.06,.77,.81,.96,1.91,.51,2.86-.43,.92-1.38,1.48-2.38,1.37-.4-.04-.82-.18-1.19-.4-1.25-.73-2.5-1.46-3.75-2.2-.91-.54-1.82-1.07-2.73-1.61-.7-.41-1.03-1.01-1.03-1.82,.01-1.35,0-2.71,0-4.06v-.58c0-.77-.39-1.25-1.02-1.26-.24,.01-.51,.09-.69,.27-.23,.22-.35,.57-.36,.96,0,1.08,0,2.17,0,3.25,0,1,0,1.99,0,2.98,0,.46,.2,.78,.7,1.11,1.07,.71,2.14,1.43,3.21,2.14,1.78,1.19,3.55,2.38,5.35,3.54,1.45,.94,2.12,2.19,2.04,3.81-.02,.38-.01,.76,0,1.15v.58c0,.21-.16,.38-.37,.38h-.94c-.21,0-.38-.17-.38-.38,0-.17,0-.34,0-.51,0-.39-.02-.77,.01-1.16,.09-1.09-.32-1.84-1.37-2.52-1.58-1.02-3.15-2.07-4.72-3.12-1.23-.83-2.47-1.65-3.71-2.46C.48,37.55-.02,36.63,0,35.42c.02-1.13,.01-2.25,.01-3.38,0-.89,0-1.78,0-2.67,0-.9,.38-1.72,1.03-2.25,.62-.51,1.42-.7,2.25-.54,1.27,.24,2.16,1.35,2.17,2.69,.01,1.57,.02,3.14,0,4.71,0,.29,.07,.42,.32,.57,1.34,.78,2.67,1.56,4,2.35l2.28,1.34c.78,.46,1.09,.05,1.2-.08,.34-.44,.07-.89-.23-1.19-.31-.32-.63-.63-.94-.95-.31-.31-.62-.62-.93-.93-1.18-1.21-1.23-2.97-.11-4.1,.53-.53,1.23-.82,1.98-.82h0c.8,0,1.58,.33,2.18,.94,1.88,1.89,3.76,3.78,5.62,5.7,.96,.99,1.48,2.21,1.52,3.53,.05,1.81,.04,3.66,.03,5.44,0,.75,0,1.49,0,2.25,0,.21-.17,.38-.38,.38Zm-.54-.75h.16c0-.63,0-1.25,0-1.88,.01-1.78,.02-3.62-.03-5.42-.03-1.13-.49-2.18-1.31-3.03-1.85-1.91-3.73-3.8-5.61-5.69-.46-.46-1.05-.72-1.65-.72h0c-.54,0-1.06,.21-1.44,.6-.84,.84-.79,2.12,.11,3.05,.3,.31,.61,.62,.92,.92,.32,.32,.64,.63,.95,.95,.69,.7,.79,1.52,.28,2.17-.52,.67-1.31,.77-2.17,.27l-2.28-1.34c-1.33-.79-2.66-1.57-4-2.35-.49-.28-.7-.66-.69-1.22,.02-1.56,.02-3.13,0-4.69,0-.98-.65-1.78-1.56-1.96-.6-.11-1.18,.02-1.63,.39-.48,.39-.75,.99-.75,1.68,0,.89,0,1.77,0,2.66,0,1.13,0,2.27-.01,3.4-.02,.96,.35,1.63,1.17,2.17,1.24,.81,2.48,1.64,3.71,2.47,1.56,1.05,3.12,2.09,4.7,3.11,1.28,.82,1.82,1.84,1.71,3.21-.03,.36-.02,.72-.01,1.08,0,.05,0,.1,0,.15h.19v-.19c0-.41-.01-.8,0-1.2,.07-1.35-.47-2.35-1.69-3.14-1.79-1.17-3.58-2.36-5.36-3.55-1.07-.71-2.14-1.43-3.21-2.14-.45-.29-1.04-.8-1.04-1.74,0-.99,0-1.99,0-2.98,0-1.08,0-2.17,0-3.25,0-.6,.21-1.13,.58-1.5,.32-.32,.77-.49,1.23-.49,1.03,.01,1.76,.84,1.76,2v.58c0,1.36,0,2.71,0,4.07,0,.55,.19,.9,.66,1.17,.91,.53,1.82,1.07,2.74,1.61,1.25,.74,2.49,1.47,3.75,2.2,.28,.16,.6,.27,.89,.3,.67,.07,1.33-.32,1.63-.95,.32-.67,.17-1.45-.38-2.03-.33-.35-.68-.7-1.03-1.04-.36-.36-.73-.72-1.08-1.09-.61-.64-.7-1.55-.22-2.3,.47-.75,1.37-1.07,2.19-.77,.32,.12,.65,.35,.99,.68,.82,.81,1.63,1.63,2.44,2.45,.91,.92,1.82,1.84,2.74,2.76,1.08,1.07,1.63,2.4,1.63,3.96,0,1.45,0,2.9,0,4.36v2.23Z"/>
  </g>
  <g>
    <path class="cls-2" d="M23.63,13.19c1.27,0,2.49,0,3.71,0,.49,0,.85,.36,.88,.82,.02,.44-.31,.83-.76,.89-.11,.01-.21,0-.32,0-1.04,0-2.08,0-3.12,0h-.37v1.72c.47,0,.94,0,1.41,0,.24,0,.48,0,.72,0,.68,0,1.16,.33,1.42,.95,.31,.74,.6,1.48,.89,2.23,.08,.2,.17,.27,.39,.27,.53,0,.9,.38,.89,.87,0,.49-.39,.83-.93,.84q-1.44,.04-1.98-1.31c-.25-.62-.51-1.24-.74-1.86-.08-.22-.19-.28-.42-.28-.62,.02-1.24,0-1.86,0-.93,0-1.53-.6-1.53-1.52,0-1.76,0-3.51,0-5.27,0-.19-.04-.32-.22-.43-.77-.49-1.1-1.39-.84-2.25,.24-.83,1.03-1.42,1.9-1.43,.89,0,1.69,.57,1.95,1.42,.26,.85-.06,1.75-.82,2.25-.19,.12-.25,.25-.24,.46,.02,.52,0,1.05,0,1.61Z"/>
    <g>
      <path class="cls-2" d="M25.52,20.9c-.07-.15-.14-.29-.21-.43-1.41,1.31-3.01,1.74-4.81,.97-1.62-.69-2.54-2-2.59-3.76-.05-2.13,1.04-3.51,2.96-4.27v-.58c-1.93,.5-3.42,2.32-3.54,4.34-.14,2.18,1.18,4.19,3.21,4.92,1.75,.63,3.89,.13,5.02-1.1-.01-.03-.02-.05-.04-.08Z"/>
      <path class="cls-2" d="M24.79,19.29c-.88,1.11-1.99,1.6-3.41,1.24-1.26-.32-2.18-1.36-2.3-2.68-.14-1.49,.53-2.54,1.81-3.21,0-.14,0-.28,0-.43v-.17c-1.49,.5-2.49,2.05-2.4,3.7,.1,1.66,1.4,3.13,3.02,3.41,1.36,.23,2.81-.31,3.55-1.27-.09-.2-.18-.4-.27-.6Z"/>
      <path class="cls-2" d="M19.06,14.17l1.8-.92,.02,1.24s-1.78,.3-1.82,1.88c-.04,1.58-1.03,4.25,3.68,4.52l2.31-.99,.27,.57-.07,.51s-3.79,2.48-5.55,.35-2.28-2.35-2.11-3.93,1.47-3.22,1.47-3.22Z"/>
    </g>
  </g>
</svg>