<?xml version="1.0" encoding="UTF-8"?>
<svg id="Layer_1" data-name="Layer 1" xmlns="http://www.w3.org/2000/svg" viewBox="0 0 46.86 48.89">
  <defs>
    <style>
      .cls-1 {
        fill: #b3ffae;
      }

      .cls-2 {
        fill: #28663d;
      }

      .cls-3 {
        fill: #5fb257;
      }
    </style>
  </defs>
  <g>
    <path class="cls-1" d="M34.92,32.04l-6.66,7.23s-.53,.69-.53,2.34-.03,6.87-.03,6.87l-2.63,.03,.03-6.97,.66-2.97,5.94-5.97s1.44-2.13,3.22-.56Z"/>
    <path class="cls-1" d="M2.77,27.88l-.07,7.1s-.37,1.55,1.77,2.59,8.74,5.7,8.74,5.7c0,0,.72,.74,.72,1.77s-.07,3.39-.07,3.39l-1.8,.06-.2-3.39s-1.03-1.48-2.88-2.51-7.91-5.62-7.91-5.62l-.22-5.47s-.52-3.47,1.92-3.62Z"/>
  </g>
  <g>
    <g>
      <g>
        <path class="cls-3" d="M35.54,.47h0s-14.17,.01-14.17,.01c0,0-16-.01-16-.01H2.64C1.4,.47,.39,1.48,.39,2.72c0,6.21,0,14.27,0,19.95v.61h.94V3.04c0-.85,.69-1.54,1.54-1.54H44.01c.85,0,1.54,.69,1.54,1.54V23.27h.93v-.39c0-5.76,0-13.88,0-20.16,0-1.25-1.01-2.25-2.26-2.25h-8.68Z"/>
        <path class="cls-3" d="M1.33,23.66H.39c-.21,0-.38-.17-.38-.38V2.72C.01,1.27,1.19,.09,2.64,.09h2.74c.18,0,4.15,0,7.99,0,5.5,0,7.36,0,8,.09V.11h14.07s.07-.01,.1-.01h8.68c1.45,0,2.63,1.18,2.63,2.63V23.27c0,.21-.17,.38-.37,.38h-.93c-.21,0-.38-.17-.38-.38V3.04c0-.64-.52-1.17-1.17-1.17H2.88c-.64,0-1.17,.52-1.17,1.17V23.28c0,.21-.17,.38-.38,.38Zm-.57-.75h.2V3.04c0-1.06,.86-1.92,1.92-1.92H44.01c1.06,0,1.92,.86,1.92,1.92V22.9l.18-.02V2.72c0-1.03-.84-1.88-1.88-1.88h-8.58s-.07,.01-.1,.01h-14.18c-.17,0-4.14,0-7.99,0-5.5,0-7.36,0-8-.09v.08H2.64C1.61,.84,.76,1.69,.76,2.72V22.91Z"/>
      </g>
      <g>
        <path class="cls-3" d="M35.19,48.5h-.88c0-.95-.07-1.89,.02-2.81,.1-1.01,.74-1.73,1.58-2.29,2.91-1.92,5.79-3.88,8.71-5.79,.66-.43,.94-.97,.93-1.75-.03-1.96,0-3.92-.01-5.88,0-1.02-.55-1.68-1.4-1.68-.83,0-1.42,.67-1.42,1.67,0,1.53-.01,3.06,0,4.59,0,.7-.28,1.19-.88,1.54-2.15,1.25-4.28,2.53-6.43,3.78-1.03,.6-2.18,.41-2.85-.46-.65-.85-.56-1.97,.26-2.83,.62-.65,1.27-1.27,1.91-1.92,.7-.71,.77-1.62,.18-2.25-.6-.65-1.58-.64-2.31,.07-1.78,1.76-3.55,3.54-5.31,5.33-1.06,1.07-1.54,2.36-1.52,3.88,.03,2.25,0,4.5,0,6.79h-.91c0-.18-.03-.35-.03-.52,0-2.14,.01-4.27,0-6.41-.01-1.67,.54-3.12,1.7-4.31,1.81-1.85,3.63-3.68,5.48-5.49,1.03-1.01,2.59-1,3.54-.03,.96,.99,.93,2.48-.09,3.53-.61,.63-1.25,1.24-1.87,1.87-.58,.6-.68,1.23-.27,1.73,.41,.5,1.02,.55,1.74,.12,2.06-1.21,4.11-2.43,6.18-3.63,.39-.22,.54-.49,.53-.94-.02-1.57-.03-3.14,0-4.7,.02-1.24,.97-2.25,2.13-2.35,1.19-.1,2.24,.67,2.5,1.85,.05,.23,.06,.47,.06,.7,0,2.04,0,4.08,0,6.11,0,.99-.39,1.72-1.21,2.27-2.89,1.91-5.76,3.86-8.66,5.75-1,.65-1.51,1.49-1.43,2.69,.04,.56,0,1.13,0,1.76Z"/>
        <path class="cls-3" d="M35.19,48.88h-.88c-.21,0-.38-.17-.38-.38,0-.29,0-.57-.01-.86-.02-.65-.03-1.33,.04-1.99,.1-1.01,.67-1.85,1.75-2.56,1.18-.78,2.35-1.57,3.53-2.35,1.72-1.15,3.45-2.3,5.18-3.44,.55-.36,.77-.78,.76-1.44-.02-1.31-.02-2.62-.01-3.93,0-.65,0-1.31,0-1.96,0-.82-.38-1.3-1.02-1.31-.27,.01-.5,.09-.68,.27-.23,.23-.36,.6-.37,1.03v.31c0,1.42-.01,2.85,0,4.27,.01,.83-.34,1.44-1.06,1.87-1.06,.62-2.12,1.25-3.18,1.87-1.08,.64-2.17,1.28-3.25,1.91-1.18,.69-2.55,.46-3.33-.55-.77-1-.65-2.33,.29-3.32,.37-.39,.75-.77,1.14-1.15,.26-.26,.52-.51,.77-.77,.56-.57,.62-1.25,.17-1.73-.21-.23-.48-.35-.78-.35-.37-.03-.7,.15-.99,.44-1.78,1.76-3.55,3.54-5.31,5.32-.97,.98-1.43,2.17-1.41,3.61,.02,1.57,.02,3.15,.01,4.73v2.06c0,.21-.17,.38-.38,.38h-.91c-.2,0-.36-.16-.37-.35v-.16c-.02-.13-.03-.26-.03-.38v-2.03c0-1.46,0-2.92,0-4.37-.01-1.79,.6-3.33,1.81-4.57,1.98-2.02,3.77-3.82,5.48-5.5,.58-.57,1.34-.9,2.1-.86,.75,0,1.45,.31,1.97,.85,1.12,1.15,1.08,2.85-.09,4.05-.33,.34-.66,.67-.99,1-.29,.29-.58,.58-.87,.88-.31,.32-.6,.79-.25,1.23,.1,.13,.43,.53,1.26,.04l1.97-1.16c1.4-.83,2.8-1.65,4.21-2.47,.27-.16,.35-.3,.35-.61-.03-1.76-.03-3.31,0-4.72,.03-1.4,1.11-2.6,2.47-2.71,1.38-.12,2.6,.78,2.9,2.14,.06,.26,.07,.53,.07,.78v2.32c0,1.26,0,2.52,0,3.79,0,1.12-.44,1.96-1.38,2.58-1.07,.71-2.14,1.43-3.22,2.14-1.81,1.21-3.62,2.42-5.45,3.61-.94,.61-1.33,1.33-1.26,2.35,.03,.39,.02,.79,.01,1.2,0,.19,0,.38,0,.58s-.17,.38-.38,.38Zm-.51-.75h.14c0-.07,0-.15,0-.22,0-.39,.01-.77-.01-1.14-.08-1.28,.44-2.27,1.6-3.03,1.82-1.19,3.63-2.4,5.44-3.61,1.07-.72,2.14-1.43,3.22-2.15,.72-.48,1.05-1.1,1.04-1.95-.01-1.26,0-2.53,0-3.79v-2.32c0-.24,0-.44-.05-.62-.22-.99-1.08-1.64-2.11-1.56-.98,.08-1.77,.96-1.79,1.98-.03,1.4-.03,2.94,0,4.69,0,.58-.21,.98-.72,1.27-1.41,.81-2.8,1.64-4.2,2.47l-1.97,1.16c-.89,.52-1.69,.44-2.22-.21-.53-.66-.42-1.49,.29-2.23,.29-.3,.59-.59,.88-.88,.33-.33,.66-.66,.99-.99,.87-.9,.91-2.16,.09-3.01-.38-.39-.89-.61-1.44-.62-.59,.01-1.13,.22-1.57,.65-1.71,1.68-3.5,3.47-5.47,5.49-1.07,1.09-1.61,2.45-1.6,4.04,.01,1.46,0,2.92,0,4.38v2.03s0,.1,0,.15h.19v-1.69c0-1.58,.01-3.15,0-4.72-.02-1.63,.52-3.03,1.63-4.15,1.76-1.79,3.53-3.57,5.32-5.33,.44-.43,1.02-.67,1.53-.65,.5,0,.96,.22,1.31,.59,.73,.78,.65,1.92-.18,2.77-.26,.26-.52,.52-.78,.78-.38,.37-.75,.75-1.12,1.13-.69,.72-.78,1.64-.24,2.34,.55,.72,1.5,.86,2.36,.36,1.08-.63,2.17-1.27,3.25-1.91,1.06-.62,2.12-1.25,3.18-1.87,.49-.29,.7-.65,.69-1.21-.02-1.43-.01-2.86,0-4.29v-.31c0-.63,.21-1.19,.59-1.56,.32-.32,.73-.48,1.2-.48h0c1.06,0,1.77,.83,1.77,2.06,0,.65,0,1.31,0,1.96,0,1.3,0,2.61,.01,3.91,.02,.91-.33,1.57-1.1,2.07-1.73,1.14-3.45,2.29-5.17,3.44-1.18,.79-2.35,1.57-3.53,2.35-.89,.59-1.34,1.23-1.42,2.01-.06,.62-.05,1.24-.03,1.9,0,.17,0,.34,.01,.5Z"/>
      </g>
      <g>
        <path class="cls-3" d="M12.62,48.51h-.94c0-.64-.02-1.28,0-1.92,.04-1.08-.4-1.86-1.31-2.45-2.88-1.89-5.73-3.83-8.61-5.72-.96-.63-1.41-1.44-1.39-2.59,.04-1.96,0-3.92,.01-5.88,0-1.53,.97-2.59,2.35-2.59,1.36,0,2.34,1.09,2.35,2.62,0,1.49,.01,2.98,0,4.47,0,.43,.14,.68,.51,.9,2.1,1.22,4.19,2.46,6.28,3.69,.68,.4,1.29,.32,1.68-.19,.37-.48,.3-1.1-.23-1.64-.63-.65-1.28-1.27-1.91-1.92-1.05-1.07-1.08-2.58-.09-3.57,.96-.96,2.5-.96,3.54,.06,1.83,1.8,3.64,3.62,5.44,5.45,1.18,1.2,1.74,2.66,1.72,4.36-.02,2.29,0,4.58,0,6.9h-.94c0-.23,0-.44,0-.65,0-2.08-.02-4.15,0-6.23,.01-1.42-.43-2.67-1.42-3.68-1.79-1.84-3.61-3.65-5.44-5.45-.71-.7-1.65-.7-2.26-.08-.61,.62-.56,1.54,.13,2.25,.61,.63,1.25,1.24,1.87,1.87,.88,.91,.99,2.05,.31,2.92-.68,.87-1.82,1.03-2.9,.39-2.09-1.23-4.18-2.47-6.28-3.69-.66-.38-.97-.9-.96-1.67,.03-1.47,.01-2.94,0-4.41,0-.23-.01-.47-.07-.7-.2-.71-.82-1.14-1.49-1.06-.68,.08-1.23,.63-1.24,1.35-.02,2.21-.02,4.43,0,6.64,0,.59,.37,.95,.84,1.26,2.86,1.89,5.69,3.82,8.57,5.69,1.31,.85,1.97,1.96,1.88,3.53-.03,.56,0,1.13,0,1.74Z"/>
        <path class="cls-3" d="M12.62,48.89h-.94c-.21,0-.38-.17-.38-.38v-.59c0-.45-.01-.9,0-1.34,.04-.93-.31-1.59-1.14-2.13-1.37-.9-2.74-1.81-4.11-2.73-1.5-1-3-2-4.51-2.99C.47,38.02-.03,37.1,0,35.82c.03-1.32,.02-2.64,.02-3.96,0-.64,0-1.27,0-1.91,0-.85,.26-1.58,.76-2.12,.49-.54,1.19-.84,1.97-.84h0c1.57,0,2.71,1.26,2.72,2.99v.6c0,1.29,.01,2.58,0,3.87,0,.29,.07,.42,.32,.57,1.32,.77,2.64,1.54,3.96,2.32l2.32,1.37c.36,.21,.85,.36,1.2-.09,.35-.46,.03-.92-.2-1.15-.35-.36-.71-.72-1.06-1.07-.28-.28-.56-.56-.84-.85-1.18-1.2-1.22-2.97-.09-4.1,1.11-1.12,2.9-1.09,4.07,.06,1.83,1.8,3.64,3.62,5.45,5.45,1.23,1.25,1.84,2.8,1.83,4.62-.01,1.61,0,3.22,0,4.84v2.06c0,.21-.17,.38-.37,.38h-.94c-.21,0-.38-.17-.38-.38v-2.49c0-1.46,0-2.93,0-4.39,.01-1.38-.41-2.5-1.31-3.42-1.69-1.73-3.47-3.52-5.43-5.45-.28-.28-.63-.45-.95-.43-.29,0-.56,.12-.78,.34-.46,.47-.41,1.17,.13,1.73,.3,.31,.6,.61,.91,.91,.32,.32,.64,.64,.96,.96,1.01,1.05,1.14,2.39,.33,3.41-.8,1.01-2.16,1.21-3.39,.48l-2.29-1.35c-1.33-.78-2.65-1.57-3.98-2.34-.79-.46-1.16-1.11-1.14-2,.02-1.18,.02-2.36,0-3.55v-.85c0-.19-.01-.41-.07-.6-.15-.53-.58-.85-1.09-.79-.51,.06-.9,.48-.91,.98-.02,2.21-.02,4.43,0,6.64,0,.37,.19,.63,.67,.95,1.01,.67,2.02,1.35,3.03,2.02,1.84,1.23,3.68,2.46,5.53,3.66,1.47,.96,2.14,2.22,2.05,3.86-.02,.38-.02,.75,0,1.15v.58c0,.21-.16,.38-.37,.38Zm-.57-.75h.19v-.19c0-.41-.01-.81,.01-1.2,.08-1.37-.47-2.38-1.71-3.19-1.86-1.21-3.7-2.44-5.54-3.67-1.01-.67-2.02-1.35-3.03-2.02-.47-.31-1-.77-1.01-1.57-.01-2.22-.02-4.43,0-6.65,0-.88,.68-1.62,1.57-1.72,.86-.1,1.65,.45,1.9,1.33,.08,.27,.09,.56,.09,.79v.85c.01,1.19,.02,2.38,0,3.57-.01,.63,.21,1.02,.77,1.34,1.33,.77,2.66,1.56,3.99,2.34l2.29,1.35c.92,.54,1.85,.42,2.42-.3,.57-.73,.46-1.65-.28-2.43-.31-.32-.63-.64-.95-.95-.31-.31-.62-.61-.92-.92-.84-.86-.89-2-.13-2.78,.36-.36,.82-.56,1.31-.56h.01c.53,0,1.05,.23,1.47,.64,1.96,1.94,3.74,3.72,5.44,5.46,1.03,1.05,1.54,2.38,1.52,3.95-.01,1.46-.01,2.92,0,4.38v2.12h.19v-1.68c0-1.62,0-3.24,0-4.85,.01-1.64-.52-2.97-1.62-4.09-1.8-1.83-3.61-3.65-5.44-5.45-.88-.87-2.18-.9-3.01-.07-.84,.85-.8,2.13,.1,3.04,.28,.28,.56,.56,.84,.84,.36,.36,.72,.72,1.07,1.08,.65,.67,.75,1.49,.25,2.13-.51,.66-1.34,.77-2.17,.28l-2.32-1.37c-1.32-.78-2.63-1.55-3.95-2.32-.49-.28-.7-.66-.69-1.23,.02-1.28,.01-2.57,0-3.86v-.6c0-1.32-.82-2.24-1.97-2.24h0c-.57,0-1.06,.21-1.41,.6-.37,.4-.56,.96-.56,1.62,0,.64,0,1.27,0,1.91,0,1.33,.01,2.65-.02,3.98-.02,1.01,.35,1.71,1.22,2.27,1.51,.99,3.01,1.99,4.51,2.99,1.37,.91,2.73,1.82,4.1,2.72,1.04,.68,1.52,1.59,1.47,2.78-.02,.43-.01,.87,0,1.31v.23Z"/>
      </g>
      <path class="cls-3" d="M21.97,30.21c.36,.85,1.6,1.29,2.38,.76,.26-.18,.49-.67,.44-.96-.06-.29-.46-.58-.78-.74-.24-.12-.58-.03-.87-.03-1.12-.01-1.95-.7-2.04-1.7-.09-.99,.54-1.8,1.62-2.05,.07-.02,.15-.03,.25-.05v-1.33h.92v1.32c1.1,.18,1.78,.74,1.91,1.91h-.86c-.41-.87-1.44-1.24-2.34-.82-.43,.2-.62,.55-.55,1,.08,.45,.38,.73,.84,.78,.29,.03,.59,0,.88,.01,1.09,.01,1.9,.69,2.01,1.67,.11,.98-.53,1.82-1.59,2.07-.08,.02-.15,.03-.28,.05v1.35h-.91v-1.3c-1.34-.39-1.8-.86-1.88-1.93h.86Z"/>
      <g>
        <path class="cls-3" d="M.4,41.51h.93c0,.69,0,1.39,0,2.08,0,.72,.09,.81,.81,.82,1.23,0,2.46,0,3.74,0v.92c-1.43,0-2.88,.03-4.32-.02-.62-.02-1.12-.6-1.15-1.23-.04-.84,0-1.68,0-2.58Z"/>
        <path class="cls-3" d="M3.4,45.71c-.62,0-1.24,0-1.86-.03-.79-.03-1.47-.74-1.51-1.58-.03-.59-.02-1.18-.02-1.79v-.81c0-.21,.17-.38,.38-.38h.93c.21,0,.38,.17,.38,.38v2.08c0,.3,.02,.4,.04,.43,0,0,.11,.02,.4,.02h2.56s1.17,0,1.17,0c.21,0,.38,.17,.38,.38v.92c0,.21-.17,.38-.38,.38h-1.23c-.41,0-.82,.01-1.24,.01Zm-2.63-3.83v.44c0,.6-.02,1.17,.01,1.75,.02,.46,.38,.85,.79,.87,1.02,.04,2.06,.03,3.06,.02h.86v-.17h-.8s-2.56,0-2.56,0c-.93,0-1.18-.26-1.18-1.19v-1.71h-.18Z"/>
      </g>
      <g>
        <path class="cls-3" d="M40.97,45.34v-.94c1.22,0,2.43,0,3.63,0,.89,0,.94-.05,.94-.92,0-.64,0-1.28,0-1.96h.9c0,.91,.06,1.82-.02,2.72-.05,.62-.64,1.08-1.28,1.09-1.37,.03-2.74,0-4.17,0Z"/>
        <path class="cls-3" d="M43.41,45.73c-.4,0-.79,0-1.2,0h-1.24c-.21,0-.38-.17-.38-.38v-.94c0-.21,.17-.38,.38-.38h3.63c.16,0,.48,0,.55-.04,0-.04,0-.36,0-.51v-1.96c0-.21,.17-.38,.38-.38h.9c.21,0,.38,.17,.38,.38,0,.27,0,.54,0,.8,.01,.64,.02,1.3-.03,1.95-.07,.79-.79,1.41-1.65,1.43-.58,.01-1.16,.01-1.74,.01Zm-2.06-.75h.87c.99,0,1.96,0,2.92,0,.47,0,.88-.34,.92-.74,.05-.62,.04-1.26,.03-1.88,0-.15,0-.29,0-.44h-.16v1.58c0,1.08-.22,1.3-1.31,1.3h-3.26v.19Z"/>
      </g>
      <g>
        <path class="cls-1" d="M9.3,19.59c-.32-.09-.58-.17-.84-.25,1.08-5,5.95-11.1,14.04-11.6,4.19-.26,7.93,1.02,11.1,3.79,3.17,2.76,4.9,6.28,5.31,10.47,.07,.05,.14,.11,.21,.16,.12-.19,.23-.39,.36-.58,.13-.19,.28-.37,.47-.61,.27,.32,.45,.53,.66,.78-.58,.58-1.19,1.21-1.82,1.82-.1,.1-.39,.15-.47,.08-.15-.14-.27-.36-.3-.57-.17-1.12-.2-2.27-.47-3.36-1.55-6.3-7.23-10.9-13.58-11.05-6.74-.16-12.56,3.98-14.5,10.32-.06,.18-.11,.37-.18,.61Z"/>
        <path class="cls-1" d="M8.25,22.5c-.27,.36-.55,.71-.85,1.1-.28-.31-.47-.52-.71-.79,.58-.57,1.18-1.18,1.82-1.76,.12-.11,.42-.18,.51-.11,.16,.12,.27,.36,.3,.57,.19,1.22,.28,2.45,.53,3.65,.18,.87,.57,1.7,.89,2.6-.24,.11-.49,.23-.78,.37-.9-1.77-1.35-3.61-1.54-5.54-.06-.03-.12-.06-.18-.09Z"/>
        <path class="cls-1" d="M37.56,28.91c-.35-.19-.6-.33-.83-.45,.46-1.17,.91-2.28,1.37-3.44,.24,.06,.51,.14,.91,.24-.49,1.24-.96,2.42-1.45,3.64Z"/>
      </g>
    </g>
    <g>
      <path class="cls-2" d="M15.23,22.14c.27,.08,.36,.18,.36,.44,0,1.25,0,4.37,0,7.6h.88v-7.85c.5-.29,.95-.55,1.44-.84,.42,.46,1.01,.77,1.75,.78,.74,0,1.35-.29,1.84-.84,.51,.53,1.12,.85,1.89,.84,.76,0,1.37-.29,1.84-.83,1.42,1.11,2.45,1.11,3.68,.02,.24,.18,.47,.38,.74,.52,.26,.13,.55,.21,.86,.32v7.89h.86c0-3.3,0-6.43,0-7.73,0-.23,.13-.29,.32-.37,.92-.38,1.47-1.21,1.31-2.06-.33-1.79-.69-3.58-1.03-5.37-.06-.34-.25-.47-.61-.47-5.28,0-10.56,0-15.84,0-.37,0-.55,.15-.61,.47-.35,1.74-.68,3.48-1.09,5.21-.19,.79,.31,1.93,1.43,2.27Zm15.56-.64c-.7,.02-1.25-.4-1.39-1.06h2.68c-.07,.61-.61,1.04-1.29,1.06Zm-1.42-6.5h1.79c.3,1.55,.59,3.09,.89,4.65h-2.68v-4.65Zm-2.3,6.51c-.7,0-1.27-.46-1.32-1.06h2.66c-.05,.6-.64,1.06-1.34,1.06Zm-1.38-6.51h2.77v4.65h-2.77v-4.65Zm-2.17,6.5c-.81,.06-1.43-.35-1.54-1.05,.07,0,.13-.02,.19-.02,.85,0,1.7,0,2.54,0,.01,.55-.52,1.02-1.2,1.07Zm-1.57-6.5h2.84v4.64h-2.84v-4.64Zm-2.27,6.51c-.69,0-1.24-.41-1.37-1.08,.45,0,.9,0,1.34,0s.9,0,1.35,0c-.09,.63-.63,1.07-1.32,1.08Zm-1.41-6.51h2.77v4.66h-2.77v-4.66Zm-2.95,1.7c.1-.47,.21-.93,.29-1.4,.04-.26,.16-.33,.43-.32,.44,.02,.87,0,1.34,0v4.67h-2.66c.21-1,.41-1.98,.61-2.96Zm1.98,3.75c0,.53-.52,1-1.2,1.05-.74,.06-1.36-.38-1.46-1.05h2.65Z"/>
      <path class="cls-2" d="M31.74,30.56h-1.61l-.02-8c-.23-.07-.44-.14-.64-.25-.2-.1-.37-.24-.55-.37-1.2,.95-2.32,.95-3.65,0-.51,.46-1.14,.7-1.88,.71-.7,0-1.34-.23-1.89-.7-.53,.46-1.14,.69-1.84,.69h-.01c-.69,0-1.31-.24-1.81-.68l-1.01,.59v8.01h-1.62v-1.19c0-2.94,0-5.65,0-6.8,.01-.04,0-.06-.09-.08h0c-1.3-.4-1.92-1.72-1.69-2.71,.31-1.31,.58-2.65,.84-3.95l.25-1.25c.07-.35,.3-.77,.98-.77,5.28,0,10.56,0,15.84,0,.55,0,.88,.26,.98,.77,.15,.82,.31,1.63,.47,2.44,.19,.98,.38,1.95,.56,2.93,.19,1.02-.43,2.01-1.54,2.47-.04,.02-.1,.04-.12,.06,.04,1.27,.04,4.39,.04,7.7v.38Zm-.86-.75h.11c0-3.16,0-6.1,0-7.36,0-.49,.35-.63,.55-.71,.77-.32,1.21-.98,1.09-1.64-.18-.98-.37-1.95-.56-2.92-.16-.82-.32-1.63-.47-2.45-.03-.14-.03-.16-.24-.16-5.28,0-10.56,0-15.84,0-.21,0-.22,.04-.24,.17l-.25,1.24c-.26,1.3-.53,2.65-.84,3.98-.13,.56,.21,1.53,1.18,1.82h0c.27,.08,.63,.26,.62,.81,0,1.14,0,3.86,0,6.79v.44h.12v-7.69l.75-.44c-.21,.1-.44,.16-.68,.18-.93,.08-1.73-.52-1.86-1.37l-.06-.43h3.46v.37c.01,.44-.22,.84-.61,1.11l.89-.52,.2,.22c.27,.3,.75,.65,1.48,.65h.01c.61,0,1.12-.23,1.55-.72l.27-.3,.28,.29c.47,.49,.96,.75,1.62,.73,.63,0,1.16-.24,1.56-.7l.23-.27,.28,.22c.19,.15,.37,.27,.54,.38-.35-.25-.58-.63-.61-1.07l-.03-.4h3.47l-.03,.41c-.07,.79-.81,1.4-1.71,1.4-.2-.02-.37-.03-.54-.08,.74,.26,1.36,.05,2.11-.61l.22-.2,.47,.35c.15,.12,.3,.23,.46,.32,.16,.08,.33,.14,.52,.2l.54,.19v7.78Zm-4.55-8.99c.17,.19,.45,.31,.76,.31h0c.31,0,.59-.12,.77-.31h-1.54Zm-11.08,0c.2,.21,.5,.33,.85,.3,.28-.02,.53-.14,.69-.3h-1.54Zm4.43,1.06c-.87,0-1.56-.55-1.72-1.38l-.08-.44h3.58l-.06,.43c-.11,.81-.81,1.39-1.69,1.4h-.03Zm-.78-1.08c.18,.21,.46,.32,.79,.33,.32,0,.6-.13,.77-.33h-1.56Zm11.86,1.08c-.86,0-1.55-.54-1.71-1.36l-.09-.45h3.56l-.05,.42c-.09,.8-.77,1.37-1.65,1.39-.02,0-.03,0-.05,0Zm-.76-1.06c.18,.2,.49,.32,.79,.31h0c.31,0,.57-.12,.74-.31h-1.53Zm-6.62,1.06c-.92,0-1.61-.53-1.75-1.37l-.07-.4,.4-.04c.11-.01,.17-.02,.22-.02h2.91s0,.37,0,.37c.02,.75-.66,1.38-1.54,1.45h0c-.07,0-.13,0-.19,0Zm-.82-1.08c.2,.23,.53,.35,.95,.32h0c.29-.02,.55-.15,.7-.32h-1.65Zm-1.13-.77h-3.52v-5.41h3.52v5.41Zm-2.77-.75h2.02v-3.91h-2.02v3.91Zm-.9,.75h-3.5l.8-3.84c.07-.31,.14-.63,.19-.95,.07-.44,.35-.66,.82-.64,.3,.01,.6,0,.91,0h.79s0,5.42,0,5.42Zm-2.58-.75h1.83l-.04-3.92c-.32,0-.63,0-.94,0-.07,0-.09,0-.09,0,0,.33-.07,.66-.15,.99l-.61,2.93Zm13.67,.75h-3.52v-5.4h3.52v5.4Zm-2.77-.75h2.02v-3.9h-2.02v3.9Zm6.43,.74h-3.5v-5.4h2.47l1.03,5.4Zm-2.75-.75h1.84s-.74-3.9-.74-3.9h-1.1v3.9Zm-4.57,.74h-3.59v-5.39h3.59v5.39Zm-2.84-.75h2.09v-3.89h-2.09v3.89Z"/>
    </g>
  </g>
</svg>