<svg width="266" height="277" viewBox="0 0 266 277" fill="none" xmlns="http://www.w3.org/2000/svg">
<g clip-path="url(#clip0_244_2958)">
<path d="M119.796 14.2386C119.796 14.2386 34.8656 43.3965 31.8707 135.108C31.8707 135.108 8.42007 94.5358 46.7322 49.8949C85.0442 5.25392 119.796 14.2386 119.796 14.2386Z" fill="#B3FFAE"/>
<path d="M198.623 182.29L160.989 223.145C160.989 223.145 157.994 227.044 157.994 236.368C157.994 245.748 157.824 275.189 157.824 275.189L142.963 275.358L143.132 235.972L146.862 219.19L180.427 185.455C180.427 185.455 188.564 173.475 198.623 182.29Z" fill="#B3FFAE"/>
<path d="M17.2896 158.502L16.8941 198.623C16.8941 198.623 14.8033 207.381 26.8959 213.258C38.9885 219.079 76.2834 245.467 76.2834 245.467C76.2834 245.467 80.352 249.649 80.352 255.469C80.352 261.29 79.9564 274.625 79.9564 274.625L69.7851 274.964L68.6549 255.808C68.6549 255.808 62.8347 247.445 52.3808 241.625C41.9269 235.805 7.68333 209.868 7.68333 209.868L6.44017 178.958C6.44017 178.958 3.50178 159.294 17.2896 158.502Z" fill="#B3FFAE"/>
<path d="M199.865 274.345C197.944 274.345 196.474 274.345 194.892 274.345C194.892 268.977 194.497 263.665 195.005 258.466C195.57 252.759 199.187 248.691 203.933 245.526C220.377 234.677 236.651 223.601 253.152 212.808C256.881 210.378 258.463 207.327 258.407 202.919C258.237 191.844 258.35 180.769 258.35 169.693C258.35 163.929 255.242 160.2 250.439 160.2C245.749 160.2 242.415 163.986 242.415 169.637C242.359 178.282 242.359 186.928 242.415 195.573C242.472 199.529 240.833 202.298 237.442 204.276C225.293 211.339 213.257 218.572 201.108 225.635C195.288 229.026 188.789 227.952 185.003 223.036C181.33 218.233 181.839 211.904 186.473 207.045C189.976 203.372 193.649 199.868 197.266 196.195C201.221 192.183 201.617 187.041 198.283 183.481C194.892 179.808 189.355 179.864 185.229 183.876C175.171 193.822 165.169 203.88 155.224 213.995C149.234 220.041 146.522 227.331 146.635 235.92C146.804 248.634 146.691 261.348 146.691 274.288C144.883 274.288 143.301 274.288 141.549 274.288C141.493 273.271 141.38 272.311 141.38 271.35C141.38 259.257 141.436 247.221 141.38 235.129C141.323 225.692 144.431 217.498 150.986 210.774C161.214 200.32 171.498 189.979 181.952 179.751C187.772 174.044 196.588 174.101 201.956 179.582C207.38 185.176 207.211 193.596 201.447 199.529C198 203.089 194.384 206.536 190.88 210.096C187.603 213.486 187.038 217.046 189.355 219.872C191.671 222.697 195.118 222.98 199.187 220.55C210.827 213.712 222.411 206.818 234.108 200.038C236.312 198.794 237.16 197.269 237.103 194.726C236.99 185.854 236.934 176.983 237.103 168.167C237.216 161.16 242.585 155.453 249.139 154.888C255.864 154.323 261.797 158.674 263.266 165.342C263.549 166.642 263.605 167.998 263.605 169.297C263.605 180.825 263.549 192.353 263.662 203.824C263.718 209.418 261.458 213.543 256.825 216.651C240.494 227.444 224.276 238.463 207.889 249.143C202.238 252.816 199.356 257.562 199.808 264.343C200.034 267.564 199.865 270.785 199.865 274.345Z" fill="#5FB257"/>
<path d="M199.864 276.493H194.892C193.705 276.493 192.744 275.533 192.744 274.346C192.744 272.707 192.688 271.125 192.688 269.486C192.575 265.813 192.518 261.971 192.914 258.241C193.479 252.534 196.7 247.787 202.803 243.775C209.471 239.368 216.082 234.904 222.75 230.496C232.469 223.998 242.245 217.499 252.021 211.057C255.129 209.023 256.372 206.65 256.315 202.92C256.202 195.518 256.202 188.115 256.259 180.713C256.259 177.04 256.259 173.31 256.259 169.637C256.259 165.004 254.112 162.291 250.495 162.235C248.969 162.291 247.67 162.744 246.653 163.761C245.353 165.06 244.618 167.151 244.562 169.581V171.333C244.505 179.357 244.505 187.437 244.562 195.461C244.618 200.151 242.641 203.598 238.572 206.028C232.582 209.532 226.592 213.092 220.603 216.595C214.5 220.212 208.34 223.828 202.238 227.388C195.57 231.287 187.828 229.987 183.421 224.28C179.07 218.629 179.748 211.114 185.059 205.52C187.15 203.316 189.297 201.169 191.501 199.021C192.97 197.552 194.44 196.139 195.852 194.67C199.017 191.449 199.356 187.607 196.813 184.894C195.626 183.595 194.101 182.917 192.405 182.917C190.315 182.747 188.45 183.764 186.811 185.403C176.753 195.348 166.751 205.407 156.806 215.465C151.324 221.003 148.725 227.727 148.838 235.864C148.951 244.736 148.951 253.664 148.895 262.592V274.233C148.895 275.419 147.934 276.38 146.747 276.38H141.605C140.475 276.38 139.571 275.476 139.514 274.402L139.458 273.498C139.401 272.764 139.345 272.029 139.345 271.351V259.88C139.345 251.63 139.345 243.38 139.288 235.186C139.232 225.071 142.679 216.369 149.516 209.362C160.705 197.948 170.819 187.776 180.482 178.283C183.76 175.062 188.054 173.197 192.349 173.423C196.587 173.48 200.542 175.175 203.481 178.227C209.81 184.725 209.584 194.331 202.972 201.112C201.107 203.033 199.243 204.898 197.378 206.763C195.739 208.402 194.101 210.04 192.462 211.736C190.71 213.544 189.071 216.2 191.049 218.686C191.614 219.421 193.479 221.681 198.169 218.912L209.301 212.357C217.212 207.667 225.123 203.033 233.091 198.4C234.616 197.496 235.068 196.705 235.068 194.953C234.899 185.007 234.899 176.249 235.068 168.281C235.238 160.37 241.341 153.589 249.026 152.968C256.824 152.29 263.718 157.375 265.413 165.06C265.752 166.53 265.809 168.055 265.809 169.468V182.578C265.809 189.698 265.809 196.818 265.865 203.994C265.922 210.323 263.379 215.069 258.067 218.573C252.021 222.585 245.974 226.654 239.872 230.666C229.644 237.503 219.416 244.34 209.075 251.065C203.763 254.512 201.56 258.58 201.955 264.344C202.125 266.548 202.068 268.808 202.012 271.125C202.012 272.199 201.955 273.272 201.955 274.402C201.955 275.533 200.994 276.493 199.864 276.493ZM196.982 272.255H197.774C197.774 271.86 197.774 271.407 197.774 271.012C197.83 268.808 197.83 266.661 197.717 264.57C197.265 257.337 200.203 251.743 206.758 247.448C217.043 240.724 227.27 233.886 237.498 227.049C243.545 222.981 249.591 218.968 255.694 214.9C259.762 212.188 261.627 208.684 261.571 203.881C261.514 196.761 261.514 189.585 261.514 182.465V169.355C261.514 167.999 261.458 166.869 261.231 165.851C259.988 160.257 255.129 156.584 249.308 157.036C243.771 157.488 239.307 162.461 239.194 168.225C239.024 176.136 239.024 184.838 239.194 194.727C239.25 198.004 238.007 200.265 235.125 201.903C227.157 206.48 219.303 211.17 211.392 215.861L200.26 222.415C195.231 225.354 190.71 224.902 187.715 221.229C184.72 217.499 185.342 212.809 189.354 208.628C190.993 206.932 192.688 205.294 194.327 203.655C196.191 201.79 198.056 199.925 199.921 198.061C204.837 192.975 205.063 185.855 200.429 181.052C198.282 178.848 195.4 177.605 192.292 177.548C188.958 177.605 185.907 178.792 183.421 181.221C173.758 190.715 163.643 200.83 152.511 212.244C146.465 218.403 143.413 226.088 143.47 235.073C143.526 243.323 143.526 251.573 143.526 259.823V271.294C143.526 271.577 143.526 271.86 143.526 272.142H144.6V262.592C144.6 253.664 144.656 244.792 144.543 235.921C144.43 226.71 147.482 218.799 153.754 212.47C163.7 202.355 173.701 192.297 183.816 182.352C186.303 179.922 189.58 178.566 192.462 178.679C195.287 178.735 197.887 179.922 199.864 182.013C203.989 186.42 203.537 192.862 198.847 197.665C197.378 199.134 195.909 200.604 194.44 202.073C192.292 204.164 190.202 206.311 188.111 208.458C184.212 212.527 183.703 217.725 186.755 221.681C189.862 225.749 195.231 226.54 200.09 223.715C206.193 220.155 212.352 216.539 218.455 212.922C224.445 209.419 230.435 205.859 236.425 202.355C239.194 200.717 240.38 198.682 240.324 195.518C240.211 187.437 240.267 179.357 240.324 171.276V169.524C240.324 165.964 241.51 162.8 243.658 160.709C245.466 158.901 247.783 157.997 250.439 157.997H250.495C256.485 158.053 260.497 162.687 260.497 169.637C260.497 173.31 260.497 177.04 260.497 180.713C260.497 188.059 260.44 195.461 260.553 202.807C260.666 207.95 258.689 211.679 254.338 214.504C244.562 220.946 234.842 227.445 225.123 233.943C218.455 238.407 211.844 242.815 205.176 247.222C200.147 250.556 197.604 254.173 197.152 258.58C196.813 262.084 196.869 265.587 196.982 269.317C196.926 270.334 196.926 271.294 196.982 272.255Z" fill="#5FB257"/>
<path d="M72.2717 274.402C70.3504 274.402 68.8812 274.402 66.96 274.402C66.96 270.786 66.847 267.169 66.96 263.553C67.186 257.45 64.6997 253.042 59.5575 249.708C43.2833 239.028 27.1787 228.066 10.9045 217.386C5.47981 213.826 2.93698 209.249 3.04999 202.751C3.27602 191.675 3.1065 180.6 3.1065 169.524C3.1065 160.878 8.58773 154.889 16.3858 154.889C24.0708 154.889 29.6085 161.048 29.665 169.694C29.7215 178.113 29.7215 186.533 29.6085 194.952C29.552 197.382 30.3996 198.795 32.4904 200.038C44.357 206.932 56.167 213.939 67.9771 220.889C71.8196 223.15 75.2666 222.698 77.4704 219.816C79.5612 217.103 79.1656 213.6 76.1707 210.549C72.6107 206.876 68.9377 203.372 65.3778 199.699C59.4445 193.653 59.275 185.12 64.8692 179.526C70.2939 174.101 78.9961 174.101 84.8729 179.865C95.2137 190.036 105.442 200.321 115.613 210.662C122.281 217.442 125.445 225.693 125.332 235.299C125.219 248.239 125.332 261.179 125.332 274.289C123.524 274.289 121.942 274.289 120.021 274.289C120.021 272.989 120.021 271.803 120.021 270.616C120.021 258.862 119.908 247.165 120.077 235.412C120.134 227.388 117.647 220.324 112.053 214.617C101.938 204.22 91.6538 193.992 81.3129 183.821C77.3009 179.865 71.9892 179.865 68.5422 183.368C65.0952 186.872 65.3778 192.071 69.2768 196.083C72.7237 199.643 76.3402 203.09 79.8437 206.65C84.8164 211.792 85.4379 218.234 81.5954 223.15C77.7529 228.066 71.3111 228.97 65.2082 225.354C53.3982 218.403 41.5881 211.396 29.7215 204.502C25.992 202.355 24.2403 199.417 24.2968 195.066C24.4663 186.759 24.3533 178.452 24.3533 170.146C24.3533 168.846 24.2968 167.49 23.9578 166.19C22.8276 162.178 19.3242 159.748 15.5381 160.2C11.6956 160.652 8.58773 163.76 8.53122 167.829C8.4182 180.317 8.4182 192.862 8.47471 205.35C8.47471 208.684 10.5655 210.718 13.2213 212.47C29.3825 223.15 45.3741 234.056 61.6483 244.623C69.0508 249.426 72.7803 255.698 72.2717 264.57C72.1022 267.734 72.2717 270.955 72.2717 274.402Z" fill="#5FB257"/>
<path d="M72.2722 276.55H66.9605C65.7738 276.55 64.8132 275.59 64.8132 274.403V271.069C64.8132 268.526 64.7567 265.983 64.8697 263.497C65.0957 258.242 63.118 254.512 58.4279 251.461C50.6863 246.375 42.9448 241.233 35.2033 236.034C26.7272 230.383 18.251 224.733 9.71839 219.138C3.55908 215.126 0.790207 209.871 0.903222 202.638C1.07275 195.179 1.01624 187.72 1.01624 180.261C1.01624 176.645 0.95973 173.085 1.01624 169.468C1.01624 164.665 2.48543 160.54 5.31081 157.489C8.07968 154.437 12.0352 152.742 16.4428 152.742C16.4428 152.742 16.4428 152.742 16.4993 152.742C25.371 152.742 31.8128 159.862 31.8693 169.638V173.028C31.8693 180.318 31.9258 187.607 31.8128 194.897C31.8128 196.536 32.2084 197.27 33.6211 198.118C41.0801 202.469 48.539 206.82 55.998 211.227L69.1078 218.969C71.1421 220.156 73.9109 221.003 75.8887 218.46C77.8664 215.861 76.0582 213.262 74.7585 211.962C72.7808 209.928 70.7465 207.894 68.7687 205.916C67.1865 204.334 65.6043 202.751 64.0221 201.113C57.3542 194.332 57.1282 184.33 63.5135 177.945C69.7859 171.616 79.9007 171.785 86.5121 178.284C96.853 188.455 107.081 198.739 117.309 209.08C124.259 216.144 127.706 224.902 127.65 235.187C127.593 244.284 127.593 253.382 127.593 262.536V274.177C127.593 275.363 126.632 276.324 125.446 276.324H120.134C118.947 276.324 117.987 275.363 117.987 274.177V260.106C117.987 251.856 117.93 243.55 118.043 235.3C118.1 227.502 115.726 221.173 110.641 215.974C101.091 206.198 91.0327 196.083 79.9572 185.177C78.375 183.595 76.3973 182.635 74.589 182.748C72.9503 182.748 71.4246 183.426 70.1814 184.669C67.5821 187.325 67.8646 191.28 70.916 194.445C72.6112 196.196 74.3065 197.892 76.0582 199.587C77.8664 201.395 79.6747 203.203 81.4829 205.012C87.1902 210.945 87.9248 218.517 83.3477 224.281C78.8271 229.988 71.1421 231.118 64.1916 226.993L51.2514 219.365C43.7359 214.957 36.2769 210.493 28.7614 206.142C24.2973 203.542 22.2066 199.869 22.3196 194.84C22.4326 188.172 22.4326 181.505 22.3761 174.78V169.977C22.3761 168.903 22.3196 167.66 22.037 166.587C21.1894 163.592 18.7596 161.783 15.8777 162.122C12.9958 162.461 10.792 164.835 10.7355 167.66C10.6225 180.148 10.6225 192.693 10.7355 205.181C10.7355 207.272 11.8092 208.741 14.5215 210.549C20.2288 214.335 25.936 218.178 31.6433 221.964C42.0407 228.914 52.4381 235.865 62.892 242.646C71.1986 248.07 74.9846 255.19 74.476 264.458C74.363 266.605 74.363 268.696 74.4195 270.956V274.233C74.4195 275.589 73.4589 276.55 72.2722 276.55ZM69.0513 272.312H70.1249V271.238C70.0684 268.922 70.0684 266.661 70.1814 264.458C70.6335 256.716 67.5256 251.009 60.5186 246.432C50.0082 239.594 39.6109 232.644 29.2135 225.693C23.5062 221.907 17.799 218.065 12.0917 214.279C9.43586 212.527 6.44096 209.928 6.38445 205.407C6.32794 192.863 6.27144 180.374 6.38445 167.83C6.44096 162.857 10.227 158.675 15.2561 158.11C20.1158 157.545 24.5799 160.653 25.9926 165.626C26.4446 167.152 26.5011 168.79 26.5011 170.09V174.893C26.5576 181.618 26.5576 188.342 26.4446 195.066C26.3881 198.626 27.6313 200.83 30.7957 202.638C38.3112 206.989 45.8267 211.453 53.3422 215.861L66.2824 223.49C71.4811 226.541 76.7363 225.863 79.9572 221.794C83.1781 217.669 82.5566 212.471 78.375 208.063C76.6233 206.255 74.815 204.447 73.0068 202.695C71.2551 200.943 69.5033 199.248 67.8081 197.496C63.0615 192.636 62.7789 186.195 67.0735 181.787C69.1078 179.753 71.7071 178.623 74.476 178.623H74.5325C77.5274 178.623 80.4658 179.922 82.8391 182.239C93.9146 193.202 103.973 203.26 113.579 213.092C119.399 219.025 122.281 226.541 122.168 235.413C122.112 243.663 122.112 251.913 122.112 260.163V272.143H123.185V262.649C123.185 253.495 123.129 244.341 123.242 235.243C123.298 225.976 120.304 218.46 114.088 212.132C103.916 201.791 93.6885 191.506 83.3477 181.335C78.375 176.419 71.029 176.249 66.3389 180.939C61.5923 185.743 61.8183 192.976 66.904 198.118C68.4862 199.7 70.0684 201.282 71.6506 202.864C73.6849 204.899 75.7192 206.933 77.6969 208.967C81.3699 212.753 81.935 217.387 79.1096 221.003C76.2277 224.733 71.5376 225.354 66.8475 222.585L53.7377 214.844C46.2788 210.436 38.8763 206.085 31.4173 201.734C28.6484 200.152 27.4618 198.005 27.5183 194.784C27.6313 187.551 27.5748 180.261 27.5748 172.972V169.581C27.5748 162.122 22.9412 156.924 16.4428 156.924C13.2219 156.924 10.453 158.11 8.47523 160.314C6.38445 162.574 5.31081 165.739 5.31081 169.468C5.31081 173.085 5.31081 176.645 5.31081 180.261C5.36732 187.777 5.36732 195.236 5.19779 202.751C5.08478 208.459 7.17556 212.414 12.0917 215.579C20.6243 221.173 29.1005 226.824 37.5766 232.474C45.3181 237.616 53.0031 242.759 60.7447 247.844C66.6215 251.687 69.3338 256.829 69.0513 263.553C68.9383 265.983 68.9948 268.47 68.9948 270.956L69.0513 272.312Z" fill="#5FB257"/>
<path d="M212.752 35.1486C190.093 12.6586 160.031 1.13104 128.33 2.54373C96.5165 3.95641 67.6412 18.2528 47.0159 42.7771C23.4523 70.8048 14.9762 107.365 23.9044 143.021L24.639 145.903L27.4643 145.056C29.2161 144.547 30.9678 143.982 32.663 143.36L35.0929 142.513L34.4713 139.97C32.324 131.098 31.3634 122.001 31.5894 112.959C32.324 83.8015 43.682 59.1643 65.2679 39.7822C104.032 4.91704 162.517 4.86053 201.338 39.5561C220.494 56.6779 231.682 78.0943 234.564 103.184C235.977 115.615 235.355 127.651 232.756 139.009L232.135 141.835L234.96 142.456C236.599 142.795 238.181 143.191 239.763 143.643L242.645 144.491L243.323 141.609C252.364 102.845 240.95 63.1198 212.752 35.1486Z" fill="#5FB257"/>
<path d="M68.6006 142.91C71.4825 143.871 74.5339 144.379 77.5288 145.114V155.794C71.7085 156.867 66.3403 156.133 61.1981 153.307C58.7118 151.951 56.0559 150.934 53.3436 150.313C50.1791 149.691 48.3144 151.782 47.8623 154.212C47.4668 156.189 47.1843 159.354 53.2871 160.879C54.8693 161.558 56.395 162.179 57.8642 162.914C65.7187 166.813 73.8558 167.265 82.1624 164.948C84.5922 164.27 86.909 163.027 89.2258 161.953C96.0067 158.732 102.788 159.636 109.738 162.518C127.707 169.808 132.228 169.525 143.869 167.66C148.841 166.869 153.418 164.835 158.674 162.575C164.381 160.088 169.919 158.902 175.852 160.371C177.943 160.879 179.92 161.897 181.898 162.801C191.956 167.66 202.015 167.66 212.073 162.744C213.712 161.953 215.407 161.275 217.102 160.597C224.674 159.015 222.866 148.843 216.65 150.313C212.921 150.991 209.587 152.799 206.196 154.381C200.885 156.867 195.403 156.811 189.696 155.285C188.057 154.946 186.645 154.494 185.006 153.873C182.633 152.912 182.068 152.742 180.429 152.064C178.508 151.273 176.36 150.482 174.1 149.917C168.788 148.9 163.307 149.747 158.052 151.782C158.052 151.782 158.052 151.725 157.995 151.725C157.148 152.121 156.244 152.573 155.227 152.968C153.249 153.703 151.045 155.059 148.559 155.681C148.446 155.681 148.389 155.737 148.276 155.737C148.276 155.737 148.276 155.794 148.333 155.794C148.05 155.85 147.768 155.907 147.429 156.02C138.726 159.071 127.425 160.371 114.598 153.307C108.495 149.973 101.94 149.013 95.1026 149.917C92.6163 150.256 90.13 150.878 87.7001 151.386V145.057C89.3954 144.775 90.9776 144.549 92.5598 144.21C100.81 142.401 107.647 138.446 111.829 130.704C114.993 124.771 116.18 118.442 116.123 111.774C116.067 108.78 113.976 106.632 111.038 106.632C102.788 106.576 95.0461 108.271 88.3217 113.357C88.1522 113.47 87.9827 113.526 87.7566 113.583C87.2481 110.588 87.8697 108.271 89.9039 105.898C94.4245 100.699 97.4194 94.5961 97.6455 87.5327C97.928 77.1918 92.8423 69.2808 85.7224 62.4434C83.8576 60.6351 81.1453 60.9177 79.1675 62.7259C77.8678 63.9126 76.6812 65.1557 75.6075 66.5119C70.8609 72.4452 67.4139 78.9436 67.527 86.7981C67.64 94.3701 70.8044 100.812 75.664 106.35C77.6983 108.667 77.6418 110.927 77.4723 113.583C77.1897 113.47 77.0202 113.413 76.9072 113.3C70.2393 108.327 62.6108 106.632 54.5302 106.576C51.1398 106.576 48.9925 108.667 49.1055 112C49.162 114.656 49.3315 117.369 49.7836 120.025C51.8179 131.043 57.4686 139.294 68.6006 142.91ZM105.613 116.973C104.709 127.936 98.0975 133.473 88.0957 134.49C89.4519 124.319 94.5375 118.216 105.613 116.973ZM82.6145 73.9144C89.6214 82.56 89.0563 90.5276 82.784 98.6647C76.1726 93.466 76.0031 81.9385 82.6145 73.9144ZM77.1332 134.49C66.7924 133.53 60.6895 127.54 59.6724 117.03C70.0698 117.99 76.1726 124.037 77.1332 134.49Z" fill="#28663D"/>
<path d="M203.203 47.4136C205.351 48.4307 206.029 50.1259 205.972 52.4427C205.916 65.609 205.803 67.0217 205.972 80.1879C206.085 86.0647 203.486 91.3764 196.479 93.1281C196.649 95.8405 196.818 98.5529 196.988 101.322C197.609 110.928 198.287 112.793 198.909 122.399C199.361 129.123 199.926 126.016 200.152 132.74C200.434 140.029 194.671 145.963 187.494 146.132C180.035 146.302 173.819 140.312 174.102 132.853C174.328 126.694 174.837 130.423 175.232 124.264C175.797 116.014 176.362 115.562 176.871 107.312C177.21 102.621 177.492 97.9313 177.831 93.1281C177.379 93.0151 176.984 92.8456 176.532 92.7326C171.729 91.3199 168.395 87.0818 168.395 82.1092C168.338 67.9258 168.395 65.496 168.395 51.3691C168.395 49.3913 169.525 48.2612 171.164 47.4701C171.842 47.4701 172.52 47.4701 173.141 47.4701C175.289 48.4872 175.967 50.1824 175.91 52.4992C175.797 61.9925 175.854 59.7322 175.854 69.2255C175.854 69.6775 175.854 70.1861 175.854 70.6382C178.453 70.6382 180.826 70.6382 183.369 70.6382C183.369 70.1296 183.369 69.6775 183.369 69.2255C183.369 59.7322 183.426 61.9925 183.313 52.4992C183.313 50.1824 183.934 48.4307 186.082 47.4701C186.76 47.4701 187.438 47.4701 188.059 47.4701C190.207 48.4872 190.885 50.1824 190.828 52.4992C190.715 61.9925 190.772 59.7322 190.772 69.2255C190.772 69.6775 190.772 70.1861 190.772 70.6382C193.371 70.6382 195.744 70.6382 198.287 70.6382C198.287 70.1296 198.287 69.6775 198.287 69.2255C198.287 59.7322 198.344 61.9925 198.231 52.4992C198.231 50.1824 198.852 48.4307 201 47.4701C201.847 47.4136 202.525 47.4136 203.203 47.4136ZM185.404 93.2412C185.347 94.3148 185.234 95.2754 185.177 96.1796C184.669 104.26 184.104 104.543 183.595 112.623C182.917 122.569 182.239 122.625 181.674 132.57C181.618 133.644 181.9 134.831 182.409 135.791C183.595 138.108 186.308 139.125 188.85 138.391C191.393 137.656 192.976 135.396 192.806 132.57C192.297 124.772 191.789 126.807 191.28 119.009C190.659 109.628 190.037 108.046 189.416 98.7224C189.303 96.9141 189.133 95.1059 189.02 93.2977C187.72 93.2412 186.647 93.2412 185.404 93.2412ZM175.967 78.2667C175.967 79.6794 175.91 81.0355 175.967 82.3352C176.08 84.2 177.662 85.6692 179.527 85.6692C184.612 85.7257 189.698 85.7257 194.784 85.6692C196.649 85.6692 198.174 84.313 198.4 82.4482C198.57 81.0355 198.4 79.6229 198.4 78.2102C190.885 78.2667 183.482 78.2667 175.967 78.2667Z" fill="#5FB257"/>
<path d="M142.569 46.7335C143.417 46.903 144.265 47.0725 145.112 47.2986C149.915 48.5417 153.475 51.3106 156.188 54.9271C160.821 61.0864 162.29 67.9803 161.725 75.2698C161.273 80.864 159.578 86.1192 155.792 90.6398C154.266 92.4481 152.232 93.8607 150.537 95.556C150.198 95.895 149.859 96.4036 149.859 96.7991C150.48 105.614 151.102 107.423 151.78 116.181C152.289 123.414 152.854 121.832 153.362 129.065C153.475 130.704 153.645 132.342 153.645 133.981C153.758 140.649 147.938 146.017 140.535 146.017C133.189 146.017 127.199 140.592 127.538 133.925C127.821 127.313 128.442 129.573 128.894 122.962C129.46 115.616 130.025 115.221 130.533 107.818C130.816 104.145 131.098 100.472 131.324 96.7991C131.324 96.4036 131.155 95.782 130.816 95.556C124.713 91.4874 121.605 85.8367 120.079 79.3383C119.797 78.0386 119.571 76.6825 119.345 75.3828C119.345 73.405 119.345 71.4838 119.345 69.506C119.74 67.5283 120.079 65.5505 120.644 63.5727C122.34 57.8655 125.391 52.8928 130.872 49.3893C133.189 47.8636 135.901 47.129 138.67 46.564C139.857 46.7335 141.213 46.7335 142.569 46.7335ZM154.323 71.4838C154.097 70.2406 153.871 67.8108 153.193 65.494C152.176 61.821 150.311 58.4871 147.033 55.8877C142.965 52.6668 137.936 52.6668 133.924 55.9442C132.68 56.9613 131.55 58.148 130.646 59.4477C126.747 65.3245 125.9 71.6533 127.425 78.3212C128.386 82.5027 130.251 86.3452 133.867 89.2836C137.936 92.5611 142.965 92.6741 147.033 89.3401C148.277 88.323 149.407 87.0798 150.311 85.8367C153.193 81.8246 154.21 77.3606 154.323 71.4838ZM138.783 97.6468C138.727 98.6639 138.614 99.568 138.557 100.472C138.049 107.818 137.484 108.044 136.975 115.334C136.297 124.375 135.619 124.431 135.054 133.529C134.997 134.49 135.28 135.62 135.788 136.467C136.975 138.615 139.687 139.519 142.23 138.841C144.773 138.163 146.355 136.072 146.186 133.529C145.677 126.409 145.169 128.274 144.66 121.154C144.039 112.621 143.417 111.152 142.795 102.619C142.682 100.981 142.513 99.342 142.4 97.6468C141.044 97.6468 139.97 97.6468 138.783 97.6468Z" fill="#5FB257"/>
</g>
<defs>
<clipPath id="clip0_244_2958">
<rect width="265.02" height="277" fill="white"/>
</clipPath>
</defs>
</svg>
