<?xml version="1.0" encoding="UTF-8"?>
<svg id="Layer_1" data-name="Layer 1" xmlns="http://www.w3.org/2000/svg" viewBox="0 0 60.55 48.7">
  <defs>
    <style>
      .cls-1 {
        fill: #b3ffae;
      }

      .cls-2 {
        fill: #28663d;
      }

      .cls-3 {
        fill: #5fb257;
      }
    </style>
  </defs>
  <g>
    <path class="cls-1" d="M.87,28.09l-.08-.79,.73-.54,3.75,.79v17.17s.34,2.53,4.9,2.53c0,0-8.19,.84-8.61-1.6-.42-2.45-1.01-7.01-1.01-7.01l.34-10.56Z"/>
    <path class="cls-1" d="M16.68,10.06l-9.68,2.39s-1.61,.42-1.61,2.45v8.3l-4.78-.96,.3-9.56s1.19-2.63,5.08-2.75c3.88-.12,10.69,.12,10.69,.12Z"/>
    <g>
      <g>
        <path class="cls-3" d="M60.16,14.43c0-2.89-2.02-4.92-4.91-4.92-16.65,0-33.29,0-49.94,0-2.92,0-4.93,2.02-4.93,4.96,0,2.53,0,5.07,0,7.6,0,.95,.01,.98,.93,1.17,4.08,.88,7.16,1.75,11.24,2.62-.04-.36-.06-.73-.06-1.09-4.02-.86-7.03-1.72-11.06-2.58v-.75c0-2.25,0-4.5,0-6.75,0-2.67,1.46-4.14,4.12-4.14,16.47,0,32.94,0,49.42,0,.2,0,.39,0,.59,0,1.85,.07,3.46,1.49,3.52,3.33,.08,2.75,.02,5.5,.02,8.31-4.25,.91-7.48,1.82-11.71,2.72,0,.37-.03,.73-.06,1.1,4.32-.92,7.63-1.85,11.95-2.77,.63-.13,.91-.39,.9-1.09-.04-2.58-.01-5.16-.02-7.73Z"/>
        <path class="cls-3" d="M47.32,26.4c-.09,0-.18-.03-.25-.1-.09-.08-.13-.2-.12-.32,.04-.35,.06-.7,.06-1.06,0-.18,.12-.33,.3-.37,2.1-.45,3.99-.91,5.82-1.35,1.76-.43,3.58-.87,5.59-1.31,0-.74,0-1.47,.01-2.21,.01-1.9,.03-3.87-.03-5.79-.05-1.58-1.46-2.91-3.16-2.97-.14,0-.28,0-.43,0h-.15s-49.42,0-49.42,0c-2.45,0-3.75,1.3-3.75,3.76v7.2c1.9,.41,3.6,.83,5.24,1.23,1.73,.42,3.51,.86,5.52,1.29,.17,.04,.3,.19,.3,.37,0,.35,.02,.7,.06,1.05,.01,.12-.03,.24-.12,.32-.09,.08-.22,.11-.33,.09-2.05-.44-3.88-.89-5.65-1.32-1.75-.43-3.56-.87-5.59-1.3C.14,23.38,0,23.2,0,22.07v-1.75c0-1.95,0-3.9,0-5.85,0-3.14,2.19-5.33,5.31-5.33,16.65,0,33.29,0,49.94,0,3.1,0,5.27,2.18,5.28,5.29h0c0,.88,0,1.77,0,2.65,0,1.69,0,3.39,.02,5.08,.01,.85-.34,1.28-1.2,1.47-2.19,.46-4.15,.94-6.05,1.4-1.85,.45-3.77,.91-5.9,1.37-.03,0-.05,0-.08,0Zm.43-1.17c0,.11,0,.21-.02,.32,1.92-.42,3.68-.84,5.38-1.26,1.91-.46,3.88-.94,6.08-1.4,.5-.11,.61-.24,.6-.72-.03-1.7-.02-3.4-.02-5.09,0-.88,0-1.76,0-2.65h0c0-2.67-1.87-4.54-4.53-4.54-16.65,0-33.29,0-49.94,0-2.72,0-4.55,1.84-4.56,4.58,0,1.95,0,3.9,0,5.85v1.75c0,.24,0,.58,.04,.64,.05,.05,.38,.12,.59,.17,2.04,.44,3.85,.88,5.61,1.31,1.62,.4,3.29,.8,5.13,1.21,0-.1-.01-.21-.02-.31-1.9-.41-3.6-.83-5.25-1.23-1.73-.42-3.51-.86-5.52-1.29-.17-.04-.3-.19-.3-.37v-7.5c0-2.87,1.64-4.51,4.5-4.51H55.11c.15,0,.31,0,.46,0,2.11,.08,3.82,1.7,3.88,3.69,.06,1.93,.05,3.91,.03,5.82,0,.83-.01,1.66-.01,2.5,0,.18-.12,.33-.3,.37-2.12,.46-4.03,.92-5.87,1.36-1.75,.42-3.55,.86-5.55,1.3Z"/>
      </g>
      <g>
        <path class="cls-3" d="M.38,26.8H1.43c0,.29,0,.54,0,.8,0,5.88,0,9.75,0,15.63,0,2.54,1.5,4.04,4.02,4.04,16.56,0,33.11,0,49.67,0,2.48,0,3.99-1.52,3.99-4.01,0-5.88,0-9.75,0-15.63v-.82h1.05v.67c0,5.92,0,9.84,0,15.76,0,3.11-1.97,5.08-5.07,5.08-16.54,0-33.07,0-49.61,0-3.14,0-5.1-1.97-5.1-5.12,0-5.9,0-9.8,0-15.7v-.71Z"/>
        <path class="cls-3" d="M55.09,48.7H5.48C2.15,48.7,0,46.54,0,43.2V26.8c0-.21,.17-.38,.38-.38H1.43c.21,0,.38,.17,.38,.38v16.43c0,2.33,1.33,3.67,3.65,3.67H55.12c2.26,0,3.61-1.36,3.62-3.63V26.81c0-.21,.17-.38,.38-.38h1.05c.21,0,.38,.17,.38,.38v16.43c0,3.32-2.14,5.46-5.45,5.46ZM.75,27.17v16.03c0,2.92,1.81,4.74,4.73,4.74H55.09c2.9,0,4.69-1.8,4.7-4.71V27.18h-.3v16.08c0,2.7-1.67,4.38-4.37,4.38H5.45c-2.71,0-4.39-1.69-4.4-4.42V27.17h-.3Z"/>
      </g>
      <g>
        <path class="cls-3" d="M16.11,7.17h-.97c0-1.33-.14-2.67,.04-3.97,.24-1.72,1.79-2.82,3.66-2.82,5.74,0,11.49,0,17.23,0,1.2,0,2.4-.01,3.6,0,2.18,.02,3.7,1.56,3.71,3.72,0,1,0,2,0,3.05h-1.05c0-1.01,0-2.01,0-3,0-1.65-1.04-2.72-2.69-2.72-6.95,0-13.89,0-20.84,0-1.65,0-2.69,1.07-2.69,2.72,0,.98,0,1.96,0,3.02Z"/>
        <path class="cls-3" d="M16.11,7.55h-.97c-.21,0-.38-.17-.38-.38,0-.41-.01-.81-.03-1.22-.03-.92-.06-1.87,.07-2.8C15.06,1.3,16.71,0,18.83,0c4.16,0,8.32,0,12.48,0h4.75s1.11,0,1.11,0c.83,0,1.66,0,2.5,0,2.39,.03,4.07,1.71,4.08,4.1,0,.7,0,1.4,0,2.11v.94c0,.21-.17,.38-.38,.38h-1.05c-.21,0-.38-.17-.38-.38v-1.01s0-2,0-2c0-1.44-.89-2.34-2.32-2.34-6.95,0-13.89,0-20.84,0-1.42,0-2.31,.9-2.32,2.34v3.02c0,.21-.17,.38-.38,.38Zm-.6-.75h.23v-2.65c0-1.88,1.21-3.09,3.07-3.09,6.95,0,13.89,0,20.84,0,1.86,0,3.06,1.22,3.07,3.09v2s0,.63,0,.63h.3v-.56c0-.71,0-1.41,0-2.11,0-1.95-1.38-3.33-3.34-3.35-.83,0-1.66,0-2.49,0h-1.11s-4.75,0-4.75,0c-4.16,0-8.32,0-12.48,0-1.76,0-3.08,1.01-3.29,2.5-.12,.87-.09,1.74-.06,2.67,0,.29,.02,.58,.02,.87Z"/>
      </g>
      <g>
        <path class="cls-3" d="M39.13,7.17h-.99v-1.52H20.34v1.5h-1.08c0-.68-.05-1.35,.03-2.01,.02-.21,.36-.4,.58-.55,.09-.06,.25-.01,.39-.01,5.98,0,11.97,0,17.95,0,.9,0,.98,.08,.99,.96,0,.48,0,.96,0,1.44,0,.04-.02,.08-.04,.2Z"/>
        <path class="cls-3" d="M39.13,7.55h-.99c-.21,0-.38-.17-.38-.38v-1.14H20.71v1.12c0,.21-.17,.38-.38,.38h-1.08c-.21,0-.38-.17-.38-.38,0-.19,0-.37,0-.56,0-.49-.02-1,.04-1.5,.04-.35,.36-.57,.63-.75l.1-.07c.18-.12,.38-.1,.51-.09h18.04c1.1,0,1.36,.26,1.36,1.34,0,.4,0,.8,0,1.2v.24c0,.07-.02,.13-.03,.19-.04,.17-.21,.38-.39,.38Zm-.62-.75h.28v-.07c0-.4,0-.8,0-1.2,0-.12,0-.48-.05-.55-.07-.04-.44-.04-.57-.04H20.25c-.05,0-.11,0-.17-.01-.04,0-.05,0-.05,0l-.06,.04c-.1,.07-.28,.19-.31,.25-.04,.41-.03,.87-.02,1.36,0,.07,0,.13,0,.2h.33v-1.12c0-.21,.17-.38,.38-.38h17.81c.21,0,.38,.17,.38,.38v1.14Zm-18.44-1.91h0s0,0,0,0Z"/>
      </g>
    </g>
  </g>
  <g>
    <path class="cls-3" d="M30.05,12.97c2.35,0,4.69,.02,7.04,0,.91,0,1.52,.35,1.94,1.16,1.09,2.12,2.76,3.58,5.04,4.31,.78,.25,1.28,.77,1.28,1.6,0,3.22,.08,3.45-.11,6.66-.39,6.46-3.52,11.4-8.86,14.93-1.73,1.14-3.62,2.05-5.47,2.99-.44,.22-1.12,.29-1.56,.1-3.92-1.65-7.5-3.84-10.29-7.13-2.99-3.53-4.29-7.69-4.39-12.26-.06-2.68-.02-2.36-.01-5.03,0-1.03,.39-1.56,1.38-1.89,2.2-.73,3.83-2.13,4.89-4.18,.45-.88,1.09-1.28,2.1-1.26,2.35,.04,4.69,.01,7.04,.01Zm-.06,1.14c-2.32,0-4.65,.02-6.97-.01-.55,0-.86,.19-1.11,.67-1.19,2.29-3.02,3.86-5.47,4.69-.48,.16-.68,.42-.67,.92,.02,2.68-.04,2.36,.02,5.04,.1,3.83,1.12,7.39,3.42,10.51,2.67,3.62,6.35,5.91,10.39,7.68,.26,.11,.67,.06,.93-.07,1.7-.88,3.45-1.7,5.04-2.75,5.1-3.35,8.14-8.02,8.52-14.18,.19-3.12,.11-3.25,.1-6.38,0-.24-.34-.62-.6-.71-2.48-.88-4.35-2.47-5.55-4.81-.23-.44-.52-.6-1.01-.6-2.35,.02-4.69,0-7.04,0Z"/>
    <path class="cls-3" d="M29.95,45.19c-.28,0-.54-.04-.75-.13-4.57-1.93-7.88-4.23-10.43-7.24-2.86-3.38-4.37-7.58-4.48-12.49-.04-1.78-.04-2.24-.02-3.13,0-.45,.01-1.01,.01-1.92,0-1.2,.49-1.87,1.64-2.25,2.09-.69,3.67-2.04,4.67-4,.52-1.02,1.27-1.49,2.43-1.47,1.67,.03,3.33,.02,5,.02h2.03s2.01,0,2.01,0c1.67,0,3.35,0,5.02-.01,1.01,0,1.8,.44,2.27,1.36,1.05,2.05,2.67,3.43,4.83,4.12,1,.32,1.54,1.01,1.54,1.96,0,.88,0,1.54,0,2.1,.01,1.49,.02,2.24-.12,4.58-.38,6.39-3.42,11.51-9.03,15.22-1.56,1.03-3.27,1.89-4.92,2.71l-.59,.3c-.32,.16-.73,.25-1.12,.25Zm-7-31.86c-.82,0-1.32,.31-1.7,1.06-1.1,2.14-2.82,3.61-5.1,4.36-.84,.28-1.12,.67-1.13,1.54,0,.91,0,1.47-.01,1.92-.01,.88-.02,1.34,.02,3.1,.11,4.8,1.52,8.73,4.3,12.02,2.47,2.92,5.7,5.15,10.15,7.03,.31,.13,.88,.09,1.24-.09l.6-.3c1.63-.82,3.31-1.66,4.84-2.67,5.4-3.57,8.33-8.5,8.69-14.64,.14-2.32,.13-3.06,.12-4.53,0-.56,0-1.22,0-2.11,0-.61-.34-1.02-1.02-1.24-2.35-.75-4.12-2.26-5.26-4.49-.35-.68-.81-.98-1.6-.96-1.68,.02-3.35,.01-5.03,.01h-2.01s-2.03,0-2.03,0c-1.67,0-3.34,.01-5.02-.02-.02,0-.04,0-.05,0Zm7,30.71c-.17,0-.34-.03-.49-.09-4.83-2.12-8.17-4.6-10.54-7.81-2.21-2.99-3.39-6.6-3.49-10.72-.04-1.61-.04-2.14-.03-2.88,0-.5,.01-1.09,0-2.16,0-.67,.28-1.06,.93-1.28,2.34-.79,4.11-2.31,5.25-4.51,.32-.61,.79-.88,1.45-.87,1.7,.02,3.4,.02,5.09,.01h1.87s1.87,0,1.87,0c1.72,0,3.45,0,5.17,0h.02c.63,0,1.04,.25,1.32,.8,1.16,2.25,2.91,3.76,5.35,4.63,.39,.14,.85,.64,.85,1.06,0,.83,0,1.44,.02,1.96,.02,1.47,.03,2.14-.12,4.45-.37,6.06-3.29,10.93-8.69,14.48-1.24,.81-2.58,1.5-3.88,2.16-.4,.2-.8,.41-1.19,.61-.2,.11-.49,.18-.76,.18Zm-6.95-29.57c-.39,0-.57,.11-.75,.47-1.23,2.38-3.14,4.02-5.68,4.87-.34,.11-.42,.23-.42,.57,0,1.08,0,1.68,0,2.17,0,.74-.01,1.26,.03,2.86,.1,3.96,1.23,7.43,3.35,10.29,2.29,3.09,5.54,5.5,10.24,7.56,.14,.06,.43,.03,.61-.06,.4-.21,.8-.41,1.2-.62,1.28-.65,2.6-1.32,3.81-2.11,5.18-3.4,7.99-8.08,8.35-13.89,.14-2.28,.13-2.94,.11-4.39,0-.52-.01-1.14-.02-1.97-.02-.09-.22-.31-.35-.36-2.59-.92-4.53-2.6-5.76-4.99-.16-.3-.31-.39-.66-.39h-.02c-1.72,.01-3.45,.01-5.18,0h-1.87s-1.87,0-1.87,0c-1.7,0-3.4,0-5.1-.01h-.02Z"/>
  </g>
  <path class="cls-2" d="M30.65,25.92c.5,.14,.98,.25,1.44,.43,.8,.31,1.46,.81,1.89,1.57,.65,1.16,.37,2.52-.71,3.45-.65,.55-1.21,.79-2.63,1.11,0,.53,0,1.07,0,1.61,0,.16-.02,.33-.09,.47-.13,.25-.37,.34-.64,.28-.29-.06-.47-.25-.48-.56-.02-.47,0-.94,0-1.4,0-.14,0-.27,0-.32-.7-.26-1.37-.44-1.96-.75-.99-.53-1.65-1.33-1.7-2.51-.02-.4,.2-.66,.55-.69,.37-.03,.66,.19,.68,.6,.04,.6,.35,1.01,.81,1.35,.47,.34,1,.54,1.6,.62v-3.95c-.55-.17-1.11-.3-1.62-.53-.96-.43-1.7-1.11-1.97-2.17-.29-1.15,.24-2.29,1.36-3.05,.67-.45,1.43-.68,2.26-.8,0-.56,0-1.1,0-1.64,0-.48,.22-.75,.61-.75,.39,0,.62,.26,.62,.74,0,.54,0,1.09,0,1.63,.42,.11,.81,.18,1.19,.31,.85,.29,1.6,.75,2.04,1.54,.23,.41,.34,.92,.42,1.39,.06,.34-.2,.59-.52,.63-.34,.04-.62-.16-.7-.5-.29-1.25-1.11-1.95-2.42-2.04v3.94Zm-1.27-3.98c-.81,.13-1.51,.4-2.04,1-.39,.44-.51,.95-.28,1.51,.31,.74,1.49,1.44,2.32,1.38v-3.89Zm1.26,9.24c.81-.13,1.52-.4,2.05-1.01,.46-.53,.52-1.19,.13-1.74-.52-.74-1.29-1.04-2.17-1.19v3.94Z"/>
</svg>