<?xml version="1.0" encoding="UTF-8" standalone="no"?>
<svg
   xmlns:dc="http://purl.org/dc/elements/1.1/"
   xmlns:cc="http://creativecommons.org/ns#"
   xmlns:rdf="http://www.w3.org/1999/02/22-rdf-syntax-ns#"
   xmlns:svg="http://www.w3.org/2000/svg"
   xmlns="http://www.w3.org/2000/svg"
   xmlns:sodipodi="http://sodipodi.sourceforge.net/DTD/sodipodi-0.dtd"
   xmlns:inkscape="http://www.inkscape.org/namespaces/inkscape"
   width="180mm"
   height="180mm"
   viewBox="0 0 180 180"
   version="1.1"
   id="svg8"
   inkscape:version="1.0.2-2 (e86c870879, 2021-01-15)"
   sodipodi:docname="perniagaan-kewangan.svg">
  <defs
     id="defs2" />
  <sodipodi:namedview
     id="base"
     pagecolor="#ffffff"
     bordercolor="#666666"
     borderopacity="1.0"
     inkscape:pageopacity="0.0"
     inkscape:pageshadow="2"
     inkscape:zoom="0.35"
     inkscape:cx="346.32474"
     inkscape:cy="523.37607"
     inkscape:document-units="mm"
     inkscape:current-layer="layer1"
     inkscape:document-rotation="0"
     showgrid="false"
     fit-margin-top="0"
     fit-margin-left="0"
     fit-margin-right="0"
     fit-margin-bottom="0"
     inkscape:window-width="1920"
     inkscape:window-height="986"
     inkscape:window-x="-11"
     inkscape:window-y="-11"
     inkscape:window-maximized="1"
     inkscape:snap-global="false" />
  <metadata
     id="metadata5">
    <rdf:RDF>
      <cc:Work
         rdf:about="">
        <dc:format>image/svg+xml</dc:format>
        <dc:type
           rdf:resource="http://purl.org/dc/dcmitype/StillImage" />
        <dc:title></dc:title>
      </cc:Work>
    </rdf:RDF>
  </metadata>
  <g
     inkscape:label="Layer 1"
     inkscape:groupmode="layer"
     id="layer1"
     transform="translate(-14.20158,-9.6900816)">
    <g
       id="g32"
       transform="matrix(0.26458333,0,0,0.26458333,20.876484,-3.9421946)">
      <path
         class="st1"
         d="m 315.04,515.38 c 0,-22.2 -11.7,-34.77 -42.84,-43.45 -22.29,-6.28 -27.22,-10.36 -27.22,-19.48 0,-6.43 3.8,-14.32 17.19,-14.32 15.94,0 18.64,9.36 20.14,15.16 h 29.58 c -1.55,-16.24 -10.76,-32.26 -36.66,-36.17 v -13.36 h -24.78 v 13.55 c -19.79,3.73 -35.25,16.9 -35.25,38.02 0,19.59 10.28,32.58 45.48,42.72 19.33,5.52 24.75,10.52 24.75,20.74 0,8.34 -4.93,15.73 -20.34,15.73 -12.46,0 -20.75,-6.78 -23.14,-17.54 H 212.4 c 1.62,20.14 15.44,34.86 39.53,38.52 v 16.73 h 24.96 v -16.74 c 22.85,-3.41 38.15,-16.58 38.15,-40.11 z"
         id="path12" />
      <path
         class="st9"
         d="m 472.35,532.98 c -6.47,-3.93 -13.2,-7.45 -19.68,-11.38 -28.76,-17.47 -28.92,-55.63 -0.3,-73.13 8,-4.89 16.4,-9.18 24.22,-14.34 19.38,-12.8 24.41,-33.8 13.02,-53.82 -6.59,-11.6 -13.28,-23.17 -20.41,-34.44 -13.35,-21.1 -34.36,-25.99 -56.02,-13.44 -8.43,4.89 -16.71,10.08 -25.37,14.53 -24.15,12.42 -53.85,-2.47 -58,-29.29 -1.31,-8.5 -1.07,-17.28 -1.11,-25.93 -0.13,-29.62 -6.55,-39.26 -33.56,-49.75 -18.08,0 -36.16,0 -54.24,0 -27.02,10.5 -33.45,20.12 -33.56,49.76 -0.03,7.57 0.15,15.24 -0.92,22.7 -3.96,27.69 -32.92,42.78 -58.11,30.51 -9.4,-4.57 -18.64,-9.47 -28.02,-14.08 -20.75,-10.21 -41.44,-4.49 -53.55,15.02 -6.66,10.73 -13.15,21.57 -19.23,32.63 -12.18,22.15 -5.49,47.15 15.95,60.31 7.38,4.53 15.14,8.45 22.47,13.05 25.34,15.91 25.55,51.81 0.36,67.95 -8.19,5.25 -16.91,9.69 -25.15,14.88 -21.27,13.44 -26.44,34.28 -13.98,55.93 6.48,11.26 12.85,22.59 19.79,33.56 12.89,20.38 32.86,25.53 54.25,14.47 9.29,-4.81 18.54,-9.71 27.98,-14.22 24.04,-11.5 52.95,3.45 57.07,29.84 1.33,8.5 1.07,17.28 1.11,25.93 0.13,29.61 6.42,39.05 33.56,49.76 18.08,0 36.16,0 54.24,0 27.04,-10.59 33.47,-20.18 33.54,-49.74 0.02,-7.22 -0.25,-14.51 0.69,-21.63 3.91,-29.51 33.88,-44.66 60.13,-30.56 7.31,3.93 14.39,8.27 21.57,12.43 24.15,13.99 46,8.72 59.77,-15.31 8.18,-14.29 17.08,-28.68 22.03,-44.18 6.12,-19.15 -3.24,-37.51 -20.54,-48.02 z m -204.3,72 c -65.72,0 -119,-53.28 -119,-119 0,-65.72 53.28,-119 119,-119 65.72,0 119,53.28 119,119 0,65.72 -53.27,119 -119,119 z"
         id="path14" />
      <path
         class="st1"
         d="m 570.31,163.19 c -4.62,-0.31 -9.25,-0.33 -13.87,-0.64 -20.51,-1.39 -31.32,-22.04 -20.72,-39.58 2.97,-4.9 6.32,-9.59 9.11,-14.59 6.91,-12.39 3.74,-25.19 -8.06,-32.86 -6.84,-4.44 -13.71,-8.84 -20.75,-12.95 -13.17,-7.7 -25.94,-4.44 -34.16,8.45 -3.2,5.02 -6.23,10.16 -9.68,15.01 -9.61,13.53 -29.9,13.8 -39.69,0.41 -3.1,-4.24 -5.44,-9.07 -7.89,-13.75 -8.4,-16.03 -14.59,-19.45 -32.19,-17.55 -9.81,5.08 -19.61,10.16 -29.42,15.24 -11.71,13.29 -12.49,20.32 -4.22,36.42 2.11,4.12 4.37,8.22 5.88,12.57 5.63,16.13 -5.83,32.45 -22.94,32.88 -6.38,0.16 -12.77,0.1 -19.15,0.23 -14.12,0.29 -23.74,9.21 -24.82,23.2 -0.6,7.69 -1.07,15.4 -1.26,23.11 -0.38,15.44 10.28,27.12 25.6,28.23 5.28,0.38 10.59,0.33 15.86,0.77 18.22,1.51 28.42,20.92 19.29,36.76 -2.97,5.15 -6.45,10.01 -9.46,15.14 -7.78,13.27 -4.73,26.03 8.12,34.27 6.68,4.28 13.32,8.64 20.17,12.64 12.72,7.43 25,4.61 33.49,-7.4 3.69,-5.22 7.33,-10.48 11.18,-15.58 9.81,-12.99 29.69,-13.01 39.34,0.15 3.11,4.24 5.44,9.07 7.89,13.75 8.39,16.03 14.46,19.38 32.19,17.56 9.81,-5.08 19.61,-10.16 29.42,-15.24 11.69,-13.34 12.48,-20.35 4.22,-36.41 -2.02,-3.92 -4.21,-7.8 -5.7,-11.93 -6.17,-17.11 5.83,-33.75 24.03,-33.48 5.07,0.08 10.13,0.44 15.2,0.68 17.03,0.8 27.41,-8.2 28.12,-25.1 0.42,-10.05 1.2,-20.36 -0.47,-30.16 -2.08,-12.09 -12.32,-19.42 -24.66,-20.25 z m -90.57,96.47 c -35.65,18.47 -79.52,4.54 -97.99,-31.1 -18.47,-35.64 -4.54,-79.52 31.1,-97.99 35.64,-18.47 79.52,-4.54 97.99,31.1 18.47,35.65 4.55,79.52 -31.1,97.99 z"
         id="path16" />
      <path
         class="st9"
         d="m 467.31,208.92 c 0,-10.39 -5.47,-16.26 -20.04,-20.32 -10.42,-2.94 -12.73,-4.85 -12.73,-9.11 0,-3.01 1.78,-6.7 8.04,-6.7 7.45,0 8.72,4.38 9.42,7.09 h 13.83 c -0.72,-7.6 -5.03,-15.09 -17.15,-16.92 v -6.25 H 437.1 v 6.34 c -9.26,1.74 -16.49,7.9 -16.49,17.78 0,9.16 4.81,15.24 21.27,19.98 9.04,2.58 11.57,4.92 11.57,9.7 0,3.9 -2.31,7.36 -9.51,7.36 -5.83,0 -9.7,-3.17 -10.82,-8.2 H 419.3 c 0.76,9.42 7.22,16.3 18.49,18.01 v 7.82 h 11.68 v -7.83 c 10.69,-1.59 17.84,-7.74 17.84,-18.75 z"
         id="path18" />
    </g>
  </g>
  <style
     type="text/css"
     id="style10">
	.st0{fill:#00A100;}
	.st1{fill:#00E100;}
	.st2{fill:#00FF02;}
	.st3{fill:#00D57C;}
	.st4{fill:#FFFFFF;}
	.st5{fill:#00FF00;}
	.st6{fill:#DAEDBD;}
	.st7{fill:#6FFF77;}
	.st8{fill:#ABFF83;}
	.st9{fill:#00C100;}
	.st10{fill:#ED1C24;}
	.st11{fill-rule:evenodd;clip-rule:evenodd;fill:#00DA00;}
	.st12{fill:#00DA00;}
	.st13{fill-rule:evenodd;clip-rule:evenodd;fill:#00D57C;}
	.st14{fill:#00ECAA;}
	.st15{fill:none;}
	.st16{clip-path:url(#SVGID_00000088129870551259886280000004956463232300803988_);fill:#00DA00;}
	.st17{fill:#858E37;}
	.st18{fill:#00AD11;}
	.st19{fill-rule:evenodd;clip-rule:evenodd;fill:#00AD11;}
	.st20{fill-rule:evenodd;clip-rule:evenodd;fill:#8BE8A1;}
	.st21{fill:#43434B;}
</style>
</svg>
