<?xml version="1.0" encoding="UTF-8"?>
<svg id="Layer_1" data-name="Layer 1" xmlns="http://www.w3.org/2000/svg" viewBox="0 0 54.38 48.58">
  <defs>
    <style>
      .cls-1 {
        fill: #eb1d36;
      }

      .cls-2 {
        fill: #ffd6d6;
      }

      .cls-3 {
        fill: #7a0003;
      }
    </style>
  </defs>
  <path class="cls-2" d="M39.35,31.52l-6.66,7.23s-.53,.69-.53,2.34-.03,6.87-.03,6.87l-2.63,.03,.03-6.97,.66-2.97,5.94-5.97s1.44-2.13,3.22-.56Z"/>
  <path class="cls-2" d="M7.21,27.36l-.07,7.1s-.37,1.55,1.77,2.59,8.74,5.7,8.74,5.7c0,0,.72,.74,.72,1.77s-.07,3.39-.07,3.39l-1.8,.06-.2-3.39s-1.03-1.48-2.88-2.51-7.91-5.62-7.91-5.62l-.22-5.47s-.52-3.47,1.92-3.62Z"/>
  <g>
    <g>
      <path class="cls-1" d="M39.32,47.97h-1c.07-1.07,.06-2.15,.23-3.19,.14-.84,.77-1.42,1.48-1.89,2.84-1.88,5.66-3.79,8.52-5.65,.81-.53,1.17-1.15,1.14-2.13-.06-1.9-.02-3.8-.02-5.7,0-.98-.55-1.61-1.39-1.63-.82-.02-1.42,.64-1.43,1.6-.01,1.55-.02,3.1,0,4.64,0,.7-.27,1.19-.87,1.54-2.15,1.25-4.28,2.53-6.43,3.78-1.06,.62-2.16,.44-2.85-.44-.65-.83-.56-1.97,.25-2.84,.62-.66,1.27-1.28,1.9-1.92,.72-.74,.78-1.66,.15-2.29-.61-.61-1.58-.57-2.31,.15-1.78,1.77-3.56,3.54-5.32,5.32-1,1.01-1.47,2.25-1.47,3.66,0,2.1,0,4.19,0,6.29,0,.21,0,.43,0,.68h-.94c0-.77,0-1.51,0-2.25,0-1.55,0-3.1,0-4.64,0-1.73,.58-3.23,1.79-4.45,1.76-1.78,3.53-3.56,5.32-5.32,1.06-1.04,2.63-1.07,3.59-.1,1,1,.95,2.51-.13,3.62-.59,.6-1.19,1.19-1.78,1.79-.6,.61-.7,1.21-.31,1.72,.4,.53,.99,.59,1.73,.15,2.08-1.22,4.15-2.45,6.23-3.66,.37-.21,.52-.47,.51-.89-.02-1.57-.02-3.14,0-4.7,.01-1.06,.71-1.99,1.64-2.28,.91-.29,1.99,0,2.52,.8,.29,.45,.5,1.04,.51,1.57,.06,2.06,.01,4.11,.03,6.17,0,1.01-.39,1.76-1.23,2.32-2.87,1.9-5.73,3.84-8.61,5.71-1.02,.67-1.54,1.51-1.45,2.73,.04,.56,0,1.13,0,1.72Z"/>
      <path class="cls-1" d="M39.32,48.47h-1c-.14,0-.27-.06-.37-.16-.09-.1-.14-.24-.13-.37,.02-.32,.04-.64,.05-.96,.03-.75,.06-1.52,.19-2.28,.19-1.11,1.06-1.8,1.7-2.23,1.04-.69,2.09-1.39,3.13-2.08,1.79-1.2,3.59-2.4,5.39-3.57,.69-.45,.93-.9,.91-1.69-.04-1.32-.04-2.65-.03-3.95,0-.59,0-1.18,0-1.77,0-.33-.09-1.11-.9-1.13-.24,0-.43,.07-.59,.22-.21,.2-.32,.51-.32,.88-.01,1.54-.02,3.09,0,4.63,0,.87-.37,1.54-1.12,1.98-1.1,.64-2.19,1.28-3.28,1.93-1.05,.62-2.1,1.24-3.15,1.85-1.27,.74-2.64,.53-3.49-.56-.8-1.02-.69-2.46,.28-3.49,.38-.41,.78-.81,1.18-1.2,.24-.24,.49-.48,.73-.73,.53-.54,.59-1.15,.15-1.59-.42-.43-1.08-.36-1.6,.15-1.78,1.76-3.55,3.54-5.31,5.32-.88,.89-1.32,2-1.33,3.31v6.96c0,.28-.22,.5-.5,.5h-.94c-.28,0-.5-.22-.5-.5v-3.68c0-1.07,0-2.14,0-3.21,0-1.88,.65-3.5,1.94-4.81,1.76-1.79,3.54-3.56,5.33-5.32,1.24-1.22,3.13-1.27,4.29-.1,1.2,1.2,1.14,3.02-.13,4.32-.31,.32-.63,.64-.95,.95-.28,.28-.56,.56-.84,.84-.61,.62-.36,.95-.27,1.07,.12,.16,.35,.46,1.08,.03l2.38-1.4c1.28-.76,2.56-1.51,3.85-2.26,.21-.12,.26-.21,.26-.46-.02-1.57-.02-3.14,0-4.72,.02-1.26,.83-2.39,1.99-2.75,1.18-.37,2.45,.04,3.08,1,.36,.54,.58,1.23,.6,1.83,.04,1.27,.03,2.54,.03,3.81,0,.79,0,1.58,0,2.37,0,1.17-.48,2.09-1.46,2.74-1.08,.72-2.16,1.44-3.24,2.16-1.79,1.19-3.57,2.39-5.38,3.56-.93,.6-1.3,1.29-1.23,2.28,.03,.4,.02,.8,.01,1.21v.55c0,.28-.23,.5-.51,.5Zm.12-4.42c-.11,.13-.19,.26-.25,.39,.07-.13,.16-.26,.25-.39Z"/>
    </g>
    <g>
      <path class="cls-1" d="M26.11,47.97h-.91c0-.21,0-.42,0-.63,0-2.06-.01-4.12,0-6.17,.01-1.57-.52-2.9-1.64-4.01-1.68-1.67-3.35-3.35-5.03-5.03-.17-.16-.34-.33-.54-.45-.66-.41-1.51-.28-1.97,.27-.49,.58-.49,1.41,.04,1.99,.65,.7,1.35,1.37,2.02,2.05,.52,.53,.82,1.15,.73,1.91-.19,1.52-1.79,2.29-3.15,1.5-2.2-1.27-4.38-2.58-6.58-3.87-.56-.33-.82-.8-.81-1.45,.01-1.51,0-3.02,0-4.53,0-.29-.03-.59-.13-.86-.22-.62-.8-.97-1.42-.9-.65,.07-1.23,.55-1.24,1.21-.04,2.29-.03,4.58,0,6.88,0,.56,.42,.89,.86,1.18,2.86,1.89,5.69,3.82,8.56,5.68,1.29,.84,1.92,1.95,1.84,3.49-.03,.56,0,1.13,0,1.73h-.94c0-.63-.02-1.27,0-1.9,.05-1.09-.41-1.86-1.31-2.45-2.81-1.85-5.59-3.76-8.42-5.58-1.1-.71-1.62-1.59-1.57-2.91,.07-1.92,.01-3.84,.02-5.76,0-1.47,1.01-2.54,2.36-2.52,1.32,.01,2.32,1.08,2.34,2.51,.01,1.53,.02,3.06,0,4.59,0,.43,.15,.67,.52,.89,2.1,1.22,4.18,2.46,6.27,3.69,.69,.4,1.29,.33,1.68-.19,.37-.49,.29-1.1-.23-1.64-.63-.65-1.28-1.27-1.91-1.92-1.03-1.06-1.08-2.54-.13-3.53,.95-.99,2.53-1.01,3.59,.03,1.83,1.8,3.65,3.61,5.44,5.45,1.15,1.17,1.7,2.61,1.71,4.25,.01,2.19,0,4.39,0,6.58,0,.13-.02,.27-.03,.43Z"/>
      <path class="cls-1" d="M26.11,48.47h-.91c-.28,0-.5-.22-.5-.5v-2.5c0-1.44,0-2.87,0-4.31,.01-1.45-.48-2.65-1.49-3.65-.98-.97-1.95-1.94-2.92-2.91l-2.11-2.11c-.13-.13-.29-.28-.45-.38-.45-.28-1.02-.2-1.33,.17-.34,.41-.33,.94,.02,1.33,.43,.46,.87,.9,1.32,1.35,.23,.23,.46,.46,.69,.69,.68,.69,.97,1.47,.87,2.32-.11,.88-.61,1.61-1.38,1.99-.78,.39-1.72,.34-2.52-.11-1.35-.78-2.68-1.57-4.02-2.36-.85-.5-1.71-1.01-2.56-1.51-.71-.42-1.07-1.05-1.06-1.89,.01-1.51,0-3.01,0-4.52,0-.29-.03-.52-.1-.7-.14-.39-.5-.61-.9-.57-.38,.04-.79,.31-.79,.72-.03,2-.04,4.11,0,6.86,0,.26,.17,.46,.64,.77,1.02,.67,2.03,1.35,3.04,2.03,1.83,1.23,3.67,2.45,5.52,3.65,1.48,.96,2.16,2.25,2.07,3.93-.02,.37-.01,.75,0,1.14v.57c0,.28-.22,.5-.5,.5h-.94c-.28,0-.5-.22-.5-.5v-.58c0-.45-.01-.89,0-1.34,.04-.87-.3-1.49-1.09-2.01-1.14-.75-2.26-1.5-3.39-2.26-1.67-1.12-3.34-2.23-5.03-3.32-1.28-.82-1.85-1.89-1.8-3.35,.04-1.27,.04-2.57,.03-3.83,0-.64,0-1.28,0-1.92,0-.88,.32-1.67,.89-2.23,.52-.52,1.22-.81,1.98-.79,1.6,.01,2.82,1.31,2.83,3.01,.01,1.53,.02,3.06,0,4.6,0,.22,.03,.31,.27,.45,1.32,.77,2.64,1.55,3.96,2.33l2.32,1.37c.68,.4,.93,.06,1.03-.06,.28-.37,.05-.74-.19-.99-.32-.33-.65-.65-.97-.98-.31-.31-.63-.62-.93-.94-1.22-1.25-1.27-3.03-.13-4.23,.54-.57,1.27-.88,2.06-.9,.85,0,1.62,.31,2.24,.92,1.72,1.69,3.51,3.47,5.45,5.45,1.22,1.24,1.84,2.79,1.85,4.6,0,1.7,0,3.39,0,5.09v1.5c0,.1-.01,.21-.02,.32v.14c-.03,.26-.25,.46-.51,.46Z"/>
    </g>
    <g>
      <path class="cls-3" d="M21.42,11.04h.95v8.28h2.84c0-.69,0-3.39,0-4.08,0-1.08,.55-1.62,1.63-1.63,.51,0,1.02,0,1.53,0,.97,.02,1.53,.57,1.55,1.53,.01,.72,0,3.44,0,4.2h2.79V11.05h.95v8.27h4.72v-7.32h.92v7.32h1.94v-7.3h.94v7.33h1.4v.93H11.55v-.91h1.36v-7.37h.92v7.33h1.94v-7.33h.94v7.33h4.7V11.04Zm7.55,8.31c0-.78,.04-3.51-.02-4.22-.02-.2-.31-.52-.5-.55-.58-.07-1.18-.07-1.76,0-.19,.02-.5,.3-.51,.48-.06,.75-.02,3.51-.02,4.29h2.82Z"/>
      <path class="cls-3" d="M43.57,20.65H11.55c-.21,0-.38-.17-.38-.38v-.91c0-.21,.17-.38,.38-.38h.99v-6.99c0-.21,.17-.38,.38-.38h.92c.21,0,.38,.17,.38,.38v6.95h1.19v-6.95c0-.21,.17-.38,.38-.38h.94c.21,0,.38,.17,.38,.38v6.96h3.95v-7.92c0-.21,.17-.38,.38-.38h.95c.21,0,.38,.17,.38,.38v7.91h2.09v-.42c0-1.08,0-2.76,0-3.29,0-1.28,.72-1.99,2-2,.51,0,1.02,0,1.54,0,1.18,.02,1.9,.73,1.92,1.9,0,.54,0,2.21,0,3.33v.49h2.04v-7.91c0-.21,.17-.38,.38-.38h.95c.21,0,.38,.17,.38,.38v7.89h3.97v-6.94c0-.21,.17-.38,.38-.38h.92c.21,0,.38,.17,.38,.38v6.95h1.19v-6.93c0-.21,.17-.38,.38-.38h.94c.21,0,.38,.17,.38,.38v6.95h1.02c.21,0,.38,.17,.38,.38v.93c0,.21-.17,.38-.38,.38Zm-31.65-.75h31.27v-.18h-1.02c-.21,0-.38-.17-.38-.38v-6.95h-.19v6.93c0,.21-.17,.38-.38,.38h-1.94c-.21,0-.38-.17-.38-.38v-6.95h-.17v6.94c0,.21-.17,.38-.38,.38h-4.72c-.21,0-.38-.17-.38-.38v-7.89h-.2v7.91c0,.21-.17,.38-.38,.38h-2.79c-.21,0-.38-.17-.38-.38v-.87c0-1.11,0-2.78,0-3.32-.01-.76-.41-1.15-1.18-1.16-.51,0-1.02,0-1.52,0-.87,0-1.25,.38-1.25,1.26,0,.53,0,2.21,0,3.29v.8c0,.21-.17,.38-.37,.38h-2.84c-.21,0-.38-.17-.38-.38v-7.91h-.2v7.92c0,.21-.17,.38-.38,.38h-4.7c-.21,0-.38-.17-.38-.38v-6.96h-.19v6.95c0,.21-.17,.38-.38,.38h-1.94c-.21,0-.38-.17-.38-.38v-6.95h-.17v6.99c0,.21-.17,.38-.38,.38h-.99v.16Zm17.04-.19h-2.82c-.21,0-.38-.17-.38-.38v-.73c-.01-1.19-.02-2.98,.03-3.59,.03-.39,.5-.79,.84-.83,.64-.07,1.26-.07,1.84,0,.37,.05,.8,.5,.83,.89,.05,.58,.04,2.33,.03,3.5v.76c0,.21-.17,.38-.38,.38Zm-2.45-.75h2.07v-.39c0-1.08,.02-2.89-.03-3.43-.02-.05-.14-.19-.2-.21-.5-.06-1.06-.06-1.64,0-.04,.02-.16,.12-.19,.18-.04,.54-.03,2.38-.02,3.49v.36Z"/>
    </g>
    <g>
      <path class="cls-3" d="M34.61,7.83c-.09-.11-.21-.31-.37-.47-2.03-2.04-4.07-4.07-6.1-6.11-.52-.52-.64-.52-1.15,0-2.04,2.03-4.07,4.07-6.11,6.11-.1,.1-.24,.19-.27,.3-.04,.19-.07,.48,.04,.57,.14,.12,.42,.13,.62,.09,.15-.03,.27-.22,.39-.34,1.77-1.77,3.55-3.54,5.32-5.31,.52-.52,.63-.52,1.15,0,1.77,1.77,3.55,3.54,5.32,5.31,.12,.12,.24,.26,.39,.36,.35,.22,.76,0,.77-.49Z"/>
      <path class="cls-3" d="M34.12,8.78c-.17,0-.33-.05-.48-.15-.15-.1-.27-.22-.37-.33l-1.99-2-3.41-3.4c-.21-.21-.29-.27-.32-.28,0,.02-.12,.11-.29,.29l-5.4,5.4c-.12,.14-.27,.31-.5,.35-.27,.06-.68,.05-.94-.17-.2-.17-.25-.47-.16-.93,.04-.21,.19-.34,.3-.44,2.1-2.1,4.14-4.13,6.17-6.17,.66-.66,1.02-.65,1.68,0,2.04,2.03,4.07,4.07,6.1,6.11,.13,.13,.24,.28,.32,.4l.07,.1c.05,.07,.08,.15,.08,.24,0,.37-.18,.69-.47,.85-.12,.07-.26,.1-.39,.1ZM27.56,1.89c.25,0,.5,.16,.83,.49l5.41,5.41c.08,.08,.16,.17,.23,.21,.03,.02,.08,.04,.12,.02,.02-.01,.05-.04,.06-.09h0c-.07-.09-.14-.21-.24-.3-2.03-2.04-4.07-4.08-6.1-6.11-.21-.21-.3-.27-.33-.28,0,.01-.08,.07-.29,.27-2.04,2.03-4.07,4.07-6.11,6.11-.03,.03-.07,.06-.1,.1-.03,.02-.07,.06-.08,.08,0,.06,0,.12,0,.16,.06,0,.15,.01,.24,0,0,0,.05-.07,.09-.11,.04-.04,.08-.09,.12-.13l5.32-5.31c.34-.33,.59-.5,.84-.5Z"/>
    </g>
    <g>
      <path class="cls-1" d="M14.78,10.66c-1.81-.02-3.27-1.52-3.25-3.33,.02-1.81,1.52-3.27,3.33-3.25,1.81,.02,3.27,1.52,3.25,3.33-.02,1.81-1.52,3.27-3.33,3.25Zm.03-5.64c-1.29,0-2.34,1.07-2.34,2.36,0,1.29,1.07,2.35,2.36,2.34,1.29,0,2.34-1.07,2.34-2.36,0-1.29-1.07-2.35-2.36-2.34Z"/>
      <path class="cls-1" d="M14.81,11.03h-.04c-2.02-.02-3.64-1.69-3.62-3.71,.02-2,1.66-3.62,3.67-3.62h.04c.97,0,1.89,.4,2.57,1.1s1.06,1.63,1.05,2.61c0,.97-.4,1.89-1.11,2.57-.69,.68-1.6,1.05-2.57,1.05Zm.01-6.58c-1.6,0-2.91,1.28-2.92,2.88-.02,1.61,1.28,2.94,2.88,2.95h0c.79,.01,1.51-.29,2.07-.83,.56-.55,.87-1.27,.88-2.04,0-.78-.29-1.51-.83-2.07-.54-.56-1.27-.87-2.04-.88h-.03Zm0,5.64c-.72,0-1.4-.28-1.92-.79-.52-.51-.8-1.2-.81-1.92,0-.73,.28-1.41,.79-1.93,.51-.52,1.2-.81,1.92-.81v.38s0-.38,0-.38h.01c1.5,0,2.72,1.21,2.73,2.71,0,1.5-1.21,2.73-2.71,2.74h-.01Zm0-4.7h0c-.53,0-1.02,.21-1.39,.59-.37,.38-.58,.87-.57,1.4,0,.52,.21,1.02,.59,1.39,.37,.37,.87,.58,1.39,.58h0c1.09,0,1.97-.9,1.97-1.98,0-1.09-.89-1.97-1.98-1.97Z"/>
    </g>
    <g>
      <path class="cls-1" d="M40.24,10.66c-1.81-.02-3.27-1.52-3.25-3.33,.02-1.81,1.52-3.27,3.33-3.25,1.81,.02,3.27,1.52,3.25,3.33-.02,1.81-1.52,3.27-3.33,3.25Zm2.39-3.31c0-1.29-1.08-2.34-2.37-2.33-1.29,0-2.34,1.08-2.33,2.37,0,1.29,1.08,2.34,2.37,2.33,1.29,0,2.34-1.08,2.33-2.37Z"/>
      <path class="cls-1" d="M40.27,11.03h-.04c-2.02-.02-3.64-1.69-3.62-3.71,.02-2.02,1.65-3.63,3.71-3.62,.97,0,1.89,.4,2.57,1.1s1.06,1.63,1.05,2.61c0,.97-.4,1.89-1.11,2.57-.69,.68-1.6,1.05-2.57,1.05Zm.01-6.58c-1.6,0-2.91,1.28-2.92,2.88-.02,1.61,1.28,2.94,2.88,2.95h0c.81,.01,1.51-.29,2.07-.83,.56-.55,.87-1.27,.88-2.04,0-.78-.29-1.52-.83-2.07-.54-.56-1.27-.87-2.04-.88h-.03Zm0,5.64c-.72,0-1.4-.28-1.91-.79-.52-.51-.81-1.19-.81-1.92-.01-1.5,1.2-2.74,2.7-2.75h.02c1.49,0,2.71,1.21,2.73,2.7,.01,1.5-1.2,2.74-2.7,2.75h-.02Zm0-4.7h-.01c-1.09,0-1.97,.9-1.96,1.99,0,.52,.21,1.02,.59,1.39,.38,.37,.83,.59,1.4,.57,1.09,0,1.97-.9,1.96-1.99h0c0-1.08-.89-1.96-1.98-1.96Z"/>
    </g>
    <g>
      <path class="cls-3" d="M27.58,11.28c-1.29,.01-2.36-1.03-2.37-2.33-.01-1.29,1.03-2.36,2.32-2.38,1.29-.01,2.36,1.03,2.38,2.33,.01,1.29-1.03,2.36-2.32,2.38Zm-1.43-2.38c-.01,.77,.63,1.43,1.4,1.43,.77,0,1.42-.64,1.42-1.41,0-.75-.62-1.38-1.37-1.4-.77-.02-1.43,.61-1.45,1.38Z"/>
      <path class="cls-3" d="M27.56,11.65c-.72,0-1.39-.28-1.91-.78-.52-.51-.81-1.19-.82-1.92-.01-1.5,1.19-2.74,2.7-2.75h.03c1.49,0,2.71,1.2,2.73,2.7,.01,1.5-1.2,2.74-2.7,2.75h-.03Zm.02-.38h0Zm-.03-4.33h-.02c-1.09,.01-1.96,.91-1.95,2,0,.52,.22,1.02,.59,1.39,.37,.37,.86,.57,1.38,.57h.02c1.09-.01,1.96-.91,1.95-2-.01-1.08-.9-1.95-1.98-1.95Zm0,3.76h-.01c-.47,0-.92-.2-1.26-.54s-.52-.8-.51-1.27h0c0-.47,.21-.92,.56-1.25,.35-.33,.77-.51,1.28-.5,.95,.03,1.73,.83,1.73,1.78,0,.47-.19,.92-.53,1.26-.34,.34-.78,.52-1.25,.52Zm-1.03-1.8c0,.27,.1,.53,.3,.73,.2,.2,.46,.31,.73,.32,.28,.03,.53-.11,.73-.3,.2-.2,.31-.46,.31-.73,0-.54-.46-1.01-1-1.03-.26-.01-.53,.09-.74,.29-.2,.19-.32,.45-.33,.72h0Z"/>
    </g>
  </g>
</svg>