<?xml version="1.0" encoding="UTF-8"?>
<svg id="Layer_1" data-name="Layer 1" xmlns="http://www.w3.org/2000/svg" viewBox="0 0 46.9 49.02">
  <defs>
    <style>
      .cls-1 {
        fill: #b3ffae;
      }

      .cls-2 {
        fill: #28663d;
      }

      .cls-3 {
        fill: #5fb257;
      }
    </style>
  </defs>
  <path class="cls-1" d="M2.16,28.14c-.28-6.25,4.15-11.77,9.79-13.94-6.21,.12-11.21,5.18-11.21,11.41,0,2.47,.79,4.75,2.12,6.62-.4-1.31-.64-2.68-.71-4.09Z"/>
  <path class="cls-1" d="M43.82,.99c-3.19,0-33.21,.05-33.21,.05,0,0-3.38-.24-3.9,3.47,0,0-4.09,.52-3.85,5.28l.59,4.13s.24-.58,1.88-1.65v-2.63c0-.79,.31-1.38,.78-1.78,.39-.4,.94-.66,1.66-.66,.16,0,.3,.02,.44,.04v-.03s-.3-3.24,5.13-3.24H46.1s.9-3-2.28-3Z"/>
  <g>
    <g>
      <g>
        <path class="cls-3" d="M12.21,48.64c-1.2,0-2.39,0-3.59,0-1.56,0-2.54-.97-2.54-2.52,0-2.06,0-4.12,0-6.17,0-2.43-.81-4.52-2.46-6.36C.47,30.08-.51,26.01,1.23,21.6c1.79-4.53,5.25-7.22,10.15-7.73,6.03-.62,11.79,4.17,12.47,10.17,.41,3.64-.59,6.82-3.05,9.53-1.7,1.87-2.57,4.02-2.5,6.57,.06,1.98,.01,3.96,0,5.94,0,1.59-.97,2.55-2.57,2.56-1.18,0-2.35,0-3.53,0Zm5.13-8.5c.03-.55,.03-1.08,.09-1.6,.25-2.22,1.27-4.08,2.77-5.71,1.75-1.9,2.7-4.17,2.8-6.75,.27-6.82-5.51-12.08-12.27-11.21-4.98,.64-9.29,5.47-9.35,10.49-.03,2.89,.91,5.42,2.89,7.54,1.35,1.44,2.24,3.1,2.58,5.05,.13,.72,.16,1.46,.24,2.19h10.26Zm0,1.01H7.04v1.9h3.23v.97h-3.25c0,1.14-.02,1.22,0,2.3,.02,.77,.58,1.36,1.34,1.37,2.55,.02,5.09,.02,7.64,0,.72,0,1.28-.54,1.34-1.25,.04-.5,0,0,0-.57h-3.24v-.95h3.22v-3.77Z"/>
        <path class="cls-3" d="M10.03,49.02c-.47,0-.94,0-1.4,0-1.77,0-2.91-1.14-2.92-2.9,0-1.12,0-2.23,0-3.35v-2.83c0-2.34-.78-4.34-2.36-6.11C0,30.12-.85,25.84,.88,21.46c1.86-4.7,5.48-7.45,10.46-7.96,6.16-.63,12.17,4.28,12.88,10.5,.42,3.76-.63,7.06-3.15,9.82-1.68,1.85-2.47,3.92-2.4,6.31,.04,1.45,.03,2.92,.02,4.34v1.61c-.01,1.8-1.14,2.93-2.95,2.93h-2.42s-1.11,0-1.11,0h-1.09c-.36,0-.73,0-1.09,0ZM12.42,14.2c-.33,0-.67,.02-1,.05-4.69,.48-8.09,3.07-9.84,7.49-1.64,4.15-.86,8.05,2.32,11.6,1.71,1.91,2.55,4.07,2.55,6.61v2.83c0,1.11,0,2.23,0,3.34,0,1.34,.81,2.14,2.17,2.15,.83,0,1.66,0,2.49,0h1.09s1.11,0,1.11,0h2.41c1.39,0,2.19-.8,2.2-2.18v-1.62c.02-1.41,.03-2.88,0-4.31-.07-2.59,.78-4.83,2.6-6.83,2.36-2.59,3.35-5.7,2.95-9.23-.62-5.49-5.65-9.89-11.05-9.89Zm-.25,33.88c-1.3,0-2.57,0-3.8-.02-.95,0-1.69-.75-1.71-1.73-.02-.71-.01-.99-.01-1.42v-.88c0-.21,.17-.38,.38-.38h2.87v-.22h-2.85c-.21,0-.38-.17-.38-.38v-1.9c0-.21,.17-.38,.38-.38h10.29c.21,0,.38,.17,.38,.38v3.77c0,.21-.17,.38-.38,.38h-2.85v.2h2.86c.21,0,.38,.17,.38,.38,0,.15,0,.22,0,.24,.02,.03,.01,.08,0,.19v.17c-.09,.9-.83,1.58-1.72,1.59-1.3,.01-2.58,.02-3.84,.02Zm-4.77-3.68v.51c0,.42,0,.7,0,1.4,.01,.57,.42,1,.97,1,2.43,.02,5,.02,7.63,0,.51,0,.92-.38,.96-.9l.02-.17h-2.87c-.21,0-.38-.17-.38-.38v-.95c0-.21,.17-.38,.38-.38h2.85v-3.02H7.42v1.15h2.85c.21,0,.38,.17,.38,.38v.97c0,.21-.17,.38-.38,.38h-2.88Zm9.94-3.88H7.08c-.19,0-.35-.15-.37-.34-.02-.23-.04-.45-.06-.68-.04-.49-.09-1-.17-1.48-.31-1.82-1.13-3.41-2.48-4.85-2.02-2.15-3.02-4.78-2.99-7.8,.06-5.22,4.49-10.19,9.68-10.86,3.35-.43,6.65,.6,9.08,2.83,2.42,2.22,3.74,5.41,3.6,8.76-.1,2.65-1.08,5-2.9,6.98-1.57,1.71-2.45,3.51-2.67,5.5-.04,.34-.05,.69-.07,1.04l-.02,.53c0,.2-.17,.35-.37,.35Zm-9.92-.75h9.56v-.16c.02-.37,.03-.74,.08-1.1,.25-2.15,1.18-4.09,2.87-5.92,1.7-1.85,2.61-4.03,2.7-6.51,.12-3.13-1.1-6.11-3.36-8.18-2.27-2.08-5.36-3.04-8.48-2.64-4.84,.62-8.97,5.26-9.02,10.12-.03,2.82,.91,5.27,2.79,7.28,1.44,1.54,2.34,3.3,2.67,5.24,.09,.52,.13,1.04,.18,1.54,0,.11,.02,.22,.03,.33Z"/>
      </g>
      <g>
        <path class="cls-3" d="M25.64,26.11c-.19-.2-.36-.38-.57-.61,.26-.3,.52-.58,.76-.87,2.58-3.13,3.44-6.69,2.41-10.61-.35-1.34,.36-2.25,1.69-2.21,2.21,.08,4.43,.03,6.64,.02,4.73-.02,8.5-3.44,8.99-8.15,.03-.29,.04-.59,.02-.88-.05-.71-.58-1.24-1.29-1.31-.19-.02-.39,0-.59,0-10.99,0-21.98,0-32.98,0-2.22,0-3.4,1.02-3.7,3.23-.05,.36-.22,.5-.57,.54-2.07,.24-3.19,1.5-3.2,3.56,0,1.86,0,2.72,0,4.59,0,.04-.01,.08-.03,.17h-.9c0-.36,0,.27,0-.09,0-1.63,0-3.25,0-4.88,.01-2.08,1.33-3.72,3.36-4.18,.32-.07,.44-.21,.51-.52,.46-2.02,2.1-3.35,4.18-3.35,11.23,0,22.45,0,33.68,0,1.5,0,2.48,1.02,2.47,2.53-.04,5.19-4.39,9.6-9.58,9.69-2.31,.04-4.62,0-6.94,.01-.98,0-1.05,.11-.82,1.06,1.08,4.59,0,8.6-3.22,12.04-.05,.06-.11,.11-.17,.17-.03,.02-.07,.03-.16,.07Z"/>
        <path class="cls-3" d="M25.65,26.46c-.11,0-.22-.03-.28-.09l-.57-.61c-.13-.14-.14-.36,0-.5l.25-.28c.17-.19,.34-.39,.51-.58,2.53-3.08,3.32-6.54,2.33-10.28-.21-.78-.1-1.48,.3-1.97,.38-.48,1-.73,1.76-.7,1.67,.06,3.37,.05,5.01,.03h1.62c4.53-.03,8.15-3.32,8.62-7.83,.03-.3,.04-.57,.02-.81-.04-.52-.42-.91-.95-.96-.13-.01-.27-.01-.4,0h-.15s-32.98,0-32.98,0c-2.03,0-3.06,.9-3.33,2.91-.07,.52-.37,.8-.9,.86-1.87,.21-2.86,1.32-2.86,3.19v4.59s-.02,.14-.03,.17c-.04,.17-.21,.37-.38,.37h-.77c-.22,.09-.51-.09-.51-.35v-1.63c0-1.12,0-2.25,0-3.37,.02-2.26,1.45-4.04,3.65-4.54,.17-.04,.19-.06,.23-.24C6.32,1.59,8.11,.16,10.37,.16c11.23,0,22.46,0,33.68,0,.83,0,1.54,.28,2.05,.79,.53,.53,.8,1.26,.79,2.12-.04,5.37-4.6,9.97-9.95,10.06-1.59,.03-3.18,.02-4.77,.01h-2.17c-.33,0-.53,.01-.59,.04,.01,.04,.1,.42,.13,.55,1.11,4.68,0,8.84-3.31,12.38-.07,.07-.13,.14-.2,.19-.03,.03-.15,.09-.18,.1-.06,.02-.13,.04-.21,.04Zm-.08-.97l.12,.12c3.12-3.35,4.17-7.29,3.13-11.7-.13-.54-.2-.92,.03-1.21,.23-.29,.62-.31,1.15-.31h2.17c1.59,0,3.17,.01,4.76-.01,4.96-.08,9.17-4.35,9.21-9.31,0-.65-.19-1.2-.58-1.58-.37-.38-.9-.57-1.52-.57-11.23,0-22.46,0-33.68,0-1.9,0-3.4,1.2-3.82,3.06-.1,.46-.34,.7-.8,.8-1.85,.42-3.05,1.92-3.06,3.82,0,1.12,0,2.24,0,3.36v1.23h.19v-4.38c0-2.24,1.29-3.68,3.53-3.93,.21-.02,.22-.06,.24-.21,.32-2.39,1.66-3.56,4.07-3.56H43.84c.16,0,.33,0,.48,.01,.89,.09,1.56,.77,1.62,1.65,.02,.29,.02,.6-.02,.95-.51,4.9-4.44,8.47-9.36,8.49h-1.61c-1.65,.03-3.36,.04-5.04-.02-.53-.02-.92,.13-1.15,.42-.25,.31-.3,.77-.16,1.31,1.05,3.99,.22,7.67-2.48,10.95-.17,.21-.35,.4-.53,.6l-.02,.02ZM3.22,13.43h0s.03,0,.03,0h-.03Z"/>
      </g>
      <path class="cls-2" d="M12.66,32.04c0-1.23,0-2.47,0-3.7,0-.6,.32-.78,.84-.5,.53,.29,1.05,.6,1.58,.91,.29,.17,.57,.22,.76-.11,.2-.33,0-.55-.29-.71-.53-.3-1.06-.6-1.57-.92-.51-.32-.51-.65,.01-.97,.47-.29,.95-.55,1.42-.83,.31-.18,.69-.36,.42-.8-.24-.4-.56-.21-.86-.03-.47,.28-.94,.56-1.42,.82-.55,.3-.86,.13-.88-.5-.01-.61,.03-1.22-.02-1.82-.02-.21-.06-.59-.43-.59-.5-.01-.45,.39-.47,.6-.07,.6-.01,1.21-.03,1.82-.01,.6-.32,.78-.84,.5-.53-.29-1.05-.6-1.58-.91-.29-.17-.62-.24-.74,.11-.06,.18,.1,.56,.28,.69,.47,.35,1.01,.6,1.51,.9,.57,.35,.57,.69-.02,1.04-.49,.29-.98,.57-1.48,.85-.3,.17-.53,.39-.32,.75,.2,.33,.49,.24,.77,.08,.46-.27,.91-.53,1.37-.79,.75-.43,1.03-.28,1.03,.59,0,2.37,0,4.74,0,7.11,0,.35,0,.73,.45,.74,.5,.01,.49-.4,.49-.76,0-1.2,0-2.39,0-3.59Z"/>
    </g>
    <g>
      <path class="cls-3" d="M42.01,39.35v1.92s0,.03,0,.04c.02,.56,.03,1.12-.04,1.68-.2,1.78-1.58,2.99-3.37,2.94-1.58-.04-3.17-.17-4.74-.32-1.13-.11-2.25-.31-3.37-.47-.97-.14-1.74,.35-1.78,1.23-.03,.63,.08,1.27,.13,1.93,.34-.02,.59-.04,.9-.06-.03-.45-.05-.85-.09-1.26-.09-.89,.08-1.05,.97-.89,2.67,.47,5.35,.75,8.06,.77,2.1,.02,3.93-1.53,4.18-3.62,.1-.81,.06-1.64,.08-2.46,.02-1.35,0-1.44-.92-1.43Z"/>
      <path class="cls-3" d="M28.84,48.67c-.19,0-.36-.15-.37-.35-.02-.2-.04-.41-.06-.6-.05-.45-.1-.91-.08-1.38,.03-.48,.23-.91,.58-1.2,.41-.34,.99-.48,1.63-.39,.34,.05,.67,.1,1.01,.15,.77,.12,1.56,.24,2.34,.32,1.91,.18,3.37,.28,4.72,.32,1.57,.04,2.81-1.03,2.99-2.6,.06-.53,.05-1.07,.03-1.63v-1.97c0-.21,.17-.37,.38-.38,.46,0,.8,.01,1.04,.25,.28,.29,.27,.74,.26,1.56,0,.22,0,.43,0,.65,0,.61,0,1.23-.08,1.85-.27,2.26-2.21,3.95-4.52,3.95h-.04c-2.62-.02-5.35-.29-8.12-.78-.42-.07-.52-.05-.54-.03,0,0-.03,.1,.01,.52,.03,.28,.04,.55,.06,.84l.03,.42c0,.1-.03,.2-.09,.27s-.16,.12-.26,.13l-.9,.06s-.02,0-.03,0Zm1.32-3.19c-.31,0-.58,.08-.77,.24-.19,.16-.3,.38-.31,.65-.02,.4,.03,.82,.07,1.26,0,.08,.02,.17,.03,.26h.16s0-.07,0-.07c-.02-.28-.03-.55-.06-.82-.04-.43-.06-.88,.24-1.15,.27-.25,.65-.24,1.17-.15,2.73,.48,5.42,.74,8,.77h.04c1.92,0,3.54-1.41,3.77-3.29,.07-.57,.07-1.18,.07-1.76,0-.22,0-.44,0-.66,0-.41,.02-.92-.05-1.02-.02,0-.07-.02-.12-.02v1.54c.01,.62,.02,1.19-.04,1.76-.22,1.98-1.78,3.31-3.75,3.27-1.37-.04-2.84-.14-4.77-.32-.8-.08-1.61-.2-2.39-.32-.33-.05-.67-.1-1-.15-.09-.01-.18-.02-.27-.02Z"/>
    </g>
    <g>
      <path class="cls-3" d="M43.29,26.28c-.21-.44-.31-.96-.34-1.45-.11-1.8,0-3.62-.27-5.39-.22-1.47-.6-2.88-1.12-4.22-.31,.08-.61,.14-.9,.17,.33,.82,.6,1.67,.81,2.55,.56,2.31,.54,4.66,.57,7.01,0,.56,.15,1.17,.39,1.68,.91,1.93,1.88,3.83,2.85,5.73,.25,.5,.15,.8-.35,1.02-.57,.26-1.13,.54-1.68,.84-.8,.44-1.23,1.13-1.24,2.05,0,.38,0,.77,0,1.17,0,0,0,0,0,0v.97c.1,0,.19,0,.29,0,.45-.02,.63-.24,.63-.66,0-.45,0-.9,0-1.35-.01-.68,.29-1.15,.91-1.44,.49-.23,.98-.49,1.47-.74,1.09-.55,1.31-1.21,.77-2.3-.93-1.87-1.89-3.74-2.79-5.63Z"/>
      <path class="cls-3" d="M42.01,38.78c-.1,0-.19-.04-.26-.11-.07-.07-.11-.17-.11-.27v-.97s0-.05,0-.08v-.28c0-.27,0-.54,0-.81,0-1.05,.5-1.87,1.43-2.38,.55-.31,1.13-.59,1.7-.86,.21-.1,.25-.17,.26-.19,0-.02,.02-.11-.09-.32-.9-1.76-1.92-3.76-2.86-5.74-.27-.57-.42-1.22-.43-1.84v-.57c-.03-2.1-.05-4.27-.55-6.36-.2-.83-.47-1.67-.79-2.5-.04-.11-.03-.23,.03-.33,.06-.1,.16-.17,.28-.18,.29-.03,.57-.09,.85-.16,.19-.05,.38,.05,.45,.23,.54,1.39,.92,2.84,1.14,4.3,.17,1.15,.19,2.32,.21,3.46,.01,.66,.02,1.31,.06,1.96,.03,.5,.14,.96,.31,1.31h0c.62,1.31,1.27,2.6,1.92,3.9l.86,1.72c.63,1.27,.33,2.16-.94,2.8l-.33,.17c-.38,.19-.76,.39-1.15,.57-.49,.23-.7,.57-.69,1.1,0,.29,0,.58,0,.87v.49c0,.64-.35,1.01-.99,1.04-.1,0-.2,0-.3,0h0Zm.38-1.26v.49c.15-.02,.17-.08,.17-.28v-.5c0-.28,0-.56,0-.85-.02-.83,.36-1.43,1.12-1.79,.38-.18,.75-.37,1.12-.56l.33-.17c.9-.46,1.05-.9,.6-1.8l-.86-1.72c-.65-1.3-1.31-2.6-1.93-3.91-.27-.56-.35-1.18-.38-1.59-.04-.66-.05-1.33-.06-2-.02-1.11-.04-2.26-.2-3.36-.2-1.3-.53-2.59-.98-3.84-.05,.01-.1,.02-.15,.03,.26,.71,.49,1.44,.66,2.16,.53,2.17,.55,4.38,.57,6.53v.56c.01,.5,.14,1.06,.36,1.53,.93,1.97,1.95,3.96,2.85,5.72,.18,.35,.22,.65,.13,.91-.09,.26-.3,.46-.65,.62-.56,.26-1.12,.54-1.65,.83-.69,.38-1.03,.95-1.04,1.73,0,.27,0,.53,0,.81v.36s0,.05,0,.08Z"/>
    </g>
    <g>
      <path class="cls-3" d="M42.29,36.67l-.28,1.74v2.53s.9,.65,.9,.65l.03-4.84s-.38-1.61-.65-.08Z"/>
      <path class="cls-3" d="M42.91,41.96c-.08,0-.16-.02-.22-.07l-.89-.65c-.1-.07-.15-.18-.15-.3v-2.54s.27-1.8,.27-1.8c0,0,0,0,0,0,.06-.33,.17-.96,.63-.97,.2-.03,.53,.09,.75,1.03l-.02,4.93c0,.14-.08,.27-.21,.33-.05,.03-.11,.04-.17,.04Zm-.51-1.21l.14,.1,.02-3.48-.17,1.09v2.28Z"/>
    </g>
  </g>
</svg>