<?xml version="1.0" encoding="UTF-8"?>
<svg id="Layer_1" data-name="Layer 1" xmlns="http://www.w3.org/2000/svg" viewBox="0 0 54.39 35.78">
  <defs>
    <style>
      .cls-1 {
        fill: #b3ffae;
      }

      .cls-2 {
        fill: #5fb257;
      }
    </style>
  </defs>
  <path class="cls-1" d="M12.54,19.82C12.1,10.07,21.15,1.77,30.6,1.77c1.27,0,2.5,.13,3.68,.38-2.16-.98-4.55-1.54-7.07-1.54C17.78,.61,10.14,8.25,10.14,17.67c0,5.47,2.58,10.33,6.58,13.45-2.47-3.12-3.99-7.07-4.18-11.3Z"/>
  <g>
    <g>
      <g>
        <path class="cls-2" d="M1.32,11.3c0-2.02,0-4.04,0-6.06,0-2.4,1.31-3.71,3.7-3.71,4.7,0,6.39,0,11.09,0-.08-.3-.1-.63-.05-.94-4.75,0-6.5,0-11.25,0-2.62,0-4.42,1.81-4.42,4.45,0,2.27,0,4.55,0,6.82,0,.86,.01,.88,.83,1.05,2.48,.53,4.96,1.06,7.43,1.59-.01-.32,.04-.64,.16-.93-2.49-.53-4.99-1.07-7.49-1.6v-.67Z"/>
        <path class="cls-2" d="M8.64,14.88s-.05,0-.08,0l-7.43-1.59C.14,13.07,0,12.9,0,11.86v-2.1C0,8.19,0,6.61,0,5.04,0,2.2,1.98,.22,4.8,.22h11.25c.11,0,.21,.05,.29,.13,.07,.08,.1,.19,.08,.3-.04,.26-.03,.53,.04,.78,.03,.11,0,.23-.06,.33s-.18,.15-.3,.15H5.02c-2.17,0-3.32,1.15-3.32,3.34v6.42l7.19,1.54c.11,.02,.2,.09,.25,.19,.05,.1,.06,.21,.01,.32-.1,.24-.14,.51-.13,.78,0,.12-.04,.23-.13,.3-.07,.06-.15,.09-.24,.09ZM10.89,.97H4.8c-2.42,0-4.04,1.64-4.05,4.07,0,1.57,0,3.15,0,4.72v2.1c0,.22,0,.49,.03,.55,.04,.03,.31,.09,.5,.13l7,1.5c0-.06,.02-.13,.03-.19l-7.09-1.52c-.17-.04-.3-.19-.3-.37V5.24c0-2.6,1.49-4.09,4.07-4.09H15.66c0-.06,0-.13,0-.19h-4.76Z"/>
      </g>
      <g>
        <path class="cls-2" d="M54,5.01c0-2.59-1.82-4.41-4.4-4.41-4.72,0-6.43,0-11.15,0,.06,.31,.05,.63-.03,.94,4.64,0,6.28,0,10.92,0,.18,0,.35,0,.53,0,1.66,.06,3.1,1.34,3.16,2.99,.08,2.47,.02,4.93,.02,7.45-2.49,.53-4.98,1.07-7.46,1.6,.12,.29,.17,.62,.16,.94,2.49-.53,4.97-1.06,7.46-1.59,.57-.12,.82-.35,.81-.98-.04-2.31-.01-4.63-.02-6.94Z"/>
        <path class="cls-2" d="M45.74,14.89c-.09,0-.17-.03-.24-.09-.09-.08-.14-.19-.13-.3,.01-.27-.03-.54-.13-.78-.04-.1-.04-.22,.01-.32,.05-.1,.14-.17,.25-.19l7.16-1.54c0-.66,0-1.31,0-1.96,.01-1.7,.02-3.46-.03-5.18-.04-1.39-1.3-2.57-2.79-2.62-.13,0-.26,0-.39,0h-11.05c-.12,0-.22-.05-.29-.14-.07-.09-.1-.21-.07-.32,.06-.25,.07-.52,.02-.78-.02-.11,0-.22,.08-.31s.18-.13,.29-.13h4.22s6.93,0,6.93,0c2.8,0,4.77,1.97,4.78,4.79h0c0,.79,0,1.57,0,2.36,0,1.52,0,3.05,.02,4.57,.01,.77-.33,1.19-1.1,1.35-2.36,.5-4.72,1-7.08,1.51l-.38,.08s-.05,0-.08,0Zm.32-1.03c.01,.06,.03,.13,.03,.2,2.34-.5,4.69-1,7.03-1.5,.43-.09,.52-.19,.51-.61-.02-1.53-.02-3.06-.02-4.59,0-.79,0-1.57,0-2.36h0c0-2.38-1.66-4.04-4.03-4.04h-6.93s-3.81,0-3.81,0c0,.06,0,.13,0,.19h10.62c.14,0,.28,0,.42,0,1.92,.07,3.46,1.54,3.52,3.35,.05,1.73,.04,3.5,.03,5.21,0,.75,0,1.5,0,2.26,0,.18-.12,.33-.3,.37l-7.06,1.51Z"/>
      </g>
      <g>
        <path class="cls-2" d="M16.85,34.95c0-.16,0-.32,.02-.48-4.98,0-6.96,0-11.95,0-2.26,0-3.61-1.35-3.61-3.63,0-5.27,0-10.54,0-15.81v-.72H.38v.64c0,5.29,0,10.58,0,15.87,0,2.83,1.76,4.59,4.58,4.59,4.98,0,6.97,0,11.95,0-.03-.15-.05-.3-.06-.46Z"/>
        <path class="cls-2" d="M12.42,35.78H4.95C1.95,35.78,0,33.83,0,30.82V14.31c0-.21,.17-.38,.38-.38h.94c.21,0,.38,.17,.38,.38V30.84c0,2.07,1.18,3.25,3.23,3.25h11.95c.11,0,.21,.05,.28,.13s.1,.19,.09,.3c-.02,.13-.03,.27-.02,.41h0c0,.14,.03,.28,.05,.41,.02,.11,0,.22-.08,.31s-.18,.13-.29,.13h-4.49ZM.75,14.68V30.82c0,2.64,1.57,4.21,4.2,4.21h11.52s0-.05,0-.07h0s0-.08,0-.12H4.92c-2.46,0-3.98-1.53-3.98-4V14.68h-.19Z"/>
      </g>
      <g>
        <path class="cls-2" d="M53.06,14.32v.74c0,5.27,0,10.54,0,15.81,0,2.23-1.36,3.6-3.58,3.6-4.82,0-6.64,0-11.46,0,.03,.16,.05,.32,.06,.48,0,.16,0,.31-.02,.46,4.8,0,6.6,0,11.4,0,2.78,0,4.55-1.77,4.55-4.56,0-5.31,0-10.62,0-15.93v-.6h-.94Z"/>
        <path class="cls-2" d="M49.45,35.78h-11.4c-.11,0-.21-.05-.28-.13s-.1-.19-.09-.3c.02-.13,.02-.26,.02-.39,0-.15-.03-.29-.05-.43-.02-.11,0-.22,.08-.31,.07-.09,.18-.14,.29-.14h11.46c2.01,0,3.2-1.2,3.2-3.22V14.32c0-.21,.17-.38,.38-.38h.94c.21,0,.38,.17,.38,.38V30.85c0,3-1.93,4.93-4.92,4.93Zm-11-.75h11c2.57,0,4.17-1.6,4.17-4.18V14.69s-.19,0-.19,0V30.87c0,2.45-1.52,3.97-3.96,3.97h-11.03s0,.06,0,.09c0,.03,0,.07,0,.1Z"/>
      </g>
    </g>
    <g>
      <g>
        <path class="cls-2" d="M9.79,17.77c0-9.6,7.84-17.42,17.44-17.39,9.58,.02,17.37,7.84,17.36,17.42,0,9.6-7.85,17.42-17.44,17.39-9.58-.03-17.37-7.84-17.36-17.42Zm33.86,.03c.01-9.06-7.36-16.46-16.42-16.48-9.06-.02-16.47,7.35-16.5,16.41-.03,9.09,7.37,16.51,16.45,16.52,9.06,0,16.46-7.38,16.47-16.44Z"/>
        <path class="cls-2" d="M27.2,35.56h-.05c-9.79-.03-17.74-8.01-17.73-17.79h0c0-4.75,1.86-9.21,5.24-12.57C18.02,1.84,22.47,0,27.19,0h.05c9.79,.02,17.74,8.01,17.73,17.79,0,4.75-1.86,9.21-5.24,12.57-3.36,3.35-7.81,5.19-12.53,5.19ZM10.17,17.77c0,9.37,7.61,17.02,16.99,17.04h.05c4.52,0,8.78-1.77,12-4.97,3.23-3.22,5.01-7.5,5.02-12.04,0-9.37-7.61-17.02-16.99-17.04-4.51-.02-8.82,1.75-12.05,4.97-3.23,3.22-5.01,7.5-5.02,12.04h0Zm17.03,16.85h0c-4.49,0-8.72-1.76-11.91-4.96-3.19-3.2-4.93-7.44-4.92-11.93,.03-9.26,7.58-16.79,16.83-16.79h.04c9.28,.02,16.81,7.58,16.8,16.86-.01,9.27-7.56,16.82-16.83,16.82Zm0-32.93c-8.85,0-16.06,7.19-16.08,16.04-.01,4.29,1.66,8.34,4.7,11.4,3.04,3.06,7.08,4.74,11.38,4.74h0c8.86,0,16.07-7.21,16.08-16.07h0c.01-8.86-7.19-16.09-16.05-16.11h-.04Z"/>
      </g>
      <g>
        <path class="cls-2" d="M29.79,14.19c0,2.43,.01,4.86-.01,7.29,0,.33-.11,.69-.28,.98-.57,.96-1.18,1.89-1.78,2.83-.35,.54-.67,.54-1.02,.01-.65-1-1.29-2.01-1.91-3.03-.11-.19-.17-.44-.17-.66,0-4.94-.01-9.87,0-14.81,0-1.53,1.14-2.68,2.61-2.67,1.44,.01,2.56,1.15,2.57,2.65,.01,2.47,0,4.94,0,7.4Zm-2.59,10.15c.56-.89,1.07-1.67,1.55-2.47,.08-.14,.09-.34,.09-.51,0-4.82,0-9.64,0-14.46,0-1.08-.69-1.82-1.65-1.82-.96,0-1.65,.74-1.65,1.82,0,4.82,0,9.64,0,14.46,0,.19,.03,.4,.12,.56,.47,.78,.97,1.55,1.53,2.43Z"/>
        <path class="cls-2" d="M27.19,26.07h0c-.45,0-.73-.43-.82-.57-.65-1-1.29-2.02-1.92-3.04-.14-.23-.22-.54-.22-.86,0-4.94-.01-9.87,0-14.81,0-.85,.32-1.63,.89-2.2,.55-.55,1.32-.85,2.1-.84,1.67,.01,2.93,1.31,2.94,3.02,0,1.75,0,3.5,0,5.26v2.15s0,1.74,0,1.74c0,1.85,0,3.7-.01,5.55,0,.39-.12,.81-.33,1.17-.54,.91-1.12,1.81-1.69,2.68l-.11,.16c-.09,.14-.38,.58-.83,.58Zm0-21.56c-.59,0-1.14,.22-1.55,.62-.43,.42-.67,1.02-.67,1.67,0,4.94,0,9.87,0,14.81,0,.17,.04,.35,.11,.47,.62,1.02,1.26,2.02,1.91,3.02,.11,.17,.18,.22,.2,.23,0,0,.08-.06,.19-.24l.1-.16c.56-.86,1.14-1.76,1.67-2.66,.14-.24,.23-.54,.23-.79,.02-1.85,.02-3.69,.01-5.54v-1.74s0-2.15,0-2.15c0-1.75,0-3.5,0-5.25,0-1.29-.95-2.27-2.19-2.28h-.02Zm0,20.21c-.13,0-.25-.07-.32-.17l-.46-.72c-.38-.59-.73-1.15-1.07-1.71-.12-.19-.17-.44-.17-.75,0-4.82,0-9.64,0-14.46,0-.61,.2-1.17,.56-1.57,.37-.4,.89-.63,1.46-.63h0c1.17,0,2.02,.93,2.02,2.2,0,4.82,0,9.64,0,14.46,0,.23-.02,.48-.15,.7-.36,.6-.74,1.19-1.14,1.83l-.42,.65c-.07,.11-.19,.17-.32,.17Zm0-19.26c-.37,0-.68,.13-.91,.38-.24,.26-.37,.63-.37,1.06,0,4.82,0,9.64,0,14.46,0,.16,.02,.29,.07,.36,.34,.56,.69,1.11,1.06,1.7l.14,.23,.1-.16c.4-.63,.77-1.22,1.13-1.81,.02-.03,.04-.11,.04-.31,0-4.82,0-9.64,0-14.46,0-.87-.51-1.45-1.27-1.45h0Z"/>
      </g>
      <g>
        <path class="cls-2" d="M30.97,13.86c.16-.29,.3-.52,.46-.79,.18,.09,.33,.17,.48,.25,2.03,1.18,4.06,2.36,6.09,3.55,.95,.55,1.32,2.09,.75,3.03-.31,.5-.9,.81-1.46,.65-2.07-.59-4.12-1.22-6.22-1.85,.1-.32,.19-.59,.29-.9,1.89,.57,3.74,1.12,5.59,1.67,.36,.11,.77,.37,1.02-.15,.23-.45,.02-1.37-.35-1.58-1.69-.99-3.38-1.98-5.07-2.96-.51-.3-1.01-.59-1.57-.92Z"/>
        <path class="cls-2" d="M37.59,20.96c-.14,0-.27-.02-.41-.06-1.51-.43-3.01-.88-4.53-1.34l-1.7-.51c-.1-.03-.18-.1-.22-.19-.05-.09-.06-.19-.02-.29l.29-.89c.06-.19,.27-.3,.46-.25l1.47,.44c1.38,.42,2.75,.83,4.12,1.23,.06,.02,.13,.04,.2,.07,.32,.11,.32,.11,.38-.02,.15-.31-.03-.99-.21-1.09-1.19-.7-2.38-1.4-3.58-2.09l-3.06-1.79c-.18-.1-.24-.33-.14-.51l.46-.79c.1-.18,.32-.24,.5-.15l.17,.09c.11,.06,.22,.11,.32,.17,2.03,1.18,4.06,2.36,6.09,3.55,.53,.31,.94,.89,1.12,1.59,.18,.71,.09,1.42-.24,1.96-.33,.54-.9,.87-1.47,.87Zm-6.05-2.51l1.33,.4c1.51,.45,3.01,.9,4.52,1.34,.37,.11,.8-.1,1.04-.48,.22-.36,.28-.88,.15-1.39-.12-.5-.41-.92-.77-1.13-2.03-1.18-4.06-2.37-6.09-3.55-.05-.03-.09-.05-.14-.08l-.09,.16,2.74,1.6c1.19,.7,2.39,1.39,3.58,2.09,.54,.32,.81,1.44,.5,2.08-.36,.73-1.03,.49-1.31,.39l-.15-.05c-1.37-.41-2.74-.82-4.12-1.23l-1.12-.34-.06,.18Z"/>
      </g>
      <g>
        <path class="cls-2" d="M23.43,13.86c-1.85,1.07-3.64,2.12-5.43,3.16-.3,.18-.59,.39-.92,.53-.61,.25-.77,.68-.72,1.3,.05,.73,.21,.88,.9,.68,1.72-.51,3.45-1.04,5.17-1.55,.19-.06,.37-.11,.61-.17,.09,.29,.18,.56,.28,.88-1.62,.49-3.2,.97-4.79,1.45-.45,.14-.9,.26-1.35,.39-.53,.15-.97-.02-1.34-.38-.75-.75-.56-2.6,.35-3.14,2.22-1.32,4.46-2.6,6.75-3.94,.15,.25,.3,.49,.49,.8Z"/>
        <path class="cls-2" d="M16.8,20.95c-.44,0-.86-.19-1.23-.55-.44-.44-.65-1.19-.55-2.01,.1-.77,.46-1.42,.97-1.72,1.56-.92,3.12-1.83,4.71-2.75l2.05-1.19c.17-.1,.4-.05,.51,.13l.49,.8c.05,.09,.07,.19,.04,.29-.02,.1-.09,.18-.17,.23l-5.43,3.16c-.09,.05-.18,.11-.28,.17-.21,.14-.43,.28-.68,.38-.41,.17-.53,.4-.49,.93,.02,.31,.06,.4,.08,.43,0,0,.09,0,.34-.08,1.15-.34,2.3-.69,3.44-1.04l2.33-.69c.2-.06,.4,.05,.46,.25l.28,.88c.03,.1,.02,.2-.03,.29s-.13,.16-.22,.18l-4.79,1.45c-.38,.11-.75,.22-1.13,.33l-.22,.06c-.16,.05-.32,.07-.48,.07Zm6.01-7.38l-1.73,1.01c-1.58,.92-3.15,1.83-4.7,2.75-.31,.18-.54,.63-.61,1.17-.07,.57,.06,1.11,.33,1.38,.3,.3,.61,.39,.97,.29l.22-.06c.38-.11,.75-.21,1.12-.33l4.43-1.34-.06-.17-1.97,.59c-1.15,.35-2.3,.69-3.45,1.04-.35,.1-.71,.17-.99-.03-.31-.21-.36-.62-.39-.98-.04-.54,.02-1.29,.96-1.68,.2-.08,.38-.2,.57-.32,.1-.06,.2-.13,.3-.19l5.09-2.97-.1-.16Z"/>
      </g>
      <g>
        <path class="cls-2" d="M34.15,26.72c0-.44,.04-.82-.02-1.18-.03-.17-.19-.37-.35-.47-1-.62-2.01-1.21-3.08-1.85,.15-.26,.29-.5,.47-.82,1.21,.72,2.41,1.41,3.57,2.15,.19,.12,.3,.46,.32,.71,.05,.48,.04,.98,0,1.47-.04,.61-.57,1.04-1.14,.89-1.66-.44-3.3-.93-4.98-1.41,.09-.31,.17-.57,.26-.9,1.62,.46,3.23,.91,4.93,1.4Z"/>
        <path class="cls-2" d="M34.17,28.03c-.11,0-.22-.01-.33-.04-1.19-.32-2.38-.66-3.57-1l-1.42-.41c-.1-.03-.18-.09-.23-.18-.05-.09-.06-.19-.03-.29l.26-.9c.06-.2,.26-.31,.46-.25l4.46,1.26c0-.23,0-.44-.02-.63,0-.04-.09-.15-.17-.2-.73-.45-1.47-.89-2.24-1.35l-.83-.5c-.18-.11-.24-.33-.13-.51l.47-.82c.05-.09,.13-.15,.23-.17,.1-.03,.2,0,.29,.04l.91,.54c.9,.53,1.79,1.06,2.67,1.62,.4,.25,.48,.87,.49,.99,.04,.45,.04,.93,0,1.53-.03,.42-.24,.8-.56,1.03-.21,.15-.46,.23-.72,.23Zm-4.75-2.07l1.05,.3c1.19,.34,2.37,.68,3.56,1,.19,.05,.33-.01,.42-.07,.15-.1,.24-.28,.25-.48,.04-.55,.04-1,0-1.4-.02-.21-.1-.4-.15-.44-.86-.55-1.75-1.07-2.64-1.6l-.59-.35-.1,.17,.52,.31c.77,.46,1.52,.9,2.25,1.36,.23,.14,.48,.42,.52,.73,.04,.29,.04,.56,.03,.86,0,.12,0,.24,0,.37,0,.12-.05,.23-.15,.3s-.21,.09-.33,.06l-4.57-1.3-.05,.18Z"/>
      </g>
      <g>
        <path class="cls-2" d="M23.25,22.48c.13,.23,.27,.47,.43,.75-.93,.55-1.81,1.1-2.73,1.58-.54,.28-.81,.61-.71,1.22,.03,.21,0,.42,0,.7,1.66-.47,3.27-.93,4.91-1.4,.09,.29,.17,.55,.27,.88-.57,.17-1.12,.33-1.67,.49-1.01,.29-2.03,.59-3.05,.87-.85,.23-1.41-.16-1.41-1.03,0-2.03-.2-1.72,1.5-2.71,.76-.45,1.52-.88,2.29-1.32,.03-.02,.07-.01,.17-.02Z"/>
        <path class="cls-2" d="M20.26,28.01c-.38,0-.64-.13-.81-.26-.24-.18-.52-.54-.52-1.21v-.55c-.03-1.42,.05-1.54,1.27-2.25l.41-.24c.71-.42,1.43-.83,2.15-1.25l.14-.08c.05-.03,.19-.06,.25-.06,.13-.01,.36,.06,.43,.18l.43,.75c.1,.18,.04,.41-.13,.51-.28,.16-.55,.33-.82,.49-.65,.39-1.27,.76-1.92,1.1-.5,.26-.57,.48-.51,.83,.01,.08,.02,.17,.02,.26l4.43-1.26c.19-.05,.4,.06,.46,.25l.27,.88c.03,.1,.02,.2-.03,.29-.05,.09-.13,.15-.22,.18l-.45,.13c-.41,.12-.82,.24-1.23,.36l-.48,.14c-.85,.25-1.71,.49-2.57,.73-.21,.06-.39,.08-.56,.08Zm2.82-5.07c-.7,.4-1.4,.81-2.1,1.22l-.42,.24q-.91,.52-.9,1.58v.56c0,.2,.05,.48,.23,.62,.15,.12,.41,.13,.72,.05,.85-.24,1.71-.48,2.56-.73l.48-.14c.41-.12,.81-.24,1.22-.36l.09-.03-.05-.17-4.56,1.3c-.11,.03-.24,0-.33-.06-.09-.07-.15-.18-.15-.3,0-.1,0-.18,0-.27,0-.14,.01-.26,0-.37-.15-.95,.45-1.37,.91-1.61,.63-.33,1.24-.69,1.88-1.08,.17-.1,.34-.2,.51-.3l-.09-.16Z"/>
      </g>
    </g>
  </g>
</svg>