<?xml version="1.0" encoding="UTF-8" standalone="no"?>
<svg
   xmlns:dc="http://purl.org/dc/elements/1.1/"
   xmlns:cc="http://creativecommons.org/ns#"
   xmlns:rdf="http://www.w3.org/1999/02/22-rdf-syntax-ns#"
   xmlns:svg="http://www.w3.org/2000/svg"
   xmlns="http://www.w3.org/2000/svg"
   xmlns:sodipodi="http://sodipodi.sourceforge.net/DTD/sodipodi-0.dtd"
   xmlns:inkscape="http://www.inkscape.org/namespaces/inkscape"
   width="160mm"
   height="160mm"
   viewBox="0 0 160 160"
   version="1.1"
   id="svg8"
   inkscape:version="1.0.2-2 (e86c870879, 2021-01-15)"
   sodipodi:docname="perniagaan-recruitment.svg">
  <defs
     id="defs2" />
  <sodipodi:namedview
     id="base"
     pagecolor="#ffffff"
     bordercolor="#666666"
     borderopacity="1.0"
     inkscape:pageopacity="0.0"
     inkscape:pageshadow="2"
     inkscape:zoom="0.35"
     inkscape:cx="287.64786"
     inkscape:cy="237.24"
     inkscape:document-units="mm"
     inkscape:current-layer="layer1"
     inkscape:document-rotation="0"
     showgrid="false"
     fit-margin-top="0"
     fit-margin-left="0"
     fit-margin-right="0"
     fit-margin-bottom="0"
     inkscape:window-width="1920"
     inkscape:window-height="986"
     inkscape:window-x="-11"
     inkscape:window-y="-11"
     inkscape:window-maximized="1" />
  <metadata
     id="metadata5">
    <rdf:RDF>
      <cc:Work
         rdf:about="">
        <dc:format>image/svg+xml</dc:format>
        <dc:type
           rdf:resource="http://purl.org/dc/dcmitype/StillImage" />
        <dc:title></dc:title>
      </cc:Work>
    </rdf:RDF>
  </metadata>
  <g
     inkscape:label="Layer 1"
     inkscape:groupmode="layer"
     id="layer1"
     transform="translate(-29.726505,-85.396917)">
    <g
       id="g98"
       transform="matrix(0.26458333,0,0,0.26458333,18.843454,98.923001)">
      <path
         class="st1"
         d="m 53,200.91 c 6.78,-12.16 16.88,-16.65 30.95,-16.31 32.67,0.78 65.36,0.25 99.38,0.25 0,-9.54 -0.13,-18.18 0.03,-26.82 0.24,-12.79 6.17,-18.85 19.01,-18.9 35.05,-0.14 70.11,-0.15 105.16,0 13.12,0.06 18.33,5.53 18.68,19.01 0.21,8.35 0.04,16.71 0.04,26.71 4.83,0 8.86,0 12.88,0 30.48,0 60.96,-0.08 91.44,0.03 16.89,0.06 25.62,8.16 26.12,24.85 0.47,15.61 0.38,31.25 -0.09,46.86 -0.1,3.16 -2.2,7.45 -4.76,9.17 -48.98,32.94 -101.78,57.26 -161.07,70.43 0,-7.17 0.12,-13.51 -0.02,-19.84 -0.29,-12.95 -6.54,-19.82 -19.5,-20.44 -10.64,-0.51 -21.34,-0.46 -32,-0.03 -13.71,0.55 -19.74,7.06 -20.13,20.94 -0.16,5.69 -0.03,11.38 -0.03,19.13 -12.93,-3.56 -24.87,-6.41 -36.54,-10.14 -42.64,-13.65 -82.36,-33.39 -119.7,-58.03 -3.08,-2.03 -6.57,-3.43 -9.86,-5.12 C 53,242.07 53,221.49 53,200.91 Z m 246.63,-39.44 c -30.22,0 -59.33,0 -89.15,0 0,7.77 0,14.8 0,22.36 29.99,0 59.4,0 89.15,0 0,-7.58 0,-14.35 0,-22.36 z"
         id="path78" />
      <path
         class="st2"
         d="m 53,294.67 c 51.32,32.01 105.99,56.09 166.19,69.05 0,7.65 -0.23,14.83 0.05,21.99 0.52,13 6.83,19.61 19.82,20.2 10.26,0.47 20.57,0.39 30.85,0.06 13.98,-0.45 20.67,-7.55 20.86,-21.52 0.09,-6.44 0.01,-12.89 0.01,-20.18 58.82,-12.67 113.15,-35.4 166.05,-68.43 0,5.38 0,8.9 0,12.41 0,43.04 -0.35,86.09 0.2,129.13 0.18,14.41 -4.01,25.06 -17.55,31.1 -128.56,0 -257.12,0 -386.47,0 C 53,410.53 53,352.6 53,294.67 Z"
         id="path80" />
      <path
         class="st3"
         d="m 634,214.66 c -7.22,31.5 -7.22,31.49 -39.36,30.28 -3.39,-0.13 -6.79,-0.02 -10.23,-0.02 -4.61,9.77 -9.12,19.31 -13.7,29 6.7,12.55 24.64,19.17 21.67,36.62 -1.07,6.3 -6.54,12.71 -11.58,17.34 -25.74,23.59 -25.92,23.39 -59.69,-7.06 -9.93,3.71 -19.75,7.38 -31.24,11.67 0,-21.44 -0.21,-41.1 0.27,-60.75 0.06,-2.4 3.42,-5.37 5.95,-6.95 24.5,-15.25 37.28,-37.09 34.44,-65.92 -2.71,-27.59 -17.64,-47.61 -43.97,-57.4 -27.63,-10.27 -52.22,-4.09 -73.56,16.11 -2.25,2.13 -5.62,4.3 -8.5,4.35 -23.16,0.35 -46.32,0.2 -72.06,0.2 4.79,-9.67 8.19,-18 12.87,-25.52 3.23,-5.19 2.85,-8.3 -1.12,-12.8 -4.66,-5.28 -10.11,-11.18 -11.64,-17.66 -4.16,-17.61 29.07,-46.57 45.56,-39.43 8.26,3.58 14.54,11.75 22.27,18.32 9.42,-2.92 20.32,-5.13 29.95,-9.89 3.65,-1.8 6.24,-9.53 6.1,-14.47 -0.37,-13.22 5.02,-21.74 16.89,-26.68 5.34,0 10.67,0 16.01,0 4.11,0.63 8.2,1.52 12.34,1.85 14.48,1.16 22.02,9.08 21.86,23.6 -0.06,4.94 -1.28,9.92 -0.87,14.79 0.23,2.75 2.03,6.46 4.28,7.75 8.5,4.91 17.46,9.02 26.78,13.69 2.7,-2.25 5.61,-4.62 8.45,-7.07 3.17,-2.74 6.2,-5.65 9.44,-8.3 9.44,-7.69 19.93,-7.44 28.73,1.08 5.47,5.29 10.56,11.01 15.51,16.79 10.18,11.91 10.14,24.36 -2.47,33.68 -13.08,9.67 -17.04,18.84 -9.9,34.68 3.95,8.76 7.54,12.39 16.56,12.36 13.46,-0.05 26.72,0.99 33.95,15.17 0.01,6.87 0.01,13.73 0.01,20.59 z"
         id="path82" />
      <path
         class="st3"
         d="m 239.03,318.43 c 10.54,0 20.28,0 31.15,0 0,21.44 0,42.75 0,64.75 -10.21,0 -20.28,0 -31.15,0 0,-21.26 0,-42.34 0,-64.75 z"
         id="path84" />
    </g>
  </g>
  <style
     type="text/css"
     id="style76">
	.st0{fill:#00A100;}
	.st1{fill:#00E100;}
	.st2{fill:#00FF02;}
	.st3{fill:#00D57C;}
	.st4{fill:#FFFFFF;}
	.st5{fill:#00FF00;}
	.st6{fill:#DAEDBD;}
	.st7{fill:#6FFF77;}
	.st8{fill:#ABFF83;}
	.st9{fill:#00C100;}
	.st10{fill:#ED1C24;}
	.st11{fill-rule:evenodd;clip-rule:evenodd;fill:#00DA00;}
	.st12{fill:#00DA00;}
	.st13{fill-rule:evenodd;clip-rule:evenodd;fill:#00D57C;}
	.st14{fill:#00ECAA;}
	.st15{fill:none;}
	.st16{clip-path:url(#SVGID_00000105408422211609146140000009324120712785072791_);fill:#00DA00;}
	.st17{fill:#858E37;}
	.st18{fill:#00AD11;}
	.st19{fill-rule:evenodd;clip-rule:evenodd;fill:#00AD11;}
	.st20{fill-rule:evenodd;clip-rule:evenodd;fill:#8BE8A1;}
	.st21{fill:#43434B;}
</style>
</svg>
