<?xml version="1.0" encoding="UTF-8" standalone="no"?>
<!-- Created with Inkscape (http://www.inkscape.org/) -->

<svg
   width="210mm"
   height="210mm"
   viewBox="0 0 210 210"
   version="1.1"
   id="svg194"
   xml:space="preserve"
   inkscape:version="1.2 (dc2aedaf03, 2022-05-15)"
   sodipodi:docname="rakyat-financial-assistance.svg"
   xmlns:inkscape="http://www.inkscape.org/namespaces/inkscape"
   xmlns:sodipodi="http://sodipodi.sourceforge.net/DTD/sodipodi-0.dtd"
   xmlns="http://www.w3.org/2000/svg"
   xmlns:svg="http://www.w3.org/2000/svg"><sodipodi:namedview
     id="namedview196"
     pagecolor="#ffffff"
     bordercolor="#000000"
     borderopacity="0.25"
     inkscape:showpageshadow="2"
     inkscape:pageopacity="0.0"
     inkscape:pagecheckerboard="0"
     inkscape:deskcolor="#d1d1d1"
     inkscape:document-units="mm"
     showgrid="false"
     inkscape:zoom="0.49638341"
     inkscape:cx="608.40068"
     inkscape:cy="354.56463"
     inkscape:window-width="1920"
     inkscape:window-height="986"
     inkscape:window-x="-11"
     inkscape:window-y="-11"
     inkscape:window-maximized="1"
     inkscape:current-layer="layer1" /><defs
     id="defs191" /><g
     inkscape:label="Layer 1"
     inkscape:groupmode="layer"
     id="layer1"><g
       id="g234"
       transform="matrix(0.26458333,0,0,0.26458333,0.75416798,10.526937)"><path
         class="st1"
         d="m 390.46,166.13 c -105.23,0 -190.54,85.31 -190.54,190.54 0,105.23 85.31,190.54 190.54,190.54 C 495.69,547.21 581,461.9 581,356.67 581,251.44 495.69,166.13 390.46,166.13 Z m 10.38,267.35 v 14.71 c 0,6.09 -4.94,11.03 -11.03,11.03 -6.09,0 -11.03,-4.94 -11.03,-11.03 v -14.85 c -23.67,-3.98 -42.62,-20.02 -46.07,-40.43 -1.02,-6.01 3.03,-11.7 9.03,-12.72 6.03,-1.07 11.7,3.03 12.72,9.03 2.19,12.92 17.89,23.03 35.76,23.03 19.56,0 36.09,-11.98 36.09,-26.16 0,-6.75 -6.68,-26.02 -36.38,-26.02 -37.8,0 -55.02,-25.34 -55.02,-48.87 0,-22.63 18.56,-40.94 43.85,-45 v -15.89 c 0,-6.09 4.94,-11.03 11.03,-11.03 6.09,0 11.03,4.94 11.03,11.03 v 15.95 c 22.72,3.64 39.69,18.09 42.79,37.65 0.95,6.02 -3.16,11.67 -9.17,12.62 -5.96,0.95 -11.66,-3.15 -12.62,-9.17 -1.86,-11.75 -15.18,-19.96 -32.39,-19.96 -18.21,0 -32.46,10.45 -32.46,23.8 0,4.48 1.59,26.81 32.96,26.81 42.57,0 58.44,29.49 58.44,48.08 -0.01,23.59 -20.53,43.23 -47.53,47.39 z"
         id="path219" /><path
         class="st2"
         d="m 170.75,246.52 c -20.8,-11.24 -40.97,-22.13 -61.43,-33.19 1.11,-2.14 1.92,-3.93 2.92,-5.61 C 165.51,117.78 243.34,63.06 347,48.05 c 169.41,-24.53 327.8,89.28 359.7,257.11 1.96,10.29 3.1,20.75 4.24,31.17 0.36,3.28 1.5,4.16 4.61,4.13 13.16,-0.13 26.33,-0.05 39.5,-0.05 1.79,0 3.59,0 6.78,0 -28.57,33.35 -56.33,65.76 -84.48,98.62 -27.99,-32.68 -55.77,-65.11 -84.39,-98.52 16.65,0 32.04,0 48.08,0 -3.77,-37.49 -15.07,-71.77 -34.16,-103.39 -29.3,-48.52 -70.32,-83.55 -122.9,-104.73 -38.27,-15.42 -78.12,-20.59 -119.1,-16.24 -40.98,4.35 -78.69,18.06 -112.93,41.04 -34.24,22.98 -61.08,52.79 -81.2,89.33 z"
         id="path221" /><path
         class="st3"
         d="m 617.31,467.56 c 20.55,11.08 40.82,22.01 61.92,33.39 -6.4,10.15 -12.06,20.13 -18.66,29.46 C 607.41,605.57 535.5,651.53 444.48,665.62 305.73,687.09 170.14,615.6 108.27,489.66 90.9,454.3 80.46,416.99 77.05,377.76 c -0.32,-3.71 -1.89,-4.23 -5.01,-4.21 -14.8,0.11 -29.6,0.05 -45.87,0.05 28.55,-33.34 56.29,-65.72 84.47,-98.64 27.95,32.63 55.73,65.05 84.36,98.47 -16.59,0 -32.06,0 -47.56,0 4.95,72.59 54.33,170.11 161.84,210.13 58.31,21.7 117.14,21.39 175.42,-0.47 58.32,-21.87 102,-61.03 132.61,-115.53 z"
         id="path223" /></g></g><style
     type="text/css"
     id="style217">
	.st0{fill:#00D2D7;}
	.st1{fill:#0FDFEB;}
	.st2{fill:#00DAC6;}
	.st3{fill:#00D3D4;}
	.st4{fill:#00DDCB;}
	.st5{fill:#00FFFF;}
	.st6{fill:#00D7EF;}
	.st7{fill:#00F1F7;}
	.st8{fill:#00ECD8;}
	.st9{fill:#00FFE4;}
	.st10{fill:none;}
	.st11{fill:#FFFFFF;}
	.st12{fill:#00E2D5;}
	.st13{fill:#ED1C24;}
	.st14{fill:#231F20;}
	.st15{fill-rule:evenodd;clip-rule:evenodd;fill:#0FDFEB;}
	.st16{fill-rule:evenodd;clip-rule:evenodd;fill:#00FFE4;}
	.st17{fill:#B3E8EF;}
</style></svg>
