<?xml version="1.0" encoding="UTF-8" standalone="no"?>
<!-- Created with Inkscape (http://www.inkscape.org/) -->

<svg
   width="680"
   height="680"
   viewBox="0 0 179.91666 179.91667"
   version="1.1"
   id="svg352"
   xml:space="preserve"
   inkscape:version="1.2 (dc2aedaf03, 2022-05-15)"
   sodipodi:docname="rakyat-employment.svg"
   xmlns:inkscape="http://www.inkscape.org/namespaces/inkscape"
   xmlns:sodipodi="http://sodipodi.sourceforge.net/DTD/sodipodi-0.dtd"
   xmlns="http://www.w3.org/2000/svg"
   xmlns:svg="http://www.w3.org/2000/svg"><sodipodi:namedview
     id="namedview354"
     pagecolor="#ffffff"
     bordercolor="#000000"
     borderopacity="0.25"
     inkscape:showpageshadow="2"
     inkscape:pageopacity="0.0"
     inkscape:pagecheckerboard="0"
     inkscape:deskcolor="#d1d1d1"
     inkscape:document-units="mm"
     showgrid="false"
     inkscape:zoom="0.70199214"
     inkscape:cx="397.44035"
     inkscape:cy="333.33706"
     inkscape:window-width="1920"
     inkscape:window-height="986"
     inkscape:window-x="-11"
     inkscape:window-y="-11"
     inkscape:window-maximized="1"
     inkscape:current-layer="layer1" /><defs
     id="defs349" /><g
     inkscape:label="Layer 1"
     inkscape:groupmode="layer"
     id="layer1"><g
       id="g362"
       transform="matrix(0.26458333,0,0,0.26458333,-8.7750225,6.3640713)">
	<path
   class="st6"
   d="m 71.34,346.07 c 80.41,19.3 160.34,3.72 240.59,11.11 1.44,8.01 2.98,16.6 4.64,25.86 39.34,0 77.9,0 117.25,0 0.98,-9.33 1.81,-17.28 2.68,-25.55 80.92,-8.79 162.65,9.96 243.11,-13.67 0,71.51 0.3,143.54 -0.21,215.56 -0.13,18.1 -11.03,28.95 -28.93,31.73 -7.31,1.14 -14.85,1.08 -22.29,1.08 -169.02,0.05 -338.05,0.08 -507.07,0.01 -43.78,-0.02 -52.04,-8.45 -52.03,-52.76 0.01,-62.97 0.18,-125.93 0.39,-188.9 0,-1.46 1.19,-2.91 1.87,-4.47 z"
   id="path358" />
	<path
   class="st7"
   d="m 514.09,131.02 c 51.23,0 99.25,-0.14 147.27,0.05 31.58,0.13 42.58,11.48 42.82,43.64 0.15,20.71 0.35,41.43 -0.05,62.14 -0.85,44.37 -29.42,79.97 -73.55,82.13 -64.25,3.14 -128.76,0.81 -194.43,0.81 -0.64,-14.42 -1.2,-27.34 -1.84,-41.82 -39.41,0 -77.92,0 -118.29,0 -1.12,13.48 -2.25,27 -3.48,41.75 -66.69,0 -132.07,2.41 -197.17,-0.84 -44.1,-2.2 -72.34,-37.97 -73.09,-82.5 -0.38,-22.37 -0.47,-44.75 0.04,-67.11 0.58,-25.67 12.68,-37.88 38.24,-38.12 43.08,-0.41 86.17,-0.13 129.26,-0.13 8.08,0 16.16,0 26.56,0 0,-10.93 -0.43,-19.05 0.08,-27.1 2.09,-33.04 23.83,-60.67 56.34,-62.28 54.47,-2.7 109.26,-2.58 163.74,-0.06 31,1.44 51.7,26.74 54.96,57.73 1.01,9.7 1.6,19.47 2.59,31.71 z m -51.97,-1.41 c 5.63,-36.9 1.18,-42.2 -34.27,-42.25 -35.48,-0.05 -70.97,-0.05 -106.45,0 -35.06,0.04 -39.56,5.58 -33.4,42.25 57.99,0 116.17,0 174.12,0 z"
   id="path360" />
</g></g><style
     type="text/css"
     id="style356">
	.st0{fill:#00D2D7;}
	.st1{fill:#0FDFEB;}
	.st2{fill:#00DAC6;}
	.st3{fill:#00D3D4;}
	.st4{fill:#00DDCB;}
	.st5{fill:#00FFFF;}
	.st6{fill:#00D7EF;}
	.st7{fill:#00F1F7;}
	.st8{fill:#00ECD8;}
	.st9{fill:#00FFE4;}
	.st10{fill:none;}
	.st11{fill:#FFFFFF;}
	.st12{fill:#00E2D5;}
	.st13{fill:#ED1C24;}
	.st14{fill:#231F20;}
	.st15{fill-rule:evenodd;clip-rule:evenodd;fill:#0FDFEB;}
	.st16{fill-rule:evenodd;clip-rule:evenodd;fill:#00FFE4;}
	.st17{fill:#B3E8EF;}
</style></svg>
