<?xml version="1.0" encoding="UTF-8"?>
<svg id="Layer_1" data-name="Layer 1" xmlns="http://www.w3.org/2000/svg" viewBox="0 0 54.39 43.08">
  <defs>
    <style>
      .cls-1 {
        fill: #b9f3fc;
      }

      .cls-2 {
        fill: #2192ff;
      }

      .cls-3 {
        fill: #2d388b;
      }
    </style>
  </defs>
  <path class="cls-1" d="M.89,25.21l-.08-2.5,.65-.49,3.36,.71v17.2s.3,2.27,4.39,2.27c0,0-7.35,.76-7.73-1.44-.38-2.2-.91-6.29-.91-6.29l.3-9.47Z"/>
  <path class="cls-1" d="M15,8.39l-8.68,2.14s-1.45,.37-1.45,2.2v7.45l-4.29-.86,.27-8.57s1.07-2.36,4.55-2.46c3.48-.11,9.59,.11,9.59,.11Z"/>
  <g>
    <g>
      <path class="cls-2" d="M53.04,19.28c0-2.52,.06-4.99-.02-7.45-.05-1.65-1.5-2.93-3.16-2.99-.18,0-.35,0-.53,0-14.77,0-29.55,0-44.32,0-2.39,0-3.7,1.31-3.7,3.71,0,2.02,0,4.04,0,6.06v.67c6.78,1.45,13.52,2.9,20.31,4.35-.07,.32-.12,.58-.19,.9-.34-.06-.64-.11-.94-.17-6.43-1.38-12.86-2.75-19.29-4.13-.82-.18-.83-.2-.83-1.05,0-2.27,0-4.55,0-6.82,0-2.63,1.8-4.45,4.42-4.45,14.93,0,29.86,0,44.79,0,2.58,0,4.39,1.82,4.4,4.41,0,2.31-.02,4.63,.02,6.94,.01,.63-.24,.86-.81,.98-6.57,1.39-13.13,2.8-19.69,4.2-.17,.04-.34,.05-.57,.08-.07-.28-.13-.54-.21-.88,6.77-1.45,13.51-2.9,20.31-4.35Z"/>
      <path class="cls-2" d="M21.74,24.95l-.67-.12c-.23-.04-.44-.08-.65-.12-6.43-1.38-12.86-2.75-19.29-4.13C.14,20.37,0,20.19,0,19.16v-2.1c0-1.57,0-3.15,0-4.72,0-2.84,1.98-4.82,4.8-4.82,14.93,0,29.86,0,44.79,0,2.8,0,4.77,1.97,4.78,4.79,0,.79,0,1.57,0,2.36,0,1.52,0,3.05,.02,4.57,.01,.77-.33,1.19-1.1,1.35-4.94,1.05-9.88,2.11-14.82,3.16l-4.87,1.04c-.12,.02-.24,.04-.38,.06l-.55,.08-.37-1.58,20.39-4.37c0-.66,0-1.31,0-1.96,.01-1.7,.02-3.46-.03-5.18-.04-1.39-1.3-2.57-2.79-2.62-.13,0-.25,0-.38,0H5.02c-2.17,0-3.32,1.15-3.32,3.33v6.42l20.38,4.36-.34,1.62Zm11.45-1.03l.04,.18c.07,0,.14-.02,.21-.03l4.87-1.04c4.94-1.06,9.88-2.11,14.82-3.16,.43-.09,.52-.19,.51-.61-.02-1.53-.02-3.06-.02-4.58,0-.79,0-1.57,0-2.36,0-2.38-1.66-4.04-4.03-4.04-14.93,0-29.86,0-44.79,0-2.42,0-4.04,1.64-4.05,4.07,0,1.57,0,3.15,0,4.72v2.1c0,.22,0,.49,.03,.55,.04,.03,.31,.09,.5,.13,6.43,1.38,12.86,2.76,19.29,4.13,.19,.04,.38,.07,.57,.11l.04-.18L.94,19.57v-7.03c0-2.6,1.49-4.08,4.07-4.08H49.47c.14,0,.27,0,.41,0,1.92,.07,3.46,1.54,3.52,3.35,.05,1.73,.04,3.5,.03,5.21,0,.75,0,1.5,0,2.26v.3l-20.23,4.34Z"/>
    </g>
    <g>
      <path class="cls-2" d="M.38,22.61h.94c0,.26,0,.49,0,.72,0,5.27,0,9.54,0,14.81,0,2.28,1.34,3.63,3.61,3.63,14.85,0,29.7,0,44.55,0,2.22,0,3.58-1.36,3.58-3.6,0-5.27,0-9.54,0-14.81v-.74h.94v.6c0,5.31,0,9.62,0,14.93,0,2.79-1.77,4.56-4.55,4.56-14.83,0-29.66,0-44.49,0-2.82,0-4.58-1.76-4.58-4.59,0-5.29,0-9.58,0-14.87v-.64Z"/>
      <path class="cls-2" d="M49.45,43.08H4.95C1.95,43.08,0,41.13,0,38.12v-15.89H1.69v15.91c0,2.07,1.18,3.25,3.23,3.25H49.48c2.01,0,3.2-1.2,3.2-3.22v-15.93h1.69v15.91c0,3-1.93,4.93-4.92,4.93ZM.75,22.98v15.14c0,2.64,1.57,4.21,4.2,4.21H49.45c2.57,0,4.17-1.6,4.17-4.18v-15.16s-.19,0-.19,0v15.18c0,2.45-1.52,3.97-3.95,3.97H4.92c-2.46,0-3.98-1.53-3.98-4v-15.16h-.19Z"/>
    </g>
    <path class="cls-3" d="M31.42,26.25c0,1.22,0,2.43,0,3.65-.01,1.99-1.42,3.38-3.42,3.4-.61,0-1.22,.01-1.82,0-1.78-.05-3.2-1.46-3.21-3.24-.02-2.55-.02-5.1,0-7.64,.02-1.78,1.45-3.18,3.24-3.22,.65-.01,1.29-.01,1.94,0,1.85,.03,3.25,1.45,3.28,3.3,.02,1.25,0,2.51,0,3.76Zm-1.32,.07c0-1.19,.01-2.38,0-3.57-.02-1.27-.9-2.21-2.08-2.24-.57-.01-1.15-.02-1.72,0-1.13,.04-2.02,.97-2.03,2.18-.02,2.42-.02,4.84,0,7.26,0,1.21,.9,2.14,2.03,2.18,.54,.02,1.08,0,1.61,0,1.31-.01,2.18-.95,2.19-2.35,0-1.15,0-2.31,0-3.46Z"/>
    <g>
      <path class="cls-2" d="M14.49,6.47h-.87c0-1.19-.13-2.4,.03-3.56,.21-1.54,1.6-2.53,3.28-2.53,5.15,0,10.3,0,15.46,0,1.08,0,2.16,0,3.23,0,1.95,.02,3.32,1.39,3.33,3.34,0,.9,0,1.8,0,2.73h-.94c0-.9,0-1.8,0-2.7,0-1.48-.93-2.44-2.41-2.44-6.23,0-12.46,0-18.69,0-1.48,0-2.41,.96-2.41,2.44,0,.88,0,1.76,0,2.71Z"/>
      <path class="cls-2" d="M14.86,6.84h-1.62v-.38c0-.36-.01-.73-.02-1.09-.03-.83-.06-1.68,.06-2.52C13.51,1.18,15.01,0,16.93,0c3.68,0,7.36,0,11.04,0h4.42s1.01,0,1.01,0c.75,0,1.49,0,2.23,0,2.17,.02,3.69,1.55,3.7,3.71v1.8s0,1.31,0,1.31h-1.69V3.76c0-1.27-.79-2.06-2.04-2.06-6.23,0-12.46,0-18.69,0-1.25,0-2.04,.79-2.04,2.06v3.08Zm-.88-.75h.13V3.76c0-1.71,1.1-2.81,2.79-2.81,6.23,0,12.46,0,18.69,0,1.69,0,2.78,1.11,2.79,2.81v2.32h.19v-.56s0-1.8,0-1.8c0-1.76-1.19-2.95-2.96-2.97-.74,0-1.48,0-2.22,0h-1.01s-4.42,0-4.42,0c-3.68,0-7.36,0-11.04,0-1.56,0-2.73,.89-2.91,2.2-.11,.77-.08,1.56-.05,2.39,0,.25,.02,.5,.02,.74Z"/>
    </g>
    <g>
      <path class="cls-2" d="M35.14,6.47h-.89v-1.36h-15.97v1.34h-.97c0-.61-.04-1.21,.02-1.81,.02-.18,.15-.25,.35-.39,.08-.06,.4-.11,.51-.11,5.37,0,10.73,0,16.1,0,.81,0,.88,.07,.88,.86,0,.43,0,.86,0,1.29,0,.04-.02,.07-.04,.18Z"/>
      <path class="cls-2" d="M35.14,6.85h-1.26v-1.36h-15.22v1.34h-1.72v-.38c0-.17,0-.33,0-.5,0-.44-.02-.9,.03-1.35,.04-.33,.26-.49,.44-.61,.26-.18,.7-.23,.79-.23h16.1c1.02,0,1.26,.23,1.26,1.24,0,.43,0,.86,0,1.3l-.03,.18-.07,.28-.31,.09Zm-.51-.75h.18c0-.37,0-.73,0-1.09,0-.1,0-.41-.04-.47-.05-.01-.37-.01-.47-.01H18.2c-.06,0-.27,.04-.33,.06-.09,.07-.16,.11-.17,.13-.03,.38-.03,.79-.02,1.23,0,.05,0,.09,0,.14h.22v-1.34h16.72v1.36Z"/>
    </g>
  </g>
</svg>