<svg width="79" height="74" viewBox="0 0 79 74" fill="none" xmlns="http://www.w3.org/2000/svg">
<path d="M32.3817 8.01196C32.3817 8.01196 23.0489 15.3862 22.3616 27.6917C21.6895 39.982 27.9826 45.9148 34.291 50.6033C34.291 50.6033 20.1162 45.5658 18.9859 37.4177C17.8556 29.2545 17.5195 23.777 17.5195 23.777L19.8871 16.2814C19.8871 16.2814 27.2036 6.55533 32.3817 8.01196Z" fill="#B9F3FC"/>
<path d="M49.7633 73.1358C49.7786 70.617 49.7938 67.1575 49.7938 65.6402C49.7938 63.1214 50.6034 62.0896 50.6034 62.0896L60.7763 51.1194C58.0574 48.7523 55.8578 51.9691 55.8578 51.9691L46.7848 61.0275L45.7766 65.534L45.7461 73.1358H49.7633Z" fill="#B9F3FC"/>
<path d="M19.091 71.2377L19.2132 73.4379H22.207C22.2223 72.5882 22.2376 71.7233 22.2376 71.1467C22.2376 69.5838 21.1378 68.461 21.1378 68.461C21.1378 68.461 11.0566 61.3751 7.78783 59.8123C4.51907 58.2494 5.08423 55.8824 5.08423 55.8824L5.19115 45.1094C1.46416 45.337 2.25844 50.6021 2.25844 50.6021L2.59448 58.9019C2.59448 58.9019 11.8509 65.8512 14.6767 67.4292C17.5024 69.0073 19.091 71.2377 19.091 71.2377Z" fill="#B9F3FC"/>
<path d="M19.4452 73.2111C19.0023 73.2111 18.6204 73.2111 18.1774 73.2111C18.1469 73.0745 18.1011 72.938 18.1011 72.8014C18.1011 71.3296 17.3984 70.2826 16.1917 69.4785C11.7774 66.5804 7.3936 63.6368 2.96398 60.7538C1.49762 59.7979 0.810269 58.5689 0.840818 56.824C0.901916 53.8197 0.856093 50.8153 0.856093 47.811C0.856093 45.5654 2.36827 43.957 4.44561 43.957C6.47713 43.957 8.01986 45.6109 8.03513 47.8414C8.05041 50.1326 8.05041 52.4237 8.01986 54.7149C8.00458 55.3522 8.21843 55.7467 8.78359 56.0805C11.9912 57.9316 15.1836 59.7979 18.376 61.6794C19.0023 62.0436 19.6285 62.2408 20.3312 61.907C21.4767 61.3759 21.66 60.0103 20.6825 58.9786C19.7507 57.9771 18.7426 57.0364 17.7803 56.0653C16.1154 54.3962 16.0237 52.1202 17.5665 50.5877C19.0786 49.0704 21.4309 49.1463 23.1111 50.785C25.8147 53.4403 28.503 56.1108 31.1761 58.7965C33.009 60.6324 33.9102 62.8781 33.9255 65.4575C33.9408 68.0067 33.9255 70.5558 33.9255 73.1656C33.4367 73.1656 33.009 73.1656 32.4897 73.1656C32.4897 71.6634 32.4897 70.1916 32.4897 68.7046C32.4897 67.6577 32.4744 66.6259 32.4897 65.5789C32.505 63.2574 31.6801 61.2849 30.0305 59.6462C27.4491 57.0819 24.8677 54.5176 22.2863 51.9533C22.0572 51.7257 21.8128 51.4981 21.5378 51.3161C20.5144 50.6636 19.2772 50.8153 18.5135 51.6499C17.7192 52.5148 17.6887 53.8197 18.544 54.73C19.5369 55.8073 20.6061 56.8088 21.6295 57.8406C22.4238 58.6447 22.8667 59.6007 22.7293 60.7387C22.4543 62.8933 20.1326 64.1982 18.2233 63.136C14.649 61.1483 11.1511 59.0393 7.62272 56.9605C6.88954 56.5357 6.6146 55.8225 6.6146 54.988C6.62987 52.5451 6.64515 50.1174 6.59933 47.6745C6.56878 45.9599 5.0566 44.8978 3.60551 45.5502C2.76541 45.9296 2.30718 46.5972 2.30718 47.5227C2.2919 50.8305 2.2919 54.1231 2.30718 57.4309C2.30718 58.3109 2.79596 58.9027 3.51387 59.3882C8.05041 62.3774 12.587 65.3665 17.1082 68.386C18.8953 69.5998 19.6743 71.2234 19.4452 73.2111Z" fill="#2192FF"/>
<path d="M19.4436 73.7866H18.1758C17.9008 73.7866 17.6717 73.6045 17.6106 73.3314C17.5495 73.119 17.519 72.9672 17.519 72.8003C17.519 71.6016 16.9843 70.6912 15.8693 69.9477C14.128 68.8097 12.402 67.6566 10.676 66.5186C8.00291 64.7433 5.32986 62.9832 2.64154 61.2383C0.976614 60.161 0.228161 58.7499 0.25871 56.8229C0.304534 54.8503 0.289259 52.8626 0.289259 50.8749C0.289259 49.8583 0.273985 48.8417 0.289259 47.81C0.289259 45.2457 2.04583 43.3945 4.44394 43.3945C6.79622 43.3945 8.58334 45.3064 8.59862 47.8403C8.61389 50.1315 8.61389 52.4226 8.58334 54.7138C8.58334 55.169 8.69026 55.3662 9.05685 55.5787C12.2645 57.4298 15.4569 59.2961 18.6493 61.1776C19.245 61.5266 19.6421 61.5873 20.0545 61.39C20.4058 61.2231 20.6197 60.95 20.6961 60.6162C20.7724 60.2065 20.6044 59.7513 20.2378 59.3568C19.6268 58.7195 19.0006 58.0974 18.3743 57.4753C18.023 57.1415 17.687 56.8077 17.3509 56.4587C15.4722 54.5772 15.3805 51.9371 17.1371 50.177C18.8784 48.4321 21.5973 48.5231 23.4913 50.3742C26.1949 53.0296 28.8832 55.7 31.5563 58.3857C33.4809 60.3127 34.4584 62.6949 34.4737 65.4565C34.4737 67.2166 34.4737 68.9918 34.4737 70.7671V73.1645C34.4737 73.4831 34.214 73.7411 33.8933 73.7411H32.4575C32.1367 73.7411 31.877 73.4831 31.877 73.1645V67.7324C31.877 67.0193 31.877 66.291 31.877 65.5778C31.8923 63.4081 31.1439 61.6024 29.5859 60.0548L21.8417 52.3619C21.6431 52.1647 21.414 51.9522 21.1849 51.8005C20.3906 51.2998 19.4741 51.406 18.8937 52.0433C18.2827 52.7109 18.298 53.682 18.9242 54.3648C19.5963 55.0779 20.2989 55.7759 20.9863 56.4587C21.3223 56.7925 21.6584 57.1263 21.9944 57.4601C22.9872 58.4616 23.4149 59.5996 23.2469 60.8286C23.0789 62.0728 22.3152 63.1653 21.2001 63.7267C20.1309 64.2578 18.9242 64.2426 17.8855 63.666C15.0292 62.088 12.1576 60.3886 9.39289 58.7347L7.26973 57.4753C6.6893 57.1263 5.98667 56.4132 5.98667 55.0172V53.8034C6.00194 51.7702 6.00194 49.7521 5.97139 47.7189C5.95612 47.0513 5.6659 46.4747 5.17712 46.1712C4.7647 45.9133 4.26064 45.8829 3.78713 46.0954C3.1456 46.3837 2.82484 46.854 2.82484 47.552C2.80956 50.8446 2.80956 54.1524 2.82484 57.445C2.82484 58.0367 3.11505 58.4768 3.78713 58.932C8.32368 61.9211 12.8602 64.9102 17.3815 67.9297C19.3672 69.2498 20.2378 71.0554 19.9782 73.2859C19.9782 73.5741 19.7338 73.7866 19.4436 73.7866ZM18.6645 72.6486H18.9089C18.9395 71.0857 18.2369 69.8415 16.7705 68.8704C12.2492 65.851 7.71269 62.8618 3.19142 59.8727C2.19858 59.2202 1.72507 58.4312 1.72507 57.445C1.72507 54.1372 1.70979 50.8446 1.72507 47.5368C1.72507 46.414 2.3055 45.534 3.35944 45.0484C4.18427 44.6843 5.08547 44.7298 5.83392 45.2002C6.64347 45.716 7.13226 46.6416 7.14753 47.6886C7.17808 49.7218 7.17808 51.755 7.16281 53.7882V55.0021C7.16281 55.7152 7.39193 56.1856 7.88071 56.4891L10.0039 57.7484C12.7686 59.3872 15.6096 61.0866 18.466 62.6646C19.1686 63.0439 19.9934 63.0743 20.7113 62.7101C21.4903 62.3156 22.025 61.5721 22.1319 60.692C22.2388 59.812 21.9333 59.0078 21.2001 58.2643C20.8641 57.9305 20.528 57.6119 20.2073 57.2781C19.4894 56.5801 18.7867 55.8821 18.0994 55.1386C17.0607 54.031 17.0454 52.4074 18.0688 51.2846C19.0311 50.2225 20.5739 50.0556 21.8264 50.8446C22.1471 51.057 22.4374 51.315 22.6818 51.5577L30.426 59.2506C32.1825 60.9955 33.0685 63.1349 33.0532 65.593C33.0532 66.3062 33.0532 67.0193 33.0532 67.7324V72.6031H33.3434V70.7671C33.3434 68.9918 33.3434 67.2166 33.3434 65.4565C33.3281 62.9984 32.4727 60.9045 30.762 59.1899C28.0889 56.5042 25.4006 53.8337 22.697 51.1784C21.2612 49.7673 19.2755 49.6763 17.9619 50.9812C16.6483 52.2861 16.74 54.2131 18.1758 55.6545C18.5118 55.9883 18.8478 56.3222 19.1992 56.656C19.8407 57.2932 20.4822 57.9153 21.1085 58.5678C21.7347 59.2202 21.9944 60.0396 21.8569 60.8134C21.7195 61.4962 21.2612 62.0728 20.5891 62.3915C19.5657 62.877 18.6798 62.4825 18.0994 62.1335C14.907 60.252 11.7299 58.3857 8.52224 56.5346C7.75852 56.1401 7.42248 55.5787 7.43775 54.7138C7.4683 52.4226 7.45303 50.1466 7.45303 47.8555C7.43775 45.9285 6.16996 44.5477 4.44394 44.5477C2.67209 44.5477 1.43485 45.8981 1.41958 47.8403C1.41958 48.8569 1.41958 49.8735 1.41958 50.8901C1.43485 52.8778 1.43485 54.8655 1.38903 56.8532C1.35848 58.3857 1.92364 59.4478 3.25252 60.2975C5.94084 62.0425 8.61389 63.8177 11.2869 65.593C13.013 66.731 14.7543 67.8842 16.4803 69.0222C17.9008 69.9326 18.6187 71.1313 18.6645 72.6486Z" fill="#2192FF"/>
<path d="M60.8532 73.1965C60.3797 73.1965 59.9825 73.1965 59.509 73.1965C59.3868 71.0722 60.2269 69.5094 61.9682 68.3562C66.3826 65.4581 70.7664 62.5145 75.196 59.6316C76.2805 58.9184 76.7845 58.0687 76.754 56.7638C76.6776 53.8202 76.7387 50.8766 76.7234 47.933C76.7234 46.4005 75.8681 45.399 74.5697 45.399C73.3019 45.399 72.4313 46.4308 72.416 47.9633C72.4007 50.2848 72.4007 52.6064 72.416 54.9279C72.4313 55.9596 72.0189 56.688 71.133 57.2038C67.8031 59.146 64.4885 61.1034 61.1587 63.0304C59.6618 63.8953 57.9663 63.5918 56.9582 62.3476C55.9653 61.1185 56.0417 59.3584 57.2026 58.1142C58.2412 57.0066 59.3563 55.9748 60.4102 54.8823C61.0518 54.2147 61.2656 53.3954 60.9601 52.5001C60.6699 51.6656 60.0742 51.0435 59.2188 51.0435C58.5009 51.0435 57.5844 51.2408 57.0956 51.7111C54.1629 54.503 51.2913 57.3708 48.4655 60.284C47.1519 61.6344 46.5715 63.3642 46.5409 65.2457C46.5104 67.5975 46.5256 69.9494 46.5256 72.2861C46.5256 72.5744 46.5256 72.8627 46.5256 73.2116C46.0369 73.2116 45.6397 73.2116 45.1357 73.2116C45.1204 72.984 45.0898 72.7261 45.0898 72.4681C45.0898 70.177 45.0898 67.8858 45.0898 65.5947C45.0898 62.909 46.0216 60.6027 47.9462 58.706C50.5887 56.081 53.2312 53.4409 55.889 50.8311C57.5692 49.1772 59.9062 49.1013 61.4336 50.6035C62.9916 52.1511 62.9 54.4271 61.1892 56.1417C60.288 57.0521 59.3563 57.9473 58.4551 58.8577C57.5997 59.7226 57.4622 60.6634 58.0427 61.4068C58.6536 62.1959 59.5854 62.3021 60.6852 61.6496C63.8317 59.8137 66.963 57.9625 70.1248 56.1417C70.7358 55.7927 70.9955 55.3831 70.9802 54.6547C70.9344 52.3939 70.9497 50.1331 70.9649 47.8723C70.9802 45.6418 72.5077 43.9879 74.5392 43.9728C76.6623 43.9576 78.144 45.5811 78.144 47.8875C78.144 50.9525 78.1287 54.0175 78.1593 57.0825C78.1745 58.6605 77.5177 59.7985 76.2194 60.6482C71.8967 63.4856 67.6045 66.3381 63.2971 69.1907C61.3878 70.4653 61.0976 70.9205 60.8532 73.1965Z" fill="#2192FF"/>
<path d="M60.8526 73.7567H59.5085C59.203 73.7567 58.9586 73.5139 58.9433 73.2256C58.8211 70.9496 59.7376 69.144 61.6622 67.8846C63.266 66.8225 64.8698 65.7604 66.4737 64.6982C69.2689 62.8471 72.0794 60.9808 74.89 59.16C75.8522 58.5379 76.2036 57.8703 76.1883 56.7778C76.1425 54.7598 76.1425 52.7417 76.1577 50.7237C76.1577 49.7981 76.173 48.8574 76.1577 47.9318C76.1577 46.7179 75.5468 45.9744 74.5692 45.9593C73.6222 45.9593 72.9959 46.7483 72.9959 47.947C72.9806 50.2685 72.9806 52.5748 72.9959 54.8963C73.0112 56.1253 72.4918 57.0509 71.4379 57.673C70.0479 58.4772 68.6732 59.2966 67.2832 60.1007C65.3434 61.2387 63.4035 62.3767 61.4636 63.4996C59.7529 64.4858 57.7214 64.152 56.5299 62.6802C55.3385 61.2084 55.4454 59.16 56.8049 57.7034C57.4006 57.0661 58.0268 56.4592 58.6378 55.8371C59.0961 55.3819 59.5696 54.9267 60.0278 54.4563C60.5471 53.9252 60.6846 53.3335 60.4402 52.6507C60.3333 52.332 59.9973 51.5885 59.2488 51.5885C58.5462 51.5885 57.8435 51.801 57.5228 52.1044C54.7581 54.7294 51.9476 57.5365 48.9079 60.6622C47.7623 61.8457 47.1666 63.3782 47.1514 65.2293C47.1361 66.868 47.1361 68.5219 47.1361 70.1606V73.1801C47.1361 73.4987 46.8764 73.7567 46.5557 73.7567H45.1657C44.8602 73.7567 44.6158 73.5291 44.6005 73.2256L44.5852 72.998C44.57 72.8159 44.5547 72.6339 44.5547 72.4518V65.5783C44.5547 62.7257 45.5628 60.2828 47.579 58.28L50.5576 55.3212C52.2072 53.6825 53.8569 52.0286 55.5218 50.3899C57.4006 48.5387 60.1347 48.4477 61.8608 50.1623C63.6632 51.9527 63.5562 54.5625 61.6164 56.5047L60.486 57.6275C59.9514 58.1586 59.4168 58.6745 58.8975 59.2207C58.4545 59.6759 58.0116 60.3739 58.5309 61.0415C58.6836 61.2539 59.1724 61.876 60.425 61.1477L63.541 59.3269C65.6488 58.0979 67.7415 56.8688 69.8646 55.655C70.3229 55.397 70.4451 55.1694 70.4451 54.6687C70.3992 52.7114 70.4145 50.754 70.4298 48.7815V47.8711C70.4451 45.3372 72.2169 43.4102 74.5692 43.4102C74.5845 43.4102 74.5845 43.4102 74.5997 43.4102C75.7148 43.4102 76.7076 43.8047 77.4714 44.5482C78.2962 45.3675 78.7697 46.5662 78.7697 47.9014V51.012C78.7697 53.03 78.7697 55.0632 78.785 57.0813C78.8002 58.8262 78.0823 60.1463 76.5854 61.1325C73.7596 62.9837 70.9338 64.85 68.1233 66.7163L63.6632 69.6751C61.876 70.8586 61.6927 71.1621 61.4636 73.2711C61.4025 73.5443 61.1429 73.7567 60.8526 73.7567ZM60.0736 72.6187H60.3486C60.6082 70.6006 61.0818 69.9785 62.9911 68.704L67.4512 65.7604C70.277 63.8941 73.0876 62.0277 75.9133 60.1766C77.0895 59.4028 77.6241 58.4469 77.6088 57.0813C77.5936 55.048 77.5935 53.03 77.5935 50.9968V47.8863C77.5935 46.8545 77.2575 45.9441 76.6465 45.3372C76.1119 44.8061 75.394 44.533 74.5845 44.533H74.5692C72.8432 44.5482 71.5754 45.9441 71.5754 47.8711V48.7815C71.5601 50.7388 71.5601 52.681 71.5906 54.6384C71.6059 55.5488 71.2546 56.1557 70.4451 56.6261C68.3372 57.8399 66.2293 59.069 64.1367 60.298L61.0207 62.1188C59.6765 62.8926 58.424 62.7561 57.6297 61.7243C56.866 60.7228 57.0493 59.4938 58.0879 58.4317C58.6226 57.8854 59.1572 57.3544 59.6918 56.8385L60.8221 55.7157C62.319 54.2135 62.4106 52.3017 61.0665 50.9664C59.7681 49.6767 57.7825 49.7678 56.3314 51.194C54.6664 52.8328 53.0168 54.4715 51.3671 56.1102L48.3886 59.069C46.5709 60.8594 45.7003 62.9837 45.7003 65.5479V72.4214C45.7003 72.4821 45.7003 72.5428 45.7003 72.6035H45.9905V70.1606C45.9905 68.5067 45.9905 66.8528 46.0058 65.199C46.0363 63.0444 46.7389 61.2387 48.0831 59.8428C51.138 56.7019 53.9638 53.8949 56.7285 51.2547C57.37 50.6478 58.4393 50.4354 59.2335 50.4202H59.2488C60.2875 50.4202 61.1276 51.103 61.5247 52.2562C61.8913 53.3486 61.6622 54.3804 60.8526 55.215C60.3944 55.6853 59.9209 56.1557 59.4474 56.6109C58.8364 57.2178 58.2254 57.8096 57.645 58.4469C56.6827 59.4786 56.591 60.9201 57.4159 61.9367C58.256 62.9685 59.6459 63.1961 60.8832 62.4829C62.8231 61.3601 64.7629 60.2221 66.7028 59.0841C68.0928 58.2648 69.4675 57.4606 70.8575 56.6564C71.5601 56.2467 71.8656 55.7005 71.8503 54.8811C71.8198 52.5596 71.835 50.2381 71.8503 47.9166C71.8503 46.0806 72.9806 44.7909 74.5692 44.7909C76.2036 44.7909 77.2881 46.0503 77.3033 47.8863C77.3033 48.8118 77.3033 49.7526 77.3033 50.6781C77.3033 52.681 77.2881 54.6991 77.3339 56.7019C77.3644 58.1889 76.8145 59.2207 75.5162 60.0552C72.7057 61.876 69.9104 63.7423 67.1152 65.5935C65.5114 66.6556 63.9075 67.7177 62.2884 68.7799C60.8374 69.7813 60.1195 70.9951 60.0736 72.6187Z" fill="#2192FF"/>
<path d="M40.585 28.1305C41.4251 28.3733 42.2499 28.5554 43.0289 28.8588C44.3883 29.3899 45.5186 30.2244 46.2518 31.5142C47.3669 33.4715 46.8781 35.793 45.0451 37.3559C43.9454 38.2966 42.9831 38.6911 40.5544 39.2222C40.5544 40.1174 40.5697 39.7077 40.5544 40.6181C40.5544 40.8912 40.5086 41.1795 40.4017 41.4223C40.1878 41.8472 39.7601 41.9989 39.3019 41.9079C38.8131 41.8016 38.4923 41.483 38.4771 40.9671C38.4465 40.1781 38.4618 40.694 38.4618 39.905C38.4618 39.6774 38.4618 39.4498 38.4618 39.3587C37.2704 38.9187 36.1248 38.6153 35.1167 38.0842C33.4365 37.189 32.3061 35.8385 32.2145 33.8357C32.184 33.1681 32.5505 32.7129 33.1462 32.6673C33.7878 32.6066 34.2613 33.0011 34.3071 33.6839C34.3682 34.7006 34.9028 35.3985 35.6818 35.9751C36.4761 36.5517 37.3773 36.8855 38.4007 37.0221C38.4007 34.7612 38.4007 32.5156 38.4007 30.3307C37.4689 30.0424 36.5219 29.8299 35.636 29.4354C34.0016 28.7071 32.7338 27.5691 32.2756 25.7635C31.7868 23.8213 32.688 21.8791 34.5973 20.6046C35.7429 19.8308 37.026 19.4514 38.4465 19.239C38.4465 18.2983 38.4465 18.6928 38.4465 17.7824C38.4465 16.963 38.8131 16.523 39.4852 16.5078C40.1573 16.5078 40.5391 16.9478 40.5391 17.752C40.5391 18.6776 40.5391 18.2679 40.5391 19.1935C41.2418 19.3756 41.9138 19.5121 42.5706 19.7245C44.0217 20.2101 45.2895 20.9991 46.0532 22.3343C46.4504 23.0323 46.6184 23.882 46.7712 24.6862C46.8781 25.2628 46.4351 25.6876 45.8852 25.7483C45.3048 25.8242 44.8313 25.4904 44.6938 24.8986C44.205 22.7744 42.7998 21.5909 40.5697 21.4391C40.585 23.6848 40.585 25.9001 40.585 28.1305ZM38.4312 21.4088C37.0413 21.6364 35.8651 22.0916 34.9639 23.093C34.2918 23.8365 34.0933 24.7014 34.4904 25.6573C35.0097 26.9167 37.026 28.1002 38.4312 27.994C38.4312 25.8242 38.4312 23.6392 38.4312 21.4088ZM40.585 37.0372C41.9749 36.8248 43.1664 36.3544 44.0676 35.3227C44.8618 34.4123 44.9382 33.3046 44.2814 32.3639C43.3955 31.1045 42.0819 30.6038 40.5697 30.361C40.585 32.5915 40.585 34.7764 40.585 37.0372Z" fill="#2D388B"/>
<path d="M37.9873 52.4829C37.0861 52.3615 36.1849 52.2553 35.2989 52.1035C30.7624 51.3297 26.791 49.3724 23.4001 46.2922C19.5356 42.7872 17.0764 38.4779 15.9919 33.3797C13.8382 23.1985 18.9704 12.3951 28.2879 7.60036C29.2349 7.11482 30.2125 6.70514 31.1901 6.31063C32.1829 5.90095 33.0383 6.23477 33.3743 7.09964C33.6951 7.94935 33.2521 8.75353 32.2593 9.13286C26.3633 11.3785 22.2392 15.4449 19.9327 21.2715C16.7862 29.2678 19.169 38.6752 25.7218 44.2893C29.9681 47.9309 34.9171 49.6758 40.5228 49.433C49.8861 49.0234 57.89 42.332 59.9521 33.228C62.4876 22.0908 55.4613 10.9537 44.2804 8.3742C44.0971 8.32868 43.9138 8.29833 43.7305 8.26798C43.6847 8.3135 43.6388 8.35902 43.593 8.41972C43.8527 8.61697 44.1276 8.78388 44.3567 9.01147C45.0135 9.69427 45.0288 10.6198 44.4178 11.2268C43.8069 11.8337 42.8751 11.8185 42.203 11.1509C40.9658 9.93704 39.7438 8.72318 38.5219 7.49415C37.804 6.76583 37.804 5.91613 38.5219 5.18781C39.7286 3.97395 40.9505 2.76009 42.1725 1.5614C42.8751 0.878605 43.8069 0.833086 44.4178 1.47036C45.0441 2.09247 44.9983 3.00286 44.3109 3.70083C43.8832 4.14086 43.4403 4.56571 42.9973 5.02091C44.1429 5.29402 45.2427 5.49128 46.2966 5.82509C55.2322 8.70801 60.9296 14.6711 62.9612 23.7751C65.848 36.7482 57.2485 49.5089 44.1276 52.058C43.2417 52.2249 42.3252 52.3008 41.424 52.407C41.2866 52.4222 41.1644 52.4677 41.0422 52.498C40.0035 52.4829 38.9954 52.4829 37.9873 52.4829Z" fill="#2192FF"/>
</svg>
