<?xml version="1.0" encoding="UTF-8"?>
<svg id="Layer_1" data-name="Layer 1" xmlns="http://www.w3.org/2000/svg" viewBox="0 0 48.57 48.99">
  <defs>
    <style>
      .cls-1 {
        fill: #b3ffae;
      }

      .cls-2 {
        fill: #28663d;
      }

      .cls-3 {
        fill: #5fb257;
      }
    </style>
  </defs>
  <polygon class="cls-1" points="1.77 37.1 1.77 48.2 5.71 48.15 5.76 37.1 1.77 37.1"/>
  <polygon class="cls-1" points="18.66 37.1 18.66 48.2 22.61 48.15 22.65 37.1 18.66 37.1"/>
  <polygon class="cls-1" points="35.4 37.1 35.4 48.2 39.34 48.15 39.39 37.1 35.4 37.1"/>
  <g>
    <g>
      <path class="cls-3" d="M46.24,37.42v10.22h-10.27v-10.22h-.99c0,3.08,0,7.17,0,10.25,0,.89,.05,.94,.92,.94,3.47,0,6.93,0,10.4,0,.85,0,.91-.06,.91-.89,0-3.1,0-7.2,0-10.3h-.97Z"/>
      <path class="cls-3" d="M46.3,48.99h-10.4c-1.08,0-1.29-.22-1.29-1.32v-10.25c0-.21,.17-.38,.38-.38h.99c.21,0,.38,.17,.38,.38v9.85h9.52v-9.85c0-.21,.17-.38,.38-.38h.97c.21,0,.38,.17,.38,.38v10.3c0,1.04-.23,1.27-1.29,1.27Zm-10.94-11.19v9.88c0,.16,0,.49,.04,.56,.04,0,.37,0,.51,0h10.4c.14,0,.46,0,.53-.04,0-.04,0-.36,0-.48v-9.93s-.22,0-.22,0v9.85c0,.21-.17,.38-.38,.38h-10.27c-.21,0-.38-.17-.38-.38v-9.85h-.24Z"/>
    </g>
    <g>
      <path class="cls-3" d="M34.45,34.97c.12-.07,.3-.02,.46-.02,2.07,0,4.15,0,6.22,0s4.11,0,6.16,0c.16,0,.35-.05,.46,.03,.16,.1,.36,.3,.36,.45,0,.15-.21,.34-.37,.44-.12,.07-.3,.02-.46,.02-4.13,0-8.26,0-12.38,0-.16,0-.35,.05-.46-.03-.16-.1-.36-.3-.36-.45,0-.15,.21-.34,.37-.44Z"/>
      <path class="cls-3" d="M47.56,36.27c-.06,0-.12,0-.17,0h-.11s-12.49,0-12.49,0c-.15,.01-.37,.03-.56-.09-.09-.06-.54-.37-.53-.77,0-.39,.42-.67,.55-.75,.19-.11,.4-.1,.55-.09h.11s7.76,0,7.76,0h4.62s.11,0,.11,0c.16-.01,.37-.03,.56,.09,.09,.06,.53,.37,.53,.77,0,.39-.42,.67-.55,.75-.12,.08-.26,.09-.38,.09Zm-13.07-.86s.09,.09,.15,.13c-.02-.02,.05-.02,.09-.02,.06,0,.11,0,.16,0h12.38c.05,0,.11,0,.17,0,.05,0,.12,0,.14,0,.04-.03,.09-.07,.12-.11-.04-.04-.09-.09-.15-.13,.02,.02-.05,.02-.09,.03-.06,0-.11,0-.17,0h-6.16s-6.22,0-6.22,0c-.05,0-.11,0-.17,0-.04,0-.09,0-.12,0-.06,.04-.1,.08-.13,.11Zm.12-.11h0Zm-.16-.34h0Z"/>
    </g>
    <g>
      <path class="cls-3" d="M30.4,37.42h-.98v10.23h-10.27v-10.23h-.97c0,3.14,0,7.28,0,10.41,0,.68,.1,.78,.79,.78,3.56,0,7.13,0,10.69,0,.56,0,.76-.22,.76-.77-.02-2.62,0-6.25,0-8.87v-1.56Z"/>
      <path class="cls-3" d="M29.66,48.99h0c-2.47,0-4.93,0-7.4,0h-3.29c-.89,0-1.16-.27-1.16-1.15v-10.41c0-.21,.17-.38,.37-.38h.97c.21,0,.38,.17,.38,.38v9.85h9.52v-9.85c0-.21,.17-.38,.38-.38h.98c.21,0,.38,.17,.38,.38v3.72c0,2.24,0,4.76,0,6.71,0,.25-.03,.61-.28,.86-.25,.25-.6,.28-.84,.28Zm-5.47-.76c1.82,0,3.64,0,5.46,0h0c.23,0,.3-.05,.31-.06s.06-.08,.06-.33c-.01-1.96,0-4.48,0-6.72v-3.34s-.23,0-.23,0v9.85c0,.21-.17,.38-.38,.38h-10.27c-.21,0-.38-.17-.38-.38v-9.85h-.22v10.04c0,.28,.02,.37,.04,.39,0,0,.08,.01,.38,.01h3.29c.65,0,1.3,0,1.94,0Z"/>
    </g>
    <g>
      <path class="cls-3" d="M18.01,34.94c4.19,0,8.37,0,12.56,0,.37,0,.77,0,.75,.5-.01,.41-.36,.44-.69,.44-2.13,0-4.26,0-6.4,0s-4.15,0-6.22,0c-.35,0-.73,0-.75-.44-.02-.49,.38-.5,.75-.5Z"/>
      <path class="cls-3" d="M30.63,36.26h0c-1.6,0-3.2,0-4.8,0h-7.82c-.36,0-1.1,0-1.13-.8,0-.26,.06-.47,.21-.63,.25-.26,.64-.26,.92-.26h0c4.19,0,8.37,0,12.56,0,.26,0,.66,0,.91,.26,.15,.15,.22,.37,.22,.63-.02,.54-.37,.81-1.06,.81Zm-3.21-.75c1.07,0,2.13,0,3.2,0,.26,.02,.3-.03,.32-.04v-.13c-.06-.03-.29-.03-.38-.03-4.19,0-8.38,0-12.56,0-.1,0-.33,0-.38,.04v.13c.05,.02,.26,.02,.37,.02h7.83c.53,0,1.06,0,1.6,0Z"/>
    </g>
    <g>
      <path class="cls-3" d="M12.62,37.42v10.22H2.35v-10.22h-.99c0,3.12,0,7.24,0,10.36,0,.74,.09,.83,.79,.83,3.54,0,7.09,0,10.63,0,.71,0,.8-.09,.8-.83,0-3.12,0-7.25,0-10.37h-.97Z"/>
      <path class="cls-3" d="M7.47,48.99c-1.77,0-3.54,0-5.32,0-.92,0-1.17-.26-1.17-1.21v-10.36c0-.21,.17-.38,.38-.38h.99c.21,0,.38,.17,.38,.38v9.85H12.25v-9.85c0-.21,.17-.38,.38-.38h.97c.21,0,.38,.17,.38,.38v10.37c0,.94-.25,1.2-1.18,1.2-1.77,0-3.54,0-5.32,0Zm-5.69-.77s.13,.02,.37,.02c3.54,0,7.09,0,10.63,0,.29,0,.38-.02,.41-.03,0,0,.01-.11,.01-.42v-9.99s-.22,0-.22,0v9.85c0,.21-.17,.38-.38,.38H2.35c-.21,0-.38-.17-.38-.38v-9.85h-.24v9.99c0,.31,.02,.41,.04,.44,0,0,0,0,0,0Z"/>
    </g>
    <g>
      <path class="cls-3" d="M.82,34.97c.11-.07,.3-.03,.46-.03,4.13,0,8.26,0,12.38,0,.12,0,.25,0,.35,.01,.24,.05,.4-.06,.51,.45-.07,.37-.29,.43-.53,.48-.21,.04-.43,0-.66,0-1.96,0-3.91,0-5.87,0-2.05,0-4.11,0-6.16,0-.16,0-.35,.05-.46-.03-.16-.1-.37-.29-.37-.44,0-.15,.2-.35,.36-.45Z"/>
      <path class="cls-3" d="M13.78,36.28c-.09,0-.17,0-.25-.01-.07,0-.14,0-.21,0H1.19c-.15,.02-.36,.03-.55-.08-.13-.08-.55-.36-.55-.75,0-.4,.44-.71,.53-.77t0,0c.19-.12,.4-.1,.56-.09h.11s12.38,0,12.38,0c.19,0,.32,0,.42,.02,.43,.03,.68,.17,.81,.74,.01,.05,.01,.1,0,.15-.13,.64-.6,.73-.83,.77-.1,.02-.19,.02-.28,.02Zm-12.91-.87s.09,.08,.16,.12c-.02-.01,.05-.02,.1-.02,.06,0,.11,0,.17,0H13.32c.09,0,.18,0,.26,.01,.13,0,.24,.02,.33,0,.15-.03,.2-.04,.22-.11-.02-.08-.04-.1-.04-.11-.04,.04-.1,.03-.16,.02-.05,0-.12,0-.19,0H1.28c-.05,0-.11,0-.17,0-.04,0-.07-.01-.12,0-.05,.04-.09,.08-.12,.11Z"/>
    </g>
    <g>
      <path class="cls-2" d="M22.85,18.41c-5.1-.94-7.99-5.52-7.43-9.84,.61-4.67,4.32-7.94,8.86-7.94,4.4,0,8.2,3.3,8.84,7.52,.69,4.52-2.19,9.29-7.37,10.25-.04,1.65-.64,2.03-1.55,2.02-.88,0-1.26-.6-1.36-2.01Zm-6.55-8.88c0,1.33,.32,2.7,.96,3.83,1.29,2.29,3.24,3.67,5.84,4.09,.51,.08,.79,.28,.73,.84-.03,.25-.06,.53,.02,.76,.06,.18,.29,.42,.44,.42,.15,0,.38-.23,.45-.41,.08-.2,.05-.47,.02-.7-.07-.6,.2-.83,.78-.91,4.3-.63,7.28-4.69,6.66-9.01-.61-4.18-4.31-7.16-8.51-6.84-4.13,.31-7.37,3.79-7.38,7.94Z"/>
      <path class="cls-2" d="M24.22,20.8h-.02c-1.27,0-1.6-1.06-1.7-2.08-5.36-1.14-8-6.03-7.45-10.2C15.69,3.66,19.49,.26,24.28,.26h0c4.57,0,8.53,3.37,9.21,7.84,.66,4.34-1.92,9.44-7.38,10.61-.1,1.44-.69,2.08-1.9,2.08Zm.06-19.79c-4.41,0-7.9,3.13-8.49,7.62-.51,3.89,2.01,8.47,7.12,9.42l.29,.05,.02,.29c.1,1.53,.52,1.66,.98,1.66,.64,0,1.14-.12,1.18-1.65v-.3s.31-.06,.31-.06c5.21-.97,7.68-5.75,7.07-9.82-.62-4.11-4.26-7.21-8.47-7.21h0Zm0,18.83h0c-.37,0-.7-.39-.79-.67-.1-.29-.07-.59-.04-.86,.03-.31,.02-.41-.41-.48-2.7-.44-4.75-1.88-6.1-4.28-.66-1.16-1.01-2.59-1.01-4.01,.01-4.34,3.41-7.99,7.73-8.31,4.37-.33,8.28,2.82,8.91,7.16,.66,4.54-2.47,8.78-6.97,9.44-.47,.07-.5,.18-.46,.5,.03,.27,.07,.59-.04,.88-.11,.27-.44,.65-.8,.65Zm-.02-17.89c-.19,0-.38,0-.56,.02-3.93,.29-7.02,3.62-7.03,7.57h0c0,1.3,.32,2.59,.91,3.64,1.23,2.19,3.11,3.51,5.57,3.91,.76,.12,1.12,.54,1.05,1.24-.03,.25-.05,.46,0,.6,.01,.03,.05,.09,.09,.13,.04-.04,.08-.09,.1-.13,.04-.11,.02-.33,0-.5-.09-.78,.28-1.23,1.1-1.35,4.1-.6,6.94-4.45,6.34-8.59-.55-3.76-3.81-6.54-7.55-6.54Z"/>
    </g>
    <g>
      <path class="cls-3" d="M9.66,29.04c1.99,.89,3.08,2.37,2.94,4.03h-.81s-.06-.05-.07-.08c-.3-2.11-1.53-3.18-3.65-3.18-.39,0-.78,0-1.18,0-2.15,0-3.41,1.1-3.68,3.26h-.85c-.22-1.57,.97-3.21,2.97-4.03-.84-.84-1.3-1.82-1.12-3,.12-.82,.52-1.51,1.16-2.05,1.27-1.06,3.14-1,4.35,.14,1.39,1.31,1.37,2.92-.07,4.92Zm.17-2.55c0-1.29-1.08-2.34-2.37-2.33-1.29,0-2.34,1.07-2.33,2.37,0,1.29,1.08,2.34,2.37,2.33,1.29,0,2.34-1.08,2.33-2.37Z"/>
      <path class="cls-3" d="M12.6,33.44h-.81c-.11,0-.21-.05-.28-.13-.03-.02-.14-.12-.16-.28-.27-1.92-1.35-2.85-3.28-2.86h-1.18c-1.98,0-3.06,.96-3.31,2.93-.02,.19-.18,.33-.37,.33h-.85c-.19,0-.35-.14-.37-.32-.23-1.63,.85-3.27,2.71-4.21-.73-.89-1.03-1.88-.87-2.93,.14-.92,.57-1.68,1.29-2.28,1.42-1.18,3.5-1.12,4.85,.15,1.44,1.36,1.51,3.05,.23,5.05,1.88,.97,2.9,2.52,2.75,4.21-.02,.19-.18,.34-.37,.34Zm-.54-.75h.18c-.04-1.36-1.02-2.55-2.72-3.31-.1-.05-.18-.14-.21-.24-.03-.11,0-.23,.06-.32,1.32-1.85,1.36-3.26,.11-4.43-1.07-1.01-2.72-1.06-3.85-.12-.57,.48-.92,1.09-1.03,1.82-.15,.98,.18,1.86,1.01,2.68,.09,.09,.13,.22,.1,.34-.03,.12-.11,.23-.23,.27-1.67,.68-2.75,2.01-2.76,3.3h.17c.38-2.13,1.76-3.25,4-3.26h1.18c2.22,0,3.59,1.13,3.98,3.26Zm-4.58-3.46c-.72,0-1.39-.28-1.91-.79-.52-.51-.81-1.19-.81-1.92,0-1.5,1.2-2.73,2.7-2.75h.02c1.5,0,2.72,1.21,2.73,2.7h0c0,.72-.27,1.41-.79,1.93s-1.19,.81-1.92,.82h-.02Zm0-4.7h-.01c-1.09,0-1.97,.9-1.96,1.99,0,.52,.21,1.02,.59,1.39,.37,.37,.87,.57,1.38,.57h.01c.52,0,1.02-.21,1.39-.59s.57-.87,.57-1.4h0c0-1.08-.89-1.96-1.98-1.96Z"/>
    </g>
    <g>
      <path class="cls-3" d="M29.47,33.07h-.92c-.08-.96-.42-1.8-1.14-2.44-1.36-1.21-4.87-1.21-6.23,0-.65,.58-.92,1.13-1.17,2.44h-.8c-.29-1.47,.85-3.05,2.9-4.05-1.45-1.92-1.46-3.65-.01-4.96,1.25-1.13,3.15-1.13,4.39,0,1.45,1.31,1.45,3.04-.02,4.98,1.83,.71,2.87,2,3.01,4.03Zm-2.83-6.55c0-1.29-1.05-2.35-2.34-2.36-1.29,0-2.35,1.05-2.36,2.34,0,1.29,1.05,2.35,2.34,2.36,1.29,0,2.35-1.05,2.36-2.34Z"/>
      <path class="cls-3" d="M29.47,33.44h-.92c-.19,0-.36-.15-.37-.34-.08-.94-.41-1.66-1.02-2.19-1.23-1.09-4.5-1.09-5.73,0-.58,.52-.82,1.02-1.05,2.23-.03,.18-.19,.3-.37,.3h-.8c-.18,0-.33-.13-.37-.3-.3-1.53,.76-3.17,2.71-4.25-1.31-1.94-1.21-3.74,.29-5.1,1.39-1.26,3.5-1.27,4.89,0,1.5,1.36,1.6,3.15,.31,5.09,1.73,.81,2.67,2.21,2.8,4.17,0,.1-.03,.21-.1,.28-.07,.08-.17,.12-.27,.12Zm-.59-.75h.18c-.22-1.6-1.12-2.69-2.73-3.31-.11-.04-.19-.13-.23-.25s0-.24,.06-.33c1.35-1.78,1.38-3.29,.07-4.47-1.11-1-2.78-1-3.89,0-1.31,1.18-1.29,2.68,.06,4.45,.07,.09,.09,.2,.07,.31-.03,.11-.1,.2-.2,.25-1.75,.85-2.78,2.13-2.73,3.33h.16c.26-1.18,.56-1.75,1.23-2.35,1.51-1.34,5.22-1.34,6.73,0,.68,.6,1.08,1.37,1.23,2.35Zm-4.59-3.46h0c-1.5,0-2.72-1.23-2.71-2.74,0-.72,.29-1.41,.81-1.92,.52-.51,1.2-.79,1.92-.79h0c1.5,0,2.72,1.23,2.71,2.73h0c0,1.5-1.23,2.71-2.73,2.71Zm0-4.7c-.52,0-1.02,.2-1.39,.58-.38,.37-.58,.87-.58,1.39,0,1.09,.88,1.98,1.96,1.98h0c1.09,0,1.97-.88,1.98-1.97,0-1.09-.88-1.98-1.97-1.98h0Zm2.35,1.98h0Z"/>
    </g>
    <g>
      <path class="cls-3" d="M45.36,33.05c-.33-2.2-1.53-3.25-3.73-3.25-.35,0-.71,0-1.06,0-2.21,0-3.43,1.06-3.74,3.26h-.85c-.19-1.61,.98-3.2,2.97-4.03-.83-.82-1.28-1.78-1.13-2.95,.11-.85,.51-1.56,1.17-2.1,1.31-1.09,3.23-.98,4.43,.23,1.31,1.33,1.25,3.09-.07,4.7,.68,.55,1.42,1.04,2.02,1.67,.62,.65,.86,1.52,.88,2.48h-.9Zm-1.92-6.54c0-1.29-1.06-2.35-2.35-2.35-1.29,0-2.35,1.06-2.35,2.35,0,1.29,1.06,2.35,2.35,2.35,1.29,0,2.35-1.06,2.35-2.35Z"/>
      <path class="cls-3" d="M36.84,33.44h-.85c-.19,0-.35-.14-.37-.33-.19-1.66,.86-3.26,2.72-4.2-.72-.87-1.01-1.84-.88-2.88,.13-.94,.57-1.73,1.31-2.34,1.47-1.22,3.59-1.11,4.94,.26,1.34,1.36,1.4,3.21,.18,4.89,.11,.09,.23,.17,.34,.26,.49,.37,.99,.76,1.43,1.22,.64,.67,.96,1.56,.98,2.73,0,.1-.04,.2-.11,.27-.07,.07-.17,.11-.27,.11h-.9c-.19,0-.34-.14-.37-.32-.3-2.02-1.33-2.92-3.36-2.93h-1.06c-2.02,0-3.09,.93-3.37,2.94-.03,.19-.18,.32-.37,.32Zm-.49-.75h.17c.41-2.16,1.77-3.26,4.06-3.26h1.06c2.3,0,3.62,1.06,4.05,3.25h.19c-.07-.79-.32-1.39-.75-1.85-.39-.41-.85-.76-1.34-1.13-.22-.17-.43-.33-.65-.5-.08-.06-.13-.15-.14-.25s.02-.2,.08-.28c1.22-1.48,1.26-3.01,.09-4.19-1.07-1.09-2.76-1.18-3.92-.21-.59,.49-.94,1.12-1.04,1.87-.13,.96,.2,1.83,1.02,2.64,.09,.09,.13,.22,.1,.34s-.11,.23-.22,.27c-1.7,.7-2.75,1.98-2.76,3.31Zm4.75-3.45c-.72,0-1.41-.28-1.92-.8-.52-.52-.8-1.2-.8-1.92,0-1.5,1.22-2.73,2.72-2.73h0c.72,0,1.41,.28,1.92,.8,.52,.52,.8,1.2,.8,1.92h0c0,.72-.28,1.41-.8,1.92-.52,.52-1.2,.8-1.92,.8h0Zm0-4.7h0c-1.09,0-1.97,.89-1.97,1.98,0,.52,.21,1.02,.58,1.39,.37,.37,.87,.58,1.39,.58h0c.52,0,1.02-.21,1.39-.58,.38-.38,.58-.87,.58-1.39h0c0-.52-.21-1.02-.58-1.39-.37-.37-.87-.58-1.39-.58Z"/>
    </g>
    <g>
      <path class="cls-3" d="M34.63,9.03v-.84c.17-.01,.32-.03,.47-.03,1.68,0,3.37,0,5.05,0,.92,0,1.52,.51,1.53,1.33,.01,5.49,0,5.52,0,11.01,0,.07-.02,.14-.04,.23h-.9v-.65c0-5.22,0-4.97,0-10.18,0-.81-.05-.86-.94-.86-1.7,0-3.4,0-5.17,0Z"/>
      <path class="cls-3" d="M41.64,21.1h-.9c-.21,0-.38-.17-.38-.38V9.89c0-.12,0-.41-.03-.48-.04,0-.38,0-.54,0h-5.17c-.21,0-.38-.17-.38-.38v-.84c0-.2,.15-.36,.35-.37h.16c.12-.02,.23-.03,.34-.03h1.04c1.34,0,2.68,0,4.02,0,1.13,0,1.9,.69,1.9,1.7,0,3.95,0,5.07,0,7.43v3.57c0,.09-.02,.16-.03,.23-.04,.17-.21,.38-.38,.38Zm-.52-.75h.18v-3.43c.01-2.36,.02-3.48,0-7.43,0-.59-.43-.95-1.15-.95-1.34,0-2.67,0-4.01,0h-1.04s-.06,0-.1,0v.12h4.8c1.04,0,1.32,.15,1.32,1.23v10.46Z"/>
    </g>
    <g>
      <path class="cls-3" d="M13.94,8.16v.88c-1.22,0-2.41,0-3.6,0-.63,0-1.25,0-1.88,0-.44,0-.65,.18-.64,.6,0,.18,0,.36,0,.55,0,5.11,0,4.75,0,9.86,0,.22,0,.43,0,.68h-.94c0-.18,0-.37,0-.56,0-5.27,0-5.08,0-10.35,0-1.19,.5-1.65,1.78-1.65,1.74,0,3.48,0,5.27,0Z"/>
      <path class="cls-3" d="M7.83,21.09h-.94c-.21,0-.38-.17-.38-.38V9.8c0-1.4,.67-2.02,2.16-2.02h5.27c.21,0,.38,.17,.38,.37v.88c0,.21-.17,.38-.38,.38h-4.18c-.43,0-.87,0-1.3,0-.18,.02-.23,.04-.23,.04-.01,.01-.03,.06-.03,.17,0,.13,0,.26,0,.39v1.1s0,9.6,0,9.6c0,.21-.17,.38-.38,.38Zm-.57-.75h.19V10c0-.12,0-.24,0-.36-.01-.3,.07-.54,.24-.72,.18-.18,.47-.26,.78-.27,.43,0,.86,0,1.29,0h3.8v-.13h-4.9c-1.08,0-1.41,.3-1.41,1.27v10.53Z"/>
    </g>
    <path class="cls-1" d="M14.08,16.8c-.66,0-1.32,0-1.98,0-.26,0-.52,.08-.48,.48,.02,.18,.29,.44,.45,.44,1.33,.04,2.66,.04,4,0,.15,0,.3-.3,.46-.46-.16-.15-.31-.43-.47-.44-.66-.05-1.32-.02-1.98-.02Z"/>
    <path class="cls-1" d="M34.59,17.74c.64,0,1.28,.03,1.91-.02,.16-.01,.42-.25,.44-.43,.05-.39-.19-.49-.45-.49-1.28,0-2.55-.01-3.83,.02-.16,0-.42,.25-.44,.43-.05,.39,.19,.49,.45,.49,.64,0,1.28,0,1.91,0Z"/>
    <path class="cls-1" d="M14.07,21.5c.66,0,1.32,.03,1.98-.02,.17-.01,.44-.25,.46-.43,.05-.39-.19-.5-.46-.5-1.32,0-2.64,0-3.95,0-.27,0-.52,.11-.46,.5,.03,.18,.3,.41,.46,.43,.66,.05,1.32,.02,1.98,.02Z"/>
    <path class="cls-1" d="M34.59,20.56c-.64,0-1.28-.03-1.91,.02-.16,.01-.42,.25-.45,.43-.05,.39,.19,.49,.45,.49,1.28,0,2.55,.01,3.83-.02,.16,0,.42-.25,.45-.43,.05-.39-.19-.5-.45-.49-.64,0-1.28,0-1.91,0Z"/>
    <g>
      <circle class="cls-3" cx="21.67" cy="9.58" r=".62"/>
      <path class="cls-3" d="M21.67,10.58c-.55,0-1-.45-1-1s.45-1,1-1,1,.45,1,1-.45,1-1,1Zm0-1.25c-.14,0-.25,.11-.25,.25,0,.28,.5,.28,.5,0,0-.14-.11-.25-.25-.25Z"/>
    </g>
    <g>
      <circle class="cls-3" cx="24.39" cy="9.58" r=".62"/>
      <path class="cls-3" d="M24.39,10.58c-.55,0-1-.45-1-1s.45-1,1-1,1,.45,1,1-.45,1-1,1Zm0-1.25c-.14,0-.25,.11-.25,.25,0,.28,.5,.28,.5,0,0-.14-.11-.25-.25-.25Z"/>
    </g>
    <g>
      <circle class="cls-3" cx="27.09" cy="9.58" r=".62"/>
      <path class="cls-3" d="M27.09,10.58c-.55,0-1-.45-1-1s.45-1,1-1,1,.45,1,1-.45,1-1,1Zm0-1.25c-.14,0-.25,.11-.25,.25,0,.28,.5,.28,.5,0,0-.14-.11-.25-.25-.25Z"/>
    </g>
  </g>
</svg>