<?xml version="1.0" encoding="UTF-8" standalone="no"?>
<svg
   xmlns:dc="http://purl.org/dc/elements/1.1/"
   xmlns:cc="http://creativecommons.org/ns#"
   xmlns:rdf="http://www.w3.org/1999/02/22-rdf-syntax-ns#"
   xmlns:svg="http://www.w3.org/2000/svg"
   xmlns="http://www.w3.org/2000/svg"
   xmlns:sodipodi="http://sodipodi.sourceforge.net/DTD/sodipodi-0.dtd"
   xmlns:inkscape="http://www.inkscape.org/namespaces/inkscape"
   width="125mm"
   height="125mm"
   viewBox="0 0 125 125"
   version="1.1"
   id="svg299"
   inkscape:version="1.0.2-2 (e86c870879, 2021-01-15)"
   sodipodi:docname="perniagaan-investment.svg">
  <defs
     id="defs293" />
  <sodipodi:namedview
     id="base"
     pagecolor="#ffffff"
     bordercolor="#666666"
     borderopacity="1.0"
     inkscape:pageopacity="0.0"
     inkscape:pageshadow="2"
     inkscape:zoom="0.35"
     inkscape:cx="194.36285"
     inkscape:cy="356.71427"
     inkscape:document-units="mm"
     inkscape:current-layer="layer1"
     inkscape:document-rotation="0"
     showgrid="false"
     fit-margin-top="0"
     fit-margin-left="0"
     fit-margin-right="0"
     fit-margin-bottom="0"
     inkscape:window-width="1920"
     inkscape:window-height="986"
     inkscape:window-x="-11"
     inkscape:window-y="-11"
     inkscape:window-maximized="1" />
  <metadata
     id="metadata296">
    <rdf:RDF>
      <cc:Work
         rdf:about="">
        <dc:format>image/svg+xml</dc:format>
        <dc:type
           rdf:resource="http://purl.org/dc/dcmitype/StillImage" />
        <dc:title></dc:title>
      </cc:Work>
    </rdf:RDF>
  </metadata>
  <g
     inkscape:label="Layer 1"
     inkscape:groupmode="layer"
     id="layer1"
     transform="translate(-54.408162,-53.786017)">
    <g
       id="g347"
       transform="matrix(0.26458333,0,0,0.26458333,44.41233,49.346435)">
	<g
   id="g335">
		<rect
   x="240.8"
   y="199.12"
   class="st17"
   width="16.02"
   height="60.849998"
   id="rect303" />

		<g
   id="g321">
			<g
   id="g317">
				<path
   class="st3"
   d="m 451.22,22 -113.9,113.9 c -0.06,0.06 -0.1,0.11 -0.17,0.16 l -17.84,17.85 c -0.02,0.01 -0.04,0.02 -0.04,0.02 l -31.44,31.45 c -0.01,0.01 -0.04,0.03 -0.05,0.05 l -24.87,24.87 c -0.01,0.01 -0.01,0.01 -0.01,0.01 l -14.09,14.09 c -13.31,-13.31 -21.36,-29.55 -24.32,-46.8 -3.36,-19.64 -0.14,-40.61 9.44,-60.12 20.82,16.46 32.3,38.52 33.9,60.12 V 75.84 C 280.26,65.87 295.25,57.39 312.72,51.18 360.77,34.07 395.35,40.8 451.22,22 Z"
   id="path305" />

				<path
   class="st3"
   d="M 422.04,160.51 C 390.1,250.2 298.81,274.41 248.81,224.42 L 451.22,22 c -18.8,55.87 -12.07,90.44 -29.18,138.51 z"
   id="path307" />

				<path
   class="st3"
   d="m 344.12,72.73 c 0,0 10.92,45.46 -6.96,63.33 l -17.88,17.88 c 0,0 25.43,-51.18 24.84,-81.21 z"
   id="path309" />

				<path
   class="st2"
   d="m 297.47,97.28 c 0,0 15.2,63.28 -9.68,88.16 l -24.88,24.88 c 0,0 35.39,-71.24 34.56,-113.04 z"
   id="path311" />

				<path
   class="st2"
   d="m 400.49,129.11 c 0,0 -45.46,-10.92 -63.33,6.95 l -17.88,17.88 c 0,0 51.18,-25.43 81.21,-24.83 z"
   id="path313" />

				<path
   class="st2"
   d="m 375.95,175.75 c 0,0 -63.28,-15.2 -88.16,9.68 l -24.88,24.88 c 0,0.01 71.23,-35.39 113.04,-34.56 z"
   id="path315" />

			</g>

			<path
   class="st3"
   d="m 267.84,75.84 v 101.77 c -1.6,-21.6 -13.08,-43.66 -33.9,-60.12 7.47,-15.22 18.81,-29.53 33.9,-41.65 z"
   id="path319" />

		</g>

		<g
   id="g333">
			<path
   class="st2"
   d="M 200.8,99.42 C 164.71,86.56 138.74,91.63 96.78,77.5 v 0 c 14.12,41.97 9.06,67.93 21.92,104.03 23.99,67.37 92.56,85.56 130.12,48 v 0 C 286.4,191.95 268.12,123.32 200.8,99.42 Z"
   id="path323" />

			<path
   class="st3"
   d="m 177.22,115.61 c 0,0 -8.2,34.14 5.22,47.57 l 13.43,13.43 c 0,0 -19.1,-38.44 -18.65,-61 z"
   id="path325" />

			<path
   class="st3"
   d="m 212.26,134.05 c 0,0 -11.42,47.53 7.27,66.22 l 18.69,18.69 c 0,-0.01 -26.59,-53.51 -25.96,-84.91 z"
   id="path327" />

			<path
   class="st3"
   d="m 134.87,157.96 c 0,0 34.14,-8.2 47.57,5.22 l 13.43,13.43 c 0,0 -38.44,-19.1 -61,-18.65 z"
   id="path329" />

			<path
   class="st3"
   d="m 153.31,192.99 c 0,0 47.53,-11.42 66.22,7.27 l 18.69,18.69 c 0,0 -53.51,-26.58 -84.91,-25.96 z"
   id="path331" />

		</g>

	</g>

	<g
   id="g345">
		<path
   class="st9"
   d="M 250.89,246.56 V 484 c -6.11,0 -11.05,-4.94 -11.04,-11.03 0,-0.19 0.01,-0.38 0.03,-0.56 -0.18,-0.03 -0.34,-0.05 -0.51,-0.06 -0.03,0.19 -0.05,0.37 -0.09,0.56 -1.26,5.97 -7.13,9.77 -13.08,8.5 -5.97,-1.27 -9.77,-7.13 -8.51,-13.09 0.04,-0.19 0.1,-0.35 0.14,-0.54 -0.15,-0.05 -0.32,-0.1 -0.47,-0.15 -0.08,0.16 -0.13,0.35 -0.22,0.52 -2.48,5.57 -9,8.08 -14.56,5.6 -5.57,-2.48 -8.08,-9.01 -5.6,-14.57 0.09,-0.18 0.18,-0.34 0.26,-0.52 -0.14,-0.09 -0.29,-0.16 -0.43,-0.25 -0.11,0.16 -0.2,0.33 -0.32,0.49 -3.59,4.93 -10.49,6.02 -15.42,2.44 -4.93,-3.59 -6.03,-10.49 -2.44,-15.42 0.11,-0.15 0.24,-0.3 0.37,-0.45 -0.13,-0.1 -0.25,-0.22 -0.38,-0.33 -0.14,0.14 -0.26,0.28 -0.4,0.4 -4.54,4.08 -11.51,3.72 -15.58,-0.81 -4.08,-4.54 -3.71,-11.51 0.81,-15.58 0.15,-0.14 0.3,-0.25 0.46,-0.37 -0.1,-0.14 -0.19,-0.28 -0.29,-0.42 -0.17,0.11 -0.33,0.23 -0.49,0.33 -5.28,3.03 -12.02,1.23 -15.08,-4.04 -3.05,-5.28 -1.24,-12.03 4.04,-15.08 0.16,-0.1 0.34,-0.18 0.5,-0.25 -0.06,-0.16 -0.14,-0.32 -0.2,-0.47 -0.18,0.08 -0.35,0.15 -0.53,0.2 -5.8,1.88 -12.02,-1.29 -13.91,-7.08 -1.88,-5.8 1.29,-12.02 7.09,-13.9 0.18,-0.06 0.37,-0.1 0.54,-0.15 -0.04,-0.17 -0.08,-0.33 -0.11,-0.49 -0.17,0.03 -0.35,0.06 -0.54,0.09 -6.07,0.63 -11.49,-3.76 -12.13,-9.82 -0.63,-6.07 3.77,-11.49 9.82,-12.13 0.2,-0.01 0.38,-0.01 0.57,-0.02 v -0.51 c -0.19,-0.01 -0.38,-0.01 -0.57,-0.03 -6.05,-0.64 -10.45,-6.07 -9.82,-12.13 0.64,-6.07 6.07,-10.46 12.13,-9.82 0.19,0.01 0.37,0.05 0.54,0.09 0.04,-0.16 0.08,-0.33 0.11,-0.49 -0.18,-0.05 -0.37,-0.09 -0.54,-0.15 -5.79,-1.88 -8.96,-8.1 -7.08,-13.9 1.88,-5.8 8.1,-8.97 13.9,-7.09 0.18,0.06 0.35,0.14 0.53,0.2 0.06,-0.15 0.13,-0.3 0.2,-0.46 -0.16,-0.09 -0.34,-0.16 -0.5,-0.25 -5.28,-3.05 -7.09,-9.79 -4.04,-15.08 3.06,-5.28 9.81,-7.09 15.08,-4.04 0.18,0.1 0.33,0.21 0.49,0.32 0.1,-0.13 0.19,-0.27 0.29,-0.4 -0.15,-0.11 -0.3,-0.23 -0.46,-0.37 -4.52,-4.07 -4.89,-11.04 -0.81,-15.58 4.07,-4.52 11.06,-4.89 15.58,-0.81 0.14,0.13 0.26,0.26 0.4,0.39 0.13,-0.1 0.25,-0.22 0.38,-0.33 -0.13,-0.14 -0.25,-0.29 -0.37,-0.44 -3.58,-4.93 -2.49,-11.83 2.44,-15.42 4.93,-3.58 11.83,-2.49 15.42,2.44 0.11,0.16 0.21,0.33 0.32,0.49 0.14,-0.09 0.29,-0.16 0.43,-0.25 -0.09,-0.18 -0.17,-0.34 -0.25,-0.52 -2.49,-5.57 0.01,-12.1 5.59,-14.57 5.57,-2.48 12.09,0.03 14.57,5.6 0.08,0.18 0.14,0.35 0.2,0.53 0.16,-0.05 0.32,-0.11 0.48,-0.16 -0.05,-0.18 -0.11,-0.36 -0.15,-0.54 -1.26,-5.96 2.54,-11.82 8.51,-13.09 5.95,-1.26 11.82,2.54 13.08,8.51 0.04,0.19 0.06,0.38 0.09,0.56 0.18,-0.01 0.34,-0.04 0.51,-0.06 -0.01,-0.18 -0.03,-0.37 -0.03,-0.56 0.01,-6.13 4.95,-11.07 11.05,-11.07 z"
   id="path337" />

		<path
   class="st9"
   d="m 368.95,377.69 c -0.63,6.07 -6.07,10.46 -12.12,9.82 -0.19,-0.01 -0.36,-0.05 -0.56,-0.09 -0.02,0.16 -0.08,0.33 -0.1,0.49 0.18,0.05 0.35,0.09 0.53,0.15 5.8,1.88 8.97,8.1 7.09,13.9 -1.88,5.8 -8.11,8.97 -13.9,7.09 -0.19,-0.06 -0.35,-0.14 -0.53,-0.2 -0.08,0.15 -0.14,0.3 -0.22,0.45 0.18,0.09 0.34,0.16 0.51,0.25 5.28,3.06 7.09,9.79 4.04,15.08 -3.05,5.28 -9.79,7.09 -15.08,4.04 -0.17,-0.1 -0.33,-0.21 -0.49,-0.33 -0.09,0.14 -0.19,0.28 -0.29,0.42 0.15,0.11 0.31,0.23 0.45,0.37 4.52,4.07 4.89,11.05 0.82,15.58 -4.08,4.52 -11.06,4.89 -15.58,0.81 -0.15,-0.13 -0.28,-0.27 -0.4,-0.39 -0.12,0.1 -0.27,0.21 -0.39,0.33 0.12,0.14 0.25,0.29 0.37,0.44 3.59,4.93 2.49,11.83 -2.44,15.42 -4.93,3.58 -11.83,2.49 -15.41,-2.44 -0.11,-0.16 -0.22,-0.33 -0.32,-0.49 -0.15,0.09 -0.29,0.16 -0.44,0.25 0.09,0.18 0.19,0.34 0.27,0.52 2.48,5.56 -0.03,12.09 -5.59,14.57 -5.57,2.48 -12.09,-0.03 -14.57,-5.6 -0.08,-0.18 -0.14,-0.35 -0.2,-0.52 -0.16,0.05 -0.31,0.1 -0.48,0.15 0.05,0.19 0.1,0.37 0.14,0.54 1.26,5.97 -2.54,11.82 -8.49,13.09 -5.96,1.27 -11.83,-2.54 -13.09,-8.5 -0.04,-0.19 -0.06,-0.38 -0.09,-0.56 -0.17,0.01 -0.33,0.04 -0.51,0.06 0.01,0.18 0.04,0.37 0.04,0.56 0,6.09 -4.94,11.03 -11.03,11.03 V 246.56 c 6.09,0 11.03,4.94 11.03,11.03 0,0.19 -0.01,0.38 -0.02,0.56 0.17,0.03 0.33,0.05 0.49,0.06 0.04,-0.18 0.05,-0.37 0.09,-0.56 1.28,-5.97 7.13,-9.77 13.09,-8.51 5.97,1.28 9.77,7.13 8.49,13.09 -0.04,0.19 -0.09,0.37 -0.14,0.54 0.16,0.05 0.31,0.11 0.48,0.16 0.06,-0.18 0.12,-0.35 0.2,-0.53 2.48,-5.56 9,-8.08 14.57,-5.6 5.56,2.49 8.06,9.01 5.59,14.57 -0.08,0.18 -0.18,0.35 -0.27,0.52 0.15,0.09 0.29,0.16 0.44,0.25 0.1,-0.16 0.2,-0.33 0.32,-0.48 3.58,-4.93 10.48,-6.03 15.42,-2.45 4.93,3.59 6.02,10.49 2.42,15.42 -0.11,0.15 -0.24,0.3 -0.37,0.46 0.12,0.11 0.27,0.21 0.39,0.33 0.13,-0.14 0.25,-0.28 0.4,-0.4 4.52,-4.08 11.5,-3.72 15.58,0.81 4.07,4.54 3.72,11.51 -0.82,15.58 -0.14,0.14 -0.3,0.25 -0.44,0.37 0.09,0.14 0.19,0.28 0.29,0.42 0.15,-0.11 0.31,-0.23 0.48,-0.32 5.28,-3.05 12.03,-1.24 15.08,4.03 3.04,5.28 1.24,12.03 -4.04,15.08 -0.17,0.09 -0.33,0.16 -0.49,0.25 0.06,0.15 0.14,0.3 0.2,0.47 0.18,-0.08 0.34,-0.15 0.53,-0.2 5.79,-1.88 12.02,1.29 13.9,7.08 1.88,5.8 -1.29,12.03 -7.09,13.9 -0.18,0.06 -0.35,0.1 -0.53,0.15 0.03,0.16 0.08,0.33 0.11,0.49 0.18,-0.03 0.36,-0.06 0.53,-0.09 6.07,-0.63 11.5,3.77 12.13,9.82 0.63,6.07 -3.75,11.5 -9.82,12.13 -0.19,0.01 -0.38,0.01 -0.57,0.03 0,0.09 0.01,0.16 0.01,0.25 0,0.09 -0.01,0.16 -0.01,0.25 0.19,0.01 0.38,0.01 0.57,0.02 6.07,0.66 10.47,6.1 9.84,12.15 z"
   id="path339" />

		<path
   class="st1"
   d="m 345.77,365.28 c 0,52.4 -42.49,94.87 -94.88,94.87 -52.41,0 -94.89,-42.47 -94.89,-94.87 0,-52.42 42.49,-94.89 94.89,-94.89 52.39,0 94.88,42.47 94.88,94.89 z"
   id="path341" />

		<path
   class="st2"
   d="m 283.73,365.04 c -4.74,-4.62 -12.74,-8.07 -24.02,-10.31 l -11.13,-2.26 c -5.31,-1.08 -8.96,-2.38 -10.98,-3.89 -2.01,-1.53 -3.02,-3.64 -3.02,-6.36 0,-3.62 1.5,-6.29 4.49,-8.02 2.97,-1.71 7.6,-2.58 13.84,-2.58 4.72,0 9.71,0.63 15.01,1.9 5.29,1.27 10.72,3.14 16.3,5.64 v -21.45 c -6.3,-1.69 -12.4,-2.95 -18.28,-3.79 -1.78,-0.24 -3.51,-0.39 -5.25,-0.56 v -11.83 h -19.61 v 11.57 c -8.53,0.92 -15.35,3.5 -20.42,7.72 -6.53,5.44 -9.77,13.19 -9.77,23.28 0,8.07 2.34,14.47 7.03,19.22 4.68,4.75 12.09,8.21 22.24,10.39 l 10.11,2.24 c 6.17,1.35 10.26,2.91 12.34,4.61 2.04,1.72 3.08,4.16 3.08,7.32 0,3.53 -1.53,6.27 -4.55,8.15 -3.02,1.91 -7.41,2.86 -13.09,2.86 -5.62,0 -11.45,-0.86 -17.5,-2.62 -6.04,-1.73 -12.29,-4.32 -18.78,-7.77 v 22.07 c 6.49,2.39 12.96,4.21 19.43,5.43 3.3,0.63 6.59,1.09 9.89,1.38 v 11.61 h 19.61 v -11.75 c 8.59,-1.05 15.37,-3.58 20.23,-7.58 6.64,-5.46 9.95,-13.77 9.95,-24.94 -0.01,-8.49 -2.39,-15.07 -7.15,-19.68 z"
   id="path343" />

	</g>

</g>
  </g>
  <style
     type="text/css"
     id="style301">
	.st0{fill:#00A100;}
	.st1{fill:#00E100;}
	.st2{fill:#00FF02;}
	.st3{fill:#00D57C;}
	.st4{fill:#FFFFFF;}
	.st5{fill:#00FF00;}
	.st6{fill:#DAEDBD;}
	.st7{fill:#6FFF77;}
	.st8{fill:#ABFF83;}
	.st9{fill:#00C100;}
	.st10{fill:#ED1C24;}
	.st11{fill-rule:evenodd;clip-rule:evenodd;fill:#00DA00;}
	.st12{fill:#00DA00;}
	.st13{fill-rule:evenodd;clip-rule:evenodd;fill:#00D57C;}
	.st14{fill:#00ECAA;}
	.st15{fill:none;}
	.st16{clip-path:url(#SVGID_00000111890235749888071570000011595197024292701365_);fill:#00DA00;}
	.st17{fill:#858E37;}
	.st18{fill:#00AD11;}
	.st19{fill-rule:evenodd;clip-rule:evenodd;fill:#00AD11;}
	.st20{fill-rule:evenodd;clip-rule:evenodd;fill:#8BE8A1;}
	.st21{fill:#43434B;}
</style>
</svg>
