<?xml version="1.0" encoding="UTF-8" standalone="no"?>
<!-- Created with Inkscape (http://www.inkscape.org/) -->

<svg
   width="160mm"
   height="160mm"
   viewBox="0 0 160 160"
   version="1.1"
   id="svg5"
   xml:space="preserve"
   inkscape:version="1.2 (dc2aedaf03, 2022-05-15)"
   sodipodi:docname="rakyat-pendidikan.svg"
   xmlns:inkscape="http://www.inkscape.org/namespaces/inkscape"
   xmlns:sodipodi="http://sodipodi.sourceforge.net/DTD/sodipodi-0.dtd"
   xmlns="http://www.w3.org/2000/svg"
   xmlns:svg="http://www.w3.org/2000/svg"><sodipodi:namedview
     id="namedview7"
     pagecolor="#ffffff"
     bordercolor="#000000"
     borderopacity="0.25"
     inkscape:showpageshadow="2"
     inkscape:pageopacity="0.0"
     inkscape:pagecheckerboard="0"
     inkscape:deskcolor="#d1d1d1"
     inkscape:document-units="mm"
     showgrid="false"
     inkscape:zoom="0.70199214"
     inkscape:cx="377.4971"
     inkscape:cy="292.02606"
     inkscape:window-width="1920"
     inkscape:window-height="986"
     inkscape:window-x="-11"
     inkscape:window-y="-11"
     inkscape:window-maximized="1"
     inkscape:current-layer="layer1" /><defs
     id="defs2" /><g
     inkscape:label="Layer 1"
     inkscape:groupmode="layer"
     id="layer1"
     transform="translate(-5.1297041,-71.363242)"><g
       id="g23"
       transform="matrix(0.26458333,0,0,0.26458333,-6.6688052,91.443378)"><path
         class="st0"
         d="M 521.02,336.04 C 405.03,301.8 289.14,301.78 172.8,336.09 c -0.09,-2 -0.23,-3.6 -0.23,-5.19 -0.01,-41.99 0.05,-83.98 -0.1,-125.97 -0.01,-4.14 1.15,-5.97 5.27,-7.23 64.12,-19.64 129.59,-28.87 196.66,-25.49 48.81,2.46 96.43,11.66 143.13,25.91 2.41,0.74 3.98,1.54 3.98,4.64 -0.11,43.66 -0.07,87.32 -0.09,130.97 -0.01,0.64 -0.22,1.28 -0.4,2.31 z"
         id="path11" /><path
         class="st1"
         d="m 89.44,187.07 c 0,2.58 0,4.36 0,6.13 0,26.66 0.03,53.32 -0.04,79.99 -0.01,3.15 0.45,5.35 3.45,7.47 6.01,4.24 5.82,13.17 -0.25,17.57 -3.12,2.26 -2.84,3.85 -1.88,7.31 2.61,9.44 4.21,19.16 6.13,28.79 3.57,17.96 7.07,35.93 10.63,53.89 1.27,6.41 -0.46,8.62 -7.06,8.66 -9.83,0.05 -19.66,0.07 -29.49,0 -6.32,-0.04 -8.08,-2.16 -6.85,-8.43 5.25,-26.79 10.57,-53.57 15.9,-80.34 0.25,-1.28 1.25,-2.5 1.2,-3.72 -0.08,-1.79 -0.2,-4.28 -1.33,-5.22 -7.23,-6 -7.23,-13.74 0.15,-19.71 1.06,-0.86 1.97,-2.62 1.97,-3.97 0.11,-29.33 0.05,-58.66 0.14,-87.99 0.01,-2.62 -0.92,-3.77 -3.31,-4.67 -9.3,-3.51 -18.51,-7.25 -28.7,-11.28 18.02,-7.07 35.04,-13.76 52.07,-20.44 79.93,-31.32 159.87,-62.62 239.76,-94.02 3.47,-1.36 6.39,-1.48 9.92,-0.09 95.39,37.47 190.82,74.83 286.25,112.21 1.54,0.6 3.05,1.3 5.71,2.44 -37.58,14.74 -74.25,29.11 -111.75,43.82 0,-6.95 -0.16,-13.19 0.07,-19.41 0.11,-3.11 -0.69,-4.68 -3.9,-5.69 -65,-20.58 -131.42,-31.39 -199.71,-29.09 -55.61,1.88 -109.74,12.26 -162.7,29.13 -2.84,0.9 -4.02,2.08 -3.9,5.19 0.25,6.31 0.08,12.64 0.08,19.84 -24.18,-9.46 -47.8,-18.7 -72.56,-28.37 z"
         id="path13" /></g></g><style
     type="text/css"
     id="style9">
	.st0{fill:#00D2D7;}
	.st1{fill:#0FDFEB;}
	.st2{fill:#00DAC6;}
	.st3{fill:#00D3D4;}
	.st4{fill:#00DDCB;}
	.st5{fill:#00FFFF;}
	.st6{fill:#00D7EF;}
	.st7{fill:#00F1F7;}
	.st8{fill:#00ECD8;}
	.st9{fill:#00FFE4;}
	.st10{fill:none;}
	.st11{fill:#FFFFFF;}
	.st12{fill:#00E2D5;}
	.st13{fill:#ED1C24;}
	.st14{fill:#231F20;}
	.st15{fill-rule:evenodd;clip-rule:evenodd;fill:#0FDFEB;}
	.st16{fill-rule:evenodd;clip-rule:evenodd;fill:#00FFE4;}
	.st17{fill:#B3E8EF;}
</style></svg>
