<?xml version="1.0" encoding="UTF-8"?>
<svg id="Layer_1" data-name="Layer 1" xmlns="http://www.w3.org/2000/svg" viewBox="0 0 46.87 48.41">
  <defs>
    <style>
      .cls-1 {
        fill: #eb1d36;
      }

      .cls-2 {
        fill: #ffd6d6;
      }

      .cls-3 {
        fill: #7a0003;
      }
    </style>
  </defs>
  <g>
    <path class="cls-2" d="M35.15,31.77l-6.66,7.23s-.53,.69-.53,2.34-.03,6.87-.03,6.87l-2.63,.03,.03-6.97,.66-2.97,5.94-5.97s1.44-2.13,3.22-.56Z"/>
    <path class="cls-2" d="M3.01,27.62l-.07,7.1s-.37,1.55,1.77,2.59,8.74,5.7,8.74,5.7c0,0,.72,.74,.72,1.77s-.07,3.39-.07,3.39l-1.8,.06-.2-3.39s-1.03-1.48-2.88-2.51c-1.85-1.03-7.91-5.62-7.91-5.62l-.22-5.47s-.52-3.47,1.92-3.62Z"/>
  </g>
  <g>
    <g>
      <g>
        <path class="cls-1" d="M35.2,48.04h-1c.07-1.07,.06-2.15,.23-3.19,.14-.84,.77-1.42,1.48-1.89,2.84-1.88,5.66-3.79,8.52-5.65,.81-.53,1.17-1.15,1.14-2.13-.06-1.9-.02-3.8-.02-5.7,0-.98-.55-1.61-1.39-1.63-.82-.02-1.42,.64-1.43,1.6-.01,1.55-.02,3.1,0,4.64,0,.7-.27,1.19-.87,1.54-2.15,1.25-4.28,2.53-6.43,3.78-1.06,.62-2.16,.44-2.85-.44-.65-.83-.56-1.97,.25-2.84,.62-.66,1.27-1.28,1.9-1.92,.72-.74,.78-1.66,.15-2.29-.61-.61-1.58-.57-2.31,.15-1.78,1.77-3.56,3.54-5.32,5.32-1,1.01-1.47,2.25-1.47,3.66,0,2.1,0,4.19,0,6.29,0,.21,0,.43,0,.68h-.94c0-.77,0-1.51,0-2.25,0-1.55,0-3.1,0-4.64,0-1.73,.58-3.23,1.79-4.45,1.76-1.78,3.53-3.56,5.32-5.32,1.06-1.04,2.63-1.07,3.59-.1,1,1,.95,2.51-.13,3.62-.59,.6-1.19,1.19-1.78,1.79-.6,.61-.7,1.21-.31,1.72,.4,.53,.99,.59,1.73,.15,2.08-1.22,4.15-2.45,6.23-3.66,.37-.21,.52-.47,.51-.89-.02-1.57-.02-3.14,0-4.7,.01-1.06,.71-1.99,1.64-2.28,.91-.29,1.99,0,2.52,.8,.29,.45,.5,1.04,.51,1.57,.06,2.06,.01,4.11,.03,6.17,0,1.01-.39,1.76-1.23,2.32-2.87,1.9-5.73,3.84-8.61,5.71-1.02,.67-1.54,1.51-1.45,2.73,.04,.56,0,1.13,0,1.72Z"/>
        <path class="cls-1" d="M35.2,48.41h-1c-.1,0-.2-.04-.27-.12-.07-.08-.11-.18-.1-.28,.02-.32,.03-.65,.05-.97,.03-.74,.06-1.51,.19-2.26,.18-1.06,1.02-1.73,1.64-2.14,1.05-.7,2.1-1.4,3.15-2.1,1.79-1.19,3.57-2.39,5.37-3.55,.72-.47,.99-.97,.96-1.8-.04-1.32-.04-2.65-.03-3.94,0-.59,0-1.18,0-1.77,0-.77-.38-1.24-1.02-1.25-.27-.02-.5,.08-.68,.26-.23,.22-.36,.57-.36,.97-.01,1.55-.02,3.09,0,4.64,0,.84-.34,1.45-1.06,1.87-1.08,.63-2.16,1.27-3.24,1.91-1.06,.63-2.12,1.25-3.18,1.87-1.21,.71-2.52,.5-3.33-.53-.77-.99-.67-2.32,.27-3.33,.39-.41,.79-.81,1.19-1.21,.24-.24,.48-.47,.72-.72,.58-.59,.63-1.28,.15-1.77-.46-.47-1.21-.41-1.78,.15-1.78,1.76-3.55,3.54-5.31,5.32-.9,.91-1.36,2.06-1.36,3.4v6.96c0,.21-.17,.38-.38,.38h-.94c-.21,0-.38-.17-.38-.38v-3.68c0-1.07,0-2.14,0-3.21,0-1.85,.63-3.44,1.9-4.72,1.76-1.78,3.53-3.56,5.32-5.32,1.2-1.17,3-1.22,4.12-.1,1.15,1.15,1.09,2.89-.13,4.14-.31,.32-.63,.64-.95,.95-.28,.28-.56,.56-.84,.84-.69,.7-.38,1.1-.28,1.23,.19,.25,.51,.49,1.24,.06l2.32-1.36c1.3-.77,2.61-1.54,3.91-2.3,.25-.15,.33-.28,.32-.56-.02-1.57-.02-3.14,0-4.71,.02-1.2,.8-2.29,1.9-2.64,1.13-.35,2.34,.04,2.94,.95,.34,.52,.56,1.18,.58,1.77,.04,1.27,.03,2.54,.03,3.81,0,.79,0,1.58,0,2.37,0,1.14-.45,2-1.4,2.63-1.08,.71-2.15,1.43-3.23,2.15-1.79,1.2-3.58,2.39-5.39,3.57-.96,.62-1.36,1.36-1.28,2.39,.03,.4,.02,.79,.01,1.2,0,.18,0,.36,0,.55,0,.21-.17,.38-.38,.38Zm-.6-.75h.23c0-.06,0-.13,0-.19,0-.39,.01-.76-.01-1.13-.09-1.3,.44-2.31,1.62-3.08,1.8-1.17,3.59-2.37,5.38-3.56,1.07-.72,2.15-1.44,3.23-2.15,.74-.49,1.07-1.12,1.07-2,0-.79,0-1.59,0-2.38,0-1.26,0-2.52-.03-3.78-.01-.44-.19-.97-.45-1.38-.41-.63-1.29-.9-2.09-.65-.8,.25-1.37,1.04-1.38,1.93-.02,1.56-.02,3.13,0,4.69,0,.56-.21,.94-.7,1.22-1.31,.76-2.61,1.53-3.91,2.29l-2.32,1.36c-1.22,.72-1.91,.15-2.22-.25-.51-.67-.39-1.48,.34-2.21,.28-.28,.56-.56,.84-.84,.31-.31,.63-.63,.94-.95,.94-.96,1-2.23,.14-3.09-.82-.82-2.16-.78-3.06,.11-1.79,1.76-3.55,3.53-5.32,5.32-1.12,1.14-1.69,2.54-1.68,4.19,0,1.07,0,2.14,0,3.22v3.3s.19,0,.19,0v-6.59c0-1.55,.54-2.87,1.58-3.93,1.76-1.79,3.54-3.56,5.32-5.33,.86-.85,2.08-.91,2.84-.15,.77,.78,.71,1.94-.15,2.82-.24,.24-.48,.48-.72,.72-.4,.39-.79,.78-1.17,1.19-.67,.72-.77,1.67-.23,2.35,.57,.73,1.48,.86,2.36,.34,1.06-.62,2.12-1.25,3.18-1.87,1.08-.64,2.16-1.28,3.25-1.91,.49-.28,.69-.65,.68-1.21-.02-1.55-.01-3.1,0-4.65,0-.61,.21-1.14,.59-1.5,.33-.32,.77-.48,1.22-.47,1.05,.02,1.75,.83,1.76,2,0,.59,0,1.19,0,1.78,0,1.28-.02,2.61,.03,3.91,.04,1.09-.37,1.84-1.31,2.45-1.8,1.17-3.58,2.36-5.37,3.55-1.05,.7-2.1,1.4-3.15,2.1-.81,.54-1.22,1.04-1.32,1.64-.12,.71-.15,1.42-.18,2.17,0,.19-.02,.39-.03,.58Z"/>
      </g>
      <g>
        <path class="cls-1" d="M22,48.04h-.91c0-.21,0-.42,0-.63,0-2.06-.01-4.12,0-6.17,.01-1.57-.52-2.9-1.64-4.01-1.68-1.67-3.35-3.35-5.03-5.03-.17-.16-.34-.33-.54-.45-.66-.41-1.51-.28-1.97,.27-.49,.58-.49,1.41,.04,1.99,.65,.7,1.35,1.37,2.02,2.05,.52,.53,.82,1.15,.73,1.91-.19,1.52-1.79,2.29-3.15,1.5-2.2-1.27-4.38-2.58-6.58-3.87-.56-.33-.82-.8-.81-1.45,.01-1.51,0-3.02,0-4.53,0-.29-.03-.59-.13-.86-.22-.62-.8-.97-1.42-.9-.65,.07-1.23,.55-1.24,1.21-.04,2.29-.03,4.58,0,6.88,0,.56,.42,.89,.86,1.18,2.86,1.89,5.69,3.82,8.56,5.68,1.29,.84,1.92,1.95,1.84,3.49-.03,.56,0,1.13,0,1.73h-.94c0-.63-.02-1.27,0-1.9,.05-1.09-.41-1.86-1.31-2.45-2.81-1.85-5.59-3.76-8.42-5.58-1.1-.71-1.62-1.59-1.57-2.91,.07-1.92,.01-3.84,.02-5.76,0-1.47,1.01-2.54,2.36-2.52,1.32,.01,2.32,1.08,2.34,2.51,.01,1.53,.02,3.06,0,4.59,0,.43,.15,.67,.52,.89,2.1,1.22,4.18,2.46,6.27,3.69,.69,.4,1.29,.33,1.68-.19,.37-.49,.29-1.1-.23-1.64-.63-.65-1.28-1.27-1.91-1.92-1.03-1.06-1.08-2.54-.13-3.53,.95-.99,2.53-1.01,3.59,.03,1.83,1.8,3.65,3.61,5.44,5.45,1.15,1.17,1.7,2.61,1.71,4.25,.01,2.19,0,4.39,0,6.58,0,.13-.02,.27-.03,.43Z"/>
        <path class="cls-1" d="M22,48.41h-.91c-.21,0-.38-.17-.38-.38v-2.48c0-1.44,0-2.88,0-4.32,.01-1.49-.49-2.71-1.53-3.74-.96-.96-1.92-1.92-2.88-2.88l-2.15-2.15c-.14-.14-.3-.29-.47-.4-.5-.31-1.14-.23-1.49,.2-.38,.45-.36,1.07,.03,1.49,.43,.46,.88,.91,1.32,1.35,.23,.23,.46,.46,.69,.69,.65,.66,.93,1.41,.83,2.22-.1,.84-.58,1.53-1.31,1.89-.74,.37-1.64,.33-2.4-.11-1.33-.77-2.66-1.55-3.98-2.33-.87-.51-1.73-1.03-2.6-1.53-.67-.39-1.01-.99-1-1.78,.01-1.51,0-3.01,0-4.52,0-.3-.04-.55-.1-.74-.16-.45-.56-.71-1.03-.65-.43,.05-.9,.36-.91,.85-.03,2-.04,4.18,0,6.87,0,.35,.26,.59,.7,.88,1,.66,2,1.33,3,2,1.85,1.23,3.7,2.47,5.56,3.68,1.44,.94,2.1,2.19,2.01,3.82-.02,.38-.01,.76,0,1.15v.57c0,.21-.16,.38-.37,.38h-.94c-.21,0-.38-.17-.38-.38v-.58c0-.44-.01-.89,0-1.33,.04-.91-.33-1.58-1.15-2.12-1.13-.75-2.26-1.5-3.39-2.25-1.67-1.12-3.34-2.24-5.03-3.32C.51,37.62-.05,36.59,0,35.18c.04-1.27,.04-2.58,.03-3.83,0-.64,0-1.28,0-1.91,0-.84,.3-1.61,.85-2.14,.49-.49,1.16-.75,1.87-.75h.03c1.53,.01,2.69,1.25,2.71,2.88,.01,1.53,.02,3.06,0,4.59,0,.28,.07,.41,.33,.56,1.34,.78,2.67,1.57,4.01,2.35l2.27,1.34c.51,.3,.92,.27,1.19-.1,.35-.46,.02-.92-.21-1.15-.32-.33-.65-.66-.98-.99-.31-.31-.62-.62-.92-.93-1.17-1.2-1.23-2.91-.13-4.05,.52-.54,1.22-.85,1.97-.86,.81-.04,1.56,.3,2.15,.88,1.72,1.69,3.5,3.47,5.45,5.45,1.2,1.22,1.81,2.74,1.82,4.51,0,1.7,0,3.39,0,5.09v1.5c0,.1-.01,.2-.02,.31v.15c-.03,.2-.19,.35-.39,.35Zm-.53-.75h.19s0-.04,0-.05v-1.5c0-1.7,0-3.39,0-5.09,0-1.57-.55-2.91-1.6-3.99-1.94-1.98-3.72-3.76-5.44-5.44-.45-.44-1.03-.66-1.61-.67-.55,0-1.06,.23-1.44,.63-.82,.85-.77,2.09,.12,3.01,.3,.31,.61,.61,.91,.92,.33,.33,.67,.66,.99,1,.65,.67,.75,1.48,.27,2.13-.51,.68-1.32,.79-2.17,.29l-2.27-1.34c-1.33-.79-2.66-1.58-4-2.35-.49-.29-.71-.66-.7-1.22,.02-1.53,.02-3.05,0-4.58,0-1.23-.84-2.13-1.96-2.14h-.02c-.52,0-.98,.19-1.34,.54-.4,.4-.62,.97-.62,1.61,0,.64,0,1.27,0,1.91,0,1.27,.02,2.58-.03,3.87-.04,1.15,.38,1.92,1.4,2.58,1.69,1.09,3.37,2.21,5.04,3.33,1.13,.75,2.25,1.51,3.38,2.25,1.05,.69,1.53,1.6,1.48,2.78-.02,.43-.01,.86,0,1.29v.22h.19v-.18c0-.41-.01-.8,0-1.19,.07-1.36-.46-2.36-1.67-3.15-1.87-1.21-3.72-2.45-5.57-3.69-1-.67-2-1.34-3-2-.36-.24-1.02-.68-1.03-1.49-.03-2.7-.02-4.88,0-6.89,.01-.81,.69-1.49,1.58-1.58,.82-.08,1.55,.38,1.82,1.15,.1,.27,.14,.6,.15,.98,.01,1.51,.01,3.02,0,4.53,0,.52,.19,.87,.63,1.12,.87,.51,1.74,1.02,2.61,1.54,1.32,.78,2.64,1.56,3.97,2.33,.55,.32,1.17,.35,1.69,.09,.5-.25,.83-.73,.9-1.31,.07-.58-.13-1.1-.62-1.6-.23-.23-.46-.46-.69-.69-.46-.45-.91-.9-1.34-1.37-.66-.71-.68-1.73-.05-2.48,.59-.71,1.64-.86,2.46-.35,.24,.15,.44,.34,.61,.5l2.15,2.15c.96,.96,1.92,1.92,2.88,2.88,1.17,1.17,1.76,2.61,1.75,4.28-.01,1.44,0,2.88,0,4.32v2.11Z"/>
      </g>
    </g>
    <g>
      <g>
        <path class="cls-3" d="M15.77,15.21h-.94v-6.68h-3.36v6.66h-.97v-.31c0-2.21,0-4.43,0-6.64,0-.54,.14-.68,.69-.68,1.09,0,2.17,0,3.26,0h.35c0-.13,0-.24,0-.35,0-1.12,0-2.23,0-3.35,0-.25,.09-.43,.28-.59,.89-.73,1.78-1.48,2.67-2.22,.32-.27,.49-.27,.81,0,.89,.74,1.78,1.48,2.67,2.22,.19,.16,.28,.34,.28,.59-.01,.58,0,1.16,0,1.76h3.83v-.31c0-1.42,0-2.83,0-4.25,0-.54,.14-.68,.7-.68,1.78,0,3.55,0,5.33,0,.54,0,.68,.14,.68,.7,0,2.2,0,4.41,0,6.61v.35c.17,0,.32,0,.47,0,1.09,0,2.17,0,3.26,0,.38,0,.58,.17,.58,.53,0,2.18,0,4.37,0,6.55,0,.02,0,.04-.02,.08h-.92v-6.18h-3.36v6.18h-.95V1.35h-4.79V15.2h-.96V6.62h-3.82V15.2h-.97v-.36c0-3.53,0-7.06,0-10.59,0-.21-.05-.35-.22-.48-.73-.59-1.44-1.19-2.18-1.81-.79,.66-1.56,1.3-2.32,1.95-.07,.06-.07,.22-.07,.33,0,3.53,0,7.06,0,10.59v.38Z"/>
        <path class="cls-3" d="M16.15,15.59h-1.69v-6.68h-2.61v6.66h-1.72v-7.33c0-.75,.31-1.06,1.07-1.06h3.24s0-.85,0-.85c0-.82,0-1.64,0-2.47,0-.36,.14-.65,.42-.88,.6-.49,1.19-.99,1.78-1.48l.88-.74c.46-.39,.83-.39,1.29,0l.91,.76c.58,.49,1.17,.97,1.76,1.46,.29,.24,.42,.53,.41,.89,0,.41,0,.82,0,1.24v.13h3.08V1.06C24.97,.31,25.28,0,26.04,0h5.33c.75,0,1.06,.31,1.06,1.07V7.66h3.36c.6,0,.95,.34,.95,.9,0,1.7,0,3.4,0,5.1l-.02,1.59-.07,.28-.3,.04h-1.3v-6.18h-2.61v6.18h-1.7V1.73h-4.04V15.57h-1.71V6.99h-3.07V15.58h-1.72v-2.86c0-2.83,0-5.65,0-8.48,0-.11-.01-.13-.08-.19-.53-.43-1.06-.88-1.6-1.32l-.34-.29-.3,.25c-.58,.48-1.15,.96-1.72,1.44,0,.03,0,.08,0,.1V15.59Zm-.94-.75h.19s0-10.6,0-10.6c0-.17,0-.44,.2-.61,.59-.51,1.19-1,1.79-1.51l.78-.65,.83,.69c.53,.45,1.06,.89,1.59,1.32,.25,.2,.36,.44,.36,.77,0,2.82,0,5.65,0,8.47v2.11h.22V6.24h4.57V14.82h.21V.98h5.54V14.83h.2v-6.18h4.11v6.18h.19v-1.16c0-1.7,0-3.4,0-5.1,0-.12,0-.15-.2-.15h-4.1V1.07c0-.23-.03-.29-.03-.3,0,0,0,0,0,0,0,0-.07-.02-.27-.02h-5.33c-.23,0-.29,.03-.3,.03h0s-.02,.06-.02,.27V5.99h-4.58v-.88c0-.43,0-.84,0-1.26,0-.13-.03-.21-.14-.3-.59-.48-1.17-.97-1.76-1.46l-.91-.76c-.12-.1-.17-.11-.17-.12,0,0-.04,.01-.16,.11l-.88,.74c-.59,.5-1.19,.99-1.79,1.48-.11,.09-.15,.16-.14,.3,0,.82,0,1.65,0,2.47v1.6s-3.99,0-3.99,0c-.23,0-.29,.03-.3,.03h0s-.02,.06-.02,.27v6.58h.22v-6.66h4.11v6.68Zm.88-10.65s0,0,0,0c0,0,0,0,0,0Zm.07-.1h0Z"/>
      </g>
      <g>
        <path class="cls-1" d="M36.18,22.24c.33-.99,.64-1.95,.96-2.93,.31,.1,.6,.2,.91,.3-.33,1.02-.65,2.02-.99,3-.17,.49-.68,.69-1.21,.53-.35-.11-.7-.23-1.01-.33-.65,.9-1.29,1.79-1.95,2.7,.18,.25,.4,.55,.6,.85,.37,.53,.28,1.05-.23,1.44-.74,.54-1.48,1.08-2.23,1.62-.51,.36-1.04,.27-1.41-.24-.18-.25-.35-.51-.55-.75-.05-.06-.19-.1-.26-.08-.98,.33-1.95,.68-2.97,1.05,0,.27,0,.62,0,.98,0,.67-.39,1.05-1.06,1.05-.9,0-1.8,0-2.69,0-.63,0-1.02-.39-1.03-1.03,0-.36,0-.72,0-1.04-1.06-.34-2.1-.68-3.18-1.03-.18,.25-.4,.54-.62,.84-.39,.51-.91,.6-1.44,.22-.74-.53-1.47-1.06-2.2-1.6-.52-.38-.6-.91-.23-1.43,.21-.29,.42-.58,.61-.85-.65-.89-1.29-1.78-1.96-2.7-.28,.09-.62,.2-.96,.3-.65,.2-1.12-.03-1.34-.67-.31-.93-.61-1.87-.92-2.83,.3-.1,.58-.19,.9-.3,.32,.97,.63,1.93,.96,2.92,.36-.12,.71-.22,1.06-.34,.49-.16,.92-.03,1.18,.42,.51,.9,1.11,1.72,1.81,2.49,.34,.37,.35,.79,.07,1.21-.21,.31-.44,.61-.68,.95,.77,.56,1.53,1.12,2.32,1.68,.22-.31,.43-.6,.64-.88,.35-.47,.76-.59,1.28-.35,.91,.41,1.85,.72,2.83,.92,.52,.1,.8,.47,.81,1,0,.36,0,.72,0,1.1h2.87c0-.36,0-.72,0-1.08,0-.57,.28-.93,.84-1.03,.96-.19,1.88-.5,2.78-.9,.54-.24,.95-.13,1.31,.35,.21,.28,.41,.56,.64,.87,.77-.56,1.54-1.11,2.32-1.68-.22-.3-.42-.58-.62-.86-.36-.5-.31-.9,.06-1.38,.58-.75,1.14-1.51,1.67-2.29,.37-.54,.74-.71,1.37-.51,.31,.1,.62,.2,.97,.31Z"/>
        <path class="cls-1" d="M23.28,31.81c-.41,0-.81,0-1.22,0-.85,0-1.4-.55-1.4-1.4v-.77s-2.66-.86-2.66-.86l-.46,.62c-.51,.68-1.26,.8-1.96,.3-.74-.53-1.47-1.06-2.21-1.6-.69-.51-.81-1.25-.31-1.95l.46-.63-1.64-2.26-.7,.22c-.86,.26-1.53-.07-1.81-.91-.23-.69-.45-1.39-.68-2.09l-.24-.75c-.06-.2,.04-.41,.24-.47l.9-.3c.1-.03,.2-.02,.29,.02s.16,.12,.19,.22l.85,2.57c.24-.07,.47-.15,.7-.22,.68-.23,1.29,0,1.63,.59,.49,.87,1.09,1.68,1.76,2.42,.45,.49,.48,1.1,.1,1.67-.15,.22-.3,.43-.47,.66l1.71,1.24c.14-.2,.28-.39,.43-.58,.45-.61,1.06-.78,1.74-.47,.89,.41,1.82,.71,2.75,.89,.68,.14,1.09,.65,1.11,1.36,0,.24,0,.48,0,.73h2.12v-.7c0-.76,.41-1.26,1.14-1.4,.9-.18,1.8-.47,2.69-.88,.69-.31,1.3-.15,1.76,.47l.42,.57,1.71-1.24-.41-.56c-.44-.62-.42-1.2,.07-1.83,.6-.77,1.15-1.53,1.65-2.27,.47-.7,1.03-.9,1.79-.66l.61,.2,.84-2.57c.03-.09,.1-.17,.19-.22,.09-.04,.19-.05,.29-.02l.91,.3c.2,.06,.3,.28,.24,.47l-.29,.88c-.23,.72-.46,1.42-.71,2.13-.23,.67-.93,.99-1.68,.76-.24-.07-.49-.15-.71-.23l-.05-.02-1.63,2.26,.02,.02c.14,.19,.29,.4,.44,.62,.48,.7,.36,1.45-.32,1.95-.74,.55-1.48,1.09-2.23,1.62-.67,.48-1.43,.35-1.93-.32l-.19-.27c-.09-.13-.19-.26-.28-.39-.74,.25-1.47,.52-2.23,.79l-.4,.14v.72c0,.88-.56,1.42-1.44,1.43-.49,0-.99,0-1.48,0Zm-5.42-3.85s.08,0,.12,.02l3.17,1.03c.16,.05,.26,.19,.26,.36v.32s0,.71,0,.71c0,.43,.23,.65,.66,.65,.9,0,1.79,0,2.69,0,.47,0,.69-.22,.69-.68v-.98c0-.16,.1-.3,.25-.35l.65-.23c.79-.28,1.56-.55,2.33-.82,.22-.07,.52,0,.67,.19,.13,.16,.26,.33,.38,.51l.19,.26c.26,.35,.55,.4,.89,.16,.74-.53,1.49-1.07,2.22-1.61,.35-.26,.4-.55,.15-.92-.14-.21-.29-.41-.43-.6l-.17-.24c-.09-.13-.09-.31,0-.44l1.95-2.7c.09-.13,.26-.19,.42-.14l.31,.1c.22,.07,.46,.15,.7,.22,.29,.09,.64,.03,.75-.29,.24-.7,.47-1.4,.7-2.11l.17-.53-.2-.06-.84,2.57c-.06,.2-.27,.31-.47,.24l-.96-.31c-.45-.14-.65-.07-.94,.36-.51,.75-1.07,1.53-1.68,2.31-.29,.37-.3,.59-.05,.93l.62,.86c.06,.08,.08,.18,.07,.28s-.07,.19-.15,.24l-2.32,1.68c-.17,.12-.4,.09-.52-.08l-.64-.87c-.26-.35-.48-.41-.85-.24-.94,.43-1.9,.74-2.86,.93-.38,.07-.53,.27-.53,.67v1.07c0,.21-.17,.38-.38,.38h-2.87c-.21,0-.38-.17-.38-.38v-.36c0-.25,0-.49,0-.73,0-.37-.17-.57-.5-.64-.99-.2-1.97-.52-2.92-.95-.36-.16-.58-.1-.83,.23-.15,.21-.3,.41-.46,.63l-.18,.25c-.12,.17-.36,.2-.52,.08l-2.32-1.68c-.17-.12-.2-.35-.08-.52l.22-.3c.16-.22,.31-.43,.46-.64,.19-.28,.18-.51-.03-.75-.71-.78-1.33-1.64-1.85-2.55-.1-.18-.29-.4-.74-.25-.24,.08-.48,.15-.72,.23l-.34,.11c-.2,.06-.41-.04-.47-.24l-.84-2.57-.19,.06,.13,.39c.23,.7,.45,1.4,.68,2.09,.15,.45,.4,.58,.87,.43l.95-.3c.15-.05,.32,0,.42,.14l1.96,2.7c.09,.13,.09,.31,0,.44l-.61,.85c-.26,.36-.21,.65,.14,.92,.73,.54,1.46,1.07,2.2,1.6,.36,.26,.65,.21,.92-.14l.62-.83c.07-.1,.18-.15,.3-.15Z"/>
      </g>
      <g>
        <path class="cls-1" d="M38.26,16.78v.92H8.61v-.92h29.65Z"/>
        <path class="cls-1" d="M38.26,18.08H8.61c-.21,0-.38-.17-.38-.38v-.92c0-.21,.17-.38,.38-.38h29.65c.21,0,.38,.17,.38,.38v.92c0,.21-.17,.38-.38,.38Zm-29.28-.75h28.9v-.17H8.98v.17Z"/>
      </g>
      <path class="cls-1" d="M19.59,4.71v.92h-2.83v-.92h2.83Z"/>
      <path class="cls-1" d="M19.59,8.02h-2.84v-.93h2.84v.93Z"/>
      <path class="cls-1" d="M27.28,2.78h.91v.93h-.91v-.93Z"/>
      <path class="cls-1" d="M30.13,2.79v.91h-.93v-.91h.93Z"/>
      <path class="cls-1" d="M27.29,5.17h.91v.93h-.91v-.93Z"/>
      <path class="cls-1" d="M29.2,5.18h.92v.93h-.92v-.93Z"/>
      <path class="cls-1" d="M27.28,7.57h.92v.93h-.92v-.93Z"/>
      <path class="cls-1" d="M30.12,8.5h-.92v-.93h.92v.93Z"/>
    </g>
  </g>
</svg>