<svg xmlns="http://www.w3.org/2000/svg" width="21.038" height="29.258"><path data-name="Path 512" d="M10.519 15.399c.92 0 1.668.526 1.668 1.173h1.976a3.1 3.1 0 00-2.656-2.8v-1.064H9.531v1.066a3.1 3.1 0 00-2.656 2.8c0 1.6 1.634 2.906 3.644 2.906.92 0 1.668.526 1.668 1.173s-.748 1.173-1.668 1.173-1.668-.526-1.668-1.173H6.876a3.1 3.1 0 002.656 2.8v1.066h1.976v-1.066a3.1 3.1 0 002.656-2.8c0-1.6-1.635-2.906-3.644-2.906-.92 0-1.668-.526-1.668-1.173s.747-1.175 1.667-1.175z" fill="#b8b8b8"/><path data-name="Path 513" d="M16.643.871h-5.1V0H9.568v.87H4.401L0 7.72v21.539h21.038V7.72zm2.423 26.412H1.975V8.304l3.5-5.458h4.087v2.143a2.963 2.963 0 101.975 0V2.846h4.018l3.5 5.458zm-7.523-19.5a.988.988 0 11-.988-.988.989.989 0 01.988.988z" fill="#b8b8b8"/></svg>