<svg xmlns="http://www.w3.org/2000/svg" width="25.201" height="30.007"><path data-name="Path 514" d="M12.6 0L0 2.518v17.237c0 3.7 2.205 6.65 6.377 8.536A22.171 22.171 0 0012.509 30l.092.01.092-.01a22.171 22.171 0 006.131-1.706C23 26.405 25.2 23.454 25.2 19.755V2.518zm10.843 19.755c0 2.988-1.786 5.316-5.308 6.919a20.811 20.811 0 01-5.535 1.565 20.725 20.725 0 01-5.5-1.548c-3.546-1.6-5.344-3.937-5.344-6.936V3.959L12.6 1.792l10.843 2.167z" fill="#b8b8b8"/><path data-name="Path 515" d="M8.41 10.138a4.124 4.124 0 001.527 3.2 4.786 4.786 0 00-2.129 3.979v5.412h9.584v-5.412a4.786 4.786 0 00-2.129-3.979 4.124 4.124 0 001.527-3.2 4.19 4.19 0 00-8.379 0zm7.223 7.178v3.654H9.566v-3.655a3.034 3.034 0 016.067 0zm-.6-7.178a2.432 2.432 0 11-2.431-2.39 2.414 2.414 0 012.429 2.39z" fill="#b8b8b8"/><path data-name="Path 516" d="M11.722 16.749h1.758v1.757h-1.758z" fill="#b8b8b8"/></svg>