<?xml version="1.0" encoding="UTF-8"?>
<svg id="Layer_1" data-name="Layer 1" xmlns="http://www.w3.org/2000/svg" viewBox="0 0 53.66 57.05">
  <defs>
    <style>
      .cls-1 {
        fill: #b3ffae;
      }

      .cls-2 {
        fill: #28663d;
      }

      .cls-3 {
        fill: #5fb257;
      }
    </style>
  </defs>
  <path class="cls-1" d="M29.59,35.95s-1.02,.63-.99,1.7-.16,6.79,.27,7.32-2.14-1.26-2.23-1.8c-.08-.53-.78-3.63-.64-5.26,.13-1.63,1.34-2.23,3.59-1.96Z"/>
  <g>
    <polygon class="cls-1" points="11.74 27.45 13.9 25.52 15.03 26.62 15.22 27.04 12.35 29.43 10.72 29.07 10.32 28.63 11.76 27.22 11.74 27.45"/>
    <path class="cls-1" d="M11.21,27.77l1.1,1.86s-6.23,2.76-6.74,3.73,.34,17.1,.34,17.1l-2.04,.17-.55-12.01s-.7-5.59,.53-7.09c1.23-1.49,3.07-2.03,3.07-2.03l4.3-1.74Z"/>
  </g>
  <g>
    <path class="cls-2" d="M28.61,55.55c-.62-.33-1.31-.58-1.83-1.01-.8-.66-.99-1.61-.99-2.6,0-2.67,.01-5.34,0-8,0-.3-.15-.6-.25-.89-.19-.58-.5-1.15-.56-1.75-.09-1.02-.07-2.05,0-3.07,.1-1.57,1.5-2.88,3.15-2.93,1.63-.06,3.27-.03,4.9-.03,.22,0,.43,0,.74,0,0-.54,0-1.02,0-1.51,.02-1.74,1.03-2.73,2.83-2.74,1.62-.01,3.23-.01,4.85,0,1.76,.02,2.79,1.03,2.81,2.72,0,.49,0,.98,0,1.53,.59,0,1.11,0,1.64,0,1.27,0,2.54-.03,3.8,.02,1.89,.07,3.27,1.38,3.37,3.2,.05,.9,.07,1.81-.02,2.7-.06,.58-.25,1.18-.52,1.7-.22,.43-.33,.83-.33,1.3,.01,2.46,0,4.91,0,7.37,0,2.35-.59,3.18-2.86,4H28.61Zm-1.13-10.47c-.01,.11-.03,.19-.03,.27,0,2.26-.02,4.52,0,6.79,.01,1.18,.72,1.81,1.95,1.81,6.37,0,12.75,0,19.12,0,1.35,0,2.02-.65,2.02-1.96,0-2.16,0-4.31,0-6.47,0-.15-.02-.3-.03-.47-.68,.35-1.28,.72-1.93,.99-.56,.23-.82,.49-.84,1.14-.03,1.4-1.22,2.44-2.61,2.41-1.43-.03-2.51-1.1-2.54-2.55-.02-.78-.01-1.56,0-2.33,0-.66,.29-.94,.97-.95,.92-.01,1.84,.01,2.76,0,.71-.01,1.4-.03,1.5,.99,.77-.48,1.46-.85,2.08-1.31,1.03-.76,1.64-1.75,1.53-3.06-.04-.46,0-.92,0-1.38,0-1.53-.64-2.15-2.24-2.15-5.11,0-10.21,0-15.32,0-1.8,0-3.6-.01-5.4,0-1.13,0-1.83,.65-1.89,1.73-.04,.79-.06,1.59,.01,2.38,.05,.47,.21,.98,.47,1.38,.72,1.12,1.86,1.75,3.07,2.3,.33-.82,.43-.88,1.32-.88,.96,0,1.91,0,2.87,0,.8,0,1.08,.27,1.09,1.06,0,.41,0,.83,0,1.32,1.53,.06,2.96,.11,4.39,.16,.54,.02,.87,.31,.9,.75,.02,.42-.31,.8-.83,.82-.66,.03-1.32,.01-1.98-.02-.84-.04-1.68-.11-2.53-.17-.08,.18-.15,.34-.24,.5-.6,1.16-1.95,1.68-3.21,1.24-1.08-.38-1.65-1.25-1.71-2.53,0-.2-.13-.5-.29-.59-.78-.43-1.59-.8-2.44-1.23Zm15.11-9.85c0-.62,.03-1.18,0-1.74-.03-.49-.31-.86-.86-.87-1.81-.02-3.63-.02-5.44,0-.43,0-.77,.25-.81,.66-.06,.64-.02,1.29-.02,1.96h7.14Zm3.53,10.15h-1.87c0,.57-.01,1.11,0,1.65,.02,.56,.38,.94,.89,.96,.5,.02,.93-.35,.97-.89,.04-.56,0-1.12,0-1.72Zm-14.22,0c0,.64-.03,1.26,.01,1.86,.03,.47,.4,.72,.86,.74,.46,.02,.86-.21,.91-.68,.06-.64,.01-1.28,.01-1.93h-1.79Z"/>
    <path class="cls-3" d="M22.37,34.53c.08,1.76,.15,3.47,.23,5.18,.16,3.51,.33,7.03,.48,10.54,.03,.65-.3,1.05-.82,1.05-.5,0-.8-.36-.83-.99-.22-4.73-.43-9.46-.65-14.2,0-.12-.02-.24-.04-.38h-1.83c-.03,.36-.07,.72-.09,1.09-.2,4.45-.39,8.9-.59,13.35,0,.16-.02,.32-.05,.47-.1,.44-.41,.69-.87,.64-.45-.04-.74-.32-.73-.79,0-.64,.03-1.27,.06-1.91,.2-4.56,.41-9.11,.61-13.67,0-.12,0-.24,0-.4-.3,.09-.56,.19-.82,.23-1.12,.17-1.96-.27-2.58-1.16-.99-1.43-1.99-2.85-2.96-4.28-.22-.32-.39-.42-.79-.26-1.24,.49-2.51,.9-3.74,1.41-.64,.27-1.22,.67-1.9,1.06,1,.96,1.86,1.83,2.77,2.65,1.43,1.29,2.06,2.86,2.05,4.73-.03,3.71,0,7.42-.01,11.14,0,.25,.04,.56-.09,.72-.19,.23-.53,.51-.79,.5-.26-.02-.54-.34-.72-.59-.11-.15-.05-.41-.05-.62,0-3.68-.03-7.35,.01-11.03,.02-1.51-.45-2.75-1.62-3.78-.76-.66-1.45-1.39-2.32-2.05-.03,.46-.11,.92-.09,1.38,.19,4.79,.4,9.57,.6,14.36,.02,.49,.04,.99,.04,1.48,0,.53-.34,.89-.8,.89-.44,0-.8-.32-.84-.82-.05-.69-.07-1.38-.09-2.07-.19-4.59-.39-9.18-.57-13.77-.1-2.73,1.28-4.71,3.93-5.7,.46-.17,.91-.38,1.39-.51,2.1-.57,3.9-1.58,5.26-3.26,.04-.06,.1-.12,.16-.14,.66-.22,.66-.72,.63-1.26-.03-.53,0-1.01-.43-1.46-.86-.92-1.4-2.02-1.69-3.23-.09-.38-.22-.59-.7-.63-1.06-.08-1.93-1.01-2.04-2.12-.11-1.17,.04-2.26,1.2-2.98,.1-.06,.13-.34,.1-.49-.36-1.7-.59-3.42-.46-5.16,.16-2.17,1.38-3.5,3.59-3.99,.19-.04,.38-.14,.53-.25,2.54-1.79,5.41-2.35,8.5-2.12,2.01,.15,3.9,.64,5.54,1.84,1.84,1.35,2.79,3.19,3.14,5.34,.26,1.57,.19,3.13-.07,4.7-.04,.24,.06,.55,.19,.77,.69,1.12,.71,2.25,.11,3.38-.35,.66-.97,1.07-1.76,1.11-.37,.02-.49,.18-.57,.5-.31,1.33-.95,2.51-1.87,3.55-.23,.26-.43,1.87-.26,2.14,.04,.07,.14,.1,.22,.15,.15,.1,.34,.17,.45,.3,1.52,1.92,3.65,2.88,5.96,3.56,.17,.05,.35,.12,.51,.2,.47,.22,.66,.62,.51,1.04-.15,.4-.6,.61-1.1,.43-1.09-.38-2.18-.76-3.23-1.2-.49-.21-.72-.13-1,.3-.84,1.28-1.74,2.54-2.61,3.8-1.08,1.56-1.77,1.82-3.69,1.33Zm6.63-21.63c.01-1.19,.11-2.43,.02-3.65-.12-1.64-.71-3.13-1.95-4.33-1.19-1.15-2.68-1.71-4.31-1.93-3.14-.44-6.07,0-8.65,1.92-.22,.16-.52,.25-.8,.31-1.45,.28-2.32,1.11-2.32,2.53,0,1.39,.2,2.77,.29,4.16,.05,.8,.35,1.42,1.33,1.61,.25-.29,.53-.63,.83-.96,.35-.4,.78-.47,1.17-.21,.38,.26,.49,.71,.16,1.12-.44,.54-.92,1.06-1.45,1.51-.63,.53-1.15,.48-1.75-.07-.28-.25-.62-.46-.92-.24-.26,.18-.4,.54-.53,.85-.07,.18-.03,.42,0,.63,.07,.43,.32,.69,.79,.76,1.24,.17,1.54,.47,1.84,1.61,.67,2.55,2.33,4.27,4.9,5.08,4.03,1.28,8.3-1.11,9.3-5.14,.27-1.09,.65-1.43,1.77-1.55,.46-.05,.73-.27,.83-.72,.14-.67-.01-1.29-.41-1.49-.12-.06-.28-.09-.42-.09-.2,0-.4,.02-.6,.04-.64,.07-1.11-.18-1.4-.72-.19-.36-.37-.73-.5-1.12-.12-.35-.28-.44-.68-.37-2.24,.38-4.49,.47-6.73,.04-1.97-.38-3.73-1.17-5.08-2.65-.47-.52-.51-.95-.11-1.3,.38-.33,.85-.25,1.34,.23,.25,.24,.48,.49,.75,.69,1.86,1.41,4.06,1.76,6.34,1.69,1.37-.04,2.73-.28,4.1-.44,.69-.09,.96,.04,1.24,.67,.16,.36,.35,.71,.46,1.08,.15,.54,.46,.72,1.19,.46Zm-13.99,11.29c-.17,1-.16,1.88,.87,2.41,.09,.05,.17,.14,.25,.21,1.23,1.03,2.46,2.06,3.7,3.11,1.41-1.19,2.74-2.41,4.19-3.49,.88-.65,.62-1.41,.64-2.26-3.27,1.8-6.47,1.77-9.65,.02Zm3.58,6.81c-1.74-1.47-3.48-2.92-5.17-4.35-.5,.46-.96,.88-1.45,1.33,1.12,1.62,2.23,3.24,3.36,4.84,.32,.46,.83,.53,1.23,.16,.69-.63,1.34-1.3,2.03-1.98Zm2.43,.05c.69,.65,1.33,1.26,1.98,1.86,.48,.44,.98,.41,1.35-.11,1.07-1.52,2.13-3.05,3.17-4.58,.07-.1,.07-.32,0-.4-.38-.42-.79-.82-1.2-1.23-1.8,1.51-3.51,2.95-5.3,4.46Zm-1.19,1.13c-.77,.42-.96,1.08-.8,1.9h1.6c.17-.8,0-1.45-.81-1.9Z"/>
  </g>
</svg>