<?xml version="1.0" encoding="UTF-8"?>
<svg id="Layer_1" data-name="Layer 1" xmlns="http://www.w3.org/2000/svg" viewBox="0 0 52.65 54.73">
  <defs>
    <style>
      .cls-1 {
        fill: #eb1d36;
      }

      .cls-2 {
        fill: #ffd6d6;
      }

      .cls-3 {
        fill: #7a0003;
      }
    </style>
  </defs>
  <g>
    <path class="cls-2" d="M32,54.3c0-1.9,.02-5.36,.02-6.5,0-1.89,.58-2.68,.58-2.68l7.22-8.26c-1.93-1.79-3.49,.64-3.49,.64l-6.44,6.83-.71,3.4-.02,6.58h2.85Z"/>
    <path class="cls-2" d="M12.6,51.47l.2,2.84,3.24,.07c.01-.64,.03-2.22,.03-2.65,0-1.18-.91-2.36-.91-2.36,0,0-7.96-5.36-10.28-6.55-2.32-1.18-1.98-2.59-1.98-2.59l.08-8.11c-2.64,.17-2.08,4.14-2.08,4.14l.24,6.25s8.21,5.81,10.22,6.99c2,1.18,1.25,1.98,1.25,1.98Z"/>
  </g>
  <g>
    <g>
      <g>
        <path class="cls-1" d="M40.1,54.36h-.91c-.68-2.4,.05-4.41,2.08-5.77,3-2,6-4.01,9.01-6,.69-.45,.99-1.02,.98-1.84-.03-2.13,0-4.27-.01-6.4,0-1.08-.62-1.79-1.54-1.78-.88,.01-1.49,.72-1.5,1.77,0,1.65-.02,3.3,0,4.94,.01,.78-.31,1.32-.98,1.7-2.28,1.33-4.54,2.68-6.82,4.01-1.18,.69-2.4,.52-3.13-.43-.72-.93-.58-2.21,.35-3.15,.7-.71,1.42-1.39,2.09-2.12,.56-.6,.65-1.36,.28-1.99-.35-.61-.9-.92-1.59-.8-.37,.07-.78,.26-1.04,.53-1.98,1.94-3.94,3.89-5.87,5.87-1.05,1.07-1.54,2.4-1.54,3.9,0,2.26,0,4.52,0,6.78,0,.23,0,.46,0,.73h-.98c-.01-.19-.03-.37-.03-.56,0-2.28,0-4.56,0-6.84,0-1.93,.68-3.58,2.05-4.95,1.87-1.86,3.73-3.74,5.6-5.6,1.16-1.16,2.76-1.22,3.84-.16,1.09,1.06,1.06,2.72-.09,3.91-.65,.67-1.32,1.31-1.97,1.98-.61,.62-.7,1.34-.27,1.87,.42,.52,1.07,.58,1.82,.14,2.22-1.3,4.43-2.62,6.66-3.91,.43-.25,.63-.54,.62-1.05-.03-1.67-.04-3.34,0-5.01,.03-1.8,1.67-2.98,3.32-2.45,.98,.32,1.72,1.22,1.73,2.27,.03,2.43,.03,4.86,0,7.29-.01,.94-.54,1.6-1.31,2.12-3.1,2.05-6.17,4.14-9.28,6.17-1.11,.72-1.66,1.62-1.57,2.94,.04,.61,0,1.22,0,1.88Z"/>
        <path class="cls-1" d="M40.47,54.73h-1.57l-.08-.27c-.71-2.55,.08-4.74,2.24-6.18l2.35-1.57c2.22-1.48,4.44-2.96,6.67-4.43,.58-.38,.82-.83,.81-1.52-.02-1.4-.02-2.8-.01-4.2,0-.73,0-1.47,0-2.2,0-.47-.14-.87-.39-1.11-.2-.19-.45-.29-.76-.29h-.02c-.67,0-1.12,.57-1.13,1.4v.39c0,1.52-.02,3.03,0,4.55,.01,.9-.37,1.57-1.17,2.03-1.25,.73-2.49,1.46-3.73,2.19-1.03,.61-2.06,1.21-3.09,1.82-1.34,.78-2.76,.58-3.62-.52-.83-1.08-.68-2.58,.38-3.65,.25-.26,.51-.51,.76-.76,.45-.44,.89-.89,1.32-1.35,.43-.47,.52-1.05,.23-1.55-.29-.5-.7-.7-1.2-.61-.31,.05-.64,.22-.85,.42-2.11,2.07-4.03,3.99-5.87,5.86-.95,.97-1.43,2.2-1.44,3.64,0,1.46,0,2.92,0,4.39v3.5h-1.71l-.03-.54c0-.13-.02-.27-.02-.4v-6.84c0-2.03,.72-3.79,2.15-5.21l2.46-2.46c1.05-1.05,2.09-2.1,3.14-3.14,1.3-1.29,3.13-1.36,4.37-.16,1.24,1.2,1.2,3.11-.08,4.44-.35,.36-.7,.71-1.05,1.06-.31,.3-.62,.61-.92,.92-.47,.48-.56,.99-.25,1.38,.3,.37,.75,.39,1.34,.05l2.22-1.31c1.48-.87,2.96-1.75,4.44-2.61,.33-.19,.44-.36,.43-.72-.03-1.78-.03-3.43,0-5.02,.02-.99,.47-1.87,1.24-2.42,.74-.53,1.68-.67,2.57-.39,1.16,.37,1.98,1.45,1.99,2.62,.03,2.35,.03,4.8,0,7.29,0,.97-.51,1.78-1.48,2.42-1.11,.74-2.22,1.48-3.33,2.23-1.98,1.32-3.95,2.65-5.95,3.94-1.04,.68-1.48,1.48-1.4,2.6,.03,.42,.02,.85,.01,1.29,0,.2,0,.41,0,.62v.38Zm-1-.75h.25c0-.08,0-.17,0-.25,0-.42,.01-.83-.01-1.23-.1-1.41,.46-2.45,1.74-3.28,1.99-1.29,3.97-2.62,5.94-3.94,1.11-.74,2.22-1.49,3.34-2.23,.77-.51,1.13-1.08,1.14-1.81,.03-2.49,.03-4.94,0-7.28,0-.85-.61-1.64-1.47-1.92-.66-.22-1.35-.11-1.9,.28-.57,.41-.91,1.07-.92,1.82-.03,1.58-.03,3.22,0,4.99,.01,.63-.24,1.06-.8,1.38-1.48,.86-2.96,1.73-4.44,2.6l-2.22,1.31c-.91,.54-1.75,.46-2.3-.22-.56-.69-.44-1.62,.29-2.37,.31-.31,.62-.62,.93-.93,.35-.35,.7-.69,1.04-1.05,1-1.04,1.05-2.46,.1-3.38-.94-.91-2.3-.85-3.32,.16-1.05,1.04-2.1,2.09-3.14,3.14l-2.46,2.46c-1.3,1.3-1.94,2.83-1.94,4.68v6.84c0,.06,0,.12,0,.18h.26v-2.75c0-1.46,0-2.93,0-4.39,0-1.65,.56-3.05,1.65-4.17,1.84-1.88,3.76-3.8,5.88-5.87,.31-.31,.79-.55,1.24-.63,.82-.15,1.54,.21,1.98,.98,.45,.79,.33,1.72-.33,2.43-.43,.47-.89,.92-1.34,1.37-.25,.25-.51,.5-.76,.76-.8,.81-.92,1.88-.32,2.66,.62,.8,1.63,.92,2.64,.33,1.03-.6,2.06-1.21,3.09-1.82,1.24-.73,2.49-1.47,3.73-2.19,.56-.33,.8-.74,.79-1.38-.02-1.52-.01-3.04,0-4.56v-.39c0-1.25,.78-2.13,1.87-2.14,.54-.02,.97,.17,1.31,.51,.39,.39,.61,.97,.61,1.64,0,.74,0,1.47,0,2.21,0,1.4,0,2.79,.01,4.19,.01,.95-.35,1.64-1.15,2.16-2.23,1.46-4.44,2.95-6.66,4.43l-2.35,1.57c-1.81,1.21-2.5,2.96-2,5.08Z"/>
      </g>
      <g>
        <path class="cls-1" d="M23.71,54.34h-1.01c0-1.57,.01-3.1,0-4.64-.01-1.27,.01-2.54-.09-3.79-.1-1.22-.7-2.25-1.55-3.11-1.89-1.9-3.78-3.8-5.69-5.69-.77-.76-1.75-.82-2.42-.17-.69,.67-.67,1.69,.1,2.49,.66,.69,1.35,1.34,2.01,2.02,.93,.95,1.05,2.23,.31,3.16-.72,.92-1.95,1.09-3.08,.43-2.29-1.35-4.58-2.71-6.87-4.04-.67-.39-.97-.93-.96-1.71,.02-1.6,.01-3.21,0-4.81,0-.29-.03-.6-.13-.87-.24-.7-.89-1.09-1.57-1.01-.7,.09-1.31,.68-1.32,1.4-.03,2.41-.02,4.81,0,7.22,0,.63,.41,1.02,.91,1.35,3.08,2.04,6.13,4.12,9.23,6.13,1.41,.92,2.12,2.12,2.02,3.8-.03,.61,0,1.21,0,1.85h-1.01c0-.7-.02-1.41,0-2.12,.03-1.11-.43-1.93-1.36-2.54-3.13-2.07-6.25-4.17-9.39-6.23-.99-.65-1.46-1.5-1.44-2.7,.04-2.15,0-4.31,.01-6.46,0-1.57,1.04-2.7,2.48-2.73,1.45-.03,2.57,1.12,2.59,2.7,.02,1.65,.02,3.29,0,4.94,0,.46,.15,.74,.54,.97,2.24,1.3,4.47,2.63,6.71,3.94,.78,.46,1.45,.4,1.86-.16,.41-.55,.3-1.24-.32-1.87-.64-.65-1.29-1.28-1.92-1.93-1.16-1.18-1.2-2.83-.12-3.91,1.08-1.08,2.7-1.01,3.89,.17,1.86,1.85,3.7,3.7,5.56,5.55,1.39,1.38,2.07,3.05,2.07,5,0,2.26,0,4.52,0,6.78v.6Z"/>
        <path class="cls-1" d="M24.08,54.71h-1.76v-1.8c0-1.08,0-2.15,0-3.21v-.79c0-.98-.01-1.99-.09-2.97-.08-1.03-.57-2-1.45-2.88-1.89-1.9-3.78-3.8-5.69-5.69-.62-.62-1.37-.68-1.9-.16-.55,.53-.5,1.32,.11,1.96,.37,.38,.75,.76,1.13,1.13,.3,.29,.59,.59,.88,.88,1.05,1.07,1.19,2.58,.34,3.65-.84,1.07-2.28,1.27-3.56,.52-.93-.54-1.86-1.09-2.79-1.64-1.36-.8-2.72-1.61-4.08-2.4-.79-.46-1.16-1.12-1.15-2.04,.02-1.6,.01-3.2,0-4.81,0-.3-.04-.55-.11-.75-.18-.52-.64-.82-1.17-.76-.54,.07-.99,.53-.99,1.03-.03,2.41-.02,4.81,0,7.22,0,.4,.21,.69,.74,1.04,1.09,.72,2.17,1.45,3.26,2.17,1.98,1.33,3.97,2.65,5.97,3.95,1.57,1.02,2.29,2.38,2.19,4.14-.02,.4-.02,.81,0,1.22v.98s-1.76,0-1.76,0v-1.02c0-.49-.01-.99,0-1.48,.03-.96-.35-1.66-1.19-2.22-1.4-.92-2.8-1.86-4.2-2.79-1.73-1.15-3.45-2.31-5.19-3.44C.5,43.03-.02,42.04,0,40.74c.02-1.39,.02-2.79,.01-4.18,0-.76,0-1.52,0-2.28,0-1.77,1.2-3.07,2.84-3.1,.78,.01,1.5,.27,2.04,.79,.59,.57,.92,1.38,.93,2.28,.02,1.66,.02,3.32,0,4.95,0,.33,.08,.48,.36,.64,1.51,.88,3.02,1.77,4.53,2.66l2.18,1.28c.61,.36,1.08,.34,1.37-.06,.4-.54,0-1.1-.29-1.38-.29-.29-.58-.58-.86-.87-.36-.35-.71-.71-1.06-1.06-1.31-1.34-1.36-3.2-.12-4.43,1.23-1.23,3.09-1.16,4.42,.17,.97,.96,1.93,1.93,2.9,2.9,.88,.89,1.77,1.77,2.66,2.66,1.45,1.44,2.18,3.22,2.18,5.27,0,1.59,0,3.19,0,4.78v2.97Zm-1.01-.75h.26v-2.22c0-1.59,0-3.19,0-4.79,0-1.87-.63-3.42-1.96-4.74-.89-.88-1.77-1.77-2.66-2.66-.96-.97-1.93-1.93-2.9-2.9-1.04-1.03-2.42-1.1-3.36-.17-.93,.93-.88,2.35,.13,3.38,.35,.36,.7,.71,1.05,1.06,.29,.29,.58,.58,.87,.87,.75,.77,.89,1.65,.36,2.36-.53,.72-1.42,.82-2.36,.26l-2.18-1.29c-1.51-.89-3.02-1.78-4.53-2.66-.51-.3-.74-.7-.73-1.3,.02-1.62,.02-3.28,0-4.93,0-.7-.26-1.32-.7-1.75-.4-.38-.92-.57-1.5-.58-1.24,.02-2.11,.99-2.11,2.35,0,.76,0,1.51,0,2.27,0,1.4,0,2.8-.01,4.2-.02,1.05,.37,1.79,1.27,2.38,1.74,1.14,3.46,2.29,5.19,3.45,1.4,.93,2.79,1.86,4.19,2.79,1.06,.7,1.56,1.64,1.53,2.87-.01,.49-.01,.97,0,1.45v.28h.26v-.22c0-.43-.01-.86,0-1.28,.08-1.49-.5-2.59-1.85-3.47-2-1.3-3.99-2.63-5.98-3.96-1.08-.72-2.17-1.45-3.25-2.17-.5-.33-1.08-.82-1.08-1.66-.01-2.41-.02-4.82,0-7.23,0-.88,.73-1.66,1.65-1.77,.87-.11,1.68,.41,1.97,1.26,.1,.28,.14,.6,.15,.99,.01,1.61,.02,3.22,0,4.82,0,.65,.22,1.06,.78,1.38,1.37,.79,2.73,1.6,4.09,2.4,.93,.55,1.86,1.1,2.78,1.64,.97,.57,1.99,.44,2.6-.34,.62-.78,.5-1.85-.29-2.66-.29-.29-.58-.58-.87-.87-.38-.38-.77-.76-1.14-1.15-.89-.93-.93-2.2-.09-3.01,.83-.8,2.04-.73,2.95,.17,1.9,1.89,3.8,3.79,5.69,5.69,1,1.01,1.56,2.13,1.66,3.34,.08,1.01,.09,2.04,.09,3.03v.79c.01,1.07,.01,2.14,0,3.22v1.05Z"/>
      </g>
    </g>
    <g>
      <path class="cls-1" d="M26.67,.38c5.35,.12,10.28,2.07,14.19,6.35,.18,.2,.36,.39,.51,.61,.22,.33,.17,.66-.13,.91-.3,.25-.62,.23-.93-.02-.06-.05-.1-.1-.15-.16-3.16-3.67-7.18-5.69-11.97-6.16-4.72-.47-9.07,.62-12.9,3.46-1.02,.76-1.88,1.73-2.82,2.61-.15,.14-.29,.32-.47,.39-.29,.12-.59,.05-.79-.23-.24-.32-.21-.65,.06-.93,.91-.91,1.76-1.88,2.76-2.67C17.62,1.71,21.75,.42,26.67,.38Z"/>
      <path class="cls-1" d="M40.79,8.8c-.25,0-.49-.09-.72-.28-.07-.06-.13-.12-.19-.19-3.06-3.55-7-5.58-11.73-6.05-4.72-.46-8.98,.68-12.64,3.39-.67,.5-1.29,1.12-1.89,1.71-.3,.29-.59,.59-.9,.87l-.1,.1c-.13,.13-.28,.28-.49,.37-.46,.18-.94,.05-1.23-.35-.34-.47-.31-1.01,.1-1.41,.25-.25,.49-.5,.74-.75,.64-.67,1.31-1.36,2.06-1.95C17.35,1.44,21.56,.05,26.66,0h.01c5.78,.13,10.64,2.3,14.46,6.47,.2,.22,.39,.42,.54,.66,.32,.48,.24,1.04-.2,1.41-.21,.18-.45,.27-.69,.27ZM26.12,1.43c.69,0,1.39,.04,2.11,.11,4.93,.49,9.04,2.6,12.21,6.29,.04,.05,.07,.09,.11,.12,.2,.16,.32,.12,.45,.02,.15-.13,.17-.25,.06-.42-.13-.2-.29-.37-.45-.54C36.91,2.97,32.23,.87,26.67,.75c-4.93,.05-8.98,1.39-12.39,4.09-.7,.56-1.35,1.23-1.98,1.88-.25,.26-.5,.51-.75,.77-.14,.14-.15,.27-.02,.44,.06,.08,.16,.17,.35,.1,.06-.02,.15-.12,.23-.2l.12-.12c.3-.28,.59-.57,.88-.86,.62-.61,1.26-1.25,1.97-1.78,3.26-2.42,6.97-3.64,11.05-3.64Z"/>
    </g>
    <g>
      <path class="cls-1" d="M26.22,4.59c3.32,.04,6.32,.96,9.01,2.83,.11,.08,.22,.15,.32,.24,.3,.27,.35,.65,.14,.95-.22,.31-.6,.39-.94,.19-.27-.16-.51-.35-.77-.52-4.85-3.14-11.11-3.02-15.84,.3-.05,.03-.1,.07-.15,.1-.47,.32-.87,.29-1.12-.08-.25-.37-.14-.76,.32-1.08,2.72-1.93,5.75-2.89,9.03-2.93Z"/>
      <path class="cls-1" d="M35.12,9.29c-.19,0-.39-.05-.57-.16-.17-.1-.33-.21-.49-.32-.1-.07-.2-.14-.3-.2-4.74-3.07-10.79-2.95-15.42,.29l-.15,.1c-.76,.52-1.35,.25-1.64-.18-.29-.42-.34-1.07,.41-1.6,2.73-1.94,5.84-2.95,9.25-3h0c3.41,.04,6.51,1.01,9.22,2.9,.16,.11,.26,.18,.35,.26,.44,.39,.52,.99,.19,1.45-.21,.3-.53,.46-.87,.46Zm-8.85-3.66c2.74,0,5.48,.78,7.9,2.35,.11,.07,.21,.14,.32,.22,.14,.1,.29,.2,.44,.29,.17,.1,.34,.07,.45-.09,.15-.21,0-.39-.08-.46-.07-.06-.15-.11-.22-.17-2.69-1.87-5.56-2.77-8.86-2.81-3.25,.05-6.21,1.01-8.82,2.86-.42,.29-.29,.48-.23,.56,.06,.09,.19,.27,.61-.01l.14-.1c2.52-1.77,5.43-2.66,8.36-2.66Z"/>
    </g>
    <g>
      <g>
        <path class="cls-3" d="M44.25,36.26c-.07-1.14-.17-1.94-.59-3.2-.92-1.92-2.31-3.16-4.2-3.89,.64-1.4,.45-2.83,.44-4.23-.02-2.74-2.22-4.91-4.92-4.9-2.7,0-4.9,2.18-4.9,4.92,0,1.41,.12,2.83,.19,4.32-1.76,.65-3.11,2-4.04,3.91-.92-1.99-2.33-3.27-4.13-3.97,.11-.82,.26-1.56,.31-2.3,.05-.77,.04-1.55,0-2.32-.15-2.42-2.16-4.41-4.57-4.55-2.46-.15-4.71,1.5-5.11,3.9-.29,1.72-.33,3.48,.27,5.22-3.35,1.47-4.87,3.98-4.8,7.57,.02,.76,.02,1.53,.02,2.29,.38,.25,.74,.52,1.09,.81,0-1.34,0-2.68,0-4.02,.01-2.4,1.53-4.58,3.74-5.49,.38-.16,.62-.15,.94,.18,2,2.07,5.04,2.07,7.04,0,.29-.3,.51-.36,.87-.2,2.3,1.03,3.71,2.79,3.77,5.31,.04,1.57,.04,3.13,.05,4.7,.36,0,.72,0,1.08-.01,0-1.49,0-2.97,0-4.46,.01-2.44,1.55-4.65,3.78-5.53,.34-.14,.58-.14,.88,.17,2.04,2.11,5.04,2.1,7.09-.01,.28-.28,.49-.32,.82-.18,2.24,.98,3.69,2.67,3.77,5.09,.05,1.37,.06,2.73,.06,4.1,.36-.31,.72-.61,1.09-.9,0-.54,0-1.08,0-1.62-.04-.18-.03-.55-.05-.73Zm-23.03-8.33c-.4,1.94-2.18,3.23-4.11,3.03-1.94-.2-3.4-1.81-3.44-3.79-.01-.75-.02-1.5,0-2.25,.04-2.11,1.72-3.77,3.8-3.78,2.11-.01,3.8,1.66,3.85,3.8,0,.39,0,.77,0,1.16,.01,0,.03,0,.04,0-.04,.61-.02,1.24-.14,1.83Zm17.6-.69c-.06,2.09-1.77,3.74-3.85,3.73-2.05-.01-3.73-1.66-3.79-3.72-.01-.41,0-.82,0-1.23-.01,0-.03,0-.04,0,.04-.61,.02-1.24,.14-1.83,.4-1.95,2.16-3.23,4.1-3.04,1.93,.19,3.41,1.8,3.45,3.78,.02,.77,.02,1.55,0,2.32Z"/>
        <path class="cls-3" d="M25.71,40.71c-.1,0-.19-.04-.26-.11-.07-.07-.11-.17-.11-.27,0-1.56,0-3.13-.05-4.69-.06-2.27-1.25-3.95-3.55-4.98-.18-.08-.24-.1-.45,.12-1.04,1.08-2.39,1.67-3.8,1.67h0c-1.4,0-2.74-.59-3.78-1.67-.19-.19-.25-.21-.52-.09-2.09,.86-3.5,2.93-3.51,5.14,0,.91,0,1.83,0,2.75v1.27c0,.15-.08,.28-.22,.34-.13,.06-.29,.04-.4-.05-.35-.29-.7-.55-1.06-.79-.11-.07-.17-.19-.17-.31v-.63c0-.55,0-1.11-.02-1.66-.07-3.7,1.47-6.25,4.71-7.79-.45-1.49-.51-3.12-.18-5.08,.43-2.57,2.81-4.38,5.51-4.21,2.6,.16,4.76,2.31,4.92,4.9,.05,.83,.06,1.62,0,2.37-.03,.53-.11,1.04-.2,1.58-.02,.15-.05,.3-.07,.46,1.6,.68,2.85,1.82,3.73,3.39,.92-1.61,2.15-2.73,3.65-3.35-.02-.38-.04-.75-.06-1.12-.06-1.01-.11-1.97-.11-2.94,0-2.92,2.37-5.29,5.27-5.3h0c2.9,0,5.27,2.36,5.29,5.27,0,.25,0,.5,.02,.75,.03,1.07,.07,2.17-.34,3.28,1.83,.79,3.16,2.08,4.05,3.93,.44,1.31,.54,2.12,.62,3.34h0s0,.21,0,.21c0,.14,0,.36,.03,.45v1.7c0,.11-.04,.22-.13,.29-.37,.29-.73,.59-1.08,.89-.11,.1-.27,.12-.4,.06-.13-.06-.22-.19-.22-.34,0-1.37-.02-2.73-.06-4.09-.09-2.69-1.98-4.08-3.55-4.76-.17-.08-.22-.09-.4,.1-1.07,1.1-2.4,1.7-3.84,1.7-1.39,0-2.74-.6-3.79-1.69-.17-.17-.23-.18-.47-.08-2.11,.84-3.53,2.92-3.54,5.19,0,1.02,0,2.04,0,3.06v1.39c0,.21-.16,.37-.37,.38h-1.08s0,.01,0,.01Zm-4.16-10.85c.16,0,.32,.04,.49,.12,2.55,1.15,3.93,3.1,3.99,5.65,.04,1.44,.04,2.89,.05,4.33h.34s0-1.03,0-1.03c0-1.02,0-2.04,0-3.07,.01-2.57,1.62-4.93,4.01-5.88,.37-.15,.81-.23,1.29,.26,.91,.94,2.06,1.46,3.25,1.46h0c1.2,0,2.37-.52,3.29-1.47,.38-.39,.76-.47,1.24-.26,2.54,1.11,3.92,2.99,4,5.43,.04,1.1,.05,2.21,.06,3.32,.12-.09,.23-.19,.35-.28v-1.44c-.03-.08-.03-.32-.04-.52v-.18c-.08-1.16-.18-1.91-.57-3.1-.84-1.74-2.15-2.95-3.98-3.66-.1-.04-.17-.11-.21-.21-.04-.1-.04-.2,0-.3,.49-1.07,.46-2.15,.42-3.3,0-.26-.02-.51-.02-.77-.02-2.54-2.01-4.53-4.54-4.53h0c-2.49,0-4.52,2.04-4.52,4.55,0,.96,.05,1.9,.11,2.9,.03,.46,.05,.93,.08,1.4,0,.16-.09,.31-.25,.37-1.63,.6-2.92,1.85-3.83,3.72-.06,.13-.19,.21-.34,.21h0c-.14,0-.28-.09-.34-.22-.85-1.83-2.17-3.1-3.93-3.78-.16-.06-.26-.23-.24-.4,.04-.26,.07-.51,.11-.75,.08-.53,.16-1.02,.19-1.52,.04-.71,.04-1.48,0-2.27-.14-2.22-1.99-4.07-4.22-4.2-2.34-.13-4.35,1.4-4.72,3.59-.33,1.98-.25,3.58,.25,5.04,.06,.18-.03,.39-.2,.47-3.15,1.38-4.64,3.74-4.58,7.22,.01,.56,.01,1.11,.02,1.67v.42c.12,.08,.23,.16,.35,.24v-.5c0-.92,0-1.83,0-2.75,.01-2.52,1.61-4.86,3.97-5.83,.41-.17,.85-.25,1.35,.26,.89,.93,2.05,1.44,3.24,1.44h0c1.2,0,2.36-.51,3.26-1.44,.26-.27,.52-.4,.8-.4Zm-4.05,1.49c-.14,0-.29,0-.44-.02-2.11-.22-3.73-2.01-3.77-4.16-.01-.76-.01-1.51,0-2.27,.05-2.31,1.88-4.14,4.17-4.15h.02c2.31,0,4.15,1.83,4.21,4.17,0,.27,0,.53,0,.8v.23c.03,.05,.04,.11,.04,.17-.01,.19-.02,.38-.03,.56-.02,.43-.03,.88-.12,1.32-.41,1.97-2.12,3.35-4.08,3.35Zm-.02-9.85h-.02c-1.88,0-3.39,1.51-3.43,3.42-.02,.75-.01,1.49,0,2.24,.03,1.77,1.37,3.24,3.1,3.42,1.74,.19,3.34-.99,3.7-2.73h0c.08-.38,.09-.77,.11-1.19,0-.14,.01-.29,.02-.43-.02-.04-.03-.09-.03-.14v-.37c0-.26,0-.52,0-.78-.04-1.93-1.56-3.44-3.46-3.44Zm17.5,9.84h-.03c-2.26-.01-4.09-1.81-4.16-4.08,0-.29,0-.57,0-.86v-.24c-.03-.05-.04-.11-.04-.17,.01-.19,.02-.37,.02-.56,.01-.43,.03-.88,.12-1.32,.43-2.11,2.38-3.55,4.5-3.34,2.12,.21,3.75,1.99,3.79,4.14,.02,.78,.02,1.56,0,2.34h0c-.07,2.3-1.91,4.09-4.2,4.09Zm-3.48-5.46s.03,.09,.03,.14v.39c0,.28,0,.55,0,.83,.06,1.87,1.56,3.35,3.42,3.36h.03c1.88,0,3.4-1.47,3.45-3.36h0c.02-.77,.02-1.54,0-2.3-.04-1.77-1.38-3.24-3.11-3.41-1.75-.17-3.34,1.01-3.7,2.74-.08,.38-.09,.78-.1,1.2,0,.14,0,.28-.02,.43Z"/>
      </g>
      <g>
        <path class="cls-3" d="M33.13,20.98c.35-.15,.71-.25,1.09-.29-.87-1.22-2-2.07-3.34-2.59,.11-.82,.26-1.56,.31-2.3,.05-.77,.04-1.55,0-2.32-.15-2.42-2.16-4.41-4.57-4.55-2.46-.15-4.71,1.5-5.11,3.9-.29,1.72-.33,3.48,.27,5.22-1.37,.6-2.42,1.39-3.2,2.34,.4,.07,.75,.21,1.06,.39,.6-.66,1.34-1.2,2.19-1.55,.38-.16,.62-.15,.94,.18,2,2.07,5.04,2.07,7.04,0,.29-.3,.51-.36,.87-.2,1.01,.45,1.83,1.05,2.46,1.78Zm-3.13-4.17c-.4,1.94-2.18,3.23-4.11,3.03-1.94-.2-3.4-1.81-3.44-3.79-.01-.75-.02-1.5,0-2.25,.04-2.11,1.72-3.77,3.8-3.78,2.11-.01,3.8,1.66,3.85,3.8,0,.39,0,.77,0,1.16,.01,0,.03,0,.04,0-.04,.61-.02,1.24-.14,1.83Z"/>
        <path class="cls-3" d="M33.13,21.35c-.11,0-.21-.05-.29-.13-.59-.69-1.37-1.26-2.32-1.68-.18-.08-.24-.1-.45,.12-1.04,1.08-2.39,1.67-3.8,1.67h0c-1.4,0-2.74-.59-3.78-1.67-.19-.19-.25-.21-.52-.09-.77,.32-1.48,.82-2.05,1.45-.12,.13-.31,.16-.46,.07-.3-.17-.61-.28-.94-.34-.13-.02-.24-.11-.29-.24-.05-.12-.02-.26,.06-.37,.76-.94,1.78-1.71,3.03-2.3-.45-1.49-.51-3.12-.18-5.08,.43-2.57,2.81-4.38,5.51-4.21,2.6,.16,4.76,2.31,4.92,4.9,.05,.83,.06,1.62,0,2.37-.03,.53-.11,1.04-.2,1.58-.02,.15-.05,.3-.07,.46,1.32,.56,2.4,1.44,3.23,2.61,.08,.11,.09,.25,.04,.37-.05,.12-.17,.2-.3,.22-.34,.04-.67,.13-.98,.26-.05,.02-.1,.03-.15,.03Zm-10.9-2.61c.25,0,.52,.1,.8,.39,.89,.93,2.05,1.44,3.24,1.44h0c1.2,0,2.36-.51,3.26-1.44,.4-.41,.8-.5,1.3-.28,.96,.43,1.77,1,2.41,1.68,.1-.04,.21-.07,.32-.1-.75-.89-1.69-1.56-2.81-1.99-.16-.06-.26-.23-.24-.4,.04-.26,.07-.51,.11-.75,.08-.53,.16-1.02,.19-1.52,.04-.71,.04-1.48,0-2.27-.14-2.22-1.99-4.07-4.22-4.2-2.33-.13-4.35,1.4-4.72,3.59-.33,1.98-.25,3.58,.25,5.04,.06,.18-.03,.39-.2,.47-1.08,.47-1.96,1.06-2.66,1.79,.1,.04,.21,.08,.3,.13,.61-.62,1.34-1.11,2.12-1.43,.17-.07,.36-.13,.55-.13Zm4.06,1.49c-.14,0-.29,0-.44-.02-2.11-.22-3.73-2.01-3.77-4.16-.01-.76-.01-1.51,0-2.27,.05-2.31,1.88-4.14,4.17-4.15h.02c2.31,0,4.15,1.83,4.21,4.17,0,.27,0,.53,0,.8v.23c.03,.05,.04,.11,.04,.17-.01,.19-.02,.38-.03,.56-.02,.43-.03,.88-.12,1.32-.41,1.97-2.12,3.35-4.08,3.35Zm-.02-9.85h-.02c-1.88,0-3.39,1.51-3.43,3.42-.02,.75-.01,1.49,0,2.24,.03,1.77,1.37,3.24,3.1,3.42,1.74,.18,3.34-.99,3.7-2.73h0c.08-.38,.09-.77,.11-1.19,0-.14,.01-.29,.02-.43-.02-.04-.03-.09-.03-.14v-.37c0-.26,0-.52,0-.78-.04-1.93-1.56-3.44-3.46-3.44Z"/>
      </g>
    </g>
  </g>
</svg>