<?xml version="1.0" encoding="UTF-8"?>
<svg id="Layer_1" data-name="Layer 1" xmlns="http://www.w3.org/2000/svg" viewBox="0 0 52.58 56.1">
  <defs>
    <style>
      .cls-1 {
        fill: #b9f3fc;
      }

      .cls-2 {
        fill: #2192ff;
      }

      .cls-3 {
        fill: #2d388b;
      }
    </style>
  </defs>
  <g>
    <path class="cls-1" d="M30.93,54.98c0-1.9,.02-5.36,.02-6.5,0-1.89,.58-2.68,.58-2.68l7.22-8.26c-1.93-1.79-3.49,.64-3.49,.64l-6.44,6.83-.71,3.4-.02,6.58h2.85Z"/>
    <path class="cls-1" d="M14.12,52.15l.15,3.24,3.26,.09c.01-.64,0-2.82,0-3.25,0-1.53-1.24-2.59-1.24-2.59,0,0-7.66-5.1-9.98-6.29-2.32-1.18-1.89-2.45-1.89-2.45l.08-8.11c-2.64,.17-2.08,4.14-2.08,4.14l.24,6.25s8.21,5.81,10.22,6.99c2,1.18,1.25,1.98,1.25,1.98Z"/>
  </g>
  <g>
    <path class="cls-2" d="M46.09,30.41c-.21,0-.38-.17-.38-.38v-2.53c0-4.59,0-4.91,0-10.73,0-.28-.05-.39-.27-.54-6.33-4.5-12.56-8.95-18.51-13.22-.13-.09-.19-.11-.21-.11s-.08,.01-.22,.11c-6.5,4.66-12.53,8.97-18.44,13.17-.27,.19-.34,.34-.34,.68,.01,5.1,.01,7.29,.01,11v2.17c0,.21-.17,.38-.38,.38h-.96c-.1,0-.2-.04-.27-.11-.07-.07-.11-.17-.11-.26v-4.56c0-2.9,0-4.5,0-8.82,0-.75,.28-1.31,.89-1.74,4.58-3.26,9.16-6.53,13.73-9.8l4.93-3.52c.34-.25,.72-.47,1.15-.47s.8,.22,1.15,.47l3.86,2.75c4.94,3.53,9.89,7.06,14.84,10.59,.58,.42,.86,.95,.86,1.67v3.81c-.01,3.73-.01,4.21,0,9.49v.12c0,.1-.04,.2-.11,.27s-.17,.11-.27,.11h-.97Z"/>
    <path class="cls-2" d="M26.73,1.5c.28,0,.56,.13,.93,.4l3.86,2.75c4.94,3.53,9.89,7.06,14.84,10.59,.49,.34,.7,.77,.7,1.37v2.86c-.01,4.62-.02,4.74,0,10.44v.13s-.97,0-.97,0v-1.46c0-5.64,0-5.55,0-11.79,0-.4-.11-.62-.42-.85-6.33-4.5-12.56-8.95-18.51-13.22-.17-.12-.3-.18-.43-.18s-.27,.06-.43,.18C19.8,7.37,13.77,11.68,7.86,15.88c-.37,.26-.5,.52-.5,.99,.01,5.26,.01,7.42,.01,11.36v1.81h-.96v-4.56c0-2.9,0-4.5,0-8.82,0-.63,.23-1.07,.74-1.44,4.92-3.5,9.84-7.02,14.75-10.53l3.91-2.79c.37-.27,.65-.4,.93-.4m0-.75c-.54,0-.99,.27-1.37,.54l-3.9,2.79-1.02,.73c-4.58,3.27-9.15,6.54-13.73,9.8-.71,.5-1.05,1.17-1.05,2.05,0,4.32,0,5.92,0,8.82v4.56c0,.2,.08,.39,.22,.53,.14,.14,.33,.22,.53,.22h.96c.41,0,.75-.34,.75-.75v-2.16c0-3.72,0-5.91-.01-11.01,0-.23,.02-.26,.18-.37,5.83-4.14,11.86-8.45,18.44-13.17,6.08,4.36,12.31,8.81,18.51,13.22,.08,.05,.09,.08,.09,.08h0s.02,.03,.02,.16c-.01,5.82-.01,6.14,0,10.73v1.07s0,1.47,0,1.47c0,.41,.34,.75,.75,.75h.97c.2,0,.39-.08,.53-.22,.14-.14,.22-.33,.22-.53v-.13c-.02-5.28-.02-5.76-.01-9.49v-.94s0-2.86,0-2.86c0-.85-.33-1.49-1.02-1.98-4.95-3.53-9.89-7.06-14.83-10.59l-3.86-2.75c-.37-.27-.83-.54-1.36-.54h0Z"/>
  </g>
  <g>
    <g>
      <path class="cls-2" d="M39.16,55.03h-.91c-.68-2.4,.05-4.41,2.08-5.77,3-2,6-4.01,9.01-6,.69-.45,.99-1.02,.98-1.84-.03-2.13,0-4.27-.01-6.4,0-1.08-.62-1.79-1.54-1.78-.88,.01-1.49,.72-1.5,1.77,0,1.65-.02,3.3,0,4.94,.01,.78-.31,1.32-.98,1.7-2.28,1.33-4.54,2.68-6.82,4.01-1.18,.69-2.4,.52-3.13-.43-.72-.93-.58-2.21,.35-3.15,.7-.71,1.42-1.39,2.09-2.12,.56-.6,.65-1.36,.28-1.99-.35-.61-.9-.92-1.59-.8-.37,.07-.78,.26-1.04,.53-1.98,1.94-3.94,3.89-5.87,5.87-1.05,1.07-1.54,2.4-1.54,3.9,0,2.26,0,4.52,0,6.78,0,.23,0,.46,0,.73h-.98c-.01-.19-.03-.37-.03-.56,0-2.28,0-4.56,0-6.84,0-1.93,.68-3.58,2.05-4.95,1.87-1.86,3.73-3.74,5.6-5.6,1.16-1.16,2.76-1.22,3.84-.16,1.09,1.06,1.06,2.72-.09,3.91-.65,.67-1.32,1.31-1.97,1.98-.61,.62-.7,1.34-.27,1.87,.42,.52,1.07,.58,1.82,.14,2.22-1.3,4.43-2.62,6.66-3.91,.43-.25,.63-.54,.62-1.05-.03-1.67-.04-3.34,0-5.01,.03-1.8,1.67-2.98,3.32-2.45,.98,.32,1.72,1.22,1.73,2.27,.03,2.43,.03,4.86,0,7.29-.01,.94-.54,1.6-1.31,2.12-3.1,2.05-6.17,4.14-9.28,6.17-1.11,.72-1.66,1.62-1.57,2.94,.04,.61,0,1.22,0,1.88Z"/>
      <path class="cls-2" d="M39.16,55.53h-.91c-.22,0-.42-.15-.48-.37-.73-2.6,.08-4.85,2.29-6.32l2.35-1.57c2.22-1.48,4.44-2.96,6.67-4.43,.55-.36,.76-.76,.75-1.42-.02-1.42-.02-2.85-.01-4.28v-2.13c0-.44-.12-.8-.35-1.02-.17-.17-.4-.22-.68-.25-.61,0-1,.51-1,1.27v.26c0,1.56-.02,3.12,0,4.67,.01,.95-.39,1.65-1.23,2.14-1.21,.71-2.42,1.42-3.62,2.13-1.07,.63-2.13,1.26-3.2,1.88-1.4,.82-2.88,.6-3.78-.55-.87-1.12-.71-2.69,.39-3.81,.25-.25,.5-.5,.75-.75,.45-.44,.9-.89,1.33-1.35,.39-.43,.48-.95,.22-1.4-.26-.45-.62-.63-1.07-.55-.28,.05-.59,.21-.78,.39-2.1,2.06-4.02,3.98-5.86,5.86-.93,.95-1.4,2.14-1.4,3.56,0,1.61,0,3.23,0,4.84v2.67c0,.28-.22,.5-.5,.5h-.98c-.27,0-.49-.21-.5-.47v-.19c-.02-.13-.03-.26-.03-.4v-6.85c0-2.07,.73-3.85,2.19-5.3l2.51-2.5c1.03-1.03,2.06-2.07,3.1-3.09,1.35-1.34,3.26-1.41,4.54-.16,1.29,1.25,1.25,3.24-.08,4.62-.35,.36-.7,.71-1.06,1.07-.3,.3-.61,.6-.91,.91-.2,.21-.62,.73-.24,1.21,.1,.12,.39,.48,1.18,.02l2.14-1.26c1.51-.89,3.01-1.78,4.52-2.65,.3-.17,.37-.3,.37-.61-.03-1.8-.03-3.44,0-5.03,.02-1.03,.49-1.95,1.29-2.52,.78-.55,1.75-.7,2.68-.4,1.21,.39,2.06,1.52,2.08,2.74,.03,2.35,.03,4.8,0,7.3-.01,1.01-.53,1.86-1.53,2.53-1.11,.74-2.22,1.48-3.33,2.22-1.98,1.32-3.96,2.65-5.95,3.94-1.02,.66-1.42,1.41-1.34,2.49,.03,.43,.02,.86,.02,1.31,0,.2,0,.4,0,.61,0,.28-.22,.5-.5,.5Zm-.52-1h.03s0-.08,0-.12c0-.42,.01-.82-.01-1.22-.03-.51,.02-.98,.16-1.41-.33,.82-.39,1.74-.17,2.76Zm-10.13-.03h.01v-2.17c0-1.62,0-3.23,0-4.84,0-.75,.11-1.44,.34-2.08-.24,.68-.35,1.41-.35,2.19v6.85s0,.04,0,.06Zm22.31-12.78c-.06,.84-.45,1.47-1.19,1.96-2.23,1.46-4.44,2.94-6.66,4.42l-2.35,1.57s-.02,.02-.03,.02c1.95-1.27,3.88-2.56,5.82-3.86,1.11-.74,2.22-1.49,3.34-2.23,.73-.49,1.08-1.03,1.08-1.7,0-.06,0-.13,0-.19Zm-11.28-1.94c-.1,.19-.23,.37-.38,.54-.44,.47-.9,.93-1.36,1.38-.25,.25-.5,.49-.75,.75-.75,.76-.87,1.77-.31,2.5,.58,.74,1.53,.86,2.48,.3,1.07-.62,2.13-1.25,3.2-1.88,1.21-.71,2.41-1.42,3.62-2.13,.53-.31,.74-.67,.73-1.27-.02-1.56-.01-3.13,0-4.69v-.26c0-1.32,.83-2.25,1.99-2.27,.54-.03,1.03,.18,1.4,.54,.42,.41,.65,1.03,.65,1.73v2.14c0,1.34,0,2.68,0,4.02,.02-2.23,.02-4.43,0-6.54,0-.8-.58-1.54-1.38-1.8-.62-.2-1.28-.1-1.79,.26-.54,.39-.86,1.01-.87,1.72-.03,1.57-.03,3.2,0,4.99,.01,.68-.25,1.14-.86,1.5-1.51,.88-3.01,1.76-4.52,2.65l-2.14,1.26c-.96,.56-1.88,.47-2.46-.25-.6-.74-.48-1.74,.3-2.54,.3-.31,.61-.62,.92-.92,.35-.35,.7-.7,1.04-1.05,.2-.21,.37-.44,.49-.67Zm-1.83-3.14c-.59,0-1.19,.26-1.7,.76-1.03,1.03-2.07,2.06-3.1,3.09l-2.51,2.51c-.37,.37-.68,.75-.94,1.15,.21-.33,.46-.63,.74-.92,1.85-1.89,3.77-3.81,5.88-5.88,.34-.33,.82-.58,1.31-.66,.43-.08,.84-.02,1.2,.15-.28-.14-.58-.21-.89-.21Zm1.06,.31c.29,.18,.54,.45,.73,.79,.25,.44,.34,.93,.26,1.4,.13-.68-.07-1.37-.61-1.88-.12-.12-.25-.22-.38-.3Z"/>
    </g>
    <g>
      <path class="cls-2" d="M24.96,55.01h-1.01c0-1.57,.01-3.1,0-4.64-.01-1.27,.01-2.54-.09-3.79-.1-1.22-.7-2.25-1.55-3.11-1.89-1.9-3.78-3.8-5.69-5.69-.77-.76-1.75-.82-2.42-.17-.69,.67-.67,1.69,.1,2.49,.66,.69,1.35,1.34,2.01,2.02,.93,.95,1.05,2.23,.31,3.16-.72,.92-1.95,1.09-3.08,.43-2.29-1.35-4.58-2.71-6.87-4.04-.67-.39-.97-.93-.96-1.71,.02-1.6,.01-3.21,0-4.81,0-.29-.03-.6-.13-.87-.24-.7-.89-1.09-1.57-1.01-.7,.09-1.31,.68-1.32,1.4-.03,2.41-.02,4.81,0,7.22,0,.63,.41,1.02,.91,1.35,3.08,2.04,6.13,4.12,9.23,6.13,1.41,.92,2.12,2.12,2.02,3.8-.03,.61,0,1.21,0,1.85h-1.01c0-.7-.02-1.41,0-2.12,.03-1.11-.43-1.93-1.36-2.54-3.13-2.07-6.25-4.17-9.39-6.23-.99-.65-1.46-1.5-1.44-2.7,.04-2.15,0-4.31,.01-6.46,0-1.57,1.04-2.7,2.48-2.73,1.45-.03,2.57,1.12,2.59,2.7,.02,1.65,.02,3.29,0,4.94,0,.46,.15,.74,.54,.97,2.24,1.3,4.47,2.63,6.71,3.94,.78,.46,1.45,.4,1.86-.16,.41-.55,.3-1.24-.32-1.87-.64-.65-1.29-1.28-1.92-1.93-1.16-1.18-1.2-2.83-.12-3.91,1.08-1.08,2.7-1.01,3.89,.17,1.86,1.85,3.7,3.7,5.56,5.55,1.39,1.38,2.07,3.05,2.07,5,0,2.26,0,4.52,0,6.78v.6Z"/>
      <path class="cls-2" d="M24.96,55.51h-1.01c-.28,0-.5-.22-.5-.5v-1.38c0-1.09,0-2.17,0-3.25v-.78c0-.98-.01-2-.09-2.98-.08-1-.56-1.94-1.41-2.8-1.89-1.9-3.78-3.8-5.69-5.69-.57-.56-1.24-.63-1.72-.16-.5,.48-.45,1.19,.11,1.78,.36,.38,.73,.75,1.11,1.11,.3,.3,.6,.6,.9,.9,1.09,1.12,1.24,2.69,.35,3.82-.88,1.12-2.38,1.34-3.73,.55l-2.76-1.63c-1.37-.81-2.74-1.62-4.11-2.42-.83-.48-1.22-1.18-1.21-2.15,.02-1.6,.01-3.2,0-4.8,0-.28-.04-.52-.1-.71-.16-.46-.57-.73-1.04-.67-.48,.06-.88,.47-.88,.91-.03,2.41-.02,4.81,0,7.21,0,.35,.2,.61,.69,.94,1.1,.73,2.2,1.46,3.29,2.2,1.97,1.32,3.94,2.63,5.93,3.93,1.62,1.05,2.35,2.44,2.25,4.25-.02,.4-.02,.8,0,1.21v.61c0,.28-.22,.5-.49,.5h-1.01c-.28,0-.5-.22-.5-.5v-.65c0-.49,0-.99,0-1.49,.03-.91-.33-1.58-1.13-2.11-1.42-.94-2.83-1.88-4.25-2.82-1.71-1.14-3.42-2.28-5.14-3.41-1.14-.75-1.69-1.77-1.66-3.12,.02-1.39,.02-2.79,.01-4.18,0-.76,0-1.52,0-2.28,0-1.84,1.25-3.19,2.97-3.23,.79-.02,1.56,.28,2.13,.83,.61,.59,.96,1.44,.97,2.37,.02,1.65,.02,3.3,0,4.95,0,.28,.06,.39,.29,.53,1.49,.86,2.97,1.74,4.45,2.61l2.26,1.33c.55,.32,.96,.31,1.21-.03,.33-.44,.03-.91-.28-1.22-.29-.29-.57-.58-.86-.86-.36-.35-.71-.71-1.06-1.07-1.33-1.37-1.38-3.35-.12-4.61,1.28-1.27,3.21-1.21,4.59,.17,.93,.92,1.85,1.85,2.78,2.78,.92,.93,1.85,1.85,2.78,2.78,1.47,1.47,2.22,3.27,2.21,5.36,0,1.55,0,3.11,0,4.66v2.72c0,.28-.22,.5-.5,.5Zm-.51-1h.01v-2.22c0-1.55,0-3.11,0-4.66,0-.65-.08-1.26-.23-1.84,.06,.24,.1,.49,.12,.74,.08,1.02,.09,2.06,.09,3.06v.77c.01,1.08,.01,2.17,0,3.26v.88Zm-10.14,0h.01v-.09c0-.43-.01-.86,.01-1.29,.05-.85-.13-1.58-.56-2.2,.38,.56,.56,1.22,.54,1.98-.01,.48-.01,.97,0,1.45v.15ZM2.84,43.29c.14,.14,.31,.28,.5,.4,1.72,1.13,3.43,2.27,5.14,3.41,1.41,.94,2.83,1.89,4.24,2.82,.33,.22,.61,.46,.84,.73-.27-.32-.61-.62-1.03-.89-1.99-1.29-3.97-2.61-5.94-3.93-1.1-.73-2.19-1.47-3.29-2.19-.15-.1-.31-.22-.46-.35Zm1.34-10.55c.83,0,1.58,.53,1.86,1.36,.1,.29,.15,.63,.15,1.03,.01,1.61,.02,3.22,0,4.83,0,.6,.2,.97,.71,1.27,1.38,.8,2.75,1.61,4.12,2.42l2.76,1.62c.91,.54,1.87,.41,2.43-.3,.58-.73,.47-1.74-.28-2.5-.29-.3-.59-.6-.89-.89-.38-.37-.76-.75-1.12-1.13-.94-.98-.98-2.33-.08-3.19,.88-.85,2.17-.78,3.12,.17,1.9,1.89,3.8,3.79,5.69,5.69,.23,.23,.44,.48,.63,.72-.21-.29-.46-.58-.73-.85-.93-.92-1.85-1.85-2.78-2.78-.92-.93-1.85-1.85-2.78-2.78-.99-.98-2.29-1.05-3.18-.17-.88,.88-.83,2.22,.13,3.2,.35,.36,.7,.71,1.05,1.06,.29,.29,.58,.58,.87,.87,.79,.8,.93,1.77,.37,2.52-.58,.77-1.52,.88-2.52,.3l-2.26-1.33c-1.48-.87-2.96-1.75-4.44-2.61-.55-.32-.8-.77-.79-1.41,.02-1.64,.02-3.29,0-4.93,0-.66-.25-1.25-.67-1.66-.37-.36-.87-.53-1.41-.54-.67,.01-1.23,.32-1.58,.83,.32-.43,.82-.73,1.38-.8,.08-.01,.17-.02,.25-.02Zm-2,1.79c-.02,.14-.03,.28-.03,.43,0,.76,0,1.51,0,2.27,0,1.4,0,2.8-.01,4.2,0,.2,0,.39,.04,.58,0-.04,0-.08,0-.12-.01-2.41-.02-4.82,0-7.23,0-.04,0-.08,0-.12Z"/>
    </g>
  </g>
  <g>
    <path class="cls-3" d="M39.31,22.8c1.58,.68,2.79,1.81,3.59,3.46,.77,1.57,.11,3.51-1.4,4.08-.31,.12-.66,.16-.99,.16-1.94,.01-3.88,0-5.82,0h-.39c-.05,.33-.08,.63-.15,.91-.35,1.43-1.45,2.37-2.82,2.38-2.86,.02-5.71,0-8.57,0-1.32,0-2.82-.98-2.98-3.29-.12,0-.25,0-.38,0-1.99,0-3.98,0-5.97,0-1.36,0-2.39-1.03-2.57-2.54-.07-.61,.05-1.19,.31-1.72,.73-1.47,1.78-2.54,3.14-3.23,.14-.07,.28-.14,.46-.23-1.02-1.01-1.51-2.23-1.34-3.73,.11-1.01,.49-1.89,1.19-2.57,1.42-1.37,3.7-1.27,5.01,.21,1.46,1.66,1.34,3.95-.34,6.1,1.42,.6,2.54,1.62,3.36,3.01,.64-.35,1.25-.69,1.89-1.04-1.18-1.07-1.81-2.45-1.69-4.18,.09-1.27,.54-2.38,1.43-3.22,1.68-1.59,4.31-1.44,5.81,.35,.87,1.03,1.21,2.3,1.1,3.7-.11,1.39-.71,2.5-1.7,3.35,.64,.35,1.25,.69,1.83,1.01,.49-.57,.95-1.22,1.52-1.73,.56-.51,1.23-.88,1.86-1.32-.89-.9-1.41-2.05-1.29-3.49,.09-1.08,.45-2.02,1.2-2.73,1.44-1.39,3.73-1.28,5.03,.22,1.43,1.65,1.31,3.97-.35,6.08Zm-12.29,9.7c1.42,0,2.84,.02,4.26,0,1.46-.02,2.27-1.58,1.55-3-1.25-2.49-3.2-3.74-5.71-3.77-2.54-.03-4.53,1.19-5.83,3.68-.81,1.55,.01,3.09,1.62,3.1,1.37,0,2.75,0,4.12,0Zm5.35-5.96c.55,.88,1.04,1.68,1.54,2.46,.06,.1,.2,.2,.3,.2,2.18,0,4.36,.02,6.54,0,1-.01,1.64-1.23,1.16-2.22-.97-2.02-2.51-3.16-4.55-3.29-2.18-.14-3.85,.93-5,2.86Zm-10.68,.01c-.97-1.82-2.81-2.96-4.83-2.88-2.06,.08-3.62,1.17-4.65,3.17-.56,1.08,.06,2.34,1.16,2.36,2.15,.02,4.31,0,6.46,0,.1,0,.24-.06,.29-.15,.52-.81,1.02-1.63,1.56-2.5Zm5.35-2.22c1.73,0,3.03-1.45,3.03-3.37,0-1.92-1.32-3.38-3.04-3.38-1.72,0-3.03,1.47-3.03,3.39,0,1.93,1.3,3.37,3.04,3.37Zm-9.99-7.51c-1.36,0-2.47,1.21-2.49,2.73-.01,1.5,1.1,2.75,2.46,2.76,1.36,0,2.48-1.22,2.49-2.73,0-1.51-1.1-2.75-2.46-2.76Zm20.02,0c-1.37-.02-2.49,1.19-2.51,2.7-.02,1.51,1.08,2.76,2.44,2.79,1.36,.02,2.48-1.18,2.51-2.71,.03-1.5-1.08-2.76-2.44-2.78Z"/>
    <path class="cls-3" d="M27.79,34.18c-.84,0-1.67,0-2.51,0h-2.51s0,0,0,0c-1.47,0-3.02-1.02-3.32-3.29h-1.81c-1.4,0-2.8,0-4.2,0-1.55,0-2.74-1.16-2.94-2.87-.08-.66,.04-1.31,.35-1.93,.76-1.53,1.88-2.67,3.31-3.4h.01c-.88-1.06-1.25-2.29-1.1-3.66,.13-1.15,.57-2.09,1.3-2.79,.76-.73,1.78-1.11,2.82-1.07,1.06,.04,2.03,.51,2.73,1.3,1.51,1.72,1.48,4.01-.04,6.2,1.18,.59,2.16,1.49,2.92,2.66l1.14-.63c-1.07-1.14-1.55-2.52-1.44-4.12,.1-1.43,.62-2.59,1.54-3.46,.89-.84,2.05-1.26,3.25-1.19,1.21,.07,2.31,.63,3.1,1.57,.91,1.08,1.31,2.42,1.19,3.97-.1,1.26-.58,2.35-1.44,3.24l1.11,.61c.08-.1,.16-.2,.24-.29,.34-.42,.7-.86,1.11-1.24,.41-.37,.87-.67,1.32-.97l.22-.14c-.83-.99-1.2-2.15-1.09-3.46,.1-1.23,.54-2.23,1.31-2.97,.77-.74,1.79-1.13,2.85-1.08,1.06,.05,2.03,.52,2.73,1.33,1.47,1.7,1.43,4.03-.06,6.18,1.48,.74,2.6,1.9,3.36,3.44,.44,.89,.48,1.93,.12,2.85-.33,.83-.94,1.45-1.72,1.74-.32,.12-.7,.18-1.12,.18-1.44,0-2.88,.01-4.32,0h-1.57c-.03,.22-.06,.42-.11,.62-.4,1.61-1.65,2.66-3.18,2.67-1.18,0-2.37,0-3.55,0Zm-5.02-.75h2.51c2.02,0,4.04,0,6.06,0,1.18,0,2.14-.83,2.46-2.1,.04-.18,.07-.36,.1-.56l.1-.64h2.21c1.44,0,2.88,0,4.32,0,.34,0,.63-.05,.86-.14,.58-.22,1.04-.69,1.28-1.32,.29-.72,.25-1.54-.09-2.25-.75-1.54-1.87-2.61-3.41-3.28l-.45-.19,.3-.38c1.53-1.95,1.67-4.09,.37-5.6-.56-.65-1.34-1.03-2.2-1.07-.85-.03-1.67,.27-2.29,.87-.63,.61-1,1.45-1.08,2.49-.1,1.23,.29,2.3,1.18,3.2l.31,.32-.37,.25c-.2,.14-.4,.27-.59,.4-.44,.29-.86,.56-1.23,.89-.37,.34-.71,.75-1.04,1.16-.15,.18-.3,.37-.45,.54l-.2,.23-2.57-1.41,.41-.35c.94-.82,1.47-1.86,1.57-3.09,.1-1.34-.24-2.5-1.01-3.43-.66-.78-1.57-1.25-2.57-1.31-1-.05-1.96,.29-2.69,.99-.78,.74-1.22,1.74-1.31,2.97-.11,1.53,.42,2.83,1.57,3.87l.39,.35-2.67,1.47-.18-.32c-.78-1.33-1.85-2.29-3.18-2.86l-.45-.19,.3-.38c1.56-2,1.69-4.1,.35-5.62-.56-.64-1.34-1.02-2.2-1.05-.84-.04-1.66,.27-2.27,.86-.6,.58-.97,1.37-1.08,2.34-.15,1.33,.25,2.45,1.23,3.42l.37,.37-.93,.46c-1.28,.65-2.29,1.68-2.97,3.06-.24,.49-.34,1-.27,1.51,.16,1.32,1.04,2.2,2.2,2.21,1.4,0,2.8,0,4.2,0h2.49s.03,.35,.03,.35c.15,2.04,1.42,2.95,2.61,2.95h0Zm6.83-.54c-.43,0-.86,0-1.29,0h-1.29s-1.24,0-1.24,0c-.96,0-1.92,0-2.88,0-.85,0-1.58-.39-1.98-1.06-.44-.73-.43-1.7,.03-2.59,1.33-2.54,3.43-3.88,6.07-3.88,.03,0,.06,0,.1,0,2.66,.03,4.75,1.41,6.04,3.98,.42,.83,.41,1.77-.04,2.5-.4,.65-1.07,1.04-1.85,1.05-.56,0-1.13,.01-1.69,.01Zm-2.57-.76h1.29c.99,0,1.98,0,2.97,0,.51,0,.96-.26,1.21-.68,.31-.51,.31-1.17,0-1.77-1.18-2.34-2.99-3.54-5.38-3.57-.03,0-.06,0-.09,0-2.38,0-4.2,1.17-5.41,3.48-.34,.65-.36,1.35-.05,1.86,.27,.45,.75,.69,1.34,.7,.96,0,1.92,0,2.88,0h1.24Zm-10.91-2.54c-.92,0-1.83,0-2.74-.01-.61,0-1.14-.31-1.46-.84-.36-.6-.38-1.39-.03-2.06,1.11-2.15,2.78-3.29,4.97-3.38,2.13-.08,4.11,1.09,5.17,3.08l.1,.19-.47,.76c-.41,.66-.8,1.3-1.21,1.92-.14,.22-.41,.32-.61,.32h-.68c-1.01,0-2.03,.01-3.04,.01Zm.95-5.54c-.06,0-.12,0-.19,0-1.9,.08-3.36,1.08-4.33,2.97-.23,.44-.22,.94,0,1.33,.11,.18,.36,.48,.82,.48,1.93,.02,3.85,.01,5.78,0h.68c.38-.6,.77-1.24,1.18-1.89l.24-.39c-.91-1.56-2.49-2.5-4.19-2.5Zm20.8,5.54c-1.08,0-2.15,0-3.23-.01h-.43c-.26,0-.5-.19-.61-.37-.39-.6-.77-1.21-1.17-1.86l-.5-.8,.12-.2c1.28-2.13,3.13-3.19,5.35-3.04,2.14,.14,3.82,1.35,4.86,3.5,.3,.62,.26,1.36-.1,1.94-.32,.52-.83,.82-1.39,.82-.96,.01-1.93,.02-2.89,.02Zm-5.06-3.05l.26,.41c.4,.64,.78,1.25,1.16,1.85l.42,.03c2.04,.01,4.07,.02,6.1,0,.31,0,.58-.17,.77-.47,.23-.36,.25-.83,.06-1.22-.93-1.92-2.35-2.96-4.23-3.08-1.88-.12-3.41,.71-4.53,2.48Zm-5.78-1.83c-.95,0-1.81-.38-2.44-1.08-.62-.69-.96-1.63-.96-2.66,0-1.02,.34-1.96,.97-2.66,.63-.71,1.5-1.1,2.44-1.1h0c.94,0,1.8,.39,2.44,1.09,.63,.7,.97,1.64,.97,2.66,0,1.02-.34,1.97-.96,2.66-.63,.7-1.5,1.09-2.45,1.09h0Zm0-6.75h0c-.72,0-1.39,.3-1.88,.85-.5,.56-.78,1.33-.77,2.16,0,.84,.27,1.61,.77,2.16,.49,.54,1.16,.84,1.89,.84h0c.73,0,1.4-.3,1.89-.84,.5-.55,.77-1.32,.77-2.16,0-.83-.28-1.6-.78-2.16-.49-.55-1.16-.85-1.88-.85Zm-10,4.74h-.02c-.76,0-1.48-.34-2.02-.95-.53-.59-.82-1.37-.81-2.19,.01-1.71,1.29-3.1,2.85-3.1h.01c.71,0,1.39,.3,1.91,.83,.59,.6,.93,1.44,.92,2.31,0,.87-.35,1.71-.95,2.3-.53,.52-1.2,.8-1.9,.8Zm0-5.49c-1.15,0-2.09,1.06-2.1,2.36,0,.63,.21,1.23,.62,1.69,.4,.44,.92,.69,1.47,.7,.51,0,1-.21,1.39-.59,.46-.45,.72-1.1,.73-1.77,0-.67-.25-1.32-.7-1.78-.38-.39-.88-.6-1.39-.61h0Zm20,5.49h-.05c-1.57-.03-2.83-1.45-2.81-3.17,.02-1.7,1.3-3.07,2.86-3.07h.03c.71,0,1.39,.31,1.91,.85,.58,.6,.91,1.45,.89,2.31-.03,1.71-1.3,3.07-2.84,3.07Zm0-5.49c-1.15,0-2.09,1.04-2.11,2.33-.02,1.31,.91,2.38,2.07,2.41,1.13,.05,2.1-1.03,2.12-2.34,.01-.67-.24-1.31-.68-1.78-.38-.4-.88-.62-1.38-.62h-.02Z"/>
  </g>
</svg>