<svg xmlns="http://www.w3.org/2000/svg" width="29.668" height="30.116"><g fill="#b8b8b8"><path data-name="Path 956" d="M28.138 0h-3.689a1.532 1.532 0 00-1.531 1.531v23.384a.635.635 0 00.091.273l2.732 4.615a.638.638 0 001.1 0l2.732-4.615a.822.822 0 00.091-.278V1.531A1.532 1.532 0 0028.138 0zm-3.943 24.218V5.3h1.461v18.918zM26.932 5.3h1.461v18.918h-1.461zm-2.737-3.765a.255.255 0 01.255-.255h3.689a.255.255 0 01.255.255V4.02h-4.2zm2.1 26.7l-1.618-2.732h3.235z"/><path data-name="Path 957" d="M7.12 7.726a4.11 4.11 0 104.11 4.11 4.115 4.115 0 00-4.11-4.11zm0 6.945a2.834 2.834 0 112.834-2.834 2.837 2.837 0 01-2.834 2.834z"/><path data-name="Path 958" d="M7.425 10.845l-.518.518-.175-.1a.638.638 0 10-.629 1.11l.6.338a.638.638 0 00.766-.1l.862-.862a.638.638 0 10-.9-.9z"/><path data-name="Path 959" d="M20.77 12.152h-7.821a.638.638 0 100 1.276h7.821a.638.638 0 000-1.276z"/><path data-name="Path 960" d="M12.949 9.604a.638.638 0 000 1.276h5.085a.638.638 0 100-1.276z"/><path data-name="Path 961" d="M7.12 18.431a4.11 4.11 0 104.11 4.11 4.115 4.115 0 00-4.11-4.11zm0 6.945a2.834 2.834 0 112.834-2.834 2.837 2.837 0 01-2.834 2.834z"/><path data-name="Path 962" d="M7.425 21.551l-.518.518-.175-.1a.638.638 0 10-.629 1.11l.6.339a.638.638 0 00.766-.1l.862-.862a.638.638 0 00-.9-.9z"/><path data-name="Path 963" d="M20.77 22.854h-7.821a.638.638 0 100 1.276h7.821a.638.638 0 100-1.276z"/><path data-name="Path 964" d="M12.949 21.585h5.085a.638.638 0 100-1.276h-5.085a.638.638 0 000 1.276z"/><path data-name="Path 965" d="M22.716.032H1.7a1.7 1.7 0 00-1.7 1.7v26.65a1.7 1.7 0 001.7 1.7h21.016a1.7 1.7 0 001.7-1.7V1.732a1.7 1.7 0 00-1.7-1.7zm.426 28.35a.426.426 0 01-.426.426H1.7a.426.426 0 01-.426-.426V1.732a.426.426 0 01.426-.426h21.016a.426.426 0 01.426.426z"/><path data-name="Path 966" d="M5.714 5.656h12.991a.638.638 0 000-1.276H5.714a.638.638 0 000 1.276z"/></g></svg>