<svg width="25" height="25" viewBox="0 0 25 25" fill="none" xmlns="http://www.w3.org/2000/svg">
<g clip-path="url(#clip0_6692_15867)">
<path d="M2.89173 22.5868L0.4375 24.4878V9.61279L2.89173 11.2422V22.5868Z" fill="#FFE6E5"/>
<path d="M5.91517 13.7579L3.46094 11.8313V2.5415H5.91517V13.7579Z" fill="#FFE6E5"/>
<path d="M2.30786 7.82446C2.41347 7.97306 2.49896 8.08578 2.59955 8.22413C2.02119 8.65967 1.46296 9.07984 0.874543 9.52563C1.05559 9.66398 1.2115 9.78695 1.3674 9.9048C4.94817 12.5847 8.53397 15.2645 12.1147 17.9392C12.3729 18.1339 12.6311 18.1339 12.8892 17.9392C16.5153 15.2286 20.1363 12.518 23.7623 9.80745C23.878 9.72034 23.9886 9.63323 24.1345 9.5205C23.546 9.07472 22.9828 8.65455 22.3994 8.21901C22.505 8.07554 22.6006 7.95256 22.7011 7.81934C23.365 8.31636 24.0138 8.78777 24.6424 9.2848C24.748 9.36678 24.7983 9.57174 24.7983 9.72034C24.8084 12.7076 24.8033 15.6898 24.8033 18.6771C24.8033 20.3988 24.8033 22.1204 24.8033 23.8421C24.8033 24.5236 24.5318 24.8003 23.8629 24.8003C16.2839 24.8003 8.70496 24.8003 1.13103 24.8003C0.457122 24.8003 0.190576 24.5287 0.190576 23.8472C0.190576 19.1485 0.190576 14.4549 0.185547 9.75621C0.185547 9.50001 0.255955 9.33092 0.46718 9.18232C1.08074 8.74678 1.67418 8.28562 2.30283 7.81934L2.30786 7.82446ZM9.98237 16.9708C7.05539 19.4098 4.15356 21.8284 1.20647 24.2827H23.8076C20.8554 21.8232 17.9536 19.4047 15.0317 16.9708C14.3829 17.4576 13.7392 17.9392 13.0954 18.4158C12.6277 18.7642 12.3813 18.7591 11.9136 18.4106C11.2799 17.9341 10.6412 17.4627 9.9874 16.9708H9.98237ZM0.723668 10.0483V24.0266C3.68585 21.5568 6.61283 19.1178 9.56495 16.6582C6.6078 14.4498 3.68082 12.2618 0.723668 10.0483ZM24.2803 24.0266V10.0483C21.3181 12.2618 18.3962 14.4498 15.439 16.6582C18.3911 19.1178 21.3181 21.5568 24.2803 24.0266Z" fill="#FF4949"/>
<path d="M23.8684 24.9949H1.13659C0.357071 24.9949 0.00502917 24.6413 0.00502917 23.8522V20.7881C0.00502917 17.1142 0.00502917 13.4403 0 9.76122C0 9.42816 0.110642 9.21295 0.3621 9.02849C0.799638 8.71593 1.22712 8.39311 1.66466 8.06518L2.19272 7.67063C2.27821 7.60914 2.38886 7.62964 2.45423 7.71162L2.74593 8.11129C2.7761 8.15229 2.78616 8.20353 2.78113 8.25477C2.7761 8.30601 2.74593 8.35212 2.70569 8.37774L1.18185 9.52552L1.47355 9.75097L12.2209 17.7854C12.4975 17.9904 12.4975 17.9955 12.7741 17.7854L23.8232 9.52552L22.2943 8.37262C22.2541 8.34187 22.2289 8.29576 22.2189 8.24452C22.2088 8.19328 22.2239 8.14204 22.2541 8.10105L22.5558 7.70137C22.6162 7.61939 22.7318 7.60402 22.8123 7.66551L23.3102 8.03443C23.8031 8.39824 24.2909 8.76204 24.7636 9.13609C24.9447 9.27957 24.995 9.57163 24.995 9.72023C25 12.1746 25 14.6239 25 17.0783V23.842C25 24.6259 24.6429 24.9898 23.8735 24.9898L23.8684 24.9949ZM2.26816 8.0908L1.89097 8.37262C1.4484 8.70568 1.02092 9.02849 0.578354 9.34618C0.427479 9.45378 0.377188 9.56139 0.377188 9.76635C0.382217 13.4403 0.382217 17.1142 0.382217 20.7932V23.8573C0.382217 24.4364 0.568296 24.6208 1.13659 24.6208H23.8684C24.4418 24.6208 24.6228 24.4364 24.6228 23.8522V17.0885C24.6228 14.6393 24.6228 12.1849 24.6178 9.7356C24.6178 9.60238 24.5675 9.47428 24.5323 9.44866C24.0646 9.07461 23.5818 8.71593 23.0889 8.35725L22.7419 8.09592L22.6665 8.19328L24.2456 9.38205C24.2909 9.41791 24.3211 9.47428 24.3211 9.53577C24.3211 9.59725 24.2959 9.65362 24.2456 9.68949L23.8684 9.97643L12.9954 18.1082C12.5427 18.4464 12.4522 18.4464 11.9996 18.1082L0.759405 9.67924C0.714142 9.64337 0.683967 9.58701 0.683967 9.52552C0.683967 9.46403 0.714142 9.40767 0.759405 9.3718L2.33353 8.18303L2.26313 8.08567L2.26816 8.0908ZM23.8081 24.4774H1.20197C1.1215 24.4774 1.0511 24.4261 1.02595 24.3493C1.0008 24.2724 1.02595 24.1904 1.0863 24.1392L9.8622 16.8272C9.92758 16.7709 10.0231 16.7709 10.0885 16.8221L12.0147 18.2619C12.422 18.5643 12.5729 18.5694 12.9803 18.2619C13.4581 17.9084 13.9358 17.5548 14.4136 17.1961L14.9215 16.817C14.992 16.7657 15.0825 16.7709 15.1479 16.8221L23.9238 24.134C23.9841 24.1853 24.0093 24.2673 23.9841 24.3441C23.959 24.421 23.8886 24.4722 23.8081 24.4722V24.4774ZM1.72501 24.0982H23.2851L15.0272 17.2166L14.6399 17.5087C14.1621 17.8674 13.6844 18.2209 13.2066 18.5745C12.6785 18.9691 12.3366 18.9691 11.8035 18.5694L9.99296 17.2166L1.72501 24.0931V24.0982ZM0.7242 24.2263C0.699055 24.2263 0.66888 24.2212 0.643734 24.2058C0.578354 24.175 0.538121 24.1084 0.538121 24.0367V10.0482C0.538121 9.97643 0.578354 9.90982 0.638704 9.87907C0.704084 9.84833 0.774492 9.85345 0.834842 9.89445L9.67612 16.5095C9.72138 16.5454 9.75156 16.5966 9.75156 16.6581C9.75156 16.7196 9.72641 16.7709 9.68115 16.8118L0.839871 24.175C0.804667 24.2058 0.764434 24.216 0.7242 24.216V24.2263ZM0.91028 10.4325V23.637L9.26373 16.6786L0.91028 10.4222V10.4325ZM24.2808 24.2263C24.2406 24.2263 24.1953 24.2109 24.1652 24.1853L15.3239 16.817C15.2786 16.7811 15.2535 16.7247 15.2535 16.6633C15.2535 16.6018 15.2836 16.5505 15.3289 16.5147L24.1702 9.90469C24.2255 9.8637 24.3009 9.85858 24.3663 9.88932C24.4267 9.92007 24.4669 9.98668 24.4669 10.0584V24.0367C24.4669 24.1084 24.4267 24.175 24.3613 24.2058C24.3361 24.216 24.306 24.2263 24.2808 24.2263ZM15.7463 16.6786L24.0948 23.637V10.4222L15.7463 16.6684V16.6786Z" fill="#FF4949"/>
<path d="M21.7968 10.2123H21.2939V9.8434C21.2939 7.54785 21.2939 5.75445 21.2939 3.45889C21.2939 2.97724 21.2687 2.95162 20.806 2.95162C15.2689 2.95162 9.73685 2.95162 4.19973 2.95162C3.73705 2.95162 3.7119 2.97724 3.7119 3.45377C3.7119 5.74932 3.7119 7.54272 3.7119 9.83828V10.197H3.20898V9.87927C3.20898 7.55297 3.20898 5.72883 3.20898 3.40253C3.20898 2.71591 3.47553 2.45459 4.15447 2.45459C9.72176 2.45459 15.289 2.45459 20.8563 2.45459C21.5403 2.45459 21.8018 2.72104 21.8018 3.40253C21.8018 5.72883 21.8018 7.55297 21.8018 9.87927C21.8018 9.98175 21.8018 10.0842 21.8018 10.2072L21.7968 10.2123Z" fill="#FF4949"/>
<path d="M21.7973 10.4072H21.2944C21.1888 10.4072 21.1083 10.3201 21.1083 10.2176V3.46415C21.1083 3.37704 21.1083 3.1977 21.0882 3.16184C21.0631 3.15159 20.8921 3.15159 20.8066 3.15159H4.20026C4.1198 3.15159 3.94378 3.15159 3.90857 3.17208C3.89851 3.20283 3.89851 3.37704 3.89851 3.46415V10.2073C3.89851 10.3149 3.81302 10.3969 3.71243 10.3969H3.20952C3.1039 10.3969 3.02344 10.3098 3.02344 10.2073V3.40779C3.02344 2.61869 3.37045 2.26514 4.155 2.26514H20.8518C21.6364 2.26514 21.9834 2.61869 21.9834 3.40266V10.2125C21.9834 10.3201 21.8979 10.402 21.7973 10.402V10.4072ZM21.4805 10.028H21.6112V3.40779C21.6112 2.82365 21.4352 2.64944 20.8518 2.64944H4.155C3.57665 2.64944 3.3956 2.82878 3.3956 3.40779V10.0126H3.52635V3.46415C3.52635 2.88002 3.63197 2.76729 4.20529 2.76729H20.8066C21.3749 2.76729 21.4805 2.88002 21.4805 3.46415V10.028Z" fill="#FF4949"/>
<path d="M13.9971 1.3069C13.8865 1.4555 13.801 1.56822 13.6953 1.7117C13.3735 1.47599 13.0617 1.25566 12.7649 1.01483C12.5789 0.866236 12.423 0.87136 12.2369 1.01996C11.9452 1.25566 11.6384 1.47087 11.3165 1.7117C11.216 1.5836 11.1254 1.46062 11.0098 1.31202C11.4071 1.01996 11.7742 0.733012 12.1614 0.476812C12.3978 0.323092 12.6694 0.348712 12.9007 0.507556C13.2578 0.758632 13.6048 1.02508 13.9921 1.3069H13.9971Z" fill="#FF4949"/>
<path d="M13.6951 1.90117C13.6548 1.90117 13.6196 1.89093 13.5844 1.86531L13.2978 1.65522C13.0765 1.49125 12.8602 1.33241 12.649 1.16332C12.5333 1.07109 12.473 1.07109 12.3523 1.16332C12.1461 1.33241 11.9298 1.48613 11.7035 1.65522L11.4219 1.86018C11.3414 1.92167 11.2257 1.9063 11.1654 1.82431L10.8586 1.42464C10.8284 1.38365 10.8134 1.33241 10.8234 1.28117C10.8284 1.22993 10.8586 1.18381 10.8989 1.15307C11.0196 1.06596 11.1352 0.978854 11.2509 0.891746C11.5225 0.686786 11.779 0.497198 12.0556 0.312734C12.3473 0.123146 12.6993 0.138518 13.001 0.348602C13.2525 0.522818 13.4989 0.707282 13.7554 0.901994L14.0924 1.15307C14.1326 1.18381 14.1628 1.22993 14.1678 1.28117C14.1728 1.33241 14.1628 1.38365 14.1326 1.42464L13.8309 1.82431C13.7957 1.87555 13.7403 1.90117 13.685 1.90117H13.6951ZM11.276 1.34778L11.3515 1.45026L11.4873 1.34778C11.7085 1.18894 11.9147 1.03522 12.1209 0.87125C12.3774 0.661166 12.6239 0.661166 12.8803 0.866126C13.0865 1.03009 13.2978 1.18894 13.519 1.34778L13.6599 1.45026L13.7353 1.34778L13.5492 1.20943C13.2927 1.01985 13.0513 0.840506 12.7999 0.66629C12.6943 0.594554 12.4881 0.492074 12.2668 0.635546C12.0002 0.809762 11.7438 1.00447 11.4772 1.19919C11.4118 1.25043 11.3464 1.29654 11.276 1.34778Z" fill="#FF4949"/>
<path d="M14.614 5.91848C15.122 6.17468 15.5092 6.53848 15.7808 6.99964C16.0524 7.46593 16.1882 7.99882 16.1882 8.59833C16.1882 9.07999 16.1127 9.53602 15.9568 9.97156C15.8009 10.4071 15.5796 10.7658 15.293 11.0374C15.0063 11.3089 14.6643 11.4473 14.2771 11.4473C13.9753 11.4473 13.744 11.3653 13.5881 11.2013C13.4322 11.0374 13.3467 10.817 13.3316 10.5301C13.1405 10.8119 12.8991 11.0374 12.6024 11.2013C12.3057 11.3653 11.9939 11.4473 11.6569 11.4473C11.1892 11.4473 10.8221 11.3038 10.5605 11.022C10.299 10.7402 10.1683 10.3559 10.1683 9.86908C10.1683 9.41305 10.2638 8.98776 10.4549 8.59321C10.646 8.19866 10.9126 7.87585 11.2495 7.64014C11.5865 7.39932 11.9737 7.28146 12.4062 7.28146C12.713 7.28146 12.9745 7.34808 13.1858 7.48642C13.397 7.61965 13.5529 7.81948 13.6434 8.07568L13.7641 7.39419H14.3274L13.8546 10.0792C13.8345 10.1919 13.8295 10.2893 13.8295 10.3815C13.8295 10.7914 14.0105 11.0015 14.3676 11.0015C14.6342 11.0015 14.8605 10.8836 15.0566 10.6428C15.2528 10.402 15.3986 10.0997 15.4992 9.73586C15.5998 9.37206 15.6501 9.00313 15.6501 8.64445C15.6501 8.1013 15.5344 7.63502 15.303 7.23535C15.0717 6.83568 14.7398 6.53336 14.3073 6.32328C13.8748 6.11319 13.3618 6.00559 12.7734 6.00559C12.0341 6.00559 11.3652 6.18493 10.7667 6.54873C10.1683 6.91254 9.70055 7.40444 9.35857 8.02444C9.02161 8.64445 8.85062 9.33106 8.85062 10.0792C8.84559 10.9144 9.09705 11.5651 9.61003 12.0314C10.123 12.4977 10.8221 12.7283 11.7122 12.7283C12.2755 12.7283 12.7834 12.6258 13.2411 12.4157L13.3417 12.8666C12.7985 13.087 12.2101 13.1997 11.5764 13.1997C10.9428 13.1997 10.3594 13.0767 9.86651 12.8256C9.37365 12.5746 8.99144 12.221 8.71986 11.7598C8.44829 11.2987 8.3125 10.7607 8.3125 10.1458C8.3125 9.29007 8.50864 8.51122 8.90091 7.80924C9.29319 7.10725 9.83634 6.54873 10.5304 6.14394C11.2244 5.73914 12.0039 5.53418 12.8689 5.53418C13.5328 5.53418 14.1212 5.66228 14.6291 5.9236L14.614 5.91848ZM12.6074 10.7248C12.8438 10.5762 13.0349 10.3712 13.1858 10.1048C13.3366 9.83834 13.4322 9.54115 13.4674 9.20296C13.4775 9.09024 13.4875 9.01338 13.4875 8.96214C13.4875 8.61883 13.392 8.33701 13.2059 8.11668C13.0198 7.89634 12.7533 7.78874 12.4062 7.78874C12.0793 7.78874 11.7927 7.8861 11.5463 8.07568C11.2998 8.26527 11.1087 8.51635 10.9729 8.81866C10.8371 9.12098 10.7718 9.44379 10.7718 9.78198C10.7718 10.1407 10.8623 10.4225 11.0484 10.6326C11.2344 10.8426 11.501 10.9451 11.843 10.9451C12.1196 10.9451 12.3761 10.8734 12.6124 10.7248H12.6074Z" fill="#FF4949"/>
<path d="M11.5672 13.3892C10.8933 13.3892 10.2898 13.2559 9.77178 12.9946C9.24875 12.7282 8.83636 12.349 8.5497 11.8571C8.26303 11.3703 8.11719 10.7913 8.11719 10.1457C8.11719 9.25922 8.32338 8.4445 8.73075 7.71177C9.13811 6.97904 9.7064 6.3949 10.4306 5.97473C11.1498 5.55456 11.9645 5.33936 12.8597 5.33936C13.5537 5.33936 14.1723 5.4777 14.7004 5.74928C15.2385 6.02085 15.6559 6.41027 15.9426 6.9073C16.2292 7.3992 16.3751 7.97309 16.3751 8.60334C16.3751 9.10037 16.2946 9.58715 16.1337 10.0432C15.9677 10.5043 15.7313 10.8886 15.4195 11.1858C15.0977 11.4933 14.7104 11.647 14.2729 11.647C13.9208 11.647 13.6442 11.5445 13.4481 11.3447C13.3475 11.2371 13.2721 11.1141 13.2168 10.9706C13.0609 11.1295 12.8798 11.2678 12.6837 11.3754C12.3618 11.5548 12.0148 11.6419 11.6527 11.6419C11.1297 11.6419 10.7173 11.4779 10.4205 11.1602C10.1238 10.8425 9.97798 10.4121 9.97798 9.87922C9.97798 9.39756 10.0836 8.94153 10.2848 8.51624C10.491 8.09094 10.7776 7.74764 11.1447 7.49144C11.5119 7.23011 11.9394 7.09689 12.4071 7.09689C12.7491 7.09689 13.0458 7.17375 13.2872 7.32747C13.3878 7.38896 13.4733 7.46582 13.5487 7.5478L13.5839 7.35821C13.599 7.26598 13.6794 7.19937 13.77 7.19937H14.3332C14.3886 7.19937 14.4389 7.22499 14.4741 7.26598C14.5093 7.30697 14.5243 7.36846 14.5143 7.4197L14.0415 10.1047C14.0265 10.202 14.0164 10.2943 14.0164 10.3762C14.0164 10.7298 14.1572 10.8015 14.3684 10.8015C14.5797 10.8015 14.7557 10.7042 14.9116 10.5095C15.0876 10.2891 15.2234 10.0073 15.319 9.66914C15.4145 9.3207 15.4648 8.97227 15.4648 8.62896C15.4648 8.12681 15.3592 7.68615 15.1429 7.31722C14.9267 6.95342 14.63 6.67672 14.2276 6.47688C13.8253 6.27705 13.3324 6.17969 12.7742 6.17969C12.0701 6.17969 11.4264 6.35391 10.8631 6.69722C10.2948 7.04052 9.84722 7.51193 9.52536 8.10119C9.20349 8.69045 9.03753 9.35145 9.03753 10.0637C9.0325 10.8528 9.25881 11.442 9.73155 11.8725C10.2043 12.3029 10.8681 12.5232 11.708 12.5232C12.2411 12.5232 12.7289 12.4207 13.1564 12.226C13.2067 12.2004 13.2671 12.2055 13.3173 12.226C13.3676 12.2516 13.4028 12.2977 13.4179 12.3541L13.5185 12.805C13.5386 12.8973 13.4934 12.9895 13.4079 13.0254C12.8446 13.2559 12.226 13.3738 11.5722 13.3738L11.5672 13.3892ZM12.8547 5.72366C12.0299 5.72366 11.2755 5.91837 10.6117 6.30779C9.95283 6.69209 9.42477 7.23011 9.05261 7.90136C8.68045 8.5726 8.48935 9.33095 8.48935 10.1457C8.48935 10.7247 8.61508 11.232 8.87156 11.6624C9.12302 12.0877 9.48009 12.4207 9.94278 12.6564C10.4105 12.8921 10.9587 13.01 11.5722 13.01C12.1204 13.01 12.6434 12.9229 13.1212 12.7487L13.1061 12.6769C12.6837 12.8409 12.2109 12.9178 11.713 12.9178C10.7826 12.9178 10.0333 12.6667 9.49015 12.1748C8.93694 11.6726 8.66034 10.9706 8.6704 10.0791C8.6704 9.30021 8.85145 8.57772 9.20349 7.9321C9.55553 7.28648 10.0534 6.76383 10.677 6.38465C11.3007 6.00548 12.0098 5.81076 12.7792 5.81076C13.3978 5.81076 13.941 5.92349 14.3936 6.14895C14.8563 6.37953 15.2184 6.70746 15.4698 7.13788C15.7163 7.56317 15.842 8.07045 15.842 8.63921C15.842 9.01839 15.7867 9.40269 15.6811 9.78186C15.5754 10.1713 15.4095 10.4992 15.2033 10.7605C14.9719 11.0475 14.6903 11.191 14.3684 11.191C13.9108 11.191 13.6442 10.8938 13.6442 10.3814C13.6442 10.2789 13.6543 10.1662 13.6744 10.0432L14.1069 7.58367H13.9208L13.8303 8.11144C13.8152 8.19855 13.7448 8.26004 13.6644 8.26516C13.5789 8.27028 13.5034 8.22417 13.4733 8.14218C13.3928 7.92185 13.2671 7.76301 13.091 7.64516C12.91 7.53243 12.6786 7.47094 12.4071 7.47094C12.0148 7.47094 11.6628 7.57854 11.356 7.79888C11.0442 8.01921 10.7977 8.3164 10.6217 8.6802C10.4457 9.04913 10.3552 9.4488 10.3552 9.8741C10.3552 10.2994 10.4658 10.6478 10.6972 10.8938C10.9235 11.1397 11.2403 11.2576 11.6577 11.2576C11.9595 11.2576 12.2461 11.1807 12.5127 11.0372C12.7038 10.9348 12.8698 10.8015 13.0156 10.6376C12.92 10.7298 12.8195 10.8118 12.7088 10.8784C12.4473 11.0424 12.1556 11.1295 11.8438 11.1295C11.4465 11.1295 11.1297 11.0014 10.9084 10.7503C10.6921 10.5095 10.5815 10.1815 10.5815 9.77674C10.5815 9.41294 10.6569 9.0645 10.8028 8.73657C10.9536 8.40351 11.1649 8.13194 11.4314 7.92185C11.713 7.70664 12.0399 7.59904 12.4071 7.59904C12.8044 7.59904 13.1212 7.73226 13.3475 7.99359C13.5638 8.24466 13.6744 8.5726 13.6744 8.96202C13.6744 9.01326 13.6694 9.10037 13.6543 9.22335C13.6141 9.58715 13.5135 9.91509 13.3475 10.202C13.3123 10.2635 13.2771 10.3199 13.2369 10.3711C13.2771 10.3455 13.3324 10.3404 13.3777 10.3558C13.4531 10.3762 13.5085 10.448 13.5135 10.53C13.5235 10.7657 13.5889 10.945 13.7147 11.0731C13.8354 11.2012 14.0164 11.2627 14.2729 11.2627C14.6149 11.2627 14.9066 11.1448 15.1631 10.904C15.4296 10.6529 15.6358 10.3199 15.7816 9.91509C15.9275 9.50004 16.0029 9.05938 16.0029 8.60334C16.0029 8.0397 15.8772 7.53243 15.6207 7.10201C15.3692 6.6716 15.0021 6.33341 14.5294 6.09258C14.0516 5.84663 13.4883 5.72366 12.8547 5.72366ZM12.402 7.98334C12.1154 7.98334 11.8689 8.06532 11.6527 8.22929C11.4314 8.39838 11.2604 8.62384 11.1347 8.90054C11.009 9.17723 10.9486 9.47442 10.9486 9.78699C10.9486 10.0996 11.024 10.3353 11.18 10.5095C11.3308 10.6786 11.5471 10.7605 11.8388 10.7605C12.0852 10.7605 12.3015 10.6991 12.5077 10.5658C12.7138 10.4377 12.8899 10.2481 13.0206 10.0124C13.1564 9.77162 13.2469 9.49492 13.2771 9.18236C13.2872 9.07988 13.2972 9.00814 13.2972 8.96202C13.2972 8.66483 13.2218 8.42913 13.0609 8.24466C12.91 8.06532 12.6937 7.98334 12.402 7.98334Z" fill="#FF4949"/>
</g>
<defs>
<clipPath id="clip0_6692_15867">
<rect width="25" height="25" fill="white"/>
</clipPath>
</defs>
</svg>
