<svg width="23" height="23" viewBox="0 0 23 23" fill="none" xmlns="http://www.w3.org/2000/svg">
<g clip-path="url(#clip0_4120_1121)">
<path fill-rule="evenodd" clip-rule="evenodd" d="M11.5928 22.5925C5.51764 22.5925 0.592773 17.6677 0.592773 11.5925C0.592773 5.5174 5.51764 0.592529 11.5928 0.592529C17.6679 0.592529 22.5928 5.5174 22.5928 11.5925C22.5928 17.6677 17.6679 22.5925 11.5928 22.5925ZM11.1854 7.72178C11.1854 7.60949 11.2726 7.51846 11.391 7.51846H11.7946C11.9081 7.51846 12.0002 7.60484 12.0002 7.72178V13.4262C12.0002 13.5385 11.913 13.6296 11.7946 13.6296H11.391C11.2774 13.6296 11.1854 13.5432 11.1854 13.4262V7.72178ZM11.1854 14.6462C11.1854 14.5347 11.2726 14.4444 11.391 14.4444H11.7946C11.9081 14.4444 12.0002 14.5403 12.0002 14.6462V15.4648C12.0002 15.5762 11.913 15.6666 11.7946 15.6666H11.391C11.2774 15.6666 11.1854 15.5707 11.1854 15.4648V14.6462ZM11.5928 21.7777C17.2179 21.7777 21.778 17.2177 21.778 11.5925C21.778 5.96741 17.2179 1.40734 11.5928 1.40734C5.96765 1.40734 1.40759 5.96741 1.40759 11.5925C1.40759 17.2177 5.96765 21.7777 11.5928 21.7777Z" fill="#5100B9"/>
</g>
<defs>
<clipPath id="clip0_4120_1121">
<rect width="23" height="23" fill="white"/>
</clipPath>
</defs>
</svg>
