<svg width="22" height="22" viewBox="0 0 22 22" fill="none" xmlns="http://www.w3.org/2000/svg">
<g clip-path="url(#clip0_4120_1817)">
<path d="M21.5509 8.75498H19.7563C19.526 7.72772 19.1215 6.75433 18.5517 5.85592L19.8232 4.58441C19.9108 4.49686 19.9108 4.35453 19.8232 4.26698L17.2838 1.7271C17.1994 1.6427 17.0503 1.6427 16.9664 1.7271L15.6949 2.99862C14.7969 2.42886 13.8235 2.02433 12.7958 1.794V-0.000119582C12.7958 -0.124038 12.6952 -0.224609 12.5713 -0.224609H8.97947C8.85555 -0.224609 8.75498 -0.124038 8.75498 -0.000119582V1.79445C7.72727 2.02478 6.75388 2.42931 5.85592 2.99906L4.58396 1.72755C4.49641 1.64 4.35408 1.64 4.26653 1.72755L1.7271 4.26743C1.63955 4.35498 1.63955 4.49731 1.7271 4.58486L2.99862 5.85637C2.42886 6.75433 2.02433 7.72817 1.794 8.75543H-0.000119582C-0.124038 8.75543 -0.224609 8.856 -0.224609 8.97992V12.5718C-0.224609 12.6957 -0.124038 12.7962 -0.000119582 12.7962H1.79445C2.02478 13.8235 2.42931 14.7969 2.99906 15.6953L1.72755 16.9668C1.64 17.0544 1.64 17.1967 1.72755 17.2842L4.26698 19.8237C4.35453 19.9112 4.49686 19.9112 4.58441 19.8237L5.85637 18.5522C6.75433 19.1219 7.72772 19.5265 8.75543 19.7568V21.5509C8.75543 21.6748 8.856 21.7754 8.97992 21.7754H12.5718C12.6957 21.7754 12.7962 21.6748 12.7962 21.5509V19.7563C13.8235 19.526 14.7969 19.1219 15.6953 18.5517L16.9668 19.8232C17.0544 19.9108 17.1967 19.9108 17.2842 19.8232L19.8237 17.2838C19.9112 17.1962 19.9112 17.0539 19.8237 16.9664L18.5522 15.6949C19.1224 14.7965 19.5265 13.8231 19.7568 12.7958H21.5509C21.6748 12.7958 21.7754 12.6952 21.7754 12.5713V8.97947C21.7754 8.85555 21.6748 8.75498 21.5509 8.75498ZM21.3264 12.3468H19.5749C19.4685 12.3468 19.3765 12.4218 19.3549 12.5264C19.1322 13.6224 18.7026 14.6568 18.0776 15.601C18.0188 15.6899 18.0309 15.8085 18.1059 15.8839L19.3473 17.1253L17.1253 19.3473L15.8839 18.1059C15.8085 18.03 15.6904 18.0188 15.601 18.0776C14.6568 18.7026 13.6228 19.1322 12.5264 19.3549C12.4218 19.3765 12.3468 19.4685 12.3468 19.5749V21.3264H9.20396V19.5749C9.20396 19.4685 9.12898 19.3765 9.02437 19.3549C7.92796 19.1322 6.89351 18.7026 5.94976 18.0776C5.86131 18.0188 5.74278 18.0305 5.66735 18.1059L4.42592 19.3473L2.20392 17.1253L3.44535 15.8839C3.52078 15.8085 3.5329 15.6899 3.47364 15.601C2.84866 14.6568 2.41898 13.6228 2.19629 12.5264C2.17519 12.4218 2.08315 12.3468 1.97629 12.3468H0.22437V9.20396H1.97584C2.0827 9.20396 2.17474 9.12898 2.19584 9.02437C2.41853 7.92841 2.84821 6.89396 3.47319 5.94976C3.532 5.86086 3.51988 5.74278 3.4449 5.66735L2.20347 4.42592L4.42547 2.20347L5.6669 3.4449C5.74233 3.52033 5.86086 3.532 5.94931 3.47319C6.89306 2.84821 7.92751 2.41853 9.02392 2.19584C9.12853 2.17474 9.20351 2.0827 9.20351 1.97584V0.22437H12.3464V1.97584C12.3464 2.0827 12.4213 2.17474 12.526 2.19584C13.6224 2.41853 14.6568 2.84821 15.6006 3.47319C15.6899 3.53155 15.808 3.52033 15.8834 3.4449L17.1249 2.20347L19.3469 4.42592L18.1054 5.66735C18.03 5.74278 18.0183 5.86086 18.0771 5.94976C18.7021 6.89396 19.1318 7.92796 19.3545 9.02437C19.376 9.12898 19.4681 9.20396 19.5745 9.20396H21.3264V12.3468Z" fill="#BD0674"/>
<path d="M10.7753 4.26514C7.18575 4.26514 4.26514 7.18575 4.26514 10.7753C4.26514 14.3649 7.18575 17.2855 10.7753 17.2855C14.3649 17.2855 17.2855 14.3649 17.2855 10.7753C17.2855 7.18575 14.3649 4.26514 10.7753 4.26514ZM10.7753 16.8366C7.43314 16.8366 4.71412 14.1175 4.71412 10.7753C4.71412 7.43314 7.43314 4.71412 10.7753 4.71412C14.1175 4.71412 16.8366 7.43314 16.8366 10.7753C16.8366 14.1175 14.1175 16.8366 10.7753 16.8366Z" fill="#BD0674"/>
<path d="M13.1207 7.88084C13.0098 7.82607 12.8755 7.87052 12.8194 7.98141L10.2647 13.0908L8.68924 11.5149C8.60169 11.4273 8.45937 11.4273 8.37182 11.5149C8.28426 11.6024 8.28426 11.7448 8.37182 11.8323L10.1677 13.6282C10.2099 13.6704 10.2674 13.6938 10.3262 13.6938C10.3379 13.6938 10.35 13.6929 10.3621 13.6906C10.4335 13.6794 10.4946 13.6341 10.5269 13.5694L13.2208 8.18166C13.276 8.07121 13.2316 7.93607 13.1207 7.88084Z" fill="#BD0674"/>
</g>
<defs>
<clipPath id="clip0_4120_1817">
<rect width="22" height="22" fill="white"/>
</clipPath>
</defs>
</svg>
