<svg width="35" height="35" viewBox="0 0 35 35" fill="none" xmlns="http://www.w3.org/2000/svg">
<circle cx="17.5" cy="17.5" r="17.5" fill="#FF8B20"/>
<path d="M17.5393 8.42737C12.3933 8.42737 8.20544 12.461 8.20363 17.4183C8.20242 19.0036 8.63306 20.5508 9.4496 21.9135L8.125 26.5725L13.0744 25.3223C14.4511 26.0425 15.982 26.4181 17.5357 26.4171H17.5393C22.6853 26.4171 26.8732 22.3828 26.875 17.4256C26.8762 15.0243 25.906 12.7641 24.1429 11.0651C22.3804 9.36547 20.0367 8.42797 17.5393 8.42737ZM17.5393 24.8983H17.5363C16.144 24.8983 14.7782 24.5379 13.5867 23.8568L13.3024 23.6947L10.3665 24.4362L11.1504 21.6782L10.9659 21.3957C10.1911 20.2139 9.77859 18.8314 9.77923 17.4183C9.78105 13.2975 13.2625 9.94612 17.5423 9.94612C19.6145 9.94672 21.5627 10.7252 23.0282 12.1374C24.4937 13.5497 25.3 15.4278 25.2988 17.4249C25.297 21.5457 21.8161 24.8983 17.5387 24.8983H17.5393ZM21.7956 19.3006C21.5621 19.1887 20.4153 18.6449 20.2012 18.5693C19.9877 18.4949 19.8323 18.4562 19.6768 18.6812C19.522 18.9062 19.0744 19.4124 18.9389 19.5618C18.8022 19.7118 18.6661 19.73 18.4327 19.6181C18.1992 19.5056 17.4474 19.2685 16.5571 18.5028C15.8633 17.9076 15.3952 17.1721 15.2591 16.9465C15.123 16.7221 15.2446 16.6006 15.3613 16.4887C15.4659 16.3889 15.5948 16.2268 15.7109 16.0955C15.827 15.9643 15.8657 15.8705 15.9444 15.7205C16.0218 15.5711 15.9831 15.4393 15.9244 15.3274C15.8657 15.2143 15.4 14.1086 15.2046 13.6592C15.0159 13.2213 14.8236 13.28 14.6802 13.2727C14.5442 13.2667 14.3893 13.2649 14.2327 13.2649C14.0784 13.2649 13.825 13.3211 13.6109 13.5461C13.3974 13.7711 12.7944 14.3143 12.7944 15.4199C12.7944 16.5262 13.6302 17.5943 13.747 17.7443C13.8637 17.8937 15.3921 20.1637 17.7323 21.1374C18.2887 21.3679 18.723 21.5064 19.0623 21.6104C19.6212 21.7816 20.1298 21.7568 20.5315 21.6993C20.979 21.6346 21.9117 21.1562 22.1052 20.6318C22.3 20.1074 22.3 19.6574 22.2419 19.5637C22.1851 19.4699 22.029 19.4137 21.7956 19.3006Z" fill="white"/>
</svg>
