<svg width="35" height="35" viewBox="0 0 35 35" fill="none" xmlns="http://www.w3.org/2000/svg">
<circle cx="17.5" cy="17.5" r="17.5" fill="#FD2727"/>
<path d="M27.9167 17.5634C27.9167 11.7752 23.2535 7.0835 17.5 7.0835C11.7466 7.0835 7.08337 11.7752 7.08337 17.5634C7.08337 22.7953 10.8917 27.1307 15.8723 27.9168V20.5932H13.2278V17.5627H15.8723V15.2543C15.8723 12.6279 17.4271 11.1766 19.807 11.1766C20.9459 11.1766 22.1389 11.3814 22.1389 11.3814V13.9606H20.8243C19.5306 13.9606 19.1278 14.7689 19.1278 15.5981V17.5634H22.0167L21.5549 20.5925H19.1278V27.9168C24.1084 27.1307 27.9167 22.7953 27.9167 17.5634Z" fill="white"/>
</svg>
