<svg width="25" height="25" viewBox="0 0 25 25" fill="none" xmlns="http://www.w3.org/2000/svg">
<g clip-path="url(#clip0_6692_15856)">
<path d="M10.919 0.891216C10.919 0.891216 9.58682 1.19521 9.3053 1.59196C9.23492 1.69501 8.18424 3.54476 5.66564 4.82774C5.66564 4.82774 4.97692 4.7453 5.1579 9.80507C5.1579 9.80507 4.27815 5.64183 4.60994 3.77662C4.60994 3.77662 7.52066 2.75127 8.09878 0.870605L10.919 0.896368V0.891216Z" fill="#FFE6E5"/>
<path d="M3.05632 18.3685C3.05632 18.3685 1.79953 19.0693 1.76937 20.2441C1.73921 21.4188 1.90008 24.8762 1.90008 24.8762C1.90008 24.8762 0.507558 24.9895 0.517612 24.7371C0.527666 24.4846 0.482422 19.8679 0.482422 19.8679C0.482422 19.8679 1.26666 18.0233 2.40782 17.8481L3.05632 18.3685Z" fill="#FFE6E5"/>
<path d="M10.9936 16.3902C10.9936 16.3902 8.97767 16.9363 8.9827 18.5336C8.9827 19.8475 9.12849 24.8661 9.12849 24.8661C9.12849 24.8661 7.57007 24.9949 7.58013 24.7115C7.59018 24.4281 7.61029 18.6109 7.61029 18.6109C7.61029 18.6109 8.40961 16.1068 10.2194 15.7925L10.9936 16.3902Z" fill="#FFE6E5"/>
<path d="M16.7445 15.3749C16.639 15.2513 16.5434 15.1431 16.4429 15.0297C16.8099 14.5866 17.1668 14.1332 17.5489 13.7004C18.0918 13.0821 18.313 12.4019 18.2929 11.5518C18.2376 8.97035 18.2728 9.76384 18.2728 7.18243C18.2728 6.7084 18.2476 6.68263 17.7751 6.68263C17.2875 6.68263 16.7948 6.68263 16.272 6.68263C16.272 10.5264 16.272 6.4044 16.272 10.243H15.7642V9.8875C15.7642 5.6985 15.7642 9.45984 15.7642 5.27084C15.7642 4.7762 15.6888 4.71437 15.2163 4.80197C13.3562 5.13688 11.4962 5.47695 9.63112 5.80155C9.31943 5.85823 9.22895 6.0025 9.22895 6.31165C9.239 10.14 9.23397 6.02311 9.23397 9.85143V10.2482H8.73628C8.73628 7.08968 8.73628 11.8918 8.73628 8.70757C8.13805 8.70757 7.56496 8.69212 6.99187 8.72303C6.89635 8.72303 6.80586 8.89822 6.73045 9.00127C6.70029 9.04249 6.72543 9.12493 6.72543 9.18676C6.72543 11.3714 6.72543 10.1709 6.73045 12.3556C6.73045 12.5204 6.78073 12.7162 6.87624 12.8502C7.40912 13.5922 7.9621 14.3187 8.5352 15.0761C8.46482 15.1379 8.3492 15.2358 8.1833 15.3749C7.76605 14.8545 7.30355 14.3393 6.9064 13.7828C5.10669 11.2581 4.20683 8.43449 4.21688 5.31722C4.22191 4.02909 4.21688 5.28115 4.21688 3.99302C4.21688 3.46747 4.37272 3.25106 4.87041 3.08618C6.11211 2.67913 7.05219 1.90625 7.67556 0.746938C7.86156 0.406872 8.128 0.252296 8.51509 0.257449C11.1694 0.262601 13.8288 0.262601 16.4831 0.257449C16.8853 0.257449 17.1517 0.412024 17.3428 0.762395C17.9611 1.90625 18.9012 2.66883 20.1228 3.07587C20.6355 3.24591 20.7864 3.46231 20.7864 4.00848C20.7864 5.44088 20.8115 4.34339 20.7813 5.77579C20.7009 9.44953 19.3486 12.5977 16.8702 15.2719C16.8501 15.2925 16.825 15.3131 16.7496 15.3749H16.7445ZM18.7755 11.5827C18.7755 11.5827 18.8157 11.593 18.8308 11.593C18.861 11.5415 18.8911 11.4899 18.9163 11.4333C19.7759 9.66594 20.2384 7.79558 20.2686 5.82732C20.2937 4.39492 20.2686 5.4924 20.2836 4.06C20.2836 3.76631 20.1881 3.63235 19.9116 3.5396C18.6046 3.10679 17.6042 2.28754 16.9305 1.07155C16.7998 0.83453 16.639 0.762395 16.3826 0.762395C13.7886 0.7727 11.1946 0.7727 8.60055 0.762395C8.33411 0.762395 8.1833 0.844835 8.05259 1.0767C7.37896 2.28754 6.37855 3.11194 5.0715 3.5396C4.78997 3.63235 4.70451 3.78177 4.70954 4.06516C4.71959 5.39451 4.71457 4.18882 4.71457 5.51817C4.71457 7.11545 4.99106 8.66635 5.54405 10.1606C5.72502 10.6449 5.94119 11.1138 6.1473 11.593C6.17244 11.5827 6.19758 11.5775 6.22271 11.5672V11.2581C6.22271 9.42377 6.22271 10.9695 6.22271 9.13523C6.22271 8.47056 6.49418 8.19747 7.15776 8.19747C7.67556 8.19747 8.19335 8.19747 8.73126 8.19747C8.73126 7.641 8.74634 7.12575 8.73126 6.6105C8.69607 5.61606 8.86699 5.40996 9.85231 5.24508C11.647 4.94624 13.4316 4.60102 15.2213 4.28156C15.905 4.1579 16.2619 4.47221 16.267 5.16264C16.267 5.49756 16.267 5.82732 16.267 6.16738C16.8099 6.16738 17.2975 6.16738 17.7902 6.16738C18.5241 6.16738 18.7755 6.41986 18.7755 7.14636C18.7755 9.25889 18.7755 7.98107 18.7755 10.0936V11.5775V11.5827Z" fill="#FF4949"/>
<path d="M8.17883 15.5657C8.17883 15.5657 8.16877 15.5657 8.16375 15.5657C8.11348 15.5657 8.06823 15.5347 8.03807 15.4987C7.90736 15.3389 7.77163 15.1792 7.64092 15.0143C7.34432 14.6537 7.03264 14.2878 6.75615 13.8962C4.93632 11.3354 4.01635 8.45004 4.03143 5.31731V5.12151C4.03143 4.73507 4.03143 4.6784 4.03143 4.66809C4.03143 4.66294 4.03143 4.64233 4.03143 3.99826C4.03143 3.39027 4.24257 3.09657 4.81064 2.90593C6.0071 2.50919 6.91701 1.75692 7.50519 0.659434C7.72136 0.26269 8.04812 0.0668945 8.50057 0.0668945C11.1549 0.072047 13.8143 0.072047 16.4686 0.0668945C16.9361 0.0668945 17.2679 0.26269 17.4891 0.674891C18.0723 1.75692 18.9721 2.50403 20.1686 2.90078C20.7517 3.09657 20.9629 3.38511 20.9629 4.01372C20.9629 4.64233 20.9629 4.77629 20.9679 4.85873C20.9679 4.93087 20.9629 5.23143 20.9528 5.76042C20.8724 9.42386 19.5402 12.6596 16.9914 15.4111C16.9713 15.4317 16.9512 15.4472 16.916 15.4781L16.8557 15.5296C16.7803 15.5914 16.6647 15.5863 16.5993 15.509L16.2977 15.1638C16.2373 15.0916 16.2373 14.9834 16.2977 14.9113L16.6345 14.5042C16.8909 14.1899 17.1422 13.8808 17.4087 13.5819C17.9064 13.0152 18.1225 12.3917 18.1074 11.5622C18.0723 9.88244 18.0723 9.62481 18.0823 8.94983C18.0823 8.584 18.0873 8.09451 18.0873 7.18767C18.0873 7.10523 18.0873 6.93004 18.0672 6.89398C18.0371 6.88367 17.8611 6.88367 17.7757 6.88367H16.4585V8.50156C16.4585 8.67159 16.2072 8.73858 16.1167 8.60976L16.4585 10.2534C16.4585 10.3616 16.3731 10.4441 16.2725 10.4441H15.7648C15.6592 10.4441 15.5788 10.3565 15.5788 10.2534V5.26578C15.5788 5.03392 15.5587 4.97209 15.5486 4.95663C15.5386 4.95663 15.4732 4.94117 15.252 4.98239L14.1259 5.18334C12.6379 5.45127 11.1549 5.7192 9.66686 5.98198C9.46075 6.01805 9.42053 6.06957 9.42053 6.30659C9.42053 7.45045 9.42053 7.88326 9.42053 8.03268C9.42053 8.03783 9.42053 8.04814 9.42053 8.05329V10.2483C9.42053 10.3565 9.33507 10.4389 9.23453 10.4389H8.73684C8.63127 10.4389 8.55084 10.3513 8.55084 10.2483V8.89831H8.29445C7.84704 8.89831 7.42978 8.89315 7.0075 8.91376C7.01756 8.92407 6.95723 9.00651 6.92707 9.05288L6.90696 9.07864C6.91199 9.13532 6.91199 9.16108 6.91199 9.18685V10.3101C6.91199 10.633 6.91199 10.9919 6.91199 11.387V12.3556C6.91199 12.4948 6.96226 12.6493 7.02258 12.7369C7.42476 13.2934 7.83698 13.8447 8.26429 14.4115L8.67652 14.9628C8.73684 15.0453 8.72679 15.1586 8.64635 15.2256L8.29445 15.5244C8.25926 15.5554 8.21905 15.5708 8.1738 15.5708L8.17883 15.5657ZM8.50559 0.448181C8.18386 0.448181 7.98277 0.566688 7.83698 0.839772C7.19853 2.02485 6.21824 2.83895 4.92626 3.26661C4.50901 3.40572 4.40344 3.54484 4.40344 3.99311C4.40344 4.55473 4.40344 4.62687 4.40344 4.64233C4.40344 4.64233 4.40344 4.80206 4.40344 5.12151V5.31731C4.38836 8.3676 5.27816 11.1757 7.05275 13.6695C7.32421 14.0508 7.62584 14.4115 7.92244 14.767C8.01796 14.8804 8.11348 14.9937 8.20396 15.1071L8.27434 15.0453L7.97271 14.6382C7.54541 14.0714 7.13318 13.5201 6.72598 12.9585C6.61539 12.8039 6.54501 12.572 6.54501 12.3505V11.3818C6.54165 10.9868 6.53998 10.6278 6.53998 10.3049V9.18169C6.52992 9.07349 6.51987 8.97559 6.5802 8.88285L6.61539 8.83132C6.70587 8.69736 6.81647 8.53248 6.98739 8.52217C7.41973 8.50156 7.84704 8.50671 8.29445 8.50671H8.73684C8.84241 8.50671 8.92285 8.59431 8.92285 8.70251V10.0525H9.04852V8.09451C9.04852 8.09451 9.04852 8.08936 9.04852 8.08421V8.04814C9.04852 8.04814 9.05858 8.01722 9.06863 8.00177C9.04852 7.73899 9.04852 7.24435 9.0435 6.30144C9.0435 5.88408 9.21442 5.66768 9.60151 5.6007C11.0895 5.34307 12.5726 5.06999 14.0606 4.80206L15.1867 4.60111C15.428 4.55473 15.6391 4.53412 15.7899 4.66294C15.9407 4.79175 15.9508 5.01331 15.9508 5.26578V10.0473H16.0865V8.43458C16.0865 8.26455 16.3379 8.19241 16.4284 8.32638L16.0865 6.67757C16.0865 6.56937 16.172 6.48693 16.2725 6.48693H17.7757C18.3538 6.48693 18.4644 6.59513 18.4644 7.17736C18.4644 8.08421 18.4644 8.5737 18.4593 8.93953C18.4543 9.6145 18.4493 9.86698 18.4845 11.5415C18.5046 12.4638 18.2532 13.1903 17.6902 13.8241C17.4288 14.123 17.1774 14.427 16.9261 14.7361L16.6948 15.0195L16.7652 15.1019C19.2285 12.4278 20.5154 9.2899 20.5909 5.77073C20.6009 5.23487 20.6059 4.93259 20.6059 4.86389C20.6059 4.78145 20.6009 4.63718 20.6009 4.00857C20.6009 3.54484 20.5004 3.40572 20.068 3.26145C18.7811 2.83379 17.8108 2.02485 17.1774 0.855229C17.0216 0.566688 16.8205 0.448181 16.4837 0.448181C13.8243 0.453333 11.17 0.453333 8.51565 0.448181H8.50559ZM18.8364 11.7889C18.8364 11.7889 18.8112 11.7889 18.7962 11.7889C18.7107 11.7683 18.59 11.6807 18.59 11.5879V7.1516C18.59 6.5333 18.4191 6.36327 17.7907 6.36327H16.2675C16.1619 6.36327 16.0815 6.27567 16.0815 6.17262V5.16788C16.0815 4.8845 16.0161 4.68355 15.8854 4.57019C15.7547 4.45684 15.5436 4.42592 15.257 4.47229C14.6236 4.58565 13.9902 4.70416 13.3518 4.81751C12.1955 5.02877 11.0443 5.24002 9.88303 5.43581C8.98317 5.58524 8.88766 5.70375 8.91782 6.60544C8.9329 6.96096 8.92787 7.31648 8.92285 7.68746V8.20272C8.92285 8.31092 8.83738 8.39336 8.73181 8.39336H7.15832C6.6003 8.39336 6.40927 8.584 6.40927 9.14047V11.5725C6.40927 11.6549 6.35397 11.727 6.27857 11.7528C6.18808 11.7837 6.01213 11.758 5.97694 11.6704C5.91661 11.5209 5.85126 11.3767 5.78591 11.2324C5.64515 10.9078 5.49936 10.5729 5.37368 10.2328C4.81064 8.71281 4.52912 7.13099 4.52912 5.52341C4.52912 4.96694 4.52912 4.85358 4.52912 4.81236V4.07555C4.51907 3.68911 4.66485 3.47786 5.01675 3.3645C6.27354 2.9523 7.24378 2.15366 7.89228 0.989195C8.05315 0.700654 8.26429 0.576993 8.59608 0.576993C11.1901 0.587299 13.7841 0.587299 16.3781 0.576993C16.72 0.576993 16.9311 0.700654 17.0869 0.984042C17.7254 2.14336 18.6956 2.942 19.9625 3.3645C20.3194 3.48301 20.4652 3.69426 20.4652 4.0704C20.4601 4.74023 20.4652 4.85358 20.4652 4.93602C20.4652 5.02877 20.4652 5.07514 20.4551 5.84286C20.4199 7.81112 19.9574 9.72271 19.0827 11.5312C19.0626 11.5725 19.0425 11.6137 19.0174 11.6497L18.9922 11.6961C18.957 11.758 18.8967 11.794 18.8314 11.794L18.8364 11.7889ZM16.8054 5.98198H17.7907C18.6252 5.98198 18.9621 6.32205 18.9621 7.15675V10.9026C19.6809 9.27959 20.058 7.57926 20.0881 5.83256C20.1032 5.08029 20.0982 5.02877 20.0982 4.94117C20.0982 4.85873 20.0982 4.74538 20.0982 4.06525C20.0982 3.85399 20.0529 3.79216 19.8569 3.72518C18.4945 3.27176 17.4589 2.41129 16.7702 1.16953C16.6797 1.00465 16.5943 0.95828 16.3882 0.95828C13.7941 0.968585 11.2001 0.968585 8.60614 0.95828C8.41008 0.95828 8.32462 1.0098 8.2291 1.17984C7.53033 2.4319 6.48971 3.29237 5.14243 3.73033C4.9514 3.79216 4.90616 3.85915 4.90616 4.07555V4.82267C4.91118 4.86389 4.91118 4.97724 4.91118 5.52856C4.91118 7.08977 5.18265 8.63037 5.73061 10.104C5.82612 10.3616 5.93672 10.6192 6.04229 10.8717V9.14563C6.04229 8.3779 6.39922 8.01722 7.16334 8.01722H8.55084V7.69262C8.55586 7.32679 8.56089 6.97642 8.55084 6.6312C8.51062 5.53886 8.75192 5.24517 9.82773 5.06999C10.984 4.87934 12.1352 4.66809 13.2914 4.45684C13.9249 4.33833 14.5633 4.22497 15.1967 4.11162C15.5939 4.03948 15.9056 4.10131 16.1267 4.29196C16.3429 4.4826 16.4585 4.78145 16.4585 5.18334V5.99744H16.8104L16.8054 5.98198Z" fill="#FF4949"/>
<path d="M14.89 15.6792C16.1066 16.1223 16.9713 16.9621 17.479 18.173C17.8007 17.9926 18.1074 17.8226 18.4241 17.6474C18.2079 16.8849 18.2029 16.0914 18.3336 15.3133C18.5246 14.1437 19.5653 13.3914 20.7517 13.4842C21.8526 13.5718 22.7726 14.5456 22.7877 15.6843C22.7977 16.3335 22.7474 16.9828 22.7273 17.6268C22.6921 17.6371 22.657 17.6423 22.6218 17.6526C22.7123 17.6938 22.8027 17.7402 22.8932 17.7814C24.0746 18.3688 24.7432 19.322 24.7885 20.6513C24.8337 21.9807 24.7985 23.31 24.7985 24.6394C24.7985 24.6909 24.7885 24.7424 24.7834 24.8043H24.2958C24.2958 24.6909 24.2958 24.5776 24.2958 24.4694C24.2958 23.2224 24.3209 21.9807 24.2908 20.7338C24.2606 19.5487 23.6775 18.7088 22.6067 18.209C22.4257 18.1215 22.3201 18.1524 22.1844 18.3018C21.2695 19.2911 19.7915 19.2911 18.8765 18.2915C18.7308 18.1318 18.6151 18.1215 18.4543 18.209C18.3738 18.2554 18.2833 18.2915 18.2029 18.3379C17.6549 18.6419 17.6549 18.6522 17.7404 19.2602C17.7605 19.3941 17.7706 19.5332 17.7706 19.6672C17.7706 21.3109 17.7706 22.9597 17.7706 24.6033C17.7706 24.6651 17.7655 24.727 17.7605 24.7991H17.2729C17.2729 24.6858 17.2729 24.5776 17.2729 24.4642C17.2729 22.8721 17.2829 21.2748 17.2729 19.6827C17.2578 18.1112 16.2725 16.7303 14.8196 16.1841C14.6286 16.112 14.4929 16.1068 14.3169 16.2614C13.2461 17.1992 11.7631 17.194 10.6823 16.2562C10.5365 16.1274 10.4159 16.1017 10.2399 16.1687C8.76193 16.7045 7.7565 18.1112 7.74142 19.7033C7.72633 21.2851 7.74142 22.8669 7.74142 24.4539C7.74142 24.5673 7.74142 24.6806 7.74142 24.8043H7.2387V24.4642C7.2387 23.0163 7.23367 21.5736 7.2387 20.1258C7.2387 19.7187 7.294 19.3065 7.32416 18.8995C7.32416 18.8892 7.33422 18.8789 7.33422 18.8686C7.26384 18.4718 6.89183 18.41 6.62539 18.2451C6.47458 18.1524 6.32879 18.0699 6.14278 18.276C5.21276 19.2962 3.74986 19.2962 2.81481 18.2863C2.67908 18.1421 2.58356 18.1318 2.41767 18.1987C1.41224 18.6109 0.72352 19.6054 0.718493 20.7183C0.708439 21.9652 0.718493 23.207 0.718493 24.4539C0.718493 24.5673 0.718493 24.6806 0.718493 24.8043H0.19567C0.19567 24.6909 0.19567 24.5776 0.19567 24.4642C0.19567 23.377 0.225832 22.2898 0.190642 21.2027C0.135344 19.5332 0.808982 18.3379 2.28194 17.6938C2.2568 17.0188 2.20653 16.3748 2.21156 15.7255C2.21658 14.4683 3.22704 13.4687 4.44864 13.4687C5.70542 13.4687 6.71085 14.458 6.71588 15.7255C6.71588 16.3644 6.67063 16.9982 6.6455 17.6783C6.87675 17.8072 7.1834 17.9823 7.51519 18.1627C8.02294 16.9518 8.89766 16.112 10.1494 15.6482C9.59141 14.6796 9.65173 13.6491 9.79752 12.6392C9.9986 11.2532 11.2856 10.2845 12.6881 10.3772C14.0656 10.4648 15.2017 11.6344 15.2419 13.0308C15.257 13.5666 15.252 14.1076 15.1916 14.6384C15.1514 14.9733 14.9956 15.2979 14.88 15.6637L14.89 15.6792ZM10.2449 13.6748C10.2449 13.8655 10.2449 14.0561 10.2449 14.2416C10.2751 15.3906 11.1699 16.349 12.3061 16.452C13.4422 16.5551 14.508 15.7719 14.699 14.6281C14.7895 14.0922 14.7794 13.5357 14.7493 12.9896C14.6839 11.7942 13.6584 10.8667 12.4619 10.8873C11.2805 10.9028 10.2902 11.8766 10.2449 13.072C10.2399 13.2729 10.2449 13.4739 10.2449 13.6748ZM18.7559 16.2253C18.7559 16.2253 18.771 16.2253 18.781 16.2253C18.781 16.4263 18.776 16.6272 18.781 16.8282C18.8162 17.7402 19.4899 18.4409 20.4098 18.5285C21.2544 18.6109 22.0839 18.0133 22.2297 17.1322C22.3151 16.6169 22.3101 16.0811 22.2699 15.5607C22.2095 14.7259 21.4907 14.0407 20.6863 13.9891C19.7865 13.9325 19.0173 14.4838 18.8313 15.3494C18.771 15.6328 18.776 15.9316 18.7509 16.2253H18.7559ZM2.68411 16.2253C2.68411 16.2253 2.70422 16.2253 2.70924 16.2253C2.70924 16.4263 2.70422 16.6272 2.70924 16.8282C2.74443 17.7402 3.41807 18.4409 4.33804 18.5285C5.1826 18.6109 6.01208 18.0133 6.15787 17.1322C6.24333 16.6169 6.2383 16.0811 6.20311 15.5607C6.14278 14.7208 5.42893 14.0407 4.61956 13.9891C3.73981 13.9325 2.9606 14.4786 2.76957 15.3185C2.70422 15.6122 2.70924 15.9213 2.67908 16.2253H2.68411Z" fill="#FF4949"/>
<path d="M7.91771 25.0001H7.04298V23.2534C7.04298 22.2126 7.04298 21.1718 7.04298 20.131C7.04298 19.8424 7.07314 19.5488 7.09828 19.2705C7.10833 19.1469 7.12342 19.018 7.13347 18.8944V18.8789C7.08823 18.7089 6.95752 18.6419 6.74638 18.5389C6.67097 18.5028 6.59054 18.4667 6.52016 18.4204C6.37437 18.3328 6.35426 18.3225 6.2688 18.4204C5.78619 18.9511 5.14775 19.2448 4.47411 19.2448C3.79544 19.2602 3.157 18.9562 2.66936 18.4307C2.59396 18.3482 2.57887 18.3482 2.47833 18.3894C1.53826 18.7759 0.904835 19.7188 0.894781 20.7287C0.889753 21.5891 0.889753 22.4496 0.894781 23.3049V25.0053L0.0100028 25.0001V24.4694C0.0100028 24.1293 0.0100028 23.7944 0.0150299 23.4544C0.0200571 22.7176 0.0250842 21.9601 0.00497562 21.213C-0.050323 19.4715 0.653477 18.2503 2.09124 17.5753C2.08621 17.4053 2.07616 17.2404 2.06611 17.0755C2.04097 16.6118 2.02086 16.179 2.02589 15.7307C2.03092 14.3808 3.11678 13.2833 4.44395 13.2833H4.44897C5.81636 13.2833 6.89719 14.3653 6.90725 15.7307C6.90725 16.1739 6.88714 16.6067 6.86703 17.0704C6.85698 17.2353 6.85195 17.4053 6.8419 17.5753L7.43007 17.9051C7.93781 16.8128 8.76227 16.0244 9.88332 15.5607C9.39066 14.5611 9.48617 13.5255 9.61688 12.6238C9.82802 11.1656 11.1904 10.0887 12.7035 10.1969C14.1916 10.2948 15.3931 11.5417 15.4333 13.036C15.4534 13.6749 15.4333 14.1953 15.378 14.6745C15.3478 14.9269 15.2624 15.1588 15.1719 15.4061C15.1518 15.4577 15.1317 15.5092 15.1166 15.5607C16.2226 16.009 17.042 16.7973 17.5547 17.9051L18.1932 17.5496C18.0223 16.8591 18.0022 16.0966 18.1379 15.2773C18.344 14.0201 19.445 13.1802 20.752 13.2884C21.9535 13.3863 22.9438 14.4581 22.964 15.6792C22.969 16.1326 22.9489 16.5912 22.9288 17.0343C22.9187 17.2147 22.9137 17.4002 22.9036 17.5805L22.964 17.6114C24.2258 18.2349 24.9195 19.286 24.9648 20.6462C24.9949 21.5788 24.9899 22.5269 24.9798 23.4441C24.9798 23.8408 24.9748 24.2427 24.9748 24.6394C24.9748 24.6807 24.9748 24.7219 24.9648 24.7683L24.9447 24.995H24.1001V24.4643C24.1001 24.0881 24.1001 23.7171 24.1001 23.341C24.1001 22.4857 24.1101 21.5995 24.09 20.7338C24.0649 19.6467 23.532 18.8532 22.5165 18.3791C22.416 18.3328 22.3959 18.3328 22.3054 18.4307C21.8278 18.9459 21.1944 19.2293 20.5208 19.2293C19.8471 19.2293 19.2087 18.9408 18.7311 18.4204C18.6406 18.3225 18.6205 18.3276 18.53 18.3791C18.4848 18.4049 18.4395 18.4255 18.3943 18.4461C18.3541 18.4667 18.3138 18.4822 18.2787 18.5028C17.9871 18.6642 17.8648 18.9064 17.9117 19.2293C17.9318 19.3736 17.9469 19.523 17.9469 19.6673C17.9469 21.0791 17.9469 22.4908 17.9469 23.9026V24.6085C17.9469 24.6549 17.9469 24.7013 17.9368 24.7528L17.9217 24.995H17.0721V23.0164C17.0721 21.9086 17.0772 20.8008 17.0721 19.693C17.0571 18.2039 16.1421 16.9004 14.7395 16.3748C14.5837 16.3181 14.5284 16.3233 14.4279 16.416C13.2917 17.4105 11.6981 17.4105 10.5519 16.4109C10.4514 16.3233 10.4061 16.313 10.2905 16.3593C8.88292 16.8746 7.92776 18.2194 7.91771 19.7136C7.90765 20.806 7.91268 21.9035 7.91268 22.9958V25.0053L7.91771 25.0001ZM7.41499 24.6188H7.54067V22.9906C7.54067 21.8983 7.53564 20.8008 7.54067 19.7085C7.55575 18.0545 8.60642 16.5654 10.1648 15.9987C10.4061 15.9111 10.5921 15.9471 10.7932 16.1223C11.7987 16.9983 13.1912 17.0034 14.1866 16.1275C14.4429 15.9008 14.6692 15.942 14.8753 16.0193C16.4236 16.6015 17.4341 18.0442 17.4542 19.693C17.4643 20.8008 17.4643 21.9138 17.4592 23.0215V24.6188H17.5849V23.9078C17.5849 22.496 17.5849 21.0842 17.5849 19.6776C17.5849 19.5488 17.5749 19.4199 17.5547 19.2963C17.4542 18.611 17.5045 18.5183 18.1128 18.1782C18.158 18.1524 18.2032 18.1318 18.2485 18.1112C18.2887 18.0906 18.3289 18.0751 18.3641 18.0545C18.6104 17.9206 18.8166 17.9566 19.0126 18.173C19.4198 18.6161 19.9577 18.8635 20.5308 18.8635C21.124 18.8738 21.6418 18.6213 22.049 18.1833C22.2451 17.9721 22.4361 17.9309 22.6875 18.0442C23.8487 18.5904 24.452 19.4972 24.4822 20.739C24.5023 21.6098 24.4972 22.5011 24.4922 23.3565C24.4922 23.7326 24.4922 24.1036 24.4922 24.4797V24.624H24.6179C24.6179 24.2324 24.6179 23.846 24.6229 23.4544C24.6279 22.5424 24.638 21.5943 24.6078 20.672C24.5676 19.4457 23.9644 18.5389 22.8182 17.9721L22.2501 17.699C21.9083 18.3688 21.1642 18.8068 20.4001 18.7295C19.3796 18.6316 18.6406 17.8536 18.6004 16.8437C18.5954 16.7046 18.6004 16.5603 18.6004 16.4212L18.5803 16.2202C18.5853 16.1326 18.5903 16.0399 18.5954 15.9523C18.6054 15.7462 18.6155 15.5298 18.6607 15.3185C18.8668 14.3653 19.6963 13.7419 20.7118 13.8089C21.6318 13.8707 22.4059 14.6384 22.4713 15.5607C22.5165 16.2048 22.5015 16.72 22.4261 17.1786C22.4059 17.3074 22.3708 17.4311 22.3205 17.5496L22.5517 17.4877C22.5568 17.3332 22.5668 17.1837 22.5718 17.0292C22.5919 16.5912 22.6121 16.1378 22.607 15.6998C22.5919 14.6745 21.7574 13.7728 20.742 13.6903C19.6259 13.5924 18.6959 14.3035 18.525 15.3598C18.3893 16.179 18.4194 16.9364 18.6104 17.6063L18.6507 17.7557L17.3889 18.4564L17.3084 18.2606C16.8208 17.0962 15.9863 16.2924 14.83 15.8699L14.6591 15.808L14.7144 15.6328C14.7546 15.5143 14.7948 15.401 14.8351 15.2876C14.9155 15.0609 14.9959 14.8497 15.0211 14.6436C15.0713 14.185 15.0914 13.68 15.0713 13.0617C15.0361 11.7633 13.9905 10.6813 12.6885 10.5937C11.3613 10.5112 10.1749 11.4284 9.99392 12.6908C9.86321 13.5873 9.77272 14.6229 10.3207 15.571L10.4363 15.772L10.2252 15.8492C9.01865 16.2975 8.18917 17.0807 7.69651 18.2555L7.61608 18.4513L6.46486 17.8072V17.6887C6.47994 17.4774 6.49 17.2662 6.50005 17.0652C6.52016 16.6118 6.54529 16.179 6.54027 15.7462C6.53524 14.592 5.6203 13.68 4.45903 13.68H4.454C3.33295 13.68 2.41801 14.6023 2.40795 15.7462C2.40795 16.1842 2.42806 16.6118 2.44817 17.0704C2.45822 17.2816 2.46828 17.4929 2.47833 17.7042V17.8381L2.36271 17.8896C0.980242 18.4925 0.33174 19.5797 0.387039 21.213C0.412175 21.9653 0.407147 22.733 0.397093 23.4698C0.397093 23.8047 0.392066 24.1448 0.392066 24.4797V24.6291H0.517745V23.3152C0.517745 22.4548 0.517745 21.5943 0.517745 20.7338C0.527799 19.5694 1.25674 18.4822 2.33757 18.0391C2.57887 17.936 2.75985 17.9772 2.94083 18.173C3.35808 18.6213 3.89599 18.8686 4.46908 18.8686H4.47411C5.04218 18.8686 5.58511 18.6161 5.99231 18.1627C6.28891 17.8381 6.57546 18.0133 6.71119 18.0957C6.77152 18.1318 6.83687 18.1627 6.90222 18.1936C7.1385 18.307 7.4351 18.4513 7.51051 18.848L7.52056 18.9047L7.50548 18.9511C7.49542 19.0747 7.48537 19.1932 7.47532 19.3117C7.45018 19.5848 7.42504 19.8682 7.42002 20.1413C7.40996 21.1821 7.41499 22.2229 7.42002 23.2637V24.624L7.41499 24.6188ZM18.9523 16.0502H18.9623V16.4212C18.9623 16.5551 18.9623 16.6891 18.9623 16.8282C18.9925 17.6423 19.5958 18.2658 20.4202 18.3482C21.1894 18.4255 21.9133 17.869 22.039 17.1116C22.1093 16.684 22.1244 16.1996 22.0792 15.5813C22.0289 14.86 21.3955 14.2314 20.6716 14.185C19.8522 14.1335 19.1735 14.6281 19.0076 15.3958C18.9674 15.5762 18.9573 15.7668 18.9473 15.9678V16.0553L18.9523 16.0502ZM4.48919 18.7347C4.43389 18.7347 4.37357 18.7347 4.31827 18.7244C3.29776 18.6265 2.55877 17.8484 2.51855 16.8385C2.51352 16.6994 2.51855 16.5551 2.51855 16.416L2.49341 16.2099C2.50347 16.1172 2.50849 16.0244 2.51352 15.9265C2.52358 15.7101 2.53866 15.4937 2.58893 15.2722C2.80007 14.355 3.65971 13.7316 4.63498 13.7934C5.55495 13.8501 6.32913 14.623 6.39448 15.5453C6.43972 16.1893 6.42464 16.7046 6.34924 17.1631C6.20345 18.0545 5.38905 18.7244 4.49925 18.7244L4.48919 18.7347ZM2.87548 16.0553L2.89056 16.2305V16.4212C2.89056 16.5551 2.89056 16.6891 2.89056 16.8282C2.92072 17.6423 3.52398 18.2658 4.34843 18.3482C5.11256 18.4255 5.84149 17.869 5.96717 17.1116C6.03755 16.684 6.05263 16.1996 6.00739 15.5813C5.95712 14.86 5.3237 14.2314 4.59979 14.185C3.8055 14.1335 3.11175 14.6178 2.94083 15.3649C2.90061 15.5504 2.88553 15.7462 2.87548 15.9523C2.87548 15.9884 2.87548 16.0193 2.87045 16.0553H2.87548ZM12.4924 16.6633C12.422 16.6633 12.3466 16.6633 12.2762 16.653C11.0396 16.5448 10.0794 15.5143 10.0442 14.2571C10.0442 14.1283 10.0442 13.9943 10.0442 13.8655V13.6852V13.4894C10.0442 13.3554 10.0442 13.2163 10.0442 13.0823C10.0894 11.7942 11.1703 10.7328 12.4472 10.7122H12.4824C13.7643 10.7122 14.8552 11.7324 14.9255 12.9999C14.9507 13.51 14.9658 14.1077 14.8753 14.6796C14.6842 15.8286 13.6637 16.6685 12.4974 16.6685L12.4924 16.6633ZM10.4162 13.6852V13.8707C10.4162 13.9995 10.4162 14.1232 10.4162 14.252C10.4464 15.2928 11.2758 16.1842 12.3064 16.2769C13.3722 16.3748 14.3273 15.6431 14.4982 14.6126C14.5887 14.0768 14.5736 13.5049 14.5485 13.0205C14.4932 11.9539 13.5632 11.0986 12.4773 11.0986H12.4472C11.3663 11.1141 10.4564 12.0106 10.4162 13.0978C10.4162 13.2266 10.4162 13.3606 10.4162 13.4894V13.6903V13.6852Z" fill="#FF4949"/>
</g>
<defs>
<clipPath id="clip0_6692_15856">
<rect width="25" height="25" fill="white"/>
</clipPath>
</defs>
</svg>
