<svg width="35" height="35" viewBox="0 0 35 35" fill="none" xmlns="http://www.w3.org/2000/svg">
<circle cx="17.5" cy="17.5" r="17.5" fill="#0574C5"/>
<path d="M17.5393 8.42725C12.3933 8.42725 8.20544 12.4609 8.20363 17.4182C8.20242 19.0035 8.63306 20.5506 9.4496 21.9133L8.125 26.5724L13.0744 25.3222C14.4511 26.0424 15.982 26.418 17.5357 26.417H17.5393C22.6853 26.417 26.8732 22.3827 26.875 17.4254C26.8762 15.0242 25.906 12.7639 24.1429 11.0649C22.3804 9.36535 20.0367 8.42785 17.5393 8.42725ZM17.5393 24.8982H17.5363C16.144 24.8982 14.7782 24.5377 13.5867 23.8567L13.3024 23.6946L10.3665 24.4361L11.1504 21.6781L10.9659 21.3956C10.1911 20.2138 9.77859 18.8313 9.77923 17.4182C9.78105 13.2974 13.2625 9.946 17.5423 9.946C19.6145 9.9466 21.5627 10.725 23.0282 12.1373C24.4937 13.5496 25.3 15.4276 25.2988 17.4248C25.297 21.5456 21.8161 24.8982 17.5387 24.8982H17.5393ZM21.7956 19.3004C21.5621 19.1885 20.4153 18.6448 20.2012 18.5692C19.9877 18.4948 19.8323 18.4561 19.6768 18.6811C19.522 18.9061 19.0744 19.4123 18.9389 19.5617C18.8022 19.7117 18.6661 19.7299 18.4327 19.618C18.1992 19.5055 17.4474 19.2684 16.5571 18.5027C15.8633 17.9075 15.3952 17.172 15.2591 16.9464C15.123 16.722 15.2446 16.6004 15.3613 16.4885C15.4659 16.3887 15.5948 16.2266 15.7109 16.0954C15.827 15.9641 15.8657 15.8704 15.9444 15.7204C16.0218 15.571 15.9831 15.4391 15.9244 15.3272C15.8657 15.2141 15.4 14.1085 15.2046 13.6591C15.0159 13.2212 14.8236 13.2799 14.6802 13.2726C14.5442 13.2666 14.3893 13.2647 14.2327 13.2647C14.0784 13.2647 13.825 13.321 13.6109 13.546C13.3974 13.771 12.7944 14.3141 12.7944 15.4198C12.7944 16.526 13.6302 17.5942 13.747 17.7442C13.8637 17.8936 15.3921 20.1635 17.7323 21.1373C18.2887 21.3678 18.723 21.5063 19.0623 21.6103C19.6212 21.7815 20.1298 21.7567 20.5315 21.6992C20.979 21.6345 21.9117 21.1561 22.1052 20.6317C22.3 20.1073 22.3 19.6573 22.2419 19.5635C22.1851 19.4698 22.029 19.4135 21.7956 19.3004Z" fill="white"/>
</svg>
