<svg width="25" height="25" viewBox="0 0 25 25" fill="none" xmlns="http://www.w3.org/2000/svg">
<g clip-path="url(#clip0_6692_15884)">
<path d="M4.15156 0.723145C4.15156 0.723145 1.78461 3.7135 2.91577 7.96053C4.04194 12.2024 9.8472 20.2554 9.8472 20.2554C9.8472 20.2554 1.4657 12.6384 0.98234 9.97119C0.498984 7.30398 -0.46773 3.39036 4.15156 0.723145Z" fill="#FFE6E5"/>
<path d="M21.8394 16.5262C20.6683 15.3875 19.004 15.3773 17.7981 16.5006C17.6087 16.675 17.4443 16.8032 17.2898 16.8955C16.4826 17.3623 15.476 17.2443 14.7236 16.5878C12.4513 14.6079 10.3185 12.4587 8.38511 10.1967C7.49314 9.15036 7.50311 7.97064 8.41999 6.96017C9.49633 5.77018 9.48138 4.06727 8.39009 2.90806C7.83697 2.32332 7.26392 1.74372 6.68588 1.18463C5.47002 0.00489941 3.73591 0.0356751 2.54995 1.25131C-0.439888 4.3186 -0.614295 9.16575 2.14134 12.5203C5.2408 16.2954 8.66416 19.7577 12.3118 22.8096C13.9014 24.1381 15.6803 24.7946 17.7433 24.81C19.9259 24.7843 21.8443 23.9842 23.4439 22.4403C24.0319 21.8709 24.3658 21.1323 24.3807 20.3578C24.3957 19.5833 24.0967 18.8293 23.5286 18.2343C22.9606 17.6342 22.3925 17.0597 21.8443 16.5262H21.8394ZM7.96155 10.5404C9.91491 12.828 12.0676 14.9977 14.3598 16.9981C15.2667 17.788 16.4427 17.9522 17.4343 17.4341C17.6735 17.311 17.9227 17.1264 18.1718 16.9007C19.1585 15.9877 20.5139 15.9979 21.4656 16.9263C22.0287 17.4752 22.5868 18.0445 23.125 18.6087C24.0768 19.6089 24.0568 21.0502 23.0702 22.0299C21.6251 23.4661 19.6767 24.256 17.5788 24.2612C15.775 24.2355 14.1206 23.6046 12.6556 22.3839C9.02294 19.3422 5.61951 15.9005 2.53998 12.1459C-0.0163284 9.02726 0.153096 4.51352 2.93364 1.64626C3.43195 1.13334 4.03988 0.876873 4.6528 0.876873C5.26571 0.876873 5.83876 1.11795 6.3271 1.6001C6.88022 2.1438 7.42338 2.69776 7.95158 3.24659C8.89836 4.23141 8.91829 5.57527 7.99643 6.596C6.9151 7.79624 6.90016 9.30424 7.95656 10.5404H7.96155Z" fill="#FF4949"/>
<path d="M17.7436 24.9998C15.6308 24.9793 13.817 24.3125 12.1925 22.9532C8.53493 19.8962 5.10658 16.4237 1.99715 12.6434C-0.818274 9.21194 -0.638884 4.25707 2.42071 1.11797C3.67644 -0.174603 5.52516 -0.205379 6.81079 1.04103C7.38882 1.60012 7.96187 2.18485 8.51998 2.77472C9.68103 4.00574 9.69598 5.8215 8.55486 7.08842C7.70276 8.03221 7.69279 9.09396 8.52496 10.0685C10.4484 12.3203 12.5762 14.4643 14.8435 16.4391C15.5361 17.0443 16.463 17.1572 17.2005 16.7263C17.345 16.6391 17.4994 16.5263 17.6788 16.357C18.9595 15.167 20.7235 15.1773 21.9692 16.3878C22.5274 16.9263 23.0954 17.5059 23.6585 18.1009C24.2565 18.7318 24.5804 19.532 24.5604 20.3629C24.5405 21.1939 24.1917 21.9787 23.5638 22.5839C21.9294 24.1637 19.971 24.9793 17.7386 25.0049L17.7436 24.9998ZM4.65312 0.512717C3.95051 0.512717 3.2479 0.805085 2.67983 1.38982C-0.240239 4.38531 -0.409663 9.11961 2.28119 12.3972C5.37567 16.1621 8.78408 19.6141 12.4267 22.6609C13.9814 23.9637 15.7205 24.6048 17.7436 24.6202C19.8813 24.5946 21.755 23.8149 23.3147 22.3018C23.8678 21.7684 24.1767 21.0759 24.1917 20.3527C24.2066 19.6295 23.9226 18.9216 23.3944 18.3677C22.8313 17.7778 22.2682 17.2033 21.7151 16.6648C20.6139 15.5979 19.0591 15.5876 17.923 16.6442C17.7237 16.8289 17.5493 16.9622 17.3799 17.0597C16.5078 17.5675 15.4165 17.4393 14.5993 16.7314C12.3171 14.7464 10.1793 12.5921 8.24093 10.3199C7.29414 9.20681 7.30411 7.90398 8.27581 6.82683C9.28238 5.71378 9.26743 4.11858 8.24591 3.03631C7.69279 2.45158 7.11974 1.87197 6.54669 1.31801C5.99357 0.779438 5.32085 0.512717 4.64316 0.512717H4.65312ZM17.5792 24.451C15.7305 24.4253 14.0362 23.779 12.5413 22.5326C8.89869 19.4807 5.48529 16.0287 2.40078 12.269C-0.220307 9.07345 -0.0458997 4.44686 2.80441 1.50779C3.31766 0.97435 3.97543 0.681983 4.65811 0.681983C5.34079 0.681983 5.9537 0.958962 6.46197 1.4565C7.01509 2.0002 7.56323 2.55929 8.09143 3.10299C9.11296 4.16475 9.13289 5.61633 8.14126 6.71912C7.1297 7.8373 7.11974 9.25297 8.10638 10.4071C10.0548 12.6896 12.2025 14.8541 14.4847 16.8443C15.3318 17.5829 16.4331 17.7419 17.3549 17.2597C17.5792 17.1418 17.8134 16.9725 18.0526 16.7519C19.1189 15.7723 20.574 15.7825 21.6005 16.7827C22.1686 17.3367 22.7267 17.9009 23.2648 18.4702C23.7582 18.9883 24.0273 19.6448 24.0173 20.3168C24.0073 20.9938 23.7183 21.6504 23.205 22.1582C21.7251 23.6303 19.7269 24.4407 17.5842 24.4407L17.5792 24.451ZM4.65811 1.06668C4.07509 1.06668 3.512 1.31801 3.06851 1.77964C0.352745 4.57509 0.188304 8.97599 2.68482 12.0228C5.75438 15.7671 9.15282 19.2037 12.7755 22.2351C14.2056 23.4302 15.8202 24.0458 17.5842 24.0714C19.6322 24.0714 21.5357 23.2969 22.9459 21.8966C23.3894 21.4555 23.6386 20.8964 23.6436 20.3219C23.6535 19.7526 23.4193 19.1935 22.9958 18.7472C22.4576 18.183 21.9045 17.6188 21.3414 17.07C20.4644 16.2134 19.2136 16.2031 18.2967 17.0443C18.0376 17.2854 17.7735 17.4752 17.5194 17.6085C16.463 18.1625 15.2023 17.983 14.2405 17.1469C11.9433 15.1465 9.78069 12.9666 7.82235 10.6738C6.70116 9.36069 6.71611 7.7501 7.8672 6.47291C8.71432 5.53426 8.69937 4.29298 7.82733 3.3851C7.29913 2.83627 6.75597 2.28744 6.20784 1.74374C5.76933 1.31288 5.22119 1.07181 4.66309 1.07181L4.65811 1.06668Z" fill="#FF4949"/>
<path d="M24.7892 12.8694C24.8092 12.8438 24.8142 12.813 24.8092 12.7771C24.7843 12.5822 24.7593 12.3821 24.7344 12.1872C24.6846 11.7666 24.6298 11.3306 24.555 10.91C23.5136 5.16013 18.5754 0.71819 12.81 0.354013C12.5209 0.333496 12.2369 0.328367 11.9728 0.338625C11.8781 0.338625 11.8183 0.410435 11.7635 0.466857C11.7486 0.482245 11.7336 0.497632 11.7187 0.51302C11.6888 0.538666 11.6738 0.574571 11.6738 0.610476C11.6738 0.646381 11.6888 0.682286 11.7187 0.707932C11.7336 0.71819 11.7486 0.733578 11.7585 0.743837C11.7984 0.784871 11.8482 0.825905 11.908 0.85668C11.9728 0.882327 12.0376 0.877197 12.0874 0.877197C12.1024 0.877197 12.1173 0.877197 12.1323 0.877197C13.7866 0.918231 15.2367 1.22086 16.5572 1.80046C20.6583 3.60596 23.1697 6.76046 24.0368 11.1767C24.1215 11.6076 24.1514 12.059 24.1813 12.495C24.1963 12.7412 24.2162 12.9976 24.2411 13.2438C24.2511 13.3413 24.3059 13.4131 24.3557 13.4798C24.3707 13.5054 24.3906 13.5259 24.4006 13.5516C24.4255 13.5926 24.4653 13.6131 24.5102 13.6131C24.555 13.6131 24.5999 13.5875 24.6198 13.5465C24.6348 13.5208 24.6497 13.5003 24.6647 13.4747C24.7045 13.408 24.7544 13.331 24.7693 13.2438C24.7892 13.1361 24.7843 13.0284 24.7793 12.9258C24.7793 12.9104 24.7793 12.8899 24.7793 12.8745L24.7892 12.8694Z" fill="#FF4949"/>
<path d="M24.5309 13.8027C24.4163 13.8027 24.3116 13.7412 24.2568 13.6489C24.2469 13.6283 24.2319 13.613 24.2219 13.5924C24.1671 13.5155 24.0874 13.4078 24.0725 13.2642C24.0475 13.0231 24.0276 12.782 24.0127 12.5461C23.9778 12.0742 23.9479 11.6279 23.8682 11.2125C23.016 6.86286 20.5395 3.75453 16.4982 1.97468C15.1976 1.4002 13.7725 1.1027 12.138 1.0668C12.0384 1.07193 11.9437 1.07706 11.844 1.03089C11.7543 0.989859 11.6896 0.928308 11.6397 0.887274L11.6048 0.856498C11.5351 0.794947 11.4952 0.70775 11.4902 0.615423C11.4902 0.517967 11.5301 0.43077 11.5999 0.369219C11.6846 0.276892 11.7942 0.158919 11.9636 0.148661C12.2377 0.138402 12.5217 0.148661 12.8207 0.164048C18.6708 0.538484 23.6838 5.04197 24.7402 10.8791C24.8199 11.3048 24.8697 11.7408 24.9196 12.1563C24.9445 12.3717 24.9694 12.5666 24.9943 12.7564C24.9993 12.8128 24.9943 12.8641 24.9744 12.9154C24.9744 13.0231 24.9844 13.1462 24.9594 13.2744C24.9345 13.4027 24.8747 13.5052 24.8299 13.5771L24.795 13.6386C24.7402 13.7412 24.6405 13.8027 24.5259 13.8079L24.5309 13.8027ZM12.138 0.682103H12.148C13.8273 0.723137 15.2973 1.03089 16.6427 1.62076C20.7986 3.4519 23.3549 6.65256 24.2269 11.1304C24.3116 11.5715 24.3465 12.028 24.3764 12.4691C24.3964 12.741 24.4113 12.9821 24.4362 13.2129C24.4362 13.2539 24.4761 13.3052 24.511 13.3565H24.5159C24.5508 13.3052 24.5857 13.2488 24.5957 13.1975C24.6106 13.1103 24.6056 13.0128 24.6056 12.9205V12.8538L24.6256 12.782C24.6007 12.5922 24.5757 12.4025 24.5558 12.2178C24.501 11.7767 24.4512 11.351 24.3764 10.9355C23.3499 5.27792 18.4815 0.902661 12.7958 0.543613C12.5118 0.523096 12.2327 0.517967 11.9736 0.528226C11.9586 0.528226 11.9188 0.574389 11.8988 0.594906C11.8988 0.594906 11.8939 0.600035 11.8889 0.605164C11.9238 0.63594 11.9537 0.666716 11.9836 0.682103C12.0085 0.692362 12.0434 0.692362 12.0782 0.687233C12.1032 0.687233 12.1181 0.687233 12.133 0.687233L12.138 0.682103ZM24.6405 12.7564C24.6405 12.7564 24.6306 12.7769 24.6306 12.7871L24.6405 12.7564Z" fill="#FF4949"/>
<path d="M19.8416 13.5205C19.8914 13.5718 19.9612 13.5974 20.0459 13.5974C20.1755 13.5974 20.2153 13.4589 20.2702 13.2897C20.2801 13.2589 20.2901 13.2333 20.2951 13.2076C20.315 13.1563 20.31 13.105 20.305 13.064C20.305 13.0537 20.305 13.0383 20.305 13.0281C20.305 13.0281 20.305 13.0281 20.305 13.023C20.2004 10.9456 19.4729 9.14523 18.1374 7.66288C16.5279 5.8779 14.4848 4.93411 12.0631 4.8623C11.9435 4.8623 11.6993 4.9495 11.6794 5.10338C11.6644 5.19058 11.6794 5.26239 11.7292 5.31881C11.799 5.40601 11.9185 5.41114 11.9983 5.41626C12.0132 5.41626 12.0282 5.41626 12.0431 5.41626C12.1577 5.42652 12.2723 5.43678 12.387 5.44191C12.6511 5.46243 12.9251 5.48295 13.1892 5.51885C16.5329 6.01639 19.3284 8.96058 19.6871 12.3613C19.7021 12.5152 19.712 12.6742 19.722 12.828C19.727 12.9409 19.737 13.0537 19.7469 13.1666C19.7469 13.1871 19.7469 13.2127 19.7469 13.2333C19.7469 13.3256 19.7469 13.4384 19.8267 13.5205H19.8416Z" fill="#FF4949"/>
<path d="M20.0567 13.7871C19.8774 13.7871 19.7727 13.7152 19.7129 13.6588C19.5734 13.5203 19.5784 13.3408 19.5784 13.2331V13.1818C19.5684 13.069 19.5634 12.9561 19.5535 12.8381C19.5435 12.6894 19.5335 12.5304 19.5186 12.3816C19.1698 9.06301 16.439 6.19575 13.1751 5.70847C12.926 5.67257 12.6619 5.65205 12.4078 5.63153C12.2682 5.62128 12.1536 5.61102 12.039 5.60589C11.8995 5.60076 11.7201 5.5905 11.5955 5.43662C11.5407 5.36994 11.4809 5.25197 11.5058 5.07245C11.5457 4.79034 11.8945 4.67236 12.0789 4.67236C14.5505 4.74417 16.6384 5.70334 18.2828 7.53449C19.6481 9.04762 20.3956 10.8942 20.5002 13.0125C20.5052 13.1049 20.5102 13.1869 20.4803 13.2741L20.4554 13.3511C20.3956 13.5357 20.3159 13.7871 20.0567 13.7922V13.7871ZM12.0639 5.05193C12.0041 5.05193 11.8895 5.10322 11.8696 5.13913C11.8696 5.15451 11.8696 5.18016 11.8796 5.19555C11.8995 5.22119 11.9692 5.22119 12.0141 5.22632H12.0739C12.1835 5.24171 12.2981 5.24684 12.4127 5.2571C12.6968 5.27762 12.9708 5.29813 13.23 5.33917C16.6583 5.85209 19.5186 8.86297 19.8873 12.3509C19.9023 12.5099 19.9122 12.6689 19.9222 12.8279C19.9272 12.9407 19.9372 13.0484 19.9471 13.1613C19.9471 13.1869 19.9471 13.2177 19.9471 13.2485C19.9471 13.3203 19.9471 13.3716 19.972 13.3972C19.972 13.3972 20.0219 13.4177 20.0468 13.4177C20.0468 13.4075 20.0767 13.3049 20.1016 13.2434L20.1315 13.151C20.1315 13.151 20.1315 13.1151 20.1315 13.0895V13.0382C20.0269 11.0121 19.3143 9.24766 18.0087 7.80121C16.4341 6.05213 14.4359 5.134 12.0639 5.06219V5.05193Z" fill="#FF4949"/>
<path d="M11.7153 9.73526C11.7153 9.73526 11.7402 9.76603 11.7552 9.78142C11.7951 9.82758 11.8399 9.88401 11.9097 9.91478C11.9744 9.94556 12.0442 9.94556 12.099 9.94556C12.119 9.94556 12.1389 9.94556 12.1588 9.94556C13.6537 10.0943 14.8098 11.0586 15.1785 12.464C15.2184 12.6128 15.2383 12.7718 15.2583 12.9359C15.2732 13.0539 15.2882 13.1821 15.3081 13.3001C15.3231 13.3873 15.3779 13.4488 15.4277 13.5053C15.4427 13.5206 15.4576 13.5412 15.4725 13.5566C15.4975 13.5873 15.5323 13.6078 15.5772 13.6078C15.6171 13.6078 15.6569 13.5873 15.6818 13.5514C15.6968 13.5309 15.7068 13.5104 15.7217 13.495C15.7566 13.4437 15.7964 13.3873 15.8263 13.3257C15.8513 13.2693 15.8463 13.2129 15.8463 13.1719C15.8463 13.1616 15.8463 13.1513 15.8463 13.1411C15.8463 13.1411 15.8463 13.1411 15.8463 13.136C15.7466 11.3407 14.471 9.83784 12.7518 9.47366C12.5026 9.42237 12.2485 9.41211 11.9994 9.40186H11.9894C11.8997 9.40186 11.8349 9.45828 11.7851 9.50444C11.7701 9.51983 11.7552 9.53009 11.7452 9.54035C11.7153 9.56086 11.6954 9.59677 11.6904 9.63267C11.6854 9.66858 11.7004 9.70961 11.7253 9.73526H11.7153Z" fill="#FF4949"/>
<path d="M15.5821 13.8026C15.4775 13.8026 15.3828 13.7564 15.323 13.6744L15.2881 13.6385C15.2283 13.5718 15.1486 13.4795 15.1237 13.341C15.0988 13.2127 15.0838 13.0845 15.0689 12.9614C15.0489 12.7921 15.029 12.6485 14.9941 12.5152C14.6453 11.1918 13.549 10.2788 12.1339 10.1403C12.0342 10.1403 11.9295 10.1403 11.8249 10.089C11.7252 10.0377 11.6605 9.96592 11.6106 9.90949L11.5758 9.87359C11.511 9.80691 11.4761 9.71458 11.4861 9.62226C11.491 9.52993 11.5409 9.44273 11.6156 9.38631C11.6953 9.30937 11.805 9.21191 11.9644 9.21191H11.9744C12.2435 9.22217 12.5076 9.23243 12.7717 9.28885C14.5756 9.66842 15.911 11.2482 16.0157 13.1255C16.0206 13.2127 16.0306 13.3102 15.9808 13.4128C15.9459 13.4846 15.906 13.5461 15.8612 13.6077L15.8263 13.659C15.7665 13.7462 15.6718 13.8026 15.5722 13.8026H15.5821ZM12.1139 9.75562C12.1388 9.75562 12.1588 9.75562 12.1787 9.75562C13.7484 9.90949 14.9692 10.9302 15.3579 12.4126C15.3978 12.5716 15.4177 12.7306 15.4376 12.8947C15.4526 13.0281 15.4675 13.1461 15.4924 13.264C15.4974 13.2999 15.5323 13.3358 15.5672 13.3717C15.5672 13.3717 15.5722 13.3769 15.5722 13.382C15.6021 13.3358 15.6369 13.2897 15.6619 13.2384C15.6619 13.2333 15.6619 13.2076 15.6619 13.1871V13.1358C15.5622 11.4329 14.3513 9.99669 12.7119 9.65303C12.4777 9.60174 12.2335 9.59148 11.9943 9.58635C11.9744 9.59661 11.9246 9.62225 11.9046 9.64277C11.9046 9.64277 11.9046 9.64277 11.8997 9.64277C11.9345 9.67868 11.9594 9.71458 11.9943 9.72997C12.0192 9.74536 12.0691 9.74023 12.099 9.74023H12.1139V9.75562Z" fill="#FF4949"/>
</g>
<defs>
<clipPath id="clip0_6692_15884">
<rect width="25" height="25" fill="white"/>
</clipPath>
</defs>
</svg>
