<svg width="36" height="36" viewBox="0 0 36 36" fill="none" xmlns="http://www.w3.org/2000/svg">
<path fill-rule="evenodd" clip-rule="evenodd" d="M35.5 18C35.5 27.665 27.665 35.5 18 35.5C8.33502 35.5 0.5 27.665 0.5 18C0.5 8.33502 8.33502 0.5 18 0.5C27.665 0.5 35.5 8.33502 35.5 18ZM18.6271 13.4193C16.925 14.1273 13.5231 15.5926 8.42148 17.8153C7.59306 18.1447 7.15909 18.467 7.11959 18.7821C7.05282 19.3147 7.71976 19.5244 8.62795 19.81C8.75148 19.8488 8.87949 19.8891 9.01071 19.9317C9.90423 20.2222 11.1062 20.562 11.731 20.5755C12.2978 20.5877 12.9304 20.3541 13.6288 19.8745C18.3954 16.6569 20.8559 15.0306 21.0104 14.9955C21.1194 14.9708 21.2704 14.9397 21.3727 15.0306C21.4751 15.1216 21.465 15.2938 21.4542 15.34C21.3881 15.6217 18.7702 18.0556 17.4154 19.3151C16.993 19.7078 16.6934 19.9863 16.6322 20.0499C16.495 20.1924 16.3552 20.3272 16.2208 20.4567C15.3907 21.257 14.7682 21.8571 16.2552 22.837C16.9698 23.3079 17.5417 23.6974 18.1122 24.0858C18.7352 24.5101 19.3566 24.9333 20.1607 25.4604C20.3655 25.5947 20.5611 25.7341 20.7517 25.87C21.4767 26.3869 22.1281 26.8513 22.9329 26.7772C23.4005 26.7342 23.8836 26.2945 24.1289 24.9831C24.7086 21.8838 25.8482 15.1686 26.1115 12.4014C26.1346 12.159 26.1056 11.8487 26.0823 11.7125C26.059 11.5763 26.0103 11.3823 25.8332 11.2386C25.6235 11.0685 25.2998 11.0326 25.1551 11.0351C24.4969 11.0467 23.487 11.3979 18.6271 13.4193Z" fill="#0574C5"/>
</svg>
