<svg width="29" height="29" viewBox="0 0 29 29" fill="none" xmlns="http://www.w3.org/2000/svg">
<g clip-path="url(#clip0_4901_2242)">
<path d="M14.5 8.01367C11.9755 8.01367 9.91699 10.0722 9.91699 12.5967C9.91699 15.1213 11.9755 17.1797 14.5 17.1797C17.0246 17.1797 19.0831 15.1213 19.0831 12.5967C19.0831 10.0722 17.0246 8.01367 14.5 8.01367ZM14.5 16.403C12.4027 16.403 10.6938 14.694 10.6938 12.5967C10.6938 10.4994 12.4027 8.79046 14.5 8.79046C16.5973 8.79046 18.3063 10.4994 18.3063 12.5967C18.3063 14.694 16.5973 16.403 14.5 16.403Z" fill="black"/>
<path d="M14.5001 -0.259033C6.34389 -0.259033 -0.258789 6.34365 -0.258789 14.4999C-0.258789 22.6561 6.34389 29.2588 14.5001 29.2588C22.6564 29.2588 29.2591 22.6561 29.2591 14.4999C29.2591 6.34365 22.6564 -0.259033 14.5001 -0.259033ZM6.77112 26.1517C6.77112 21.7628 10.3055 18.0343 14.5001 18.0343C18.6948 18.0343 22.1903 21.7628 22.1903 26.1517C19.9765 27.6276 17.3354 28.482 14.4613 28.482C11.5872 28.482 8.98496 27.6276 6.77112 26.1517ZM22.9671 25.6079C22.6952 21.0249 18.9278 17.2575 14.5001 17.2575C10.0725 17.2575 6.30505 21.0249 6.03317 25.6468C2.693 23.0834 0.517997 19.0441 0.517997 14.4999C0.517997 6.77088 6.77112 0.517752 14.5001 0.517752C22.2292 0.517752 28.4823 6.77088 28.4823 14.4999C28.4823 19.0441 26.3073 23.0834 22.9671 25.6079Z" fill="black"/>
</g>
<defs>
<clipPath id="clip0_4901_2242">
<rect width="29" height="29" fill="white"/>
</clipPath>
</defs>
</svg>
