<svg width="42" height="42" viewBox="0 0 42 42" fill="none" xmlns="http://www.w3.org/2000/svg">
<path fill-rule="evenodd" clip-rule="evenodd" d="M38.5 21C38.5 30.665 30.665 38.5 21 38.5C11.335 38.5 3.5 30.665 3.5 21C3.5 11.335 11.335 3.5 21 3.5C30.665 3.5 38.5 11.335 38.5 21ZM21.6271 16.4193C19.925 17.1273 16.5231 18.5926 11.4215 20.8153C10.5931 21.1447 10.1591 21.467 10.1196 21.7821C10.0528 22.3147 10.7198 22.5244 11.6279 22.81C11.7515 22.8488 11.8795 22.8891 12.0107 22.9317C12.9042 23.2222 14.1062 23.562 14.731 23.5755C15.2978 23.5877 15.9304 23.3541 16.6288 22.8745C21.3954 19.6569 23.8559 18.0306 24.0104 17.9955C24.1194 17.9708 24.2704 17.9397 24.3727 18.0306C24.4751 18.1216 24.465 18.2938 24.4542 18.34C24.3881 18.6217 21.7702 21.0556 20.4154 22.3151C19.993 22.7078 19.6934 22.9863 19.6322 23.0499C19.495 23.1924 19.3552 23.3272 19.2208 23.4567C18.3907 24.257 17.7682 24.8571 19.2552 25.837C19.9698 26.3079 20.5417 26.6974 21.1122 27.0858C21.7352 27.5101 22.3566 27.9333 23.1607 28.4604C23.3655 28.5947 23.5611 28.7341 23.7517 28.87C24.4767 29.3869 25.1281 29.8513 25.9329 29.7772C26.4005 29.7342 26.8836 29.2945 27.1289 27.9831C27.7086 24.8838 28.8482 18.1686 29.1115 15.4014C29.1346 15.159 29.1056 14.8487 29.0823 14.7125C29.059 14.5763 29.0103 14.3823 28.8332 14.2386C28.6235 14.0685 28.2998 14.0326 28.1551 14.0351C27.4969 14.0467 26.487 14.3979 21.6271 16.4193Z" fill="#FF8B20"/>
</svg>
