<svg width="35" height="35" viewBox="0 0 35 35" fill="none" xmlns="http://www.w3.org/2000/svg">
<circle cx="17.5" cy="17.5" r="17.5" fill="#0574C5"/>
<path d="M28.5 8.04412V25.9559C28.5 26.3654 28.3373 26.7582 28.0477 27.0477C27.7582 27.3373 27.3654 27.5 26.9559 27.5H9.04412C8.63459 27.5 8.24184 27.3373 7.95226 27.0477C7.66268 26.7582 7.5 26.3654 7.5 25.9559V8.04412C7.5 7.63459 7.66268 7.24184 7.95226 6.95226C8.24184 6.66268 8.63459 6.5 9.04412 6.5H26.9559C27.3654 6.5 27.7582 6.66268 28.0477 6.95226C28.3373 7.24184 28.5 7.63459 28.5 8.04412ZM13.6765 14.5294H10.5882V24.4118H13.6765V14.5294ZM13.9544 11.1324C13.956 10.8988 13.9116 10.6671 13.8237 10.4507C13.7359 10.2342 13.6062 10.0372 13.4422 9.8709C13.2781 9.70458 13.0829 9.57219 12.8677 9.4813C12.6525 9.39041 12.4215 9.34279 12.1879 9.34118H12.1324C11.6573 9.34118 11.2017 9.52989 10.8658 9.8658C10.5299 10.2017 10.3412 10.6573 10.3412 11.1324C10.3412 11.6074 10.5299 12.063 10.8658 12.3989C11.2017 12.7348 11.6573 12.9235 12.1324 12.9235C12.366 12.9293 12.5984 12.8889 12.8164 12.8048C13.0345 12.7207 13.2338 12.5944 13.403 12.4333C13.5722 12.2721 13.708 12.0791 13.8026 11.8655C13.8972 11.6518 13.9488 11.4216 13.9544 11.1879V11.1324ZM25.4118 18.4082C25.4118 15.4374 23.5218 14.2824 21.6441 14.2824C21.0293 14.2516 20.4172 14.3825 19.8689 14.6621C19.3205 14.9417 18.855 15.3602 18.5188 15.8759H18.4324V14.5294H15.5294V24.4118H18.6176V19.1556C18.573 18.6173 18.7426 18.0831 19.0895 17.6691C19.4365 17.255 19.9328 16.9946 20.4706 16.9444H20.5879C21.57 16.9444 22.2988 17.5621 22.2988 19.1185V24.4118H25.3871L25.4118 18.4082Z" fill="white"/>
</svg>
