<svg width="22" height="22" viewBox="0 0 22 22" fill="none" xmlns="http://www.w3.org/2000/svg">
<g clip-path="url(#clip0_2946_8532)">
<path d="M21.1236 11C21.1236 11.2858 21.1127 11.5715 21.0909 11.8573C21.0801 11.9879 21.0665 12.1185 21.0528 12.2519C21.0474 12.29 21.0447 12.3253 21.0392 12.3634C21.0229 12.4886 21.0528 12.2655 21.042 12.3498C21.0311 12.4287 21.0175 12.5104 21.0066 12.5893C20.9195 13.1227 20.7916 13.6479 20.6256 14.1623C20.544 14.4153 20.4514 14.6657 20.3507 14.9106C20.3317 14.9542 20.3262 15.0412 20.3507 14.9133C20.3453 14.9406 20.3262 14.9705 20.3154 14.995C20.2881 15.0549 20.2609 15.1147 20.2337 15.1773C20.1793 15.2971 20.1221 15.4168 20.0623 15.5338C19.8201 16.0128 19.5398 16.4754 19.2295 16.9108C19.1615 17.0088 19.088 17.104 19.0173 17.1966C18.9411 17.2973 19.0935 17.1013 19.0146 17.1993C18.9928 17.2265 18.971 17.2564 18.9492 17.2836C18.9057 17.3381 18.8594 17.3952 18.8132 17.4496C18.6444 17.651 18.4703 17.8442 18.2907 18.032C18.1083 18.2198 17.9206 18.4021 17.7246 18.5736C17.6267 18.6607 17.5287 18.745 17.428 18.8294C17.3817 18.8675 17.3355 18.9056 17.2892 18.9409C17.262 18.9627 17.2321 18.9845 17.2049 19.0063C17.1069 19.0852 17.3028 18.9328 17.2021 19.009C16.7749 19.3328 16.3259 19.6295 15.8551 19.8853C15.6237 20.0132 15.387 20.1302 15.1475 20.239C15.0931 20.2635 15.0387 20.288 14.9815 20.3125C14.9461 20.3288 14.8563 20.3887 14.9788 20.3152C14.9597 20.3261 14.9325 20.3343 14.9108 20.3424C14.7774 20.3969 14.6413 20.4486 14.5053 20.5003C13.9991 20.6826 13.482 20.8296 12.9541 20.933C12.8208 20.9602 12.6874 20.9847 12.5513 21.0037C12.4887 21.0146 12.4289 21.0228 12.3663 21.0309C12.2357 21.05 12.4942 21.0146 12.3636 21.0309C12.3255 21.0364 12.2901 21.0391 12.252 21.0446C11.9717 21.0772 11.6887 21.099 11.4029 21.1099C10.8396 21.1316 10.2736 21.1071 9.71569 21.0418C9.68575 21.0391 9.6531 21.0337 9.62316 21.0309C9.54152 21.0201 9.76467 21.0527 9.63949 21.0337C9.57146 21.0228 9.50342 21.0146 9.43539 21.0037C9.29388 20.982 9.15509 20.9548 9.0163 20.9275C8.75233 20.8731 8.48836 20.8105 8.22983 20.737C7.9713 20.6636 7.71821 20.5819 7.46785 20.4894C7.34267 20.4431 7.22021 20.3942 7.09502 20.3452C7.04876 20.3261 6.96712 20.3234 7.0923 20.3452C7.07325 20.3424 7.0406 20.3234 7.02699 20.3152C6.95623 20.2853 6.88276 20.2526 6.812 20.22C6.3276 19.9968 5.86225 19.7383 5.41867 19.4444C5.2064 19.3056 4.9642 19.1641 4.77915 18.9899C4.89617 19.0988 4.75194 18.9682 4.722 18.9437C4.66757 18.9001 4.61043 18.8539 4.556 18.8076C4.45531 18.7232 4.35734 18.6389 4.25937 18.5518C3.87022 18.2035 3.50828 17.8252 3.17355 17.4224C3.12729 17.368 3.08375 17.3136 3.03748 17.2564C3.02388 17.2374 3.00755 17.2183 2.99394 17.1993C2.91502 17.1013 3.06742 17.2973 2.99122 17.1966C2.90414 17.0823 2.81977 16.968 2.73813 16.851C2.58846 16.636 2.44423 16.4155 2.31088 16.1924C2.17481 15.9665 2.04963 15.7352 1.92989 15.5012C1.87274 15.3896 1.81832 15.2753 1.76661 15.161C1.7394 15.1011 1.71218 15.0413 1.68497 14.9787C1.67953 14.9678 1.63054 14.8589 1.66864 14.9433C1.70674 15.0276 1.64687 14.8889 1.64143 14.8752C1.44005 14.38 1.27677 13.8683 1.15158 13.3486C1.08627 13.0792 1.03185 12.807 0.991025 12.5322C0.980139 12.4696 0.958369 12.3934 0.96109 12.3281C0.952926 12.456 0.969254 12.3907 0.963811 12.3417C0.96109 12.3117 0.955647 12.2791 0.952926 12.2491C0.936598 12.0995 0.92027 11.9498 0.909384 11.8001C0.868564 11.2422 0.871285 10.6816 0.914827 10.1265C0.925712 9.9877 0.939319 9.85163 0.955647 9.71556C0.958368 9.69107 0.96109 9.66658 0.963811 9.64208C0.980139 9.51146 0.944762 9.76999 0.963811 9.63936C0.974697 9.56589 0.985582 9.49241 0.996467 9.41893C1.04001 9.15224 1.09444 8.88555 1.15703 8.62158C1.28493 8.08819 1.4591 7.57113 1.66592 7.06496C1.68225 7.02414 1.67136 6.99693 1.65231 7.0949C1.65776 7.06224 1.68225 7.02414 1.69586 6.99421C1.72035 6.93978 1.74484 6.88535 1.76933 6.83092C1.8292 6.7003 1.89179 6.56967 1.95711 6.44177C2.07685 6.20773 2.20475 5.97642 2.34082 5.75327C2.47688 5.53012 2.62112 5.30969 2.77351 5.09742C2.84699 4.99401 2.92047 4.87427 3.00755 4.78174C2.89869 4.89604 3.02932 4.75453 3.05381 4.7246C3.09735 4.67017 3.14362 4.61302 3.18988 4.55859C3.53277 4.14767 3.9056 3.76396 4.30563 3.41018C4.39544 3.33126 4.48524 3.25507 4.57505 3.17887C4.62403 3.13805 4.67574 3.09723 4.72744 3.05641C4.75194 3.03736 4.77371 3.01831 4.7982 3.00198C4.84446 2.9666 4.8363 2.97204 4.77371 3.02103C4.79276 3.00742 4.81181 2.99109 4.83086 2.97749C5.0404 2.81965 5.25267 2.66725 5.4731 2.52574C5.91395 2.24 6.37659 1.98419 6.85554 1.76648C6.91541 1.73927 6.97528 1.71206 7.03787 1.68484C7.07325 1.66852 7.13856 1.62225 7.02427 1.69029C7.0542 1.67396 7.0923 1.66307 7.12496 1.64947C7.24742 1.60048 7.3726 1.5515 7.49778 1.50523C7.75359 1.41271 8.01484 1.32835 8.27881 1.25487C8.5455 1.18139 8.81492 1.11608 9.08433 1.06438C9.20679 1.03988 9.32653 1.01811 9.44899 0.999063C9.51703 0.988177 9.60411 0.960964 9.66942 0.966407C9.65854 0.966407 9.53608 0.982735 9.63677 0.971849C9.68575 0.966406 9.73474 0.958242 9.78644 0.9528C10.3416 0.890209 10.8995 0.871159 11.4574 0.895651C11.7349 0.906537 12.0098 0.931029 12.2846 0.963685C12.32 0.969128 12.3636 0.966406 12.3962 0.977292C12.2602 0.93375 12.3581 0.971849 12.3989 0.977292C12.4615 0.985456 12.5214 0.996341 12.584 1.00451C12.7255 1.02628 12.8643 1.05349 13.0031 1.0807C13.5365 1.18956 14.059 1.33923 14.5679 1.52973C14.6822 1.57055 14.7937 1.61681 14.9053 1.66035C14.9489 1.6794 15.0359 1.68484 14.908 1.66035C14.9407 1.66579 14.9788 1.69029 15.0087 1.70389C15.074 1.73383 15.1393 1.76376 15.2074 1.7937C15.4469 1.90527 15.6809 2.02501 15.9122 2.15292C16.1408 2.28082 16.3667 2.41689 16.5844 2.56112C16.7967 2.69991 17.0416 2.84142 17.2239 3.01559C17.1178 2.9149 17.1994 2.99654 17.2266 3.01831C17.2538 3.04008 17.2838 3.06185 17.311 3.08634C17.3573 3.12444 17.4035 3.16254 17.4498 3.20064C17.5559 3.28772 17.6566 3.37753 17.76 3.47005C17.9587 3.64966 18.1492 3.83471 18.3342 4.02793C18.5138 4.2157 18.688 4.41164 18.854 4.61302C18.8921 4.65928 18.9302 4.70555 18.9656 4.75181C18.9846 4.7763 19.02 4.80624 19.0309 4.83617C18.9873 4.73276 18.9901 4.78447 19.0227 4.82529C19.1044 4.93414 19.186 5.04572 19.2649 5.15729C19.567 5.58727 19.8364 6.03901 20.0732 6.5098C20.133 6.62682 20.1902 6.74656 20.2446 6.8663C20.2691 6.92073 20.2936 6.97516 20.3181 7.03231C20.3317 7.06496 20.3943 7.16021 20.3208 7.03503C20.3426 7.0704 20.3535 7.11395 20.3698 7.15204C20.4732 7.40513 20.5657 7.66094 20.6474 7.91947C20.8106 8.4338 20.9358 8.96175 21.0175 9.49513C21.0284 9.55772 21.0338 9.61759 21.0447 9.68018C21.0147 9.51146 21.0528 9.75366 21.0583 9.79448C21.0719 9.91966 21.0855 10.0448 21.0937 10.17C21.1127 10.4422 21.1236 10.7197 21.1236 11C21.1236 11.2858 21.374 11.5579 21.6679 11.5443C21.9618 11.5307 22.2121 11.3048 22.2121 11C22.2094 8.70322 21.4992 6.41456 20.163 4.53954C18.8322 2.6727 16.9763 1.24943 14.8264 0.457513C12.6384 -0.348008 10.181 -0.426927 7.93864 0.20987C5.77789 0.822175 3.80763 2.10121 2.37892 3.83471C0.895777 5.63353 0.00317314 7.83511 -0.179158 10.1619C-0.358767 12.4696 0.204553 14.8235 1.40467 16.802C2.56397 18.7124 4.30291 20.2771 6.34121 21.197C8.51285 22.1766 10.9403 22.4515 13.2752 21.978C15.485 21.529 17.545 20.3778 19.1016 18.7477C20.6637 17.1122 21.7277 15.0004 22.0706 12.7635C22.1604 12.1784 22.2121 11.5906 22.2121 11C22.2121 10.7143 21.9618 10.4422 21.6679 10.4558C21.3712 10.4694 21.1236 10.6952 21.1236 11Z" fill="#FF0000"/>
<path d="M14.7314 13.9582C14.511 13.7377 14.2878 13.5146 14.0647 13.2914C13.534 12.7608 13.0033 12.2301 12.4727 11.6994C11.8277 11.0545 11.1827 10.4095 10.5378 9.76455C9.9799 9.20667 9.42203 8.6488 8.86415 8.09092C8.59201 7.81878 8.32804 7.54121 8.05046 7.27723C8.04774 7.27451 8.0423 7.26907 8.03958 7.26635C7.8382 7.06497 7.46809 7.04864 7.26944 7.26635C7.07078 7.48406 7.05445 7.82151 7.26944 8.03649C7.48987 8.25692 7.71302 8.48007 7.93617 8.70322C8.46683 9.23389 8.9975 9.76455 9.52816 10.2952C10.1731 10.9402 10.8181 11.5851 11.463 12.2301C12.0209 12.788 12.5788 13.3459 13.1367 13.9037C13.4088 14.1759 13.6728 14.4534 13.9504 14.7174C13.9531 14.7201 13.9585 14.7256 13.9612 14.7283C14.1626 14.9297 14.5327 14.946 14.7314 14.7283C14.93 14.5133 14.9464 14.1759 14.7314 13.9582Z" fill="#FF0000"/>
<path d="M13.9613 7.26901C13.7409 7.48944 13.5178 7.71259 13.2946 7.93574C12.7639 8.46641 12.2333 8.99707 11.7026 9.52774C11.0576 10.1727 10.4127 10.8177 9.76773 11.4626C9.20985 12.0205 8.65197 12.5784 8.09409 13.1363C7.82196 13.4084 7.54438 13.6724 7.28041 13.9499C7.27769 13.9527 7.27224 13.9581 7.26952 13.9608C7.06814 14.1622 7.05181 14.5323 7.26952 14.731C7.48723 14.9296 7.82468 14.946 8.03967 14.731C8.2601 14.5105 8.48325 14.2874 8.7064 14.0642C9.23706 13.5336 9.76773 13.0029 10.2984 12.4722C10.9434 11.8273 11.5883 11.1823 12.2333 10.5374C12.7912 9.97948 13.349 9.4216 13.9069 8.86373C14.179 8.59159 14.4566 8.32762 14.7206 8.05004C14.7233 8.04732 14.7288 8.04188 14.7315 8.03916C14.9329 7.83778 14.9492 7.46767 14.7315 7.26901C14.5138 7.07035 14.179 7.0513 13.9613 7.26901Z" fill="#FF0000"/>
</g>
<defs>
<clipPath id="clip0_2946_8532">
<rect width="22" height="22" fill="white"/>
</clipPath>
</defs>
</svg>
