<svg width="35" height="35" viewBox="0 0 35 35" fill="none" xmlns="http://www.w3.org/2000/svg">
<circle cx="17.5" cy="17.5" r="17.5" fill="#FF8B20"/>
<path d="M27.9163 17.5631C27.9163 11.7749 23.2531 7.08325 17.4997 7.08325C11.7462 7.08325 7.08301 11.7749 7.08301 17.5631C7.08301 22.7951 10.8913 27.1305 15.8719 27.9166V20.593H13.2275V17.5624H15.8719V15.2541C15.8719 12.6277 17.4268 11.1763 19.8066 11.1763C20.9455 11.1763 22.1386 11.3812 22.1386 11.3812V13.9603H20.824C19.5302 13.9603 19.1275 14.7687 19.1275 15.5978V17.5631H22.0163L21.5545 20.5923H19.1275V27.9166C24.108 27.1305 27.9163 22.7951 27.9163 17.5631Z" fill="white"/>
</svg>
