<svg width="35" height="35" viewBox="0 0 35 35" fill="none" xmlns="http://www.w3.org/2000/svg">
<circle cx="17.5" cy="17.5" r="17.5" fill="#FF8B20"/>
<path d="M25.7835 13.2502C25.7962 13.4338 25.7962 13.6175 25.7962 13.8029C25.7962 19.4507 21.4966 25.9643 13.6347 25.9643V25.9609C11.3123 25.9643 9.03812 25.2991 7.08301 24.0447C7.42071 24.0854 7.7601 24.1057 8.10034 24.1065C10.025 24.1082 11.8946 23.4624 13.4088 22.2733C11.5798 22.2386 9.97589 21.0461 9.4156 19.3051C10.0563 19.4287 10.7165 19.4033 11.3453 19.2315C9.35127 18.8286 7.91668 17.0766 7.91668 15.0419C7.91668 15.0233 7.91668 15.0055 7.91668 14.9878C8.51083 15.3187 9.17607 15.5024 9.85655 15.5227C7.97846 14.2675 7.39955 11.769 8.53368 9.81562C10.7038 12.4859 13.9056 14.1092 17.3427 14.281C16.9982 12.7965 17.4688 11.2409 18.5792 10.1973C20.3007 8.57907 23.0083 8.66202 24.6265 10.3827C25.5838 10.1939 26.5012 9.8427 27.3408 9.34503C27.0217 10.3344 26.3539 11.1749 25.4619 11.7089C26.3091 11.6091 27.1368 11.3822 27.9163 11.0361C27.3425 11.896 26.6197 12.645 25.7835 13.2502Z" fill="white"/>
</svg>
