<svg width="29" height="29" viewBox="0 0 29 29" fill="none" xmlns="http://www.w3.org/2000/svg">
<path d="M20.1162 19.449C19.4603 18.9003 18.8045 18.3526 18.1843 17.8618C18.0812 17.7821 17.9566 17.7348 17.8265 17.7261C17.6964 17.7173 17.5667 17.7475 17.4538 17.8128L15.3145 19.1445C14.0312 18.3331 12.9703 17.2148 12.2275 15.8906C11.4848 14.5664 11.0837 13.078 11.0604 11.5599L13.2688 10.3218C13.3892 10.259 13.4857 10.1585 13.5435 10.0356C13.6013 9.91271 13.6173 9.77427 13.589 9.64146L12.9353 5.06839L12.9253 5.01931C12.9042 4.93149 12.8645 4.84922 12.8088 4.77803C12.7532 4.70684 12.683 4.6484 12.603 4.60662C11.7103 4.19433 10.701 4.10944 9.75203 4.36681C7.40972 5.24015 6.57542 8.419 6.78845 11.0022C7.3428 17.8462 13.6905 24.9847 17.9869 24.7862C18.9178 24.7872 19.8254 24.495 20.5808 23.951C21.3363 23.407 21.9011 22.6389 22.1953 21.7557C22.251 21.6258 22.2624 21.4811 22.2275 21.3442C22.1926 21.2072 22.1134 21.0856 22.0023 20.9983C21.3955 20.5232 20.7553 19.9833 20.1162 19.449ZM17.9334 23.9518C14.1935 24.1649 8.14476 17.3789 7.61607 10.9342C7.42869 8.65435 8.06891 5.90492 10.0398 5.15092C10.7349 4.98922 11.4629 5.0445 12.1256 5.30931L12.7491 9.65373L10.554 10.8807C10.4528 10.9344 10.3681 11.0147 10.3092 11.113C10.2502 11.2113 10.2192 11.3238 10.2194 11.4383C10.2242 13.1396 10.6637 14.8114 11.4963 16.295C12.3289 17.7786 13.5269 19.0248 14.9765 19.9153C15.0766 19.9751 15.1911 20.0067 15.3078 20.0067C15.4244 20.0067 15.5389 19.9751 15.639 19.9153L17.7672 18.5902C18.3516 19.0553 18.964 19.5684 19.5775 20.0803C20.1909 20.5923 20.7899 21.0942 21.3699 21.5549C21.1194 22.2634 20.6532 22.8756 20.0368 23.3056C19.4204 23.7355 18.6848 23.9615 17.9334 23.9518ZM14.4991 0.580078C11.746 0.580078 9.0547 1.39647 6.76557 2.92602C4.47644 4.45557 2.69228 6.62958 1.6387 9.17312C0.585133 11.7167 0.30947 14.5155 0.846577 17.2157C1.38368 19.9159 2.70943 22.3963 4.65618 24.343C6.60293 26.2897 9.08323 27.6155 11.7834 28.1526C14.4837 28.6897 17.2825 28.4141 19.8261 27.3605C22.3696 26.3069 24.5436 24.5227 26.0732 22.2336C27.6027 19.9445 28.4191 17.2532 28.4191 14.5001C28.4147 10.8096 26.9467 7.27159 24.3371 4.66204C21.7276 2.05249 18.1896 0.584506 14.4991 0.580078ZM14.4991 27.5835C11.9114 27.5835 9.38189 26.8162 7.23033 25.3786C5.07876 23.9409 3.40182 21.8976 2.41157 19.5069C1.42131 17.1162 1.16221 14.4856 1.66704 11.9476C2.17187 9.40968 3.41795 7.07843 5.2477 5.24867C7.07746 3.41892 9.40871 2.17284 11.9467 1.66801C14.4846 1.16318 17.1152 1.42228 19.5059 2.41254C21.8966 3.40279 23.94 5.07973 25.3776 7.2313C26.8152 9.38286 27.5826 11.9124 27.5826 14.5001C27.5787 17.9688 26.1991 21.2944 23.7463 23.7472C21.2935 26.2 17.9679 27.5797 14.4991 27.5835Z" fill="black"/>
</svg>
