<svg width="35" height="35" viewBox="0 0 35 35" fill="none" xmlns="http://www.w3.org/2000/svg">
<circle cx="17.5" cy="17.5" r="17.5" fill="#0574C5"/>
<path d="M25.7835 13.2499C25.7962 13.4336 25.7962 13.6173 25.7962 13.8026C25.7962 19.4504 21.4966 25.9641 13.6347 25.9641V25.9607C11.3123 25.9641 9.03812 25.2988 7.08301 24.0445C7.42071 24.0851 7.7601 24.1054 8.10034 24.1063C10.025 24.108 11.8946 23.4622 13.4088 22.2731C11.5798 22.2383 9.97589 21.0458 9.4156 19.3048C10.0563 19.4284 10.7165 19.403 11.3453 19.2312C9.35127 18.8283 7.91668 17.0764 7.91668 15.0417C7.91668 15.0231 7.91668 15.0053 7.91668 14.9875C8.51083 15.3185 9.17607 15.5021 9.85655 15.5224C7.97846 14.2673 7.39955 11.7688 8.53368 9.81537C10.7038 12.4857 13.9056 14.109 17.3427 14.2808C16.9982 12.7963 17.4688 11.2407 18.5792 10.1971C20.3007 8.57883 23.0083 8.66177 24.6265 10.3824C25.5838 10.1937 26.5012 9.84245 27.3408 9.34479C27.0217 10.3342 26.3539 11.1746 25.4619 11.7087C26.3091 11.6088 27.1368 11.382 27.9163 11.0358C27.3425 11.8957 26.6197 12.6448 25.7835 13.2499Z" fill="white"/>
</svg>
