<svg width="14" height="22" viewBox="0 0 14 22" fill="none" xmlns="http://www.w3.org/2000/svg">
<path d="M1.5104 16.0365V20.9394H-0.10498V21.987H14.105V20.9394H12.4896V16.0365C12.4903 15.384 12.3246 14.7415 12.0075 14.1665C11.6903 13.5915 11.2316 13.102 10.6723 12.7418L7.97463 11.0001L10.6669 9.26104C11.2262 8.90079 11.685 8.41127 12.0021 7.83629C12.3193 7.2613 12.4849 6.6188 12.4843 5.96628V1.0608H14.0996V0.0131836H-0.10498V1.0608H1.5104V5.96366C1.50974 6.61618 1.6754 7.25868 1.99254 7.83367C2.30969 8.40865 2.76843 8.89817 3.32771 9.25842L6.02002 10.9975L3.32771 12.7365C2.7675 13.0971 2.30815 13.5874 1.99094 14.1634C1.67374 14.7394 1.50861 15.3831 1.5104 16.0365ZM3.93348 8.38628C3.5204 8.12251 3.18113 7.76306 2.94617 7.3402C2.71121 6.91735 2.5879 6.44434 2.58733 5.96366V1.0608H11.4127V5.96366C11.4121 6.44434 11.2888 6.91735 11.0539 7.3402C10.8189 7.76306 10.4796 8.12251 10.0666 8.38628L7.00002 10.3715L3.93348 8.38628ZM3.93348 13.6244L7.00002 11.6287L10.0773 13.6191C10.4906 13.8827 10.83 14.2421 11.065 14.665C11.2999 15.0879 11.4231 15.561 11.4235 16.0418V20.9394H2.58733V16.0365C2.58737 15.5576 2.70936 15.0862 2.94238 14.6644C3.17541 14.2426 3.51221 13.8834 3.92271 13.6191L3.93348 13.6244Z" fill="#23B5E3"/>
</svg>
