<svg width="35" height="35" viewBox="0 0 35 35" fill="none" xmlns="http://www.w3.org/2000/svg">
<circle cx="17.5" cy="17.5" r="17.5" fill="#FD2727"/>
<path d="M25.7839 13.2499C25.7966 13.4336 25.7966 13.6173 25.7966 13.8026C25.7966 19.4504 21.497 25.9641 13.6351 25.9641V25.9607C11.3127 25.9641 9.03848 25.2988 7.08337 24.0445C7.42107 24.0851 7.76047 24.1054 8.10071 24.1063C10.0253 24.108 11.895 23.4622 13.4091 22.2731C11.5801 22.2383 9.97626 21.0458 9.41596 19.3048C10.0567 19.4284 10.7168 19.403 11.3457 19.2312C9.35164 18.8283 7.91705 17.0764 7.91705 15.0417C7.91705 15.0231 7.91705 15.0053 7.91705 14.9875C8.5112 15.3185 9.17644 15.5021 9.85692 15.5224C7.97883 14.2673 7.39992 11.7688 8.53405 9.81537C10.7041 12.4857 13.9059 14.109 17.343 14.2808C16.9986 12.7963 17.4691 11.2407 18.5796 10.1971C20.3011 8.57883 23.0086 8.66177 24.6269 10.3824C25.5841 10.1937 26.5016 9.84245 27.3412 9.34479C27.0221 10.3342 26.3543 11.1746 25.4622 11.7087C26.3095 11.6088 27.1372 11.382 27.9167 11.0358C27.3429 11.8957 26.6201 12.6448 25.7839 13.2499Z" fill="white"/>
</svg>
