<svg width="35" height="35" viewBox="0 0 35 35" fill="none" xmlns="http://www.w3.org/2000/svg">
<circle cx="17.5" cy="17.5" r="17.5" fill="#0574C5"/>
<path d="M27.9163 17.5634C27.9163 11.7752 23.2531 7.0835 17.4997 7.0835C11.7462 7.0835 7.08301 11.7752 7.08301 17.5634C7.08301 22.7953 10.8913 27.1307 15.8719 27.9168V20.5932H13.2275V17.5627H15.8719V15.2543C15.8719 12.6279 17.4268 11.1766 19.8066 11.1766C20.9455 11.1766 22.1386 11.3814 22.1386 11.3814V13.9606H20.824C19.5302 13.9606 19.1275 14.7689 19.1275 15.5981V17.5634H22.0163L21.5545 20.5925H19.1275V27.9168C24.108 27.1307 27.9163 22.7953 27.9163 17.5634Z" fill="white"/>
</svg>
