<svg version="1.2" xmlns="http://www.w3.org/2000/svg" viewBox="0 0 928 246" width="161" height="43">
	<title>LOGO MANFAAT-01-svg</title>
	<defs>
		<linearGradient id="g1" x1="32.5" y1="183.3" x2="32.5" y2="3" gradientUnits="userSpaceOnUse">
			<stop offset="0" stop-color="#ef4136"/>
			<stop offset=".2" stop-color="#c63250"/>
			<stop offset=".5" stop-color="#8e1c74"/>
			<stop offset=".7" stop-color="#660d8f"/>
			<stop offset=".9" stop-color="#4c049f"/>
			<stop offset="1" stop-color="#4300a5"/>
		</linearGradient>
		<linearGradient id="g2" x1="74.7" y1="162" x2="194.6" y2="-9.3" gradientUnits="userSpaceOnUse">
			<stop offset="0" stop-color="#ef4136"/>
			<stop offset=".2" stop-color="#c63250"/>
			<stop offset=".5" stop-color="#8e1c74"/>
			<stop offset=".7" stop-color="#660d8f"/>
			<stop offset=".9" stop-color="#4c049f"/>
			<stop offset="1" stop-color="#4300a5"/>
		</linearGradient>
		<linearGradient id="g3" x1="217.6" y1="116.3" x2="336.8" y2="116.3" gradientUnits="userSpaceOnUse">
			<stop offset="0" stop-color="#4300a5"/>
			<stop offset=".2" stop-color="#40049e"/>
			<stop offset=".5" stop-color="#370e89"/>
			<stop offset=".9" stop-color="#291f68"/>
			<stop offset="1" stop-color="#262262"/>
		</linearGradient>
		<linearGradient id="g4" x1="364.6" y1="115.2" x2="488" y2="115.2" gradientUnits="userSpaceOnUse">
			<stop offset="0" stop-color="#4300a5"/>
			<stop offset=".2" stop-color="#40049e"/>
			<stop offset=".5" stop-color="#370e89"/>
			<stop offset=".9" stop-color="#291f68"/>
			<stop offset="1" stop-color="#262262"/>
		</linearGradient>
		<linearGradient id="g5" x1="498.6" y1="91.8" x2="575.1" y2="91.8" gradientUnits="userSpaceOnUse">
			<stop offset="0" stop-color="#4300a5"/>
			<stop offset=".2" stop-color="#40049e"/>
			<stop offset=".5" stop-color="#370e89"/>
			<stop offset=".9" stop-color="#291f68"/>
			<stop offset="1" stop-color="#262262"/>
		</linearGradient>
		<linearGradient id="g6" x1="578.3" y1="116.3" x2="697.5" y2="116.3" gradientUnits="userSpaceOnUse">
			<stop offset="0" stop-color="#4300a5"/>
			<stop offset=".2" stop-color="#40049e"/>
			<stop offset=".5" stop-color="#370e89"/>
			<stop offset=".9" stop-color="#291f68"/>
			<stop offset="1" stop-color="#262262"/>
		</linearGradient>
		<linearGradient id="g7" x1="716.4" y1="116.3" x2="835.6" y2="116.3" gradientUnits="userSpaceOnUse">
			<stop offset="0" stop-color="#4300a5"/>
			<stop offset=".2" stop-color="#40049e"/>
			<stop offset=".5" stop-color="#370e89"/>
			<stop offset=".9" stop-color="#291f68"/>
			<stop offset="1" stop-color="#262262"/>
		</linearGradient>
		<linearGradient id="g8" x1="847.7" y1="102.8" x2="928" y2="102.8" gradientUnits="userSpaceOnUse">
			<stop offset="0" stop-color="#4300a5"/>
			<stop offset=".2" stop-color="#40049e"/>
			<stop offset=".5" stop-color="#370e89"/>
			<stop offset=".9" stop-color="#291f68"/>
			<stop offset="1" stop-color="#262262"/>
		</linearGradient>
	</defs>
	<style>
		.s0 { fill: url(#g1) } 
		.s1 { fill: #f15a29 } 
		.s2 { fill: url(#g2) } 
		.s3 { fill: #ef4136 } 
		.s4 { fill: url(#g3) } 
		.s5 { fill: url(#g4) } 
		.s6 { fill: url(#g5) } 
		.s7 { fill: url(#g6) } 
		.s8 { fill: url(#g7) } 
		.s9 { fill: url(#g8) } 
		.s10 { fill: #000000 } 
	</style>
	<path id="Layer" class="s0" d="m0 3h65.1v180.3h-65.1z"/>
	<path id="Layer" class="s1" d="m142.6 2.9h65v182.8h-65z"/>
	<path id="Layer" class="s2" d="m142.4 1h66.9l-104.4 182.1-0.2-116.6z"/>
	<path id="Layer" class="s3" d="m0.1 1h66.8l37.8 65.5 0.2 116.6z"/>
	<g id="Layer">
		<path id="Layer" fill-rule="evenodd" class="s4" d="m311.4 183.3l-7.1-18.2h-1q-9.2 11.6-18.9 16.1-9.8 4.5-25.4 4.5-19.3 0-30.3-11-11.1-11-11.1-31.4 0-21.2 14.9-31.4 14.9-10 44.9-11.1l23.2-0.8v-5.8q0-20.3-20.8-20.3-16 0-37.7 9.6l-12-24.6q23-12.1 51.1-12.1 26.9 0 41.3 11.8 14.3 11.7 14.3 35.6v89.1c0 0-25.4 0-25.4 0zm-10.8-62l-14.1 0.5q-15.9 0.5-23.7 5.8-7.8 5.2-7.8 16 0 15.4 17.7 15.4 12.7 0 20.3-7.3 7.6-7.3 7.6-19.4c0 0 0-11 0-11z"/>
		<path id="Layer" class="s5" d="m488 183.3h-36.5v-78.1q0-14.5-5.1-21.7-5.2-7.2-16.4-7.2-15.3 0-22.1 10.2-6.9 10.2-6.9 33.9v62.9h-36.4v-133.7h27.8l4.9 17.1h2.1q6-9.7 16.8-14.7 10.6-4.9 24.3-4.9 23.3 0 35.4 12.6 12 12.6 12.1 36.4c0 0 0 87.2 0 87.2z"/>
		<path id="Layer" class="s6" d="m517.2 183.3v-101.4h-18.6v-26.6h18.6v-11.3c0-26.4 13.2-43.7 40.9-43.7 5.9 0 13.2 0.5 16.4 1.5v28c-1.9-0.4-4.6-0.7-7.4-0.7-10.5 0-14.4 3.9-14.4 17.6v8.5h22.4v26.7h-22.4v101.4h-35.5z"/>
		<path id="Layer" fill-rule="evenodd" class="s7" d="m672.1 183.3l-7.1-18.2h-1q-9.2 11.6-18.9 16.1-9.8 4.5-25.4 4.5-19.3 0-30.3-11-11.1-11-11.1-31.4 0-21.2 14.9-31.4 14.9-10 44.9-11.1l23.2-0.8v-5.8q0-20.3-20.8-20.3-16 0-37.6 9.6l-12.1-24.6q23-12.1 51.1-12.1 26.9 0 41.3 11.8 14.3 11.7 14.3 35.6v89.1c0 0-25.4 0-25.4 0zm-10.8-62l-14.1 0.5q-15.9 0.5-23.7 5.8-7.8 5.2-7.8 16 0 15.4 17.8 15.4 12.6 0 20.2-7.3 7.6-7.3 7.6-19.4v-11z"/>
		<path id="Layer" fill-rule="evenodd" class="s8" d="m810.2 183.3l-7.1-18.2h-0.9q-9.3 11.6-19 16.1-9.7 4.5-25.4 4.5-19.3 0-30.3-11-11.1-11-11.1-31.4 0-21.2 14.9-31.4 14.9-10 44.9-11.1l23.2-0.8v-5.8q0-20.3-20.8-20.3-16 0-37.6 9.6l-12.1-24.6q23.1-12.1 51.2-12.1 26.8 0 41.2 11.8 14.3 11.7 14.4 35.6v89.1c0 0-25.5 0-25.5 0zm-10.8-62l-14.1 0.5q-15.9 0.5-23.7 5.8-7.7 5.2-7.7 16 0 15.4 17.7 15.4 12.6 0 20.2-7.3 7.6-7.3 7.6-19.4v-11z"/>
		<path id="Layer" class="s9" d="m847.7 55.3h19.8v-34.7h35.4v34.7h25.1v26.6h-25.1v63.2c0 9.7 3 13.5 13.5 13.5 2 0 5.4 0 8.1-0.4v24.4c-7 2.3-16.7 2.4-23.8 2.4-25 0-33.2-13.4-33.2-35.8v-67.3h-19.8z"/>
	</g>
	<g id="Layer">
		<path id="Layer" fill-rule="evenodd" class="s10" d="m3.9 201.5h8.5c8.4 0 11.9 5.5 11.9 16.2 0 11.6-3.3 17.9-12.4 17.9h-8zm5.4 29.7h2.5c5.3 0 7-4.1 7-13.4 0-8.2-1.7-11.9-7-11.9h-2.5z"/>
		<path id="Layer" fill-rule="evenodd" class="s10" d="m49 223.9c0 3.9 0.6 7.8 4.2 7.8 3.3 0 3.7-3 3.8-3.8h5.1c-0.1 0.7-0.8 8.2-9 8.2-8.2 0-9.3-7.1-9.3-13.6 0-8.2 3-13.3 9.4-13.3 7.3 0 9.1 5.7 9.1 12.3 0 0.8-0.1 1.9-0.1 2.4zm8-3.9c0-3.1-0.5-6.4-3.8-6.4-3.9 0-4.1 4.6-4.1 6.4z"/>
		<path id="Layer" class="s10" d="m82.2 217.4c0-4.9 0-6.6-0.1-7.7h5c0.1 0.6 0.2 1.9 0.2 2.9 1.1-2.1 3-3.4 5.7-3.4 2.8 0 4.5 1.3 5.3 3.7 1-1.9 2.9-3.7 6.3-3.7 3.5 0 6.4 1.8 6.4 7.7v18.7h-5.1v-17.9c0-2.2-0.7-4-3.1-4-2.7 0-3.6 2.2-3.6 5.5v16.4h-5.2v-17.8c0-2.6-0.8-4-3-4-2.6 0-3.7 2-3.7 5.6v16.2h-5.2v-18.2z"/>
		<path id="Layer" class="s10" d="m132.2 209.7h5.2v25.9h-5.2zm0-9.9h5.3v5.7h-5.3z"/>
		<path id="Layer" class="s10" d="m184 201.5h5.3v15.8c2.1-3.3 6.8-11.2 9.8-15.8h6.1l-9.1 13.4 9.3 20.7h-5.9l-7-16.2-3.2 4.4v11.8h-5.3z"/>
		<path id="Layer" fill-rule="evenodd" class="s10" d="m227.3 223.9c-0.1 3.9 0.5 7.8 4.1 7.8 3.3 0 3.7-3 3.9-3.8h5c-0.1 0.7-0.7 8.2-9 8.2-8.1 0-9.3-7.1-9.3-13.6 0-8.2 3-13.3 9.4-13.3 7.3 0 9.1 5.7 9.1 12.3 0 0.8-0.1 1.9-0.1 2.4zm8.1-3.9c0-3.1-0.5-6.4-3.9-6.4-3.9 0-4.1 4.6-4.1 6.4z"/>
		<path id="Layer" class="s10" d="m264.1 227.9c0 2.1 1.1 4.1 3.7 4.1 2.3 0 3.4-1.3 3.4-3.2 0-2.1-1-3.2-4.2-4.4-5.9-2.2-7.4-4.2-7.4-8 0-3.5 2.2-7.2 8.1-7.2 6.4 0 8.1 4.4 8.1 7.8h-5c-0.1-1-0.2-3.7-3.3-3.7-1.8 0-2.8 1.1-2.8 2.8 0 1.8 1 2.6 4.2 3.8 5.3 2 7.5 4 7.5 8.3 0 4.9-3.2 7.8-8.8 7.8-5.9 0-8.6-3.5-8.7-8.1 0 0 5.1 0 5.1 0z"/>
		<path id="Layer" fill-rule="evenodd" class="s10" d="m300.1 223.9c0 3.9 0.6 7.8 4.2 7.8 3.3 0 3.7-3 3.8-3.8h5.1c-0.1 0.7-0.8 8.2-9 8.2-8.2 0-9.3-7.1-9.3-13.6 0-8.2 3-13.3 9.4-13.3 7.3 0 9.1 5.7 9.1 12.3 0 0.8-0.1 1.9-0.1 2.4zm8-3.9c0-3.1-0.5-6.4-3.8-6.4-3.9 0-4.1 4.6-4.1 6.4z"/>
		<path id="Layer" class="s10" d="m338.9 209.7v26.7c0 5.1-0.6 8.9-6.4 8.9-0.7 0-1.3 0-2-0.2v-4.5c0.5 0.1 0.9 0.1 1.2 0.1 1.8 0 2-1 2-3.4v-27.6c0 0 5.2 0 5.2 0zm-5.2-4.2v-5.7h5.3v5.7z"/>
		<path id="Layer" fill-rule="evenodd" class="s10" d="m376.2 230.3c0 1.4 0.2 4.2 0.2 5.3h-4.7c-0.1-0.6-0.3-1.8-0.3-2.6-0.9 1.8-2.7 3-5.9 3-5 0-6.9-3.9-6.9-7.6 0-5.1 3.5-8.4 10.2-8.4 1 0 1.7 0 2.3 0v-3c0-1.7-0.3-3.7-3.2-3.7-2.9 0-3.1 2-3.3 3.7h-5c0.1-3.8 1.9-7.7 8.5-7.7 5.4 0 8.1 2.5 8.1 7.3zm-5-6.3c-0.6-0.1-1.2-0.2-2.1-0.2-3.8 0-5.3 1.8-5.3 4.2 0 1.9 1 3.8 3.3 3.8 3.4 0 4.1-2.4 4.1-6.8 0 0 0-1 0-1z"/>
		<path id="Layer" class="s10" d="m402.7 199.8v12.6c0.9-1.8 2.7-3.2 5.9-3.2 4.2 0 6.5 2.7 6.5 8v18.4h-5.2v-17.3c0-2.7-0.6-4.6-3.4-4.6-2.9 0-3.8 2.4-3.8 6.1v15.8h-5.2v-35.8z"/>
		<path id="Layer" class="s10" d="m433.4 209.7h3.4v-6.6h5.3v6.6h4.1v4.3h-4.1v15.1c0 1.6 0.3 2.6 2.2 2.6 0.6 0 1.1 0 1.5-0.1v3.8c-1 0.5-2.5 0.5-3.4 0.5-3.8 0-5.6-1.4-5.6-5.9v-16h-3.4z"/>
		<path id="Layer" fill-rule="evenodd" class="s10" d="m469 223.9c0 3.9 0.6 7.8 4.1 7.8 3.4 0 3.8-3 3.9-3.8h5c-0.1 0.7-0.7 8.2-9 8.2-8.1 0-9.2-7.1-9.2-13.6 0-8.2 3-13.3 9.4-13.3 7.3 0 9 5.7 9 12.3 0 0.8 0 1.9-0.1 2.4zm8.1-3.9c0-3.1-0.5-6.4-3.9-6.4-3.8 0-4 4.6-4.1 6.4z"/>
		<path id="Layer" class="s10" d="m502.1 218.5c0-4.2 0-7-0.1-8.8h5c0.1 0.5 0.2 1.6 0.2 4.4 1-3 3.3-4.8 6.8-4.8v5.8c-4.3 0-6.7 1.7-6.7 6.6v13.9h-5.2z"/>
		<path id="Layer" fill-rule="evenodd" class="s10" d="m548.6 230.3c0 1.4 0.1 4.2 0.2 5.3h-4.7c-0.1-0.6-0.3-1.8-0.3-2.6-1 1.8-2.7 3-5.9 3-5 0-6.9-3.9-6.9-7.6 0-5.1 3.5-8.4 10.2-8.4 1 0 1.6 0 2.3 0v-3c0-1.7-0.3-3.7-3.2-3.7-2.9 0-3.2 2-3.3 3.7h-5c0.1-3.8 1.9-7.7 8.5-7.7 5.4 0 8.1 2.5 8.1 7.3zm-5-6.3c-0.6-0.1-1.2-0.2-2.1-0.2-3.8 0-5.3 1.8-5.3 4.2 0 1.9 0.9 3.8 3.3 3.8 3.3 0 4.1-2.4 4.1-6.8v-1z"/>
		<path id="Layer" fill-rule="evenodd" class="s10" d="m585.8 230.3c0 1.4 0.1 4.2 0.2 5.3h-4.7c-0.1-0.6-0.3-1.8-0.3-2.6-1 1.8-2.7 3-5.9 3-5 0-6.9-3.9-6.9-7.6 0-5.1 3.5-8.4 10.2-8.4 1 0 1.6 0 2.3 0v-3c0-1.7-0.3-3.7-3.2-3.7-2.9 0-3.2 2-3.3 3.7h-5c0.1-3.8 1.9-7.7 8.5-7.7 5.4 0 8.1 2.5 8.1 7.3zm-5-6.3c-0.6-0.1-1.2-0.2-2.1-0.2-3.8 0-5.3 1.8-5.3 4.2 0 1.9 0.9 3.8 3.3 3.8 3.3 0 4.1-2.4 4.1-6.8v-1z"/>
		<path id="Layer" class="s10" d="m607 217.7c0-5.3 0-6.7 0-8h5c0.1 0.6 0.2 1.7 0.2 2.9 0.8-1.6 2.4-3.4 5.8-3.4 4.1 0 6.7 2.5 6.7 7.9v18.5h-5.3v-17.3c0-2.8-0.7-4.6-3.2-4.6-2.7 0-3.9 1.7-3.9 6.1v15.8h-5.3z"/>
		<path id="Layer" fill-rule="evenodd" class="s10" d="m671.1 201.5h9.9c5.6 0 8.8 3.2 8.8 8.5 0 4.4-2.1 6.4-4 7.1 2.5 1 5.1 3.3 5.1 8.4 0 6.4-4.1 10.1-10.1 10.1h-9.7zm8.5 13.8c3.9 0 5.1-1.6 5.1-4.8 0-3.1-1.6-4.8-4.8-4.8h-3.6v9.6c0 0 3.3 0 3.3 0zm-3.3 16.1h4c3.4 0 5.3-1.9 5.3-5.9 0-3.9-1.8-6-6-6h-3.3c0 0 0 11.9 0 11.9z"/>
		<path id="Layer" fill-rule="evenodd" class="s10" d="m715.2 223.9c0 3.9 0.6 7.8 4.1 7.8 3.4 0 3.8-3 3.9-3.8h5c0 0.7-0.7 8.2-8.9 8.2-8.2 0-9.3-7.1-9.3-13.6 0-8.2 3-13.3 9.4-13.3 7.3 0 9 5.7 9 12.3 0 0.8 0 1.9 0 2.4zm8-3.9c0-3.1-0.5-6.4-3.8-6.4-3.9 0-4.1 4.6-4.2 6.4z"/>
		<path id="Layer" class="s10" d="m748.3 218.5c0-4.2 0-7 0-8.8h5c0 0.5 0.1 1.6 0.1 4.4 1-3 3.4-4.8 6.8-4.8v5.8c-4.3 0-6.7 1.7-6.7 6.6v13.9h-5.2z"/>
		<path id="Layer" class="s10" d="m782.8 227.9c0.1 2.1 1.2 4.1 3.8 4.1 2.3 0 3.3-1.3 3.3-3.2 0-2.1-1-3.2-4.1-4.4-5.9-2.2-7.4-4.2-7.4-8 0-3.5 2.2-7.2 8.1-7.2 6.4 0 8.1 4.4 8.1 7.8h-5.1c0-1-0.1-3.7-3.2-3.7-1.9 0-2.8 1.1-2.8 2.8 0 1.8 0.9 2.6 4.2 3.8 5.3 2 7.4 4 7.4 8.3 0 4.9-3.1 7.8-8.7 7.8-5.9 0-8.6-3.5-8.7-8.1 0 0 5.1 0 5.1 0z"/>
		<path id="Layer" fill-rule="evenodd" class="s10" d="m831.1 230.3c0 1.4 0.1 4.2 0.2 5.3h-4.8c-0.1-0.6-0.2-1.8-0.2-2.6-1 1.8-2.8 3-5.9 3-5 0-6.9-3.9-6.9-7.6 0-5.1 3.5-8.4 10.1-8.4 1 0 1.7 0 2.3 0v-3c0-1.7-0.2-3.7-3.1-3.7-2.9 0-3.2 2-3.4 3.7h-4.9c0.1-3.8 1.9-7.7 8.5-7.7 5.4 0 8.1 2.5 8.1 7.3zm-5-6.3c-0.6-0.1-1.2-0.2-2.2-0.2-3.8 0-5.2 1.8-5.2 4.2 0 1.9 0.9 3.8 3.3 3.8 3.3 0 4.1-2.4 4.1-6.8v-1z"/>
		<path id="Layer" class="s10" d="m852.3 217.4c0-4.9 0-6.6 0-7.7h5c0.1 0.6 0.2 1.9 0.2 2.9 1.1-2.1 3-3.4 5.7-3.4 2.8 0 4.5 1.3 5.3 3.7 1-1.9 2.9-3.7 6.3-3.7 3.5 0 6.4 1.8 6.4 7.7v18.7h-5.1v-17.9c0-2.2-0.7-4-3.1-4-2.7 0-3.6 2.2-3.6 5.5v16.4h-5.2v-17.8c0-2.6-0.9-4-3-4-2.6 0-3.7 2-3.7 5.6v16.2h-5.2c0 0 0-18.2 0-18.2z"/>
		<path id="Layer" fill-rule="evenodd" class="s10" d="m918.4 230.3c0 1.4 0.1 4.2 0.2 5.3h-4.8c-0.1-0.6-0.2-1.8-0.2-2.6-1 1.8-2.8 3-6 3-4.9 0-6.8-3.9-6.8-7.6 0-5.1 3.5-8.4 10.1-8.4 1 0 1.7 0 2.3 0v-3c0-1.7-0.2-3.7-3.1-3.7-2.9 0-3.2 2-3.4 3.7h-4.9c0.1-3.8 1.8-7.7 8.5-7.7 5.3 0 8.1 2.5 8.1 7.3zm-5-6.3c-0.7-0.1-1.3-0.2-2.2-0.2-3.8 0-5.2 1.8-5.2 4.2 0 1.9 0.9 3.8 3.3 3.8 3.3 0 4.1-2.4 4.1-6.8v-1z"/>
	</g>
</svg>