<?xml version="1.0" encoding="utf-8"?>
<!-- Generator: Adobe Illustrator 26.5.0, SVG Export Plug-In . SVG Version: 6.00 Build 0)  -->
<svg version="1.1" id="Layer_1" xmlns="http://www.w3.org/2000/svg" xmlns:xlink="http://www.w3.org/1999/xlink" x="0px" y="0px"
	 viewBox="0 0 1000 500" style="enable-background:new 0 0 1000 500;" xml:space="preserve">
<style type="text/css">
	.st0{fill:url(#SVGID_1_);}
	.st1{fill:#F15A29;}
	.st2{fill:url(#SVGID_00000181054704126064836760000016836678332623943056_);}
	.st3{fill:#EF4136;}
	.st4{fill:url(#SVGID_00000043445194749641098740000016064481130834822065_);}
	.st5{fill:url(#SVGID_00000035499910592081705500000002007540147071921039_);}
	.st6{fill:url(#SVGID_00000025422128730792302740000015940266694914234300_);}
	.st7{fill:url(#SVGID_00000089557259497676141030000002651247305738624191_);}
	.st8{fill:url(#SVGID_00000007409877960645705330000010363820937039235496_);}
	.st9{fill:url(#SVGID_00000053539345920681720450000013892197820843932307_);}
</style>
<linearGradient id="SVGID_1_" gradientUnits="userSpaceOnUse" x1="68.5358" y1="325.2758" x2="68.5358" y2="145.0434">
	<stop  offset="0" style="stop-color:#EF4136"/>
	<stop  offset="0.1813" style="stop-color:#C63250"/>
	<stop  offset="0.4588" style="stop-color:#8E1C74"/>
	<stop  offset="0.6977" style="stop-color:#660D8F"/>
	<stop  offset="0.8856" style="stop-color:#4C049F"/>
	<stop  offset="0.9993" style="stop-color:#4300A5"/>
</linearGradient>
<rect x="36.02" y="145.04" class="st0" width="65.03" height="180.23"/>
<rect x="178.58" y="144.88" class="st1" width="65.03" height="182.83"/>
<linearGradient id="SVGID_00000131368741829402582370000005803232804316146851_" gradientUnits="userSpaceOnUse" x1="110.7189" y1="303.9531" x2="230.6028" y2="132.7411">
	<stop  offset="0" style="stop-color:#EF4136"/>
	<stop  offset="0.1813" style="stop-color:#C63250"/>
	<stop  offset="0.4588" style="stop-color:#8E1C74"/>
	<stop  offset="0.6977" style="stop-color:#660D8F"/>
	<stop  offset="0.8856" style="stop-color:#4C049F"/>
	<stop  offset="0.9993" style="stop-color:#4300A5"/>
</linearGradient>
<polygon style="fill:url(#SVGID_00000131368741829402582370000005803232804316146851_);" points="140.67,208.54 140.92,325.1 
	245.26,143 178.4,143 "/>
<polygon class="st3" points="140.92,325.1 140.67,208.54 102.93,143 36.07,143 "/>
<g>
	
		<linearGradient id="SVGID_00000030471061160947085540000013421930070102513300_" gradientUnits="userSpaceOnUse" x1="253.6122" y1="258.2599" x2="372.8175" y2="258.2599">
		<stop  offset="6.940000e-04" style="stop-color:#4300A5"/>
		<stop  offset="0.2185" style="stop-color:#40049E"/>
		<stop  offset="0.5445" style="stop-color:#370E89"/>
		<stop  offset="0.9365" style="stop-color:#291F68"/>
		<stop  offset="1" style="stop-color:#262262"/>
	</linearGradient>
	<path style="fill:url(#SVGID_00000030471061160947085540000013421930070102513300_);" d="M347.35,325.27l-7.05-18.17h-0.96
		c-6.14,7.73-12.46,13.09-18.95,16.08c-6.5,2.99-14.97,4.48-25.41,4.48c-12.83,0-22.94-3.67-30.31-11
		c-7.37-7.33-11.06-17.77-11.06-31.32c0-14.19,4.96-24.65,14.89-31.39c9.92-6.73,24.89-10.46,44.9-11.18l23.2-0.72v-5.86
		c0-13.55-6.93-20.33-20.8-20.33c-10.68,0-23.24,3.23-37.66,9.68l-12.08-24.63c15.38-8.05,32.44-12.07,51.17-12.07
		c17.93,0,31.68,3.91,41.25,11.72c9.56,7.81,14.35,19.69,14.35,35.63v89.07H347.35z M336.59,263.34l-14.11,0.48
		c-10.6,0.32-18.49,2.23-23.67,5.74c-5.18,3.51-7.77,8.85-7.77,16.02c0,10.28,5.9,15.42,17.7,15.42c8.45,0,15.2-2.43,20.27-7.29
		c5.06-4.86,7.59-11.32,7.59-19.37V263.34z"/>
	
		<linearGradient id="SVGID_00000106832787954784199180000001036219873384623551_" gradientUnits="userSpaceOnUse" x1="400.5663" y1="257.183" x2="523.9559" y2="257.183">
		<stop  offset="6.940000e-04" style="stop-color:#4300A5"/>
		<stop  offset="0.2185" style="stop-color:#40049E"/>
		<stop  offset="0.5445" style="stop-color:#370E89"/>
		<stop  offset="0.9365" style="stop-color:#291F68"/>
		<stop  offset="1" style="stop-color:#262262"/>
	</linearGradient>
	<path style="fill:url(#SVGID_00000106832787954784199180000001036219873384623551_);" d="M523.96,325.27h-36.47V247.2
		c0-9.64-1.71-16.88-5.14-21.7c-3.43-4.82-8.89-7.23-16.38-7.23c-10.2,0-17.58,3.41-22.12,10.22c-4.54,6.81-6.82,18.11-6.82,33.9
		v62.89h-36.47V191.6h27.86l4.9,17.1h2.03c4.07-6.46,9.66-11.34,16.8-14.65c7.13-3.31,15.24-4.96,24.33-4.96
		c15.54,0,27.34,4.21,35.39,12.62c8.05,8.41,12.08,20.55,12.08,36.41V325.27z"/>
	
		<linearGradient id="SVGID_00000003084388187408719030000006655414182252708750_" gradientUnits="userSpaceOnUse" x1="534.5822" y1="233.7756" x2="611.0663" y2="233.7756">
		<stop  offset="6.940000e-04" style="stop-color:#4300A5"/>
		<stop  offset="0.2185" style="stop-color:#40049E"/>
		<stop  offset="0.5445" style="stop-color:#370E89"/>
		<stop  offset="0.9365" style="stop-color:#291F68"/>
		<stop  offset="1" style="stop-color:#262262"/>
	</linearGradient>
	<path style="fill:url(#SVGID_00000003084388187408719030000006655414182252708750_);" d="M553.24,325.27V223.91h-18.66v-26.65
		h18.66v-11.25c0-26.43,13.12-43.74,40.82-43.74c5.89,0,13.29,0.52,16.47,1.51v27.98c-1.97-0.34-4.64-0.61-7.48-0.61
		c-10.45,0-14.37,3.86-14.37,17.53v8.57h22.38v26.65h-22.38v101.36H553.24z"/>
	
		<linearGradient id="SVGID_00000103973067705805770000000013629339081282639267_" gradientUnits="userSpaceOnUse" x1="614.326" y1="258.2599" x2="733.5313" y2="258.2599">
		<stop  offset="6.940000e-04" style="stop-color:#4300A5"/>
		<stop  offset="0.2185" style="stop-color:#40049E"/>
		<stop  offset="0.5445" style="stop-color:#370E89"/>
		<stop  offset="0.9365" style="stop-color:#291F68"/>
		<stop  offset="1" style="stop-color:#262262"/>
	</linearGradient>
	<path style="fill:url(#SVGID_00000103973067705805770000000013629339081282639267_);" d="M708.06,325.27l-7.05-18.17h-0.96
		c-6.14,7.73-12.46,13.09-18.95,16.08c-6.5,2.99-14.97,4.48-25.41,4.48c-12.83,0-22.94-3.67-30.31-11
		c-7.37-7.33-11.06-17.77-11.06-31.32c0-14.19,4.96-24.65,14.89-31.39c9.92-6.73,24.89-10.46,44.9-11.18l23.2-0.72v-5.86
		c0-13.55-6.93-20.33-20.8-20.33c-10.68,0-23.24,3.23-37.66,9.68l-12.08-24.63c15.38-8.05,32.44-12.07,51.17-12.07
		c17.93,0,31.68,3.91,41.25,11.72c9.56,7.81,14.35,19.69,14.35,35.63v89.07H708.06z M697.3,263.34l-14.11,0.48
		c-10.6,0.32-18.49,2.23-23.67,5.74c-5.18,3.51-7.77,8.85-7.77,16.02c0,10.28,5.9,15.42,17.7,15.42c8.45,0,15.2-2.43,20.27-7.29
		c5.06-4.86,7.59-11.32,7.59-19.37V263.34z"/>
	
		<linearGradient id="SVGID_00000000940745885844658200000009609936050901332884_" gradientUnits="userSpaceOnUse" x1="752.4321" y1="258.2599" x2="871.6375" y2="258.2599">
		<stop  offset="6.940000e-04" style="stop-color:#4300A5"/>
		<stop  offset="0.2185" style="stop-color:#40049E"/>
		<stop  offset="0.5445" style="stop-color:#370E89"/>
		<stop  offset="0.9365" style="stop-color:#291F68"/>
		<stop  offset="1" style="stop-color:#262262"/>
	</linearGradient>
	<path style="fill:url(#SVGID_00000000940745885844658200000009609936050901332884_);" d="M846.17,325.27l-7.05-18.17h-0.96
		c-6.14,7.73-12.46,13.09-18.95,16.08c-6.5,2.99-14.97,4.48-25.41,4.48c-12.83,0-22.94-3.67-30.31-11
		c-7.37-7.33-11.06-17.77-11.06-31.32c0-14.19,4.96-24.65,14.89-31.39c9.92-6.73,24.89-10.46,44.9-11.18l23.2-0.72v-5.86
		c0-13.55-6.93-20.33-20.8-20.33c-10.68,0-23.24,3.23-37.66,9.68l-12.08-24.63c15.38-8.05,32.44-12.07,51.17-12.07
		c17.93,0,31.68,3.91,41.25,11.72c9.56,7.81,14.35,19.69,14.35,35.63v89.07H846.17z M835.41,263.34l-14.11,0.48
		c-10.6,0.32-18.49,2.23-23.67,5.74c-5.18,3.51-7.77,8.85-7.77,16.02c0,10.28,5.9,15.42,17.7,15.42c8.45,0,15.2-2.43,20.27-7.29
		c5.06-4.86,7.59-11.32,7.59-19.37V263.34z"/>
	
		<linearGradient id="SVGID_00000126304309065776679630000010413671917233054621_" gradientUnits="userSpaceOnUse" x1="883.7285" y1="244.8052" x2="963.9816" y2="244.8052">
		<stop  offset="6.940000e-04" style="stop-color:#4300A5"/>
		<stop  offset="0.2185" style="stop-color:#40049E"/>
		<stop  offset="0.5445" style="stop-color:#370E89"/>
		<stop  offset="0.9365" style="stop-color:#291F68"/>
		<stop  offset="1" style="stop-color:#262262"/>
	</linearGradient>
	<path style="fill:url(#SVGID_00000126304309065776679630000010413671917233054621_);" d="M883.73,197.27h19.73V162.6h35.44v34.66
		h25.08v26.65h-25.08v63.18c0,9.71,2.97,13.49,13.53,13.49c1.97,0,5.42-0.03,8.07-0.4v24.38c-7.03,2.38-16.67,2.44-23.82,2.44
		c-24.97,0-33.22-13.36-33.22-35.75v-67.34h-19.73V197.27z"/>
</g>
<g>
	<path d="M39.94,343.46h8.44c8.47,0,11.91,5.58,11.91,16.28c0,11.54-3.24,17.82-12.41,17.82h-7.94V343.46z M45.28,373.19h2.51
		c5.27,0,7.03-4.05,7.03-13.38c0-8.26-1.75-11.9-6.98-11.9h-2.56V373.19z"/>
	<path d="M85.03,365.89c0,3.88,0.56,7.8,4.13,7.8c3.34,0,3.77-2.97,3.88-3.82h5.02c-0.08,0.77-0.71,8.18-8.98,8.18
		c-8.13,0-9.26-7.03-9.26-13.54c0-8.2,3.01-13.26,9.41-13.26c7.27,0,9.03,5.61,9.03,12.27c0,0.77-0.04,1.86-0.09,2.37H85.03z
		 M93.11,362.04c0-3.17-0.51-6.46-3.88-6.46c-3.86,0-4.08,4.62-4.11,6.46H93.11z"/>
	<path d="M118.16,359.45c0-4.94,0-6.61-0.05-7.76h4.99c0.1,0.59,0.17,1.91,0.17,2.86c1.12-2.08,3.01-3.3,5.72-3.3
		c2.78,0,4.5,1.23,5.29,3.62c1.02-1.9,2.89-3.62,6.32-3.62c3.52,0,6.45,1.77,6.45,7.68v18.64h-5.15v-17.83c0-2.25-0.7-4-3.05-4
		c-2.72,0-3.62,2.2-3.62,5.49v16.34h-5.18v-17.73c0-2.65-0.89-4.06-3.02-4.06c-2.63,0-3.7,2.04-3.7,5.67v16.12h-5.18V359.45z"/>
	<path d="M168.2,351.69h5.22v25.88h-5.22V351.69z M168.24,341.78h5.22v5.71h-5.22V341.78z"/>
	<path d="M220.03,343.46h5.24v15.82c2.08-3.23,6.85-11.19,9.85-15.82h6.1l-9.13,13.49l9.34,20.62h-5.92l-7.03-16.19l-3.21,4.44
		v11.75h-5.24V343.46z"/>
	<path d="M263.25,365.89c0,3.88,0.56,7.8,4.13,7.8c3.34,0,3.77-2.97,3.88-3.82h5.02c-0.08,0.77-0.71,8.18-8.98,8.18
		c-8.13,0-9.26-7.03-9.26-13.54c0-8.2,3.01-13.26,9.41-13.26c7.27,0,9.03,5.61,9.03,12.27c0,0.77-0.04,1.86-0.09,2.37H263.25z
		 M271.33,362.04c0-3.17-0.51-6.46-3.88-6.46c-3.86,0-4.08,4.62-4.11,6.46H271.33z"/>
	<path d="M300.05,369.86c0.08,2.1,1.15,4.11,3.77,4.11c2.26,0,3.35-1.27,3.35-3.19c0-2.11-1.01-3.19-4.18-4.39
		c-5.85-2.18-7.37-4.24-7.37-7.95c0-3.5,2.19-7.23,8.06-7.23c6.45,0,8.1,4.42,8.11,7.82h-5.02c-0.03-1.02-0.19-3.78-3.22-3.78
		c-1.88,0-2.82,1.18-2.82,2.82c0,1.79,0.93,2.63,4.19,3.85c5.31,1.99,7.43,3.99,7.43,8.26c0,4.96-3.11,7.83-8.75,7.83
		c-5.9,0-8.62-3.53-8.68-8.16H300.05z"/>
	<path d="M336.13,365.89c0,3.88,0.56,7.8,4.13,7.8c3.34,0,3.77-2.97,3.88-3.82h5.02c-0.08,0.77-0.71,8.18-8.98,8.18
		c-8.13,0-9.26-7.03-9.26-13.54c0-8.2,3.01-13.26,9.41-13.26c7.27,0,9.03,5.61,9.03,12.27c0,0.77-0.04,1.86-0.09,2.37H336.13z
		 M344.21,362.04c0-3.17-0.51-6.46-3.88-6.46c-3.86,0-4.08,4.62-4.11,6.46H344.21z"/>
	<path d="M374.93,351.69v26.72c0,5.08-0.62,8.88-6.43,8.88c-0.66,0-1.28-0.02-2.04-0.14v-4.5c0.51,0.05,0.93,0.05,1.21,0.05
		c1.81,0,2.04-1.02,2.04-3.38v-27.64H374.93z M369.74,347.49v-5.71h5.22v5.71H369.74z"/>
	<path d="M412.23,372.29c0,1.39,0.12,4.23,0.2,5.28h-4.75c-0.12-0.53-0.25-1.76-0.25-2.59c-0.98,1.8-2.76,3.04-5.93,3.04
		c-4.97,0-6.85-3.94-6.85-7.61c0-5.11,3.49-8.43,10.13-8.43c0.99,0,1.67,0,2.31,0.06v-3.03c0-1.68-0.26-3.71-3.15-3.71
		c-2.92,0-3.19,2-3.35,3.71h-4.97c0.1-3.77,1.88-7.75,8.51-7.75c5.38,0,8.1,2.49,8.1,7.38V372.29z M407.22,365.91
		c-0.62-0.1-1.21-0.12-2.14-0.12c-3.8,0-5.26,1.79-5.26,4.16c0,1.85,0.93,3.77,3.33,3.77c3.3,0,4.08-2.41,4.08-6.79V365.91z"/>
	<path d="M438.7,341.78v12.62c0.93-1.8,2.68-3.18,5.94-3.18c4.11,0,6.46,2.65,6.46,8.02v18.32h-5.23V360.3
		c0-2.75-0.61-4.56-3.36-4.56c-2.95,0-3.81,2.31-3.81,6.1v15.73h-5.24v-35.79H438.7z"/>
	<path d="M469.36,351.69h3.48v-6.61h5.21v6.61h4.17v4.33h-4.17v15.11c0,1.6,0.31,2.54,2.2,2.54c0.6,0,1.1-0.01,1.59-0.12v3.88
		c-1.02,0.43-2.54,0.49-3.45,0.49c-3.77,0-5.55-1.43-5.55-5.89v-16.01h-3.48V351.69z"/>
	<path d="M505,365.89c0,3.88,0.56,7.8,4.13,7.8c3.34,0,3.77-2.97,3.88-3.82h5.02c-0.08,0.77-0.71,8.18-8.98,8.18
		c-8.13,0-9.26-7.03-9.26-13.54c0-8.2,3.01-13.26,9.41-13.26c7.27,0,9.03,5.61,9.03,12.27c0,0.77-0.04,1.86-0.09,2.37H505z
		 M513.08,362.04c0-3.17-0.51-6.46-3.88-6.46c-3.86,0-4.08,4.62-4.11,6.46H513.08z"/>
	<path d="M538.09,360.48c0-4.21,0-6.94-0.05-8.79h4.99c0.05,0.52,0.14,1.64,0.14,4.38c1.02-3,3.37-4.79,6.8-4.8v5.83
		c-4.3-0.02-6.66,1.75-6.66,6.6v13.87h-5.22V360.48z"/>
	<path d="M584.62,372.29c0,1.39,0.12,4.23,0.2,5.28h-4.75c-0.12-0.53-0.25-1.76-0.25-2.59c-0.98,1.8-2.76,3.04-5.93,3.04
		c-4.97,0-6.85-3.94-6.85-7.61c0-5.11,3.49-8.43,10.13-8.43c0.99,0,1.67,0,2.31,0.06v-3.03c0-1.68-0.26-3.71-3.15-3.71
		c-2.92,0-3.19,2-3.35,3.71h-4.97c0.1-3.77,1.88-7.75,8.51-7.75c5.38,0,8.1,2.49,8.1,7.38V372.29z M579.61,365.91
		c-0.62-0.1-1.21-0.12-2.14-0.12c-3.8,0-5.26,1.79-5.26,4.16c0,1.85,0.93,3.77,3.33,3.77c3.3,0,4.08-2.41,4.08-6.79V365.91z"/>
	<path d="M621.82,372.29c0,1.39,0.12,4.23,0.2,5.28h-4.75c-0.12-0.53-0.25-1.76-0.25-2.59c-0.98,1.8-2.76,3.04-5.93,3.04
		c-4.97,0-6.85-3.94-6.85-7.61c0-5.11,3.49-8.43,10.13-8.43c0.99,0,1.67,0,2.31,0.06v-3.03c0-1.68-0.26-3.71-3.15-3.71
		c-2.92,0-3.19,2-3.35,3.71h-4.97c0.1-3.77,1.88-7.75,8.51-7.75c5.38,0,8.1,2.49,8.1,7.38V372.29z M616.8,365.91
		c-0.62-0.1-1.21-0.12-2.14-0.12c-3.8,0-5.26,1.79-5.26,4.16c0,1.85,0.93,3.77,3.33,3.77c3.3,0,4.08-2.41,4.08-6.79V365.91z"/>
	<path d="M643.04,359.72c0-5.31-0.01-6.73-0.05-8.03h5.03c0.09,0.64,0.17,1.7,0.17,2.93c0.8-1.62,2.45-3.4,5.85-3.4
		c4.06,0,6.64,2.49,6.64,7.9v18.45h-5.24v-17.3c0-2.77-0.69-4.53-3.27-4.53c-2.68,0-3.89,1.61-3.89,6.01v15.82h-5.24V359.72z"/>
	<path d="M707.11,343.46h9.88c5.64,0,8.85,3.2,8.85,8.53c0,4.39-2.1,6.45-4.03,7.15c2.47,0.96,5.06,3.23,5.06,8.41
		c0,6.36-4.04,10.02-10.06,10.02h-9.7V343.46z M715.58,357.28c3.96,0,5.15-1.61,5.15-4.8c0-3.13-1.65-4.75-4.85-4.75h-3.58v9.56
		H715.58z M712.31,373.38h3.97c3.38,0,5.28-1.86,5.28-5.91c0-3.87-1.75-6.01-5.96-6.01h-3.28V373.38z"/>
	<path d="M751.22,365.89c0,3.88,0.56,7.8,4.13,7.8c3.34,0,3.77-2.97,3.88-3.82h5.02c-0.08,0.77-0.71,8.18-8.98,8.18
		c-8.13,0-9.26-7.03-9.26-13.54c0-8.2,3.01-13.26,9.41-13.26c7.27,0,9.03,5.61,9.03,12.27c0,0.77-0.04,1.86-0.09,2.37H751.22z
		 M759.3,362.04c0-3.17-0.51-6.46-3.88-6.46c-3.86,0-4.08,4.62-4.11,6.46H759.3z"/>
	<path d="M784.32,360.48c0-4.21,0-6.94-0.05-8.79h4.99c0.05,0.52,0.14,1.64,0.14,4.38c1.02-3,3.37-4.79,6.8-4.8v5.83
		c-4.3-0.02-6.66,1.75-6.66,6.6v13.87h-5.22V360.48z"/>
	<path d="M818.82,369.86c0.08,2.1,1.15,4.11,3.77,4.11c2.26,0,3.35-1.27,3.35-3.19c0-2.11-1.01-3.19-4.18-4.39
		c-5.85-2.18-7.37-4.24-7.37-7.95c0-3.5,2.19-7.23,8.06-7.23c6.45,0,8.1,4.42,8.11,7.82h-5.02c-0.03-1.02-0.19-3.78-3.22-3.78
		c-1.88,0-2.82,1.18-2.82,2.82c0,1.79,0.93,2.63,4.19,3.85c5.31,1.99,7.43,3.99,7.43,8.26c0,4.96-3.11,7.83-8.75,7.83
		c-5.9,0-8.62-3.53-8.68-8.16H818.82z"/>
	<path d="M867.08,372.29c0,1.39,0.12,4.23,0.2,5.28h-4.75c-0.12-0.53-0.25-1.76-0.25-2.59c-0.98,1.8-2.76,3.04-5.93,3.04
		c-4.97,0-6.85-3.94-6.85-7.61c0-5.11,3.49-8.43,10.13-8.43c0.99,0,1.67,0,2.31,0.06v-3.03c0-1.68-0.26-3.71-3.15-3.71
		c-2.92,0-3.19,2-3.35,3.71h-4.97c0.1-3.77,1.88-7.75,8.51-7.75c5.38,0,8.1,2.49,8.1,7.38V372.29z M862.07,365.91
		c-0.62-0.1-1.21-0.12-2.14-0.12c-3.8,0-5.26,1.79-5.26,4.16c0,1.85,0.93,3.77,3.33,3.77c3.3,0,4.08-2.41,4.08-6.79V365.91z"/>
	<path d="M888.34,359.45c0-4.94,0-6.61-0.05-7.76h4.99c0.1,0.59,0.17,1.91,0.17,2.86c1.12-2.08,3.01-3.3,5.72-3.3
		c2.78,0,4.5,1.23,5.29,3.62c1.02-1.9,2.89-3.62,6.32-3.62c3.52,0,6.45,1.77,6.45,7.68v18.64h-5.15v-17.83c0-2.25-0.7-4-3.05-4
		c-2.72,0-3.62,2.2-3.62,5.49v16.34h-5.18v-17.73c0-2.65-0.89-4.06-3.02-4.06c-2.63,0-3.7,2.04-3.7,5.67v16.12h-5.18V359.45z"/>
	<path d="M954.36,372.29c0,1.39,0.12,4.23,0.2,5.28h-4.75c-0.12-0.53-0.25-1.76-0.25-2.59c-0.98,1.8-2.76,3.04-5.93,3.04
		c-4.97,0-6.85-3.94-6.85-7.61c0-5.11,3.49-8.43,10.13-8.43c0.99,0,1.67,0,2.31,0.06v-3.03c0-1.68-0.26-3.71-3.15-3.71
		c-2.92,0-3.19,2-3.35,3.71h-4.97c0.1-3.77,1.88-7.75,8.51-7.75c5.38,0,8.1,2.49,8.1,7.38V372.29z M949.35,365.91
		c-0.62-0.1-1.21-0.12-2.14-0.12c-3.8,0-5.26,1.79-5.26,4.16c0,1.85,0.93,3.77,3.33,3.77c3.3,0,4.08-2.41,4.08-6.79V365.91z"/>
</g>
</svg>
