<svg version="1.2" xmlns="http://www.w3.org/2000/svg" viewBox="0 0 217 217" width="80" height="80">
	<title>tab-kelayakan-svg</title>
	<style>
		.s0 { fill: #f99100 } 
		.s1 { fill: #ff5d00 } 
		.s2 { fill: #942700 } 
	</style>
	<g id="layer1">
		<g id="g44">
			<path id="circle11" class="s0" d="m159.8 209c-18.1 0-32.8-14.7-32.8-32.8 0-18.2 14.7-32.8 32.8-32.8 18.1 0 32.8 14.6 32.8 32.8 0 18.1-14.7 32.8-32.8 32.8z"/>
			<path id="path13" fill-rule="evenodd" class="s1" d="m119.6 176.4c0.1 4.6 0.9 9 2.4 13.1h-103.7v-188.1h140.8v135.2q-0.1 0-0.2-0.1c-21.8 0.2-39.4 18.1-39.3 39.9zm-77.6-135.7h105.3v-12.6h-105.3zm-11.9 28.5h117.2v-12.6h-117.2zm0 28.4h117.2v-12.5h-117.2zm88.1 44.3h-88.1v12.6h88.1zm29.1-15.9v-12.6h-117.2v12.6z"/>
			<path id="rect15" class="s0" d="m42 28.1h105.3v12.6h-105.3z"/>
			<path id="rect17" class="s0" d="m30.1 56.6h117.2v12.5h-117.2z"/>
			<path id="rect19" class="s0" d="m30.1 85h117.2v12.6h-117.2z"/>
			<path id="rect21" class="s0" d="m30.1 113.5h117.2v12.6h-117.2z"/>
			<path id="rect23" class="s0" d="m30.1 142h88.1v12.6h-88.1z"/>
			<path id="path25" fill-rule="evenodd" class="s2" d="m159.1 136.6c21.7 0 39.4 17.5 39.6 39.2 0.1 21.8-17.5 39.6-39.3 39.8-17.1 0.1-31.8-10.8-37.4-26.1-1.5-4.1-2.3-8.5-2.4-13.2-0.1-21.7 17.5-39.6 39.3-39.8q0.1 0.1 0.2 0.1zm-0.2 10c-16.2 0.2-29.3 13.5-29.2 29.7 0.1 16.2 13.4 29.3 29.7 29.2 16.2-0.1 29.3-13.4 29.2-29.6-0.2-16.3-13.4-29.4-29.7-29.3z"/>
			<path id="path27" class="s2" d="m158.2 177.5c7.5-13.6 18.3-23.5 32.7-29.1-14.6 12.1-25.1 27.2-32.2 44.9q-0.4-0.7-0.8-1.2c-3.7-6.4-7.9-12.3-13.3-17.4-0.6-0.6-1.2-1.1-1.8-1.6-1.5-1.3-1.7-2.6-0.9-4.3 0.9-1.8 2.4-3 4.3-3.7 1.2-0.4 2.2 0.2 3 1q4.9 4.6 8.3 10.3c0.2 0.3 0.4 0.7 0.7 1.1z"/>
		</g>
	</g>
</svg>