<svg version="1.2" xmlns="http://www.w3.org/2000/svg" viewBox="0 0 239 239" width="80" height="80">
	<title>tab-pengenalan-svg</title>
	<style>
		.s0 { fill: none } 
		.s1 { fill: #5cbfab } 
		.s2 { fill: #ffa100 } 
		.s3 { fill: #ff5d00 } 
	</style>
	<g id="layer1">
		<g id="g1953">
			<path id="path1929" class="s0" d="m118.7 61.5l0.4-0.5 0.4 0.5c1 1.6 0.7 3.6-0.4 5.1-0.8-1-1.2-2.2-1-3.5v-0.2q0.2-0.7 0.6-1.4z"/>
			<path id="polygon1931" class="s0" d="m25.2 125l-0.1 0.1v-0.1z"/>
			<path id="polygon1933" class="s0" d="m108.7 168.9l5.6-3.5v7z"/>
			<path id="path1935" class="s1" d="m25.1 125.1l-1.5 0.9q0.7-0.6 1.5-1h0.1-0.1z"/>
			<path id="path1937" class="s2" d="m75.9 165.9q-1.1 0.5-2.1 1.3l-2.8 1.8-10.4-6.5 29.4-18.2q3.8 4.3 8.1 7.8z"/>
			<path id="path1939" class="s2" d="m46.7 147.8l-2.9 1.8-1.6 1q-4.3-3.7-7.7-8l-0.4 0.2 0.3-0.2 1.2-0.8 39.9-24.7q1.4 5.4 3.8 10.6z"/>
			<path id="path1941" class="s2" d="m25.2 125h-0.1q-0.4-1.2-0.8-2.5c-0.4-1.4-0.7-2.7-1-4.2l-0.2-0.9c-0.9-3.9-2.9-7.5-6-10.3l-6-3.8-9.7-6 41.7-67.4 10.7 6.6c4.5 2.8 9.6 3.5 14.4 2.6q3.4-1.7 7-2.9 3.9-1.4 8-2.3c11.7-2.5 24.1-1.9 35.9 2.1 4.7 1.6 9.4 3.7 13.8 6.5l0.1 0.1 0.1-0.1 47.7 29.8 0.3 0.2c2.1 1.3 3.8 3.4 4.4 6.1 1.2 5.2-2 10.4-7.2 11.6-2.8 0.6-5.5 0-7.7-1.5l-7.6-4.8-38.2-23.8-0.1-0.1c-1.9-1.1-4.3-0.6-5.6 1l-0.4 0.5q-0.4 0.7-0.6 1.4v0.2c-0.2 1.3 0.2 2.5 1 3.5l-0.8 0.8-0.5 0.3-13.4 8.3v-0.1l-31 19.2z"/>
			<path id="path1943" class="s3" d="m236.7 97.3l-9.6 6-6 3.8c-3.1 2.8-5.2 6.4-6.1 10.3l-0.2 0.9q-0.9 5.1-2.8 9.9c-3.4 8.6-8.9 16.4-16.3 22.6v-12.5-0.5-0.2l-0.1-0.4v-1.5h-0.2c-1-4.5-4.9-7.8-9.7-7.8-1.5 0-2.9 0.3-4.2 1-2.7 1.2-4.7 3.7-5.4 6.8h-0.2v1.2l-0.1 0.9v0.4 14.1 11.3l-10.9 6.8v-15.7-9.9 0.1-0.5c0-2.7-1.1-5.1-2.8-6.9-1.8-1.9-4.3-3-7.1-3-2.9 0-5.4 1.1-7.2 3-1.6 1.7-2.6 3.9-2.7 6.4v0.5 0.4 2.7 7.8 15.2 10.6 0.1 0.1 1.3l-11 6.7v-17.5l0.1-12.2v-0.1-0.1c-0.1-5.5-4.5-9.9-10-9.9-5.1 0-9.4 4-9.9 9v1 0.9 4.7 0.3l-5.6 3.5-18.8 11.7-2.4 1.5-0.3-0.4c-1.8 1.9-4.4 3.2-7.3 3.2-5.4 0-9.9-4.5-9.9-9.9 0-3.2 1.5-6 3.8-7.8q1-0.8 2.1-1.3l22.2-13.7q-4.3-3.6-8.1-7.9l-29.4 18.2-3.3 2.1-0.1-0.2c-1.8 1.7-4.2 2.7-6.8 2.7-5.6 0-10-4.5-10-10 0-3 1.3-5.6 3.4-7.5l2.9-1.8 32.6-20.1q-2.4-5.2-3.8-10.6l-39.9 24.7-1.2 0.8-0.3 0.2c-1.4 0.7-2.9 1.1-4.5 1.1-5.5 0-10-4.5-10-10 0-3.3 1.6-6.1 4-7.9l1.5-0.9 0.1-0.1 48.2-29.9 31-19.2v0.1l13.4-8.3 0.5-0.3 0.8-0.8c1.1-1.5 1.4-3.5 0.4-5.1l-0.4-0.5c1.3-1.6 3.7-2.1 5.6-1l0.1 0.1 38.2 23.8 7.6 4.8c2.2 1.5 4.9 2.1 7.7 1.5 5.2-1.2 8.4-6.4 7.2-11.6-0.6-2.7-2.3-4.8-4.4-6.1l-0.3-0.2-47.7-29.8-0.1 0.1-0.1-0.1c-4.4-2.8-9.1-4.9-13.8-6.5 11.7-4 24.1-4.6 35.8-2.1q4.1 0.9 8.1 2.3 3.5 1.2 7 2.9c4.7 0.9 9.9 0.2 14.4-2.6l10.6-6.6z"/>
			<path id="path1945" class="s2" d="m164.9 144.8v9.9 15.7h-0.1v10.3l0.1 0.5-0.1 0.4v0.8h-0.1c-0.6 4.9-4.7 8.7-9.7 8.7-5.1 0-9.1-3.8-9.8-8.6l-0.1 0.1v-1.3-0.1-0.1-10.6-15.2-7.8-2.7-0.4-0.5c0.1-2.5 1.1-4.7 2.7-6.4 1.8-1.9 4.3-3 7.2-3 2.8 0 5.3 1.1 7.1 3 1.7 1.8 2.8 4.2 2.8 6.9v0.5-0.1z"/>
			<path id="path1947" class="s2" d="m134.1 171.8v17.5 0.1 8.5 0.4 0.5 0.8h-0.1c-0.6 4.8-4.7 8.6-9.8 8.6-4.4 0-8.1-2.9-9.4-6.9l-0.5 0.3v-11.7-4.6-7l-11 6.8-0.2 0.2-2.9 1.7-10.3-6.4 18.8-11.7 5.6 3.5v-7-0.3-4.7-0.9-1c0.5-5 4.8-9 9.9-9 5.5 0 9.9 4.4 10 9.9v0.1 0.1z"/>
			<path id="path1949" class="s2" d="m195.7 138.3v12.5l-0.1 0.1v14.2l0.1 0.5-0.1 0.4v0.8h-0.1c-0.6 4.9-4.7 8.7-9.7 8.7-5.1 0-9.2-3.8-9.8-8.7h-0.1v-0.8l-0.1-0.4 0.1-0.4v-1.6h-0.1v-11.3-14.1-0.1-0.3l0.1-0.9v-1.3h0.2c0.7-3 2.7-5.5 5.4-6.8 1.3-0.6 2.7-0.9 4.2-0.9 4.8 0 8.7 3.3 9.7 7.7h0.2v1.6l0.1 0.4v0.2z"/>
			<path id="path1951" class="s3" d="m114.3 189.9v11.7c-1.6 1.1-3.5 1.7-5.6 1.7-5.5 0-9.9-4.4-9.9-9.9 0-3.4 1.7-6.4 4.3-8.1l0.2-0.2 11-6.8v7z"/>
		</g>
	</g>
</svg>