<svg width="70" height="80" viewBox="0 0 70 80" fill="none" xmlns="http://www.w3.org/2000/svg">
<g clip-path="url(#clip0_6682_13096)">
<path d="M22.7897 2.08791C22.7897 2.08791 19.4844 3.09078 18.3072 4.94857C17.13 6.80636 18.3072 69.2478 18.3072 69.2478C18.3072 69.2478 8.40639 69.8232 8.40639 68.1134C8.40639 66.4036 7.3499 62.5565 7.3499 60.9782C7.3499 59.3999 7.48573 8.08873 7.48573 8.08873C7.48573 8.08873 7.72722 3.15655 6.44434 2.59757L8.60259 1.93994L22.7897 2.10435V2.08791Z" fill="#FEEAE7"/>
<path d="M11.1836 68.1957C8.85932 68.1957 8.11978 67.4065 8.11978 64.924C8.11978 44.3404 8.11978 28.6724 8.11978 8.0888C8.11978 6.3461 8.39145 4.57051 7.4406 2.87713H41.3388C44.9913 2.87713 48.6286 2.87713 52.2811 2.87713C53.8658 2.87713 54.6959 3.68272 54.8468 5.22814C54.9072 5.22814 54.9676 5.22814 55.0279 5.22814C55.4958 5.22814 55.9486 5.26102 56.3863 5.2939C56.2353 2.74561 54.7261 1.24951 52.2358 1.24951C45.8214 1.24951 39.407 1.24951 32.9926 1.24951C23.5294 1.24951 14.0663 1.24951 4.60317 1.24951C2.2789 1.24951 0.603606 2.89357 0.57342 5.26102C0.543235 9.07524 0.543235 12.873 0.57342 16.6872C0.57342 18.0025 1.38843 19.0218 2.53547 19.1698C3.109 19.252 3.7127 19.1698 4.27113 19.1698V17.5586C4.01456 17.5586 3.83345 17.5586 3.63724 17.5586C2.11288 17.5586 2.08269 17.5093 2.08269 15.7994C2.08269 12.5606 2.08269 9.33829 2.08269 6.09949C2.08269 4.02797 2.86751 2.87713 4.30132 2.86069C5.78041 2.82781 6.61051 4.01153 6.61051 6.11593C6.61051 27.4394 6.61051 43.8636 6.61051 65.187C6.61051 68.1628 8.11978 69.7904 10.8667 69.7904C20.4203 69.7904 36.0111 69.7904 45.5799 69.7904H46.576V68.1628H45.429C36.0262 68.1628 20.5864 68.1628 11.1836 68.1628V68.1957Z" fill="#FE725B"/>
<path d="M46.5758 70.4316H10.8665C7.80264 70.4316 6.05188 68.5245 6.05188 65.2035V6.1488C6.05188 5.12948 5.84058 4.35677 5.43308 3.92932C5.16141 3.63339 4.78409 3.45254 4.31622 3.50186C3.21445 3.5183 2.64093 4.4061 2.64093 6.13236V15.8323C2.64093 16.2433 2.64093 16.8023 2.7013 16.9338C2.77676 16.9667 3.27482 16.9667 3.63705 16.9667H4.07474H4.27094C4.58789 16.9667 4.82937 17.2462 4.82937 17.575V19.1862C4.82937 19.5315 4.5728 19.7945 4.27094 19.7945C4.10492 19.7945 3.92381 19.7945 3.75779 19.7945C3.33519 19.7945 2.9126 19.8274 2.47491 19.7616C1.0411 19.5808 0.0298892 18.3149 0.0147965 16.6708C-0.000296187 12.873 -0.000296188 9.07523 0.0298892 5.26101C0.0449819 2.58119 1.97685 0.641196 4.61807 0.624756C11.2438 0.624756 17.8695 0.624756 24.4952 0.624756H52.2507C55.0277 0.624756 56.7785 2.35102 56.9596 5.24457C56.9596 5.42541 56.9143 5.60626 56.7936 5.72134C56.6728 5.85287 56.5068 5.91863 56.3559 5.90219C55.9333 5.86931 55.4956 5.83643 55.0428 5.83643C54.7561 5.83643 54.3335 5.60626 54.3033 5.29389C54.1825 4.0444 53.5637 3.48542 52.2959 3.48542C49.7755 3.48542 47.2399 3.48542 44.7194 3.48542H8.34597C8.76857 4.71847 8.73838 5.95151 8.7082 7.15168C8.7082 7.46405 8.69311 7.77642 8.69311 8.08879C8.69311 24.1184 8.69311 37.1722 8.69311 51.8866V64.9075C8.69311 67.0448 9.17607 67.5545 11.1834 67.5545H35.211H46.5758C46.8928 67.5545 47.1342 67.834 47.1342 68.1628V69.7904C47.1342 70.1356 46.8777 70.3987 46.5758 70.3987V70.4316ZM4.3615 2.26882C5.10104 2.26882 5.75003 2.53187 6.23299 3.04153C6.86689 3.71559 7.18384 4.75135 7.18384 6.13236V26.6996V65.2035C7.18384 67.8504 8.42144 69.1985 10.8665 69.1985H46.0023V68.7875H11.1834C8.54218 68.7875 7.56115 67.7353 7.56115 64.9075V51.8866C7.56115 37.1722 7.56115 24.1184 7.56115 8.08879C7.56115 7.75998 7.56115 7.43117 7.57625 7.1188C7.62152 5.73778 7.65171 4.42254 6.97254 3.20593C6.86689 3.00864 6.86689 2.77848 6.97254 2.58119C7.07819 2.3839 7.2593 2.26882 7.4706 2.26882H44.7043C47.2248 2.26882 49.7604 2.26882 52.2809 2.26882C54.3033 2.26882 55.0579 3.45254 55.3145 4.61982C55.4503 4.61982 55.6013 4.61982 55.7371 4.63626C55.39 2.84424 54.1674 1.87424 52.2356 1.87424H39.4068H32.9924H24.4801C17.8544 1.87424 11.2287 1.87424 4.60298 1.87424C2.59565 1.8578 1.17694 3.27169 1.14675 5.26101C1.11656 9.05879 1.11656 12.873 1.14675 16.6708C1.14675 17.6737 1.73537 18.4299 2.61074 18.545C2.97297 18.5943 3.35029 18.5779 3.71251 18.5615V18.1669H3.63705C1.79574 18.1504 1.52407 17.8381 1.52407 15.7994V6.13236C1.52407 3.71559 2.53528 2.3017 4.30113 2.26882H4.3615Z" fill="#FE725B"/>
<path d="M13.4473 12.6099V11.0974H31.4831V12.6099H13.4473Z" fill="#FE725B"/>
<path d="M31.4829 13.2182H13.4471C13.1302 13.2182 12.8887 12.9387 12.8887 12.6099V11.0973C12.8887 10.7521 13.1452 10.489 13.4471 10.489H31.4829C31.7998 10.489 32.0413 10.7685 32.0413 11.0973V12.6099C32.0413 12.9551 31.7847 13.2182 31.4829 13.2182ZM14.0206 11.9851H30.9245V11.7056H14.0055V11.9851H14.0206Z" fill="#FE725B"/>
<path d="M40.5387 20.9126V22.4251H13.4473V20.9126H40.5387Z" fill="#FE725B"/>
<path d="M40.5385 23.0333H13.4471C13.1302 23.0333 12.8887 22.7538 12.8887 22.425V20.9125C12.8887 20.5672 13.1452 20.3042 13.4471 20.3042H40.5385C40.8555 20.3042 41.0969 20.5837 41.0969 20.9125V22.425C41.0969 22.7703 40.8404 23.0333 40.5385 23.0333ZM14.0206 21.8003H39.965V21.5208H14.0055V21.8003H14.0206Z" fill="#FE725B"/>
<path d="M40.5387 37.238V38.7506H13.4473V37.238H40.5387Z" fill="#FE725B"/>
<path d="M40.5385 39.3588H13.4471C13.1302 39.3588 12.8887 39.0793 12.8887 38.7505V37.2379C12.8887 36.8927 13.1452 36.6296 13.4471 36.6296H40.5385C40.8555 36.6296 41.0969 36.9091 41.0969 37.2379V38.7505C41.0969 39.0957 40.8404 39.3588 40.5385 39.3588ZM14.0206 38.1257H39.965V37.8462H14.0055V38.1257H14.0206Z" fill="#FE725B"/>
<path d="M31.4831 55.2075V56.7201H13.4473V55.2075H31.4831Z" fill="#FE725B"/>
<path d="M31.4829 57.3119H13.4471C13.1302 57.3119 12.8887 57.0324 12.8887 56.7036V55.1911C12.8887 54.8458 13.1452 54.5828 13.4471 54.5828H31.4829C31.7998 54.5828 32.0413 54.8623 32.0413 55.1911V56.7036C32.0413 57.0489 31.7847 57.3119 31.4829 57.3119ZM14.0206 56.0789H30.9245V55.7994H14.0206V56.0789Z" fill="#FE725B"/>
<path d="M13.4473 28.9192V27.4231H40.5236V28.9192H13.4473Z" fill="#FE725B"/>
<path d="M40.5234 29.5274H13.4471C13.1302 29.5274 12.8887 29.2479 12.8887 28.9191V27.423C12.8887 27.0777 13.1452 26.8147 13.4471 26.8147H40.5234C40.8404 26.8147 41.0819 27.0942 41.0819 27.423V28.9191C41.0819 29.2643 40.8253 29.5274 40.5234 29.5274ZM14.0055 28.2944H39.965V28.0313H14.0055V28.2944Z" fill="#FE725B"/>
<path d="M13.4473 45.2611V43.7485H40.5387V45.2611H13.4473Z" fill="#FE725B"/>
<path d="M40.5385 45.8693H13.4471C13.1302 45.8693 12.8887 45.5898 12.8887 45.261V43.7484C12.8887 43.4032 13.1452 43.1401 13.4471 43.1401H40.5385C40.8555 43.1401 41.0969 43.4196 41.0969 43.7484V45.261C41.0969 45.6062 40.8404 45.8693 40.5385 45.8693ZM14.0206 44.6362H39.965V44.3567H14.0055V44.6362H14.0206Z" fill="#FE725B"/>
<path d="M63.4039 20.37C63.4039 37.2381 63.4039 47.5628 63.3888 61.1756C63.3888 61.9483 63.1926 62.7868 62.8757 63.4773C61.2457 67.1436 59.51 70.7441 57.88 74.4103C57.5932 75.0515 57.4574 75.8078 57.4121 76.5312C57.3216 78.1917 56.4462 79.3096 55.1029 79.2932C53.7899 79.2767 52.9447 78.1752 52.8541 76.5805C52.8088 75.8242 52.6579 75.0351 52.3561 74.361C50.6959 70.6783 48.9602 67.0285 47.3151 63.3458C47.0434 62.7375 46.8774 61.9977 46.8774 61.3236C46.8623 46.1325 46.8623 34.1966 46.8623 15.7502C46.8623 15.405 46.8623 15.0762 46.8623 14.7309C46.9529 13.3992 47.4358 12.1333 48.5527 11.6401C49.8205 11.0811 50.0016 10.2097 49.8658 8.99314C49.8356 8.76297 49.8658 8.51636 49.8658 8.2862C49.9714 6.13248 51.526 4.45553 53.5182 4.38977C54.62 4.35689 55.7217 4.34045 56.8084 4.38977C58.7554 4.47197 60.2948 6.14892 60.3854 8.23687C60.4156 8.91094 60.3401 9.60144 60.4156 10.2755C60.4457 10.5879 60.6872 10.9989 60.9287 11.1304C61.9701 11.6565 62.7398 12.4292 63.1926 13.5801C63.2983 13.8267 63.6454 14.1062 63.902 14.1226C64.9585 14.1884 66.03 14.1226 67.1016 14.1555C68.4751 14.1884 69.4108 15.1748 69.4108 16.6709C69.4259 23.1485 69.4108 29.6261 69.4108 36.1037C69.4108 37.1066 68.958 37.8628 68.143 38.3067C66.5734 39.1617 65.2754 37.9122 65.2603 35.8571C65.2603 30.629 65.215 25.4009 65.215 20.1892C65.215 19.8275 65.1245 19.4658 65.1245 19.0712H63.3888V20.37H63.4039ZM48.4018 43.502C48.4018 51.6072 48.4018 53.1362 48.4018 61.2743C52.839 61.2743 57.3065 61.2743 61.8343 61.2743C61.8343 53.2184 61.8343 51.673 61.8343 43.502C57.3366 43.502 52.8843 43.502 48.4018 43.502ZM61.8645 36.8929C61.8645 36.5476 61.9097 36.2352 61.9097 35.9064C61.9097 29.1164 61.9097 22.3429 61.9097 15.5529C61.9097 13.3499 61.1098 12.495 59.0572 12.495C56.2953 12.495 53.5333 12.495 50.7864 12.495C49.3828 12.495 48.3867 13.4485 48.3867 14.8953C48.3565 22.1785 48.3867 29.4781 48.3867 36.8764C52.9296 36.8764 57.3668 36.8764 61.8946 36.8764L61.8645 36.8929ZM49.2017 63.8226C50.7109 67.0943 52.2504 70.3495 53.7144 73.6541C54.0313 74.3774 54.469 74.4268 55.0426 74.3939C55.6161 74.361 56.1443 74.509 56.5065 73.7034C58.0762 70.1686 59.7213 66.6832 61.3966 63.0663C57.1857 63.0663 53.0805 63.0663 48.8847 63.0663C49.0055 63.3622 49.0809 63.6088 49.2017 63.839V63.8226ZM63.4341 17.3779C64.0378 17.3779 64.6264 17.4107 65.215 17.3779C66.1206 17.3121 66.4225 17.756 66.4225 18.7095C66.3923 24.2336 66.4225 29.7576 66.4225 35.2817C66.4225 35.594 66.347 35.9393 66.4677 36.1859C66.6036 36.4818 66.9205 36.8929 67.1318 36.86C67.4186 36.8271 67.7204 36.4818 67.9015 36.1859C68.0223 35.9886 67.9317 35.6598 67.9317 35.3803C67.9317 29.3466 67.9317 23.3129 67.9317 17.2792C67.9317 15.8653 67.8261 15.7502 66.5583 15.7502C65.5622 15.7502 64.551 15.7502 63.4492 15.7502V17.3779H63.4341ZM58.8157 10.8345C58.8157 9.81517 58.9214 8.81229 58.7855 7.8423C58.6497 6.77366 57.7442 6.03383 56.7028 5.98451C55.6463 5.93519 54.5747 5.93519 53.5182 5.98451C52.507 6.03383 51.7222 6.59281 51.526 7.66145C51.3297 8.68077 51.3901 9.76585 51.3297 10.8345C53.9257 10.8345 56.3405 10.8345 58.8308 10.8345H58.8157ZM48.4169 38.5862C48.4169 39.0795 48.4169 41.2003 48.4169 41.7428C52.8843 41.7428 57.3366 41.7428 61.8494 41.7428C61.8494 41.2496 61.8494 39.1617 61.8494 38.5862C57.3517 38.5862 52.9145 38.5862 48.4169 38.5862ZM54.2426 76.0379C54.4388 76.5969 54.5445 77.0737 54.7709 77.4683C54.8313 77.5834 55.3444 77.6162 55.4199 77.5012C55.6765 77.1066 55.8274 76.6298 56.084 76.0215H54.2426V76.0379Z" fill="#FE725B"/>
<path d="M55.1334 79.9014H55.0881C53.5185 79.8849 52.4016 78.5533 52.2809 76.6133C52.2507 76.0872 52.145 75.3145 51.8432 74.6239C50.998 72.7497 50.1377 70.8755 49.2774 69.0177C48.4473 67.2092 47.6172 65.4172 46.8022 63.6087C46.4853 62.9018 46.3042 62.0633 46.3042 61.3235C46.2891 47.8751 46.2891 36.9914 46.2891 21.866V15.5035C46.2891 15.224 46.2891 14.9445 46.2891 14.6815C46.4249 12.873 47.1493 11.5907 48.3417 11.081C49.217 10.7029 49.4283 10.2425 49.2925 9.09169C49.2623 8.84508 49.2774 8.59847 49.2925 8.35186C49.4133 5.78713 51.2244 3.86358 53.4883 3.78137C54.7108 3.73205 55.7975 3.74849 56.8238 3.78137C59.0575 3.88002 60.8384 5.78713 60.9441 8.22034C60.9441 8.51627 60.9441 8.79576 60.9441 9.09169C60.9441 9.46982 60.929 9.83152 60.9743 10.1932C60.9894 10.3247 61.1101 10.522 61.1856 10.5713C62.393 11.1961 63.2231 12.1003 63.7211 13.3334C63.7513 13.3827 63.8872 13.4813 63.9475 13.4978C64.5361 13.5307 65.1248 13.5307 65.7285 13.5142C66.1963 13.5142 66.6642 13.5142 67.1321 13.5142C68.8376 13.5635 69.9846 14.813 69.9846 16.6379C69.9997 23.1155 69.9846 29.5931 69.9846 36.0707C69.9846 37.2873 69.4111 38.2738 68.3999 38.8327C67.5547 39.2931 66.7095 39.2931 66.0152 38.8163C65.2002 38.2738 64.7173 37.1558 64.7022 35.8406V31.4509C64.672 27.686 64.6569 23.9211 64.6569 20.1727C64.6569 20.0247 64.6418 19.8603 64.6267 19.7123C64.6267 19.7123 64.6267 19.6794 64.6267 19.663H63.9777V26.6338C63.9777 39.9672 63.9777 49.3219 63.9626 61.1591C63.9626 61.9976 63.7513 62.9018 63.3891 63.7403C62.5439 65.6145 61.6836 67.4887 60.8233 69.3465C60.0083 71.1221 59.1933 72.8812 58.3934 74.6733C58.167 75.1829 58.0161 75.8406 57.9859 76.5475C57.8803 78.5533 56.7483 79.8849 55.1485 79.8849L55.1334 79.9014ZM55.1938 4.9651C54.6655 4.9651 54.1222 4.9651 53.5336 4.99798C51.8432 5.06374 50.515 6.47763 50.4245 8.30254C50.4245 8.56559 50.3943 8.73 50.4245 8.8944C50.5754 10.111 50.4848 11.4427 48.7643 12.199C47.7832 12.6264 47.4965 13.8266 47.421 14.7637C47.4059 15.0103 47.421 15.2405 47.421 15.4871V21.8496C47.421 36.975 47.421 47.8586 47.4361 61.3071C47.4361 61.8825 47.5719 62.5237 47.8285 63.0662C48.6435 64.8747 49.4736 66.6667 50.3037 68.4587C51.164 70.3329 52.0394 72.2072 52.8846 74.0814C53.2619 74.9363 53.3977 75.8899 53.4279 76.5311C53.4883 77.5504 53.9713 78.6519 55.1183 78.6683C55.1183 78.6683 55.1334 78.6683 55.1485 78.6683C56.3257 78.6683 56.8087 77.5504 56.854 76.4982C56.8841 75.8899 57.0049 74.9856 57.3671 74.1472C58.167 72.3551 58.982 70.5796 59.8121 68.8204C60.6724 66.9626 61.5327 65.1048 62.3779 63.2306C62.6647 62.573 62.8307 61.8332 62.8307 61.192C62.8609 49.3712 62.8609 40 62.8458 26.6831V19.0876C62.8458 18.7423 63.1023 18.4793 63.4042 18.4793H65.1399C65.4568 18.4793 65.6983 18.7588 65.6983 19.0876C65.6983 19.2684 65.7134 19.4328 65.7436 19.5972C65.7738 19.811 65.7888 20.0083 65.7888 20.2055C65.7888 23.9704 65.7888 27.7189 65.819 31.4838V35.6926C65.819 35.6926 65.8341 35.5775 65.8492 35.5282C65.8492 35.446 65.8492 35.3802 65.8492 35.298V31.5496C65.8492 27.275 65.8492 22.984 65.8492 18.7094C65.8492 18.2491 65.7738 18.1176 65.7285 18.0847C65.653 18.0189 65.487 17.9861 65.2455 18.0025C64.8229 18.0354 64.4003 18.0189 63.9777 18.0025H63.4193C63.1023 18.0025 62.8609 17.723 62.8609 17.3778V15.7501C62.8609 15.4049 63.1174 15.1418 63.4193 15.1418H66.5284C68.1131 15.1418 68.4753 15.5528 68.4753 17.2791V35.3802C68.4753 35.3802 68.4753 35.5117 68.4753 35.5775C68.4904 35.8406 68.5206 36.2187 68.3244 36.5311C68.1584 36.7941 67.7358 37.4024 67.1472 37.4846C66.468 37.5833 65.9247 36.4817 65.9096 36.4653C65.8492 36.3173 65.8039 36.1694 65.8039 36.0378C65.8492 36.8434 66.1209 37.4846 66.5737 37.7805C66.9359 38.0272 67.3887 38.0107 67.8716 37.7477C68.5206 37.4024 68.8376 36.8599 68.8376 36.0872C68.8376 29.6096 68.8376 23.132 68.8376 16.6544C68.8376 15.5035 68.1584 14.7801 67.0717 14.7473C66.6189 14.7473 66.1662 14.7473 65.7134 14.7473C65.0946 14.7473 64.4758 14.7473 63.857 14.7144C63.4042 14.6979 62.8458 14.2705 62.6647 13.8101C62.2722 12.8401 61.6384 12.1496 60.6724 11.6564C60.2045 11.4098 59.8876 10.7851 59.8272 10.3247C59.7819 9.89728 59.7819 9.46982 59.797 9.02593C59.797 8.76288 59.797 8.49983 59.797 8.23678C59.7065 6.44475 58.4085 5.03086 56.7483 4.9651C56.2352 4.94866 55.7069 4.93222 55.1636 4.93222L55.1938 4.9651ZM65.3813 16.7695C65.8643 16.7695 66.2416 16.901 66.5133 17.1969C66.9359 17.6408 66.9963 18.282 66.9812 18.7259C66.9661 23.0004 66.9661 27.275 66.9812 31.566V35.3145C66.9812 35.4131 66.9812 35.5282 66.9812 35.6268C66.9812 35.7255 66.9661 35.9063 66.9812 35.9556C67.0264 36.0378 67.1019 36.1529 67.1623 36.2187C67.2377 36.1529 67.3434 36.0378 67.434 35.8734C67.3887 35.9228 67.3887 35.7912 67.3887 35.7255C67.3887 35.6268 67.3736 35.5282 67.3736 35.4295V17.2956C67.3736 17.1147 67.3736 16.5393 67.3132 16.4242C67.2377 16.3913 66.7246 16.3913 66.5586 16.3913H64.5512H64.023V16.8023C64.4305 16.8023 64.8229 16.8023 65.2002 16.8023C65.2606 16.8023 65.3361 16.8023 65.3964 16.8023L65.3813 16.7695ZM55.1485 78.2244C55.1485 78.2244 55.1032 78.2244 55.073 78.2244C54.6806 78.208 54.4089 78.06 54.2731 77.8134C54.092 77.4682 53.9713 77.1065 53.8505 76.7283L53.7147 76.2845C53.6543 76.1036 53.6694 75.8899 53.775 75.7255C53.8807 75.5611 54.0467 75.4624 54.2429 75.4624H56.0842C56.2804 75.4624 56.4615 75.5775 56.5672 75.7419C56.6728 75.9228 56.6879 76.1365 56.5974 76.3338L56.4012 76.827C56.2352 77.238 56.0993 77.5833 55.888 77.9121C55.7522 78.1258 55.5107 78.2409 55.1636 78.2409L55.1485 78.2244ZM55.0277 76.679C55.0277 76.679 55.073 76.827 55.1032 76.8928C55.1334 76.827 55.1636 76.7612 55.1938 76.679H55.0277ZM54.8164 75.035C54.2278 75.035 53.609 74.8706 53.2015 73.9334C52.1601 71.566 51.0584 69.215 49.9717 66.8804L48.6888 64.1184C48.6133 63.954 48.5379 63.7731 48.4624 63.5759L48.3568 63.3128C48.2813 63.1155 48.2964 62.9018 48.402 62.7374C48.5077 62.5565 48.6888 62.4579 48.8699 62.4579H61.3818C61.578 62.4579 61.7591 62.573 61.8647 62.7538C61.9704 62.9347 61.9704 63.1648 61.8949 63.3457L60.5366 66.2721C59.3292 68.8697 58.1519 71.4016 57.0049 73.9828C56.5521 75.0021 55.7975 75.0185 55.3145 75.0185H55.073C54.9825 75.0185 54.907 75.0185 54.8164 75.0185V75.035ZM49.7604 63.6909L50.9829 66.3214C52.0696 68.6724 53.1713 71.0235 54.2278 73.4073C54.3938 73.7855 54.4995 73.8348 55.0277 73.8019H55.3296C55.7824 73.8019 55.8729 73.7855 56.0088 73.4567C57.1558 70.8755 58.333 68.3272 59.5405 65.7296L60.4913 63.6909H49.7755H49.7604ZM61.8346 61.8989H48.402C48.0851 61.8989 47.8436 61.6194 47.8436 61.2906V43.5183C47.8436 43.1731 48.1002 42.91 48.402 42.91H61.8346C62.1515 42.91 62.393 43.1895 62.393 43.5183V61.2906C62.393 61.6359 62.1364 61.8989 61.8346 61.8989ZM48.9605 60.6659H61.261V44.1102H48.9605V60.6659ZM61.8496 42.3839H48.4171C48.1002 42.3839 47.8587 42.1044 47.8587 41.7756V38.619C47.8587 38.2738 48.1153 38.0107 48.4171 38.0107H61.8496C62.1666 38.0107 62.4081 38.2902 62.4081 38.619V41.7756C62.4081 42.1209 62.1515 42.3839 61.8496 42.3839ZM48.9756 41.1509H61.2912V39.2273H48.9756V41.1509ZM61.8496 37.5011H48.3417C48.0247 37.5011 47.7832 37.2216 47.7832 36.8928V31.0563C47.7832 25.6474 47.7832 20.2877 47.7832 14.9117C47.7832 13.1525 49.0057 11.903 50.7414 11.8866C52.8091 11.8866 54.8768 11.8866 56.9596 11.8866H59.0273C61.3969 11.8866 62.4534 13.021 62.4534 15.5528C62.4534 22.3264 62.4534 29.1163 62.4534 35.9063C62.4534 36.1365 62.4534 36.3667 62.4232 36.6133V36.9256C62.393 37.2544 62.1515 37.5175 61.8496 37.5175V37.5011ZM48.9001 36.268H61.3063C61.3063 36.1365 61.3063 36.0214 61.3063 35.8899C61.3063 29.0999 61.3063 22.3264 61.3063 15.5364C61.3063 13.6951 60.7479 13.0868 59.0122 13.0868H56.9445C54.8768 13.0868 52.8091 13.0868 50.7414 13.0868C49.6245 13.0868 48.9001 13.7937 48.9001 14.8788C48.885 20.2384 48.885 25.6145 48.9001 31.0235V36.2516V36.268ZM58.8009 11.4591H51.3149C51.164 11.4591 51.0131 11.3934 50.9074 11.2618C50.8018 11.1303 50.7414 10.9659 50.7565 10.8015C50.7716 10.4891 50.7867 10.1603 50.7867 9.84796C50.7867 9.09169 50.8169 8.31898 50.9678 7.54627C51.2244 6.24746 52.1601 5.44187 53.4883 5.37611C54.5146 5.32679 55.5711 5.32679 56.7181 5.37611C58.0614 5.42543 59.1631 6.42831 59.3292 7.76C59.4197 8.48339 59.4046 9.22321 59.3744 9.93016C59.3744 10.2261 59.3594 10.5385 59.3594 10.8344C59.3594 11.1796 59.1028 11.4427 58.8009 11.4427V11.4591ZM51.8885 10.2261H58.2425V9.88084C58.2727 9.19033 58.2878 8.54915 58.2123 7.92441C58.1217 7.18458 57.4879 6.6256 56.6728 6.59272C55.556 6.5434 54.5297 6.5434 53.5336 6.59272C53.0657 6.60916 52.2507 6.80644 52.0696 7.77644C51.9488 8.43406 51.9337 9.12457 51.9186 9.84796C51.9186 9.96304 51.9186 10.0781 51.9186 10.2097L51.8885 10.2261Z" fill="#FE725B"/>
</g>
<defs>
<clipPath id="clip0_6682_13096">
<rect width="70" height="80" fill="white"/>
</clipPath>
</defs>
</svg>
