<svg version="1.2" xmlns="http://www.w3.org/2000/svg" viewBox="0 0 174 174" width="80" height="80">
	<title>tab-permohonan-svg</title>
	<style>
		.s0 { fill: #f99100 } 
		.s1 { fill: #ff5d00 } 
	</style>
	<g id="layer1">
		<g id="g246">
			<path id="path228" class="s0" d="m139.6 68.6c4.8 0 9.2 0 14 0 0.1 1.3 0.2 2.5 0.2 3.7 0 26.7 0 53.4 0 80.1 0 9.9-4.6 16.5-12.8 18.9-1.7 0.4-3.5 0.6-5.3 0.6q-57.4 0-114.7 0c-10.8 0-18.3-7.2-18.3-18.1q-0.2-63.9-0.1-127.7c0.1-9.8 7.2-17.6 16.9-17.7 29.7-0.2 59.4 0 89.2 0 0.2 0 0.5 0.1 1 0.2 0 4.4 0 8.9 0 13.8-1.7 0-3.1 0-4.6 0q-41 0-82 0c-5.5 0-6.2 0.7-6.2 6.1q0 61.7 0 123.5c0 5.1 0.9 5.9 6 5.9q55.3 0.1 110.5 0c5.4 0 6.2-0.8 6.2-6.1q0-39.5 0-79c0-1.3 0-2.7 0-4.2z"/>
			<path id="path230" class="s1" d="m88.3 106c-7.5-7.7-15-15.2-22.1-22.4 20.8-21.2 41.7-42.6 62.3-63.6q11.9 11.7 22.6 22.4c-20.6 20.9-41.7 42.3-62.8 63.6z"/>
			<path id="path232" class="s1" d="m136.1 13.1c2.3-2.3 5-5.2 7.9-7.9 5.4-5.1 12.6-5.1 18.1 0 1.9 1.7 3.7 3.5 5.3 5.4 4.5 5.1 4.4 12-0.3 17.2-2.7 3-5.7 5.7-8.5 8.5-7.5-7.7-14.9-15.4-22.5-23.2z"/>
			<path id="path234" class="s1" d="m53 117.7c2.7-9.8 5.2-19 7.7-28.1q10.6 10.9 20.7 21.2c-8.7 2.1-18.2 4.4-28.4 6.9z"/>
		</g>
	</g>
</svg>