<svg width="80" height="80" viewBox="0 0 80 80" fill="none" xmlns="http://www.w3.org/2000/svg">
<g clip-path="url(#clip0_6688_15842)">
<mask id="mask0_6688_15842" style="mask-type:luminance" maskUnits="userSpaceOnUse" x="0" y="0" width="80" height="80">
<path d="M80 0H0V80H80V0Z" fill="white"/>
</mask>
<g mask="url(#mask0_6688_15842)">
<path d="M19.2519 21.7505C18.3723 21.2374 17.476 20.7408 16.5963 20.2442C15.3183 19.5324 14.3889 19.7642 13.6586 21.0388C9.72495 27.8089 5.80797 34.5624 1.90753 41.3491C1.21043 42.5575 1.47599 43.501 2.67102 44.2128C3.4013 44.6432 4.1316 45.0735 4.8785 45.5037L19.2519 21.7505Z" fill="#FEEAE7"/>
<path d="M67.4038 46.3149C64.3829 48.3176 61.4118 50.2874 58.3247 52.3234C59.47 53.4656 60.5989 54.5581 61.6776 55.7003C63.3207 57.4221 63.2047 60.0043 61.3456 61.3283C60.5989 61.8581 59.6193 62.0567 58.5407 62.4705C58.5407 63.6292 58.1589 64.9536 56.8309 65.7812C55.5033 66.6252 54.1424 66.4927 53.0304 65.9301C52.25 66.8403 51.7024 67.8834 50.8229 68.3798C49.9598 68.8763 48.7647 68.8269 47.7189 69.0256C47.6691 68.9261 47.6362 68.8101 47.5864 68.7109C47.5198 68.8932 47.4367 69.0749 47.3704 69.2572C46.5407 71.7896 43.6526 72.5678 41.7273 70.6972C39.6692 68.7109 37.6776 66.6416 35.8186 64.7878C34.5572 65.9301 33.329 66.9896 32.1838 68.1149C31.0717 69.1909 29.8601 69.7372 28.3332 69.1909C26.8228 68.6612 26.1091 67.5189 25.9929 65.9629C25.9929 65.8305 25.9431 65.6981 25.9265 65.5825C23.2045 65.1687 22.441 64.4069 22.0593 61.7092C19.6858 61.5598 18.2584 60.3518 18.2087 57.8025C16.5489 57.7696 15.2543 57.1572 14.6236 55.6012C13.8269 53.6478 14.8228 52.2243 16.3497 50.9496C14.7896 49.4932 13.2958 48.1189 11.7688 46.6954C11.5696 46.9274 11.4037 47.1425 11.2377 47.3412C10.2087 48.5496 8.61529 48.9301 7.22112 48.1852C5.51156 47.2585 3.83521 46.2985 2.19206 45.2887C0.681685 44.3616 0.200359 42.5739 1.09663 41.0345C5.01365 34.2147 8.94725 27.3949 12.9307 20.6083C13.8269 19.0689 15.6028 18.6053 17.163 19.4496C18.8394 20.3434 20.4825 21.3035 22.1091 22.2801C23.5696 23.1574 23.9348 24.5313 23.5696 26.17C26.1091 27.3949 28.6153 28.6364 31.1547 29.8117C31.3871 29.911 31.8684 29.762 32.0842 29.5468C33.1464 28.5537 34.1588 27.5273 35.1713 26.4845C36.5323 25.0941 38.1755 24.432 40.1008 24.4485C42.358 24.4485 44.5989 24.3989 46.8558 24.4816C47.686 24.5147 48.4989 24.8789 49.3291 25.0775C50.2251 25.2927 51.138 25.7231 52.0011 25.6569C55.1713 25.3921 58.3082 24.9617 61.5118 24.5975C61.5118 24.2333 61.5118 23.9354 61.5118 23.6374C61.4616 22.0484 62.3082 20.7738 63.8184 20.3434C65.6113 19.8137 67.4038 19.3337 69.2296 18.8868C71.1051 18.4398 72.7149 19.3668 73.2296 21.2538C75.2709 28.7688 77.2958 36.3004 79.3042 43.8319C79.7522 45.5367 78.8891 47.1589 77.1962 47.6887C75.2873 48.2847 73.3456 48.8145 71.3869 49.2447C69.6611 49.6256 68.3829 48.6487 67.4536 46.3149H67.4038ZM33.0468 59.5736C34.8892 60.3021 35.2543 60.7158 35.8352 62.5696C35.9182 62.8514 36.1008 63.1327 36.3165 63.3478C38.3912 65.4336 40.4659 67.5189 42.5572 69.5718C42.856 69.8696 43.2709 70.1509 43.6858 70.2505C44.6318 70.4985 45.4118 70.1509 45.8767 69.2901C46.3744 68.3798 46.1424 67.5523 45.4287 66.8403C43.4535 64.8541 41.4452 62.9007 39.5032 60.8812C39.2543 60.6167 39.2875 60.0705 39.1879 59.6563C39.6028 59.7394 40.0344 59.7723 40.4161 59.9212C40.6485 60.0207 40.8144 60.2856 41.0136 60.4843C43.1215 62.5865 45.2127 64.7052 47.3371 66.7741C48.6318 68.0323 50.4576 67.7176 51.1051 66.1785C51.5696 65.1025 51.1878 64.2416 50.4078 63.4638C47.7856 60.8483 45.1629 58.2327 42.5572 55.6341C42.358 55.4354 42.0759 55.2701 41.9929 55.0381C41.8933 54.7403 41.9597 54.3763 41.9431 54.0283C42.2751 54.0616 42.6402 54.0283 42.9556 54.1278C43.1879 54.2105 43.3539 54.4918 43.5531 54.6905C46.69 57.8189 49.8104 60.9474 52.9473 64.0594C54.1256 65.2349 55.4367 65.3176 56.4327 64.3407C57.4118 63.3643 57.3122 62.0403 56.1504 60.8812C54.3913 59.1101 52.6318 57.3723 50.8727 55.6012C49.3789 54.1114 47.8682 52.6381 46.4078 51.1154C46.1922 50.8834 46.0927 50.4696 46.0593 50.1385C46.0593 50.0225 46.4411 49.7083 46.574 49.7581C46.9056 49.8572 47.2544 50.0558 47.5198 50.3043C49.7109 52.4558 51.8851 54.6412 54.0593 56.8092C55.1549 57.9021 56.2336 59.0274 57.3789 60.0869C58.3744 61.0136 59.8518 60.9474 60.7482 60.0207C61.6442 59.0936 61.6442 57.7527 60.7647 56.7429C60.5989 56.5612 60.4327 56.3954 60.25 56.2301C54.0593 50.0558 47.8682 43.8816 41.6776 37.7074C41.4784 37.5087 41.3124 37.2108 41.08 37.1611C40.4825 37.0121 39.7522 36.7308 39.2543 36.9459C38.773 37.1611 38.3912 37.8564 38.192 38.4191C38.0095 38.9489 38.1423 39.5778 38.1423 40.1737C38.1256 44.0968 35.5364 46.4803 31.6194 46.1492C29.7273 46.0003 28.4493 44.6594 28.4327 42.7394C28.4161 40.9849 28.4825 39.2137 28.4161 37.4591C28.3332 35.1251 28.4991 32.8905 30.5406 31.1193C27.885 29.8282 25.3788 28.6198 22.8228 27.3784C19.3041 33.4367 15.8684 39.4123 12.3829 45.4212C14.0593 46.9603 15.6692 48.4501 17.2958 49.9563C19.9016 46.7452 23.2045 47.7052 24.2336 50.7181C26.8725 49.0625 29.8435 50.3705 30.0095 53.7967C33.6444 54.0118 34.7066 57.2234 33.0468 59.5901V59.5736ZM62.026 25.9549C59.4864 26.2528 57.0469 26.4845 54.6238 26.8321C52.3664 27.1466 50.1589 27.4446 48.1007 26.0873C47.8184 25.9052 47.3704 25.9052 46.9887 25.9052C44.5989 25.9052 42.2087 25.9052 39.8186 25.9052C38.4244 25.9052 37.246 26.4017 36.2668 27.3618C34.5738 29.0337 32.8144 30.6558 31.2377 32.4436C30.5738 33.205 29.9763 34.2809 29.9099 35.2576C29.7107 37.7901 29.8103 40.3558 29.8269 42.9215C29.8269 43.7988 30.3248 44.5105 31.1713 44.6763C34.3082 45.3381 36.5821 43.6002 36.7481 40.869C36.7979 40.0744 36.7481 39.2799 36.7647 38.4853C36.8476 36.4328 38.607 34.9927 40.5987 35.4893C41.3124 35.6714 42.0427 36.168 42.5738 36.6977C47.2709 41.3325 51.9349 46.0003 56.6153 50.6683C56.9304 50.9829 57.1629 51.4629 57.7936 51.0323C60.8478 48.9634 63.9513 46.9438 67.0718 44.8749C65.3789 38.5847 63.7024 32.3277 61.9927 25.9714L62.026 25.9549ZM22.4908 24.8458C22.4244 23.8526 21.7107 23.7368 21.1796 23.4057C19.7522 22.4953 18.275 21.6842 16.7979 20.8565C15.5531 20.1613 14.6402 20.3931 13.9265 21.6345C10.0759 28.2557 6.24187 34.8768 2.42443 41.5145C1.74393 42.6898 2.00949 43.6333 3.17131 44.312C4.63192 45.1727 6.09249 46.0167 7.56965 46.8447C8.83107 47.5563 9.71072 47.3247 10.441 46.0665C14.1423 39.6772 17.8435 33.2877 21.5282 26.8984C21.8601 26.319 22.1091 25.6734 22.5074 24.8458H22.4908ZM71.0553 47.9203C72.6984 47.4901 74.5571 47.0101 76.4162 46.4803C77.7273 46.1163 78.2087 45.2887 77.8602 43.9644C75.8851 36.5321 73.8767 29.1165 71.8682 21.7008C71.5367 20.4593 70.69 19.9793 69.4118 20.2937C67.8353 20.6745 66.2749 21.1214 64.6984 21.5352C63.022 21.9821 62.5904 22.7436 63.0384 24.4485C63.7687 27.1797 64.4989 29.911 65.2296 32.6422C66.4576 37.1942 67.7024 41.7628 68.914 46.3149C69.1798 47.3078 69.7109 47.8874 71.0384 47.9203H71.0553ZM30.6568 55.1043C29.9929 55.3692 29.495 55.4189 29.1962 55.7003C27.4203 57.3887 25.6609 59.1101 23.9846 60.8812C23.2377 61.6758 23.4037 62.8514 24.1672 63.5958C24.8975 64.2914 26.0593 64.4238 26.8062 63.7118C28.5821 62.0234 30.358 60.3185 31.968 58.4812C32.3497 58.0509 32.3497 57.0078 32.1174 56.3954C31.9016 55.8492 31.1215 55.5016 30.6402 55.1043H30.6568ZM21.4618 60.4843C22.1091 60.2194 22.607 60.1367 22.9057 59.8549C24.6817 58.1501 26.4244 56.4452 28.1174 54.6576C28.8144 53.9292 28.6651 52.7207 27.9846 52.0092C27.2543 51.2478 26.0593 51.0985 25.2626 51.8434C23.5032 53.4989 21.7605 55.1874 20.1506 56.9914C19.7522 57.4385 19.6858 58.4812 19.9182 59.0772C20.1506 59.6563 20.9472 60.0372 21.4618 60.4843ZM29.2626 68.2474C29.2626 68.2474 29.3954 68.1314 29.4618 68.0821C29.7937 67.9825 30.2087 67.9825 30.4244 67.7674C31.719 66.5425 33.0468 65.3176 34.2087 63.9603C34.8394 63.2318 34.4908 62.0896 33.7273 61.4607C32.9638 60.8318 31.9016 60.7656 31.1547 61.4607C30.0095 62.5203 28.914 63.6127 27.8684 64.7549C27.3041 65.3674 27.1713 66.1949 27.6526 66.8572C28.051 67.4198 28.7149 67.7838 29.2626 68.2474ZM15.7688 54.0118C15.7688 55.1705 16.134 55.8163 16.9307 56.1967C17.7273 56.5612 18.5074 56.4785 19.1547 55.8825C20.2169 54.8892 21.246 53.8794 22.2419 52.8203C23.0883 51.9265 23.0219 50.7509 22.192 49.9563C21.3622 49.1456 20.2336 49.1287 19.3041 49.9896C18.2916 50.9332 17.3124 51.9096 16.3829 52.9194C16.051 53.2838 15.885 53.7967 15.7688 54.0118Z" fill="#FE725B"/>
<path d="M44.1648 72.3689C43.1358 72.3689 42.1233 71.9551 41.31 71.1604C39.8661 69.7698 38.4553 68.3462 37.1109 66.9889L35.8162 65.6813L35.1026 66.3271C34.2561 67.0884 33.4262 67.8169 32.6295 68.5946C31.2187 69.9853 29.7582 70.3822 28.1316 69.8195C26.505 69.2404 25.559 67.9822 25.3764 66.1778C22.9034 65.7146 21.9573 64.7711 21.5092 62.3378C19.1689 62.0395 17.8412 60.6991 17.6088 58.448C15.8494 58.2658 14.6378 57.4049 14.0238 55.8986C13.1275 53.6973 14.2395 52.108 15.4013 50.9991L11.7997 47.6551L11.6835 47.8044C10.4387 49.2773 8.51335 49.6746 6.88682 48.7809C5.02788 47.7711 3.36813 46.8275 1.82456 45.8675C0.0154291 44.7586 -0.53229 42.6067 0.513354 40.7693C4.43037 33.9495 8.3806 27.1298 12.3474 20.3431C13.4096 18.5222 15.5507 17.9429 17.4262 18.9526C18.9366 19.7637 20.5631 20.7072 22.4055 21.7997C23.4345 22.4287 24.5631 23.6371 24.2312 25.8718L25.4594 26.4676C27.4345 27.4277 29.4096 28.3878 31.3847 29.2982C31.3847 29.2816 31.5673 29.1989 31.6171 29.1492C32.6627 28.1726 33.6918 27.1298 34.6876 26.1035C36.1316 24.6303 37.9242 23.8854 40.032 23.8854C40.1814 23.8854 40.3972 23.8854 40.5798 23.8854C41.1606 23.8854 41.7249 23.8854 42.3059 23.8854C43.8162 23.8854 45.3434 23.8854 46.8536 23.9185C47.4842 23.935 48.082 24.1337 48.6629 24.2992C48.9282 24.382 49.194 24.4647 49.4594 24.531C49.7416 24.5972 50.0238 24.6799 50.306 24.7793C50.9034 24.9613 51.4678 25.1434 51.9491 25.0938C54.2394 24.9117 56.5634 24.6303 58.8038 24.3489L60.8785 24.1006C60.8785 23.9682 60.8785 23.8358 60.8785 23.7033C60.8287 21.7997 61.8745 20.31 63.6336 19.7968C65.4927 19.2506 67.3185 18.7706 69.0611 18.3402C71.2518 17.8105 73.2105 18.9692 73.8078 21.1542C75.8496 28.6692 77.8745 36.2007 79.8825 43.7323C80.4305 45.7849 79.3682 47.7213 77.3433 48.3338C75.2687 48.9795 73.3598 49.4929 71.5011 49.9066C69.642 50.3204 68.198 49.4431 67.1691 47.2911L59.3514 52.472L59.8825 53.0018C60.6629 53.78 61.426 54.5413 62.1731 55.3191C63.1194 56.3289 63.6007 57.6369 63.4678 58.928C63.3514 60.1195 62.7376 61.1791 61.7416 61.8742C61.1607 62.288 60.4967 62.5031 59.7998 62.7515C59.6007 62.8178 59.4011 62.884 59.202 62.9666C59.086 64.4235 58.4056 65.6315 57.2269 66.3764C55.9989 67.1546 54.6211 67.2871 53.2602 66.7573C53.1442 66.9226 53.0114 67.072 52.8949 67.2373C52.3971 67.8995 51.8994 68.5782 51.1856 68.992C50.4718 69.4058 49.6256 69.4884 48.8287 69.588C48.53 69.6209 48.2478 69.6542 47.9491 69.7035C47.4509 71.028 46.4056 71.988 45.1274 72.3191C44.8122 72.4018 44.5136 72.4351 44.198 72.4351L44.1648 72.3689ZM35.8494 64.1915C36.0154 64.1915 36.1648 64.2578 36.2976 64.3738L38.0237 66.1115C39.3681 67.4689 40.7623 68.8924 42.1897 70.2666C42.9366 70.9946 43.8993 71.2595 44.8122 71.0444C45.758 70.8129 46.4882 70.1009 46.8202 69.0746C46.87 68.9258 46.9198 68.7933 46.9865 68.6609L47.0527 68.4955C47.2189 68.0818 47.866 68.0155 48.1318 68.3631C48.314 68.3462 48.4967 68.3133 48.6794 68.2969C49.3931 68.2138 50.0571 68.1475 50.5549 67.8662C51.0362 67.5849 51.4509 67.0386 51.8994 66.4426C52.1149 66.1449 52.3474 65.8302 52.5962 65.5489C52.7789 65.3338 53.0945 65.2675 53.3598 65.4C54.1234 65.7809 55.3016 66.0786 56.5465 65.284C57.7251 64.5391 57.974 63.3475 57.9571 62.4866C57.9571 62.2382 58.1069 62.0066 58.3558 61.9075C58.7207 61.7582 59.0696 61.6426 59.4011 61.5431C60.0487 61.328 60.5962 61.1458 61.0278 60.8315C61.7251 60.3346 62.1567 59.6066 62.2394 58.7786C62.3225 57.852 61.974 56.892 61.2767 56.1471C60.5465 55.3689 59.7829 54.624 59.0198 53.8626L57.9407 52.7866C57.8078 52.6542 57.7416 52.472 57.758 52.2902C57.7749 52.108 57.8745 51.9426 58.0402 51.8431L67.1194 45.8346C67.2687 45.7351 67.4678 45.7022 67.6505 45.7684C67.8327 45.8178 67.982 45.9671 68.0487 46.1324C69.0945 48.8306 70.3887 48.8969 71.2518 48.6818C73.0776 48.268 74.9696 47.7711 77.0114 47.1258C78.3887 46.712 79.086 45.4209 78.7042 44.0302C76.6958 36.4987 74.6878 28.9837 72.6296 21.4687C72.2145 19.9293 70.9367 19.1678 69.3931 19.5486C67.6669 19.9624 65.8576 20.459 64.0154 20.9886C62.8038 21.3362 62.1234 22.346 62.1567 23.6702C62.1567 23.8688 62.1567 24.084 62.1567 24.3158V24.6468C62.1567 24.9613 61.9242 25.2262 61.6087 25.2593L58.9865 25.5738C56.7291 25.8552 54.3887 26.1366 52.082 26.3186C51.3682 26.3683 50.6545 26.1697 49.974 25.9545C49.7251 25.8718 49.4594 25.789 49.2105 25.7393C48.9282 25.6731 48.6296 25.5738 48.3473 25.491C48.2976 25.491 48.2478 25.4579 48.1816 25.4414C48.2811 25.4745 48.3807 25.5241 48.4802 25.5903C50.3722 26.8318 52.4136 26.5504 54.5714 26.2359C56.2642 26.0042 57.974 25.8055 59.7002 25.6069L61.9905 25.3421C62.2891 25.2924 62.5882 25.491 62.6709 25.8055L67.75 44.7089C67.8162 44.9738 67.7167 45.2386 67.4842 45.3875L65.0945 46.9764C62.7874 48.4995 60.4967 50.0058 58.2229 51.5453C57.2438 52.2075 56.6131 51.4955 56.3638 51.2306L56.2478 51.0982L51.9491 46.8111C48.7127 43.5833 45.4758 40.339 42.2063 37.1277C41.6586 36.5814 41.0445 36.2007 40.5134 36.0683C39.7831 35.8862 39.0528 36.0186 38.4718 36.449C37.8578 36.9125 37.4926 37.6408 37.4594 38.485C37.4594 38.8492 37.4594 39.2134 37.4594 39.561C37.4594 39.9913 37.4594 40.4382 37.4594 40.8686C37.3764 42.3418 36.7291 43.5998 35.6503 44.4275C34.4718 45.3213 32.8619 45.6026 31.1358 45.2551C30.0238 45.0235 29.31 44.0964 29.2934 42.8881V41.3652C29.2437 39.3292 29.227 37.227 29.3764 35.1745C29.476 33.9661 30.2063 32.7412 30.8536 31.9963C32.032 30.6555 33.3266 29.3975 34.5714 28.1891C35.0196 27.7588 35.4677 27.3284 35.8993 26.8814C36.9947 25.789 38.3225 25.2427 39.8661 25.2427H42.9864C44.3474 25.2427 45.6918 25.2427 47.0527 25.2427C47.3682 25.2427 47.7002 25.2427 48.0154 25.3255C47.6171 25.2096 47.2354 25.1103 46.87 25.0938C45.3762 25.0441 43.8826 25.0441 42.3889 25.0606C41.642 25.0606 40.8951 25.0606 40.1482 25.0606H40.115C38.3391 25.0606 36.8785 25.6731 35.6669 26.9146C34.6378 27.9574 33.6254 29.0002 32.5466 29.9934C32.2146 30.3079 31.4677 30.6058 30.92 30.3576C28.9283 29.4306 26.9698 28.4871 24.9781 27.5105L23.335 26.7159C23.0694 26.5835 22.9366 26.3021 23.003 26.0207C23.086 25.6731 23.1192 25.3586 23.1192 25.0606C22.9864 25.3421 22.8702 25.5903 22.7706 25.8221C22.5549 26.3186 22.3557 26.749 22.1233 27.1629C18.4387 33.5522 14.7374 39.9417 11.0362 46.3311C10.1399 47.8706 8.89508 48.2018 7.31833 47.3244C5.84117 46.4964 4.36398 45.6524 2.90339 44.7915C1.45941 43.9309 1.11087 42.6067 1.94074 41.15C5.75815 34.5123 9.60877 27.8912 13.4594 21.27C14.3391 19.7472 15.6337 19.3996 17.1773 20.2603L17.7748 20.5914C19.0362 21.3031 20.3474 22.0315 21.5922 22.826C21.6918 22.8922 21.7914 22.9419 21.891 22.9915C22.1399 23.124 22.4387 23.273 22.7042 23.5543C22.4885 23.2564 22.2063 23.0081 21.8412 22.7929C20.032 21.7004 18.4221 20.7734 16.9283 19.9789C15.6503 19.2837 14.2395 19.6644 13.5258 20.9059C9.559 27.6926 5.60877 34.5123 1.70838 41.3321C0.994683 42.5736 1.35983 43.9806 2.58804 44.7586C4.11501 45.7022 5.74157 46.6458 7.58388 47.6386C8.69593 48.2346 9.97393 47.9698 10.837 46.9435L11.3847 46.2978C11.5009 46.1658 11.6503 46.0826 11.8162 46.0826C11.9822 46.0498 12.1482 46.1324 12.281 46.2484L16.8619 50.5022C16.9947 50.6182 17.0611 50.8004 17.0611 50.9658C17.0611 51.1315 16.9781 51.3133 16.8453 51.4293C15.1856 52.82 14.7374 53.9618 15.3018 55.3689C15.7831 56.5609 16.7457 57.14 18.3225 57.1733C18.6544 57.1733 18.92 57.4546 18.9366 57.7858C18.9698 59.5235 19.7001 60.5502 21.1773 60.9306C21.1773 60.9306 21.1606 60.9306 21.1441 60.9142C20.9947 60.7818 20.8287 60.6658 20.6627 60.5502C20.1814 60.2191 19.6503 59.8382 19.4179 59.2586C19.1192 58.4973 19.1856 57.1898 19.7665 56.544C21.2934 54.8226 22.9366 53.2338 24.9117 51.3631C25.9075 50.4195 27.4843 50.5022 28.5133 51.5453C29.476 52.5382 29.5424 54.1111 28.6627 55.0546C26.9366 56.8751 25.1275 58.6298 23.4345 60.2684C23.1358 60.5502 22.7706 60.6822 22.3889 60.8146C22.2229 60.8809 22.0237 60.9471 21.808 61.0302C21.7748 61.0302 21.7581 61.0466 21.725 61.0631C21.8744 61.0795 22.0403 61.0964 22.2063 61.1129C22.505 61.1293 22.7374 61.3609 22.7872 61.6426C23.1358 64.0591 23.6835 64.6222 26.1399 64.9862C26.4055 65.0191 26.6046 65.2346 26.6544 65.4826C26.7042 65.6813 26.7208 65.7973 26.7208 65.9298C26.8204 67.32 27.4677 68.1973 28.6462 68.6111C28.7623 68.6444 28.8785 68.6773 28.9781 68.7106C28.9781 68.7106 28.9615 68.7106 28.9449 68.6942C28.7789 68.5618 28.613 68.4458 28.447 68.3133C28.0154 67.9986 27.5673 67.6511 27.2353 67.1875C26.6046 66.3102 26.7208 65.1515 27.5009 64.2911C28.6462 63.0662 29.725 61.9738 30.8204 60.964C31.7499 60.1031 33.1773 60.1031 34.2063 60.964C34.7872 61.444 35.1689 62.1555 35.2187 62.8506C35.2685 63.4138 35.1026 63.9266 34.754 64.3404C33.725 65.5324 32.5631 66.6413 31.4345 67.7009L30.92 68.1809C30.6378 68.4458 30.2727 68.5284 29.9739 68.5782C29.9075 68.5782 29.8412 68.5946 29.7748 68.6111C29.642 68.6773 29.4594 68.7435 29.2934 68.7604C30.1565 68.8595 30.9698 68.4955 31.8162 67.6675C32.6295 66.8733 33.4594 66.1284 34.3225 65.3502L35.4677 64.324C35.5839 64.208 35.7333 64.1586 35.8826 64.1586L35.8494 64.1915ZM32.4138 61.5929C32.115 61.5929 31.8329 61.692 31.6005 61.9075C30.5217 62.9004 29.4594 63.96 28.3474 65.1684C28.0486 65.4991 27.8329 66.0124 28.1814 66.4924C28.3972 66.8071 28.7457 67.0551 29.1274 67.3369C29.1938 67.3862 29.2602 67.4195 29.31 67.4689C29.4262 67.436 29.559 67.4031 29.6918 67.3862C29.808 67.3698 29.9739 67.3369 30.0237 67.3035L30.5217 66.8235C31.6171 65.7809 32.7623 64.7049 33.7581 63.5626C33.8909 63.4138 33.9407 63.2151 33.9242 62.9831C33.891 62.6191 33.6752 62.2218 33.3432 61.9569C33.0611 61.7253 32.7291 61.6093 32.4138 61.6093V61.5929ZM26.4719 51.992C26.1897 51.992 25.9075 52.0915 25.6752 52.3066C23.7167 54.144 22.1067 55.7164 20.613 57.4049C20.4138 57.62 20.3308 58.4146 20.4968 58.8449C20.5797 59.0769 20.9615 59.3418 21.2934 59.5733C21.393 59.6395 21.476 59.7058 21.5756 59.772C21.6918 59.7391 21.7914 59.6893 21.891 59.656C22.1565 59.5733 22.3889 59.4906 22.4885 59.3911C24.1648 57.7693 25.9739 56.0311 27.6835 54.2266C28.1482 53.7302 27.9822 52.8862 27.5507 52.4391C27.2851 52.1578 26.8868 51.9755 26.505 51.9755L26.4719 51.992ZM39.8162 34.7606C40.1316 34.7606 40.447 34.7937 40.7623 34.8765C41.7748 35.1248 42.6212 35.8531 43.0362 36.2504C46.306 39.4616 49.5425 42.706 52.7789 45.9338L57.0776 50.2209C57.0776 50.2209 57.194 50.3533 57.2602 50.4031C57.31 50.4693 57.3931 50.5684 57.4429 50.5853C59.7665 48.9631 62.0571 47.4569 64.3638 45.9338L66.3887 44.5929L61.5589 26.6332L59.7998 26.8318C58.0736 27.0304 56.3807 27.2125 54.7042 27.4442C52.5136 27.7588 50.0402 28.1064 47.75 26.6001C47.6336 26.5173 47.2518 26.5173 47.0362 26.5173C45.642 26.5173 44.281 26.5173 42.9366 26.5173H39.8329C39.8329 26.5173 39.8329 26.5173 39.8162 26.5173C38.6046 26.5173 37.5922 26.9311 36.7291 27.7919C36.281 28.2388 35.8329 28.6692 35.3847 29.0995C34.1565 30.2914 32.8785 31.5328 31.7333 32.8405C31.0694 33.5854 30.6212 34.5454 30.5549 35.2903C30.4055 37.2932 30.4387 39.3623 30.4553 41.3818V42.9046C30.4718 43.2026 30.5714 43.8978 31.335 44.0634C32.6959 44.3613 33.9574 44.1461 34.837 43.4674C35.6171 42.8715 36.0818 41.928 36.1482 40.8355C36.1648 40.4217 36.1648 40.0244 36.1482 39.6106C36.1482 39.2299 36.1482 38.8492 36.1482 38.4685C36.198 37.2601 36.7457 36.1842 37.6586 35.489C38.2893 35.0089 39.0362 34.7772 39.7997 34.7772L39.8162 34.7606ZM15.5507 21.0714C15.1192 21.0714 14.7872 21.3528 14.4553 21.9322C10.6046 28.5533 6.77059 35.1745 2.95319 41.8122C2.45526 42.6894 2.60464 43.2523 3.46771 43.7654C4.91171 44.6262 6.37228 45.4702 7.84944 46.2813C8.81211 46.8275 9.32664 46.6786 9.87437 45.7351C13.5756 39.3458 17.2769 32.9729 20.9615 26.567C21.1773 26.1863 21.3598 25.8055 21.559 25.3421C21.642 25.1434 21.7416 24.9448 21.8412 24.7131C21.7914 24.4151 21.6088 24.3158 21.227 24.1171C21.0943 24.0509 20.9615 23.9847 20.8287 23.9019C19.6171 23.124 18.3225 22.3956 17.0777 21.7004L16.4802 21.3694C16.115 21.1707 15.8162 21.0549 15.5507 21.0549V21.0714ZM44.2478 70.9453C44.0154 70.9453 43.7831 70.912 43.5341 70.8458C43.0528 70.7302 42.5382 70.4155 42.1233 70.0182C40.0154 67.9658 37.9407 65.88 35.8661 63.7942C35.5839 63.5129 35.3515 63.1324 35.2354 62.768C34.7208 61.0964 34.4719 60.8315 32.8121 60.1693C32.6295 60.1031 32.4968 59.9542 32.447 59.772C32.3972 59.5898 32.4304 59.3911 32.53 59.2422C33.227 58.2493 33.3764 57.0409 32.9117 56.0809C32.5466 55.336 31.8661 54.8226 30.9532 54.5742C30.9864 54.5742 31.003 54.6075 31.0362 54.624C31.169 54.74 31.3349 54.8391 31.4843 54.9386C31.949 55.2529 32.4802 55.6009 32.6959 56.1635C32.9781 56.8751 33.0279 58.1995 32.4304 58.8782C30.7208 60.8146 28.8453 62.6191 27.2187 64.1418C26.2727 65.036 24.7291 64.9862 23.7167 64.0093C22.6544 63 22.5714 61.4271 23.5009 60.4342C25.1109 58.7458 26.754 57.1235 28.7291 55.22C29.0279 54.9386 29.4096 54.8226 29.808 54.6902C29.9906 54.6404 30.1731 54.5742 30.3889 54.4915C30.4387 54.4751 30.505 54.4586 30.5549 54.4586C30.3557 54.4253 30.1565 54.3924 29.9407 54.3924C29.6254 54.376 29.3764 54.1275 29.3598 53.7964C29.2934 52.4391 28.7125 51.3964 27.7665 50.8995C26.8204 50.4031 25.642 50.5191 24.53 51.2142C24.364 51.3133 24.1814 51.3466 23.9822 51.2804C23.7997 51.2142 23.6669 51.0818 23.6005 50.8995C23.1689 49.6582 22.2893 48.7973 21.227 48.5986C20.0486 48.4 18.8038 48.996 17.725 50.3204C17.6254 50.4529 17.4594 50.5355 17.2934 50.552C17.1275 50.5684 16.9449 50.5022 16.8287 50.3866L11.9158 45.8511C11.7001 45.6524 11.6503 45.3378 11.7997 45.0898L22.2395 27.047C22.4055 26.7656 22.754 26.6497 23.0528 26.7987L30.7706 30.5397C30.9532 30.639 31.086 30.8045 31.1192 31.0197C31.1524 31.2349 31.0694 31.4335 30.9034 31.5659C29.1938 33.0391 28.9117 34.8268 28.9947 37.4091C29.0279 38.4354 29.0279 39.4782 29.0113 40.5045C29.0113 41.2328 29.0113 41.9611 29.0113 42.706C29.0279 44.3116 30.0403 45.3875 31.6337 45.5035C33.3598 45.636 34.837 45.2222 35.8826 44.262C36.9283 43.3019 37.476 41.8783 37.4926 40.1238C37.4926 39.9582 37.4926 39.7927 37.476 39.6272C37.4428 39.1802 37.4096 38.6671 37.5756 38.1705C37.725 37.7402 38.1565 36.6808 38.9698 36.3166C39.5839 36.0518 40.2644 36.2504 40.8785 36.4159L41.1938 36.4987C41.559 36.598 41.7914 36.8628 41.9574 37.0615C42.0071 37.1111 42.0403 37.1608 42.0901 37.2105L60.7954 55.8653C60.9447 55.9978 61.0776 56.1471 61.2105 56.296C62.306 57.5538 62.2891 59.2586 61.1771 60.4178C60.0322 61.6093 58.1567 61.6426 56.9447 60.5004C56.1149 59.7391 55.3185 58.928 54.5216 58.1169L52.0322 55.6173C50.3887 53.9786 48.7291 52.3231 47.0696 50.6844C46.9865 50.6018 46.87 50.5191 46.754 50.4529C46.7874 50.5355 46.8202 50.6018 46.8371 50.6182C47.9322 51.7604 49.0447 52.8693 50.1731 53.9786L53.1442 56.9249C54.2891 58.0671 55.4509 59.2093 56.5962 60.368C57.9905 61.7751 58.1069 63.48 56.8785 64.7049C55.6505 65.9462 53.9407 65.8302 52.5136 64.4235C50.2727 62.2053 48.0322 59.9706 45.7914 57.736L43.1026 55.0546C43.1026 55.0546 42.9698 54.9053 42.9034 54.8226C42.837 54.7564 42.754 54.6573 42.7208 54.624C42.6876 54.624 42.6212 54.6075 42.5549 54.5911C42.5549 54.6573 42.5549 54.7066 42.5714 54.7564C42.5714 54.7564 42.6876 54.856 42.754 54.9053C42.837 54.9715 42.92 55.0378 42.9864 55.1209L50.8371 62.9502C51.8994 64.0093 52.1816 65.1515 51.6669 66.3435C51.2851 67.2373 50.5385 67.8662 49.642 68.0484C48.6793 68.2306 47.6669 67.916 46.8869 67.1382C45.4096 65.6978 43.9656 64.2578 42.5217 62.8013L40.5631 60.848C40.5631 60.848 40.4138 60.6991 40.3474 60.616C40.281 60.5502 40.198 60.4506 40.1648 60.4178C40.0984 60.3844 40.0154 60.368 39.9158 60.3515C39.9158 60.3515 39.9158 60.3844 39.9325 60.3844C41.3598 61.8578 42.8204 63.3142 44.281 64.7711L45.8247 66.3102C46.7705 67.2538 46.9696 68.396 46.3722 69.4884C45.8909 70.3658 45.1109 70.8458 44.198 70.8458L44.2478 70.9453ZM33.9574 59.292C35.4179 59.9542 35.8826 60.5995 36.447 62.404C36.4968 62.5693 36.6295 62.768 36.7623 62.9169C38.837 65.0026 40.9117 67.072 43.003 69.1244C43.2686 69.3729 43.5839 69.5711 43.8494 69.6373C44.5136 69.8195 45.0114 69.6044 45.3434 68.992C45.5758 68.5782 45.7416 68.0155 45.0114 67.2871L43.4677 65.7475C41.9906 64.2911 40.53 62.8178 39.086 61.328C38.7706 60.9969 38.7208 60.5333 38.671 60.1693C38.671 60.0533 38.6378 59.9209 38.6212 59.8218C38.5714 59.6231 38.6213 59.408 38.7872 59.2422C38.9366 59.0933 39.1524 59.0271 39.3515 59.0604L39.7001 59.1266C40.032 59.176 40.364 59.2258 40.6959 59.3582C41.0113 59.4742 41.2105 59.7222 41.3598 59.9044C41.4096 59.9542 41.4428 60.0204 41.4926 60.0533L43.4511 62.0231C44.8949 63.48 46.3389 64.92 47.7998 66.3435C48.2976 66.8235 48.8949 67.0222 49.4429 66.9226C49.9407 66.8235 50.3389 66.476 50.5714 65.9626C50.87 65.2346 50.7042 64.6386 50.0073 63.9435L42.1565 56.1138C42.1565 56.1138 42.0569 56.0146 42.0071 55.9813C41.808 55.816 41.559 55.6009 41.4594 55.2862C41.3598 54.9551 41.3598 54.6404 41.3764 54.3591C41.3764 54.2764 41.3764 54.1773 41.3764 54.0942C41.3764 53.9124 41.4428 53.7466 41.5756 53.6311C41.7084 53.5151 41.8909 53.4489 42.0569 53.4653H42.3225C42.6046 53.4653 42.92 53.4818 43.2354 53.5978C43.5507 53.7138 43.7499 53.9453 43.9158 54.144C43.9656 54.1938 43.9988 54.2435 44.0486 54.2929L46.7376 56.9746C48.978 59.2093 51.2189 61.444 53.4593 63.6618C54.0073 64.1915 55.0527 64.9364 56.0651 63.9435C57.0945 62.9004 56.2145 61.7915 55.7829 61.3444C54.638 60.2022 53.4927 59.0435 52.3474 57.9013L49.3931 54.9551C48.2642 53.8462 47.1358 52.7204 46.0402 51.5782C45.758 51.2804 45.5758 50.8333 45.526 50.2209C45.5091 49.9395 45.642 49.6911 45.9407 49.4431C46.1567 49.2609 46.5051 49.0786 46.8536 49.1782C47.3016 49.3271 47.7331 49.5755 48.0487 49.8898C49.7082 51.5289 51.3682 53.1675 53.0114 54.8226L55.5176 57.3222C56.2976 58.1169 57.0945 58.9111 57.9074 59.6729C58.638 60.3515 59.7331 60.3346 60.3971 59.6395C61.0611 58.9444 61.0611 57.9675 60.3971 57.1898C60.2976 57.0573 60.1647 56.9582 60.0487 56.8422L59.9158 56.7098L41.3432 38.187C41.3432 38.187 41.2105 38.0381 41.1441 37.9553C41.0943 37.8891 41.0113 37.7898 40.9781 37.7733L40.6959 37.707C40.3308 37.6077 39.8162 37.4587 39.6171 37.5415C39.4179 37.6243 39.1026 38.0381 38.9034 38.6506C38.8204 38.9154 38.837 39.263 38.8536 39.6272C38.8536 39.8258 38.8702 40.0079 38.8702 40.2065C38.8702 42.3087 38.1731 44.0634 36.8619 45.2387C35.5673 46.4302 33.7748 46.96 31.6669 46.7946C29.4428 46.6124 27.9325 44.9902 27.8993 42.7722C27.8993 42.0273 27.8993 41.299 27.8993 40.5541C27.8993 39.5444 27.8993 38.5181 27.8826 37.5084C27.8162 35.489 27.8826 33.2046 29.559 31.3342L23.1524 28.2388L13.2602 45.3378L17.3266 49.0955C18.6046 47.7711 20.115 47.1586 21.5756 47.4235C22.8702 47.6551 23.9822 48.5493 24.6295 49.8733C25.9242 49.2773 27.3183 49.2609 28.4636 49.8569C29.6752 50.4858 30.4553 51.7106 30.671 53.2502C32.2644 53.4818 33.5092 54.2929 34.1233 55.5511C34.6876 56.6933 34.6378 58.0835 34.0237 59.3084L33.9574 59.292ZM30.5549 55.7995C30.4387 55.8324 30.3225 55.8653 30.2229 55.8986C29.9574 55.9813 29.725 56.0475 29.642 56.1302C27.6669 58.0173 26.0403 59.6231 24.447 61.2946C23.8993 61.8742 24.1316 62.6689 24.613 63.1324C25.0777 63.5791 25.8744 63.7449 26.4055 63.248C27.9988 61.7253 29.8578 59.9542 31.5341 58.0671C31.7001 57.8684 31.7499 57.0906 31.5673 56.6271C31.4843 56.4284 31.1358 56.18 30.8204 55.9813C30.7374 55.9151 30.6378 55.8653 30.5549 55.7995ZM17.8744 57.0244C17.4926 57.0244 17.0777 56.9413 16.6794 56.7426C15.6503 56.2626 15.1524 55.3689 15.1524 53.9951C15.1524 53.8955 15.1856 53.7964 15.2187 53.6973C15.2519 53.6475 15.2686 53.5813 15.3018 53.4986C15.4179 53.2169 15.6005 52.8031 15.9158 52.472C16.8121 51.4955 17.808 50.5022 18.8702 49.5093C20.0154 48.4333 21.5258 48.4169 22.6046 49.476C23.6835 50.5191 23.7167 52.0915 22.671 53.2169C21.7748 54.1773 20.7457 55.2035 19.5507 56.3124C19.0528 56.776 18.4553 57.0075 17.8412 57.0075L17.8744 57.0244ZM16.4138 54.144C16.4304 55.0711 16.7457 55.4186 17.227 55.6338C17.808 55.8986 18.3225 55.8324 18.754 55.4351C19.9325 54.3426 20.9283 53.3493 21.808 52.4058C22.4055 51.7769 22.3889 50.9826 21.7914 50.4031C21.1773 49.8235 20.4304 49.8235 19.7665 50.4529C18.7208 51.4293 17.7582 52.4058 16.8785 53.3493C16.7125 53.5315 16.5798 53.8129 16.4802 54.0449C16.4636 54.0942 16.447 54.1275 16.4304 54.1773L16.4138 54.144ZM71.0696 48.5493C69.5922 48.516 68.7291 47.8538 68.3638 46.48C67.5176 43.2688 66.638 40.0741 65.7749 36.8794L64.6794 32.8074C63.9491 30.0762 63.2189 27.345 62.4887 24.6137C61.9407 22.5777 62.5714 21.4852 64.5962 20.9555L65.7914 20.6245C66.9696 20.31 68.1318 19.9955 69.31 19.6975C70.9034 19.3003 72.082 19.9624 72.5136 21.5349C74.5216 28.9506 76.53 36.3662 78.5051 43.7985C78.9367 45.4538 78.2727 46.6124 76.6296 47.076C75.3185 47.44 74.0074 47.7875 72.7789 48.1186L71.2687 48.516C71.2687 48.516 71.1691 48.5324 71.1025 48.5324L71.0696 48.5493ZM70.1731 20.8231C70.0074 20.8231 69.8078 20.8562 69.5922 20.9059C68.4136 21.1873 67.2518 21.5018 66.09 21.8163L64.8949 22.1474C63.5509 22.5115 63.3016 22.9253 63.6669 24.2992C64.3971 27.0304 65.1274 29.7617 65.8576 32.4929L66.9531 36.5649C67.8162 39.7762 68.6794 42.9708 69.5425 46.1822C69.7251 46.8938 70.0238 47.2911 70.9865 47.3244L72.4136 46.9435C73.642 46.6124 74.9531 46.2813 76.2478 45.9009C77.2438 45.6191 77.526 45.1226 77.2602 44.1295C75.2851 36.6973 73.2767 29.2816 71.2687 21.8659C71.0696 21.1542 70.7376 20.8231 70.1398 20.8231H70.1731Z" fill="#FE725B"/>
<path d="M41.5432 79.3708C24.2485 79.3215 9.74232 68.6615 4.87925 53.0188C4.81285 52.7873 4.64689 52.5388 4.69667 52.3237C4.76307 51.9926 4.94565 51.6948 5.09503 51.3966C5.39378 51.5624 5.82529 51.645 5.95809 51.9099C6.25685 52.489 6.35645 53.1513 6.60538 53.7637C12.1656 68.049 22.539 76.3419 37.8585 77.7984C54.6885 79.4042 70.2071 68.7277 75.236 52.6215C75.4022 52.0917 75.4022 51.165 76.3151 51.4299C77.228 51.6948 76.7467 52.4562 76.564 53.0024C71.5018 67.6019 61.3276 76.2922 46.0742 78.9904C44.3149 79.3046 42.4892 79.3046 41.5597 79.3877L41.5432 79.3708Z" fill="#FE725B"/>
<path d="M41.5429 80.0006C24.2317 79.9508 9.26073 69.1912 4.29807 53.2179L4.23168 53.0521C4.14869 52.837 4.03251 52.5557 4.0823 52.2246C4.14869 51.9103 4.28147 51.6455 4.39765 51.397L4.51384 51.1486C4.58024 50.9832 4.713 50.8672 4.879 50.8179C5.04495 50.7681 5.22753 50.7846 5.37691 50.8672C5.44331 50.9006 5.54287 50.9335 5.62589 50.9832C5.92464 51.1157 6.30638 51.2646 6.50553 51.6455C6.70469 52.0428 6.82091 52.4397 6.93709 52.837C7.00344 53.0855 7.06984 53.317 7.16944 53.549C12.7296 67.8339 23.0698 75.7792 37.908 77.1863C54.24 78.7423 69.6756 68.3308 74.6218 52.4397C74.6547 52.357 74.6716 52.2743 74.688 52.1752C74.7876 51.761 74.904 51.2148 75.4018 50.917C75.7005 50.7348 76.0658 50.7184 76.464 50.8344C76.8791 50.9499 77.1778 51.1819 77.3436 51.4966C77.6094 52.0259 77.3769 52.5721 77.2111 52.9859L77.128 53.2015C71.9991 67.9828 61.576 76.8552 46.1569 79.6032C44.8294 79.8348 43.4848 79.901 42.489 79.9508C42.1404 79.9508 41.825 79.9837 41.5761 80.0006C41.5761 80.0006 41.5429 80.0006 41.5263 80.0006H41.5429ZM28.5802 76.5575C32.63 77.981 36.9952 78.7588 41.5263 78.7588C41.7753 78.7423 42.0906 78.7259 42.4558 78.7095C43.4018 78.6597 44.7129 78.5935 45.9578 78.3783C60.8956 75.7299 71.0036 67.1223 75.9662 52.7877L76.0658 52.5059C76.132 52.357 76.2316 52.0921 76.2151 52.0095H75.9991C75.9991 52.0095 75.9329 52.2908 75.8996 52.4397C75.8667 52.5721 75.8498 52.6881 75.8169 52.7877C70.688 69.241 54.688 80.017 37.7918 78.3948C34.5055 78.0801 31.435 77.4512 28.5636 76.5241L28.5802 76.5575ZM5.32713 52.4397C5.32713 52.4397 5.37691 52.5228 5.39349 52.5721C5.42669 52.6552 5.45989 52.7543 5.49309 52.837C7.25242 58.4815 10.2898 63.4477 14.2732 67.4863C10.8873 63.8615 8.13211 59.3423 6.04082 53.9792C5.94122 53.7143 5.85824 53.433 5.77527 53.1681C5.67567 52.8206 5.57607 52.473 5.42669 52.1917C5.39349 52.2743 5.36029 52.3735 5.34371 52.4397H5.32713Z" fill="#FE725B"/>
<path d="M44.3003 0.629225C50.0596 0.745096 60.4165 4.53568 67.8356 12.1003C68.0347 12.299 68.3005 12.4811 68.3667 12.7128C68.4498 12.9942 68.4996 13.4411 68.3334 13.6067C68.184 13.7722 67.7027 13.7391 67.4374 13.6398C67.1716 13.5405 66.9889 13.2259 66.7734 13.0108C48.2836 -6.19055 16.1178 0.529907 6.82313 25.5247C6.77335 25.6571 6.72358 25.773 6.67375 25.9055C6.49122 26.3855 6.24224 26.9152 5.66131 26.5675C5.42895 26.4351 5.27958 25.7565 5.39575 25.4751C6.24224 23.4722 7.03891 21.4362 8.08455 19.5491C14.6572 7.78008 26.2422 0.331272 44.3003 0.629225Z" fill="#FE725B"/>
<path d="M6.00834 27.2958C5.82576 27.2958 5.59341 27.2461 5.34443 27.0971C4.7967 26.7826 4.59754 25.7729 4.8299 25.2267L5.26145 24.2004C5.95852 22.5451 6.67225 20.8401 7.5519 19.2345C14.8382 6.20741 27.2199 -0.198548 44.2988 8.58855e-05C50.4898 0.115956 60.996 4.23762 68.2658 11.6533L68.3983 11.7857C68.5974 11.9678 68.8467 12.183 68.9463 12.5306C68.9791 12.6299 69.2449 13.5569 68.7636 14.0535C68.3654 14.4673 67.5849 14.3845 67.2031 14.2355C66.8716 14.1031 66.6391 13.8383 66.4565 13.6231L66.3071 13.4575C57.7925 4.58523 45.5436 0.794621 33.527 3.29411C21.4772 5.79359 11.7013 14.1859 7.40252 25.7398L7.25314 26.1205C7.13696 26.4515 6.90461 27.0475 6.35687 27.2295C6.25727 27.2627 6.1411 27.2958 6.00834 27.2958ZM29.2117 3.16168C20.2158 5.87635 13.3279 11.4547 8.63074 19.8635C7.76767 21.4029 7.07056 23.0748 6.39008 24.697L5.95852 25.7232C5.95852 25.7232 5.95852 25.8391 5.97514 25.9219C6.00834 25.8557 6.02492 25.7895 6.07474 25.6901L6.22412 25.3094C10.1909 14.6825 18.6224 6.63777 29.2117 3.16168ZM40.8299 1.30776C50.7054 1.30776 60.1991 5.28043 67.2365 12.5803C67.3031 12.6465 67.3694 12.7292 67.4356 12.812C67.5023 12.8947 67.6347 13.0437 67.6845 13.0768C67.7178 13.0768 67.7676 13.1099 67.8174 13.1099C67.8174 13.0437 67.8009 12.9775 67.7845 12.9113C67.7676 12.8782 67.6516 12.7789 67.5849 12.7127L67.4027 12.5306C60.3485 5.34666 50.224 1.35742 44.2822 1.24155C43.054 1.225 41.8423 1.24155 40.6639 1.29121H40.8133L40.8299 1.30776Z" fill="#FE725B"/>
<path d="M21.4585 60.468C20.9274 60.0209 20.1307 59.6569 19.9149 59.0609C19.6825 58.4649 19.7489 57.4222 20.1473 56.9751C21.7572 55.1707 23.5 53.4827 25.2593 51.8271C26.0394 51.0822 27.251 51.2311 27.9813 51.9929C28.6618 52.688 28.8112 53.9129 28.1141 54.6413C26.4211 56.4124 24.6784 58.1338 22.9024 59.8387C22.6037 60.12 22.1058 60.2031 21.4585 60.468Z" fill="#FEEAE7"/>
<path d="M15.7681 53.9948C15.8843 53.7632 16.0502 53.2499 16.3822 52.9023C17.3117 51.8926 18.2909 50.9161 19.3033 49.9726C20.2162 49.1117 21.3614 49.1286 22.1913 49.9397C23.0212 50.7339 23.071 51.9095 22.2411 52.8032C21.2453 53.8623 20.2162 54.8721 19.154 55.8655C18.5233 56.4615 17.7266 56.5441 16.9299 56.1801C16.1333 55.7992 15.7515 55.1534 15.7681 53.9948Z" fill="#FEEAE7"/>
</g>
</g>
<defs>
<clipPath id="clip0_6688_15842">
<rect width="80" height="80" fill="white"/>
</clipPath>
</defs>
</svg>
