<svg width="70" height="80" viewBox="0 0 70 80" fill="none" xmlns="http://www.w3.org/2000/svg">
<g clip-path="url(#clip0_6682_13147)">
<path d="M22.746 2.06734C22.746 2.06734 19.3893 3.06816 18.1938 4.92214C16.9829 6.77612 18.1938 69.0895 18.1938 69.0895C18.1938 69.0895 8.13904 69.6637 8.13904 67.9574C8.13904 66.2511 7.06613 62.4119 7.06613 60.8368C7.06613 59.2618 7.20407 8.05586 7.20407 8.05586C7.20407 8.05586 7.44931 3.13379 6.14648 2.57595L8.33829 1.91968L22.746 2.08375V2.06734Z" fill="#FEEAE7"/>
<path d="M38.1035 68.0395V69.6638C37.7663 69.6638 37.4291 69.6638 37.0919 69.6638C27.3897 69.6638 20.7376 69.6638 11.0354 69.6638C8.24583 69.6638 6.72842 68.0395 6.71309 65.0698C6.71309 43.7901 6.71309 27.3996 6.71309 6.11987C6.71309 4.01979 5.87009 2.83849 4.36801 2.8713C2.89658 2.90412 2.11489 4.03619 2.11489 6.10346C2.11489 9.33562 2.11489 12.5514 2.11489 15.7835C2.11489 17.4898 2.14554 17.5227 3.6936 17.5391C3.87753 17.5391 4.07679 17.5391 4.33735 17.5391V19.1469C3.75491 19.1469 3.15715 19.2126 2.57471 19.1469C1.40983 18.9993 0.597479 17.9985 0.582152 16.6695C0.566824 12.8631 0.551497 9.07311 0.582152 5.26671C0.612806 2.90412 2.31414 1.26343 4.67455 1.26343C14.2848 1.26343 23.8951 1.26343 33.5053 1.26343C40.0194 1.26343 46.5335 1.26343 53.0477 1.26343C55.73 1.26343 57.2933 2.90412 57.2933 5.7261C57.2933 8.8106 57.2933 41.2142 57.2933 44.3643H55.7606C55.7606 42.9041 55.7606 12.1248 55.7606 10.681C55.7606 9.02389 55.7606 7.35038 55.7606 5.69329C55.7606 3.8229 54.8563 2.90412 53.0936 2.88771C49.3844 2.88771 45.6905 2.88771 41.9813 2.88771C30.8996 2.88771 19.818 2.88771 8.75163 2.88771H7.55609C8.52172 4.57762 8.24583 6.36597 8.24583 8.08869C8.24583 28.6301 8.24583 44.2659 8.24583 64.8073C8.24583 67.2848 8.99687 68.0723 11.3573 68.0723C20.9062 68.0723 27.3897 68.0723 36.9386 68.0723H38.1035V68.0395Z" fill="#FE725B"/>
<path d="M27.8647 70.2872H11.0353C7.92386 70.2872 6.14589 68.384 6.14589 65.0698V6.11984C6.14589 5.10262 5.93131 4.33149 5.51747 3.90491C5.24158 3.60959 4.88905 3.42911 4.38324 3.47833C3.26435 3.49474 2.68191 4.38071 2.68191 6.10344V15.7835C2.68191 16.1937 2.68191 16.7515 2.74322 16.8828C2.81986 16.9156 3.32566 16.9156 3.69351 16.9156H4.13801H4.33726C4.65914 16.9156 4.90437 17.1945 4.90437 17.5226V19.1305C4.90437 19.4751 4.64381 19.7376 4.33726 19.7376C4.16866 19.7376 3.98473 19.7376 3.81613 19.7376C3.38697 19.7376 2.9578 19.7704 2.51331 19.7047C1.05721 19.5243 0.030278 18.2609 0.0149506 16.6203C-0.000376702 12.8467 -0.000376703 9.04027 0.030278 5.23387C0.0456053 2.55955 2.00751 0.623535 4.68979 0.623535C11.8936 0.623535 19.0975 0.623535 26.3167 0.623535H53.0629C56.0671 0.623535 57.8757 2.52673 57.8757 5.69326C57.8757 8.20352 57.8757 30.1888 57.8757 39.9509V44.3479C57.8757 44.6924 57.6151 44.955 57.3086 44.955H55.7758C55.454 44.955 55.2087 44.676 55.2087 44.3479V9.08949C55.2087 7.94101 55.2087 6.80893 55.2087 5.66045C55.2087 4.13461 54.565 3.47833 53.1089 3.47833C50.4113 3.47833 47.729 3.47833 45.0314 3.47833H8.47565C8.90481 4.70885 8.87416 5.93937 8.8435 7.13707C8.8435 7.4488 8.82818 7.76053 8.82818 8.07226C8.82818 24.069 8.82818 37.0961 8.82818 51.7802V64.7745C8.82818 66.9074 9.31865 67.416 11.3572 67.416H27.8647H38.1034C38.4253 67.416 38.6705 67.6949 38.6705 68.023V69.6473C38.6705 69.9919 38.41 70.2544 38.1034 70.2544H27.8647V70.2872ZM4.42923 2.24782C5.18027 2.24782 5.83934 2.51033 6.32982 3.01894C6.97357 3.69162 7.29544 4.72526 7.29544 6.10344V65.0698C7.29544 67.7113 8.55228 69.0567 11.0353 69.0567H27.8647H37.5363V68.6465H11.3572C8.6749 68.6465 7.67863 67.5965 7.67863 64.7745V51.7802C7.67863 37.0961 7.67863 24.069 7.67863 8.07226C7.67863 7.74413 7.67863 7.41599 7.69395 7.10426C7.73993 5.72608 7.77059 4.41353 7.06553 3.19942C6.95824 3.00253 6.95824 2.77284 7.06553 2.57596C7.17282 2.37907 7.35675 2.26422 7.57133 2.26422H45.016C47.7137 2.26422 50.3959 2.26422 53.0936 2.26422C55.1627 2.26422 56.3276 3.47833 56.343 5.67686C56.343 6.82534 56.343 7.97382 56.343 9.1059V43.7244H56.7261V39.9509C56.7261 30.1888 56.7261 8.21993 56.7261 5.70967C56.7261 3.23223 55.4233 1.85405 53.0476 1.85405H26.3014C19.0975 1.85405 11.8936 1.85405 4.67446 1.85405C2.63593 1.85405 1.19516 3.24864 1.1645 5.25028C1.13385 9.04027 1.13385 12.8467 1.1645 16.6367C1.1645 17.6375 1.76227 18.3922 2.65125 18.507C3.01911 18.5563 3.40229 18.5399 3.77015 18.5235V18.1297H3.69351C1.82358 18.1133 1.54769 17.8015 1.54769 15.7671V6.10344C1.54769 3.69162 2.57462 2.28063 4.36792 2.24782H4.42923Z" fill="#FE725B"/>
<path d="M13.6562 12.5675V11.0581H31.9724V12.5675H13.6562Z" fill="#FE725B"/>
<path d="M31.9722 13.1747H13.656C13.3341 13.1747 13.0889 12.8958 13.0889 12.5677V11.0582C13.0889 10.7137 13.3494 10.4512 13.656 10.4512H31.9722C32.294 10.4512 32.5393 10.7301 32.5393 11.0582V12.5677C32.5393 12.9122 32.2787 13.1747 31.9722 13.1747ZM14.2384 11.9442H31.405V11.6653H14.2231V11.9442H14.2384Z" fill="#FE725B"/>
<path d="M31.9724 19.2288V20.7382H13.6562V19.2288H31.9724Z" fill="#FE725B"/>
<path d="M31.9722 21.3454H13.656C13.3341 21.3454 13.0889 21.0665 13.0889 20.7383V19.2289C13.0889 18.8843 13.3494 18.6218 13.656 18.6218H31.9722C32.294 18.6218 32.5393 18.9007 32.5393 19.2289V20.7383C32.5393 21.0829 32.2787 21.3454 31.9722 21.3454ZM14.2384 20.1149H31.405V19.8359H14.2231V20.1149H14.2384Z" fill="#FE725B"/>
<path d="M31.9724 32.2559V33.7653H13.6562V32.2559H31.9724Z" fill="#FE725B"/>
<path d="M31.9722 34.3888H13.656C13.3341 34.3888 13.0889 34.1099 13.0889 33.7818V32.2723C13.0889 31.9278 13.3494 31.6653 13.656 31.6653H31.9722C32.294 31.6653 32.5393 31.9442 32.5393 32.2723V33.7818C32.5393 34.1263 32.2787 34.3888 31.9722 34.3888ZM14.2384 33.1583H31.405V32.8794H14.2231V33.1583H14.2384Z" fill="#FE725B"/>
<path d="M31.9724 55.0779V56.5873H13.6562V55.0779H31.9724Z" fill="#FE725B"/>
<path d="M31.9722 57.1945H13.656C13.3341 57.1945 13.0889 56.9156 13.0889 56.5874V55.078C13.0889 54.7335 13.3494 54.4709 13.656 54.4709H31.9722C32.294 54.4709 32.5393 54.7499 32.5393 55.078V56.5874C32.5393 56.932 32.2787 57.1945 31.9722 57.1945ZM14.2384 55.964H31.405V55.6851H14.2384V55.964Z" fill="#FE725B"/>
<path d="M31.3903 25.6769C31.8655 25.1847 32.1567 24.873 32.5092 24.4956C33.2909 25.4472 34.0266 26.3496 34.8083 27.3176C36.8775 25.1026 38.7015 23.1502 40.6327 21.0994C41.0466 21.608 41.3225 21.9689 41.6137 22.3135C41.7056 22.3955 41.7976 22.4611 41.8742 22.5432C41.1998 23.1502 40.4948 23.7245 39.851 24.3807C38.5022 25.7753 37.1687 27.1863 35.8506 28.6301C35.3141 29.2044 34.8543 29.2208 34.3025 28.6301C33.3829 27.6457 32.4173 26.7105 31.375 25.6769H31.3903Z" fill="#FE725B"/>
<path d="M35.0686 29.6802C34.6701 29.6802 34.2869 29.4834 33.9037 29.0732C33.2753 28.4005 32.6162 27.7442 31.9265 27.0551L30.9915 26.1199C30.8843 26.0051 30.8076 25.841 30.8076 25.677C30.8076 25.5129 30.8689 25.3488 30.9762 25.234L32.0951 24.0527C32.2024 23.9378 32.3404 23.8394 32.5243 23.8722C32.6776 23.8722 32.8308 23.9542 32.9381 24.0855L34.8387 26.4153L40.2186 20.6564C40.3259 20.5416 40.4792 20.4596 40.6478 20.476C40.801 20.476 40.9543 20.558 41.0616 20.6893L42.2265 22.051C42.3644 22.1659 42.4411 22.3464 42.4411 22.5268C42.4411 22.7073 42.3644 22.8878 42.2418 23.0026L41.5981 23.5605C41.1382 23.9706 40.6784 24.3644 40.2493 24.8074C38.9005 26.202 37.5823 27.613 36.2642 29.0404C35.881 29.4669 35.4978 29.6638 35.0839 29.6638L35.0686 29.6802ZM32.2024 25.6605L32.6929 26.1528C33.3826 26.8418 34.057 27.5145 34.7008 28.1872C34.9153 28.4169 35.038 28.4333 35.0686 28.4333C35.0686 28.4333 35.2066 28.4169 35.4365 28.1708C36.7546 26.7434 38.0881 25.316 39.4369 23.9214C39.8814 23.462 40.3719 23.0354 40.8624 22.6089L40.985 22.494L40.5711 21.9854L35.1912 27.7442C35.0839 27.8591 34.9767 27.9739 34.7621 27.9247C34.6088 27.9247 34.4555 27.8427 34.3482 27.7114L32.4476 25.3816L32.1871 25.6605H32.2024Z" fill="#FE725B"/>
<path d="M31.4206 40.1148C31.8651 39.7047 32.187 39.4093 32.6161 39.0156C33.3365 39.8851 34.0876 40.8039 34.9152 41.8047C36.9384 39.639 38.7624 37.6702 40.663 35.6357C41.0768 36.0787 41.3834 36.4069 41.7666 36.817C40.5404 38.1132 39.3602 39.3601 38.1953 40.5906C37.3829 41.4602 36.5706 42.3133 35.7582 43.1829C35.3597 43.6095 34.9459 43.7407 34.5014 43.2978C33.4898 42.2641 32.4935 41.2305 31.4053 40.0984L31.4206 40.1148Z" fill="#FE725B"/>
<path d="M35.0533 44.2003C34.7161 44.2003 34.3942 44.0526 34.103 43.7573C33.3673 43.019 32.6469 42.2642 31.8805 41.4767L31.0069 40.5579C30.8842 40.4431 30.8229 40.279 30.8383 40.0985C30.8383 39.9181 30.9149 39.7704 31.0375 39.6556L32.233 38.5563C32.4783 38.343 32.8308 38.3594 33.0301 38.6219L34.9307 40.9189L40.2492 35.2093C40.3565 35.0944 40.5098 35.0288 40.6478 35.0288C40.801 35.0288 40.939 35.0944 41.0463 35.2093L42.1498 36.407C42.2571 36.5218 42.3184 36.6859 42.3184 36.85C42.3184 37.014 42.2571 37.1617 42.1498 37.2766L38.1341 41.5259C37.475 42.2314 36.8006 42.9369 36.1415 43.6424C35.789 44.0198 35.4058 44.2167 35.0379 44.2167L35.0533 44.2003ZM32.2637 40.1478L32.6929 40.5907C33.4439 41.3783 34.1643 42.133 34.9 42.8713C35.0226 43.0026 35.0839 43.0518 35.3598 42.7729C36.0189 42.0674 36.6933 41.3619 37.3524 40.6564L40.9543 36.8336L40.6631 36.5218L35.3138 42.2478C35.2065 42.3627 35.0686 42.4939 34.8847 42.4283C34.7314 42.4283 34.5781 42.3463 34.4708 42.215L32.5396 39.8852L32.2484 40.1478H32.2637Z" fill="#FE725B"/>
<path d="M46.917 64.0691C47.5607 63.4784 48.0512 63.0354 48.6643 62.4612C49.7219 63.7409 50.8255 65.0699 52.0363 66.5465C54.9945 63.3636 57.6768 60.4924 60.451 57.5227C61.0488 58.1626 61.4933 58.6384 62.0757 59.2618C60.2671 61.165 58.5504 62.9862 56.8491 64.791C55.6536 66.0543 54.458 67.3176 53.2778 68.5809C52.6954 69.2044 52.0823 69.4013 51.4386 68.745C49.9518 67.2356 48.4957 65.7097 46.917 64.0691Z" fill="#FE725B"/>
<path d="M52.2507 69.7622C51.8369 69.7622 51.423 69.5653 51.0398 69.188C49.9976 68.1215 48.9553 67.0387 47.8671 65.923L46.5029 64.512C46.3803 64.3972 46.319 64.2331 46.3343 64.0526C46.3343 63.8721 46.411 63.7245 46.5336 63.6096L48.2809 62.0018C48.5262 61.7885 48.8787 61.8049 49.0779 62.0674L52.0514 65.6605L60.037 57.0961C60.2516 56.8664 60.6348 56.8664 60.8493 57.0961L62.474 58.8352C62.5813 58.9501 62.6426 59.1141 62.6426 59.2618C62.6426 59.4259 62.5813 59.59 62.474 59.6884L56.527 65.9722C55.5767 66.9895 54.6264 67.9903 53.6761 69.0075C53.2163 69.4997 52.7259 69.7622 52.2507 69.7622ZM47.7598 64.0854L48.6794 65.037C49.7523 66.1527 50.7946 67.2356 51.8369 68.302C52.0974 68.5645 52.3427 68.7286 52.8791 68.1543C53.8294 67.1371 54.7797 66.1199 55.7453 65.1191L61.2785 59.2618L60.4662 58.3922L52.45 66.9895C52.3427 67.1043 52.1741 67.2192 52.0208 67.1699C51.8675 67.1699 51.7142 67.0879 51.607 66.973L48.6028 63.3471L47.7598 64.1183V64.0854Z" fill="#FE725B"/>
<path d="M13.6562 27.2191V25.7261H22.7607V27.2191H13.6562Z" fill="#FE725B"/>
<path d="M22.7604 27.8426H13.656C13.3341 27.8426 13.0889 27.5637 13.0889 27.2356V25.7426C13.0889 25.398 13.3494 25.1355 13.656 25.1355H22.7604C23.0823 25.1355 23.3275 25.4144 23.3275 25.7426V27.2356C23.3275 27.5801 23.067 27.8426 22.7604 27.8426ZM14.2231 26.6121H22.1933V26.3496H14.2231V26.6121Z" fill="#FE725B"/>
<path d="M13.6562 40.279V38.7695H22.776V40.279H13.6562Z" fill="#FE725B"/>
<path d="M22.7758 40.8861H13.656C13.3341 40.8861 13.0889 40.6072 13.0889 40.2791V38.7697C13.0889 38.4251 13.3494 38.1626 13.656 38.1626H22.7758C23.0976 38.1626 23.3429 38.4415 23.3429 38.7697V40.2791C23.3429 40.6236 23.0823 40.8861 22.7758 40.8861ZM14.2384 39.6556H22.2086V39.3767H14.2384V39.6556Z" fill="#FE725B"/>
<path d="M54.5349 79.2783C46.3194 79.2783 39.6367 72.1741 39.6367 63.4457C39.6367 54.7172 46.3194 47.613 54.5349 47.613C62.7504 47.613 69.4331 54.7172 69.4331 63.4457C69.4331 72.1741 62.7504 79.2783 54.5349 79.2783ZM54.5349 49.4014C47.2391 49.4014 41.3074 55.7016 41.3074 63.4621C41.3074 71.2226 47.2391 77.5228 54.5349 77.5228C61.8307 77.5228 67.7624 71.2226 67.7624 63.4621C67.7624 55.7016 61.8307 49.4014 54.5349 49.4014Z" fill="#FE725B"/>
<path d="M54.5346 79.8853C46.0126 79.8853 39.0693 72.5022 39.0693 63.4456C39.0693 54.389 46.0126 47.0059 54.5346 47.0059C63.0566 47.0059 69.9999 54.389 69.9999 63.4456C69.9999 72.5022 63.0566 79.8853 54.5346 79.8853ZM54.5346 48.2364C46.641 48.2364 40.2189 55.0616 40.2189 63.4456C40.2189 71.8295 46.641 78.6548 54.5346 78.6548C62.4282 78.6548 68.8504 71.8295 68.8504 63.4456C68.8504 55.0616 62.4282 48.2364 54.5346 48.2364ZM54.5346 78.1133C46.9323 78.1133 40.74 71.5342 40.74 63.4456C40.74 55.357 46.9323 48.7778 54.5346 48.7778C62.137 48.7778 68.3292 55.357 68.3292 63.4456C68.3292 71.5342 62.137 78.1133 54.5346 78.1133ZM54.5346 50.0083C47.5607 50.0083 41.8896 56.0296 41.8896 63.4456C41.8896 70.8615 47.5607 76.8828 54.5346 76.8828C61.5086 76.8828 67.1797 70.8615 67.1797 63.4456C67.1797 56.0296 61.5086 50.0083 54.5346 50.0083Z" fill="#FE725B"/>
</g>
<defs>
<clipPath id="clip0_6682_13147">
<rect width="70" height="80" fill="white"/>
</clipPath>
</defs>
</svg>
