<svg width="80" height="60" viewBox="0 0 80 60" fill="none" xmlns="http://www.w3.org/2000/svg">
<g clip-path="url(#clip0_6682_13124)">
<path d="M13.6141 16.7415C13.6141 16.7415 8.54098 18.6657 8.20096 21.6432C7.86094 24.6207 8.20096 50.66 8.20096 50.66C8.20096 50.66 1.75417 50.0561 1.23734 45.6881C0.720507 41.3201 1.12853 30.9128 1.12853 30.9128C1.12853 30.9128 1.01972 21.4746 1.53656 19.9859C2.05339 18.4971 4.65114 15.8145 13.6005 16.7555L13.6141 16.7415Z" fill="#FEEAE7"/>
<path d="M33.8522 15.927C42.7471 15.927 51.6421 15.927 60.5234 15.927C64.59 15.927 67.1334 18.5534 67.1334 22.7809C67.1334 29.9158 67.1334 37.0506 67.1334 44.1854C67.1334 48.3989 64.59 51.0253 60.5098 51.0253C54.3078 51.0253 48.1059 51.0253 41.9039 51.0253C41.2374 51.0253 40.8158 51.2219 40.4078 51.7837C38.8981 53.9326 37.334 56.0534 35.7835 58.1742C34.5186 59.9158 33.145 59.9158 31.8801 58.1882C30.3296 56.0674 28.7655 53.9467 27.2558 51.7978C26.8614 51.25 26.4534 51.0253 25.7733 51.0253C19.5441 51.0534 13.315 51.0394 7.0858 51.0394C3.07355 51.0394 0.516602 48.3849 0.516602 44.2276C0.516602 37.0646 0.516602 29.9017 0.516602 22.7388C0.516602 18.5815 3.07355 15.941 7.0994 15.941C16.0215 15.941 24.9437 15.941 33.8658 15.941L33.8522 15.927ZM33.9066 17.3315C24.9573 17.3315 16.0079 17.3315 7.05859 17.3315C3.8352 17.3315 1.87668 19.354 1.87668 22.6826C1.87668 29.8736 1.87668 37.0787 1.87668 44.2697C1.87668 47.5983 3.8352 49.6208 7.05859 49.6349C13.315 49.6349 19.5713 49.6489 25.8413 49.6208C26.9022 49.6208 27.6638 49.986 28.2895 50.8708C29.84 53.0618 31.4313 55.2247 33.0226 57.4017C33.6482 58.2585 34.029 58.2725 34.6547 57.4017C36.2323 55.2247 37.8372 53.0618 39.3877 50.8708C40.0134 49.986 40.775 49.6068 41.8359 49.6208C48.0923 49.6489 54.3486 49.6349 60.6186 49.6349C63.842 49.6349 65.8005 47.5983 65.8005 44.2837C65.8005 37.1208 65.8005 29.9579 65.8005 22.7809C65.8005 19.3259 63.8692 17.3455 60.5234 17.3455C51.6557 17.3455 42.7879 17.3455 33.9338 17.3455L33.9066 17.3315Z" fill="#FE725B"/>
<path d="M33.8252 59.9999C32.9956 59.9999 32.1931 59.4943 31.4723 58.4971L30.7106 57.4437C29.405 55.6741 28.1129 53.8904 26.848 52.0926C26.5488 51.6713 26.2904 51.5308 25.7871 51.5308C20.442 51.5589 15.0969 51.5449 9.76539 51.5449H7.09963C2.77457 51.5449 0 48.6656 0 44.2134C0 37.0505 0 29.8876 0 22.7246C0 18.2724 2.78817 15.4072 7.08602 15.4072H40.5168H60.5236C64.8487 15.4072 67.6369 18.3005 67.6369 22.7949C67.6369 29.9297 67.6369 37.0645 67.6369 44.1994C67.6369 48.6657 64.8351 51.5589 60.4964 51.5589H57.7355C52.4583 51.5589 47.1676 51.5589 41.8905 51.5589C41.3737 51.5589 41.1153 51.6994 40.8296 52.0926C39.728 53.6516 38.5991 55.1966 37.4702 56.7415L36.1918 58.4831C35.4573 59.4943 34.6685 59.9999 33.8252 59.9999ZM25.7735 50.4915C26.5896 50.4915 27.1744 50.8005 27.6505 51.4746C28.9153 53.2724 30.221 55.0421 31.5131 56.8117L32.2747 57.8651C32.642 58.3567 33.1996 58.9465 33.8116 58.9465C34.4373 58.9465 34.9949 58.3426 35.3621 57.851L36.6406 56.0954C37.7695 54.5505 38.8847 53.0196 39.9864 51.4606C40.4624 50.7864 41.0337 50.4915 41.8769 50.4915H41.8905C47.1812 50.5055 52.4583 50.5055 57.7355 50.4915H60.4964C64.2639 50.4915 66.6168 48.0758 66.6168 44.1853C66.6168 37.0505 66.6168 29.9157 66.6168 22.7808C66.6168 18.8201 64.3319 16.4466 60.5236 16.4466H27.1608H7.08602C3.3458 16.4466 1.02006 18.8482 1.02006 22.7106C1.02006 29.8735 1.02006 37.0364 1.02006 44.1994C1.02006 48.0758 3.3458 50.4774 7.07242 50.4774H9.73818C15.0833 50.4774 20.4148 50.4774 25.7599 50.4774L25.7735 50.4915ZM33.8116 58.5673C33.2812 58.5673 32.9004 58.1319 32.5876 57.7106L31.4451 56.1516C30.2346 54.4943 29.0241 52.851 27.8545 51.1656C27.3376 50.4353 26.7528 50.1263 25.8415 50.1263H25.8143C20.5644 50.1544 15.3281 50.1404 10.0782 50.1404H7.03162C3.52261 50.1404 1.34648 47.8791 1.34648 44.2555C1.34648 37.0645 1.34648 29.8595 1.34648 22.6685C1.34648 19.0449 3.53621 16.7977 7.04522 16.7977H60.4964C64.1142 16.7977 66.2768 19.0308 66.2768 22.7668C66.2768 29.9297 66.2768 37.0926 66.2768 44.2696C66.2768 47.8932 64.1006 50.1544 60.578 50.1544H57.5314C52.2815 50.1544 47.0452 50.1544 41.7953 50.1544C40.9249 50.1544 40.2856 50.4494 39.7688 51.1937C38.5311 52.9494 37.2526 54.6909 35.9878 56.4325L35.0357 57.7387C34.7229 58.16 34.3421 58.5954 33.8116 58.5954V58.5673ZM25.8415 49.087C27.0656 49.087 27.9769 49.5505 28.6841 50.5617C29.8674 52.2331 31.0643 53.8763 32.2747 55.5336L33.4172 57.0926C33.7028 57.4859 33.8252 57.528 33.8388 57.528C33.8388 57.528 33.9476 57.4859 34.2333 57.0926L35.1853 55.7864C36.4502 54.0589 37.7151 52.3173 38.9527 50.5758C39.66 49.5786 40.5576 49.101 41.7953 49.101H41.8225C47.0588 49.1291 52.3087 49.1151 57.5587 49.1151H60.6052C63.5294 49.1151 65.2703 47.3033 65.2839 44.2836C65.2839 37.1207 65.2839 29.9578 65.2839 22.7808C65.2839 19.6207 63.5974 17.8651 60.5236 17.8651H7.05882C4.13465 17.8651 2.38014 19.6628 2.38014 22.6825C2.38014 29.8735 2.38014 37.0786 2.38014 44.2696C2.38014 47.2892 4.12105 49.101 7.04522 49.101H10.0918C15.3417 49.101 20.578 49.101 25.8279 49.101H25.8552L25.8415 49.087Z" fill="#FE725B"/>
<path d="M8.09327 13.2724H6.69238C6.85559 12.4999 6.9372 11.7555 7.18201 11.0673C8.06607 8.58136 10.3238 6.99428 12.976 6.99428C18.1307 6.98023 23.2854 6.99428 28.4401 6.99428C41.1841 6.99428 53.928 6.99428 66.6856 6.99428C70.8882 6.99428 73.3908 9.57855 73.3908 13.9184C73.3908 21.1375 73.3908 28.3707 73.3908 35.5898C73.3908 38.0055 72.3707 39.8454 70.3442 41.2218C70.113 40.8145 69.909 40.4493 69.6506 40.0139C71.6907 38.7078 72.0715 36.6993 72.0443 34.396C71.9763 27.528 72.0171 20.646 72.0171 13.778C72.0171 10.3932 70.0722 8.38473 66.7808 8.38473C48.9637 8.38473 31.1466 8.38473 13.3296 8.38473C10.283 8.38473 8.46049 10.0561 8.07967 13.2724H8.09327Z" fill="#FE725B"/>
<path d="M70.3573 41.7556C70.3573 41.7556 70.2757 41.7556 70.2485 41.7556C70.1125 41.7275 69.9901 41.6292 69.9221 41.5169L69.2285 40.309C69.0925 40.0562 69.1605 39.7472 69.3917 39.5927C71.2142 38.427 71.5678 36.6854 71.5406 34.4242C71.4998 29.6067 71.4998 24.7893 71.5134 19.9579V13.7921C71.5134 10.7023 69.7997 8.93259 66.7939 8.93259H13.3427C10.5409 8.93259 8.94964 10.4214 8.59602 13.3567C8.56882 13.6236 8.35121 13.8202 8.09279 13.8202H6.69191C6.5423 13.8202 6.39269 13.75 6.29748 13.6236C6.20228 13.4972 6.16148 13.3287 6.20228 13.1742C6.25668 12.9354 6.29748 12.6966 6.33829 12.4579C6.43349 11.9382 6.5287 11.4185 6.70551 10.9129C7.65757 8.23034 10.1193 6.50281 12.9755 6.48877C16.6341 6.48877 20.2791 6.48877 23.9377 6.48877H66.6851C71.1326 6.48877 73.9071 9.35394 73.9071 13.9466V35.618C73.9071 38.2023 72.8327 40.1966 70.6429 41.6994C70.5613 41.7556 70.4661 41.7837 70.3573 41.7837V41.7556ZM70.3573 40.1826L70.5205 40.4775C72.1118 39.2275 72.9007 37.6264 72.9007 35.6039V13.9185C72.9007 9.84551 70.6429 7.51405 66.6987 7.51405H23.9377C20.2791 7.51405 16.6341 7.51405 12.9891 7.51405C10.5681 7.51405 8.47361 8.98877 7.67117 11.25C7.52156 11.6714 7.43995 12.1348 7.34475 12.6264C7.34475 12.6685 7.34475 12.6966 7.31755 12.7388H7.65757C8.188 9.5927 10.2009 7.86517 13.3563 7.86517H66.7939C70.3301 7.86517 72.5335 10.1264 72.5335 13.7781V19.9438C72.5335 24.7612 72.5063 29.5787 72.5607 34.3961C72.5743 36.4185 72.3159 38.6517 70.3437 40.1826H70.3573Z" fill="#FE725B"/>
<path d="M76.4224 34.7472C76.1912 34.3399 76.0008 33.9888 75.7696 33.5815C76.8984 32.7669 77.7553 31.7556 78.0001 30.309C78.0817 29.8455 78.1225 29.382 78.1225 28.9185C78.1225 21.6714 78.1225 14.4101 78.1225 7.16292C78.1225 4.00281 76.1232 1.93821 73.0766 1.93821C55.1779 1.93821 37.2793 1.93821 19.3806 1.93821C17.4765 1.93821 15.9804 2.68259 14.8787 4.36798C14.5115 4.15731 14.1443 3.94663 13.7227 3.70787C14.8515 1.76967 16.47 0.78652 18.5645 0.561801C18.755 0.533711 18.959 0.561801 19.163 0.561801C37.1433 0.561801 55.1371 0.561801 73.1174 0.561801C76.4088 0.561801 78.857 2.6545 79.4146 5.91292C79.4826 6.27809 79.4962 6.67135 79.4962 7.05057C79.4962 14.4523 79.4962 21.8539 79.4962 29.2556C79.4962 31.6011 78.4353 33.5112 76.436 34.7893L76.4224 34.7472Z" fill="#FE725B"/>
<path d="M76.4225 35.2669C76.4225 35.2669 76.3409 35.2669 76.3001 35.2528C76.1641 35.2247 76.0553 35.1264 75.9873 35L75.3344 33.8343C75.1984 33.5955 75.2664 33.3006 75.4841 33.132C76.6673 32.2753 77.3066 31.3483 77.5106 30.2107C77.5922 29.7753 77.6194 29.3399 77.6194 28.9185C77.6194 21.6573 77.6194 14.4101 77.6194 7.16292C77.6194 4.3118 75.8377 2.47191 73.0767 2.45786H55.9941C43.7941 2.45786 31.5806 2.45786 19.3807 2.45786C17.5854 2.45786 16.2933 3.16011 15.314 4.66292C15.1644 4.88764 14.8652 4.95786 14.6476 4.83146L13.4915 4.17135C13.3691 4.10112 13.2875 3.98876 13.2467 3.84831C13.2059 3.70786 13.2331 3.56742 13.3011 3.44101C14.4708 1.39045 16.1845 0.266854 18.5102 0.0140449C18.6734 0 18.8502 0 19.0271 0H26.8611C42.2845 0 57.6942 0 73.1175 0C76.6401 0 79.3059 2.27528 79.9179 5.78652C79.9723 6.13764 80.0131 6.5309 80.0131 7.00843C80.0131 14.4101 80.0131 21.8118 80.0131 29.2135C80.0131 31.7556 78.8707 33.8202 76.7081 35.1966C76.6265 35.2528 76.5313 35.2809 76.4361 35.2809L76.4225 35.2669ZM76.4361 33.7219L76.5857 33.9888C78.1498 32.823 78.9659 31.1798 78.9659 29.1994C78.9659 21.7978 78.9659 14.3961 78.9659 6.99438C78.9659 6.57303 78.9387 6.23595 78.8979 5.95506C78.381 2.92135 76.1641 1.03933 73.1039 1.03933C57.6942 1.03933 42.2709 1.03933 26.8611 1.03933H19.1495H19.0135C18.8774 1.03933 18.7414 1.03933 18.6054 1.03933C16.7965 1.23595 15.4364 2.03652 14.43 3.48315L14.7156 3.65169C15.8581 2.12079 17.3814 1.3764 19.3535 1.3764C31.5534 1.3764 43.7669 1.3764 55.9669 1.3764H73.0495C76.3681 1.3764 78.6122 3.69382 78.6122 7.13483C78.6122 14.382 78.6122 21.6433 78.6122 28.8904C78.6122 29.368 78.5714 29.8736 78.4762 30.3792C78.2586 31.6573 77.5786 32.7528 76.4089 33.6938L76.4361 33.7219Z" fill="#FE725B"/>
<path d="M22.7951 26.6013V28.9187H17.0148V32.5845H21.4351V34.8597H17.0148V40.8991H14.2402V26.6013H22.7951Z" fill="#FE725B"/>
<path d="M17.015 41.4186H14.2405C13.9548 41.4186 13.7236 41.1799 13.7236 40.8849V26.5872C13.7236 26.2922 13.9548 26.0535 14.2405 26.0535H22.7954C23.081 26.0535 23.3122 26.2922 23.3122 26.5872V28.9046C23.3122 29.1995 23.081 29.4383 22.7954 29.4383H17.5319V32.0507H21.4489C21.7345 32.0507 21.9657 32.2894 21.9657 32.5844V34.8596C21.9657 35.1546 21.7345 35.3934 21.4489 35.3934H17.5319V40.913C17.5319 41.208 17.3006 41.4467 17.015 41.4467V41.4186ZM14.7437 40.3653H16.4982V34.8456C16.4982 34.5507 16.7294 34.3119 17.015 34.3119H20.9321V33.09H17.015C16.7294 33.09 16.4982 32.8512 16.4982 32.5563V28.8905C16.4982 28.5956 16.7294 28.3568 17.015 28.3568H22.2785V27.0928H14.7437V40.3372V40.3653Z" fill="#FE725B"/>
<path d="M33.2413 38.1741H27.733L26.8217 40.8988H23.9111L28.889 26.573H32.126L37.1039 40.8988H34.1661L33.2549 38.1741H33.2413ZM32.4932 35.8848L30.4939 29.9017L28.4946 35.8848H32.5068H32.4932Z" fill="#FE725B"/>
<path d="M37.0902 41.4185H34.1524C33.9348 41.4185 33.7444 41.2781 33.6764 41.0674L32.8875 38.6938H28.1L27.3112 41.0674C27.2432 41.2781 27.0528 41.4185 26.8352 41.4185H23.9246C23.7614 41.4185 23.5982 41.3342 23.503 41.1938C23.4078 41.0533 23.3806 40.8708 23.435 40.7163L28.4129 26.3904C28.4809 26.1798 28.6713 26.0393 28.8889 26.0393H32.1259C32.3435 26.0393 32.5339 26.1798 32.6019 26.3904L37.5798 40.7163C37.6342 40.8848 37.607 41.0533 37.5118 41.1938C37.4166 41.3342 37.267 41.4185 37.0902 41.4185ZM34.5196 40.3651H36.3693L31.7587 27.0927H29.2425L24.6318 40.3651H26.4543L27.2432 37.9916C27.3112 37.7809 27.5016 37.6404 27.7192 37.6404H33.2275C33.4452 37.6404 33.6356 37.7809 33.7036 37.9916L34.4924 40.3651H34.5196ZM32.4931 36.4045H28.4809C28.3176 36.4045 28.1544 36.3202 28.0592 36.1798C27.964 36.0393 27.9368 35.8567 27.9912 35.7022L29.9905 29.7191C30.0586 29.5084 30.249 29.368 30.4666 29.368C30.6842 29.368 30.8746 29.5084 30.9426 29.7191L32.9419 35.7022C32.9963 35.8567 32.9691 36.0393 32.8739 36.1798C32.7787 36.3202 32.6291 36.4045 32.4523 36.4045H32.4931ZM29.2017 35.3511H31.7723L30.4802 31.5028L29.1881 35.3511H29.2017Z" fill="#FE725B"/>
<path d="M49.2755 43.4131L47.1674 40.8148C46.5826 40.9693 45.9841 41.0395 45.3857 41.0395C44.0936 41.0395 42.8967 40.7305 41.8087 40.0985C40.7206 39.4665 39.8638 38.5957 39.2245 37.4861C38.5853 36.3766 38.2725 35.1125 38.2725 33.708C38.2725 32.3035 38.5853 31.0676 39.2245 29.944C39.8638 28.8344 40.7206 27.9637 41.8087 27.3316C42.8967 26.6996 44.08 26.3906 45.3857 26.3906C46.6914 26.3906 47.8882 26.6996 48.9627 27.3316C50.0372 27.9637 50.894 28.8344 51.5197 29.944C52.1453 31.0535 52.4581 32.3035 52.4581 33.708C52.4581 34.9721 52.1997 36.1378 51.6693 37.1771C51.1524 38.2165 50.4316 39.0732 49.5339 39.7333L52.7029 43.4131H49.2483H49.2755ZM41.6727 36.2221C42.0263 36.9524 42.5295 37.5002 43.1688 37.8934C43.808 38.2867 44.5424 38.4833 45.3857 38.4833C46.2289 38.4833 46.9498 38.2867 47.589 37.8934C48.2283 37.5002 48.7179 36.9524 49.0715 36.2221C49.4251 35.4917 49.6019 34.6631 49.6019 33.708C49.6019 32.753 49.4251 31.9103 49.0715 31.194C48.7179 30.4777 48.2147 29.93 47.589 29.5507C46.9634 29.1715 46.2153 28.9749 45.3857 28.9749C44.556 28.9749 43.808 29.1715 43.1688 29.5507C42.5295 29.93 42.0263 30.4777 41.6727 31.194C41.319 31.9103 41.1422 32.753 41.1422 33.708C41.1422 34.6631 41.319 35.5058 41.6727 36.2221Z" fill="#FE725B"/>
<path d="M52.7168 43.9467H49.2622C49.1125 43.9467 48.9629 43.8765 48.8677 43.7641L46.9636 41.4046C45.1003 41.7978 43.1554 41.4888 41.5505 40.5619C40.3944 39.8877 39.456 38.9467 38.7759 37.7529C38.0959 36.559 37.7559 35.1967 37.7559 33.7079C37.7559 32.2192 38.0959 30.8708 38.7759 29.677C39.456 28.4832 40.3808 27.5422 41.5505 26.868C43.8762 25.5197 46.9092 25.5338 49.2077 26.868C50.3638 27.5422 51.2887 28.4832 51.9551 29.677C52.6216 30.8708 52.9616 32.2192 52.9616 33.7079C52.9616 35.0562 52.676 36.3062 52.1183 37.4158C51.6559 38.3568 51.0303 39.1433 50.2822 39.8034L53.0976 43.0619C53.2336 43.2164 53.2608 43.4411 53.1792 43.6237C53.0976 43.8062 52.9208 43.9326 52.7168 43.9326V43.9467ZM49.507 42.8933H51.5879L49.1669 40.0843C49.0717 39.972 49.0309 39.8175 49.0445 39.677C49.0581 39.5225 49.1397 39.3961 49.2622 39.3119C50.0918 38.7079 50.7582 37.9074 51.2343 36.9523C51.7103 35.9832 51.9551 34.9017 51.9551 33.722C51.9551 32.4298 51.6559 31.2501 51.0847 30.2248C50.5134 29.1995 49.711 28.3849 48.7181 27.809C46.7324 26.6574 44.0802 26.6433 42.0673 27.809C41.0745 28.3849 40.2584 29.1995 39.6736 30.2248C39.0887 31.2501 38.7895 32.4298 38.7895 33.722C38.7895 35.0141 39.0887 36.2079 39.6736 37.2332C40.2584 38.2585 41.0609 39.0731 42.0673 39.6489C43.5362 40.5057 45.3587 40.7444 47.0452 40.3091C47.2356 40.2529 47.4396 40.3231 47.562 40.4776L49.507 42.8933ZM45.3859 39.0169C44.4611 39.0169 43.6314 38.7922 42.9106 38.3568C42.1897 37.9214 41.6185 37.2894 41.2241 36.4748C40.8296 35.6742 40.6256 34.7473 40.6256 33.722C40.6256 32.6967 40.8296 31.7557 41.2241 30.9692C41.6185 30.1686 42.1897 29.5366 42.9242 29.1012C44.3523 28.2444 46.4332 28.2444 47.8477 29.1012C48.5685 29.5366 49.1397 30.1686 49.5342 30.9692C49.9286 31.7557 50.1326 32.6826 50.1326 33.722C50.1326 34.7613 49.9286 35.6883 49.5342 36.4748C49.1397 37.2894 48.5685 37.9214 47.8477 38.3568C47.1404 38.7922 46.3108 39.0169 45.3859 39.0169ZM45.3859 29.5085C44.6515 29.5085 43.985 29.677 43.4274 30.0141C42.8698 30.3512 42.4481 30.8147 42.1353 31.4467C41.8225 32.0928 41.6593 32.8512 41.6593 33.722C41.6593 34.5928 41.8225 35.3512 42.1353 35.9972C42.4481 36.6293 42.8698 37.1068 43.441 37.4579C44.5563 38.1321 46.2292 38.1321 47.3308 37.4579C47.8885 37.1208 48.3101 36.6433 48.6229 35.9972C48.9357 35.3512 49.0989 34.5787 49.0989 33.722C49.0989 32.8652 48.9357 32.0928 48.6229 31.4467C48.3101 30.8147 47.8885 30.3512 47.3308 30.0141C46.7732 29.677 46.1204 29.5085 45.3859 29.5085Z" fill="#FE725B"/>
</g>
<defs>
<clipPath id="clip0_6682_13124">
<rect width="80" height="60" fill="white"/>
</clipPath>
</defs>
</svg>
