<svg width="233" height="247" viewBox="0 0 233 247" fill="none" xmlns="http://www.w3.org/2000/svg">
<g clip-path="url(#clip0_176_4052)">
<path d="M110.109 20.3035L42.3231 25.1161C42.3231 25.1161 35.9075 25.3166 35.9075 31.6333V56.8998L23.6731 55.4459L23.5239 20.1531L36.753 18.3984L110.109 20.3536V20.3035Z" fill="#B3FFAE"/>
<path d="M57.7902 203.887V208.398C56.7458 208.449 55.7511 208.599 54.7564 208.599C38.2948 208.599 31.7797 208.599 15.2683 208.599C6.36605 208.599 1.84033 203.937 1.84033 194.913C1.84033 126.934 1.84033 84.0212 1.84033 16.0423C1.84033 7.21907 6.36605 2.60693 15.1191 2.60693C67.0405 2.60693 119.012 2.60693 170.933 2.60693C179.736 2.60693 184.262 7.16894 184.262 15.9922C184.262 67.979 184.262 84.8233 184.262 136.81V139.918H179.587V136.309C179.587 84.723 179.587 68.2798 179.587 16.694C179.587 9.57527 177.349 7.31933 170.336 7.31933C118.763 7.31933 67.2395 7.31933 15.6662 7.31933C8.65378 7.31933 6.46552 9.57527 6.46552 16.694C6.46552 84.2718 6.46552 126.784 6.46552 194.362C6.46552 201.53 8.80298 203.887 15.9148 203.887C31.8792 203.887 37.9466 203.887 53.911 203.887C55.0548 203.887 56.2484 203.887 57.7404 203.887H57.7902Z" fill="#5FB257"/>
<path d="M32.0779 210.504C27.2538 210.504 22.1313 210.504 15.2681 210.504C5.42092 210.454 0 204.939 0 194.913V16.0422C0 6.1662 5.37118 0.751953 15.1686 0.751953H170.983C180.78 0.751953 186.201 6.1662 186.201 15.9921V139.868C186.201 140.921 185.356 141.773 184.311 141.773H179.636C178.592 141.773 177.746 140.921 177.746 139.868V16.6939C177.746 10.6279 176.354 9.22425 170.386 9.22425H15.7654C9.79744 9.22425 8.40491 10.6279 8.40491 16.6939V194.361C8.40491 200.528 9.8969 201.981 15.9644 202.032H57.79C58.8344 202.032 59.6798 202.884 59.6798 203.937V208.449C59.6798 209.451 58.9338 210.253 57.9392 210.303H56.9942C56.2482 210.404 55.552 210.504 54.806 210.504H46.7492C41.2785 210.504 36.8523 210.504 32.1276 210.504H32.0779ZM15.1686 4.51185C7.50971 4.51185 3.72999 8.27174 3.72999 16.0923V194.913C3.72999 202.984 7.41024 206.694 15.2681 206.744C28.7458 206.744 35.5592 206.744 46.6497 206.744H54.7065C55.1044 206.744 55.5022 206.744 55.9001 206.694V205.792H15.9644C7.80811 205.792 4.67492 202.583 4.67492 194.361V16.6939C4.67492 8.5224 7.65891 5.46435 15.7654 5.46435H170.436C178.542 5.46435 181.526 8.5224 181.526 16.6939V138.013H182.471V15.9921C182.471 8.17148 178.841 4.51185 170.983 4.51185H15.1686Z" fill="#5FB257"/>
<path d="M146.762 196.667H142.237C142.237 195.564 142.237 194.512 142.237 193.459C142.237 174.309 142.237 155.158 142.237 136.008C142.237 126.533 132.688 120.718 124.78 125.33C120.603 127.736 118.812 131.596 118.812 136.409C118.812 158.718 118.812 181.026 118.812 203.335C118.812 204.137 119.011 204.989 118.812 205.691C118.514 206.644 118.066 207.897 117.37 208.198C116.624 208.499 115.232 208.097 114.585 207.496C112.397 205.541 110.408 203.385 108.319 201.28C104.39 197.319 100.56 193.258 96.4822 189.448C90.2158 183.533 79.9211 186.039 77.7328 193.96C76.5392 198.272 78.0312 201.831 81.1147 204.889C92.7025 216.57 104.29 228.251 115.878 239.881C116.574 240.583 117.42 241.084 118.713 242.137C117.072 243.29 115.878 244.142 114.486 245.095C114.138 244.794 113.441 244.142 112.745 243.491C101.207 231.91 89.7185 220.28 78.2301 208.699C71.367 201.781 70.7702 192.607 76.7879 186.39C83.104 179.823 93.349 179.773 100.113 186.39C104.638 190.802 109.015 195.464 114.187 200.678C114.187 198.823 114.187 197.82 114.187 196.818C114.187 176.364 114.138 155.96 114.187 135.506C114.187 128.989 117.271 123.976 122.99 120.968C128.61 118.01 134.329 118.361 139.601 121.921C144.375 125.129 146.812 129.842 146.862 135.657C146.912 144.079 146.862 152.501 146.862 161.525C151.04 157.915 155.516 156.311 160.588 156.913C165.661 157.514 169.391 160.272 172.574 164.483C176.205 159.72 180.681 156.762 186.698 156.813C192.616 156.863 197.092 159.62 200.624 164.533C204.552 159.319 209.327 156.462 215.742 156.813C223.799 157.264 230.861 163.781 230.961 171.952C231.209 195.815 231.06 219.678 231.06 243.791H226.435C226.435 242.588 226.435 241.435 226.435 240.332C226.435 218.224 226.435 196.116 226.435 174.008C226.435 167.24 222.108 162.177 215.991 161.575C208.929 160.923 203.16 165.987 203.06 173.206C202.961 180.976 203.06 188.696 203.06 196.667H198.386C198.386 188.797 198.435 181.076 198.386 173.356C198.336 167.19 193.959 162.277 188.19 161.625C180.979 160.873 175.16 165.987 175.011 173.306C174.911 180.074 175.011 186.842 175.011 193.659C175.011 194.612 175.011 195.564 175.011 196.718H170.485C170.435 195.815 170.336 194.863 170.336 193.91C170.336 187.142 170.336 180.375 170.336 173.557C170.286 166.588 165.263 161.475 158.599 161.525C151.984 161.525 147.011 166.688 146.961 173.657C146.912 180.324 146.961 187.042 146.961 193.71C146.961 194.662 146.862 195.615 146.812 196.718L146.762 196.667Z" fill="#28663D"/>
<path d="M114.486 247C114.038 247 113.591 246.85 113.242 246.499C112.496 245.847 111.999 245.346 111.452 244.844C99.914 233.264 88.4256 221.633 76.9372 210.053C69.3281 202.383 68.7313 192.105 75.4452 185.087C82.5073 177.768 93.946 177.718 101.406 185.087C104.489 188.095 107.473 191.203 110.706 194.512L112.298 196.166V180.024C112.298 165.185 112.298 150.396 112.298 135.557C112.298 128.288 115.729 122.723 122.145 119.364C128.361 116.105 134.777 116.456 140.645 120.417C145.867 123.926 148.652 129.19 148.702 135.657C148.702 141.522 148.702 147.388 148.702 153.454V157.815C152.482 155.459 156.461 154.557 160.787 155.058C165.313 155.559 169.143 157.715 172.574 161.525C176.553 157.063 181.128 154.908 186.549 154.908H186.748C192.318 154.958 196.894 157.113 200.673 161.525C204.901 156.762 209.775 154.607 215.892 154.958C225.142 155.459 232.751 163.079 232.851 171.952C233.05 189.098 233 206.293 232.95 223.538V243.842C232.95 244.894 232.105 245.747 231.06 245.747H226.435C225.391 245.747 224.545 244.894 224.545 243.842V223.789C224.545 207.195 224.545 190.652 224.545 174.058C224.545 168.343 220.965 163.981 215.842 163.53C212.908 163.229 210.172 164.132 208.133 165.987C206.144 167.791 205 170.398 204.95 173.306C204.901 178.67 204.901 184.034 204.95 189.499V196.718C204.95 197.77 204.105 198.623 203.11 198.623H198.435C197.391 198.623 196.546 197.77 196.546 196.718V189.649C196.546 184.185 196.546 178.821 196.546 173.406C196.546 168.193 192.915 164.082 188.041 163.53C185.057 163.229 182.272 164.032 180.183 165.886C178.144 167.691 177 170.348 176.951 173.356C176.901 178.069 176.901 182.831 176.951 187.543V196.718C176.951 197.77 176.105 198.623 175.111 198.623H170.585C169.59 198.623 168.794 197.821 168.745 196.868V195.966C168.645 195.314 168.596 194.612 168.596 193.96V186.441C168.596 182.179 168.596 177.868 168.596 173.607C168.596 167.691 164.418 163.43 158.798 163.43C153.178 163.43 149.05 167.791 149.001 173.707C149.001 177.818 149.001 181.929 149.001 186.09V193.76C149.001 194.412 149.001 195.113 148.901 195.865V196.868C148.802 197.871 148.006 198.673 147.011 198.673H142.486C141.441 198.673 140.596 197.821 140.596 196.768V176.865C140.596 163.28 140.596 149.694 140.596 136.108C140.596 132.198 138.706 128.789 135.523 126.984C132.539 125.229 129.008 125.28 125.974 127.084C122.592 129.04 120.951 132.148 120.951 136.509C120.951 152.852 120.951 169.195 120.951 185.588V203.435V204.037C120.951 204.689 121.051 205.491 120.802 206.343C120.354 207.797 119.708 209.401 118.315 210.003C116.823 210.654 114.685 210.003 113.541 209C111.949 207.596 110.408 206.042 108.916 204.488L103.544 199.024C100.859 196.317 98.223 193.559 95.438 190.952C92.8519 188.496 89.2711 187.594 85.8892 188.546C82.8057 189.398 80.5678 191.604 79.772 194.562C78.8768 197.871 79.772 200.778 82.6566 203.686L117.42 238.678C117.818 239.079 118.266 239.38 118.813 239.831L120.056 240.784C120.504 241.134 120.802 241.736 120.802 242.338C120.802 242.939 120.504 243.491 120.006 243.842L115.779 246.799C115.431 247.05 115.083 247.15 114.685 247.15L114.486 247ZM88.2764 183.332C84.5464 183.332 80.9159 184.786 78.0811 187.694C72.8591 193.158 73.4559 201.229 79.5234 207.346C91.0117 218.976 102.55 230.557 114.038 242.137C114.237 242.338 114.436 242.488 114.585 242.689L115.48 242.087C115.132 241.786 114.784 241.536 114.486 241.235L79.7223 206.243C75.8928 202.383 74.5998 198.121 75.8928 193.459C77.0367 189.248 80.3191 186.04 84.5961 184.786C89.2213 183.483 94.1449 184.686 97.676 188.045C100.511 190.702 103.196 193.459 105.882 196.216L111.253 201.681C112.695 203.134 114.138 204.638 115.679 205.992C115.829 206.142 116.326 206.293 116.575 206.343C116.475 206.293 116.624 205.892 116.923 205.04C116.923 204.889 116.923 204.438 116.923 204.137C116.923 203.836 116.923 203.536 116.923 203.285V185.438C116.923 169.095 116.923 152.752 116.923 136.359C116.923 130.594 119.21 126.332 123.786 123.675C127.963 121.219 132.937 121.169 137.065 123.575C141.391 126.082 143.978 130.694 144.027 135.958C144.027 149.543 144.027 163.129 144.027 176.765V194.762H144.922C144.922 194.361 144.922 194.01 144.922 193.609V185.939C144.922 181.828 144.922 177.667 144.922 173.557C144.972 165.586 150.791 159.57 158.4 159.57H158.45C166.109 159.57 171.928 165.536 171.977 173.456C171.977 177.718 171.977 182.029 171.977 186.34V193.81C171.977 194.111 171.977 194.412 171.977 194.712H172.873V187.443C172.873 182.681 172.873 177.918 172.873 173.156C172.922 169.095 174.514 165.485 177.349 162.929C180.233 160.372 184.013 159.169 188.091 159.62C194.904 160.372 199.878 166.037 199.927 173.206C199.977 178.62 199.927 184.034 199.927 189.499V194.662H200.872V189.298C200.872 183.834 200.872 178.419 200.872 173.055C200.922 169.095 202.514 165.536 205.249 162.979C208.084 160.422 211.814 159.219 215.792 159.57C222.904 160.222 227.927 166.087 227.927 173.857C227.927 190.451 227.927 206.995 227.927 223.588V241.786H228.822V223.388C228.872 206.142 228.922 188.997 228.723 171.852C228.673 164.934 222.606 159.018 215.295 158.567C209.775 158.216 205.547 160.472 201.768 165.536C201.419 165.987 200.673 166.187 200.276 166.288C199.679 166.288 199.132 165.987 198.784 165.536C195.402 160.823 191.473 158.617 186.35 158.567C181.277 158.567 177.349 160.723 173.718 165.536C173.37 165.987 172.823 166.288 172.226 166.288C171.629 166.288 171.082 165.987 170.734 165.536C167.601 161.375 164.169 159.169 160.041 158.718C155.516 158.216 151.636 159.52 147.757 162.879C147.21 163.33 146.414 163.48 145.768 163.129C145.121 162.828 144.674 162.177 144.674 161.425V153.353C144.674 147.288 144.674 141.422 144.674 135.557C144.674 130.343 142.486 126.232 138.258 123.375C133.534 120.166 128.56 119.915 123.537 122.522C118.365 125.229 115.729 129.541 115.729 135.406C115.679 150.195 115.679 165.034 115.729 179.823V200.528C115.729 201.28 115.282 201.981 114.585 202.282C113.889 202.583 113.093 202.383 112.546 201.881L107.722 196.968C104.539 193.66 101.555 190.602 98.5214 187.644C95.4877 184.686 91.708 183.232 87.978 183.232L88.2764 183.332Z" fill="#28663D"/>
<path d="M93.2495 16.4432C114.287 16.4432 135.324 16.4432 156.361 16.4432C163.373 16.4432 165.611 18.6991 165.611 25.7677C165.611 33.9894 165.611 42.2611 165.611 50.4828C165.611 56.0474 162.975 58.8047 157.356 58.8047C114.486 58.8047 71.6156 58.8047 28.7953 58.8047C23.2252 58.8047 20.5894 56.0474 20.5894 50.4326C20.5894 41.9102 20.5894 33.3377 20.5894 24.8152C20.5894 18.9498 23.1257 16.3931 28.9943 16.3931C50.4293 16.3931 71.8643 16.3931 93.2993 16.3931L93.2495 16.4432ZM92.9014 22.1582C72.2621 22.1582 51.6229 22.1582 30.9339 22.1582C27.6017 22.1582 27.1541 22.6094 27.1541 25.8179C27.1541 33.6384 27.1541 41.5092 27.1541 49.3297C27.1541 52.5382 27.7012 53.1398 30.8841 53.1398C72.1627 53.1398 113.491 53.1398 154.77 53.1398C157.356 53.1398 158.499 52.1873 158.45 49.5303C158.35 42.0606 158.45 34.591 158.45 27.1213C158.45 23.7792 156.792 22.1081 153.476 22.1081C133.285 22.1081 113.143 22.1081 92.9512 22.1081L92.9014 22.1582Z" fill="#5FB257"/>
<path d="M165.611 88.5833C165.611 91.541 165.661 94.4487 165.611 97.4065C165.512 101.668 163.075 104.575 158.848 104.776C152.432 105.027 146.016 105.027 139.601 104.776C135.374 104.625 132.937 101.718 132.887 97.4065C132.837 91.4408 132.837 85.4249 132.887 79.4592C132.887 74.8972 135.573 72.0397 140.098 71.9395C146.215 71.8392 152.333 71.8392 158.5 71.9395C162.876 72.0397 165.512 74.797 165.661 79.1585C165.761 82.3168 165.661 85.4249 165.661 88.5833H165.611ZM159.494 88.9342C159.494 86.4276 159.494 83.921 159.494 81.4645C159.494 79.7099 158.798 78.6571 156.958 78.7073C151.835 78.7073 146.713 78.7073 141.59 78.7073C139.8 78.7073 138.954 79.6096 138.954 81.4144C138.954 86.4777 138.954 90.3379 138.954 95.4012C138.954 97.1057 139.75 98.0582 141.391 98.0582C146.613 98.1083 151.835 98.0582 157.008 98.0582C158.649 98.0582 159.494 97.1558 159.494 95.4513C159.494 92.8445 159.494 91.541 159.494 88.9342Z" fill="#5FB257"/>
<path d="M53.314 88.2825C53.314 91.3405 53.3637 94.3484 53.314 97.4065C53.2145 101.668 50.7776 104.625 46.5503 104.776C40.1347 105.027 33.7191 105.027 27.3035 104.776C23.0762 104.625 20.6393 101.718 20.5895 97.4065C20.5398 91.4408 20.5398 85.4249 20.5895 79.4592C20.5895 74.8471 23.2751 72.0397 27.7511 71.9395C33.8683 71.8392 39.9855 71.8392 46.1524 71.9395C50.5289 72.0397 53.1648 74.797 53.314 79.1585C53.4135 82.2165 53.314 85.2244 53.314 88.2825ZM26.8559 89.0846C26.8559 91.4408 26.9057 92.4434 26.8559 94.7996C26.8062 96.8049 27.6019 97.8075 29.641 97.8075C34.5148 97.8075 39.3887 97.8075 44.2625 97.8075C46.0529 97.8075 47.0973 97.0555 47.0476 95.0503C47.0476 90.0371 47.0476 86.4276 47.0476 81.4645C47.0476 79.6598 46.1524 78.8577 44.4117 78.8577C39.4384 78.8577 34.5148 78.8577 29.5415 78.8577C27.6019 78.8577 26.8062 79.76 26.8559 81.6651C26.9057 84.1215 26.8559 86.578 26.8559 89.0344V89.0846Z" fill="#5FB257"/>
<path d="M90.7632 88.5833C90.7632 91.541 90.8129 94.4487 90.7632 97.4065C90.6637 101.668 88.2268 104.575 83.9995 104.776C77.5839 105.027 71.1683 105.027 64.7527 104.776C60.5254 104.625 58.0885 101.718 58.0388 97.4065C57.989 91.4408 57.989 85.4249 58.0388 79.4592C58.0388 74.8972 60.7244 72.0397 65.2501 71.9395C71.3673 71.8392 77.4844 71.8392 83.6514 71.9395C88.0279 72.0397 90.6637 74.797 90.8129 79.2086C90.9124 82.3669 90.8129 85.4751 90.8129 88.6334L90.7632 88.5833ZM85.2925 89.0344C85.2925 86.5278 85.2428 84.0714 85.2925 81.5648C85.3423 79.5595 84.5466 78.5569 82.408 78.5569C77.3352 78.5569 72.2625 78.5569 67.1897 78.5569C65.0511 78.5569 64.2554 79.5094 64.2554 81.5648C64.3051 86.4276 64.3051 90.0371 64.2554 94.95C64.2554 96.9052 65.1009 97.8577 67.0405 97.8577C72.2127 97.8577 77.3352 97.8577 82.5075 97.8577C84.4471 97.8577 85.3423 96.9052 85.2925 94.95C85.2428 92.5437 85.2925 91.4408 85.2925 89.0344Z" fill="#5FB257"/>
<path d="M95.438 88.3826C95.438 85.4248 95.438 82.5171 95.438 79.5593C95.4877 74.7968 98.1236 71.9894 102.749 71.8892C108.766 71.7889 114.834 71.7889 120.852 71.8892C125.377 71.9393 128.113 74.7467 128.162 79.2586C128.262 85.3245 128.262 91.3905 128.162 97.5066C128.113 101.617 125.626 104.525 121.598 104.726C115.083 104.976 108.568 104.976 102.053 104.726C97.9744 104.575 95.5872 101.668 95.4877 97.5066C95.3883 94.4485 95.4877 91.4406 95.4877 88.3826H95.438ZM101.505 88.8839C101.505 91.2902 101.605 92.5435 101.505 95C101.406 97.2058 102.351 98.2084 104.539 98.2084C109.463 98.2084 114.337 98.2084 119.26 98.2084C121.25 98.2084 122.244 97.3562 122.244 95.2506C122.194 90.2876 122.194 86.5277 122.244 81.6148C122.244 79.5593 121.448 78.5567 119.36 78.6068C114.386 78.6068 109.363 78.6068 104.39 78.6068C102.251 78.6068 101.505 79.6095 101.555 81.6649C101.655 84.0712 101.555 86.5277 101.555 88.934L101.505 88.8839Z" fill="#5FB257"/>
<path d="M36.952 109.588C39.9857 109.588 42.9697 109.538 46.0034 109.588C50.5291 109.739 53.2644 112.446 53.3142 116.958C53.4136 123.024 53.4136 129.09 53.3142 135.206C53.2644 139.316 50.8275 142.274 46.7494 142.425C40.2343 142.675 33.7193 142.675 27.2043 142.425C23.1261 142.274 20.6892 139.367 20.5897 135.256C20.4903 129.09 20.4903 122.923 20.5897 116.707C20.6395 112.496 23.3748 109.789 27.6021 109.638C30.6856 109.538 33.8188 109.638 36.952 109.638V109.588ZM47.4954 126.082C47.4954 123.525 47.4954 120.968 47.4954 118.411C47.4954 116.406 46.6997 115.454 44.6606 115.504C39.5878 115.504 34.4653 115.504 29.3925 115.504C27.3037 115.504 26.3588 116.356 26.3588 118.512C26.4085 123.575 26.4085 128.588 26.3588 133.652C26.3588 135.807 27.254 136.76 29.3428 136.76C34.4156 136.76 39.5381 136.76 44.6109 136.76C46.5505 136.76 47.5451 135.907 47.4954 133.852C47.4457 131.295 47.4954 128.739 47.4954 126.182V126.082Z" fill="#5FB257"/>
<path d="M58.0387 125.781C58.0387 122.823 57.989 119.916 58.0387 116.958C58.1382 112.546 60.774 109.739 65.1008 109.639C71.3175 109.538 77.5341 109.538 83.7508 109.639C87.9284 109.739 90.6139 112.546 90.7134 116.757C90.8129 122.924 90.8129 129.09 90.7134 135.306C90.6637 139.417 88.177 142.325 84.0989 142.475C77.5838 142.726 71.0688 142.726 64.5538 142.475C60.5254 142.325 58.1382 139.367 58.0387 135.256C57.989 132.098 58.0387 128.99 58.0387 125.831V125.781ZM74.5004 115.304C71.9143 115.304 69.3281 115.304 66.742 115.304C64.6035 115.304 63.6586 116.206 63.7083 118.362C63.758 123.475 63.758 128.589 63.7083 133.752C63.7083 135.958 64.6532 136.91 66.742 136.91C71.9143 136.91 77.0865 136.91 82.2588 136.91C84.1984 136.91 85.193 136.008 85.193 133.953C85.1433 128.739 85.193 123.525 85.193 118.311C85.193 116.306 84.3476 115.304 82.3085 115.354C79.7224 115.354 77.1362 115.354 74.5501 115.354L74.5004 115.304Z" fill="#5FB257"/>
<path d="M37.1007 147.338C40.1345 147.338 43.1185 147.237 46.1522 147.338C50.5287 147.488 53.264 150.195 53.3138 154.557C53.4132 160.723 53.4132 166.889 53.3138 173.105C53.264 177.066 50.8271 179.973 46.8982 180.124C40.2837 180.374 33.6692 180.374 27.0546 180.124C23.1257 179.973 20.6888 177.066 20.6391 173.105C20.5396 166.839 20.5396 160.572 20.6391 154.306C20.7385 150.245 23.4738 147.538 27.5022 147.388C30.6852 147.237 33.9178 147.388 37.1505 147.388L37.1007 147.338ZM47.5447 163.781C47.5447 161.224 47.5447 158.617 47.5447 156.06C47.5447 154.055 46.6495 153.153 44.6602 153.153C39.4382 153.153 34.2659 153.153 29.044 153.153C27.1541 153.153 26.3086 154.055 26.3086 155.96C26.3086 161.224 26.3086 166.438 26.3086 171.702C26.3086 173.607 27.2536 174.509 29.044 174.509C34.3157 174.509 39.6371 174.509 44.9088 174.509C46.5998 174.509 47.495 173.607 47.495 171.802C47.495 169.145 47.495 166.488 47.495 163.781H47.5447Z" fill="#5FB257"/>
<path d="M90.6637 174.86C89.0722 174.509 87.7792 174.208 86.0882 173.807C86.0882 169.145 86.0882 164.483 86.0882 159.821C86.0882 151.348 86.8342 152.05 78.3796 152.05C74.3015 152.05 70.1736 152.1 66.0955 152.05C63.6088 152.05 62.6142 153.053 62.6142 155.61C62.7136 161.124 62.7136 166.588 62.6142 172.103C62.6142 174.66 63.6586 175.712 66.0955 175.662C69.2784 175.662 72.5111 175.662 75.8929 175.662V180.024C71.6656 180.024 67.3886 180.325 63.211 179.923C60.2767 179.673 58.1382 176.815 58.0885 173.607C57.9393 167.14 57.9393 160.623 58.0885 154.156C58.1879 150.245 60.9233 147.488 64.8024 147.438C71.218 147.288 77.6833 147.288 84.0989 147.438C87.63 147.488 90.5145 149.945 90.614 153.404C90.8626 160.422 90.7134 167.491 90.7134 174.91L90.6637 174.86Z" fill="#5FB257"/>
<path d="M135.573 110.591C137.413 110.19 138.905 109.689 140.347 109.639C146.166 109.538 152.034 109.538 157.853 109.639C162.926 109.689 165.562 112.446 165.562 117.509C165.562 127.636 165.562 137.713 165.562 147.839C165.562 148.491 165.462 149.193 165.413 149.995H160.887C160.887 148.942 160.887 147.889 160.887 146.887C160.887 137.362 160.887 127.837 160.887 118.362C160.887 114.852 160.439 114.401 157.057 114.401C151.786 114.401 146.564 114.401 141.292 114.401C137.91 114.401 137.91 114.401 135.523 110.641L135.573 110.591Z" fill="#5FB257"/>
<path d="M123.438 109.99C122.294 112.847 122.642 115.203 119.807 115.003C114.486 114.652 109.164 115.003 103.793 114.953C101.207 114.953 100.909 115.253 100.958 117.961C101.058 123.074 100.909 128.238 100.909 133.351C100.909 137.512 100.56 137.211 104.589 137.311C105.335 137.311 106.18 137.311 107.076 137.362C107.076 138.815 106.976 140.871 106.976 142.224C98.8695 144.079 94.9406 139.818 95.3385 133.301C95.6866 128.037 95.3385 122.723 95.438 117.409C95.438 112.496 98.1235 109.739 103.047 109.689C108.965 109.639 114.933 109.588 120.901 109.689C122.344 109.689 121.946 109.689 123.438 110.04V109.99Z" fill="#5FB257"/>
<path d="M107.026 180.224C105.186 180.224 103.644 180.375 102.102 180.224C98.0241 179.773 95.5374 177.116 95.4877 173.005C95.3882 166.839 95.3882 160.673 95.4877 154.456C95.5374 150.245 98.2727 147.588 102.5 147.338C103.942 147.288 105.385 147.338 106.976 147.338V152.05C105.981 152.05 104.937 152.05 103.942 152.05C100.56 152.1 100.163 152.551 100.163 156.061C100.163 161.274 100.163 166.438 100.163 171.652C100.163 174.96 100.759 175.512 104.092 175.612C105.036 175.612 105.981 175.712 107.076 175.763V180.224H107.026Z" fill="#5FB257"/>
</g>
<defs>
<clipPath id="clip0_176_4052">
<rect width="233" height="247" fill="white"/>
</clipPath>
</defs>
</svg>
