<svg width="282" height="243" viewBox="0 0 282 243" fill="none" xmlns="http://www.w3.org/2000/svg">
<g clip-path="url(#clip0_176_3949)">
<path d="M186.298 242.201C186.298 233.808 186.148 220.768 186.148 215.872C186.148 207.429 188.851 203.932 188.851 203.932L222.887 167.112C213.777 159.169 206.47 169.96 206.47 169.96L176.137 200.385L172.784 215.523L172.333 242.151H186.348L186.298 242.201Z" fill="#B3FFAE"/>
<path d="M7.60795 192.242C7.60795 192.242 38.5409 215.573 48.0009 220.868C57.4109 226.164 62.7166 233.658 62.7166 233.658L63.2672 242.401L72.9274 242.65C72.9775 240.102 73.2778 235.057 73.2778 233.308C73.2778 228.012 69.6239 224.266 69.6239 224.266C69.6239 224.266 35.9381 200.485 24.9764 195.189C14.0148 189.894 15.9168 182 15.9168 182L16.3172 145.83C3.85396 146.579 6.50678 164.265 6.50678 164.265L7.65801 192.142L7.60795 192.242Z" fill="#B3FFAE"/>
<path d="M63.868 241.102H59.7135C59.6134 240.652 59.4633 240.203 59.4633 239.753C59.4633 234.907 57.1608 231.46 53.2066 228.812C38.7412 219.27 24.3759 209.578 9.8605 200.086C5.05539 196.938 2.80299 192.892 2.9031 187.146C3.10331 177.255 2.9031 167.363 2.95315 157.471C2.95315 150.077 7.90842 144.781 14.7157 144.781C21.3727 144.781 26.4281 150.227 26.4782 157.571C26.4782 165.115 26.5282 172.658 26.4782 180.202C26.4782 182.3 27.1289 183.599 28.9808 184.698C39.492 190.793 49.9531 196.938 60.4143 203.133C62.4665 204.332 64.5186 204.982 66.8211 203.883C70.5751 202.134 71.1757 197.638 67.9723 194.241C64.9191 190.943 61.6156 187.846 58.4622 184.648C53.0064 179.153 52.7061 171.659 57.7615 166.613C62.7167 161.617 70.4249 161.867 75.9308 167.263C84.7902 176.006 93.5996 184.798 102.359 193.641C108.365 199.686 111.318 207.08 111.368 215.573C111.368 223.966 111.368 232.359 111.368 240.952H106.663C106.663 236.006 106.663 231.16 106.663 226.264C106.663 222.817 106.663 219.42 106.663 215.973C106.714 208.329 104.011 201.834 98.6049 196.439C90.1459 187.996 81.6869 179.553 73.2279 171.11C72.4771 170.36 71.6763 169.611 70.7753 169.011C67.4217 166.863 63.3674 167.363 60.8648 170.11C58.262 172.958 58.1619 177.255 60.9649 180.252C64.2183 183.799 67.7221 187.096 71.0756 190.494C73.6784 193.141 75.1299 196.289 74.6795 200.036C73.7785 207.13 66.1704 211.426 59.9137 207.929C48.2013 201.385 36.7391 194.44 25.1768 187.596C22.7742 186.197 21.8733 183.849 21.8733 181.101C21.8733 173.058 21.9734 165.065 21.8733 157.021C21.7732 151.376 16.8179 147.879 12.0628 150.027C9.30991 151.276 7.80831 153.474 7.80831 156.522C7.80831 167.413 7.80831 178.254 7.80831 189.145C7.80831 192.042 9.41002 193.991 11.7625 195.589C26.6283 205.431 41.4942 215.273 56.3099 225.215C62.2162 229.162 64.7689 234.507 64.0181 241.102H63.868Z" fill="#5FB257"/>
<path d="M65.5697 243H58.2619L57.9115 241.551C57.7113 240.852 57.6112 240.352 57.6112 239.803C57.6112 235.856 55.8593 232.859 52.2055 230.411C46.4994 226.614 40.7933 222.867 35.0872 219.07C26.378 213.275 17.6187 207.43 8.85934 201.734C3.40354 198.187 0.95093 193.541 1.05104 187.146C1.2012 180.652 1.15114 174.107 1.15114 167.562C1.15114 164.215 1.15114 160.868 1.15114 157.471C1.15114 149.028 6.90727 142.933 14.7656 142.933C22.4738 142.933 28.3301 149.227 28.3801 157.571C28.3801 165.114 28.4302 172.658 28.3801 180.202C28.3801 181.701 28.7305 182.35 29.9318 183.05C40.4429 189.145 50.9041 195.29 61.3652 201.484C63.2672 202.633 64.6187 202.833 65.9701 202.184C67.1213 201.634 67.8221 200.735 68.0723 199.636C68.3226 198.287 67.772 196.788 66.5707 195.489C64.6187 193.391 62.5164 191.343 60.4642 189.344C59.313 188.245 58.1618 187.096 57.0606 185.947C50.9041 179.752 50.6038 171.059 56.3599 165.264C62.0659 159.519 70.9754 159.819 77.132 165.914C85.9914 174.656 94.8008 183.449 103.56 192.292C109.867 198.637 113.07 206.43 113.12 215.523C113.12 221.518 113.12 227.513 113.12 233.558V242.8H104.661V223.067C104.661 220.719 104.661 218.321 104.661 215.972C104.711 208.828 102.259 202.883 97.1533 197.787L71.7763 172.458C71.1256 171.809 70.3748 171.109 69.624 170.61C67.0713 168.961 64.018 169.261 62.116 171.409C60.1139 173.607 60.1639 176.805 62.2161 179.053C64.4184 181.451 66.7209 183.699 69.0233 185.997C70.1245 187.096 71.2257 188.145 72.3269 189.245C75.5803 192.542 76.9818 196.239 76.4312 200.335C75.9307 204.432 73.428 208.029 69.7241 209.878C66.2204 211.626 62.2662 211.576 58.8625 209.678C49.5026 204.482 40.1927 198.937 31.1831 193.541L24.0755 189.294C22.1735 188.145 19.8711 185.797 19.8711 181.201V177.904C19.8711 170.96 19.9712 164.065 19.8711 157.121C19.8711 154.923 18.87 153.024 17.2683 152.025C15.8668 151.176 14.2651 151.076 12.7134 151.775C10.6112 152.725 9.56009 154.273 9.56009 156.571C9.56009 167.412 9.56009 178.304 9.56009 189.145C9.56009 191.093 10.5111 192.542 12.7134 193.991C27.5793 203.833 42.4451 213.674 57.2608 223.616C63.7678 227.963 66.6208 233.908 65.7699 241.252L65.5697 242.9V243ZM61.3151 239.253H62.116C62.2161 234.108 59.9137 230.011 55.1085 226.814C40.2928 216.872 25.427 207.03 10.6112 197.188C7.35775 195.04 5.80609 192.442 5.80609 189.195C5.80609 178.303 5.80609 167.462 5.80609 156.571C5.80609 152.824 7.75817 149.927 11.2118 148.378C13.9147 147.129 16.8679 147.329 19.3205 148.878C21.9733 150.576 23.575 153.624 23.625 157.071C23.7252 164.015 23.6751 170.96 23.625 177.904V181.201C23.625 183.549 24.3759 185.098 25.9776 186.097L33.0851 190.344C42.0947 195.689 51.3545 201.235 60.6645 206.43C62.9669 207.729 65.6698 207.779 68.0223 206.58C70.575 205.281 72.3269 202.783 72.6772 199.936C73.0276 197.038 72.0265 194.39 69.624 191.942C68.5729 190.843 67.4717 189.794 66.3705 188.695C64.018 186.397 61.6655 184.049 59.4632 181.651C56.0596 177.954 56.0095 172.658 59.3631 168.961C62.5164 165.514 67.5718 164.915 71.6762 167.512C72.7273 168.162 73.6282 169.011 74.4291 169.86L99.8061 195.19C105.562 200.935 108.465 207.979 108.415 216.072C108.415 218.42 108.415 220.769 108.415 223.117V239.153H109.366V233.658C109.366 227.613 109.366 221.618 109.366 215.623C109.366 207.529 106.513 200.585 100.907 194.99C92.148 186.147 83.3386 177.354 74.4792 168.611C69.7741 163.965 63.2672 163.666 59.0127 167.962C54.7081 172.258 55.0084 178.603 59.7134 183.349C60.8146 184.498 61.9658 185.597 63.067 186.697C65.1692 188.745 67.2715 190.843 69.2736 192.991C71.3258 195.14 72.1767 197.837 71.7262 200.385C71.2757 202.633 69.7741 204.532 67.5718 205.581C64.2182 207.18 61.3151 205.881 59.4131 204.732C48.952 198.537 38.4909 192.392 28.0297 186.297C25.6272 184.898 24.5761 183 24.5761 180.152C24.6762 172.608 24.6261 165.114 24.5761 157.571C24.5761 151.276 20.3716 146.68 14.7156 146.68C8.9094 146.68 4.85508 151.126 4.80503 157.521C4.80503 160.868 4.80503 164.215 4.80503 167.562C4.80503 174.107 4.85508 180.652 4.70492 187.196C4.60482 192.242 6.45679 195.739 10.8114 198.537C19.6208 204.282 28.3301 210.077 37.0894 215.923C42.7954 219.719 48.5015 223.516 54.2076 227.263C58.8125 230.311 61.165 234.257 61.3151 239.253Z" fill="#5FB257"/>
<path d="M221.886 241.052H217.481C217.081 234.058 219.834 228.912 225.54 225.115C240.005 215.573 254.371 205.881 268.886 196.389C272.44 194.041 274.092 191.243 273.992 186.946C273.741 177.254 273.942 167.562 273.891 157.87C273.891 152.824 271.088 149.527 266.834 149.527C262.68 149.527 259.827 152.924 259.776 157.97C259.776 165.614 259.726 173.258 259.776 180.901C259.776 184.299 258.475 186.697 255.572 188.395C244.66 194.79 233.799 201.235 222.887 207.579C217.982 210.427 212.426 209.428 209.123 205.331C205.869 201.285 206.119 195.489 209.923 191.393C213.327 187.746 216.981 184.349 220.435 180.751C222.537 178.553 223.238 175.856 222.237 172.908C221.286 170.16 219.333 168.112 216.53 168.112C214.178 168.112 211.175 168.761 209.573 170.31C199.963 179.503 190.553 188.945 181.293 198.537C176.988 202.983 175.086 208.678 174.986 214.873C174.886 222.617 174.986 230.361 174.986 238.054C174.986 239.004 174.986 239.953 174.986 241.102H170.431C170.381 240.352 170.281 239.503 170.281 238.654C170.281 231.11 170.281 223.566 170.281 216.022C170.281 207.18 173.334 199.586 179.641 193.341C188.3 184.698 196.96 176.005 205.669 167.412C211.175 161.967 218.833 161.717 223.838 166.663C228.944 171.759 228.643 179.253 223.037 184.898C220.084 187.896 217.031 190.843 214.078 193.841C211.275 196.688 210.824 199.786 212.726 202.234C214.729 204.832 217.782 205.181 221.386 203.033C231.697 196.988 241.957 190.893 252.319 184.898C254.321 183.749 255.172 182.4 255.122 180.002C254.971 172.558 255.021 165.114 255.122 157.67C255.122 150.327 260.177 144.881 266.834 144.831C273.791 144.831 278.647 150.127 278.647 157.72C278.647 167.812 278.596 177.904 278.647 187.996C278.697 193.191 276.544 196.938 272.29 199.736C258.125 209.078 244.06 218.47 229.945 227.863C223.638 232.059 222.687 233.558 221.936 241.052H221.886Z" fill="#5FB257"/>
<path d="M223.588 242.9H215.679L215.579 241.152C215.179 233.658 218.182 227.713 224.489 223.566C229.794 220.019 235.1 216.522 240.456 212.975C249.566 206.88 258.675 200.835 267.885 194.84C271.038 192.791 272.19 190.593 272.14 186.996C271.989 180.402 271.989 173.807 272.039 167.212C272.039 164.115 272.039 160.968 272.039 157.87C272.039 153.873 270.037 151.425 266.834 151.376C263.731 151.376 261.728 153.973 261.678 157.92C261.678 165.564 261.628 173.158 261.678 180.801C261.678 184.848 260.027 187.895 256.573 189.944C252.068 192.592 247.563 195.239 243.109 197.887C236.702 201.634 230.295 205.431 223.888 209.128C218.282 212.375 211.575 211.276 207.721 206.43C203.817 201.584 204.167 194.84 208.622 190.044C210.574 187.945 212.576 185.947 214.628 183.949C216.18 182.45 217.682 180.901 219.183 179.352C220.885 177.604 221.335 175.656 220.585 173.407C220.234 172.358 219.133 169.91 216.681 169.91C214.378 169.91 212.076 170.61 211.025 171.609C201.965 180.252 192.755 189.494 182.794 199.786C179.04 203.682 177.088 208.728 177.038 214.823C176.988 220.219 176.988 225.664 177.038 231.11V242.95H168.88L168.73 240.452C168.679 239.853 168.629 239.253 168.629 238.604V215.972C168.629 206.63 171.933 198.537 178.54 191.942L188.2 182.25C193.656 176.805 199.062 171.359 204.568 165.964C210.724 159.869 219.684 159.519 225.34 165.214C231.246 171.109 230.896 179.702 224.539 186.097L220.835 189.794C219.083 191.542 217.331 193.291 215.629 195.04C214.178 196.538 212.726 198.836 214.428 201.035C214.929 201.734 216.53 203.782 220.635 201.384L230.946 195.339C237.803 191.293 244.66 187.246 251.568 183.299C253.069 182.45 253.47 181.701 253.47 180.052C253.319 173.357 253.37 166.663 253.42 159.968V157.67C253.47 149.327 259.326 142.982 266.984 142.982H267.084C270.738 142.982 273.991 144.281 276.494 146.729C279.197 149.427 280.749 153.374 280.749 157.77V168.212C280.749 174.806 280.749 181.401 280.749 188.045C280.799 193.791 278.446 198.137 273.541 201.384C264.181 207.529 254.871 213.774 245.511 219.969L231.196 229.511C225.34 233.408 224.739 234.407 223.988 241.351L223.788 243.05L223.588 242.9ZM219.333 239.153H220.234C221.085 232.509 222.637 230.46 228.894 226.264L243.209 216.722C252.569 210.527 261.879 204.282 271.239 198.087C275.043 195.589 276.845 192.342 276.794 187.895C276.744 181.251 276.744 174.656 276.794 168.012V157.62C276.794 154.223 275.693 151.226 273.691 149.227C271.939 147.479 269.337 146.579 266.884 146.579C261.228 146.579 257.073 151.226 257.073 157.57V159.869C257.073 166.513 256.973 173.208 257.073 179.852C257.124 182.85 255.972 184.898 253.32 186.397C246.412 190.393 239.605 194.39 232.748 198.437L222.437 204.482C217.982 207.08 213.928 206.63 211.325 203.183C208.822 199.886 209.423 195.839 212.826 192.342C214.578 190.543 216.33 188.795 218.082 187.046L221.786 183.399C226.691 178.453 226.991 172.208 222.587 167.762C218.332 163.516 211.825 163.815 207.07 168.511C201.614 173.907 196.159 179.352 190.753 184.798L181.093 194.49C175.136 200.435 172.283 207.379 172.283 215.822V238.454C172.283 238.454 172.283 238.854 172.283 239.003H173.234V230.96C173.234 225.514 173.234 220.069 173.234 214.623C173.334 207.529 175.637 201.584 180.042 196.988C190.052 186.646 199.312 177.404 208.372 168.711C210.424 166.713 213.978 166.013 216.58 166.013C219.984 166.013 222.787 168.262 224.038 172.058C225.24 175.656 224.489 179.053 221.786 181.8C220.284 183.399 218.733 184.898 217.131 186.447C215.129 188.395 213.177 190.393 211.275 192.442C208.121 195.839 207.821 200.585 210.524 203.932C213.277 207.379 217.832 208.079 221.886 205.731C228.293 201.984 234.7 198.237 241.056 194.49C245.561 191.842 250.066 189.194 254.571 186.547C256.873 185.198 257.874 183.399 257.824 180.701C257.724 173.058 257.824 165.414 257.824 157.77C257.824 151.725 261.528 147.479 266.734 147.479C272.089 147.479 275.643 151.575 275.693 157.67C275.693 160.768 275.693 163.915 275.693 167.063C275.693 173.607 275.643 180.152 275.793 186.746C275.894 191.642 274.092 195.04 269.837 197.787C260.677 203.782 251.568 209.827 242.458 215.922C237.152 219.469 231.847 223.017 226.491 226.514C221.736 229.661 219.383 233.658 219.233 239.003L219.333 239.153Z" fill="#5FB257"/>
<path d="M89.6455 46.2617C90.7967 42.6647 92.2983 39.2675 94.0502 36.0201C91.4975 35.021 88.9447 34.0218 86.392 32.9727C76.6316 44.9628 71.326 58.8514 70.6252 74.6384H82.6881C82.6881 64.5467 84.9405 55.1044 89.5954 46.2617H89.6455Z" fill="#B3FFAE"/>
<path d="M85.6412 98.1192C84.8404 91.9743 83.9895 85.8793 83.1886 79.7344H70.6753C71.4261 95.5214 76.7317 109.41 86.4421 121.35C89.0949 120.301 91.7477 119.252 94.3505 118.203C90.5965 112.008 87.6934 105.313 85.6412 98.1192Z" fill="#B3FFAE"/>
<path d="M106.163 20.5831C109.266 17.2359 112.62 14.3383 116.224 11.8403C106.313 15.4374 97.604 21.1327 89.7456 29.1261C92.0981 30.0254 94.3505 30.8747 96.6029 31.7739C99.2557 27.7273 102.459 24.0303 106.163 20.5831Z" fill="#B3FFAE"/>
<path d="M106.163 133.29C102.709 129.843 99.6561 126.146 96.9533 122.299C94.6007 123.249 92.2983 124.298 90.0459 125.497C98.4548 134.19 108.265 140.185 119.527 143.582C115.073 140.135 110.618 136.737 106.163 133.29Z" fill="#B3FFAE"/>
<path d="M143.803 152.974H135.044C133.642 152.774 132.291 152.624 130.889 152.424C112.219 150.176 96.4026 142.183 83.9894 128.244C67.5219 109.759 61.4654 87.9773 66.1204 63.6973C70.475 41.2158 83.0384 24.1798 103.01 13.0889C122.33 2.2978 142.902 0.249491 163.774 7.74332C190.953 17.5353 207.321 37.0692 213.077 65.3959C213.627 68.1936 213.878 71.0412 214.278 73.8889V82.9314C214.178 83.2812 214.078 83.6808 214.028 84.0305C213.377 93.0231 211.225 101.716 207.271 109.809C195.959 132.99 177.539 146.979 152.162 151.825C149.409 152.374 146.606 152.574 143.803 152.974ZM104.361 41.7154C97.9042 39.1175 91.6476 36.6695 85.2908 34.1216C75.5304 46.1117 70.2248 60.0003 69.524 75.7873H99.4058C99.606 64.0969 101.208 52.7063 104.361 41.7154ZM174.336 41.7154C177.489 52.6564 179.141 64.0969 179.291 75.7873H209.223C208.472 60.0003 203.166 46.1117 193.456 34.1216C186.999 36.6695 180.742 39.1675 174.386 41.7154H174.336ZM174.336 114.955C180.792 117.503 187.049 120.001 193.406 122.549C203.116 110.559 208.422 96.6701 209.173 80.9331H179.241C179.091 92.6235 177.439 104.014 174.336 114.955ZM69.474 80.8831C70.2248 96.6701 75.5304 110.559 85.2407 122.499C91.6476 119.951 97.9543 117.453 104.361 114.905C101.158 103.914 99.606 92.4736 99.4058 80.8332H69.524L69.474 80.8831ZM174.185 75.7873C174.035 64.4467 172.434 53.4557 169.38 43.0143C160.17 44.1134 151.061 45.2125 141.901 46.2616V75.7873H174.185ZM136.695 46.2616C127.486 45.1625 118.376 44.0634 109.216 43.0143C106.213 53.5057 104.561 64.4467 104.411 75.7374H136.695V46.2616ZM141.851 110.809C151.211 110.858 160.271 112.107 169.28 114.006C172.434 103.065 174.085 92.1239 174.185 80.8831H141.851V110.809ZM136.746 80.8831H104.411C104.561 92.1738 106.163 103.165 109.266 113.906C113.871 113.157 118.376 112.307 122.881 111.758C127.436 111.208 132.041 111.008 136.695 110.609V80.8831H136.746ZM141.901 8.7425V40.8161C150.66 40.6163 159.169 39.717 167.879 37.7187C166.227 34.1216 164.775 30.5745 162.973 27.1773C160.17 21.8317 156.667 16.8858 151.762 13.1389C148.858 10.8907 145.605 9.29205 141.851 8.7425H141.901ZM141.901 147.728C144.754 147.628 148.708 145.98 151.962 143.382C159.97 136.987 164.175 128.194 167.779 118.852C159.219 116.953 150.66 115.904 141.901 115.804V147.728ZM136.746 8.79246C132.141 9.49188 128.387 11.6901 125.083 14.6376C119.477 19.6835 115.873 26.1282 112.87 32.9226C112.169 34.5213 111.619 36.12 110.968 37.8186C119.577 39.767 128.086 40.7162 136.796 40.8661V8.79246H136.746ZM136.746 147.928V116.004C131.79 115.555 115.623 117.453 110.968 119.052C111.669 120.8 112.32 122.599 113.07 124.297C116.074 130.942 119.627 137.237 125.133 142.133C128.437 145.08 132.191 147.278 136.695 147.928H136.746ZM88.5943 30.3247C94.5006 32.6228 100.107 34.7711 105.863 36.9693C109.166 26.8276 114.322 18.3346 121.529 11.0406C108.916 14.2879 98.1044 20.6327 88.5943 30.3747V30.3247ZM172.684 36.6196C178.74 35.0209 184.346 32.8726 189.752 30.025C180.542 20.5828 169.731 14.238 156.717 10.7409C164.275 18.2347 169.48 26.7277 172.684 36.6196ZM189.552 126.695C187.099 124.897 174.986 120.251 172.584 120.301C169.53 129.893 164.325 138.286 156.967 145.73C166.627 144.231 184.446 133.74 189.552 126.695ZM121.379 145.68C114.222 138.336 109.116 129.893 105.913 120.151C99.9564 121.7 94.3504 123.848 88.8446 126.695C98.0043 136.138 108.816 142.432 121.379 145.68Z" fill="#5FB257"/>
<path d="M143.803 154.872L133.442 154.673L130.639 154.323C111.318 151.975 95.1513 143.632 82.5378 129.493C65.6198 110.459 59.4633 88.2273 64.2684 63.3478C68.7231 40.3667 81.4367 22.931 102.109 11.4405C122.28 0.19975 143.252 -1.59877 164.375 5.99498C191.954 15.9368 208.972 35.7705 214.879 64.9964C215.279 66.9948 215.529 68.9931 215.78 70.9915L216.08 73.5893V82.8817C216.08 82.8817 215.98 83.5811 215.93 83.731C215.129 93.6728 212.826 102.565 208.872 110.609C197.36 134.239 178.34 148.728 152.462 153.623C150.51 153.973 148.558 154.223 146.606 154.473L144.003 154.773C144.003 154.773 143.853 154.773 143.753 154.773L143.803 154.872ZM138.898 5.14568C127.035 5.14568 115.323 8.34305 103.911 14.6878C84.2396 25.6288 72.1268 42.2152 67.9223 64.0472C63.3674 87.7277 69.2237 108.91 85.3408 126.995C97.3035 140.434 112.67 148.378 131.089 150.576L135.294 151.126H143.703L146.256 150.776C148.108 150.576 150.01 150.326 151.862 149.976C176.538 145.28 194.607 131.492 205.619 109.01C209.323 101.416 211.525 92.9734 212.176 83.9308C212.176 83.5312 212.276 83.1815 212.376 82.8317V73.8891L212.076 71.4411C211.875 69.5427 211.625 67.6442 211.225 65.7458C205.569 37.8687 189.402 18.9343 163.124 9.4921C155.015 6.59449 146.906 5.09572 138.898 5.09572V5.14568ZM136.695 149.777C136.695 149.777 136.495 149.777 136.445 149.777C131.99 149.127 127.886 147.079 123.882 143.532C117.625 137.936 113.871 130.692 111.369 125.047C110.818 123.848 110.367 122.649 109.917 121.45L109.216 119.751C109.016 119.252 109.016 118.752 109.216 118.253C109.416 117.753 109.817 117.403 110.317 117.253C115.223 115.605 131.59 113.656 136.846 114.156C137.797 114.256 138.547 115.055 138.547 116.004V147.928C138.547 148.478 138.297 148.977 137.897 149.327C137.546 149.627 137.096 149.777 136.645 149.777H136.695ZM113.421 120.251C113.821 121.35 114.272 122.399 114.722 123.448C117.125 128.794 120.628 135.538 126.334 140.684C129.137 143.182 131.84 144.781 134.793 145.58V117.753C129.538 117.753 118.726 119.002 113.421 120.251ZM141.851 149.627C141.35 149.627 140.9 149.427 140.55 149.077C140.199 148.728 139.999 148.228 139.999 147.728V115.805C139.999 115.305 140.199 114.805 140.55 114.456C140.9 114.106 141.25 113.756 141.901 113.906C150.46 113.956 159.069 114.955 168.179 117.004C168.73 117.104 169.18 117.453 169.43 117.953C169.681 118.452 169.731 119.002 169.53 119.502C165.376 130.143 161.021 138.486 153.113 144.781C149.559 147.628 145.255 149.477 141.951 149.527L141.851 149.627ZM143.753 117.753V145.58C145.955 145.031 148.558 143.682 150.76 141.933C157.518 136.538 161.522 129.343 165.226 120.251C157.868 118.752 150.81 117.903 143.803 117.753H143.753ZM156.967 147.578C156.266 147.578 155.616 147.179 155.315 146.579C154.965 145.88 155.065 144.981 155.666 144.431C162.923 137.137 167.879 129.044 170.832 119.751C171.082 119.002 171.783 118.452 172.534 118.452C175.587 118.303 187.9 123.149 190.703 125.197C191.554 125.796 191.704 126.995 191.103 127.795C185.648 135.339 167.278 146.03 157.267 147.578C157.167 147.578 157.067 147.578 156.967 147.578ZM173.885 122.399C171.382 129.643 167.678 136.188 162.723 142.183C171.132 139.035 181.793 132.491 186.699 127.195C183.295 125.497 176.738 123.099 173.885 122.399ZM121.379 147.528C121.379 147.528 121.079 147.528 120.929 147.479C108.115 144.181 96.9031 137.637 87.5432 127.995C87.1427 127.595 86.9425 126.995 87.0426 126.396C87.1427 125.796 87.4931 125.297 88.0437 125.047C93.6997 122.099 99.4058 119.901 105.512 118.353C106.463 118.103 107.464 118.652 107.765 119.601C110.868 129.144 115.773 137.237 122.781 144.381C123.381 144.981 123.481 145.88 123.081 146.629C122.731 147.229 122.13 147.578 121.479 147.578L121.379 147.528ZM92.048 127.195C99.0054 133.89 106.764 138.736 115.573 141.933C110.918 136.088 107.264 129.543 104.711 122.399C100.357 123.648 96.1523 125.197 91.9979 127.195H92.048ZM193.406 124.447C193.406 124.447 192.955 124.447 192.705 124.298L173.635 116.704C172.734 116.354 172.283 115.355 172.534 114.456C175.587 103.665 177.239 92.3739 177.389 80.9333C177.389 79.8842 178.24 79.0848 179.291 79.0848H209.223C209.723 79.0848 210.224 79.2847 210.574 79.6843C210.924 80.034 211.125 80.5336 211.075 81.0832C210.324 97.07 204.868 111.458 194.857 123.748C194.507 124.198 193.956 124.447 193.406 124.447ZM176.588 113.856L192.805 120.301C201.364 109.36 206.169 96.7703 207.17 82.8317H181.093C180.792 93.423 179.291 103.814 176.588 113.856ZM85.2407 124.447C84.6901 124.447 84.1395 124.198 83.7892 123.748C73.7785 111.458 68.3227 97.07 67.5719 81.0332C67.5719 80.5336 67.7221 80.034 68.0724 79.6344C68.4228 79.2847 68.9234 79.0349 69.4239 79.0349H99.3057C100.307 79.0349 101.158 79.8342 101.208 80.8833C101.458 92.7736 103.11 104.064 106.113 114.456C106.363 115.405 105.913 116.354 105.012 116.704L85.8914 124.298C85.8914 124.298 85.4409 124.447 85.1907 124.447H85.2407ZM71.4761 82.8317C72.4771 96.8202 77.3323 109.41 85.8914 120.351L102.109 113.906C99.4558 104.214 97.9042 93.7727 97.5538 82.8317H71.4761ZM169.33 116.004C169.33 116.004 169.08 116.004 168.93 116.004C159.219 113.906 150.36 112.907 141.851 112.857C140.8 112.857 139.999 112.008 139.999 110.959V81.0332C139.999 79.9841 140.85 79.1348 141.901 79.1348H174.235C174.736 79.1348 175.236 79.3346 175.587 79.6843C175.937 80.034 176.137 80.5336 176.137 81.0332C176.037 92.3739 174.386 103.365 171.182 114.656C170.932 115.455 170.181 116.004 169.38 116.004H169.33ZM143.753 109.06C151.411 109.21 159.37 110.159 167.979 111.908C170.632 102.166 172.033 92.6736 172.283 82.8817H143.753V109.06ZM109.316 115.855C108.465 115.855 107.765 115.305 107.514 114.506C104.361 103.615 102.709 92.3739 102.559 80.9833C102.559 80.4837 102.759 79.9841 103.11 79.6344C103.46 79.2847 103.961 79.0848 104.461 79.0848H136.796C137.847 79.0848 138.698 79.9341 138.698 80.9833V110.709C138.698 111.708 137.947 112.507 136.996 112.557L132.691 112.857C129.538 113.057 126.384 113.307 123.231 113.656C120.128 114.006 117.025 114.556 113.921 115.055L109.667 115.755C109.667 115.755 109.466 115.755 109.366 115.755L109.316 115.855ZM106.363 82.8317C106.613 92.6237 108.065 102.366 110.668 111.858L113.22 111.458C116.424 110.909 119.527 110.409 122.731 110.009C125.934 109.61 129.137 109.41 132.391 109.16L134.894 108.96V82.8317H106.363ZM174.185 77.7359H141.901C140.85 77.7359 139.999 76.8866 139.999 75.8375V46.3118C139.999 45.3626 140.7 44.5632 141.651 44.4633L169.13 41.216C170.031 41.1161 170.882 41.6656 171.132 42.5649C174.235 53.306 175.887 64.4968 175.987 75.8375C175.987 76.3371 175.787 76.8367 175.437 77.1864C175.086 77.5361 174.586 77.7359 174.085 77.7359H174.185ZM143.753 73.989H172.233C171.983 64.1471 170.531 54.4551 167.979 45.1128L143.753 48.0104V73.989ZM209.122 77.686H179.191C178.14 77.686 177.339 76.8367 177.289 75.8375C177.138 64.347 175.487 53.0562 172.433 42.2651C172.183 41.3159 172.634 40.3667 173.535 40.017L192.605 32.4232C193.356 32.1235 194.257 32.3233 194.757 32.9728C204.768 45.2627 210.224 59.6508 210.974 75.7376C210.974 76.2372 210.824 76.7368 210.474 77.1364C210.124 77.4861 209.623 77.7359 209.122 77.7359V77.686ZM181.043 73.9391H207.12C206.119 59.9506 201.264 47.311 192.705 36.4199L176.488 42.8646C179.191 52.9064 180.742 63.3478 180.993 73.9391H181.043ZM99.3057 77.686H69.4239C68.9234 77.686 68.4228 77.4861 68.0724 77.0865C67.7221 76.7368 67.5219 76.2372 67.5719 75.6876C68.2727 59.7008 73.7285 45.3126 83.7391 32.9228C84.2396 32.2734 85.1406 32.0735 85.8914 32.3733L104.962 39.967C105.863 40.3167 106.363 41.3159 106.063 42.2152C103.01 52.7565 101.358 64.0972 101.158 75.7875C101.158 76.7867 100.307 77.636 99.2556 77.636L99.3057 77.686ZM71.376 73.9391H97.4537C97.8041 63.1479 99.3057 52.7065 102.009 42.8646L85.7913 36.4199C77.2322 47.4109 72.377 60.0005 71.426 73.9391H71.376ZM136.645 77.686H104.361C103.861 77.686 103.36 77.4861 103.01 77.1364C102.659 76.7867 102.459 76.2871 102.459 75.7875C102.559 64.5468 104.211 53.356 107.314 42.5649C107.564 41.6656 108.415 41.1161 109.316 41.216L136.796 44.4633C137.747 44.5632 138.447 45.3626 138.447 46.3118V75.7875C138.447 76.8367 137.596 77.686 136.545 77.686H136.645ZM106.263 73.9391H134.743V48.0104L110.518 45.1128C107.965 54.5051 106.513 64.1971 106.263 73.9391ZM141.801 42.7647C141.3 42.7647 140.85 42.5649 140.499 42.2152C140.149 41.8655 139.949 41.3659 139.949 40.8663V8.79268C139.949 8.24313 140.199 7.74354 140.6 7.39383C141 7.04412 141.551 6.89424 142.101 6.9442C145.905 7.49375 149.409 9.04247 152.913 11.7403C157.518 15.2374 161.222 19.8836 164.625 26.3782C165.876 28.7263 166.928 31.1743 168.029 33.6222C168.529 34.7213 169.03 35.8704 169.53 36.9695C169.781 37.4691 169.781 38.0686 169.53 38.5682C169.28 39.0678 168.83 39.4175 168.279 39.5674C159.92 41.4658 151.311 42.5149 141.901 42.7148L141.801 42.7647ZM143.703 11.1407V38.9179C151.261 38.6681 158.318 37.8188 165.176 36.37C164.976 35.9204 164.775 35.5207 164.575 35.0711C163.524 32.673 162.473 30.325 161.272 28.0268C158.118 22.0318 154.715 17.7853 150.61 14.6379C148.358 12.8893 146.055 11.6903 143.703 11.0408V11.1407ZM136.645 42.7647C127.486 42.6148 118.927 41.5657 110.468 39.6673C109.917 39.5673 109.466 39.2176 109.216 38.718C108.966 38.2185 108.916 37.6689 109.116 37.1693L109.717 35.5706C110.167 34.4216 110.568 33.2725 111.068 32.1734C113.671 26.3782 117.425 18.9843 123.782 13.289C127.736 9.7419 131.84 7.69358 136.395 6.9442C136.946 6.84428 137.496 6.99416 137.897 7.39383C138.297 7.74354 138.547 8.29309 138.547 8.84264V40.9162C138.547 41.4158 138.347 41.9154 137.997 42.2651C137.646 42.6148 137.196 42.8147 136.695 42.8147L136.645 42.7647ZM113.371 36.4699C120.328 37.9187 127.335 38.718 134.793 38.9678V11.0908C131.79 11.9401 129.037 13.5388 126.284 16.0367C120.528 21.2324 117.075 27.877 114.522 33.6722C114.121 34.5715 113.771 35.4707 113.421 36.4199L113.371 36.4699ZM105.763 38.8679C105.763 38.8679 105.312 38.8679 105.112 38.768L87.8435 32.1235C87.2428 31.8737 86.7924 31.3741 86.6923 30.7746C86.5421 30.1751 86.6923 29.5256 87.1928 29.076C96.9532 19.0842 108.015 12.6395 120.979 9.24231C121.78 9.04247 122.63 9.39218 123.081 10.1416C123.481 10.891 123.381 11.7902 122.781 12.3897C115.723 19.5838 110.718 27.827 107.564 37.619C107.414 38.1185 107.064 38.5182 106.563 38.718C106.313 38.818 106.013 38.9179 105.763 38.9179V38.8679ZM91.8978 29.6755L104.611 34.5715C107.214 27.2275 110.818 20.7329 115.523 14.8377C106.764 18.0351 98.9553 22.931 91.8477 29.6755H91.8978ZM172.584 38.5682C171.783 38.5682 171.032 38.0686 170.782 37.2692C167.678 27.6771 162.623 19.4339 155.265 12.1899C154.665 11.5904 154.514 10.6412 154.965 9.94173C155.415 9.19235 156.216 8.84264 157.067 9.04247C170.431 12.6395 181.543 19.0842 191.003 28.8262C191.404 29.2259 191.604 29.8254 191.504 30.4249C191.404 31.0244 191.053 31.524 190.503 31.7738C185.097 34.6214 179.391 36.8196 173.034 38.5182C172.884 38.5182 172.734 38.5682 172.534 38.5682H172.584ZM162.723 14.7378C167.628 20.6829 171.282 27.1775 173.835 34.4216C178.34 33.1227 182.544 31.524 186.548 29.6255C179.641 22.981 171.783 18.085 162.723 14.7378Z" fill="#5FB257"/>
</g>
<defs>
<clipPath id="clip0_176_3949">
<rect width="282" height="243" fill="white"/>
</clipPath>
</defs>
</svg>
