<svg width="233" height="243" viewBox="0 0 233 243" fill="none" xmlns="http://www.w3.org/2000/svg">
<g clip-path="url(#clip0_176_4023)">
<path d="M173.631 159.25L140.516 195.186C140.516 195.186 137.881 198.615 137.881 206.816C137.881 215.017 137.732 240.962 137.732 240.962L124.655 241.112L124.804 206.468L128.085 191.706L157.621 162.033C157.621 162.033 164.781 151.447 173.631 159.25Z" fill="#B3FFAE"/>
<path d="M13.7733 138.573L13.4252 173.863C13.4252 173.863 11.5855 181.567 22.2261 186.736C32.8667 191.905 65.6836 215.067 65.6836 215.067C65.6836 215.067 69.2637 218.745 69.2637 223.864C69.2637 228.984 68.9156 240.714 68.9156 240.714L59.9655 241.012L58.9711 224.163C58.9711 224.163 53.8497 216.806 44.651 211.687C35.4523 206.568 5.32042 183.754 5.32042 183.754L4.22653 156.566C4.22653 156.566 1.64095 139.319 13.7733 138.573Z" fill="#B3FFAE"/>
<path d="M176.714 2.33594L106.257 2.38564L26.7011 2.33594H13.1268C6.96119 2.33594 1.93921 7.35598 1.93921 13.5192C1.93921 44.385 1.93921 84.446 1.93921 112.678V115.709H6.61313V15.1097C6.61313 10.8849 10.044 7.45539 14.2704 7.45539H218.829C223.055 7.45539 226.486 10.8849 226.486 15.1097V115.66H231.111V113.721C231.111 85.0921 231.111 44.733 231.111 13.5192C231.111 7.30628 226.089 2.33594 219.873 2.33594H176.714Z" fill="#5FB257"/>
<path d="M6.61318 117.598H1.93926C0.895088 117.598 0.0498047 116.753 0.0498047 115.709V13.5193C0.0498047 6.31227 5.91707 0.447266 13.1268 0.447266H26.7508C27.6458 0.447266 47.3857 0.447266 66.4792 0.447266C93.8266 0.447266 103.075 0.447266 106.257 0.894596V0.546672H176.217C176.217 0.546672 176.565 0.496969 176.714 0.496969H219.873C227.083 0.496969 232.95 6.36197 232.95 13.569V115.66C232.95 116.704 232.105 117.549 231.111 117.549H226.486C225.442 117.549 224.597 116.704 224.597 115.66V15.1098C224.597 11.9288 222.011 9.29447 218.779 9.29447H14.3202C11.1379 9.29447 8.50264 11.8791 8.50264 15.1098V115.709C8.50264 116.753 7.65736 117.598 6.61318 117.598ZM3.779 113.87H4.77345V15.1098C4.77345 9.84121 9.04959 5.56672 14.3202 5.56672H218.829C224.1 5.56672 228.376 9.84121 228.376 15.1098V113.821L229.271 113.721V13.5193C229.271 8.39981 225.094 4.17502 219.923 4.17502H177.261C177.261 4.17502 176.913 4.22473 176.764 4.22473H106.257C105.412 4.22473 85.6721 4.22473 66.5289 4.22473C39.1815 4.22473 29.9331 4.22473 26.7508 3.77739V4.17502H13.1268C8.00542 4.17502 3.779 8.39981 3.779 13.5193V113.87Z" fill="#5FB257"/>
<path d="M174.974 241.061H170.598C170.598 236.339 170.25 231.667 170.698 227.094C171.195 222.074 174.377 218.496 178.554 215.712C193.023 206.169 207.343 196.427 221.862 186.934C225.144 184.797 226.536 182.113 226.486 178.236C226.337 168.494 226.486 158.752 226.437 149.01C226.437 143.941 223.702 140.66 219.475 140.66C215.348 140.66 212.415 143.99 212.415 148.961C212.415 156.565 212.365 164.17 212.415 171.775C212.415 175.254 211.023 177.689 208.039 179.429C197.349 185.642 186.758 192.004 176.068 198.217C170.946 201.199 165.228 200.255 161.897 195.93C158.665 191.706 159.112 186.139 163.189 181.864C166.272 178.634 169.504 175.552 172.686 172.321C176.167 168.792 176.515 164.269 173.581 161.138C170.598 157.907 165.725 157.957 162.096 161.486C153.245 170.234 144.444 179.081 135.693 187.978C130.422 193.296 128.036 199.708 128.135 207.263C128.284 218.446 128.135 229.629 128.135 241.011H123.61C123.61 240.117 123.461 239.272 123.461 238.427C123.461 227.79 123.511 217.204 123.461 206.567C123.411 198.267 126.146 191.059 131.914 185.145C140.914 175.95 149.963 166.854 159.162 157.858C164.283 152.838 172.04 152.887 176.764 157.709C181.537 162.629 181.388 170.035 176.316 175.254C173.283 178.385 170.101 181.417 167.018 184.548C164.134 187.531 163.637 190.662 165.676 193.147C167.714 195.632 170.747 195.881 174.327 193.743C184.57 187.729 194.763 181.666 205.056 175.701C206.995 174.608 207.741 173.266 207.691 171.029C207.592 163.226 207.542 155.422 207.691 147.668C207.791 141.505 212.514 136.485 218.282 135.988C224.199 135.491 229.42 139.318 230.713 145.183C230.961 146.326 231.011 147.519 231.011 148.662C231.011 158.802 231.011 168.941 231.011 179.031C231.011 183.952 229.072 187.58 224.995 190.314C210.625 199.807 196.354 209.499 181.935 218.893C176.963 222.124 174.427 226.299 174.825 232.264C175.023 235.047 174.825 237.88 174.825 241.011L174.974 241.061Z" fill="#5FB257"/>
<path d="M174.974 242.95H170.598C169.554 242.95 168.709 242.105 168.709 241.061C168.709 239.62 168.709 238.228 168.659 236.787C168.559 233.556 168.51 230.176 168.858 226.896C169.355 221.876 172.189 217.701 177.559 214.172C183.427 210.295 189.244 206.368 195.111 202.491C203.664 196.776 212.266 191.06 220.868 185.393C223.602 183.604 224.696 181.517 224.647 178.236C224.547 171.725 224.547 165.214 224.597 158.703C224.597 155.472 224.597 152.192 224.597 148.961C224.597 144.885 222.707 142.499 219.525 142.45C218.183 142.499 217.039 142.897 216.144 143.792C215 144.935 214.354 146.774 214.304 148.911V150.452C214.304 157.51 214.255 164.617 214.304 171.675C214.354 175.801 212.614 178.833 209.034 180.97C203.763 184.051 198.492 187.183 193.222 190.264C187.852 193.445 182.432 196.626 177.062 199.758C171.195 203.187 164.383 202.044 160.504 197.024C156.676 192.054 157.272 185.443 161.946 180.522C163.786 178.584 165.676 176.695 167.615 174.807C168.908 173.514 170.2 172.272 171.443 170.979C174.228 168.146 174.526 164.767 172.289 162.381C171.245 161.238 169.902 160.641 168.41 160.641C166.571 160.492 164.93 161.387 163.488 162.828C154.637 171.576 145.836 180.423 137.085 189.27C132.262 194.141 129.975 200.056 130.074 207.213C130.174 215.017 130.174 222.87 130.124 230.723V240.962C130.124 242.006 129.279 242.851 128.234 242.851H123.71C122.715 242.851 121.92 242.055 121.87 241.111V240.316C121.771 239.67 121.721 239.023 121.721 238.427V228.337C121.721 221.08 121.721 213.824 121.721 206.617C121.671 197.72 124.704 190.066 130.721 183.902C140.566 173.862 149.466 164.916 157.969 156.565C160.852 153.732 164.631 152.092 168.41 152.291C172.14 152.291 175.62 153.832 178.206 156.516C183.775 162.232 183.576 170.681 177.758 176.646C176.117 178.336 174.476 179.976 172.836 181.616C171.394 183.057 169.952 184.499 168.51 185.99C166.968 187.58 165.526 189.916 167.267 192.103C167.764 192.75 169.405 194.738 173.532 192.302L183.327 186.537C190.288 182.411 197.249 178.336 204.26 174.26C205.603 173.465 206.001 172.769 206.001 171.228C205.851 162.48 205.851 154.776 206.001 147.768C206.15 140.809 211.52 134.845 218.282 134.298C225.144 133.702 231.21 138.175 232.702 144.935C233 146.227 233.05 147.569 233.05 148.812V160.343C233.05 166.606 233.05 172.868 233.05 179.181C233.05 184.747 230.862 188.922 226.188 192.004C220.868 195.533 215.547 199.112 210.177 202.641C201.177 208.655 192.178 214.669 183.078 220.583C178.405 223.615 176.465 227.194 176.813 232.264C176.963 234.202 176.913 236.19 176.863 238.228C176.863 239.173 176.863 240.117 176.863 241.111C176.863 242.105 176.018 243 174.974 243V242.95ZM172.438 239.222H173.134C173.134 238.874 173.134 238.477 173.134 238.129C173.134 236.19 173.184 234.302 173.084 232.463C172.686 226.101 175.272 221.18 181.04 217.402C190.089 211.488 199.089 205.474 208.089 199.46C213.409 195.881 218.73 192.352 224.1 188.773C227.68 186.388 229.32 183.306 229.271 179.081C229.221 172.818 229.271 166.506 229.271 160.244V148.712C229.271 147.519 229.271 146.525 229.022 145.631C227.928 140.71 223.652 137.479 218.531 137.877C213.658 138.275 209.73 142.648 209.63 147.718C209.481 154.677 209.481 162.331 209.63 171.029C209.63 173.912 208.586 175.9 206.05 177.341C199.039 181.367 192.128 185.493 185.167 189.618L175.371 195.384C170.946 197.968 166.968 197.571 164.333 194.34C161.698 191.06 162.245 186.934 165.775 183.256C167.217 181.765 168.709 180.324 170.151 178.882C171.791 177.242 173.432 175.602 175.073 173.962C179.399 169.488 179.598 163.226 175.521 159.001C173.631 157.062 171.095 155.969 168.361 155.919C165.427 155.969 162.742 157.013 160.554 159.15C152.052 167.5 143.151 176.397 133.356 186.437C128.036 191.855 125.351 198.615 125.4 206.517C125.45 213.774 125.4 221.031 125.4 228.287V238.377C125.4 238.377 125.4 238.874 125.4 239.123H126.345V230.723C126.345 222.87 126.395 215.066 126.345 207.263C126.246 199.161 128.931 192.203 134.45 186.636C143.201 177.739 152.002 168.892 160.902 160.144C163.09 158.007 165.974 156.814 168.51 156.913C170.996 156.913 173.283 158.007 175.023 159.846C178.653 163.723 178.255 169.389 174.128 173.614C172.836 174.906 171.543 176.198 170.25 177.491C168.361 179.33 166.521 181.218 164.681 183.107C161.25 186.686 160.803 191.258 163.488 194.738C166.223 198.316 170.946 199.012 175.222 196.527C180.592 193.396 186.012 190.215 191.382 187.034C196.653 183.952 201.923 180.821 207.194 177.739C209.63 176.298 210.675 174.508 210.625 171.725C210.525 164.617 210.575 157.51 210.625 150.402V148.861C210.625 145.73 211.669 142.947 213.558 141.108C215.15 139.517 217.188 138.722 219.525 138.722C224.796 138.722 228.326 142.847 228.326 148.961C228.326 152.192 228.326 155.472 228.326 158.703C228.326 165.164 228.326 171.675 228.376 178.137C228.475 182.66 226.735 185.94 222.906 188.425C214.304 194.092 205.752 199.807 197.2 205.523C191.332 209.45 185.515 213.327 179.648 217.204C175.222 220.136 172.985 223.317 172.587 227.194C172.289 230.276 172.338 233.357 172.438 236.638C172.438 237.483 172.438 238.328 172.488 239.123L172.438 239.222Z" fill="#5FB257"/>
<path d="M62.7498 241.111H58.0758C58.0758 237.93 57.9764 234.749 58.0758 231.568C58.2747 226.2 56.0869 222.323 51.5622 219.391C37.2421 209.997 23.0711 200.354 8.75104 190.96C3.97767 187.829 1.74015 183.803 1.8396 178.087C2.03849 168.345 1.8396 158.603 1.88932 148.861C1.88932 141.257 6.71241 135.988 13.5741 135.988C20.3364 135.988 25.2092 141.406 25.2589 149.011C25.2589 156.416 25.3087 163.822 25.2589 171.228C25.2589 173.365 25.9551 174.608 27.7948 175.701C38.2365 181.765 48.6285 187.928 59.0206 194.042C62.4017 196.03 65.4348 195.632 67.374 193.097C69.2137 190.712 68.8656 187.63 66.2303 184.946C63.0978 181.715 59.8658 178.634 56.7333 175.403C51.5125 170.085 51.3633 162.58 56.2858 157.659C61.0592 152.887 68.7165 152.887 73.8876 157.957C82.9868 166.904 91.9866 175.95 100.937 185.046C106.804 191.01 109.588 198.267 109.489 206.716C109.39 218.098 109.489 229.48 109.489 241.012H104.815C104.815 239.868 104.815 238.825 104.815 237.781C104.815 227.443 104.716 217.154 104.815 206.816C104.865 199.758 102.677 193.545 97.7545 188.525C88.8541 179.379 79.8046 170.383 70.7054 161.436C67.1751 157.957 62.5011 157.957 59.4681 161.039C56.435 164.12 56.6836 168.693 60.1145 172.222C63.1475 175.353 66.3298 178.385 69.4126 181.517C73.7882 186.04 74.3351 191.706 70.954 196.03C67.5729 200.354 61.9045 201.149 56.5344 197.968C46.1424 191.855 35.7504 185.692 25.3087 179.628C22.027 177.739 20.4856 175.155 20.5353 171.327C20.6845 164.021 20.585 156.715 20.5353 149.408C20.5353 148.265 20.4856 147.072 20.1872 145.929C19.1928 142.4 16.11 140.263 12.7786 140.66C9.39743 141.058 6.66269 143.792 6.61297 147.37C6.51352 158.355 6.51352 169.389 6.61297 180.373C6.61297 183.306 8.4527 185.095 10.7897 186.636C25.0103 196.03 39.0818 205.623 53.4019 214.917C59.9156 219.142 63.1973 224.659 62.7498 232.463C62.6006 235.246 62.7498 238.079 62.7498 241.111Z" fill="#5FB257"/>
<path d="M62.7499 243H58.076C57.0318 243 56.1865 242.155 56.1865 241.111V238.179C56.1865 235.942 56.1368 233.705 56.1865 231.518C56.3854 226.896 54.6451 223.616 50.5181 220.932C43.7061 216.458 36.8941 211.935 30.0821 207.363C22.6238 202.392 15.1654 197.422 7.65726 192.501C2.33694 188.972 -0.149187 184.4 -1.95646e-05 178.038C0.149148 171.477 0.0994256 164.916 0.0994256 158.355C0.0994256 155.174 0.0994256 152.043 0.0994256 148.862C0.0994256 144.637 1.39221 141.008 3.87834 138.325C6.31475 135.641 9.79533 134.149 13.6737 134.149C21.4801 134.149 27.1485 140.412 27.1982 149.011V151.993C27.1982 158.405 27.248 164.816 27.1982 171.228C27.1982 172.67 27.5463 173.316 28.7894 174.061C35.3527 177.888 41.9161 181.716 48.4795 185.592L60.0151 192.402C61.8051 193.446 64.2416 194.191 65.9818 191.954C67.7221 189.668 66.131 187.382 64.9874 186.239C63.2471 184.449 61.4571 182.66 59.7168 180.92C58.3246 179.529 56.9323 178.137 55.5401 176.696C49.6728 170.731 49.4739 161.934 55.0926 156.317C60.6118 150.75 69.5121 150.899 75.3297 156.615C84.4289 165.562 93.4287 174.608 102.428 183.704C108.544 189.917 111.577 197.621 111.528 206.667C111.478 214.669 111.528 222.671 111.528 230.723V240.962C111.528 242.006 110.682 242.851 109.688 242.851H105.014C103.97 242.851 103.125 242.006 103.125 240.962V228.586C103.125 221.329 103.125 214.023 103.125 206.766C103.174 199.907 101.086 194.34 96.6109 189.768C88.2078 181.169 79.3572 172.272 69.6116 162.679C68.2194 161.287 66.4791 160.443 64.8879 160.542C63.446 160.542 62.1035 161.138 61.0096 162.232C58.7223 164.568 58.971 168.047 61.656 170.831C63.1477 172.371 64.6393 173.862 66.1807 175.354C67.7719 176.944 69.363 178.535 70.9541 180.125C75.9761 185.344 76.6225 192.004 72.5949 197.074C68.6171 202.094 61.8549 203.088 55.739 199.46L44.3525 192.75C37.7394 188.873 31.176 184.946 24.5629 181.119C20.6348 178.833 18.7951 175.602 18.8946 171.178C18.994 165.313 18.994 159.448 18.8946 153.534V149.309C18.8946 148.365 18.8448 147.271 18.5465 146.327C17.8007 143.692 15.6626 142.102 13.1267 142.4C10.5909 142.698 8.65171 144.786 8.60199 147.271C8.50254 158.256 8.50254 169.29 8.60199 180.274C8.60199 182.113 9.54672 183.406 11.9334 184.996C16.9554 188.326 21.9774 191.706 26.9993 195.036C36.1483 201.15 45.2972 207.263 54.4959 213.228C61.8051 217.999 65.1366 224.262 64.6891 232.413C64.5896 234.302 64.5896 236.141 64.6891 238.129V241.012C64.6891 242.056 63.8935 242.9 62.8493 242.9L62.7499 243ZM59.9157 239.272H60.8604V238.328C60.8604 236.29 60.8107 234.302 60.9101 232.363C61.3079 225.554 58.5732 220.534 52.4076 216.508C43.1592 210.494 34.0102 204.38 24.8613 198.267C19.8393 194.937 14.8173 191.557 9.79533 188.227C7.45837 186.686 4.82307 184.4 4.77335 180.423C4.72363 169.389 4.6739 158.405 4.77335 147.371C4.77335 142.997 8.15448 139.319 12.5798 138.822C16.8559 138.325 20.784 141.058 22.0271 145.432C22.4249 146.774 22.4746 148.215 22.4746 149.359V153.583C22.5243 159.498 22.574 165.413 22.4746 171.328C22.4249 174.459 23.5188 176.397 26.3032 177.988C32.9163 181.815 39.5294 185.742 46.1425 189.618L57.529 196.328C62.1035 199.012 66.7277 198.416 69.5619 194.837C72.3961 191.209 71.8491 186.636 68.1696 182.759C66.6282 181.169 65.0371 179.578 63.446 178.038C61.9046 176.497 60.3632 175.006 58.8715 173.465C54.6948 169.19 54.4462 163.524 58.2251 159.647C60.0151 157.858 62.3024 156.864 64.7388 156.864H64.7885C67.4238 156.864 70.0094 158.007 72.0977 160.045C81.8433 169.687 90.694 178.535 99.1468 187.183C104.268 192.402 106.804 199.012 106.705 206.816C106.655 214.073 106.655 221.329 106.705 228.586V239.123H107.649V230.773C107.649 222.721 107.649 214.669 107.649 206.667C107.699 198.515 105.064 191.905 99.5943 186.338C90.6442 177.242 81.6445 168.196 72.5452 159.25C68.1696 154.925 61.7057 154.776 57.5787 158.902C53.402 163.127 53.6009 169.489 58.076 174.012C59.4682 175.403 60.8604 176.795 62.2527 178.187C64.0427 179.976 65.8327 181.765 67.573 183.555C70.8049 186.885 71.3022 190.96 68.816 194.141C66.2802 197.422 62.1532 197.969 58.0262 195.533L46.4906 188.724C39.9272 184.847 33.4136 181.02 26.8502 177.193C24.4138 175.801 23.3696 173.912 23.4193 171.079C23.5188 164.717 23.469 158.305 23.4193 151.894V148.911C23.4193 142.35 19.3421 137.778 13.624 137.778C10.7898 137.778 8.35337 138.822 6.61308 140.76C4.77335 142.748 3.82862 145.532 3.82862 148.812C3.82862 151.993 3.82862 155.124 3.82862 158.305C3.82862 164.916 3.87834 171.477 3.72917 178.087C3.62973 183.107 5.46946 186.587 9.79533 189.37C17.3034 194.291 24.7618 199.261 32.2202 204.231C39.0322 208.754 45.7945 213.277 52.6065 217.751C57.7776 221.13 60.1643 225.653 59.9157 231.568C59.8162 233.705 59.866 235.892 59.9157 238.079V239.222V239.272Z" fill="#5FB257"/>
<path d="M109.24 150.154C111.03 154.379 117.196 156.566 121.074 153.931C122.367 153.037 123.511 150.601 123.262 149.16C122.964 147.719 120.975 146.277 119.384 145.482C118.191 144.885 116.5 145.333 115.058 145.333C109.489 145.283 105.362 141.854 104.915 136.883C104.467 131.963 107.6 127.937 112.97 126.694C113.318 126.595 113.715 126.545 114.213 126.446V119.835H118.787V126.396C124.257 127.29 127.638 130.074 128.284 135.889H124.008C121.969 131.565 116.848 129.726 112.373 131.813C110.235 132.808 109.29 134.547 109.638 136.784C110.036 139.02 111.528 140.412 113.815 140.661C115.257 140.81 116.749 140.661 118.191 140.71C123.61 140.76 127.638 144.14 128.185 149.011C128.732 153.882 125.549 158.057 120.279 159.299C119.881 159.399 119.533 159.449 118.887 159.548V166.258H114.362V159.797C107.699 157.858 105.412 155.522 105.014 150.204H109.29L109.24 150.154Z" fill="#5FB257"/>
<path d="M1.98887 206.319H6.61307C6.61307 209.748 6.61307 213.228 6.61307 216.657C6.61307 220.236 7.06057 220.683 10.6406 220.733C16.7565 220.733 22.8724 220.733 29.2368 220.733V225.305C22.1265 225.305 14.9167 225.455 7.75669 225.206C4.67389 225.107 2.18776 222.224 2.03859 219.093C1.8397 214.917 2.03859 210.742 2.03859 206.269L1.98887 206.319Z" fill="#5FB257"/>
<path d="M16.9057 227.194C13.8229 227.194 10.7401 227.194 7.65726 227.045C3.72917 226.896 0.348039 223.367 0.149149 219.192C-1.89242e-05 216.259 0.0497037 213.327 0.0497037 210.295V206.269C0.0497037 205.225 0.894988 204.38 1.93916 204.38H6.56336C7.60754 204.38 8.45282 205.225 8.45282 206.269V216.607C8.45282 218.099 8.55227 218.596 8.65171 218.745C8.65171 218.745 9.19866 218.844 10.6406 218.844H23.3696H29.1871C30.2313 218.844 31.0766 219.689 31.0766 220.733V225.306C31.0766 226.349 30.2313 227.194 29.1871 227.194H23.0713C21.0326 227.194 18.994 227.244 16.9057 227.244V227.194ZM3.82862 208.158V210.345C3.82862 213.327 3.72917 216.16 3.87834 219.043C3.97779 221.329 5.7678 223.268 7.80643 223.367C12.8781 223.566 18.0493 223.516 23.0215 223.466H27.2977V222.622H23.3199H10.5909C5.96669 222.622 4.72363 221.329 4.72363 216.707V208.208H3.82862V208.158Z" fill="#5FB257"/>
<path d="M203.713 225.355V220.683C209.78 220.683 215.796 220.683 221.763 220.683C226.188 220.683 226.437 220.435 226.437 216.111C226.437 212.929 226.437 209.748 226.437 206.369H230.912C230.912 210.892 231.21 215.415 230.812 219.888C230.564 222.97 227.63 225.256 224.448 225.306C217.636 225.455 210.824 225.306 203.713 225.306V225.355Z" fill="#5FB257"/>
<path d="M215.846 227.294C213.857 227.294 211.918 227.294 209.879 227.294H203.713C202.669 227.294 201.824 226.449 201.824 225.405V220.733C201.824 219.689 202.669 218.844 203.713 218.844H221.763C222.558 218.844 224.149 218.844 224.497 218.645C224.497 218.447 224.497 216.856 224.497 216.111V206.369C224.497 205.325 225.343 204.48 226.387 204.48H230.862C231.906 204.48 232.751 205.325 232.751 206.369C232.751 207.711 232.751 209.053 232.751 210.345C232.801 213.526 232.851 216.806 232.602 220.037C232.254 223.964 228.674 227.045 224.398 227.145C221.514 227.194 218.63 227.194 215.746 227.194L215.846 227.294ZM205.603 223.566H209.929C214.851 223.566 219.674 223.566 224.448 223.566C226.785 223.566 228.823 221.876 229.022 219.888C229.271 216.806 229.221 213.625 229.171 210.544C229.171 209.798 229.171 209.102 229.171 208.357H228.376V216.21C228.376 221.578 227.282 222.671 221.862 222.671H205.653V223.616L205.603 223.566Z" fill="#5FB257"/>
<path d="M46.2419 97.369C44.6508 96.9216 43.358 96.524 42.0652 96.1264C47.4352 71.2747 71.6501 40.9556 111.876 38.4704C132.709 37.1781 151.306 43.5402 167.068 57.308C182.83 71.0262 191.432 88.5218 193.47 109.347C193.818 109.596 194.167 109.894 194.515 110.143C195.111 109.198 195.658 108.204 196.305 107.26C196.951 106.316 197.697 105.421 198.642 104.228C199.984 105.819 200.879 106.862 201.923 108.105C199.039 110.988 196.006 114.119 192.874 117.151C192.377 117.648 190.935 117.896 190.537 117.549C189.791 116.853 189.194 115.759 189.045 114.715C188.2 109.149 188.051 103.433 186.708 98.0151C179.001 66.702 150.759 43.8384 119.185 43.0928C85.6719 42.2976 56.7333 62.8748 47.0872 94.3868C46.7888 95.2814 46.5402 96.2258 46.1922 97.4187L46.2419 97.369Z" fill="#B3FFAE"/>
<path d="M41.0211 111.833C39.6786 113.622 38.2864 115.362 36.7947 117.3C35.4025 115.759 34.4577 114.715 33.2644 113.374C36.1483 110.54 39.1317 107.508 42.3139 104.626C42.9106 104.079 44.4023 103.731 44.8498 104.079C45.6453 104.675 46.1923 105.868 46.3414 106.912C47.2862 112.976 47.7337 119.089 48.9767 125.054C49.8717 129.378 51.8109 133.503 53.402 137.977C52.2087 138.523 50.9656 139.12 49.5237 139.816C45.0487 131.018 42.8111 121.873 41.8664 112.28C41.5681 112.131 41.2697 111.982 40.9714 111.833H41.0211Z" fill="#B3FFAE"/>
<path d="M186.758 143.693C185.018 142.748 183.775 142.052 182.631 141.456C184.918 135.641 187.156 130.124 189.443 124.358C190.636 124.656 191.979 125.054 193.968 125.551C191.531 131.714 189.194 137.579 186.758 143.643V143.693Z" fill="#B3FFAE"/>
<path d="M75.7274 110.043C77.0699 110.441 77.5174 110.938 77.5174 112.23C77.5174 118.443 77.5174 133.95 77.5174 150.005H81.893V110.987C84.3791 109.546 86.6167 108.254 89.0531 106.812C91.1414 109.099 94.075 110.639 97.7545 110.689C101.434 110.689 104.467 109.248 106.903 106.514C109.439 109.148 112.472 110.739 116.301 110.689C120.08 110.689 123.113 109.248 125.45 106.564C132.511 112.081 137.632 112.081 143.748 106.663C144.941 107.558 146.085 108.552 147.427 109.248C148.72 109.894 150.162 110.292 151.704 110.838V150.054H155.98C155.98 133.652 155.98 118.095 155.98 111.634C155.98 110.49 156.626 110.192 157.571 109.795C162.145 107.906 164.88 103.78 164.084 99.5556C162.444 90.6587 160.654 81.7618 158.963 72.8649C158.665 71.175 157.72 70.5288 155.93 70.5288C129.676 70.5288 103.423 70.5288 77.1694 70.5288C75.3296 70.5288 74.4346 71.2744 74.1363 72.8649C72.396 81.5133 70.7552 90.1617 68.7165 98.7604C67.7718 102.687 70.2579 108.353 75.8269 110.043H75.7274ZM153.096 106.862C149.615 106.961 146.88 104.874 146.184 101.593H159.51C159.162 104.625 156.477 106.763 153.096 106.862ZM146.035 74.5548H154.935C156.427 82.2588 157.869 89.9131 159.361 97.6669H146.035V74.5548ZM134.599 106.912C131.118 106.912 128.284 104.625 128.036 101.643H141.262C141.013 104.625 138.08 106.912 134.599 106.912ZM127.737 74.5548H141.51V97.6669H127.737V74.5548ZM116.947 106.862C112.92 107.16 109.837 105.122 109.29 101.643C109.638 101.643 109.937 101.544 110.235 101.544C114.461 101.544 118.688 101.544 122.864 101.544C122.914 104.277 120.279 106.613 116.898 106.862H116.947ZM109.141 74.5548H123.262V97.6172H109.141V74.5548ZM97.854 106.912C94.4231 106.912 91.6884 104.874 91.042 101.544C93.2795 101.544 95.517 101.544 97.7048 101.544C99.8926 101.544 102.18 101.544 104.417 101.544C103.97 104.675 101.285 106.862 97.854 106.912ZM90.8431 74.5548H104.616V97.7166H90.8431V74.5548ZM76.1749 83.0044C76.6721 80.6683 77.2191 78.382 77.6169 76.0459C77.8158 74.7536 78.4124 74.4057 79.755 74.4554C81.9427 74.5548 84.0808 74.4554 86.4178 74.4554V97.6669H73.1916C74.2357 92.6965 75.2302 87.8256 76.2246 82.9547L76.1749 83.0044ZM86.02 101.643C86.02 104.277 83.4344 106.613 80.0533 106.862C76.3738 107.16 73.291 104.973 72.7938 101.643H85.9703H86.02Z" fill="#28663D"/>
<path d="M157.819 151.893H149.814L149.715 112.131C148.571 111.783 147.527 111.435 146.532 110.888C145.538 110.391 144.693 109.695 143.798 109.049C137.831 113.771 132.262 113.771 125.649 109.049C123.113 111.335 119.981 112.528 116.301 112.578C112.821 112.578 109.638 111.435 106.904 109.099C104.268 111.385 101.235 112.528 97.7546 112.528H97.7049C94.274 112.528 91.1912 111.335 88.7051 109.148L83.6831 112.081V151.893H75.6281V145.979C75.6281 131.366 75.6281 117.896 75.6281 112.18C75.6778 111.982 75.6281 111.882 75.1806 111.783C68.7166 109.795 65.6338 103.234 66.7774 98.3131C68.3188 91.8019 69.6613 85.1417 70.9541 78.6802L72.1972 72.4673C72.5453 70.7277 73.6889 68.6401 77.07 68.6401C103.324 68.6401 129.577 68.6401 155.831 68.6401C158.565 68.6401 160.206 69.9324 160.703 72.4673C161.449 76.543 162.245 80.569 163.04 84.5949C163.985 89.4659 164.93 94.2871 165.825 99.158C166.77 104.228 163.687 109.148 158.168 111.435C157.969 111.534 157.67 111.634 157.571 111.733C157.77 118.045 157.77 133.553 157.77 150.005V151.893H157.819ZM153.543 148.166H154.09C154.09 132.459 154.09 117.847 154.09 111.584C154.09 109.148 155.831 108.453 156.825 108.055C160.654 106.464 162.841 103.184 162.245 99.9036C161.35 95.0327 160.405 90.2114 159.46 85.3902C158.665 81.3145 157.869 77.2885 157.123 73.2128C156.974 72.517 156.974 72.4176 155.93 72.4176C129.676 72.4176 103.423 72.4176 77.1695 72.4176C76.1253 72.4176 76.0756 72.6164 75.9761 73.2626L74.733 79.4258C73.4403 85.8872 72.0977 92.5972 70.5563 99.2077C69.91 101.991 71.6005 106.812 76.4236 108.254C77.7661 108.651 79.5561 109.546 79.5064 112.28C79.5064 117.946 79.5064 131.465 79.5064 146.028V148.215H80.1031V109.993L83.8323 107.806C82.7881 108.303 81.6445 108.602 80.4511 108.701C75.8269 109.099 71.8491 106.117 71.2027 101.892L70.9044 99.7545H88.1084V101.594C88.1581 103.78 87.0145 105.769 85.0753 107.111L89.5007 104.526L90.4951 105.619C91.8376 107.111 94.2243 108.85 97.854 108.85H97.9038C100.937 108.85 103.473 107.707 105.611 105.272L106.953 103.78L108.346 105.222C110.682 107.657 113.119 108.95 116.401 108.85C119.533 108.85 122.168 107.657 124.157 105.371L125.301 104.029L126.693 105.122C127.638 105.868 128.533 106.464 129.378 107.011C127.638 105.769 126.494 103.88 126.345 101.693L126.196 99.7048H143.45L143.3 101.743C142.952 105.669 139.273 108.701 134.798 108.701C133.803 108.602 132.958 108.552 132.113 108.303C135.792 109.596 138.875 108.552 142.604 105.272L143.698 104.277L146.035 106.017C146.781 106.614 147.527 107.16 148.322 107.608C149.118 108.005 149.963 108.303 150.908 108.602L153.593 109.546V148.215L153.543 148.166ZM130.92 103.482C131.765 104.427 133.157 105.023 134.698 105.023C136.24 105.023 137.632 104.427 138.527 103.482H130.87H130.92ZM75.8269 103.482C76.8214 104.526 78.3131 105.122 80.0534 104.973C81.4456 104.874 82.6887 104.277 83.4842 103.482H75.8269ZM97.854 108.751C93.5282 108.751 90.0973 106.017 89.3018 101.892L88.904 99.7048H106.705L106.406 101.842C105.859 105.868 102.379 108.751 98.0032 108.8H97.854V108.751ZM93.9757 103.383C94.8707 104.427 96.2629 104.973 97.9038 105.023C99.4949 105.023 100.887 104.377 101.732 103.383H93.9757ZM152.947 108.751C148.671 108.751 145.24 106.067 144.444 101.991L143.997 99.7545H161.698L161.449 101.842C161.002 105.818 157.621 108.651 153.245 108.751C153.146 108.751 153.096 108.751 152.996 108.751H152.947ZM149.168 103.482C150.063 104.476 151.604 105.073 153.096 105.023C154.637 105.023 155.93 104.427 156.775 103.482H149.168ZM116.251 108.751C111.677 108.751 108.246 106.117 107.55 101.941L107.202 99.9533L109.191 99.7545C109.738 99.7048 110.036 99.6551 110.285 99.6551H124.754V101.494C124.853 105.222 121.472 108.353 117.097 108.701C116.749 108.701 116.45 108.701 116.152 108.701L116.251 108.751ZM112.174 103.383C113.169 104.526 114.809 105.122 116.898 104.973C118.34 104.874 119.633 104.228 120.378 103.383H112.174ZM106.556 99.5557H89.0531V72.6661H106.556V99.5557ZM92.7823 95.8279H102.826V76.3939H92.7823V95.8279ZM88.3073 99.5557H70.9044L74.8822 80.4696C75.2303 78.9287 75.5783 77.3382 75.8269 75.7477C76.175 73.5608 77.5672 72.4673 79.9042 72.5667C81.3959 72.6164 82.8875 72.5667 84.4289 72.5667H88.357V99.506L88.3073 99.5557ZM75.4789 95.8279H84.5781L84.3792 76.3442C82.7881 76.3442 81.2467 76.3442 79.7053 76.3442C79.3573 76.3442 79.2578 76.3442 79.2578 76.3442C79.2578 77.9844 78.9097 79.6246 78.512 81.2648L75.4789 95.8279ZM143.45 99.5557H125.947V72.7158H143.45V99.5557ZM129.676 95.8279H139.72V76.4436H129.676V95.8279ZM161.648 99.506H144.245V72.6661H156.527L161.648 99.506ZM147.974 95.7782H157.123L153.444 76.3939H147.974V95.7782ZM125.251 99.4563H107.401V72.6661H125.251V99.4563ZM111.13 95.7285H121.522V76.3939H111.13V95.7285Z" fill="#28663D"/>
</g>
<defs>
<clipPath id="clip0_176_4023">
<rect width="233" height="243" fill="white"/>
</clipPath>
</defs>
</svg>
