<svg width="271" height="178" viewBox="0 0 271 178" fill="none" xmlns="http://www.w3.org/2000/svg">
<g clip-path="url(#clip0_176_4073)">
<path d="M64.2745 102.183C62.0822 53.6787 107.174 12.3377 154.209 12.3377C160.537 12.3377 166.666 12.9844 172.545 14.2282C161.783 9.35281 149.874 6.56689 137.318 6.56689C90.383 6.56689 52.3164 44.5747 52.3164 91.4378C52.3164 118.65 65.1713 142.828 85.1015 158.349C72.7946 142.828 65.2212 123.177 64.2745 102.134V102.183Z" fill="#B3FFAE"/>
<path d="M6.57712 56.2157C6.57712 46.1665 6.57712 36.1173 6.57712 26.0681C6.57712 14.1285 13.1042 7.61141 25.0125 7.61141C48.4304 7.61141 56.8509 7.61141 80.2688 7.61141C79.8702 6.11896 79.7705 4.47726 80.0197 2.93506C56.3526 2.93506 47.6332 2.93506 23.9662 2.93506C10.9119 2.93506 1.94336 11.9395 1.94336 25.0731C1.94336 36.366 1.94336 47.7087 1.94336 59.0016C1.94336 63.2799 1.99318 63.3794 6.07886 64.2252C18.4355 66.8618 25.8097 69.4985 38.1166 72.1352C38.0667 70.5432 38.3159 68.9513 38.9138 67.5086C26.5072 64.8719 19.0334 62.1855 6.57712 59.5488V56.2157Z" fill="#5FB257"/>
<path d="M38.0666 74.0255C38.0666 74.0255 37.8174 74.0255 37.668 74.0255C31.4398 72.6823 26.4074 71.3391 21.5245 70.0456C16.6915 68.7521 11.709 67.4089 5.58044 66.1155C0.697555 65.021 0 64.1753 0 59.0014V48.5543C0 40.7438 0 32.8835 0 25.073C0 10.9444 9.86542 1.09424 23.9162 1.09424H79.9697C80.5177 1.09424 81.016 1.34298 81.4146 1.74097C81.7634 2.13896 81.9129 2.68619 81.8132 3.23342C81.6139 4.52688 81.6637 5.87009 82.0125 7.1138C82.162 7.66104 82.0125 8.25802 81.7136 8.7555C81.4146 9.25299 80.8167 9.50173 80.2188 9.50173H25.0123C14.2002 9.50173 8.47031 15.2228 8.47031 26.1177V58.0562C14.1006 59.2999 18.7343 60.5437 23.2684 61.7376C28.1513 63.0311 33.1338 64.3743 39.3122 65.7175C39.8603 65.817 40.3087 66.1652 40.5578 66.6627C40.807 67.1602 40.8568 67.7074 40.6076 68.2547C40.1094 69.4486 39.9101 70.7918 39.9599 72.135C39.9599 72.732 39.7606 73.2793 39.3122 73.6275C38.9634 73.926 38.5648 74.0752 38.1164 74.0752L38.0666 74.0255ZM54.2598 4.82537H23.9162C11.8584 4.82537 3.78673 12.9841 3.7369 25.073C3.7369 32.8835 3.7369 40.7438 3.7369 48.5543V59.0014C3.7369 60.0959 3.7369 61.4391 3.88638 61.7376C4.08568 61.8869 5.43096 62.1854 6.37764 62.3843C12.6058 63.7276 17.6382 65.0708 22.4712 66.3642C26.7064 67.5084 31.091 68.6527 36.2728 69.8466C36.2728 69.5481 36.3725 69.1999 36.4223 68.9014C31.0412 67.7074 26.5569 66.5135 22.1723 65.3195C17.2894 64.026 12.257 62.6828 6.07869 61.3396C5.23166 61.1406 4.58393 60.3944 4.58393 59.4989V26.068C4.68358 13.1831 12.1076 5.77059 25.0123 5.77059H78.0265C78.0265 5.4721 78.0265 5.12386 78.0265 4.82537H54.3594H54.2598Z" fill="#5FB257"/>
<path d="M269.057 24.9239C269.057 12.0391 259.989 2.98486 247.134 2.98486C223.616 2.98486 215.096 2.98486 191.579 2.98486C191.878 4.52707 191.828 6.11902 191.429 7.66122C214.548 7.66122 222.72 7.66122 245.838 7.66122C246.735 7.66122 247.582 7.66122 248.479 7.66122C256.75 7.95971 263.925 14.3275 264.224 22.536C264.623 34.8239 264.324 47.062 264.324 59.5986C251.917 62.2353 244.493 64.9217 232.137 67.5584C232.734 69.0011 232.984 70.6428 232.934 72.2347C245.34 69.5981 252.714 66.9614 265.121 64.3247C267.961 63.7277 269.207 62.5835 269.157 59.4494C268.957 47.9575 269.107 36.4158 269.057 24.9239Z" fill="#5FB257"/>
<path d="M232.884 74.0753C232.435 74.0753 232.037 73.926 231.688 73.6276C231.24 73.2296 230.99 72.6823 231.04 72.1351C231.09 70.7919 230.891 69.4487 230.393 68.2547C230.193 67.7572 230.193 67.1603 230.442 66.6628C230.691 66.1653 231.14 65.817 231.688 65.7176C237.816 64.4241 242.799 63.0809 247.632 61.7874C252.116 60.5935 256.8 59.3497 262.38 58.106C262.38 54.8226 262.38 51.589 262.38 48.3553C262.43 39.8981 262.48 31.1424 262.231 22.5856C262.032 15.6706 255.754 9.80028 248.33 9.55153C247.682 9.55153 247.034 9.55153 246.386 9.55153H191.329C190.732 9.55153 190.233 9.30279 189.885 8.85505C189.536 8.40732 189.386 7.81034 189.536 7.2631C189.835 6.01939 189.885 4.67618 189.635 3.33298C189.536 2.78574 189.635 2.23851 190.034 1.79077C190.383 1.39279 190.931 1.14404 191.479 1.14404H212.505H247.034C260.985 1.14404 270.801 10.9445 270.851 24.9736C270.851 28.9037 270.851 32.7841 270.851 36.7142C270.851 44.276 270.851 51.8875 270.95 59.4492C271 63.2799 269.306 65.3693 265.47 66.1653C259.291 67.4587 254.259 68.802 249.376 70.0954C244.493 71.3889 239.511 72.7321 233.282 74.0753C233.133 74.0753 233.033 74.0753 232.884 74.0753ZM234.478 68.9512C234.528 69.2497 234.628 69.5979 234.677 69.9462C239.809 68.802 244.194 67.608 248.429 66.5135C253.362 65.2201 258.444 63.8271 264.722 62.5336C266.865 62.0859 267.313 61.5884 267.263 59.499C267.164 51.8875 267.164 44.276 267.164 36.6644C267.164 32.7343 267.164 28.8539 267.164 24.9238C267.164 13.0837 258.893 4.82543 247.084 4.82543H212.555H193.572C193.572 5.12392 193.572 5.47216 193.572 5.77065H246.436C247.134 5.77065 247.831 5.77065 248.529 5.77065C258.095 6.11889 265.769 13.4319 266.067 22.4364C266.317 31.0429 266.267 39.8484 266.217 48.3553C266.217 52.0865 266.217 55.8176 266.217 59.5985C266.217 60.494 265.619 61.2402 264.722 61.4392C258.544 62.7824 253.561 64.1256 248.678 65.4191C244.344 66.5633 239.859 67.807 234.528 68.9512H234.478Z" fill="#5FB257"/>
<path d="M88.9384 173.871C88.9384 173.075 88.9384 172.279 89.0381 171.483C64.2251 171.483 49.3771 171.483 24.5143 171.483C13.2537 171.483 6.52731 164.767 6.52731 153.424C6.52731 127.207 6.52731 110.939 6.52731 84.7215V81.1396H1.89355V84.3236C1.89355 110.64 1.89355 127.008 1.89355 153.325C1.89355 167.403 10.6628 176.159 24.7136 176.159C49.5266 176.159 64.4244 176.159 89.2374 176.159C89.0879 175.413 88.9882 174.667 88.9384 173.871Z" fill="#5FB257"/>
<path d="M65.9687 178H24.6635C9.71594 178 0 168.299 0 153.324V81.1395C0 80.0947 0.847031 79.249 1.84354 79.249H6.52712C7.57345 79.249 8.42048 80.0947 8.42048 81.1395V153.424C8.42048 163.722 14.2999 169.592 24.5141 169.592H89.0379C89.586 169.592 90.0842 169.841 90.433 170.239C90.7818 170.637 90.9312 171.184 90.8814 171.731C90.7818 172.378 90.7319 173.075 90.7818 173.771C90.7818 174.468 90.9312 175.164 91.0309 175.811C91.1305 176.358 91.0309 176.905 90.6323 177.353C90.2337 177.801 89.7354 178 89.1873 178H65.9687ZM3.7369 82.9802V153.324C3.7369 166.458 11.5595 174.269 24.6635 174.269H87.0449C87.0449 174.269 87.0449 174.07 87.0449 173.92C87.0449 173.92 87.0449 173.522 87.0449 173.323H24.5141C12.257 173.323 4.68358 165.712 4.68358 153.424V82.9802H3.7369Z" fill="#5FB257"/>
<path d="M264.373 81.1895V84.8708C264.373 111.088 264.373 127.356 264.373 153.573C264.373 164.667 257.597 171.483 246.535 171.483C222.52 171.483 208.469 171.483 184.453 171.483C184.603 172.279 184.702 173.075 184.752 173.871C184.752 174.667 184.752 175.413 184.652 176.159C208.569 176.159 222.52 176.159 246.436 176.159C260.287 176.159 269.106 167.354 269.106 153.474C269.106 127.058 269.106 110.591 269.106 84.1744V81.1895H264.423H264.373Z" fill="#5FB257"/>
<path d="M246.386 178H184.603C184.055 178 183.556 177.751 183.208 177.353C182.859 176.955 182.709 176.408 182.759 175.861C182.859 175.214 182.859 174.567 182.859 173.92C182.859 173.224 182.709 172.478 182.61 171.781C182.51 171.234 182.61 170.687 183.008 170.239C183.357 169.791 183.905 169.542 184.453 169.542H246.536C256.501 169.542 262.48 163.573 262.48 153.523V81.1395C262.48 80.0947 263.327 79.249 264.373 79.249H269.057C270.103 79.249 270.95 80.0947 270.95 81.1395V153.424C270.95 168.349 261.334 177.95 246.436 177.95L246.386 178ZM186.596 174.269H246.386C259.191 174.269 267.163 166.309 267.163 153.424V83.0299H266.217V153.573C266.217 165.762 258.643 173.323 246.536 173.323H186.546C186.546 173.323 186.546 173.622 186.546 173.771C186.546 173.92 186.546 174.119 186.546 174.269H186.596Z" fill="#5FB257"/>
<path d="M48.7793 88.4031C48.7793 40.6446 87.8424 1.74132 135.675 1.89056C183.407 1.99006 222.221 40.8934 222.172 88.5524C222.172 136.311 183.059 175.214 135.276 175.065C87.5435 174.916 48.7295 136.062 48.7793 88.4031ZM217.488 88.5524C217.538 43.4803 180.816 6.66642 135.675 6.56692C90.533 6.46742 53.6124 43.132 53.4629 88.2042C53.3134 133.426 90.1842 170.339 135.426 170.389C180.567 170.389 217.438 133.674 217.488 88.6021V88.5524Z" fill="#5FB257"/>
<path d="M135.525 176.906H135.276C86.4969 176.756 46.8858 137.057 46.9356 88.403C46.9356 64.8223 56.2031 42.5847 73.0441 25.8692C89.7356 9.15372 111.958 0 135.475 0H135.724C184.503 0.0994969 224.115 39.8485 224.065 88.5025C224.065 112.133 214.797 134.321 197.956 151.036C181.215 167.702 159.043 176.856 135.525 176.856V176.906ZM135.525 3.73113C113.004 3.73113 91.7286 12.5366 75.6848 28.4561C59.5912 44.4751 50.7223 65.7675 50.6725 88.3533C50.6725 134.968 88.5896 173.025 135.326 173.125H135.575C158.096 173.125 179.322 164.319 195.365 148.4C211.459 132.381 220.378 111.088 220.378 88.5025C220.378 41.8882 182.461 3.83063 135.724 3.73113H135.525ZM135.475 172.229C113.104 172.229 92.0275 163.473 76.1332 147.554C60.239 131.634 51.5693 110.541 51.6192 88.204C51.7686 42.1369 89.3868 4.67636 135.475 4.67636H135.675C181.863 4.77585 219.431 42.3857 219.381 88.5523C219.331 134.669 181.713 172.229 135.525 172.229H135.475ZM135.475 8.40749C91.4296 8.40749 55.4557 44.1766 55.3561 88.204C55.3062 109.546 63.6271 129.694 78.774 144.917C93.9209 160.091 114.05 168.498 135.475 168.498C179.62 168.498 215.545 132.629 215.594 88.5523C215.644 44.4751 179.77 8.50699 135.625 8.40749H135.425H135.475Z" fill="#5FB257"/>
<path d="M118.634 170.787C118.883 170.886 119.133 171.035 119.332 171.085C118.684 171.533 118.086 171.981 117.439 172.428H129.446C132.436 171.931 135.475 171.931 138.465 172.428H150.473C150.473 172.428 150.273 172.279 150.174 172.18C149.626 171.831 149.078 171.533 148.43 171.135C148.828 170.986 149.028 170.886 149.227 170.787C160.737 166.309 167.015 154.519 164.324 142.43C164.025 141.037 163.328 140.341 161.933 140.042C151.718 138.052 143.348 141.087 136.821 149.146C136.621 149.345 136.472 149.594 136.173 149.892V116.412C136.621 116.362 137.07 116.262 137.468 116.213C148.031 114.621 155.455 108.949 159.541 99.1488C162.381 92.3333 162.182 85.4182 159.441 78.6027C159.192 77.956 158.495 77.2097 157.847 76.961C157.249 76.762 156.352 77.1102 155.804 77.5082C155.057 78.0555 155.106 79.0007 155.455 79.8464C156.651 82.6323 157.299 85.5675 157.349 88.6021C157.598 102.83 145.042 113.924 130.891 112.034C117.14 110.193 108.022 96.7609 111.459 83.3785C114.997 69.5485 129.546 62.1857 142.849 67.459C144.444 68.1058 145.64 67.7575 146.138 66.5138C146.636 65.2701 146.038 64.2254 144.394 63.5786C139.81 61.738 135.027 61.0912 130.144 61.8375C116.99 63.8274 107.573 74.0756 106.577 87.3584C105.63 99.9945 114.15 112.034 126.357 115.367C128.151 115.864 130.044 116.163 131.838 116.561V149.992C131.589 149.643 131.439 149.494 131.29 149.295C124.713 141.137 116.293 138.102 105.979 140.142C104.783 140.39 104.085 140.987 103.737 142.181C100.747 154.021 107.224 166.508 118.684 170.787H118.634ZM142.102 149.445C146.935 144.768 152.814 142.977 159.491 143.873C160.089 143.972 160.338 144.171 160.438 144.768C162.381 157.205 152.814 168.548 139.76 168.2C139.611 168.2 139.511 168.2 139.212 168.1C139.561 167.752 139.76 167.453 140.009 167.254C142.501 164.767 145.042 162.23 147.533 159.742C147.732 159.543 147.981 159.295 148.181 159.046C148.978 158.101 148.978 156.907 148.181 156.111C147.334 155.265 146.088 155.265 145.141 156.111C143.597 157.603 142.102 159.145 140.607 160.638C139.162 162.081 137.767 163.523 136.322 164.916C135.924 158.797 137.767 153.524 142.102 149.345V149.445ZM107.424 144.917C107.523 144.32 107.673 144.022 108.37 143.873C120.827 141.684 132.486 152.031 131.838 164.668C131.838 164.717 131.838 164.817 131.838 164.867C131.689 164.966 131.589 165.115 131.439 165.215C131.24 164.867 131.091 164.419 130.792 164.17C128.201 161.533 125.56 158.897 122.919 156.31C122.072 155.464 121.026 155.315 120.129 155.912C119.332 156.409 118.933 157.404 119.282 158.3C119.481 158.747 119.83 159.195 120.179 159.543C122.72 162.13 125.311 164.717 127.902 167.304C128.151 167.553 128.35 167.802 128.749 168.2C126.407 168.399 124.314 168.15 122.272 167.603C112.257 164.916 105.879 155.215 107.473 144.967L107.424 144.917Z" fill="#5FB257"/>
<path d="M150.423 174.318H138.415C135.326 173.821 132.486 173.821 129.696 174.318H117.389C116.592 174.318 115.844 173.821 115.595 173.025C115.446 172.528 115.495 172.03 115.744 171.582C104.883 166.259 98.8039 153.573 101.843 141.683C102.192 140.39 103.089 138.748 105.53 138.251C115.147 136.36 123.318 138.649 129.895 145.017L129.696 118.003C128.4 117.754 127.105 117.506 125.809 117.158C112.755 113.625 103.687 100.741 104.683 87.2089C105.73 73.0306 115.844 62.1357 129.795 59.9965C134.927 59.2006 140.059 59.8473 144.992 61.8372C147.932 63.0312 148.48 65.3694 147.732 67.2101C147.035 68.9015 145.191 70.4437 142.052 69.2C136.173 66.8618 129.646 67.1603 124.165 69.9462C118.634 72.7819 114.698 77.707 113.154 83.8758C111.659 89.6964 112.755 95.9647 116.143 100.989C119.581 106.064 124.962 109.397 131.041 110.242C137.269 111.088 143.547 109.198 148.231 105.019C152.914 100.89 155.505 94.9199 155.405 88.7511C155.405 86.015 154.758 83.3286 153.662 80.6919C152.914 78.9009 153.263 77.1597 154.608 76.1648C155.555 75.4683 157.1 74.9211 158.345 75.3191C159.641 75.717 160.637 76.9608 161.086 78.0055C164.125 85.4677 164.175 92.8803 161.185 99.9943C156.9 110.292 149.078 116.411 137.967 118.152V145.166C144.544 138.798 152.665 136.51 162.232 138.35C164.324 138.748 165.62 140.042 166.118 142.131C168.808 154.27 162.929 166.359 151.968 171.732C152.167 172.13 152.217 172.577 152.067 172.975C151.818 173.771 151.27 174.418 150.423 174.418V174.318ZM133.931 170.239C135.525 170.239 137.12 170.388 138.764 170.637H146.586C146.736 170.14 147.134 169.692 147.633 169.493L148.48 169.095C159.242 164.916 164.972 154.121 162.431 142.877C162.281 142.181 162.082 142.032 161.484 141.932C151.918 140.092 144.294 142.877 138.166 150.389L137.767 150.887C137.269 151.484 136.322 151.832 135.575 151.583C134.828 151.335 134.23 150.738 134.23 149.991V116.511C134.23 115.566 134.927 114.819 135.824 114.67L137.12 114.471C147.035 112.979 153.961 107.606 157.747 98.5018C160.338 92.333 160.288 85.8657 157.648 79.3487C157.548 79.1497 157.349 78.9009 157.199 78.8014C157.249 78.8512 157 78.9507 156.85 79.0999C158.395 82.2838 159.093 85.4677 159.142 88.6516C159.292 95.9647 156.203 102.929 150.722 107.805C145.191 112.68 137.817 114.919 130.543 113.974C123.467 113.028 117.09 109.049 113.054 103.128C109.068 97.2084 107.772 89.8954 109.516 83.0301C111.31 75.916 116.043 69.996 122.471 66.7126C128.898 63.4292 136.571 63.0809 143.447 65.8171C144.045 66.0658 144.294 65.9663 144.294 65.9663C144.294 65.7673 144.145 65.5684 143.597 65.3694C139.262 63.6282 134.778 63.0809 130.343 63.7277C118.136 65.5684 109.317 75.1698 108.37 87.5572C107.523 99.3476 115.396 110.541 126.756 113.625C127.952 113.974 129.197 114.173 130.393 114.421L132.137 114.77C132.984 114.969 133.632 115.715 133.632 116.61V150.041C133.632 150.837 133.134 151.534 132.386 151.782C131.639 152.031 130.792 151.782 130.293 151.185L129.995 150.787C123.617 142.877 115.944 140.092 106.278 141.982C105.73 142.081 105.63 142.231 105.53 142.678C102.79 153.524 108.819 165.165 119.332 169.095C119.581 169.194 119.83 169.294 120.029 169.393C120.528 169.642 120.926 170.09 121.076 170.637H129.496C130.941 170.388 132.436 170.289 133.981 170.289L133.931 170.239ZM127.105 170.14C125.361 170.14 123.617 169.891 121.724 169.393C110.812 166.508 103.836 155.862 105.53 144.668C105.829 142.828 107.025 142.231 107.972 142.081C114.449 140.937 121.076 142.877 126.158 147.355C131.24 151.832 133.981 158.2 133.632 164.817C133.632 164.916 133.632 165.165 133.582 165.314C133.482 165.662 133.283 166.06 132.984 166.309L132.585 166.657C132.187 167.005 131.589 167.204 131.041 167.105C130.493 167.005 129.995 166.707 129.745 166.209C129.745 166.209 129.496 165.812 129.496 165.762C126.756 162.876 124.115 160.24 121.474 157.653C121.225 157.404 121.126 157.454 121.026 157.504C120.976 157.703 121.026 157.901 121.425 158.299L129.745 166.657C130.244 167.155 130.493 168.1 130.244 168.747C129.995 169.393 129.546 170.04 128.799 170.09C128.201 170.14 127.603 170.189 127.055 170.189L127.105 170.14ZM109.217 145.663C108.022 154.817 113.801 163.374 122.72 165.762C123.168 165.861 123.617 165.961 124.015 166.06L118.834 160.837C118.186 160.19 117.787 159.593 117.538 158.946C116.841 157.255 117.538 155.315 119.083 154.27C120.727 153.225 122.72 153.474 124.165 154.917C126.009 156.757 127.852 158.598 129.696 160.439C128.998 156.509 126.905 152.877 123.766 150.091C119.681 146.459 114.399 144.867 109.217 145.614V145.663ZM140.308 170.14C140.308 170.14 139.91 170.14 139.71 170.14C139.611 170.14 139.262 170.14 139.162 170.09C138.465 169.99 137.767 169.493 137.568 168.846C137.369 168.199 137.369 167.453 137.817 166.956L138.664 166.06L146.188 158.548C146.487 158.25 146.636 158.15 146.736 158.001C145.341 158.697 144.294 159.742 143.198 160.837L137.618 166.458C137.12 166.956 136.322 167.155 135.625 166.906C134.927 166.657 134.479 166.011 134.429 165.264C133.981 158.498 136.123 152.777 140.807 148.25C145.988 143.226 152.366 141.186 159.74 142.181C161.185 142.38 162.082 143.226 162.281 144.619C163.328 151.185 161.384 157.802 157.05 162.727C152.864 167.503 146.786 170.189 140.308 170.189V170.14ZM146.736 153.723C147.732 153.723 148.729 154.121 149.526 154.917C151.021 156.409 151.021 158.697 149.626 160.389C149.426 160.638 149.227 160.837 148.978 161.036L143.946 166.06C148.031 165.314 151.569 163.324 154.259 160.24C157.747 156.26 159.342 151.036 158.694 145.763C152.665 145.066 147.683 146.758 143.447 150.887C140.657 153.573 138.963 156.757 138.415 160.439L140.607 158.2C141.703 157.106 142.8 156.011 143.896 154.966C144.743 154.17 145.739 153.772 146.736 153.772V153.723Z" fill="#5FB257"/>
<path d="M131.838 104.073C129.596 103.974 127.702 103.228 125.958 102.084C124.763 101.288 124.414 100.094 125.111 99.0489C125.759 98.0539 126.955 97.8052 128.151 98.5016C129.297 99.1484 130.393 99.8449 131.838 99.7951C131.838 96.9097 131.738 94.0243 131.838 91.1389C131.937 89.6464 131.439 88.9499 130.094 88.353C127.005 86.96 125.211 84.5721 125.56 81.0399C125.958 77.2591 128.051 74.8214 131.439 73.9259C131.838 72.6822 132.087 71.5877 132.585 70.6425C132.735 70.2943 133.482 70.145 133.98 70.145C135.375 70.145 135.824 70.941 136.073 73.7269C137.368 74.3239 138.614 74.7716 139.81 75.4184C141.205 76.1646 141.604 77.4083 140.906 78.5525C140.258 79.647 139.013 79.7962 137.717 79.05C137.219 78.8013 136.721 78.5525 136.023 78.2043C136.023 80.1445 136.173 81.9354 136.023 83.6766C135.824 85.567 136.272 86.562 138.265 87.358C141.554 88.6017 143.248 91.3379 143.148 94.87C143.049 98.8001 141.056 101.686 137.468 103.377C137.069 103.576 136.621 103.675 136.073 103.874C136.073 104.521 136.073 105.168 136.073 105.815C136.023 107.009 135.126 107.904 134.03 107.904C132.884 107.904 131.937 107.009 131.888 105.765C131.888 105.218 131.888 104.72 131.888 104.073H131.838ZM136.123 99.1981C137.966 98.6509 139.112 96.0142 138.913 94.472C138.714 92.6313 137.667 91.3379 136.123 91.0891V99.1981ZM131.838 78.4033C130.443 79.05 129.695 80.3932 129.745 81.9354C129.795 83.1791 130.393 83.8756 131.838 84.3731V78.4033Z" fill="#28663D"/>
<path d="M154.011 71.0407C154.011 72.2346 153.163 73.1301 152.018 73.1798C150.822 73.1798 149.825 72.2844 149.825 71.0904C149.825 69.9462 150.772 69.001 151.918 69.001C153.064 69.001 154.011 69.8964 154.011 71.0407Z" fill="#5FB257"/>
</g>
<defs>
<clipPath id="clip0_176_4073">
<rect width="271" height="178" fill="white"/>
</clipPath>
</defs>
</svg>
