<?xml version="1.0" encoding="utf-8"?>
<!-- Generator: Adobe Illustrator 26.5.0, SVG Export Plug-In . SVG Version: 6.00 Build 0)  -->
<svg version="1.1" id="Layer_1" xmlns="http://www.w3.org/2000/svg" xmlns:xlink="http://www.w3.org/1999/xlink" x="0px" y="0px"
	 viewBox="0 0 527 661" style="enable-background:new 0 0 527 661;" xml:space="preserve">
<style type="text/css">
	.st0{fill:#00A100;}
	.st1{fill:#00E100;}
	.st2{fill:#00FF02;}
	.st3{fill:#00D57C;}
	.st4{fill:#FFFFFF;}
	.st5{fill:#00FF00;}
	.st6{fill:#DAEDBD;}
	.st7{fill:#6FFF77;}
	.st8{fill:#ABFF83;}
	.st9{fill:#00C100;}
	.st10{fill:#ED1C24;}
	.st11{fill-rule:evenodd;clip-rule:evenodd;fill:#00DA00;}
	.st12{fill:#00DA00;}
	.st13{fill-rule:evenodd;clip-rule:evenodd;fill:#00D57C;}
	.st14{fill:#00ECAA;}
	.st15{fill:none;}
	.st16{clip-path:url(#SVGID_00000066496780043241827470000013932674236732642487_);fill:#00DA00;}
	.st17{fill:#858E37;}
	.st18{fill:#00AD11;}
	.st19{fill-rule:evenodd;clip-rule:evenodd;fill:#00AD11;}
	.st20{fill-rule:evenodd;clip-rule:evenodd;fill:#8BE8A1;}
	.st21{fill:#43434B;}
</style>
<path class="st11" d="M285.14,619.82c24.93-43.44,51.75-96.63,89.76-84.89c52.64,16.29,76.9,4.88,68.48-60.62
	c2.77-3.88,5.1-6.43,7.42-8.98c4.54-4.99,5.21-12.19,1.44-17.84c-1.55-2.33-3.1-4.88-4.54-7.42c4.88-0.89,14.41-4.32,16.84-8.75
	c2.1-3.77,2.44-7.87,1-11.97c-7.76-21.72,25.71-16.95,35.35-22.71c22.72-4.99-26.04-87.32-30.58-107.71c0,0,2.99-4.21,9.09-12.74
	c8.64-37.35,4.43-69.37-5.98-98.96C390.3-60.14-57.17-9.16,74.26,339.79c-0.44-13.96-2.1-28.15-4.99-42.66
	c-7.31-36.46-2.99-75.57,14.85-111.48c42.77-86.43,147.49-121.79,233.93-78.9c86.44,42.77,121.78,147.49,78.9,233.93
	c-17.84,35.91-46.32,63.05-79.79,79.34c-50.42,24.6-86.66,60.5-111.48,110.81l-0.11,0.22L89.99,473.76c-2,4.65-4.32,9.2-6.98,13.63
	c-9.64,16.4,4.21,20.06,8.2,22.61l179.3,113.58C273.61,625.46,279.93,628.68,285.14,619.82L285.14,619.82z M75.03,573.39
	l62.72,31.03l-4.32,8.75c-3.21,6.43-8.42,10.64-15.29,12.41c-6.87,1.77-13.52,0.55-19.39-3.44l-30.92-21.5
	c-2.44-1.66-3.1-5.76-1.11-9.97L75.03,573.39z M68.28,517.76l115.91,57.4l-19.39,39.11L63.07,551.44c-4.65-2.88-6.87-8.42-4.54-13.3
	l9.64-20.39H68.28z"/>
<path class="st13" d="M289.13,155.84l7.65-16.18c-31.91-14.07-66.6-14.96-97.63-4.65c-20.17,6.76-38.9,18.18-54.19,33.69l-17.4-9.31
	c18.06-19.84,40.78-34.24,65.6-42.44c37.68-12.52,80.01-10.64,118.24,8.53c3.55,1.77,6.87,3.66,10.2,5.65l-4.65,9.75l-11.19,23.82
	c23.38,14.96,39.89,37.12,48.2,62.06c6.1,18.51,7.76,38.45,4.1,58.18l-17.95-9.2c1.77-14.63,0.22-29.26-4.32-42.99
	c-7.98-24.05-25.15-45.1-49.53-57.29c-1.77-0.89-3.55-1.66-5.21-2.44l3.66-7.65l2.22-4.77l2.33-4.88L289.13,155.84z"/>
<path class="st13" d="M369.02,311.76l-15.96-8.2l0,0l-17.18-8.75c-1.55,4.65-3.44,9.2-5.65,13.63c-4.88,9.75-11.3,18.62-18.95,26.15
	c-7.65,7.54-16.51,13.85-26.37,18.51c-22.94,11.08-43.88,23.94-62.83,38.68c-19.06,14.85-36.24,31.58-51.42,50.2l-0.33,0.33
	c-10.42,13.96-14.74,22.05-19.95,31.58l-0.33,0.67l16.84,9.08l0.33-0.67c4.77-8.86,8.87-16.4,18.4-29.26
	c14.3-17.51,30.36-33.14,48.2-46.99c17.95-13.96,37.79-26.15,59.29-36.57c11.75-5.65,22.38-13.19,31.47-22.16
	c8.09-7.98,15.07-17.17,20.72-27.48l23.49,12.08l0,0l9.31,4.77c0.78-1.33,1.44-2.66,2.1-4.1c19.17-38.23,21.05-80.67,8.53-118.24
	c-9.42-28.48-27.15-54.19-51.75-73.36l-8.31,17.73c19.84,16.51,34.13,38.01,42,61.61c9.53,28.7,9.53,60.62-1.77,90.53L369.02,311.76
	z"/>
<path class="st13" d="M119.8,176.56l28.59,15.29c14.63-18.95,34.35-32.58,56.18-39.78c21.17-6.98,44.21-8.09,66.6-2.33l-8.31,17.62
	c-17.62-3.88-35.68-2.77-52.3,2.77c-23.05,7.65-43.22,23.72-55.74,46.43l-7.2-3.77l-25.38-13.52c-0.67,1.33-1.33,2.55-2,3.88
	c-6.76,13.52-11.19,27.81-13.19,42.44c-2,14.52-1.66,29.48,1.22,44.33c5.32,27.37,7.09,54.19,5.21,80.34
	c-1.88,26.26-7.43,51.97-16.62,77.24l-17.95-6.54c8.64-23.72,13.74-47.65,15.51-72.14c1.77-24.49,0.11-49.54-4.88-75.35
	c-3.21-16.84-3.66-33.8-1.33-50.53c2.33-16.62,7.31-32.91,15.07-48.31c3.55-7.2,7.65-13.96,12.19-20.28l4.32,2.33v-0.11
	L119.8,176.56z"/>
<path class="st13" d="M110.94,455.92c2.55-5.54,4.54-9.86,6.43-15.07c1.88-4.88,3.55-10.31,5.65-17.95l0,0
	c5.54-22.05,8.53-44.33,8.98-67.04c0.44-22.71-1.55-45.88-6.21-69.48c-2.44-12.74-2.77-25.82-1-38.45
	c1.11-7.87,2.99-15.63,5.65-23.16l17.07,9.08c-1.77,5.43-2.99,11.08-3.77,16.73c-1.44,10.53-1.22,21.39,0.89,32.25
	c4.88,24.93,6.98,49.31,6.54,73.47c-0.44,24.16-3.66,47.98-9.53,71.26l-0.11,0.11c-2.22,8.42-4.21,14.52-6.32,20.06
	c-2,5.21-4.21,10.09-6.98,16.07L110.94,455.92z"/>
<path class="st13" d="M181.3,489.83c14.85-22.61,32.14-42.33,51.97-59.51c19.84-17.07,42.22-31.69,67.6-43.88
	c13.52-6.54,25.71-15.18,36.24-25.48c5.1-4.99,9.75-10.42,13.96-16.18l17.18,8.75c-5.32,7.54-11.19,14.52-17.73,20.83
	c-11.97,11.75-25.93,21.61-41.33,29.03c-23.6,11.3-44.66,25.04-63.27,41.23c-18.62,16.07-34.8,34.58-48.54,55.52l-15.96-10.42
	L181.3,489.83z"/>
</svg>
