<?xml version="1.0" encoding="UTF-8"?>
<svg xmlns="http://www.w3.org/2000/svg" xmlns:xlink="http://www.w3.org/1999/xlink" width="361px" height="300px" viewBox="0 0 361 300" version="1.1">
<g id="surface1">
<path style=" stroke:none;fill-rule:nonzero;fill:rgb(70.196078%,100%,68.235294%);fill-opacity:1;" d="M 83.230469 165.96875 C 80.3125 85.300781 140.378906 16.628906 203.101562 16.628906 C 211.527344 16.628906 219.691406 17.707031 227.523438 19.773438 C 213.1875 11.664062 197.324219 7.03125 180.597656 7.03125 C 118.011719 7.03125 67.300781 70.242188 67.300781 148.179688 C 67.300781 193.4375 84.425781 233.644531 110.976562 259.460938 C 94.582031 233.644531 84.492188 200.964844 83.230469 165.96875 Z M 83.230469 165.96875 "/>
<path style=" stroke:none;fill-rule:nonzero;fill:rgb(37.254902%,69.803922%,34.117647%);fill-opacity:1;" d="M 8.761719 95.476562 C 8.761719 78.765625 8.761719 62.050781 8.761719 45.339844 C 8.761719 25.484375 17.457031 14.644531 33.320312 14.644531 C 64.515625 14.644531 75.730469 14.644531 106.925781 14.644531 C 106.394531 12.164062 106.261719 9.433594 106.59375 6.867188 C 75.066406 6.867188 63.453125 6.867188 31.925781 6.867188 C 14.535156 6.867188 2.589844 21.84375 2.589844 43.683594 C 2.589844 62.464844 2.589844 81.328125 2.589844 100.109375 C 2.589844 107.226562 2.65625 107.390625 8.097656 108.796875 C 24.558594 113.183594 41.019531 117.566406 57.414062 121.953125 C 57.347656 119.304688 57.675781 116.65625 58.472656 114.257812 C 41.949219 109.875 25.355469 105.40625 8.761719 101.019531 Z M 8.761719 95.476562 "/>
<path style=" stroke:none;fill-rule:nonzero;fill:rgb(37.254902%,69.803922%,34.117647%);fill-opacity:1;" d="M 57.347656 125.097656 C 57.347656 125.097656 57.015625 125.097656 56.816406 125.097656 L 7.5 111.941406 C 0.929688 110.121094 0 108.714844 0 100.109375 L 0 82.734375 C 0 69.746094 0 56.675781 0 43.683594 C 0 20.1875 13.140625 3.804688 31.859375 3.804688 L 106.527344 3.804688 C 107.257812 3.804688 107.921875 4.21875 108.453125 4.882812 C 108.917969 5.542969 109.117188 6.453125 108.984375 7.363281 C 108.71875 9.515625 108.785156 11.75 109.25 13.816406 C 109.449219 14.726562 109.25 15.71875 108.851562 16.546875 C 108.453125 17.375 107.65625 17.789062 106.859375 17.789062 L 33.320312 17.789062 C 18.917969 17.789062 11.285156 27.304688 11.285156 45.421875 L 11.285156 98.539062 L 59.003906 111.28125 C 59.734375 111.445312 60.332031 112.023438 60.664062 112.851562 C 60.996094 113.679688 61.0625 114.589844 60.730469 115.5 C 60.066406 117.484375 59.800781 119.71875 59.867188 121.953125 C 59.867188 122.945312 59.601562 123.855469 59.003906 124.433594 C 58.539062 124.929688 58.007812 125.179688 57.414062 125.179688 Z M 72.28125 10.011719 L 31.859375 10.011719 C 15.796875 10.011719 5.042969 23.578125 4.976562 43.683594 C 4.976562 56.675781 4.976562 69.746094 4.976562 82.734375 L 4.976562 100.109375 C 4.976562 101.929688 4.976562 104.164062 5.175781 104.660156 C 5.441406 104.910156 7.234375 105.40625 8.496094 105.738281 L 54.957031 118.148438 C 54.957031 117.648438 55.089844 117.070312 55.15625 116.574219 L 8.097656 104 C 6.96875 103.667969 6.105469 102.425781 6.105469 100.9375 L 6.105469 45.339844 C 6.105469 23.828125 15.996094 11.5 33.121094 11.5 L 103.9375 11.5 C 103.9375 11.003906 103.9375 10.425781 103.9375 9.929688 L 72.347656 9.929688 Z M 72.28125 10.011719 "/>
<path style=" stroke:none;fill-rule:nonzero;fill:rgb(37.254902%,69.803922%,34.117647%);fill-opacity:1;" d="M 358.410156 43.4375 C 358.410156 22.007812 346.332031 6.949219 329.207031 6.949219 C 297.878906 6.949219 286.53125 6.949219 255.203125 6.949219 C 255.601562 9.515625 255.535156 12.164062 255.003906 14.726562 C 285.800781 14.726562 296.683594 14.726562 327.480469 14.726562 C 328.675781 14.726562 329.804688 14.726562 331 14.726562 C 342.015625 15.222656 351.574219 25.8125 351.972656 39.464844 C 352.503906 59.902344 352.105469 80.253906 352.105469 101.101562 C 335.578125 105.488281 319.050781 109.957031 302.59375 114.339844 C 303.390625 116.738281 303.71875 119.46875 303.652344 122.117188 C 320.179688 117.734375 336.640625 113.347656 353.167969 108.964844 C 356.953125 107.96875 358.609375 106.066406 358.542969 100.855469 C 358.277344 81.742188 358.476562 62.546875 358.410156 43.4375 Z M 358.410156 43.4375 "/>
<path style=" stroke:none;fill-rule:nonzero;fill:rgb(37.254902%,69.803922%,34.117647%);fill-opacity:1;" d="M 303.585938 125.179688 C 302.992188 125.179688 302.460938 124.929688 301.996094 124.433594 C 301.398438 123.773438 301.066406 122.863281 301.132812 121.953125 C 301.199219 119.71875 300.933594 117.484375 300.269531 115.5 C 300.003906 114.671875 300.003906 113.679688 300.335938 112.851562 C 300.667969 112.023438 301.265625 111.445312 301.996094 111.28125 L 349.515625 98.539062 C 349.515625 93.078125 349.515625 87.699219 349.515625 82.320312 C 349.582031 68.257812 349.648438 53.695312 349.320312 39.464844 C 349.054688 27.964844 340.691406 18.203125 330.800781 17.789062 C 329.9375 17.789062 329.074219 17.789062 328.210938 17.789062 L 254.871094 17.789062 C 254.074219 17.789062 253.410156 17.375 252.945312 16.628906 C 252.480469 15.886719 252.28125 14.890625 252.480469 13.980469 C 252.878906 11.914062 252.945312 9.679688 252.613281 7.527344 C 252.480469 6.617188 252.613281 5.707031 253.144531 4.964844 C 253.675781 4.21875 254.339844 3.886719 255.070312 3.886719 L 283.078125 3.886719 C 283.078125 3.886719 329.074219 3.886719 329.074219 3.886719 C 347.660156 3.886719 360.734375 20.1875 360.800781 43.519531 C 360.800781 50.054688 360.800781 56.507812 360.800781 63.042969 C 360.800781 75.621094 360.800781 88.277344 360.933594 100.855469 C 361 107.226562 358.742188 110.699219 353.632812 112.023438 C 337.96875 116.160156 322.304688 120.296875 306.640625 124.515625 L 304.117188 125.179688 C 304.117188 125.179688 303.785156 125.179688 303.585938 125.179688 Z M 305.710938 116.65625 C 305.777344 117.152344 305.910156 117.734375 305.910156 118.3125 C 321.441406 114.175781 337.039062 110.039062 352.570312 105.902344 C 355.425781 105.15625 356.023438 104.328125 355.957031 100.855469 C 355.824219 88.195312 355.824219 75.539062 355.824219 62.878906 C 355.824219 56.34375 355.824219 49.890625 355.824219 43.355469 C 355.824219 23.664062 344.804688 9.929688 329.074219 9.929688 L 283.078125 9.929688 C 283.078125 9.929688 257.789062 9.929688 257.789062 9.929688 C 257.789062 10.425781 257.789062 11.003906 257.789062 11.5 L 328.277344 11.5 C 329.207031 11.5 330.136719 11.5 331.066406 11.5 C 343.808594 12.078125 354.03125 24.242188 354.429688 39.214844 C 354.761719 53.53125 354.695312 68.175781 354.628906 82.320312 C 354.628906 88.527344 354.628906 94.734375 354.628906 101.019531 C 354.628906 102.507812 353.832031 103.75 352.636719 104.082031 L 305.777344 116.574219 Z M 305.710938 116.65625 "/>
<path style=" stroke:none;fill-rule:nonzero;fill:rgb(37.254902%,69.803922%,34.117647%);fill-opacity:1;" d="M 111.835938 291.148438 C 111.835938 289.824219 111.835938 288.5 111.96875 287.175781 C 78.917969 287.175781 65.773438 287.175781 32.65625 287.175781 C 17.65625 287.175781 8.695312 276.007812 8.695312 257.144531 C 8.695312 213.542969 8.695312 169.9375 8.695312 126.335938 L 8.695312 120.378906 L 2.523438 120.378906 L 2.523438 125.675781 C 2.523438 169.441406 2.523438 213.210938 2.523438 256.976562 C 2.523438 280.390625 14.203125 294.953125 32.921875 294.953125 C 65.972656 294.953125 79.183594 294.953125 112.234375 294.953125 C 112.035156 293.710938 111.902344 292.472656 111.835938 291.148438 Z M 111.835938 291.148438 "/>
<path style=" stroke:none;fill-rule:nonzero;fill:rgb(37.254902%,69.803922%,34.117647%);fill-opacity:1;" d="M 82.433594 298.015625 L 32.855469 298.015625 C 12.941406 298.015625 0 281.882812 0 256.976562 L 0 120.378906 C 0 118.644531 1.128906 117.238281 2.523438 117.238281 L 8.761719 117.238281 C 10.15625 117.238281 11.285156 118.644531 11.285156 120.378906 L 11.285156 257.144531 C 11.285156 274.269531 19.117188 284.03125 32.722656 284.03125 L 112.035156 284.03125 C 112.765625 284.03125 113.429688 284.445312 113.894531 285.109375 C 114.359375 285.769531 114.558594 286.679688 114.492188 287.589844 C 114.359375 288.664062 114.292969 289.824219 114.359375 290.980469 C 114.359375 292.140625 114.558594 293.296875 114.691406 294.375 C 114.824219 295.285156 114.691406 296.195312 114.160156 296.9375 C 113.628906 297.683594 112.964844 298.015625 112.234375 298.015625 Z M 4.976562 123.441406 L 4.976562 256.976562 C 4.976562 278.820312 15.398438 291.808594 32.855469 291.808594 L 109.316406 291.808594 C 109.316406 291.808594 109.316406 291.394531 109.316406 291.230469 C 109.316406 291.230469 109.316406 290.566406 109.316406 290.238281 L 32.65625 290.238281 C 16.328125 290.238281 6.238281 277.578125 6.238281 257.144531 L 6.238281 123.441406 Z M 4.976562 123.441406 "/>
<path style=" stroke:none;fill-rule:nonzero;fill:rgb(37.254902%,69.803922%,34.117647%);fill-opacity:1;" d="M 352.171875 120.464844 L 352.171875 126.585938 C 352.171875 170.1875 352.171875 213.789062 352.171875 257.390625 C 352.171875 275.839844 343.144531 287.175781 328.410156 287.175781 C 296.417969 287.175781 284.339844 287.175781 252.347656 287.175781 C 252.546875 288.5 252.679688 289.824219 252.746094 291.148438 C 252.746094 292.472656 252.746094 293.710938 252.613281 294.953125 C 284.472656 294.953125 296.417969 294.953125 328.277344 294.953125 C 346.730469 294.953125 358.476562 280.308594 358.476562 257.226562 C 358.476562 213.292969 358.476562 169.359375 358.476562 125.425781 L 358.476562 120.464844 Z M 352.171875 120.464844 "/>
<path style=" stroke:none;fill-rule:nonzero;fill:rgb(37.254902%,69.803922%,34.117647%);fill-opacity:1;" d="M 328.210938 298.015625 L 252.546875 298.015625 C 251.816406 298.015625 251.152344 297.601562 250.6875 296.9375 C 250.222656 296.277344 250.023438 295.367188 250.089844 294.457031 C 250.222656 293.382812 250.222656 292.304688 250.222656 291.230469 C 250.222656 289.988281 250.023438 288.832031 249.890625 287.671875 C 249.757812 286.761719 249.890625 285.851562 250.421875 285.109375 C 250.886719 284.363281 251.617188 283.949219 252.347656 283.949219 L 328.410156 283.949219 C 341.753906 283.949219 349.648438 274.019531 349.648438 257.308594 L 349.648438 120.464844 C 349.648438 118.726562 350.777344 117.320312 352.171875 117.320312 L 358.410156 117.320312 C 359.804688 117.320312 360.933594 118.726562 360.933594 120.464844 L 360.933594 257.226562 C 360.933594 282.046875 348.125 298.015625 328.277344 298.015625 Z M 255.203125 291.808594 L 328.210938 291.808594 C 345.269531 291.808594 355.890625 278.570312 355.890625 257.226562 L 355.890625 123.523438 C 355.890625 123.523438 354.628906 123.523438 354.628906 123.523438 L 354.628906 257.390625 C 354.628906 277.660156 344.539062 290.238281 328.34375 290.238281 L 255.136719 290.238281 C 255.136719 290.238281 255.136719 290.734375 255.136719 290.980469 C 255.136719 291.230469 255.136719 291.5625 255.136719 291.808594 Z M 255.203125 291.808594 "/>
<path style=" stroke:none;fill-rule:nonzero;fill:rgb(37.254902%,69.803922%,34.117647%);fill-opacity:1;" d="M 64.980469 149.007812 C 64.980469 69.582031 117.015625 4.882812 180.730469 5.128906 C 244.316406 5.296875 296.019531 69.996094 295.953125 149.253906 C 295.953125 228.683594 243.851562 293.382812 180.203125 293.132812 C 116.617188 292.882812 64.914062 228.269531 64.980469 149.007812 Z M 289.714844 149.253906 C 289.78125 74.296875 240.867188 13.070312 180.730469 12.90625 C 120.597656 12.742188 71.417969 73.71875 71.21875 148.675781 C 71.019531 223.882812 120.132812 285.273438 180.402344 285.355469 C 240.535156 285.355469 289.648438 224.296875 289.714844 149.339844 Z M 289.714844 149.253906 "/>
<path style=" stroke:none;fill-rule:nonzero;fill:rgb(37.254902%,69.803922%,34.117647%);fill-opacity:1;" d="M 180.53125 296.195312 L 180.203125 296.195312 C 115.222656 295.945312 62.457031 229.921875 62.523438 149.007812 C 62.523438 109.707031 74.867188 72.808594 97.300781 45.007812 C 119.601562 17.210938 149.140625 1.984375 180.46875 1.984375 L 180.796875 1.984375 C 245.777344 2.152344 298.542969 68.257812 298.476562 149.171875 C 298.476562 188.472656 286.132812 225.371094 263.699219 253.171875 C 241.398438 280.886719 211.859375 296.113281 180.53125 296.113281 Z M 67.5 149.007812 C 67.5 226.53125 118.011719 289.824219 180.269531 289.988281 L 180.597656 289.988281 C 210.601562 289.988281 238.875 275.34375 260.246094 248.871094 C 281.683594 222.226562 293.5 186.816406 293.566406 149.253906 C 293.566406 71.730469 243.054688 8.4375 180.796875 8.273438 C 150.863281 8.109375 122.257812 22.753906 100.820312 49.394531 C 79.382812 76.035156 67.566406 111.445312 67.5 149.007812 Z M 180.53125 288.417969 C 150.730469 288.417969 122.65625 273.855469 101.484375 247.378906 C 80.3125 220.90625 68.761719 185.824219 68.828125 148.675781 C 69.027344 72.0625 119.136719 9.761719 180.53125 9.761719 L 180.796875 9.761719 C 242.390625 9.929688 292.371094 72.476562 292.304688 149.253906 C 292.238281 225.953125 242.125 288.417969 180.597656 288.417969 Z M 180.53125 15.96875 C 121.792969 15.96875 73.9375 75.453125 73.804688 148.675781 C 73.738281 184.167969 84.824219 217.679688 105 242.996094 C 125.179688 268.3125 151.992188 282.210938 180.53125 282.210938 C 239.339844 282.210938 287.195312 222.558594 287.261719 149.253906 C 287.328125 75.953125 239.539062 16.132812 180.730469 15.96875 L 180.46875 15.96875 Z M 180.53125 15.96875 "/>
<path style=" stroke:none;fill-rule:nonzero;fill:rgb(37.254902%,69.803922%,34.117647%);fill-opacity:1;" d="M 197.722656 119.386719 C 197.722656 139.492188 197.789062 159.597656 197.65625 179.703125 C 197.65625 182.433594 196.925781 185.410156 195.800781 187.808594 C 192.015625 195.753906 187.96875 203.449219 183.984375 211.222656 C 181.660156 215.691406 179.539062 215.691406 177.214844 211.308594 C 172.898438 203.035156 168.652344 194.675781 164.539062 186.238281 C 163.808594 184.667969 163.410156 182.597656 163.410156 180.777344 C 163.410156 139.90625 163.34375 99.117188 163.410156 58.246094 C 163.410156 45.585938 170.976562 36.074219 180.730469 36.15625 C 190.289062 36.238281 197.722656 45.671875 197.789062 58.082031 C 197.855469 78.515625 197.789062 98.953125 197.789062 119.304688 Z M 180.53125 203.363281 C 184.25 196 187.636719 189.546875 190.820312 182.929688 C 191.351562 181.769531 191.417969 180.117188 191.417969 178.710938 C 191.417969 138.832031 191.417969 98.953125 191.417969 59.074219 C 191.417969 50.136719 186.839844 44.015625 180.46875 44.015625 C 174.09375 44.015625 169.515625 50.136719 169.515625 59.074219 C 169.515625 98.953125 169.515625 138.832031 169.515625 178.710938 C 169.515625 180.28125 169.714844 182.019531 170.3125 183.34375 C 173.429688 189.796875 176.75 196.167969 180.46875 203.449219 Z M 180.53125 203.363281 "/>
<path style=" stroke:none;fill-rule:nonzero;fill:rgb(37.254902%,69.803922%,34.117647%);fill-opacity:1;" d="M 180.46875 217.679688 C 177.480469 217.679688 175.621094 214.121094 175.023438 212.960938 C 170.710938 204.6875 166.460938 196.25 162.28125 187.808594 C 161.351562 185.90625 160.820312 183.34375 160.820312 180.695312 C 160.820312 139.824219 160.753906 99.035156 160.820312 58.164062 C 160.820312 51.128906 162.945312 44.675781 166.726562 39.960938 C 170.378906 35.410156 175.488281 32.929688 180.664062 33.011719 C 191.75 33.09375 200.113281 43.851562 200.179688 57.996094 C 200.179688 72.476562 200.179688 86.957031 200.179688 101.515625 L 200.179688 119.304688 C 200.179688 119.304688 200.179688 133.699219 200.179688 133.699219 C 200.179688 149.007812 200.179688 164.3125 200.113281 179.621094 C 200.113281 182.847656 199.316406 186.320312 197.921875 189.300781 C 194.339844 196.828125 190.488281 204.273438 186.707031 211.472656 L 185.976562 212.796875 C 185.378906 213.953125 183.453125 217.59375 180.46875 217.59375 Z M 180.46875 39.300781 C 176.550781 39.300781 172.898438 41.121094 170.179688 44.429688 C 167.324219 47.902344 165.730469 52.867188 165.730469 58.246094 C 165.730469 99.117188 165.730469 139.90625 165.730469 180.777344 C 165.730469 182.183594 165.996094 183.671875 166.460938 184.667969 C 170.578125 193.105469 174.824219 201.378906 179.140625 209.652344 C 179.871094 211.058594 180.335938 211.472656 180.46875 211.554688 C 180.46875 211.554688 180.996094 211.058594 181.726562 209.570312 L 182.390625 208.246094 C 186.109375 201.128906 189.957031 193.683594 193.476562 186.238281 C 194.40625 184.253906 195.003906 181.769531 195.003906 179.703125 C 195.136719 164.394531 195.136719 149.171875 195.070312 133.867188 L 195.070312 119.46875 C 195.070312 119.46875 195.070312 101.683594 195.070312 101.683594 C 195.070312 87.203125 195.070312 72.726562 195.070312 58.246094 C 195.070312 47.574219 188.761719 39.464844 180.53125 39.382812 L 180.402344 39.382812 Z M 180.46875 206.507812 C 179.605469 206.507812 178.808594 205.929688 178.34375 205.101562 L 175.289062 199.144531 C 172.769531 194.261719 170.445312 189.628906 168.1875 184.996094 C 167.390625 183.425781 167.058594 181.355469 167.058594 178.792969 C 167.058594 138.914062 167.058594 99.035156 167.058594 59.15625 C 167.058594 54.109375 168.386719 49.476562 170.777344 46.167969 C 173.230469 42.855469 176.683594 40.953125 180.46875 40.953125 C 188.230469 40.953125 193.875 48.648438 193.875 59.15625 C 193.875 99.035156 193.875 138.914062 193.875 178.792969 C 193.875 180.695312 193.742188 182.761719 192.878906 184.582031 C 190.488281 189.546875 187.96875 194.429688 185.3125 199.722656 L 182.523438 205.101562 C 182.058594 206.011719 181.261719 206.507812 180.402344 206.507812 Z M 180.46875 47.160156 C 178.011719 47.160156 175.953125 48.234375 174.425781 50.304688 C 172.832031 52.453125 171.972656 55.515625 171.972656 59.074219 C 171.972656 98.953125 171.972656 138.832031 171.972656 178.710938 C 171.972656 180.03125 172.105469 181.109375 172.4375 181.6875 C 174.691406 186.320312 177.015625 190.871094 179.472656 195.753906 L 180.402344 197.65625 L 181.0625 196.332031 C 183.71875 191.121094 186.175781 186.238281 188.5625 181.355469 C 188.695312 181.109375 188.828125 180.445312 188.828125 178.792969 C 188.828125 138.914062 188.828125 99.035156 188.828125 59.15625 C 188.828125 51.957031 185.445312 47.160156 180.402344 47.160156 Z M 180.46875 47.160156 "/>
<path style=" stroke:none;fill-rule:nonzero;fill:rgb(37.254902%,69.803922%,34.117647%);fill-opacity:1;" d="M 205.554688 116.65625 C 206.617188 114.257812 207.546875 112.355469 208.609375 110.121094 C 209.804688 110.867188 210.800781 111.527344 211.792969 112.191406 C 225.269531 121.953125 238.742188 131.714844 252.214844 141.5625 C 258.519531 146.113281 260.976562 158.851562 257.195312 166.628906 C 255.136719 170.765625 251.21875 173.332031 247.503906 172.007812 C 233.765625 167.125 220.15625 161.914062 206.21875 156.703125 C 206.882812 154.054688 207.480469 151.820312 208.144531 149.253906 C 220.6875 153.972656 232.96875 158.523438 245.246094 163.070312 C 247.636719 163.980469 250.355469 166.132812 252.015625 161.832031 C 253.542969 158.109375 252.148438 150.496094 249.691406 148.757812 C 238.476562 140.566406 227.257812 132.378906 216.042969 124.269531 C 212.65625 121.785156 209.339844 119.386719 205.621094 116.65625 Z M 205.554688 116.65625 "/>
<path style=" stroke:none;fill-rule:nonzero;fill:rgb(37.254902%,69.803922%,34.117647%);fill-opacity:1;" d="M 249.496094 175.398438 C 248.566406 175.398438 247.703125 175.234375 246.773438 174.902344 C 236.75 171.347656 226.792969 167.621094 216.707031 163.816406 L 205.421875 159.597656 C 204.757812 159.347656 204.226562 158.769531 203.960938 158.023438 C 203.628906 157.28125 203.5625 156.453125 203.828125 155.625 L 205.753906 148.261719 C 206.152344 146.691406 207.546875 145.78125 208.808594 146.195312 L 218.566406 149.835938 C 227.722656 153.308594 236.816406 156.703125 245.910156 160.011719 C 246.308594 160.175781 246.773438 160.34375 247.238281 160.589844 C 249.363281 161.5 249.363281 161.5 249.757812 160.425781 C 250.753906 157.859375 249.5625 152.234375 248.367188 151.40625 C 240.46875 145.613281 232.570312 139.824219 224.605469 134.113281 L 204.292969 119.304688 C 203.101562 118.476562 202.703125 116.574219 203.367188 115.085938 L 206.417969 108.550781 C 207.082031 107.058594 208.542969 106.5625 209.738281 107.308594 L 210.867188 108.054688 C 211.59375 108.550781 212.324219 108.964844 212.988281 109.460938 C 226.464844 119.222656 239.9375 128.984375 253.410156 138.832031 C 256.929688 141.394531 259.648438 146.195312 260.84375 151.984375 C 262.039062 157.859375 261.441406 163.734375 259.25 168.203125 C 257.0625 172.667969 253.277344 175.398438 249.496094 175.398438 Z M 209.339844 154.632812 L 218.167969 157.941406 C 228.1875 161.664062 238.144531 165.390625 248.167969 169.027344 C 250.621094 169.9375 253.476562 168.203125 255.070312 165.058594 C 256.53125 162.078125 256.929688 157.777344 256.066406 153.558594 C 255.269531 149.421875 253.34375 145.945312 250.953125 144.207031 C 237.480469 134.445312 224.007812 124.601562 210.535156 114.835938 C 210.203125 114.589844 209.9375 114.421875 209.605469 114.175781 L 209.007812 115.5 L 227.191406 128.738281 C 235.089844 134.527344 243.054688 140.238281 250.953125 146.027344 C 254.539062 148.675781 256.332031 157.941406 254.273438 163.238281 C 251.882812 169.277344 247.4375 167.292969 245.578125 166.464844 L 244.582031 166.050781 C 235.488281 162.660156 226.398438 159.265625 217.238281 155.875 L 209.804688 153.0625 L 209.40625 154.550781 Z M 209.339844 154.632812 "/>
<path style=" stroke:none;fill-rule:nonzero;fill:rgb(37.254902%,69.803922%,34.117647%);fill-opacity:1;" d="M 155.511719 116.65625 C 143.230469 125.511719 131.351562 134.199219 119.46875 142.800781 C 117.480469 144.292969 115.554688 146.027344 113.363281 147.1875 C 109.316406 149.253906 108.253906 152.8125 108.585938 157.941406 C 108.917969 163.980469 109.980469 165.222656 114.558594 163.570312 C 125.976562 159.347656 137.457031 154.964844 148.875 150.746094 C 150.132812 150.25 151.328125 149.835938 152.921875 149.339844 C 153.519531 151.738281 154.117188 153.972656 154.78125 156.617188 C 144.027344 160.671875 133.542969 164.644531 122.988281 168.617188 C 120 169.773438 117.015625 170.765625 114.027344 171.84375 C 110.511719 173.082031 107.589844 171.675781 105.132812 168.699219 C 100.15625 162.492188 101.417969 147.1875 107.457031 142.71875 C 122.191406 131.796875 137.058594 121.207031 152.257812 110.121094 C 153.253906 112.191406 154.25 114.175781 155.511719 116.738281 Z M 155.511719 116.65625 "/>
<path style=" stroke:none;fill-rule:nonzero;fill:rgb(37.254902%,69.803922%,34.117647%);fill-opacity:1;" d="M 111.503906 175.316406 C 108.585938 175.316406 105.796875 173.746094 103.34375 170.765625 C 100.421875 167.125 99.027344 160.921875 99.691406 154.136719 C 100.355469 147.765625 102.746094 142.386719 106.128906 139.90625 C 116.484375 132.292969 126.835938 124.765625 137.390625 117.152344 L 150.996094 107.308594 C 152.125 106.480469 153.652344 106.894531 154.382812 108.382812 L 157.632812 115.003906 C 157.964844 115.746094 158.097656 116.574219 157.898438 117.402344 C 157.765625 118.230469 157.304688 118.890625 156.773438 119.304688 L 120.730469 145.449219 C 120.132812 145.863281 119.535156 146.359375 118.875 146.855469 C 117.480469 148.015625 116.019531 149.171875 114.359375 150 C 111.636719 151.40625 110.84375 153.308594 111.109375 157.695312 C 111.242188 160.257812 111.503906 161.003906 111.636719 161.253906 C 111.636719 161.253906 112.234375 161.253906 113.894531 160.589844 C 121.527344 157.777344 129.160156 154.882812 136.726562 151.984375 L 152.191406 146.277344 C 153.519531 145.78125 154.847656 146.691406 155.246094 148.34375 L 157.105469 155.625 C 157.304688 156.453125 157.238281 157.28125 156.90625 158.023438 C 156.574219 158.769531 156.042969 159.347656 155.445312 159.515625 L 123.652344 171.511719 C 121.128906 172.421875 118.675781 173.332031 116.152344 174.242188 L 114.691406 174.738281 C 113.628906 175.152344 112.566406 175.316406 111.503906 175.316406 Z M 151.394531 114.257812 L 139.914062 122.613281 C 129.425781 130.226562 119.007812 137.753906 108.71875 145.367188 C 106.660156 146.855469 105.132812 150.578125 104.667969 155.046875 C 104.203125 159.761719 105.066406 164.230469 106.859375 166.464844 C 108.851562 168.945312 110.910156 169.691406 113.296875 168.863281 L 114.757812 168.367188 C 117.28125 167.457031 119.734375 166.628906 122.191406 165.636719 L 151.59375 154.550781 L 151.195312 153.144531 L 138.121094 158.023438 C 130.488281 160.921875 122.855469 163.734375 115.222656 166.628906 C 112.898438 167.457031 110.511719 168.035156 108.652344 166.382812 C 106.59375 164.644531 106.261719 161.253906 106.0625 158.273438 C 105.796875 153.804688 106.195312 147.601562 112.433594 144.375 C 113.761719 143.710938 114.957031 142.71875 116.21875 141.726562 C 116.882812 141.230469 117.546875 140.652344 118.210938 140.15625 L 151.992188 115.582031 L 151.328125 114.257812 Z M 151.394531 114.257812 "/>
<path style=" stroke:none;fill-rule:nonzero;fill:rgb(37.254902%,69.803922%,34.117647%);fill-opacity:1;" d="M 226.660156 223.054688 C 226.660156 219.414062 226.925781 216.269531 226.53125 213.292969 C 226.332031 211.886719 225.269531 210.230469 224.207031 209.40625 C 217.570312 204.273438 210.867188 199.394531 203.761719 194.097656 C 204.757812 191.945312 205.6875 189.960938 206.882812 187.3125 C 214.914062 193.269531 222.878906 198.980469 230.578125 205.101562 C 231.839844 206.09375 232.570312 208.90625 232.703125 210.976562 C 233.035156 214.949219 232.96875 219.085938 232.703125 223.136719 C 232.4375 228.183594 228.917969 231.742188 225.136719 230.5 C 214.117188 226.863281 203.234375 222.808594 192.082031 218.835938 C 192.679688 216.269531 193.210938 214.121094 193.808594 211.390625 C 204.558594 215.195312 215.246094 218.917969 226.53125 222.972656 Z M 226.660156 223.054688 "/>
<path style=" stroke:none;fill-rule:nonzero;fill:rgb(37.254902%,69.803922%,34.117647%);fill-opacity:1;" d="M 226.792969 233.894531 C 226.066406 233.894531 225.335938 233.8125 224.605469 233.5625 C 216.707031 230.914062 208.808594 228.101562 200.910156 225.289062 L 191.484375 221.898438 C 190.820312 221.648438 190.289062 221.152344 189.957031 220.40625 C 189.625 219.664062 189.558594 218.835938 189.757812 218.007812 L 191.484375 210.5625 C 191.882812 208.90625 193.210938 207.996094 194.539062 208.496094 L 224.140625 218.917969 C 224.140625 217.015625 224.140625 215.277344 224.007812 213.707031 C 224.007812 213.375 223.410156 212.464844 222.878906 212.050781 C 218.035156 208.328125 213.121094 204.6875 208.011719 200.882812 L 202.503906 196.746094 C 201.308594 195.835938 200.910156 194.015625 201.640625 192.527344 L 204.757812 185.742188 C 205.089844 184.996094 205.621094 184.5 206.285156 184.335938 C 206.949219 184.085938 207.613281 184.335938 208.210938 184.667969 L 214.25 189.132812 C 220.222656 193.519531 226.132812 197.902344 231.972656 202.539062 C 234.625 204.605469 235.15625 209.734375 235.222656 210.726562 C 235.488281 214.453125 235.488281 218.421875 235.222656 223.386719 C 235.023438 226.863281 233.632812 230.003906 231.507812 231.910156 C 230.113281 233.148438 228.453125 233.8125 226.726562 233.8125 Z M 195.269531 216.769531 L 202.238281 219.25 C 210.136719 222.0625 217.96875 224.875 225.867188 227.523438 C 227.125 227.9375 228.054688 227.441406 228.652344 226.945312 C 229.648438 226.117188 230.246094 224.628906 230.3125 222.972656 C 230.578125 218.421875 230.578125 214.699219 230.3125 211.390625 C 230.179688 209.652344 229.648438 208.082031 229.316406 207.75 C 223.609375 203.199219 217.703125 198.898438 211.792969 194.511719 L 207.878906 191.617188 L 207.214844 193.023438 L 210.667969 195.585938 C 215.777344 199.394531 220.753906 203.035156 225.601562 206.839844 C 227.125 207.996094 228.785156 210.3125 229.050781 212.878906 C 229.316406 215.277344 229.316406 217.511719 229.25 219.996094 C 229.25 220.988281 229.25 221.980469 229.25 223.054688 C 229.25 224.046875 228.917969 224.957031 228.253906 225.539062 C 227.589844 226.117188 226.859375 226.28125 226.066406 226.035156 L 195.734375 215.277344 L 195.402344 216.769531 Z M 195.269531 216.769531 "/>
<path style=" stroke:none;fill-rule:nonzero;fill:rgb(37.254902%,69.803922%,34.117647%);fill-opacity:1;" d="M 154.316406 187.976562 C 155.179688 189.878906 156.109375 191.863281 157.171875 194.179688 C 150.996094 198.730469 145.15625 203.28125 139.050781 207.253906 C 135.464844 209.570312 133.675781 212.300781 134.339844 217.347656 C 134.535156 219.085938 134.339844 220.820312 134.339844 223.136719 C 145.355469 219.25 156.042969 215.445312 166.925781 211.554688 C 167.523438 213.953125 168.054688 216.105469 168.71875 218.835938 C 164.9375 220.242188 161.285156 221.566406 157.632812 222.890625 C 150.929688 225.289062 144.160156 227.773438 137.390625 230.089844 C 131.75 231.992188 128.03125 228.765625 128.03125 221.566406 C 128.03125 204.769531 126.707031 207.335938 137.988281 199.144531 C 143.03125 195.421875 148.078125 191.863281 153.1875 188.222656 C 153.386719 188.058594 153.652344 188.140625 154.316406 188.058594 Z M 154.316406 187.976562 "/>
<path style=" stroke:none;fill-rule:nonzero;fill:rgb(37.254902%,69.803922%,34.117647%);fill-opacity:1;" d="M 134.46875 233.730469 C 131.949219 233.730469 130.222656 232.652344 129.09375 231.578125 C 127.5 230.089844 125.644531 227.109375 125.644531 221.566406 L 125.644531 217.015625 C 125.445312 205.265625 125.976562 204.273438 134.074219 198.402344 L 136.792969 196.414062 C 141.507812 192.941406 146.285156 189.546875 151.0625 186.074219 L 151.992188 185.410156 C 152.324219 185.164062 153.253906 184.914062 153.652344 184.914062 C 154.515625 184.832031 156.042969 185.410156 156.507812 186.402344 L 159.359375 192.609375 C 160.023438 194.097656 159.625 196 158.496094 196.828125 C 156.640625 198.152344 154.847656 199.558594 153.054688 200.882812 C 148.742188 204.109375 144.625 207.171875 140.3125 209.984375 C 136.992188 212.132812 136.527344 213.953125 136.925781 216.851562 C 136.992188 217.511719 137.058594 218.257812 137.058594 219 L 166.460938 208.578125 C 167.722656 208.164062 169.117188 209.074219 169.515625 210.644531 L 171.308594 217.925781 C 171.507812 218.753906 171.441406 219.582031 171.109375 220.324219 C 170.777344 221.070312 170.246094 221.566406 169.648438 221.816406 L 166.660156 222.890625 C 163.941406 223.882812 161.21875 224.875 158.496094 225.867188 L 155.3125 227.027344 C 149.671875 229.09375 143.960938 231.082031 138.253906 233.066406 C 136.859375 233.5625 135.664062 233.730469 134.535156 233.730469 Z M 153.1875 191.78125 C 148.542969 195.089844 143.894531 198.484375 139.25 201.875 L 136.460938 203.859375 C 132.433594 206.730469 130.445312 211.085938 130.488281 216.933594 L 130.488281 221.566406 C 130.488281 223.222656 130.820312 225.539062 132.015625 226.695312 C 133.011719 227.6875 134.734375 227.773438 136.792969 227.109375 C 142.433594 225.125 148.144531 223.136719 153.785156 221.070312 L 156.972656 219.910156 C 159.691406 218.917969 162.347656 217.925781 165.070312 216.933594 L 165.664062 216.683594 L 165.332031 215.277344 L 135.066406 226.035156 C 134.339844 226.28125 133.476562 226.035156 132.878906 225.539062 C 132.28125 224.957031 131.882812 224.046875 131.882812 223.054688 C 131.882812 222.226562 131.882812 221.566406 131.882812 220.820312 C 131.882812 219.664062 131.949219 218.671875 131.882812 217.761719 C 130.886719 209.902344 134.867188 206.425781 137.921875 204.441406 C 142.101562 201.710938 146.152344 198.730469 150.398438 195.503906 C 151.527344 194.675781 152.65625 193.851562 153.785156 193.023438 L 153.1875 191.699219 Z M 153.1875 191.78125 "/>
</g>
</svg>
