<svg width="262" height="274" viewBox="0 0 262 274" fill="none" xmlns="http://www.w3.org/2000/svg">
<g clip-path="url(#clip0_244_2981)">
<path d="M180.284 166.051L145.286 204.045C145.286 204.045 142.501 207.671 142.501 216.342C142.501 225.065 142.343 252.443 142.343 252.443L128.522 252.601L128.68 215.974L132.148 200.366L163.363 168.994C163.363 168.994 170.93 157.854 180.284 166.051Z" fill="#B3FFAE"/>
<path d="M11.6505 143.929L11.2827 181.24C11.2827 181.24 9.33832 189.385 20.584 194.85C31.8296 200.263 66.5125 224.803 66.5125 224.803C66.5125 224.803 70.2961 228.692 70.2961 234.105C70.2961 239.517 69.9282 251.919 69.9282 251.919L60.4693 252.234L59.4183 234.42C59.4183 234.42 54.0057 226.643 44.2839 221.23C34.5622 215.817 2.71704 191.697 2.71704 191.697L1.56095 162.952C1.56095 162.952 -1.17164 144.665 11.6505 143.929Z" fill="#B3FFAE"/>
<path d="M181.438 251.657C179.651 251.657 178.285 251.657 176.814 251.657C176.814 246.664 176.446 241.725 176.919 236.89C177.444 231.583 180.807 227.799 185.222 224.856C200.514 214.767 215.648 204.467 230.993 194.43C234.461 192.17 235.932 189.332 235.88 185.234C235.722 174.934 235.827 164.634 235.827 154.334C235.827 148.974 232.937 145.506 228.47 145.506C224.109 145.506 221.008 149.027 221.008 154.282C220.956 162.322 220.956 170.362 221.008 178.402C221.061 182.081 219.537 184.656 216.384 186.495C205.086 193.064 193.892 199.79 182.594 206.359C177.182 209.512 171.138 208.513 167.618 203.941C164.202 199.475 164.675 193.589 168.984 189.07C172.242 185.654 175.658 182.396 179.021 178.98C182.699 175.249 183.067 170.467 179.967 167.156C176.814 163.741 171.664 163.793 167.828 167.524C158.474 176.773 149.173 186.127 139.924 195.533C134.353 201.156 131.831 207.935 131.936 215.923C132.094 227.746 131.989 239.57 131.989 251.604C130.307 251.604 128.836 251.604 127.207 251.604C127.154 250.658 127.049 249.765 127.049 248.871C127.049 237.626 127.102 226.433 127.049 215.187C126.996 206.411 129.887 198.791 135.983 192.538C145.494 182.816 155.058 173.2 164.78 163.688C170.192 158.381 178.39 158.433 183.382 163.531C188.427 168.733 188.27 176.563 182.909 182.081C179.704 185.391 176.341 188.597 173.083 191.907C170.035 195.06 169.509 198.371 171.664 200.999C173.818 203.626 177.024 203.889 180.807 201.629C191.633 195.271 202.405 188.86 213.283 182.554C215.333 181.397 216.121 179.979 216.068 177.614C215.963 169.364 215.911 161.113 216.068 152.915C216.174 146.399 221.166 141.092 227.262 140.566C233.515 140.041 239.033 144.087 240.399 150.288C240.662 151.497 240.714 152.758 240.714 153.966C240.714 164.687 240.662 175.407 240.767 186.074C240.819 191.277 238.717 195.113 234.408 198.003C219.221 208.04 204.14 218.287 188.9 228.219C183.645 231.635 180.965 236.049 181.386 242.355C181.596 245.351 181.438 248.346 181.438 251.657Z" fill="#5FB257"/>
<path d="M181.439 253.655H176.814C175.711 253.655 174.817 252.761 174.817 251.658C174.817 250.134 174.765 248.663 174.765 247.139C174.66 243.723 174.607 240.149 174.975 236.681C175.5 231.374 178.496 226.959 184.171 223.228C190.372 219.13 196.52 214.978 202.721 210.879C211.76 204.836 220.851 198.793 229.942 192.802C232.832 190.91 233.988 188.703 233.936 185.235C233.831 178.351 233.831 171.467 233.883 164.583C233.883 161.167 233.883 157.699 233.883 154.283C233.883 149.974 231.886 147.452 228.523 147.399C227.104 147.452 225.896 147.872 224.95 148.818C223.741 150.027 223.058 151.971 223.005 154.231V155.86C222.953 163.322 222.953 170.836 223.005 178.298C223.058 182.66 221.219 185.865 217.435 188.125C211.865 191.383 206.295 194.694 200.724 197.952C195.049 201.315 189.321 204.678 183.646 207.989C177.445 211.615 170.245 210.406 166.147 205.099C162.1 199.844 162.731 192.855 167.67 187.652C169.615 185.603 171.612 183.606 173.661 181.609C175.027 180.243 176.394 178.929 177.707 177.563C180.65 174.567 180.966 170.994 178.601 168.472C177.497 167.263 176.078 166.632 174.502 166.632C172.558 166.475 170.823 167.421 169.3 168.944C159.946 178.193 150.644 187.547 141.396 196.901C136.298 202.051 133.881 208.304 133.986 215.871C134.091 224.122 134.091 232.425 134.039 240.728V251.553C134.039 252.656 133.145 253.55 132.042 253.55H127.26C126.209 253.55 125.368 252.709 125.315 251.71L125.263 250.87C125.21 250.186 125.158 249.503 125.158 248.873V238.205C125.158 230.533 125.158 222.861 125.105 215.241C125.053 205.834 128.258 197.742 134.617 191.226C145.022 180.611 154.428 171.152 163.414 162.323C166.462 159.328 170.456 157.594 174.449 157.804C178.391 157.856 182.069 159.433 184.802 162.271C190.687 168.314 190.477 177.247 184.329 183.553C182.595 185.34 180.86 187.074 179.126 188.808C177.602 190.332 176.078 191.856 174.555 193.433C172.925 195.114 171.402 197.584 173.241 199.896C173.766 200.579 175.5 202.681 179.862 200.107L190.214 194.011C197.571 189.649 204.928 185.34 212.338 181.031C213.757 180.19 214.177 179.454 214.177 177.825C214.019 168.577 214.019 160.431 214.177 153.022C214.335 145.665 220.01 139.359 227.157 138.781C234.409 138.15 240.82 142.88 242.396 150.027C242.712 151.393 242.764 152.812 242.764 154.125V166.317C242.764 172.938 242.764 179.56 242.817 186.233C242.869 192.119 240.504 196.533 235.565 199.791C229.942 203.522 224.319 207.306 218.644 211.037C209.132 217.395 199.621 223.754 190.004 230.007C185.064 233.213 183.015 236.996 183.383 242.357C183.541 244.406 183.488 246.508 183.435 248.663C183.435 249.661 183.383 250.659 183.383 251.71C183.383 252.761 182.49 253.655 181.439 253.655ZM178.758 249.714H179.494C179.494 249.346 179.494 248.925 179.494 248.557C179.547 246.508 179.547 244.511 179.442 242.567C179.021 235.84 181.754 230.638 187.85 226.644C197.414 220.391 206.925 214.032 216.437 207.674C222.06 203.89 227.682 200.159 233.358 196.375C237.141 193.853 238.875 190.595 238.823 186.128C238.77 179.507 238.77 172.833 238.77 166.212V154.02C238.77 152.759 238.718 151.708 238.508 150.762C237.352 145.56 232.832 142.144 227.42 142.564C222.27 142.985 218.118 147.609 218.013 152.969C217.856 160.326 217.856 168.419 218.013 177.615C218.066 180.663 216.91 182.765 214.23 184.289C206.82 188.546 199.516 192.907 192.159 197.269L181.806 203.365C177.129 206.097 172.925 205.677 170.14 202.261C167.355 198.793 167.933 194.431 171.664 190.542C173.188 188.966 174.765 187.442 176.289 185.918C178.023 184.184 179.757 182.45 181.491 180.716C186.063 175.986 186.273 169.365 181.964 164.898C179.967 162.849 177.287 161.693 174.397 161.64C171.296 161.693 168.459 162.796 166.147 165.056C157.161 173.884 147.754 183.291 137.402 193.906C131.779 199.634 128.941 206.78 128.994 215.136C129.046 222.808 129.046 230.48 129.046 238.153V248.82C129.046 249.083 129.046 249.346 129.046 249.608H130.045V240.728C130.045 232.425 130.097 224.174 129.992 215.924C129.887 207.358 132.725 200.001 138.558 194.116C147.807 184.709 157.108 175.356 166.514 166.107C168.827 163.847 171.874 162.586 174.555 162.691C177.182 162.744 179.599 163.847 181.439 165.791C185.275 169.89 184.854 175.881 180.493 180.348C179.126 181.714 177.76 183.08 176.394 184.447C174.397 186.391 172.453 188.388 170.508 190.385C166.882 194.168 166.409 199.003 169.247 202.681C172.137 206.465 177.129 207.201 181.649 204.573C187.324 201.263 193.052 197.899 198.727 194.536C204.298 191.278 209.868 187.967 215.438 184.709C218.013 183.185 219.117 181.294 219.064 178.351C218.959 170.836 219.012 163.322 219.064 155.807V154.178C219.064 150.867 220.168 147.925 222.165 145.98C223.846 144.299 226.001 143.458 228.471 143.458H228.523C234.093 143.51 237.824 147.819 237.824 154.283C237.824 157.699 237.824 161.167 237.824 164.583C237.824 171.414 237.772 178.298 237.877 185.13C237.982 189.912 236.143 193.38 232.097 196.008C223.005 201.998 213.967 208.042 204.928 214.085C198.727 218.236 192.579 222.335 186.378 226.434C181.701 229.534 179.337 232.898 178.916 236.996C178.601 240.255 178.653 243.513 178.758 246.981C178.706 247.927 178.706 248.82 178.758 249.714Z" fill="#5FB257"/>
<path d="M62.7821 251.711C60.9955 251.711 59.6292 251.711 57.8425 251.711C57.8425 248.348 57.7374 244.984 57.8425 241.621C58.0527 235.946 55.7405 231.847 50.9584 228.746C35.8241 218.815 20.8474 208.62 5.71305 198.688C0.668268 195.377 -1.69647 191.121 -1.59137 185.078C-1.38118 174.778 -1.53882 164.478 -1.53882 154.178C-1.53882 146.138 3.55851 140.568 10.8104 140.568C17.9572 140.568 23.107 146.296 23.1596 154.336C23.2121 162.166 23.2121 169.996 23.107 177.826C23.0545 180.085 23.8427 181.399 25.7871 182.555C36.8225 188.966 47.8055 195.482 58.7884 201.946C62.3618 204.048 65.5673 203.628 67.6167 200.948C69.5611 198.425 69.1932 195.167 66.4081 192.329C63.0974 188.914 59.6817 185.656 56.3711 182.24C50.8533 176.617 50.6957 168.682 55.8981 163.48C60.9429 158.435 69.0356 158.435 74.5008 163.795C84.1174 173.254 93.6289 182.818 103.088 192.435C109.289 198.741 112.232 206.413 112.126 215.346C112.021 227.38 112.126 239.414 112.126 251.606C110.445 251.606 108.973 251.606 107.187 251.606C107.187 250.397 107.187 249.293 107.187 248.19C107.187 237.26 107.082 226.382 107.239 215.451C107.292 207.989 104.98 201.421 99.7772 196.113C90.3708 186.444 80.8067 176.932 71.1901 167.473C67.4591 163.795 62.5194 163.795 59.3139 167.053C56.1083 170.311 56.3711 175.146 59.997 178.877C63.2025 182.187 66.5657 185.393 69.8238 188.703C74.4482 193.486 75.0263 199.476 71.4529 204.048C67.8795 208.62 61.8888 209.461 56.2134 206.097C45.2305 199.634 34.2476 193.118 23.2121 186.707C19.7439 184.71 18.1148 181.977 18.1674 177.931C18.325 170.206 18.2199 162.481 18.2199 154.756C18.2199 153.548 18.1674 152.286 17.8521 151.078C16.8011 147.347 13.543 145.087 10.0221 145.508C6.44875 145.928 3.55851 148.818 3.50596 152.602C3.40086 164.215 3.40086 175.881 3.45341 187.495C3.45341 190.595 5.39775 192.487 7.86759 194.116C22.8968 204.048 37.7684 214.19 52.9028 224.017C59.7868 228.484 63.2551 234.317 62.7821 242.567C62.6245 245.51 62.7821 248.505 62.7821 251.711Z" fill="#5FB257"/>
<path d="M62.7817 253.706H57.842C56.7385 253.706 55.8451 252.813 55.8451 251.71V248.609C55.8451 246.244 55.7926 243.88 55.8977 241.567C56.1079 236.68 54.2686 233.212 49.907 230.374C42.7077 225.645 35.5083 220.863 28.309 216.028C20.4266 210.773 12.5441 205.518 4.60906 200.316C-1.11887 196.585 -3.69381 191.698 -3.58871 184.971C-3.43106 178.035 -3.48361 171.098 -3.48361 164.162C-3.48361 160.798 -3.53616 157.488 -3.48361 154.125C-3.48361 149.658 -2.11731 145.822 0.510176 142.984C3.08512 140.146 6.7636 138.57 10.8625 138.57C10.8625 138.57 10.8625 138.57 10.915 138.57C19.1654 138.57 25.156 145.191 25.2086 154.282V157.435C25.2086 164.214 25.2611 170.993 25.156 177.772C25.156 179.296 25.5239 179.979 26.8376 180.767C33.7742 184.814 40.7108 188.86 47.6474 192.959L59.8389 200.158C61.7307 201.262 64.3056 202.05 66.1449 199.685C67.9841 197.268 66.3025 194.851 65.0939 193.642C63.2546 191.75 61.3629 189.858 59.5236 188.019C58.0522 186.548 56.5808 185.076 55.1094 183.552C48.9085 177.246 48.6983 167.945 54.6365 162.007C60.4695 156.121 69.8759 156.279 76.0242 162.322C85.6409 171.781 95.1524 181.345 104.664 190.962C111.128 197.531 114.333 205.676 114.281 215.24C114.228 223.701 114.228 232.161 114.228 240.674V251.499C114.228 252.603 113.335 253.496 112.231 253.496H107.291C106.188 253.496 105.294 252.603 105.294 251.499V238.414C105.294 230.742 105.242 223.017 105.347 215.345C105.4 208.093 103.192 202.208 98.463 197.373C89.5821 188.282 80.2282 178.876 69.9285 168.733C68.4571 167.262 66.6178 166.369 64.9362 166.474C63.4123 166.474 61.9934 167.104 60.8374 168.26C58.4201 170.73 58.6828 174.409 61.5205 177.352C63.097 178.981 64.6735 180.557 66.3025 182.134C67.9841 183.815 69.6657 185.497 71.3473 187.178C76.6548 192.696 77.338 199.738 73.0815 205.098C68.8775 210.405 61.7307 211.456 55.2671 207.62L43.2332 200.526C36.244 196.427 29.3075 192.276 22.3183 188.229C18.1669 185.812 16.2226 182.396 16.3277 177.719C16.4328 171.519 16.4328 165.318 16.3802 159.064V154.598C16.3802 153.599 16.3277 152.443 16.0649 151.445C15.2767 148.659 13.017 146.978 10.337 147.293C7.65695 147.608 5.60751 149.815 5.55496 152.443C5.44986 164.056 5.44986 175.723 5.55496 187.336C5.55496 189.28 6.5534 190.647 9.07579 192.328C14.3833 195.849 19.6909 199.422 24.9984 202.943C34.6675 209.407 44.3367 215.871 54.0584 222.177C61.7833 227.221 65.3041 233.843 64.8311 242.461C64.726 244.458 64.726 246.402 64.7786 248.504V251.552C64.7786 252.813 63.8852 253.706 62.7817 253.706ZM59.7864 249.765H60.7848V248.767C60.7323 246.612 60.7323 244.51 60.8374 242.461C61.2578 235.261 58.3675 229.954 51.8513 225.697C42.0771 219.339 32.4079 212.875 22.7387 206.412C17.4312 202.891 12.1237 199.317 6.81615 195.797C4.34631 194.168 1.56117 191.75 1.50862 187.546C1.45607 175.88 1.40352 164.267 1.50862 152.601C1.56117 147.976 5.08201 144.088 9.75894 143.562C14.2782 143.037 18.4297 145.927 19.7434 150.551C20.1638 151.97 20.2164 153.494 20.2164 154.703V159.169C20.2689 165.423 20.2689 171.676 20.1638 177.93C20.1113 181.24 21.2673 183.29 24.2101 184.971C31.1993 189.018 38.1884 193.169 45.1775 197.268L57.2114 204.362C62.046 207.2 66.9331 206.569 69.9285 202.786C72.9238 198.95 72.3458 194.115 68.4571 190.016C66.828 188.334 65.1464 186.653 63.4648 185.024C61.8358 183.395 60.2068 181.818 58.6303 180.189C54.2161 175.67 53.9533 169.679 57.9471 165.58C59.8389 163.689 62.2562 162.638 64.8311 162.638H64.8837C67.6688 162.638 70.4014 163.846 72.6085 166.001C82.9083 176.195 92.2621 185.549 101.196 194.693C106.608 200.211 109.288 207.2 109.183 215.45C109.131 223.122 109.131 230.795 109.131 238.467V249.608H110.129V240.779C110.129 232.266 110.077 223.753 110.182 215.293C110.234 206.674 107.449 199.685 101.669 193.8C92.2096 184.183 82.6981 174.619 73.0815 165.16C68.4571 160.588 61.6256 160.431 57.264 164.792C52.8498 169.259 53.06 175.985 57.7895 180.767C59.2609 182.239 60.7323 183.71 62.2036 185.182C64.0954 187.073 65.9872 188.965 67.8265 190.857C71.2422 194.378 71.7677 198.687 69.1402 202.05C66.4602 205.518 62.0985 206.096 57.7369 203.521L45.5454 196.322C38.6088 192.223 31.7248 188.177 24.7882 184.131C22.2132 182.659 21.1097 180.662 21.1622 177.667C21.2673 170.941 21.2148 164.162 21.2148 157.383V154.23C21.2148 147.293 16.9057 142.459 10.8625 142.459C7.86715 142.459 5.29221 143.562 3.45296 145.611C1.50862 147.713 0.510176 150.656 0.510176 154.125C0.510176 157.488 0.510176 160.798 0.510176 164.162C0.562725 171.151 0.562725 178.087 0.405076 185.076C0.299976 190.384 2.24432 194.062 6.81615 197.005C14.7512 202.208 22.6336 207.463 30.5161 212.718C37.7154 217.5 44.8622 222.282 52.0615 227.011C57.5267 230.585 60.0491 235.367 59.7864 241.62C59.6813 243.88 59.7338 246.192 59.7338 248.504L59.7864 249.765Z" fill="#5FB257"/>
<path d="M185.276 79.243C192.633 76.668 197.1 71.5182 198.572 63.8459C198.624 63.5306 198.729 63.2678 198.834 63.0051V44.7703C198.046 43.6142 197.31 42.353 196.417 41.2495C188.955 32.2635 181.44 23.33 174.031 14.2914C172.349 12.242 170.51 11.3486 167.83 11.3486C135.669 11.4012 103.509 11.4012 71.3485 11.3486C69.0363 11.3486 67.3547 12.1369 65.8833 13.9236C58.1059 23.33 50.3285 32.7364 42.4986 42.0377C41.29 43.4566 40.7119 44.9805 40.7119 46.8198C40.7645 51.2865 40.7119 55.7532 40.7645 60.2725C40.817 69.3636 45.9669 76.4578 54.5851 79.4006C55.0055 79.5583 55.5835 80.1889 55.5835 80.5567C55.6361 87.178 55.6361 86.6525 55.6361 93.5365H54.1121C51.327 93.5365 48.5418 93.5365 45.7567 93.5365C42.7614 93.5891 40.817 95.4809 40.817 98.4762C40.817 104.887 40.817 111.351 40.817 117.762C40.817 120.705 42.6563 122.544 45.599 122.649C47.2281 122.702 48.8571 122.649 50.6964 122.649V124.593C50.6964 132.476 50.7489 142.776 50.6964 146.612H60.0502C60.0502 139.885 60.0502 131.898 60.0502 122.754H90.7919C90.9495 119.969 91.475 117.184 92.3684 114.556C92.4735 114.136 92.4735 113.663 92.6311 113.243H50.1709V102.89H97.4657C100.566 98.6339 104.875 95.2707 110.446 93.4314H65.0425C65.0425 86.4423 65.0425 86.7051 65.0425 79.8736C66.9343 78.9802 68.8261 78.2971 70.5077 77.2461C72.1892 76.1951 73.6606 74.8288 75.3422 73.5151C79.1784 77.719 84.118 80.1889 90.0036 80.1889C95.9418 80.1889 100.881 77.8241 104.98 73.3574C108.974 77.7716 113.861 80.1889 119.799 80.1889C125.737 80.1889 130.677 77.8241 134.724 73.3574C138.717 77.7716 143.657 80.1889 149.543 80.1889C155.481 80.1889 160.42 77.8241 164.467 73.3574C165.097 73.9355 165.675 74.5135 166.253 75.039C168.408 77.0359 170.878 78.4022 173.663 79.3481C174.083 79.5057 174.714 80.0838 174.714 80.5042C174.766 87.0729 174.714 86.4949 174.714 93.0636C174.714 93.1687 174.609 93.2212 174.556 93.4314H130.204C135.775 95.2707 140.084 98.6339 143.184 102.89H189.48V113.243H148.019C148.807 116.343 149.122 119.549 149.07 122.754H179.654C179.654 131.898 179.654 139.78 179.654 146.612H188.955C188.902 142.723 188.955 132.423 188.955 124.488V122.649C190.374 122.649 191.635 122.544 192.896 122.649C195.734 122.859 197.783 121.808 198.834 119.076V97.1625C197.836 94.4299 195.839 93.3789 192.949 93.484C190.006 93.5891 187.116 93.484 184.068 93.484C184.015 92.9585 183.963 92.4855 183.963 92.0651C183.963 86.0219 183.963 87.1255 183.91 81.0297C183.963 80.0312 184.225 79.6108 185.276 79.243ZM70.5077 54.3869C70.5077 56.6991 70.5602 59.0113 70.4551 61.3235C70.1924 66.6836 65.8307 70.835 60.4706 70.9927C55.2157 71.1503 50.4336 67.0514 50.1183 61.7439C49.8556 58.0654 50.0658 54.3344 50.0658 50.4982H70.5077C70.5077 51.8645 70.5077 53.1257 70.5077 54.3869ZM72.8724 39.9883C72.6096 40.5138 71.8739 41.1444 71.401 41.1444C66.3562 41.2495 61.3114 41.1969 56.2667 41.1969C56.0565 41.1969 55.8988 41.1444 55.4259 41.0918C56.6345 39.6204 57.6855 38.3592 58.789 37.0455C63.0456 31.8956 67.3021 26.7457 71.6637 21.6484C72.0841 21.1754 72.9249 20.755 73.5555 20.755C76.4458 20.6499 79.3886 20.7025 82.4365 20.7025C82.1737 21.2805 82.0161 21.7009 81.8584 22.0688C78.8631 28.0595 75.9203 33.9976 72.8724 39.9883ZM100.041 62.427C99.5151 67.5244 94.8382 71.1503 89.7934 70.9927C84.6961 70.835 80.387 66.9989 79.9666 61.9015C79.6513 58.4333 79.809 54.9124 79.8615 51.4441C79.8615 51.1288 80.387 50.4982 80.6498 50.4982C87.1659 50.4457 93.6821 50.4457 100.146 50.4457C100.093 54.6497 100.461 58.5384 100.041 62.427ZM103.089 28.7952C102.458 32.4737 101.827 36.2047 101.249 39.8832C101.144 40.6189 100.987 41.1969 99.9881 41.1969C94.4704 41.1444 89.0052 41.1969 83.4875 41.1444C83.2773 41.1444 83.1196 41.0918 82.8043 40.9867C83.2773 40.0408 83.6977 39.1475 84.1181 38.3067C86.7981 32.8941 89.5832 27.4814 92.2107 22.0688C92.7362 20.9652 93.3668 20.6499 94.5755 20.6499C97.781 20.755 101.039 20.7025 104.455 20.7025C103.929 23.4876 103.509 26.1151 103.089 28.7952ZM111.864 32.316C112.442 28.8477 113.073 25.3269 113.598 21.8586C113.756 20.9652 114.019 20.6499 114.965 20.6499C118.223 20.7025 121.428 20.6499 124.687 20.7025C125.107 20.7025 125.895 21.1754 125.948 21.5433C127.051 27.7442 128.05 33.9976 129.101 40.1985C129.153 40.4612 129.101 40.6714 129.101 41.0393H110.498C110.918 38.0965 111.391 35.2062 111.864 32.316ZM129.994 61.5862C129.994 62.1117 129.836 62.5847 129.731 63.1102C128.523 68.0499 123.793 71.4656 118.959 70.9401C113.651 70.3621 109.71 66.2106 109.605 61.0082C109.552 57.5925 109.605 54.1242 109.605 50.4982H129.994C129.994 54.2293 129.994 57.9078 129.994 61.5862ZM138.455 40.1985C137.351 33.7874 136.3 27.3238 135.196 20.7025C137.929 20.7025 140.609 20.9127 143.184 20.6499C145.917 20.3347 147.23 21.3856 148.334 23.8555C150.699 29.163 153.431 34.2604 156.059 39.4628C156.321 39.9357 156.532 40.4612 156.9 41.1969C150.909 41.1969 145.181 41.1969 139.506 41.1444C139.138 41.1444 138.507 40.5663 138.455 40.1985ZM159.79 60.6404C159.632 66.2106 155.849 70.3095 150.436 70.9401C145.759 71.4656 140.924 68.2601 139.716 63.478C139.295 61.7439 139.295 59.7996 139.243 57.9603C139.19 55.4905 139.243 53.0732 139.243 50.4982C139.873 50.4457 140.294 50.3931 140.767 50.3931C146.6 50.3931 152.485 50.3931 158.318 50.3406C159.422 50.3406 159.842 50.6033 159.842 51.812C159.79 54.8073 159.895 57.7501 159.79 60.6404ZM166.884 40.251C163.678 34.0501 160.578 27.7967 157.478 21.5433C157.372 21.3331 157.32 21.0703 157.162 20.7025C160.42 20.7025 163.521 20.7025 166.674 20.7025C167.042 20.7025 167.462 20.9652 167.672 21.228C173.032 27.6391 178.392 34.1027 183.752 40.5663C183.858 40.6714 183.858 40.8291 184.015 41.1444H179.496C175.87 41.1444 172.192 41.1969 168.566 41.0918C167.988 41.1444 167.147 40.724 166.884 40.251ZM178.708 70.9401C173.295 70.5197 169.249 66.3683 169.091 60.9031C168.986 57.4874 169.091 54.0191 169.091 50.4982H189.375C189.375 54.492 189.743 58.4858 189.27 62.3745C188.692 67.682 183.805 71.3605 178.708 70.9401Z" fill="#28663D"/>
<path d="M119.8 158.331C100.146 158.331 84.1709 142.356 84.1709 122.703C84.1709 103.049 100.146 87.0737 119.8 87.0737C139.453 87.0737 155.428 103.049 155.428 122.703C155.428 142.356 139.453 158.331 119.8 158.331ZM119.8 96.6903C105.454 96.6903 93.7875 108.356 93.7875 122.703C93.7875 137.049 105.454 148.715 119.8 148.715C134.146 148.715 145.812 137.049 145.812 122.703C145.812 108.356 134.146 96.6903 119.8 96.6903Z" fill="#28663D"/>
<path d="M117.33 135.211L105.716 123.597L110.866 118.5L117.33 124.964L130.783 111.563L135.88 116.661L117.33 135.211Z" fill="#5FB257"/>
</g>
<defs>
<clipPath id="clip0_244_2981">
<rect width="262" height="273.843" fill="white"/>
</clipPath>
</defs>
</svg>
