<svg width="241" height="243" viewBox="0 0 241 243" fill="none" xmlns="http://www.w3.org/2000/svg">
<g clip-path="url(#clip0_176_3969)">
<path d="M8.78247 184.023V239.082L28.3324 238.834L28.5805 184.023H8.78247Z" fill="#B3FFAE"/>
<path d="M92.5894 184.023V239.082L112.189 238.834L112.387 184.023H92.5894Z" fill="#B3FFAE"/>
<path d="M175.652 184.023V239.082L195.202 238.834L195.45 184.023H175.652Z" fill="#B3FFAE"/>
<path d="M229.439 185.61V236.304H178.48V185.61H173.568C173.568 200.888 173.568 221.175 173.568 236.452C173.568 240.867 173.816 241.115 178.133 241.115C195.35 241.115 212.519 241.115 229.736 241.115C233.954 241.115 234.252 240.817 234.252 236.7C234.252 221.324 234.252 200.987 234.252 185.61H229.439Z" fill="#5FB257"/>
<path d="M229.736 243H178.133C172.774 243 171.732 241.909 171.732 236.452V185.61C171.732 184.569 172.575 183.726 173.617 183.726H178.53C179.572 183.726 180.415 184.569 180.415 185.61V234.468H227.652V185.61C227.652 184.569 228.496 183.726 229.538 183.726H234.351C235.393 183.726 236.237 184.569 236.237 185.61V236.7C236.237 241.859 235.095 243 229.836 243H229.736ZM175.453 187.495V236.502C175.453 237.296 175.453 238.933 175.652 239.28C175.85 239.28 177.488 239.28 178.182 239.28H229.786C230.481 239.28 232.069 239.28 232.416 239.081C232.416 238.883 232.416 237.296 232.416 236.7V187.446H231.324V236.304C231.324 237.345 230.481 238.189 229.439 238.189H178.48C177.438 238.189 176.594 237.345 176.594 236.304V187.446H175.403L175.453 187.495Z" fill="#5FB257"/>
<path d="M170.938 173.458C171.533 173.111 172.426 173.359 173.22 173.359C183.491 173.359 193.812 173.359 204.083 173.359C214.354 173.359 224.477 173.359 234.649 173.359C235.443 173.359 236.385 173.111 236.931 173.508C237.725 174.004 238.717 174.996 238.717 175.74C238.717 176.484 237.675 177.426 236.882 177.922C236.286 178.269 235.393 178.021 234.599 178.021C214.106 178.021 193.614 178.021 173.171 178.021C172.377 178.021 171.434 178.269 170.888 177.873C170.094 177.377 169.102 176.384 169.102 175.64C169.102 174.896 170.144 173.954 170.938 173.458Z" fill="#5FB257"/>
<path d="M235.988 179.906C235.691 179.906 235.393 179.906 235.145 179.906H234.599H172.625C171.881 179.956 170.789 180.055 169.846 179.46C169.4 179.162 167.167 177.624 167.216 175.64C167.216 173.706 169.3 172.317 169.945 171.92C170.888 171.374 171.93 171.424 172.674 171.474H173.22H211.725H234.649H235.195C235.988 171.424 237.03 171.325 237.973 171.92C238.42 172.218 240.603 173.755 240.603 175.739C240.603 177.674 238.519 179.063 237.874 179.46C237.279 179.856 236.584 179.906 235.988 179.906ZM171.136 175.64C171.136 175.64 171.583 176.087 171.881 176.285C171.781 176.186 172.129 176.186 172.327 176.186C172.625 176.186 172.873 176.186 173.121 176.186H234.55C234.798 176.186 235.095 176.186 235.393 176.186C235.641 176.186 235.988 176.186 236.088 176.186C236.286 176.037 236.534 175.839 236.683 175.64C236.485 175.442 236.237 175.194 235.939 174.995C236.038 175.095 235.691 175.095 235.492 175.144C235.195 175.144 234.946 175.144 234.649 175.144H204.083H173.22C172.972 175.144 172.674 175.144 172.377 175.144C172.178 175.144 171.93 175.144 171.781 175.144C171.484 175.343 171.285 175.541 171.136 175.69V175.64Z" fill="#5FB257"/>
<path d="M150.842 185.611H145.979V236.353H95.0206V185.611H90.2075C90.2075 201.186 90.2075 221.721 90.2075 237.246C90.2075 240.619 90.7037 241.115 94.1274 241.115C111.792 241.115 129.506 241.115 147.17 241.115C149.949 241.115 150.941 240.024 150.941 237.296C150.842 224.3 150.941 206.295 150.941 193.299V185.561L150.842 185.611Z" fill="#5FB257"/>
<path d="M147.17 243C134.914 243 122.708 243 110.452 243H94.1274C89.7113 243 88.3716 241.661 88.3716 237.296V185.66C88.3716 184.619 89.2151 183.775 90.2075 183.775H95.0205C96.0625 183.775 96.9061 184.619 96.9061 185.66V234.518H144.143V185.66C144.143 184.619 144.987 183.775 146.029 183.775H150.892C151.934 183.775 152.777 184.619 152.777 185.66V204.112C152.777 215.223 152.777 227.723 152.777 237.395C152.777 238.635 152.628 240.421 151.388 241.661C150.147 242.901 148.411 243.05 147.22 243.05L147.17 243ZM120.029 239.23C129.059 239.23 138.09 239.23 147.121 239.23C148.262 239.23 148.609 238.982 148.659 238.933C148.708 238.883 148.957 238.536 148.957 237.296C148.907 227.574 148.957 215.074 148.957 203.963V187.396H147.815V236.254C147.815 237.296 146.972 238.139 145.93 238.139H94.9709C93.9289 238.139 93.0854 237.296 93.0854 236.254V187.396H91.9938V237.197C91.9938 238.586 92.093 239.032 92.1923 239.131C92.1923 239.131 92.5892 239.181 94.0778 239.181H110.402C113.628 239.181 116.853 239.181 120.029 239.181V239.23Z" fill="#5FB257"/>
<path d="M89.3639 173.309C110.154 173.309 130.895 173.309 151.686 173.309C153.521 173.309 155.506 173.309 155.407 175.789C155.357 177.823 153.621 177.972 151.983 177.972C141.414 177.972 130.845 177.972 120.227 177.972C109.609 177.972 99.6351 177.972 89.3639 177.972C87.6273 177.972 85.7417 177.972 85.6425 175.789C85.5433 173.359 87.528 173.309 89.3639 173.309Z" fill="#5FB257"/>
<path d="M151.983 179.856C144.044 179.856 136.105 179.856 128.166 179.856H89.364C87.5778 179.856 83.9059 179.856 83.7571 175.888C83.7571 174.599 84.0548 173.557 84.7991 172.763C86.0396 171.474 87.9747 171.474 89.364 171.474C110.154 171.474 130.895 171.474 151.686 171.474C152.976 171.474 154.961 171.474 156.201 172.763C156.945 173.507 157.293 174.599 157.293 175.888C157.193 178.567 155.457 179.906 152.033 179.906L151.983 179.856ZM136.056 176.136C141.365 176.136 146.624 176.136 151.934 176.136C153.224 176.235 153.422 175.987 153.522 175.938V175.293C153.224 175.144 152.083 175.144 151.636 175.144C130.846 175.144 110.055 175.144 89.3144 175.144C88.8182 175.144 87.677 175.144 87.4289 175.343V175.987C87.677 176.087 88.719 176.087 89.2648 176.087H128.117C130.746 176.087 133.376 176.087 136.056 176.087V176.136Z" fill="#5FB257"/>
<path d="M62.6192 185.611V236.304H11.6603V185.611H6.74805C6.74805 201.086 6.74805 221.522 6.74805 236.998C6.74805 240.669 7.19462 241.115 10.668 241.115C28.2331 241.115 45.8479 241.115 63.4131 241.115C66.936 241.115 67.3826 240.669 67.3826 236.998C67.3826 221.522 67.3826 201.037 67.3826 185.561H62.5695L62.6192 185.611Z" fill="#5FB257"/>
<path d="M37.0654 243C28.2828 243 19.5002 243 10.668 243C6.10303 243 4.86255 241.71 4.86255 236.998V185.61C4.86255 184.569 5.70607 183.726 6.74808 183.726H11.6604C12.7024 183.726 13.5459 184.569 13.5459 185.61V234.468H60.7833V185.61C60.7833 184.569 61.6268 183.726 62.6688 183.726H67.4819C68.5239 183.726 69.3674 184.569 69.3674 185.61V237.048C69.3674 241.71 68.1269 243 63.5123 243C54.7298 243 45.9472 243 37.115 243H37.0654ZM8.83208 239.181C8.83208 239.181 9.47713 239.28 10.668 239.28C28.2332 239.28 45.8479 239.28 63.4131 239.28C64.8521 239.28 65.2986 239.181 65.4475 239.131C65.4475 239.131 65.4971 238.585 65.4971 237.048V187.495H64.4055V236.353C64.4055 237.395 63.562 238.238 62.52 238.238H11.6604C10.6184 238.238 9.77484 237.395 9.77484 236.353V187.495H8.58398V237.048C8.58398 238.585 8.68322 239.081 8.78246 239.23L8.83208 239.181Z" fill="#5FB257"/>
<path d="M4.0687 173.458C4.61451 173.111 5.55727 173.309 6.35118 173.309C26.8439 173.309 47.3366 173.309 67.7796 173.309C68.3751 173.309 69.0201 173.309 69.5163 173.359C70.7072 173.607 71.5011 173.061 72.0469 175.591C71.6995 177.426 70.6079 177.724 69.4171 177.972C68.3751 178.17 67.2834 177.972 66.1422 177.972C56.4169 177.972 46.7411 177.972 37.0158 177.972C26.8439 177.972 16.6223 177.972 6.45042 177.972C5.65651 177.972 4.71375 178.22 4.16794 177.823C3.37403 177.327 2.33203 176.385 2.33203 175.641C2.33203 174.897 3.32441 173.905 4.11832 173.409L4.0687 173.458Z" fill="#5FB257"/>
<path d="M68.3751 179.956C67.9285 179.956 67.5316 179.956 67.1346 179.906C66.7873 179.906 66.4399 179.906 66.0926 179.906H5.90464C5.16035 180.005 4.11835 180.055 3.17558 179.509C2.53054 179.113 0.446533 177.724 0.446533 175.789C0.446533 173.805 2.62977 172.267 3.07635 171.97C4.01911 171.375 5.06111 171.474 5.85502 171.523H6.40083H67.8293C68.772 171.523 69.4171 171.523 69.9133 171.623C72.0469 171.771 73.2874 172.466 73.9324 175.293C73.982 175.541 73.982 175.789 73.9324 176.037C73.2874 179.212 70.9553 179.658 69.814 179.857C69.3179 179.956 68.8713 179.956 68.4247 179.956H68.3751ZM4.31682 175.64C4.31682 175.64 4.7634 176.037 5.11073 176.236C5.01149 176.186 5.35882 176.136 5.60692 176.136C5.90463 176.136 6.15273 176.136 6.45044 176.136H66.0926C66.5392 176.136 66.9858 176.136 67.3827 176.186C68.0278 176.186 68.5736 176.285 69.0201 176.186C69.7644 176.037 70.0125 175.988 70.1118 175.64C70.0125 175.244 69.9133 175.144 69.9133 175.095C69.7148 175.293 69.4171 175.244 69.1194 175.194C68.8713 175.194 68.5239 175.194 68.1766 175.194H6.35121C6.10311 175.194 5.8054 175.194 5.50768 175.194C5.30921 175.194 5.16035 175.144 4.91225 175.194C4.66416 175.392 4.46568 175.591 4.31682 175.74V175.64Z" fill="#5FB257"/>
<path d="M113.38 91.3173C88.0738 86.6547 73.7339 63.937 76.5125 42.509C79.5393 19.3448 97.948 3.125 120.475 3.125C142.307 3.125 161.163 19.4936 164.338 40.4257C167.762 62.8458 153.472 86.5059 127.769 91.2677C127.571 99.452 124.593 101.337 120.078 101.287C115.712 101.287 113.826 98.3112 113.33 91.3173H113.38ZM80.879 47.2707C80.879 53.8678 82.4668 60.6633 85.6425 66.2683C92.0433 77.6271 101.719 84.4722 114.62 86.5555C117.151 86.9523 118.54 87.9444 118.242 90.7221C118.093 91.9621 117.944 93.351 118.341 94.4918C118.639 95.3846 119.78 96.5751 120.525 96.5751C121.269 96.5751 122.41 95.4342 122.758 94.5414C123.154 93.5494 123.006 92.2101 122.857 91.0693C122.509 88.0932 123.849 86.9523 126.727 86.5555C148.063 83.4306 162.85 63.2922 159.773 41.8641C156.747 21.1305 138.388 6.34913 117.548 7.93639C97.0548 9.47405 80.9783 26.7355 80.9286 47.3203L80.879 47.2707Z" fill="#28663D"/>
<path d="M120.177 103.172H120.078C113.777 103.172 112.139 97.9142 111.643 92.8548C85.0471 87.2001 71.9476 62.9448 74.6767 42.2608C77.8523 18.1542 96.7076 1.28955 120.475 1.28955C143.151 1.28955 162.8 18.0054 166.174 40.1775C169.449 61.7047 156.647 87.0017 129.555 92.8052C129.059 99.9478 126.132 103.122 120.128 103.122L120.177 103.172ZM120.475 5.0097C98.5931 5.0097 81.276 20.5351 78.3485 42.8064C75.8179 62.1015 88.3219 84.8192 113.677 89.5314L115.116 89.7794L115.215 91.2179C115.712 98.807 117.796 99.4518 120.078 99.4518C123.254 99.4518 125.735 98.8566 125.933 91.2675V89.7794L127.471 89.4818C153.323 84.6704 165.579 60.9607 162.552 40.7727C159.476 20.3863 141.414 5.0097 120.525 5.0097H120.475ZM120.475 98.4102C118.639 98.4102 117.002 96.4757 116.555 95.0868C116.059 93.6484 116.208 92.1603 116.357 90.8211C116.506 89.2834 116.456 88.7874 114.322 88.4402C100.925 86.2577 90.7533 79.115 84.0547 67.2105C80.7798 61.4567 79.0432 54.3636 79.0432 47.3202C79.0928 25.7929 95.9633 7.6882 117.399 6.10094C139.082 4.46408 158.483 20.0887 161.609 41.6159C164.884 64.1352 149.353 85.1665 127.025 88.4402C124.693 88.7874 124.544 89.333 124.742 90.9203C124.891 92.2595 125.09 93.8468 124.544 95.2853C123.998 96.6245 122.361 98.5094 120.574 98.5094L120.475 98.4102ZM120.376 9.67228C119.433 9.67228 118.49 9.67228 117.597 9.77149C98.0969 11.2099 82.7646 27.7274 82.715 47.3202C82.715 53.7684 84.3028 60.1671 87.2303 65.3753C93.3335 76.2381 102.662 82.7856 114.868 84.7696C118.639 85.3649 120.425 87.4481 120.078 90.9203C119.929 92.1603 119.83 93.202 120.078 93.8964C120.128 94.0452 120.326 94.3428 120.525 94.5412C120.723 94.3428 120.922 94.0948 121.021 93.8964C121.219 93.3508 121.12 92.2595 121.021 91.4163C120.574 87.5474 122.41 85.3153 126.479 84.72C146.823 81.7439 160.915 62.6472 157.938 42.112C155.208 23.4616 139.033 9.67228 120.475 9.67228H120.376Z" fill="#28663D"/>
<path d="M47.9322 144.044C57.8064 148.459 63.2149 155.8 62.5202 164.034H58.5011C58.5011 164.034 58.2034 163.786 58.1537 163.637C56.6652 153.171 50.562 147.863 40.0428 147.863C38.1076 147.863 36.1725 147.863 34.1877 147.863C23.5196 147.863 17.2676 153.32 15.9279 164.034H11.7102C10.6186 156.246 16.5233 148.111 26.4471 144.044C22.2791 139.878 19.9966 135.017 20.8898 129.164C21.4852 125.096 23.47 121.674 26.6456 118.995C32.9472 113.737 42.226 114.035 48.2299 119.69C55.127 126.187 55.0277 134.173 47.8826 144.094L47.9322 144.044ZM48.7757 131.396C48.7757 124.997 43.4169 119.789 37.016 119.838C30.6151 119.838 25.4051 125.146 25.4547 131.594C25.4547 137.993 30.8136 143.201 37.2145 143.151C43.6153 143.151 48.8253 137.794 48.7757 131.396Z" fill="#5FB257"/>
<path d="M62.5202 165.869H58.501C57.9552 165.869 57.459 165.621 57.1117 165.224C56.9628 165.125 56.417 164.629 56.3178 163.835C54.978 154.312 49.6192 149.699 40.0427 149.649H34.1876C24.3631 149.649 19.0042 154.411 17.7637 164.182C17.6645 165.125 16.8706 165.819 15.9278 165.819H11.7102C10.7674 165.819 9.97351 165.125 9.87427 164.232C8.73303 156.147 14.0919 148.012 23.3211 143.35C19.6989 138.935 18.2103 134.024 19.0042 128.816C19.6989 124.253 21.8325 120.483 25.4051 117.507C32.451 111.654 42.7717 111.952 49.4703 118.251C56.6155 124.997 56.9628 133.38 50.6116 143.3C59.94 148.111 65.0011 155.8 64.2568 164.182C64.1576 165.125 63.3637 165.869 62.4209 165.869H62.5202ZM59.8407 162.149H60.7339C60.5354 155.403 55.6727 149.5 47.2375 145.731C46.7413 145.483 46.3443 145.036 46.1955 144.54C46.0466 143.994 46.1955 143.399 46.4932 142.953C53.0429 133.776 53.2414 126.783 47.039 120.979C41.7297 115.969 33.5426 115.721 27.9356 120.384C25.1073 122.765 23.3707 125.791 22.8249 129.411C22.0806 134.272 23.718 138.637 27.8364 142.705C28.283 143.151 28.4814 143.796 28.3326 144.391C28.1837 144.986 27.7868 145.532 27.1913 145.731C18.905 149.103 13.5461 155.701 13.4965 162.099H14.34C16.2255 151.534 23.073 145.979 34.1876 145.929H40.0427C51.0581 145.929 57.856 151.534 59.7911 162.099L59.8407 162.149ZM37.1152 144.986C33.5426 144.986 30.2181 143.598 27.6379 141.068C25.0577 138.538 23.6188 135.165 23.6188 131.544C23.6188 124.104 29.5731 118.003 37.0159 117.904H37.1152C44.558 117.904 50.6116 123.906 50.6612 131.296C50.6612 134.868 49.3215 138.29 46.7413 140.87C44.1611 143.449 40.8366 144.887 37.2144 144.937H37.1152V144.986ZM37.0655 121.674C31.6571 121.674 27.2906 126.138 27.3402 131.544C27.3402 134.124 28.3822 136.604 30.2677 138.439C32.1036 140.274 34.5846 141.266 37.1152 141.266H37.1648C39.745 141.266 42.2259 140.225 44.0618 138.34C45.8977 136.455 46.8901 134.024 46.8901 131.396C46.8901 126.039 42.474 121.674 37.0655 121.674Z" fill="#5FB257"/>
<path d="M146.228 164.033H141.663C141.266 159.272 139.579 155.105 136.006 151.93C129.258 145.929 111.841 145.929 105.093 151.93C101.868 154.807 100.528 157.535 99.2878 164.033H95.3183C93.8794 156.742 99.5359 148.905 109.708 143.945C102.513 134.421 102.463 125.84 109.658 119.342C115.861 113.737 125.288 113.737 131.441 119.342C138.636 125.84 138.636 134.421 131.342 144.044C140.422 147.565 145.582 153.964 146.277 164.033H146.228ZM132.185 131.544C132.185 125.145 126.975 119.888 120.574 119.838C114.174 119.838 108.914 125.046 108.864 131.445C108.864 137.843 114.074 143.101 120.475 143.151C126.876 143.151 132.136 137.943 132.185 131.544Z" fill="#5FB257"/>
<path d="M146.228 165.869H141.663C140.72 165.869 139.876 165.125 139.827 164.182C139.43 159.52 137.792 155.948 134.765 153.319C128.662 147.913 112.437 147.913 106.334 153.319C103.456 155.899 102.265 158.379 101.124 164.381C100.975 165.274 100.181 165.869 99.2878 165.869H95.3183C94.4252 165.869 93.6809 165.224 93.4824 164.381C91.9938 156.792 97.2535 148.657 106.929 143.3C100.429 133.677 100.925 124.749 108.368 118.003C115.265 111.753 125.735 111.703 132.632 118.003C140.075 124.749 140.571 133.627 134.17 143.25C142.754 147.268 147.418 154.212 148.063 163.934C148.063 164.43 147.915 164.976 147.567 165.323C147.22 165.72 146.724 165.918 146.228 165.918V165.869ZM143.3 162.149H144.193C143.102 154.212 138.636 148.806 130.647 145.73C130.101 145.532 129.704 145.086 129.506 144.49C129.307 143.895 129.506 143.3 129.804 142.853C136.502 134.024 136.651 126.534 130.151 120.681C124.643 115.721 116.357 115.721 110.849 120.681C104.349 126.534 104.448 133.975 111.147 142.754C111.494 143.201 111.593 143.746 111.494 144.292C111.345 144.838 110.998 145.284 110.502 145.532C101.818 149.748 96.7076 156.097 96.9557 162.049H97.7497C99.0397 156.196 100.528 153.369 103.853 150.393C111.345 143.746 129.754 143.746 137.246 150.393C140.621 153.369 142.605 157.188 143.35 162.049L143.3 162.149ZM120.525 144.986C113.082 144.986 107.028 138.885 107.078 131.395C107.078 127.824 108.517 124.402 111.097 121.872C113.677 119.342 117.051 117.953 120.624 117.953C128.067 117.953 134.12 124.054 134.071 131.495C134.071 138.935 127.968 144.937 120.525 144.937V144.986ZM120.525 121.673C117.945 121.673 115.464 122.665 113.628 124.55C111.742 126.386 110.75 128.866 110.75 131.445C110.75 136.852 115.116 141.266 120.475 141.266C125.884 141.266 130.25 136.901 130.3 131.495C130.3 126.088 125.933 121.673 120.525 121.673Z" fill="#5FB257"/>
<path d="M225.072 163.934C223.435 153.022 217.48 147.814 206.564 147.814C204.828 147.814 203.041 147.814 201.305 147.814C190.339 147.814 184.285 153.072 182.747 163.984H178.529C177.587 155.998 183.392 148.111 193.266 143.994C189.148 139.927 186.915 135.165 187.659 129.362C188.205 125.146 190.19 121.624 193.465 118.945C199.965 113.539 209.492 114.084 215.446 120.086C221.946 126.683 221.648 135.413 215.099 143.399C218.473 146.127 222.145 148.558 225.122 151.683C228.198 154.907 229.389 159.222 229.488 163.984H225.022L225.072 163.934ZM215.545 131.495C215.545 125.096 210.286 119.838 203.885 119.838C197.484 119.838 192.224 125.096 192.224 131.495C192.224 137.893 197.484 143.151 203.885 143.151C210.286 143.151 215.545 137.893 215.545 131.495Z" fill="#5FB257"/>
<path d="M182.797 165.869H178.579C177.636 165.869 176.842 165.174 176.743 164.232C175.8 155.998 181.01 148.062 190.24 143.399C186.667 139.084 185.228 134.272 185.873 129.114C186.518 124.451 188.701 120.533 192.373 117.507C199.667 111.455 210.186 112.001 216.885 118.797C223.534 125.542 223.832 134.719 217.778 143.052C218.324 143.498 218.919 143.895 219.465 144.342C221.896 146.177 224.377 148.111 226.561 150.393C229.736 153.716 231.324 158.131 231.423 163.934C231.423 164.43 231.225 164.926 230.878 165.274C230.53 165.621 230.034 165.819 229.538 165.819H225.072C224.129 165.819 223.385 165.125 223.236 164.232C221.748 154.212 216.637 149.748 206.564 149.699H201.305C191.282 149.699 185.972 154.312 184.583 164.282C184.434 165.224 183.69 165.869 182.747 165.869H182.797ZM180.365 162.149H181.209C183.243 151.435 189.991 145.978 201.354 145.978H206.614C218.026 145.978 224.576 151.236 226.71 162.099H227.652C227.305 158.181 226.065 155.204 223.931 152.923C221.996 150.889 219.713 149.153 217.282 147.318C216.19 146.474 215.148 145.681 214.057 144.838C213.66 144.54 213.412 144.094 213.362 143.598C213.312 143.102 213.461 142.605 213.759 142.209C219.813 134.868 220.011 127.278 214.206 121.425C208.896 116.019 200.511 115.572 194.755 120.384C191.827 122.814 190.091 125.939 189.594 129.659C188.949 134.421 190.587 138.737 194.656 142.754C195.102 143.201 195.301 143.846 195.152 144.441C195.003 145.036 194.606 145.582 194.06 145.78C185.625 149.252 180.415 155.601 180.365 162.198V162.149ZM203.934 145.036C200.362 145.036 196.938 143.647 194.408 141.068C191.827 138.489 190.438 135.116 190.438 131.544C190.438 124.104 196.492 118.003 203.934 118.003C207.507 118.003 210.931 119.392 213.461 121.971C216.041 124.55 217.431 127.923 217.431 131.495C217.431 135.066 216.041 138.489 213.461 141.018C210.881 143.598 207.507 144.986 203.934 144.986V145.036ZM203.934 121.723C198.526 121.723 194.159 126.138 194.159 131.544C194.159 134.124 195.201 136.604 197.037 138.439C198.873 140.274 201.354 141.316 203.934 141.316C206.515 141.316 208.996 140.274 210.831 138.439C212.717 136.554 213.709 134.124 213.709 131.544C213.709 128.965 212.667 126.485 210.831 124.65C208.996 122.814 206.515 121.773 203.934 121.773V121.723Z" fill="#5FB257"/>
<path d="M171.831 44.7905V40.6239C172.674 40.5743 173.419 40.4751 174.163 40.4751C182.499 40.4751 190.885 40.4751 199.221 40.4751C203.786 40.4751 206.763 43.0048 206.812 47.0722C206.862 74.3036 206.812 74.4524 206.812 101.684C206.812 102.031 206.713 102.378 206.614 102.825H202.148V99.6006C202.148 73.7084 202.148 74.9485 202.148 49.1058C202.148 45.0881 201.9 44.8401 197.484 44.8401C189.049 44.8401 180.613 44.8401 171.831 44.8401V44.7905Z" fill="#5FB257"/>
<path d="M206.614 104.66H202.148C201.106 104.66 200.263 103.817 200.263 102.775V49.0561C200.263 48.4608 200.263 47.0224 200.114 46.6752C199.915 46.6752 198.228 46.6752 197.434 46.6752H171.781C170.739 46.6752 169.896 45.8319 169.896 44.7903V40.6237C169.896 39.6317 170.64 38.8381 171.632 38.7885H172.426C173.022 38.6893 173.568 38.6396 174.113 38.6396H179.274C185.923 38.6396 192.572 38.6396 199.221 38.6396C204.828 38.6396 208.648 42.0622 208.648 47.072C208.648 66.6648 208.648 72.2202 208.648 83.9262V101.634C208.648 102.081 208.549 102.428 208.499 102.775C208.301 103.618 207.457 104.66 206.614 104.66ZM204.034 100.94H204.927V83.9262C204.976 72.2202 205.026 66.6648 204.927 47.072C204.927 44.1455 202.793 42.3598 199.221 42.3598C192.572 42.3598 185.972 42.3598 179.323 42.3598H174.163C174.163 42.3598 173.865 42.3598 173.667 42.3598V42.955H197.484C202.644 42.955 204.034 43.699 204.034 49.0561V100.94Z" fill="#5FB257"/>
<path d="M69.169 40.4751V44.8401C63.1155 44.8401 57.2108 44.8401 51.3062 44.8401C48.1801 44.8401 45.1038 44.8401 41.9778 44.8401C39.7945 44.8401 38.7525 45.7329 38.8021 47.8162C38.8021 48.709 38.8021 49.6019 38.8021 50.5443C38.8021 75.8909 38.8021 74.1052 38.8021 99.4518C38.8021 100.543 38.8021 101.585 38.8021 102.825H34.1379C34.1379 101.932 34.1379 100.989 34.1379 100.047C34.1379 73.9068 34.1379 74.8493 34.1379 48.709C34.1379 42.8064 36.6189 40.5247 42.9701 40.5247C51.6039 40.5247 60.2376 40.5247 69.1194 40.5247L69.169 40.4751Z" fill="#5FB257"/>
<path d="M38.8517 104.611H34.1875C33.1455 104.611 32.302 103.767 32.302 102.726V48.6099C32.302 41.6657 35.6265 38.5903 43.0197 38.5903H69.169C70.211 38.5903 71.0545 39.4336 71.0545 40.4256V44.7906C71.0545 45.8322 70.211 46.6754 69.169 46.6754H48.4282C46.2946 46.6754 44.1113 46.6754 41.9777 46.6754C41.0846 46.7747 40.8365 46.8739 40.8365 46.8739C40.7869 46.9235 40.6876 47.1715 40.6876 47.7171C40.6876 48.3619 40.6876 49.0067 40.6876 49.6516V55.1078V102.726C40.6876 103.767 39.8441 104.611 38.8021 104.611H38.8517ZM36.0234 100.89H36.9662V49.602C36.9662 49.0067 36.9662 48.4115 36.9662 47.8163C36.9166 46.3282 37.3135 45.1378 38.1571 44.245C39.0502 43.3521 40.4892 42.9553 42.0273 42.9057C44.161 42.9057 46.2946 42.9057 48.4282 42.9057H67.2835V42.2609H42.9701C37.6112 42.2609 35.9738 43.7489 35.9738 48.5603V100.791L36.0234 100.89Z" fill="#5FB257"/>
<path d="M69.8636 83.3314C66.5887 83.3314 63.3139 83.3314 60.039 83.3314C58.7489 83.3314 57.4588 83.7282 57.6573 85.7123C57.7565 86.6051 59.0962 87.8948 59.8901 87.8948C66.4895 88.0932 73.0888 88.0932 79.7378 87.8948C80.4821 87.8948 81.2264 86.4067 82.0203 85.6131C81.2264 84.869 80.4821 83.4802 79.6882 83.4306C76.4133 83.1826 73.1384 83.3314 69.8636 83.3314Z" fill="#B3FFAE"/>
<path d="M171.633 87.9938C174.808 87.9938 177.984 88.1426 181.11 87.8946C181.904 87.845 183.194 86.6545 183.293 85.7617C183.541 83.8272 182.35 83.3312 181.06 83.3312C174.709 83.3312 168.407 83.2816 162.056 83.4304C161.262 83.4304 159.972 84.6704 159.873 85.5633C159.625 87.4977 160.816 87.9938 162.106 87.9938C165.281 87.9938 168.457 87.9938 171.583 87.9938H171.633Z" fill="#B3FFAE"/>
<path d="M69.814 106.644C73.0888 106.644 76.3637 106.793 79.6386 106.545C80.4821 106.496 81.8218 105.305 81.921 104.412C82.1691 102.478 80.9783 101.932 79.6386 101.932C73.0888 101.932 66.5391 101.932 60.039 101.932C58.6993 101.932 57.4588 102.478 57.7565 104.412C57.9054 105.305 59.2451 106.446 60.039 106.545C63.3139 106.793 66.5887 106.644 69.8636 106.644H69.814Z" fill="#B3FFAE"/>
<path d="M171.633 101.982C168.457 101.982 165.281 101.833 162.155 102.081C161.361 102.131 160.071 103.321 159.922 104.214C159.674 106.148 160.865 106.644 162.155 106.644C168.507 106.644 174.808 106.694 181.159 106.545C181.953 106.545 183.243 105.305 183.392 104.412C183.64 102.478 182.449 101.932 181.159 101.982C177.984 101.982 174.808 101.982 171.682 101.982H171.633Z" fill="#B3FFAE"/>
<path d="M107.525 50.594C109.224 50.594 110.601 49.2171 110.601 47.5187C110.601 45.8202 109.224 44.4434 107.525 44.4434C105.826 44.4434 104.448 45.8202 104.448 47.5187C104.448 49.2171 105.826 50.594 107.525 50.594Z" fill="#5FB257"/>
<path d="M107.525 52.479C104.796 52.479 102.563 50.2469 102.563 47.5188C102.563 44.7907 104.796 42.5586 107.525 42.5586C110.254 42.5586 112.487 44.7907 112.487 47.5188C112.487 50.2469 110.254 52.479 107.525 52.479ZM107.525 46.2787C106.83 46.2787 106.284 46.8244 106.284 47.5188C106.284 48.9076 108.765 48.9076 108.765 47.5188C108.765 46.8244 108.219 46.2787 107.525 46.2787Z" fill="#5FB257"/>
<path d="M121.021 50.594C122.72 50.594 124.097 49.2171 124.097 47.5187C124.097 45.8202 122.72 44.4434 121.021 44.4434C119.322 44.4434 117.945 45.8202 117.945 47.5187C117.945 49.2171 119.322 50.594 121.021 50.594Z" fill="#5FB257"/>
<path d="M121.021 52.479C118.292 52.479 116.059 50.2469 116.059 47.5188C116.059 44.7907 118.292 42.5586 121.021 42.5586C123.75 42.5586 125.983 44.7907 125.983 47.5188C125.983 50.2469 123.75 52.479 121.021 52.479ZM121.021 46.2787C120.326 46.2787 119.781 46.8244 119.781 47.5188C119.781 48.9076 122.261 48.9076 122.261 47.5188C122.261 46.8244 121.716 46.2787 121.021 46.2787Z" fill="#5FB257"/>
<path d="M134.418 50.594C136.117 50.594 137.495 49.2171 137.495 47.5187C137.495 45.8202 136.117 44.4434 134.418 44.4434C132.719 44.4434 131.342 45.8202 131.342 47.5187C131.342 49.2171 132.719 50.594 134.418 50.594Z" fill="#5FB257"/>
<path d="M134.418 52.479C131.689 52.479 129.456 50.2469 129.456 47.5188C129.456 44.7907 131.689 42.5586 134.418 42.5586C137.147 42.5586 139.38 44.7907 139.38 47.5188C139.38 50.2469 137.147 52.479 134.418 52.479ZM134.418 46.2787C133.724 46.2787 133.178 46.8244 133.178 47.5188C133.178 48.9076 135.659 48.9076 135.659 47.5188C135.659 46.8244 135.113 46.2787 134.418 46.2787Z" fill="#5FB257"/>
</g>
<defs>
<clipPath id="clip0_176_3969">
<rect width="241" height="243" fill="white"/>
</clipPath>
</defs>
</svg>
