<svg width="301" height="243" viewBox="0 0 301 243" fill="none" xmlns="http://www.w3.org/2000/svg">
<g clip-path="url(#clip0_176_4098)">
<path d="M4.32464 140.162L3.92695 136.22L7.55585 133.525L26.1975 137.467V223.141C26.1975 223.141 27.8876 235.765 50.5559 235.765C50.5559 235.765 9.84256 239.956 7.7547 227.781C5.66683 215.557 2.73389 192.803 2.73389 192.803L4.42406 140.112L4.32464 140.162Z" fill="#B3FFAE"/>
<path d="M82.9178 50.1967L34.7975 62.1222C34.7975 62.1222 26.7941 64.2178 26.7941 74.347V115.762L3.03223 110.972L4.52356 63.2698C4.52356 63.2698 10.4392 50.1468 29.7767 49.548C49.0646 48.9493 82.9178 50.1468 82.9178 50.1468V50.1967Z" fill="#B3FFAE"/>
<path d="M299.061 72.0016C299.061 57.5813 289.02 47.4521 274.653 47.4521C191.885 47.4521 109.165 47.4521 26.3967 47.4521C11.8811 47.4521 1.88916 57.5314 1.88916 72.2012C1.88916 84.8253 1.88916 97.4992 1.88916 110.123C1.88916 114.863 1.93887 115.013 6.51228 115.961C26.7944 120.352 42.1053 124.693 62.3874 129.034C62.1886 127.238 62.0892 125.392 62.0892 123.595C42.1053 119.304 27.1423 115.013 7.10881 110.722V106.98C7.10881 95.7528 7.10881 84.5259 7.10881 73.299C7.10881 59.9764 14.3666 52.6415 27.5897 52.6415C109.464 52.6415 191.338 52.6415 273.261 52.6415C274.256 52.6415 275.2 52.6415 276.194 52.6415C285.391 52.9908 293.394 60.0762 293.693 69.2573C294.09 82.979 293.792 96.7008 293.792 110.722C272.665 115.263 256.608 119.803 235.58 124.294C235.58 126.14 235.431 127.937 235.282 129.783C256.757 125.192 273.212 120.552 294.687 115.961C297.819 115.313 299.211 114.015 299.161 110.522C298.962 97.6489 299.111 84.7754 299.061 71.9517V72.0016Z" fill="#5FB257"/>
<path d="M235.232 131.729C234.785 131.729 234.338 131.579 233.99 131.23C233.542 130.831 233.343 130.232 233.393 129.633C233.592 127.887 233.691 126.14 233.691 124.344C233.691 123.446 234.288 122.697 235.183 122.498C245.622 120.252 255.017 117.957 264.114 115.762C272.864 113.616 281.911 111.421 291.903 109.225C291.903 105.533 291.903 101.89 291.953 98.1977C292.002 88.7173 292.102 78.8875 291.803 69.3072C291.555 61.4234 284.546 54.7871 276.095 54.4877C275.399 54.4877 274.703 54.4877 273.957 54.4877H273.212H27.5399C15.3607 54.4877 8.89827 60.9743 8.89827 73.2491V109.175C18.3434 111.221 26.7942 113.317 34.9468 115.313C43.5468 117.408 52.3954 119.604 62.3873 121.749C63.2324 121.949 63.8786 122.697 63.8786 123.595C63.8786 125.342 63.978 127.088 64.1769 128.835C64.2266 129.433 64.0277 130.032 63.5803 130.431C63.1329 130.831 62.4867 130.98 61.9399 130.88C51.7491 128.685 42.652 126.44 33.8532 124.294C25.1538 122.148 16.1561 119.953 6.06474 117.807C0.695954 116.66 0 115.762 0 110.123V101.391C0 91.6612 0 81.9312 0 72.2012C0 56.5335 10.8867 45.606 26.3965 45.606C109.165 45.606 191.884 45.606 274.653 45.606C290.064 45.606 300.851 56.4836 300.901 72.0016C300.901 76.3926 300.901 80.8335 300.901 85.2244C300.901 93.6571 300.901 102.14 301 110.572C301.05 114.814 299.31 116.959 295.035 117.907C284.148 120.202 274.405 122.598 264.96 124.893C255.763 127.138 246.219 129.433 235.63 131.729C235.481 131.729 235.382 131.729 235.232 131.729ZM237.37 125.891C237.37 126.44 237.37 126.939 237.271 127.487C246.815 125.392 255.564 123.296 264.015 121.2C273.51 118.905 283.303 116.51 294.239 114.215C296.725 113.666 297.272 113.017 297.222 110.622C297.073 102.14 297.123 93.6571 297.123 85.2244C297.123 80.8335 297.123 76.4425 297.123 72.0016C297.123 58.6791 287.827 49.3483 274.603 49.3483C191.835 49.3483 109.116 49.3483 26.3468 49.3483C12.8254 49.3483 3.72832 58.5294 3.67861 72.2012C3.67861 81.9312 3.67861 91.6612 3.67861 101.391V110.123C3.67861 111.321 3.67861 113.017 3.87746 113.317C4.12601 113.566 5.76647 113.915 6.8104 114.165C16.9514 116.36 25.9491 118.556 34.6983 120.701C42.7514 122.697 51.0532 124.693 60.2 126.739C60.2 126.24 60.1503 125.691 60.1006 125.192C50.6555 123.146 42.2046 121.051 34.0023 119.055C25.4023 116.959 16.5538 114.764 6.56185 112.618C5.71676 112.418 5.07052 111.67 5.07052 110.772V73.3489C5.07052 59.0283 13.2231 50.8452 27.4405 50.8452H273.957C274.703 50.8452 275.498 50.8452 276.244 50.8452C286.733 51.2444 295.234 59.3277 295.532 69.2573C295.83 78.8875 295.78 88.7672 295.681 98.2975C295.681 102.439 295.631 106.58 295.631 110.772C295.631 111.67 295.035 112.418 294.14 112.618C283.601 114.913 274.106 117.209 264.96 119.404C256.26 121.5 247.312 123.695 237.37 125.891Z" fill="#5FB257"/>
<path d="M1.88916 133.725H7.10881C7.10881 135.172 7.10881 136.419 7.10881 137.716C7.10881 167.056 7.10881 186.366 7.10881 215.706C7.10881 228.38 14.5655 235.865 27.0926 235.865C109.414 235.865 191.686 235.865 274.007 235.865C286.335 235.865 293.842 228.28 293.842 215.856C293.842 186.516 293.842 167.206 293.842 137.866V133.775H299.061V137.118C299.061 166.657 299.061 186.217 299.061 215.756C299.061 231.274 289.268 241.104 273.858 241.104C191.636 241.104 109.464 241.104 27.2418 241.104C11.6325 241.104 1.88916 231.274 1.88916 215.556C1.88916 186.117 1.88916 166.657 1.88916 137.218V133.675V133.725Z" fill="#5FB257"/>
<path d="M273.858 243H27.2416C10.6879 243 0 232.222 0 215.556V133.725C0 132.677 0.845087 131.829 1.88902 131.829H7.10867C8.1526 131.829 8.99769 132.677 8.99769 133.725V215.706C8.99769 227.332 15.6092 234.018 27.1422 234.018H274.007C285.242 234.018 291.953 227.232 292.002 215.906V133.775C292.002 132.727 292.847 131.879 293.891 131.879H299.111C300.155 131.879 301 132.727 301 133.775V215.756C301 232.322 290.362 243 273.908 243H273.858ZM3.72832 135.571V215.556C3.72832 230.126 12.726 239.208 27.2416 239.208H273.858C288.274 239.208 297.172 230.226 297.222 215.706V135.621H295.731V215.856C295.731 229.328 287.429 237.711 274.007 237.711H27.0925C13.6208 237.711 5.26936 229.278 5.21965 215.656V135.571H3.72832Z" fill="#5FB257"/>
<path d="M80.0847 35.7765H75.2627C75.2627 29.1401 74.5668 22.4539 75.4616 15.9672C76.6546 7.38491 84.3599 1.8962 93.6558 1.8962C122.19 1.8962 150.774 1.8962 179.308 1.8962C185.273 1.8962 191.238 1.8463 197.204 1.8962C208.041 1.99599 215.597 9.68018 215.647 20.458C215.647 25.4477 215.647 30.4375 215.647 35.6767H210.427C210.427 30.6371 210.427 25.6473 210.427 20.7075C210.427 12.4744 205.257 7.13542 197.055 7.13542C162.506 7.13542 128.006 7.13542 93.457 7.13542C85.2546 7.13542 80.0847 12.4744 80.0847 20.7075C80.0847 25.5974 80.0847 30.4874 80.0847 35.7765Z" fill="#5FB257"/>
<path d="M80.0845 37.6725H75.2625C74.2186 37.6725 73.3735 36.8242 73.3735 35.7764C73.3735 33.7306 73.3238 31.7347 73.2244 29.6889C73.0752 25.0984 72.9261 20.3581 73.5723 15.7177C74.8648 6.48665 83.0671 0 93.6059 0C114.286 0 134.965 0 155.645 0H179.258H184.776C188.902 0 193.028 0 197.204 0C209.084 0.149692 217.436 8.53244 217.486 20.4579C217.486 23.9507 217.486 27.4435 217.486 30.9862V35.6766C217.486 36.7244 216.641 37.5727 215.597 37.5727H210.377C209.333 37.5727 208.488 36.7244 208.488 35.6766V30.637V20.6575C208.488 13.4723 204.064 8.98152 196.955 8.98152C162.406 8.98152 127.906 8.98152 93.3573 8.98152C86.2984 8.98152 81.8741 13.4723 81.8244 20.6575V35.7265C81.8244 36.7743 80.9793 37.6226 79.9354 37.6226L80.0845 37.6725ZM77.1018 33.9302H78.2452V20.7074C78.2452 11.3267 84.2602 5.28912 93.5064 5.28912C128.056 5.28912 162.555 5.28912 197.104 5.28912C206.35 5.28912 212.316 11.3766 212.365 20.7074V30.6869V33.8304H213.857V31.0361C213.857 27.4934 213.857 24.0006 213.857 20.5078C213.857 10.7778 206.997 3.89199 197.253 3.7922C193.127 3.7922 189.001 3.7922 184.875 3.7922H179.357H155.745C135.065 3.7922 114.385 3.7922 93.7053 3.7922C84.9562 3.7922 78.3943 8.83183 77.3504 16.2665C76.7539 20.6076 76.903 24.9487 77.0521 29.5891C77.0521 31.0361 77.1515 32.4832 77.1515 33.9302H77.1018Z" fill="#5FB257"/>
<path d="M194.519 35.7762H189.598V28.1918H101.112V35.6764H95.7432C95.7432 32.2834 95.4947 28.9403 95.8924 25.6471C95.9918 24.5992 97.6819 23.6512 98.7756 22.9027C99.223 22.6033 100.018 22.8528 100.714 22.8528C130.441 22.8528 160.218 22.8528 189.946 22.8528C194.42 22.8528 194.817 23.252 194.867 27.643C194.867 30.038 194.867 32.4331 194.867 34.8282C194.867 35.0278 194.767 35.2274 194.668 35.8261L194.519 35.7762Z" fill="#5FB257"/>
<path d="M194.519 37.6726H189.598C188.554 37.6726 187.709 36.8243 187.709 35.7765V30.0882H102.951V35.6767C102.951 36.7245 102.106 37.5728 101.062 37.5728H95.6935C94.6496 37.5728 93.8045 36.7245 93.8045 35.6767C93.8045 34.7286 93.8045 33.8305 93.8045 32.8824C93.8045 30.4375 93.7051 27.8927 94.0033 25.3978C94.2022 23.6514 95.7929 22.5537 97.1351 21.6555L97.6322 21.3062C98.527 20.7075 99.5212 20.8073 100.167 20.8572H189.846C195.314 20.8572 196.607 22.1545 196.607 27.5434C196.607 29.5393 196.607 31.5352 196.607 33.5311V34.7286C196.607 35.0779 196.507 35.3773 196.458 35.6767C196.259 36.5249 195.414 37.5728 194.519 37.5728V37.6726ZM191.437 33.9303H192.829V33.581C192.829 31.5851 192.829 29.5892 192.829 27.5933C192.829 26.9945 192.829 25.1982 192.58 24.849C192.232 24.6494 190.393 24.6494 189.747 24.6494H100.665C100.416 24.6494 100.118 24.6494 99.8195 24.5995C99.6207 24.5995 99.571 24.5995 99.571 24.5995L99.2727 24.7991C98.7756 25.1483 97.8808 25.7471 97.7316 26.0465C97.5328 28.0923 97.5825 30.3876 97.6322 32.8325C97.6322 33.1818 97.6322 33.4812 97.6322 33.8305H99.2727V28.242C99.2727 27.1941 100.118 26.3459 101.162 26.3459H189.697C190.741 26.3459 191.586 27.1941 191.586 28.242V33.9303H191.437Z" fill="#5FB257"/>
<path d="M149.381 64.7169C161.063 64.7169 172.696 64.8167 184.378 64.7169C188.902 64.7169 191.934 66.4633 194.022 70.505C199.44 81.0833 207.742 88.3683 219.076 92.0108C222.954 93.2582 225.439 95.8529 225.439 99.9944C225.439 116.061 225.837 117.209 224.892 133.226C222.954 165.46 207.394 190.109 180.848 207.723C172.248 213.411 162.853 217.952 153.656 222.642C151.469 223.74 148.089 224.089 145.902 223.141C126.415 214.908 108.618 203.98 94.749 187.564C79.8854 169.95 73.423 149.193 72.9259 126.39C72.6276 113.018 72.8264 114.614 72.8761 101.292C72.8761 96.1522 74.8149 93.5077 79.7363 91.8611C90.6727 88.2186 98.7756 81.233 104.045 71.004C106.282 66.613 109.463 64.6171 114.484 64.7169C126.166 64.9165 137.799 64.7668 149.481 64.7668L149.381 64.7169ZM149.083 70.4052C137.55 70.4052 125.967 70.505 114.435 70.3553C111.7 70.3553 110.159 71.3034 108.917 73.6985C103.001 85.1249 93.9039 92.9588 81.7247 97.1003C79.3386 97.8987 78.3444 99.196 78.3941 101.691C78.4935 115.063 78.1952 113.467 78.4935 126.839C78.9906 145.95 84.0611 163.713 95.4946 179.281C108.767 197.344 127.061 208.771 147.144 217.602C148.437 218.151 150.475 217.902 151.767 217.253C160.218 212.862 168.918 208.771 176.822 203.531C202.174 186.816 217.287 163.514 219.176 132.777C220.12 117.209 219.722 116.56 219.673 100.942C219.673 99.7449 217.983 97.8488 216.69 97.3997C204.362 93.0087 195.066 85.075 189.1 73.3991C187.957 71.2036 186.515 70.4052 184.08 70.4052C172.398 70.505 160.765 70.4052 149.083 70.4052Z" fill="#5FB257"/>
<path d="M148.884 225.486C147.492 225.486 146.2 225.286 145.156 224.837C122.438 215.207 105.984 203.731 93.3073 188.712C79.09 171.846 71.5836 150.889 71.0368 126.39C70.838 117.508 70.838 115.213 70.9374 110.772C70.9374 108.527 70.9871 105.732 70.9871 101.192C70.9871 95.2041 73.4229 91.861 79.1397 89.9649C89.5293 86.5219 97.3836 79.7858 102.355 70.0059C104.94 64.9164 108.668 62.5712 114.434 62.671C122.736 62.8207 130.988 62.7708 139.29 62.7708H149.381H159.373C167.675 62.7708 176.026 62.7708 184.328 62.7209C189.349 62.7209 193.276 64.9164 195.613 69.507C200.832 79.7359 208.885 86.6217 219.623 90.0647C224.594 91.6614 227.278 95.1043 227.278 99.8445C227.278 104.235 227.278 107.529 227.278 110.323C227.328 117.758 227.378 121.5 226.682 133.176C224.793 165.06 209.681 190.608 181.793 209.12C174.038 214.259 165.537 218.55 157.335 222.642L154.402 224.139C152.811 224.937 150.773 225.386 148.834 225.386L148.884 225.486ZM114.087 66.5131C110.01 66.5131 107.525 68.0599 105.636 71.8022C100.167 82.4803 91.6171 89.8152 80.283 93.5575C76.1073 94.9546 74.7154 96.9006 74.6657 101.242C74.6657 105.782 74.6657 108.577 74.616 110.822C74.5663 115.213 74.5166 117.508 74.7154 126.29C75.2622 150.241 82.2715 169.85 96.0911 186.267C108.37 200.837 124.426 211.964 146.548 221.345C148.089 221.993 150.922 221.794 152.712 220.895L155.695 219.399C163.797 215.307 172.149 211.116 179.755 206.076C206.599 188.263 221.164 163.663 222.954 133.026C223.65 121.45 223.6 117.758 223.55 110.423C223.55 107.629 223.55 104.335 223.55 99.8944C223.55 96.8507 221.86 94.8049 218.48 93.7072C206.798 89.9649 197.999 82.4304 192.332 71.3033C190.592 67.9102 188.305 66.4133 184.378 66.5131C176.026 66.6129 167.725 66.563 159.373 66.563H149.381H139.29C130.988 66.563 122.687 66.6129 114.335 66.4632C114.236 66.4632 114.136 66.4632 114.087 66.4632V66.5131ZM148.884 219.748C148.039 219.748 147.194 219.598 146.448 219.299C122.438 208.721 105.834 196.346 94.053 180.329C83.0669 165.41 77.201 147.397 76.7039 126.839C76.505 118.806 76.505 116.161 76.5547 112.469C76.5547 109.974 76.6044 107.03 76.5547 101.691C76.5547 98.3476 77.9466 96.4016 81.1778 95.3039C92.8102 91.362 101.609 83.7776 107.276 72.8002C108.867 69.7564 111.203 68.4092 114.484 68.4591C122.935 68.5589 131.386 68.5589 139.787 68.509H149.083H158.379C166.929 68.509 175.529 68.509 184.08 68.509H184.179C187.311 68.509 189.349 69.7564 190.741 72.5008C196.507 83.7277 205.207 91.2622 217.336 95.6033C219.275 96.3018 221.562 98.7967 221.562 100.892C221.562 105.034 221.562 108.078 221.661 110.672C221.761 118.007 221.81 121.35 221.065 132.877C219.225 163.114 204.71 187.414 177.866 205.128C171.702 209.17 165.04 212.613 158.578 215.906C156.589 216.904 154.601 217.952 152.662 218.949C151.668 219.498 150.226 219.848 148.884 219.848V219.748ZM114.335 72.2014C112.396 72.2014 111.502 72.7503 110.607 74.5466C104.492 86.4221 94.9975 94.6053 82.3709 98.8466C80.6807 99.3955 80.283 99.9942 80.283 101.691C80.283 107.08 80.283 110.073 80.283 112.518C80.283 116.211 80.2333 118.806 80.4322 126.789C80.9293 146.548 86.5466 163.863 97.0854 178.133C108.469 193.552 124.625 205.577 147.989 215.856C148.685 216.155 150.127 216.006 151.022 215.556C153.01 214.509 154.999 213.511 156.987 212.463C163.35 209.219 169.912 205.876 175.927 201.934C201.677 184.969 215.646 161.617 217.436 132.627C218.132 121.25 218.082 117.957 217.982 110.722C217.982 108.127 217.933 105.034 217.883 100.892C217.784 100.443 216.789 99.3456 216.143 99.0961C203.268 94.5055 193.624 86.1228 187.51 74.1973C186.714 72.7004 185.969 72.2513 184.229 72.2513H184.129C175.579 72.3012 166.979 72.3012 158.379 72.2513H149.083H139.787C131.336 72.2513 122.885 72.2513 114.434 72.2014H114.335Z" fill="#5FB257"/>
<path d="M152.364 129.334C154.85 130.032 157.236 130.581 159.523 131.479C163.499 133.026 166.78 135.521 168.918 139.313C172.149 145.101 170.757 151.887 165.388 156.528C162.157 159.272 159.373 160.47 152.314 162.067C152.314 164.711 152.314 167.406 152.314 170.1C152.314 170.898 152.215 171.747 151.867 172.445C151.221 173.693 150.028 174.142 148.686 173.842C147.244 173.543 146.349 172.595 146.299 171.048C146.2 168.703 146.299 166.358 146.299 164.062C146.299 163.364 146.299 162.715 146.299 162.466C142.82 161.168 139.489 160.27 136.556 158.723C131.635 156.079 128.354 152.087 128.105 146.199C128.006 144.203 129.099 142.906 130.839 142.756C132.679 142.607 134.12 143.704 134.22 145.75C134.419 148.744 135.96 150.79 138.246 152.486C140.583 154.183 143.217 155.181 146.2 155.58V135.87C143.466 135.022 140.682 134.374 138.147 133.226C133.375 131.08 129.696 127.687 128.354 122.398C126.912 116.66 129.547 110.972 135.114 107.179C138.445 104.934 142.223 103.786 146.349 103.188C146.349 100.393 146.349 97.699 146.349 95.0045C146.349 92.6094 147.443 91.2622 149.382 91.2622C151.32 91.2622 152.464 92.5595 152.464 94.9546C152.464 97.6491 152.464 100.393 152.464 103.088C154.551 103.637 156.49 103.986 158.379 104.635C162.605 106.082 166.333 108.377 168.52 112.319C169.664 114.365 170.21 116.909 170.608 119.255C170.906 120.951 169.614 122.199 168.023 122.398C166.333 122.598 164.941 121.6 164.543 119.903C163.102 113.666 159.025 110.173 152.513 109.724V129.384L152.364 129.334ZM146.051 109.475C142.024 110.123 138.545 111.471 135.91 114.464C133.971 116.66 133.375 119.205 134.518 121.999C136.059 125.691 141.925 129.184 146.051 128.885V109.475ZM152.314 155.58C156.341 154.931 159.871 153.584 162.505 150.54C164.792 147.896 165.09 144.602 163.151 141.858C160.567 138.166 156.739 136.669 152.364 135.92V155.58H152.314Z" fill="#28663D"/>
</g>
<defs>
<clipPath id="clip0_176_4098">
<rect width="301" height="243" fill="white"/>
</clipPath>
</defs>
</svg>
