<?xml version="1.0" encoding="UTF-8"?>
<svg xmlns="http://www.w3.org/2000/svg" xmlns:xlink="http://www.w3.org/1999/xlink" width="361px" height="300px" viewBox="0 0 361 300" version="1.1">
<g id="surface1">
<path style=" stroke:none;fill-rule:nonzero;fill:rgb(70.196078%,100%,68.235294%);fill-opacity:1;" d="M 17.042969 172.214844 C 14.890625 133.964844 48.902344 100.183594 92.207031 86.902344 C 44.527344 87.636719 6.140625 118.605469 6.140625 156.730469 C 6.140625 171.847656 12.203125 185.800781 22.414062 197.246094 C 19.34375 189.230469 17.503906 180.84375 16.964844 172.214844 Z M 17.042969 172.214844 "/>
<path style=" stroke:none;fill-rule:nonzero;fill:rgb(70.196078%,100%,68.235294%);fill-opacity:1;" d="M 336.894531 6.058594 C 312.402344 6.058594 81.917969 6.363281 81.917969 6.363281 C 81.917969 6.363281 55.96875 4.894531 51.976562 27.601562 C 51.976562 27.601562 20.574219 30.785156 22.414062 59.914062 L 26.945312 85.191406 C 26.945312 85.191406 28.789062 81.640625 41.378906 75.09375 L 41.378906 58.996094 C 41.378906 54.160156 43.761719 50.550781 47.367188 48.101562 C 50.363281 45.65625 54.585938 44.0625 60.113281 44.0625 C 61.34375 44.0625 62.417969 44.1875 63.492188 44.308594 L 63.492188 44.125 C 63.492188 44.125 61.1875 24.296875 102.878906 24.296875 L 354.398438 24.296875 C 354.398438 24.296875 361.308594 5.9375 336.894531 5.9375 Z M 336.894531 6.058594 "/>
<path style=" stroke:none;fill-rule:nonzero;fill:rgb(37.254902%,69.803922%,34.117647%);fill-opacity:1;" d="M 94.203125 297.675781 C 84.988281 297.675781 75.851562 297.675781 66.640625 297.675781 C 54.664062 297.675781 47.136719 291.738281 47.136719 282.253906 C 47.136719 269.644531 47.136719 257.039062 47.136719 244.492188 C 47.136719 229.621094 40.917969 216.828125 28.25 205.570312 C 4.066406 184.089844 -3.457031 159.179688 9.902344 132.191406 C 23.644531 104.46875 50.210938 88.003906 87.828125 84.882812 C 134.125 81.089844 178.351562 110.402344 183.570312 147.125 C 186.71875 169.398438 179.042969 188.863281 160.152344 205.445312 C 147.101562 216.890625 140.421875 230.050781 140.960938 245.65625 C 141.421875 257.773438 141.035156 269.890625 140.960938 282.007812 C 140.960938 291.738281 133.511719 297.613281 121.226562 297.675781 C 112.167969 297.675781 103.183594 297.675781 94.125 297.675781 Z M 133.589844 245.65625 C 133.820312 242.289062 133.820312 239.046875 134.28125 235.863281 C 136.199219 222.277344 144.03125 210.894531 155.546875 200.917969 C 168.984375 189.289062 176.277344 175.398438 177.046875 159.609375 C 179.117188 117.871094 134.742188 85.679688 82.839844 91.003906 C 44.605469 94.921875 11.511719 124.480469 11.054688 155.203125 C 10.824219 172.886719 18.039062 188.371094 33.242188 201.347656 C 43.605469 210.160156 50.441406 220.316406 53.050781 232.253906 C 54.046875 236.660156 54.277344 241.1875 54.890625 245.65625 L 133.664062 245.65625 Z M 133.589844 251.835938 L 54.507812 251.835938 L 54.507812 263.464844 L 79.308594 263.464844 L 79.308594 269.398438 L 54.355469 269.398438 C 54.355469 276.378906 54.203125 276.867188 54.355469 283.476562 C 54.507812 288.1875 58.808594 291.800781 64.644531 291.859375 C 84.222656 291.984375 103.722656 291.984375 123.300781 291.859375 C 128.828125 291.859375 133.128906 288.554688 133.589844 284.210938 C 133.894531 281.152344 133.589844 284.210938 133.589844 280.722656 L 108.714844 280.722656 L 108.714844 274.90625 L 133.4375 274.90625 L 133.4375 251.835938 Z M 133.589844 251.835938 "/>
<path style=" stroke:none;fill-rule:nonzero;fill:rgb(37.254902%,69.803922%,34.117647%);fill-opacity:1;" d="M 77.464844 300 C 73.855469 300 70.246094 300 66.714844 300 C 53.125 300 44.375 293.023438 44.296875 282.253906 C 44.296875 275.398438 44.296875 268.605469 44.296875 261.75 L 44.296875 244.429688 C 44.296875 230.109375 38.308594 217.871094 26.179688 207.039062 C 0.457031 184.332031 -6.070312 158.140625 7.214844 131.335938 C 21.496094 102.570312 49.289062 85.742188 87.523438 82.621094 C 134.816406 78.765625 180.960938 108.8125 186.410156 146.878906 C 189.636719 169.890625 181.574219 190.085938 162.226562 206.976562 C 149.328125 218.296875 143.261719 230.96875 143.800781 245.59375 C 144.109375 254.46875 144.03125 263.464844 143.953125 272.152344 L 143.953125 282.007812 C 143.878906 293.023438 135.203125 299.9375 121.304688 299.9375 L 102.726562 299.9375 C 102.726562 299.9375 94.203125 299.9375 94.203125 299.9375 L 85.832031 299.9375 C 83.070312 299.9375 80.230469 299.9375 77.464844 299.9375 Z M 95.816406 86.902344 C 93.28125 86.902344 90.671875 87.027344 88.136719 87.210938 C 52.128906 90.148438 26.023438 105.996094 12.589844 133.046875 C -0.00390625 158.445312 5.984375 182.3125 30.402344 204.039062 C 43.53125 215.726562 49.980469 228.949219 49.980469 244.492188 L 49.980469 261.8125 C 49.980469 268.605469 49.980469 275.460938 49.980469 282.253906 C 49.980469 290.453125 56.199219 295.347656 66.640625 295.410156 C 73.011719 295.410156 79.382812 295.410156 85.757812 295.410156 L 94.125 295.410156 C 94.125 295.410156 102.648438 295.410156 102.648438 295.410156 L 121.152344 295.410156 C 131.824219 295.410156 137.964844 290.515625 138.042969 282.070312 L 138.042969 272.152344 C 138.195312 263.523438 138.273438 254.527344 138.042969 245.777344 C 137.503906 229.925781 144.03125 216.21875 158.003906 203.976562 C 176.125 188.128906 183.726562 169.09375 180.652344 147.492188 C 175.894531 113.890625 137.273438 86.964844 95.816406 86.964844 Z M 93.894531 294.246094 C 83.914062 294.246094 74.164062 294.246094 64.71875 294.125 C 57.425781 294.125 51.746094 289.535156 51.589844 283.539062 C 51.4375 279.191406 51.515625 277.480469 51.515625 274.847656 L 51.515625 269.460938 C 51.515625 268.175781 52.820312 267.136719 54.433594 267.136719 L 76.46875 267.136719 L 76.46875 265.789062 L 54.585938 265.789062 C 52.972656 265.789062 51.667969 264.75 51.667969 263.464844 L 51.667969 251.835938 C 51.667969 250.550781 52.972656 249.511719 54.585938 249.511719 L 133.589844 249.511719 C 135.203125 249.511719 136.507812 250.550781 136.507812 251.835938 L 136.507812 274.90625 C 136.507812 276.195312 135.203125 277.234375 133.589844 277.234375 L 111.707031 277.234375 L 111.707031 278.457031 L 133.664062 278.457031 C 135.277344 278.457031 136.582031 279.5 136.582031 280.785156 C 136.582031 281.703125 136.582031 282.128906 136.582031 282.253906 C 136.738281 282.4375 136.660156 282.742188 136.582031 283.414062 L 136.582031 284.457031 C 135.890625 289.964844 130.210938 294.125 123.378906 294.1875 C 113.398438 294.246094 103.570312 294.308594 93.894531 294.308594 Z M 57.273438 271.726562 L 57.273438 274.847656 C 57.273438 277.417969 57.273438 279.132812 57.273438 283.414062 C 57.347656 286.902344 60.496094 289.535156 64.71875 289.535156 C 83.375 289.65625 103.109375 289.65625 123.300781 289.535156 C 127.214844 289.535156 130.363281 287.210938 130.671875 284.027344 L 130.824219 282.988281 L 108.789062 282.988281 C 107.179688 282.988281 105.871094 281.945312 105.871094 280.660156 L 105.871094 274.847656 C 105.871094 273.5625 107.179688 272.519531 108.789062 272.519531 L 130.671875 272.519531 L 130.671875 254.039062 L 57.425781 254.039062 L 57.425781 261.078125 L 79.308594 261.078125 C 80.921875 261.078125 82.226562 262.117188 82.226562 263.402344 L 82.226562 269.339844 C 82.226562 270.625 80.921875 271.664062 79.308594 271.664062 L 57.195312 271.664062 Z M 133.589844 247.980469 L 54.816406 247.980469 C 53.355469 247.980469 52.128906 247.0625 51.976562 245.898438 C 51.820312 244.492188 51.667969 243.144531 51.515625 241.738281 C 51.207031 238.738281 50.824219 235.617188 50.210938 232.679688 C 47.828125 221.542969 41.535156 211.8125 31.167969 203 C 15.660156 189.839844 7.980469 173.746094 8.210938 155.261719 C 8.671875 123.316406 42.683594 92.902344 82.53125 88.800781 C 108.253906 86.167969 133.589844 92.472656 152.246094 106.121094 C 170.824219 119.707031 180.960938 139.230469 179.886719 159.730469 C 179.117188 175.949219 171.59375 190.332031 157.621094 202.449219 C 145.566406 212.914062 138.808594 223.929688 137.121094 236.109375 C 136.8125 238.1875 136.738281 240.332031 136.582031 242.472656 L 136.429688 245.714844 C 136.429688 246.941406 135.125 247.859375 133.589844 247.859375 Z M 57.425781 243.390625 L 130.824219 243.390625 L 130.824219 242.410156 C 130.980469 240.148438 131.054688 237.882812 131.4375 235.679688 C 133.359375 222.519531 140.5 210.648438 153.472656 199.449219 C 166.527344 188.128906 173.511719 174.785156 174.203125 159.609375 C 175.125 140.453125 165.757812 122.214844 148.40625 109.546875 C 130.980469 96.816406 107.253906 90.941406 83.300781 93.390625 C 46.140625 97.183594 14.429688 125.582031 14.046875 155.324219 C 13.816406 172.582031 21.035156 187.578125 35.46875 199.878906 C 46.523438 209.300781 53.433594 220.074219 55.96875 231.945312 C 56.660156 235.128906 56.964844 238.3125 57.347656 241.371094 C 57.347656 242.042969 57.503906 242.71875 57.578125 243.390625 Z M 57.425781 243.390625 "/>
<path style=" stroke:none;fill-rule:nonzero;fill:rgb(37.254902%,69.803922%,34.117647%);fill-opacity:1;" d="M 197.3125 159.792969 C 195.855469 158.566406 194.550781 157.464844 192.9375 156.058594 C 194.933594 154.222656 196.929688 152.507812 198.773438 150.734375 C 218.582031 131.578125 225.183594 109.792969 217.277344 85.800781 C 214.589844 77.601562 220.039062 72.03125 230.25 72.277344 C 247.21875 72.765625 264.265625 72.460938 281.230469 72.398438 C 317.546875 72.277344 346.492188 51.347656 350.253906 22.519531 C 350.484375 20.746094 350.5625 18.910156 350.40625 17.136719 C 350.023438 12.789062 345.953125 9.546875 340.503906 9.117188 C 339.042969 8.996094 337.507812 9.117188 335.972656 9.117188 C 251.59375 9.117188 167.21875 9.117188 82.761719 9.117188 C 65.71875 9.117188 56.660156 15.359375 54.355469 28.886719 C 53.972656 31.089844 52.664062 31.945312 49.980469 32.191406 C 34.085938 33.660156 25.488281 41.371094 25.410156 53.976562 C 25.410156 65.359375 25.410156 70.625 25.410156 82.070312 C 25.410156 82.3125 25.332031 82.558594 25.179688 83.109375 L 18.269531 83.109375 C 18.269531 80.90625 18.269531 84.761719 18.269531 82.558594 C 18.269531 72.582031 18.269531 62.667969 18.269531 52.691406 C 18.347656 39.964844 28.480469 29.925781 44.066406 27.113281 C 46.523438 26.683594 47.445312 25.828125 47.984375 23.929688 C 51.515625 11.566406 64.105469 3.425781 80.074219 3.425781 C 166.296875 3.425781 252.441406 3.425781 338.660156 3.425781 C 350.175781 3.425781 357.703125 9.667969 357.625 18.910156 C 357.316406 50.671875 323.917969 77.664062 284.074219 78.214844 C 266.335938 78.457031 248.601562 78.214844 230.789062 78.273438 C 223.265625 78.273438 222.726562 78.949219 224.492188 84.761719 C 232.785156 112.851562 224.492188 137.394531 199.769531 158.445312 C 199.386719 158.8125 198.925781 159.117188 198.464844 159.484375 C 198.234375 159.609375 197.929688 159.667969 197.238281 159.914062 Z M 197.3125 159.792969 "/>
<path style=" stroke:none;fill-rule:nonzero;fill:rgb(37.254902%,69.803922%,34.117647%);fill-opacity:1;" d="M 197.390625 161.933594 C 196.546875 161.933594 195.703125 161.75 195.242188 161.382812 L 190.863281 157.648438 C 189.867188 156.792969 189.789062 155.445312 190.863281 154.589844 L 192.785156 152.875 C 194.089844 151.714844 195.394531 150.488281 196.699219 149.328125 C 216.125 130.476562 222.191406 109.300781 214.589844 86.414062 C 212.976562 81.640625 213.820312 77.355469 216.890625 74.355469 C 219.808594 71.417969 224.570312 69.890625 230.40625 70.074219 C 243.226562 70.441406 256.277344 70.378906 268.871094 70.257812 L 281.308594 70.257812 C 316.089844 70.074219 343.882812 49.9375 347.492188 22.335938 C 347.71875 20.5 347.796875 18.847656 347.644531 17.378906 C 347.335938 14.199219 344.417969 11.8125 340.351562 11.503906 C 339.351562 11.445312 338.277344 11.445312 337.277344 11.503906 L 336.128906 11.503906 C 336.128906 11.503906 82.917969 11.503906 82.917969 11.503906 C 67.332031 11.503906 59.421875 17.011719 57.347656 29.316406 C 56.8125 32.496094 54.507812 34.210938 50.441406 34.578125 C 36.082031 35.863281 28.480469 42.65625 28.480469 54.101562 L 28.480469 82.191406 C 28.480469 82.191406 28.328125 83.046875 28.25 83.230469 C 27.945312 84.273438 26.636719 85.496094 25.332031 85.496094 L 19.421875 85.496094 C 17.730469 86.046875 15.503906 84.945312 15.503906 83.355469 L 15.503906 73.378906 C 15.503906 66.523438 15.503906 59.609375 15.503906 52.753906 C 15.660156 38.921875 26.636719 28.03125 43.53125 24.96875 C 44.835938 24.722656 44.988281 24.601562 45.296875 23.5 C 48.980469 9.730469 62.722656 0.980469 80.074219 0.980469 C 166.296875 0.980469 252.515625 0.980469 338.660156 0.980469 C 345.035156 0.980469 350.484375 2.691406 354.398438 5.8125 C 358.46875 9.058594 360.542969 13.523438 360.464844 18.789062 C 360.160156 51.652344 325.148438 79.804688 284.074219 80.355469 C 271.863281 80.539062 259.65625 80.476562 247.449219 80.417969 L 230.789062 80.417969 C 228.253906 80.417969 226.71875 80.476562 226.257812 80.660156 C 226.335938 80.90625 227.027344 83.230469 227.257812 84.027344 C 235.78125 112.667969 227.257812 138.128906 201.84375 159.792969 C 201.304688 160.21875 200.847656 160.648438 200.308594 160.953125 C 200.078125 161.136719 199.15625 161.503906 198.925781 161.566406 C 198.464844 161.6875 197.929688 161.8125 197.3125 161.8125 Z M 196.777344 155.996094 L 197.699219 156.730469 C 221.652344 136.230469 229.714844 112.117188 221.730469 85.128906 C 220.730469 81.824219 220.195312 79.5 221.960938 77.722656 C 223.726562 75.949219 226.71875 75.828125 230.789062 75.828125 L 247.449219 75.828125 C 259.65625 75.828125 271.789062 75.886719 283.996094 75.765625 C 322.078125 75.277344 354.398438 49.144531 354.707031 18.789062 C 354.707031 14.808594 353.25 11.445312 350.253906 9.117188 C 347.414062 6.792969 343.34375 5.628906 338.585938 5.628906 C 252.363281 5.628906 166.144531 5.628906 80 5.628906 C 65.410156 5.628906 53.894531 12.972656 50.667969 24.355469 C 49.902344 27.171875 48.058594 28.640625 44.527344 29.253906 C 30.324219 31.824219 21.109375 41.003906 21.035156 52.632812 C 21.035156 59.484375 21.035156 66.339844 21.035156 73.195312 L 21.035156 80.722656 L 22.492188 80.722656 L 22.492188 53.917969 C 22.492188 40.207031 32.398438 31.394531 49.59375 29.867188 C 51.207031 29.742188 51.285156 29.5 51.4375 28.582031 C 53.894531 13.953125 64.183594 6.792969 82.6875 6.792969 L 337.046875 6.792969 C 338.277344 6.792969 339.582031 6.792969 340.734375 6.855469 C 347.566406 7.40625 352.710938 11.566406 353.171875 16.953125 C 353.324219 18.726562 353.324219 20.625 353.019531 22.765625 C 349.101562 52.753906 318.929688 74.601562 281.15625 74.722656 L 268.792969 74.722656 C 256.125 74.90625 242.996094 74.96875 230.097656 74.601562 C 226.027344 74.480469 223.035156 75.398438 221.269531 77.171875 C 219.347656 79.070312 218.964844 81.886719 220.039062 85.191406 C 228.101562 109.609375 221.730469 132.128906 201 152.203125 C 199.695312 153.488281 198.3125 154.652344 196.929688 155.875 Z M 25.179688 82.191406 C 25.179688 82.191406 25.410156 82.191406 25.410156 82.191406 Z M 25.179688 82.191406 "/>
<path style=" stroke:none;fill-rule:nonzero;fill:rgb(15.686275%,40%,23.921569%);fill-opacity:1;" d="M 97.65625 196.082031 C 97.65625 188.554688 97.65625 180.96875 97.65625 173.4375 C 97.65625 169.765625 100.113281 168.664062 104.105469 170.378906 C 108.175781 172.152344 112.167969 174.050781 116.238281 175.949219 C 118.464844 176.988281 120.613281 177.296875 122.074219 175.277344 C 123.609375 173.253906 122.074219 171.910156 119.847656 170.929688 C 115.777344 169.09375 111.707031 167.257812 107.792969 165.300781 C 103.875 163.339844 103.875 161.320312 107.867188 159.363281 C 111.476562 157.589844 115.164062 155.996094 118.769531 154.285156 C 121.152344 153.183594 124.070312 152.082031 121.996094 149.386719 C 120.152344 146.941406 117.695312 148.101562 115.394531 149.203125 C 111.785156 150.917969 108.175781 152.632812 104.492188 154.222656 C 100.269531 156.058594 97.886719 155.019531 97.734375 151.164062 C 97.65625 147.429688 97.964844 143.695312 97.582031 140.023438 C 97.425781 138.738281 97.121094 136.414062 94.277344 136.414062 C 90.441406 136.351562 90.824219 138.800781 90.671875 140.085938 C 90.132812 143.757812 90.59375 147.492188 90.441406 151.222656 C 90.363281 154.894531 87.984375 155.996094 83.992188 154.285156 C 79.921875 152.507812 75.929688 150.613281 71.859375 148.714844 C 69.632812 147.675781 67.101562 147.246094 66.179688 149.386719 C 65.71875 150.488281 66.945312 152.816406 68.328125 153.609375 C 71.9375 155.753906 76.082031 157.28125 79.921875 159.117188 C 84.296875 161.261719 84.296875 163.339844 79.769531 165.484375 C 76.007812 167.257812 72.246094 168.972656 68.40625 170.683594 C 66.101562 171.726562 64.335938 173.070312 65.949219 175.277344 C 67.484375 177.296875 69.710938 176.746094 71.859375 175.765625 C 75.390625 174.113281 78.847656 172.519531 82.378906 170.929688 C 88.136719 168.296875 90.285156 169.214844 90.285156 174.539062 C 90.285156 189.046875 90.285156 203.550781 90.285156 218.054688 C 90.285156 220.195312 90.285156 222.519531 93.742188 222.582031 C 97.582031 222.644531 97.503906 220.132812 97.503906 217.929688 C 97.503906 210.585938 97.503906 203.304688 97.503906 195.960938 Z M 97.65625 196.082031 "/>
<path style=" stroke:none;fill-rule:nonzero;fill:rgb(37.254902%,69.803922%,34.117647%);fill-opacity:1;" d="M 323 240.820312 L 323 252.570312 C 323 252.570312 323 252.753906 323 252.816406 C 323.152344 256.242188 323.230469 259.667969 322.691406 263.097656 C 321.15625 273.988281 310.558594 281.394531 296.816406 281.089844 C 284.6875 280.84375 272.480469 280.050781 260.425781 279.132812 C 251.75 278.457031 243.148438 277.234375 234.550781 276.253906 C 227.105469 275.398438 221.191406 278.398438 220.886719 283.78125 C 220.65625 287.636719 221.5 291.554688 221.882812 295.59375 C 224.492188 295.472656 226.414062 295.347656 228.792969 295.226562 C 228.5625 292.472656 228.410156 290.023438 228.101562 287.515625 C 227.410156 282.070312 228.714844 281.089844 235.550781 282.070312 C 256.046875 284.945312 276.625 286.660156 297.429688 286.78125 C 313.554688 286.902344 327.605469 277.417969 329.523438 264.625 C 330.292969 259.667969 329.984375 254.589844 330.140625 249.570312 C 330.292969 241.308594 330.140625 240.757812 323.074219 240.820312 Z M 323 240.820312 "/>
<path style=" stroke:none;fill-rule:nonzero;fill:rgb(37.254902%,69.803922%,34.117647%);fill-opacity:1;" d="M 221.882812 297.859375 C 220.425781 297.859375 219.117188 296.941406 219.042969 295.714844 C 218.886719 294.492188 218.734375 293.207031 218.582031 292.042969 C 218.199219 289.289062 217.8125 286.476562 217.96875 283.597656 C 218.199219 280.660156 219.734375 278.03125 222.421875 276.253906 C 225.566406 274.171875 230.019531 273.316406 234.933594 273.867188 C 237.546875 274.171875 240.078125 274.480469 242.691406 274.785156 C 248.601562 275.519531 254.667969 276.253906 260.65625 276.746094 C 275.320312 277.847656 286.527344 278.457031 296.894531 278.703125 C 308.949219 278.949219 318.46875 272.398438 319.851562 262.789062 C 320.3125 259.546875 320.234375 256.242188 320.082031 252.816406 L 320.082031 240.757812 C 320.082031 239.472656 321.386719 238.496094 323 238.433594 C 326.53125 238.433594 329.140625 238.496094 330.984375 239.964844 C 333.132812 241.738281 333.054688 244.492188 332.980469 249.511719 C 332.980469 250.855469 332.980469 252.140625 332.980469 253.488281 C 332.980469 257.222656 332.980469 261.015625 332.367188 264.808594 C 330.292969 278.640625 315.398438 288.984375 297.660156 288.984375 L 297.355469 288.984375 C 277.238281 288.863281 256.277344 287.210938 235.011719 284.210938 C 231.789062 283.78125 231.019531 283.90625 230.867188 284.027344 C 230.867188 284.027344 230.636719 284.640625 230.941406 287.210938 C 231.171875 288.921875 231.25 290.574219 231.402344 292.351562 L 231.632812 294.921875 C 231.632812 295.53125 231.402344 296.144531 230.941406 296.574219 C 230.480469 297 229.714844 297.308594 228.945312 297.367188 L 222.035156 297.734375 C 222.035156 297.734375 221.882812 297.734375 221.804688 297.734375 Z M 232.015625 278.335938 C 229.636719 278.335938 227.5625 278.824219 226.105469 279.804688 C 224.648438 280.785156 223.800781 282.128906 223.726562 283.78125 C 223.570312 286.230469 223.957031 288.800781 224.261719 291.492188 C 224.261719 291.984375 224.417969 292.535156 224.492188 293.085938 L 225.722656 293.085938 C 225.722656 293.085938 225.722656 292.65625 225.722656 292.65625 C 225.566406 290.941406 225.492188 289.289062 225.261719 287.636719 C 224.953125 285.007812 224.800781 282.253906 227.105469 280.601562 C 229.175781 279.070312 232.09375 279.132812 236.085938 279.683594 C 257.046875 282.621094 277.699219 284.210938 297.507812 284.394531 L 297.816406 284.394531 C 312.558594 284.394531 324.996094 275.765625 326.761719 264.257812 C 327.296875 260.769531 327.296875 257.039062 327.296875 253.488281 C 327.296875 252.140625 327.296875 250.796875 327.296875 249.449219 C 327.296875 246.941406 327.453125 243.820312 326.914062 243.207031 C 326.761719 243.207031 326.375 243.085938 325.992188 243.085938 L 325.992188 252.507812 C 326.070312 256.304688 326.144531 259.792969 325.6875 263.28125 C 323.996094 275.398438 312.019531 283.539062 296.894531 283.292969 C 286.375 283.046875 275.089844 282.4375 260.269531 281.335938 C 254.128906 280.84375 247.910156 280.109375 241.921875 279.375 C 239.386719 279.070312 236.777344 278.765625 234.242188 278.457031 C 233.554688 278.398438 232.863281 278.335938 232.171875 278.335938 Z M 232.015625 278.335938 "/>
<path style=" stroke:none;fill-rule:nonzero;fill:rgb(37.254902%,69.803922%,34.117647%);fill-opacity:1;" d="M 332.824219 160.832031 C 331.214844 158.140625 330.445312 154.957031 330.214844 151.957031 C 329.371094 140.941406 330.214844 129.804688 328.140625 118.972656 C 326.453125 109.976562 323.535156 101.347656 319.542969 93.144531 C 317.164062 93.636719 314.859375 94.003906 312.632812 94.1875 C 315.167969 99.203125 317.238281 104.40625 318.851562 109.792969 C 323.152344 123.929688 323 138.3125 323.230469 152.691406 C 323.230469 156.121094 324.378906 159.851562 326.222656 162.972656 C 333.210938 174.785156 340.65625 186.414062 348.105469 198.042969 C 350.023438 201.101562 349.257812 202.9375 345.417969 204.285156 C 341.042969 205.875 336.742188 207.589844 332.519531 209.425781 C 326.375 212.117188 323.074219 216.339844 323 221.96875 C 323 224.296875 323 226.683594 323 229.132812 L 323 235.066406 C 323.765625 235.066406 324.457031 235.066406 325.226562 235.066406 C 328.679688 234.945312 330.0625 233.597656 330.0625 231.027344 C 330.0625 228.273438 330.0625 225.519531 330.0625 222.765625 C 329.984375 218.605469 332.289062 215.726562 337.046875 213.953125 C 340.8125 212.546875 344.574219 210.953125 348.335938 209.425781 C 356.703125 206.058594 358.394531 202.019531 354.246094 195.347656 C 347.105469 183.90625 339.734375 172.460938 332.824219 160.894531 Z M 332.824219 160.832031 "/>
<path style=" stroke:none;fill-rule:nonzero;fill:rgb(37.254902%,69.803922%,34.117647%);fill-opacity:1;" d="M 323 237.332031 C 322.230469 237.332031 321.539062 237.085938 321.003906 236.660156 C 320.464844 236.230469 320.15625 235.617188 320.15625 235.007812 L 320.15625 229.070312 C 320.15625 229.070312 320.15625 228.765625 320.15625 228.582031 L 320.15625 226.867188 C 320.15625 225.214844 320.15625 223.5625 320.15625 221.910156 C 320.15625 215.484375 323.996094 210.464844 331.136719 207.34375 C 335.359375 205.445312 339.8125 203.734375 344.1875 202.082031 C 345.800781 201.46875 346.109375 201.039062 346.183594 200.917969 C 346.183594 200.796875 346.339844 200.246094 345.496094 198.960938 C 338.585938 188.1875 330.753906 175.949219 323.535156 163.832031 C 321.460938 160.34375 320.3125 156.363281 320.234375 152.570312 L 320.234375 149.082031 C 320.003906 136.230469 319.851562 122.949219 316.011719 110.160156 C 314.476562 105.078125 312.402344 99.9375 309.945312 94.859375 C 309.640625 94.1875 309.714844 93.453125 310.175781 92.839844 C 310.636719 92.226562 311.40625 91.800781 312.328125 91.738281 C 314.554688 91.554688 316.703125 91.1875 318.851562 90.757812 C 320.3125 90.453125 321.769531 91.066406 322.308594 92.167969 C 326.453125 100.671875 329.371094 109.546875 331.058594 118.480469 C 332.367188 125.519531 332.519531 132.679688 332.671875 139.65625 C 332.75 143.695312 332.824219 147.675781 333.132812 151.652344 C 333.363281 154.710938 334.207031 157.527344 335.511719 159.667969 C 340.273438 167.6875 345.265625 175.582031 350.253906 183.539062 L 356.855469 194.0625 C 361.695312 201.835938 359.390625 207.28125 349.640625 211.199219 L 347.105469 212.238281 C 344.1875 213.402344 341.269531 214.625 338.277344 215.726562 C 334.515625 217.136719 332.902344 219.214844 332.980469 222.460938 C 332.980469 224.234375 332.980469 226.011719 332.980469 227.785156 L 332.980469 230.785156 C 332.980469 234.699219 330.292969 236.964844 325.378906 237.148438 C 324.609375 237.148438 323.84375 237.148438 323.074219 237.148438 Z M 325.914062 229.621094 L 325.914062 232.621094 C 327.066406 232.496094 327.222656 232.128906 327.222656 230.90625 L 327.222656 227.847656 C 327.222656 226.132812 327.222656 224.417969 327.222656 222.644531 C 327.066406 217.5625 329.984375 213.890625 335.820312 211.6875 C 338.738281 210.585938 341.578125 209.425781 344.417969 208.261719 L 346.953125 207.222656 C 353.863281 204.40625 355.015625 201.714844 351.558594 196.207031 L 344.957031 185.679688 C 339.964844 177.722656 334.898438 169.765625 330.140625 161.75 C 328.066406 158.324219 327.453125 154.527344 327.222656 152.019531 C 326.914062 147.980469 326.835938 143.878906 326.761719 139.78125 C 326.605469 132.988281 326.453125 125.949219 325.226562 119.214844 C 323.6875 111.261719 321.15625 103.367188 317.699219 95.714844 C 317.316406 95.777344 316.933594 95.839844 316.550781 95.898438 C 318.546875 100.246094 320.3125 104.710938 321.617188 109.117188 C 325.6875 122.398438 325.839844 135.925781 325.992188 149.082031 L 325.992188 152.507812 C 326.070312 155.570312 327.066406 158.996094 328.757812 161.871094 C 335.898438 173.929688 343.726562 186.109375 350.636719 196.878906 C 352.019531 199.019531 352.328125 200.855469 351.636719 202.449219 C 350.945312 204.039062 349.332031 205.261719 346.644531 206.242188 C 342.347656 207.832031 338.046875 209.546875 333.976562 211.320312 C 328.679688 213.648438 326.070312 217.136719 325.992188 221.910156 C 325.992188 223.5625 325.992188 225.152344 325.992188 226.867188 L 325.992188 229.070312 C 325.992188 229.070312 325.992188 229.375 325.992188 229.558594 Z M 325.914062 229.621094 "/>
<path style=" stroke:none;fill-rule:nonzero;fill:rgb(37.254902%,69.803922%,34.117647%);fill-opacity:1;" d="M 325.148438 224.417969 L 323 235.066406 L 323 250.550781 C 323 250.550781 329.910156 254.527344 329.910156 254.527344 L 330.140625 224.90625 C 330.140625 224.90625 327.222656 215.054688 325.148438 224.417969 Z M 325.148438 224.417969 "/>
<path style=" stroke:none;fill-rule:nonzero;fill:rgb(37.254902%,69.803922%,34.117647%);fill-opacity:1;" d="M 329.910156 256.792969 C 329.292969 256.792969 328.679688 256.671875 328.21875 256.363281 L 321.386719 252.386719 C 320.617188 251.957031 320.234375 251.285156 320.234375 250.550781 L 320.234375 235.007812 C 320.234375 235.007812 322.308594 223.988281 322.308594 223.988281 C 322.769531 221.96875 323.613281 218.113281 327.144531 218.054688 C 328.679688 217.871094 331.214844 218.605469 332.902344 224.355469 L 332.75 254.527344 C 332.75 255.386719 332.136719 256.179688 331.136719 256.546875 C 330.753906 256.730469 330.292969 256.792969 329.832031 256.792969 Z M 325.992188 249.386719 L 327.066406 250 L 327.222656 228.703125 L 325.914062 235.375 L 325.914062 249.328125 Z M 325.992188 249.386719 "/>
</g>
</svg>
