<svg width="238" height="239" viewBox="0 0 238 239" fill="none" xmlns="http://www.w3.org/2000/svg">
<path d="M115.413 11.2598C115.413 11.2598 105.36 43.0789 91.7374 49.312C78.115 55.5452 52.4285 47.2008 51.3226 54.5901C50.2168 61.9794 50.8702 82.7397 50.1665 86.8113C49.4628 90.883 50.1162 98.0209 26.1388 116.067C26.1388 116.067 20.4586 120.943 32.7741 130.896C39.3088 136.174 44.235 157.638 42.3751 165.781L33.1762 148.087L7.33887 119.334L36.8457 83.544L38.7056 38.9067L84.8006 37.8009L112.096 9.3999L115.413 11.2598Z" fill="#FFD6D6"/>
<path d="M230.576 110.135L229.118 108.678C221.528 101.037 213.937 93.4466 206.297 85.8563C204.94 84.5493 204.387 83.2424 204.437 81.4328C204.487 69.62 204.487 57.8072 204.437 45.9441C204.387 39.0575 199.36 33.9303 192.423 33.8298C188.955 33.7795 185.536 33.7795 182.068 33.8298C180.309 33.8298 178.901 34.3827 177.946 35.3378C177.142 36.142 176.74 37.2982 176.74 38.5549C176.79 41.2693 178.851 43.0286 181.967 43.0789C183.827 43.0789 185.637 43.0789 187.497 43.0789H191.166C194.383 43.0789 195.137 43.8329 195.137 47.1003V56.2489C195.137 64.5933 195.188 72.8873 195.087 81.2317C195.037 85.806 196.495 89.375 199.712 92.5418C205.694 98.4231 211.625 104.355 217.506 110.286L223.84 116.62C226.253 119.033 226.253 119.988 223.84 122.401L218.914 127.327C212.379 133.912 205.794 140.446 199.209 146.981C196.394 149.796 194.987 153.114 195.037 157.135C195.087 165.932 195.087 174.729 195.087 183.525V191.92C195.087 195.137 194.333 195.941 191.116 195.941H183.124C174.277 195.941 165.43 195.992 156.582 195.891C156.532 195.891 156.482 195.891 156.432 195.891C152.26 195.891 148.841 197.349 145.876 200.315C140.246 206.045 134.515 211.725 128.835 217.405L122.099 224.141C118.983 227.258 118.379 227.258 115.363 224.242L108.527 217.405C102.746 211.675 97.0159 205.894 91.2854 200.114C88.4705 197.299 85.2031 195.891 81.2823 195.891C81.232 195.891 81.232 195.891 81.1817 195.891C71.832 195.941 62.5326 195.941 53.1829 195.941H46.1958C43.1295 195.941 42.3252 195.137 42.3252 192.021V184.028C42.3252 175.181 42.275 166.334 42.3755 157.437C42.4258 153.214 40.968 149.696 37.952 146.73C31.6686 140.547 25.4354 134.264 19.2023 128.03L13.5221 122.3C11.2098 119.988 11.2098 118.982 13.5221 116.67L19.5039 110.688C25.6365 104.505 31.8194 98.3728 38.0022 92.2402C41.0183 89.2744 42.476 85.7557 42.4257 81.5333C42.3755 73.0884 42.3755 64.6435 42.3755 56.1986V47.2008C42.3755 43.7827 43.0792 43.0789 46.4471 43.0789H55.0428C63.6385 43.0789 72.1839 43.0286 80.7796 43.1292C80.8299 43.1292 80.8801 43.1292 80.9807 43.1292C85.2031 43.1292 88.7218 41.6714 91.6876 38.6051C97.3678 32.8244 103.098 27.1442 108.829 21.4138L115.112 15.0801C116.67 13.5218 117.877 12.4662 118.731 12.4662C119.636 12.4662 120.843 13.5218 122.451 15.1304L128.885 21.5646C134.666 27.3453 140.447 33.126 146.227 38.957C148.892 41.6212 151.757 42.9784 154.974 43.0287C158.342 43.0789 161.76 43.0789 165.128 43.0287C168.043 42.9784 170.104 41.1185 170.155 38.5549C170.205 37.2982 169.752 36.1923 168.948 35.3378C168.043 34.3827 166.636 33.8298 165.027 33.8298H164.575C161.911 33.7795 159.146 33.7292 156.432 33.8298C154.823 33.9303 153.667 33.3774 152.41 32.1207C145.423 25.0833 138.436 18.0961 131.399 11.109L127.98 7.69083C122.049 1.75931 115.263 1.75931 109.281 7.69083L106.064 10.9079C99.0266 17.9453 91.9892 24.9325 85.002 32.0201C83.6951 33.3271 82.3882 33.8298 80.5283 33.88C71.7315 33.8298 62.9348 33.8298 54.138 33.8298H46.5979C37.6504 33.8298 32.875 38.5549 32.875 47.4522V55.4446C32.875 63.9901 32.875 72.5355 32.9253 81.0809C32.9253 83.1418 32.3221 84.5996 30.814 86.1076C26.8429 89.9782 22.9221 93.899 19.0013 97.8701C15.4825 101.389 11.9136 104.958 8.39488 108.476C5.93179 110.94 3.6195 113.403 2.46335 116.871L2.41309 121.747L2.46335 122.149C3.6195 125.618 5.93179 128.081 8.39488 130.544C11.9638 134.062 15.4825 137.581 19.0515 141.15C23.0226 145.121 26.9937 149.092 30.9648 153.013C32.3723 154.421 32.9755 155.828 32.9253 157.889C32.875 167.138 32.875 176.387 32.875 185.586V191.97C32.875 200.365 37.7006 205.191 46.0953 205.191H52.077C61.4267 205.191 70.8267 205.241 80.1764 205.14C80.2267 205.14 80.2267 205.14 80.2769 205.14C82.2876 205.14 83.6951 205.743 85.2031 207.251C89.0737 211.172 92.9443 215.043 96.8148 218.913C100.384 222.482 103.953 226.051 107.522 229.671C109.834 232.033 112.398 234.446 115.866 235.602L120.993 235.652L121.194 235.602C124.713 234.396 127.277 231.983 129.589 229.671C133.259 225.951 136.978 222.231 140.698 218.511C144.518 214.741 148.288 210.921 152.058 207.101C153.466 205.693 154.873 205.241 156.683 205.14C165.178 205.191 173.673 205.191 182.168 205.191H190.362C199.561 205.191 204.185 200.566 204.185 191.468V182.52C204.185 174.226 204.186 165.882 204.135 157.588C204.135 155.778 204.638 154.471 205.995 153.164C213.284 145.976 220.522 138.687 227.761 131.449L230.324 128.885C236.457 122.903 236.457 116.067 230.576 110.135Z" fill="#EB1D36"/>
<path d="M155.727 150.701C150.348 151.354 145.02 151.203 139.39 150.198C127.678 148.087 116.921 140.848 109.783 130.393C102.645 119.887 99.8801 107.119 102.192 95.3063C103.751 87.3641 106.817 80.5277 111.542 74.3449C113.502 71.7812 113.603 68.9663 111.844 66.6037C110.637 64.9952 108.375 63.3364 104.354 64.7438C84.0459 71.7812 68.2118 93.1448 67.5583 114.408C67.4578 117.424 69.016 119.485 71.5797 119.786C74.1433 120.038 76.3551 118.228 76.7572 115.162C76.8577 114.508 76.908 113.855 76.9583 113.201C77.0588 112.246 77.1593 111.291 77.3101 110.336C79.8235 96.6635 86.7101 85.9566 97.8694 78.517C89.4245 97.0656 90.078 115.011 99.8298 131.901C109.732 149.142 125.215 158.693 145.774 160.352C136.022 165.328 125.768 166.786 115.312 164.625C96.4117 160.754 83.9454 149.293 78.2149 130.594C77.2096 127.326 75.0984 125.818 72.4342 126.472C71.1775 126.774 70.1722 127.528 69.569 128.533C68.8652 129.689 68.7647 131.197 69.2171 132.856C74.4449 151.907 88.1678 166.183 106.917 172.064C112.648 173.874 118.479 174.728 124.26 174.728C137.379 174.728 150.147 170.204 160.452 161.609C162.815 159.598 163.569 156.984 162.463 154.37C161.407 151.706 158.743 150.299 155.727 150.701Z" fill="#7A0003"/>
<path d="M163.569 95.3577C162.111 95.1567 160.653 94.9556 159.196 94.7043C157.336 94.4027 155.426 94.1513 153.566 93.9C152.661 93.7995 152.259 93.4979 151.857 92.6433C151.103 90.9845 150.298 89.3257 149.494 87.6669C148.74 86.1589 148.036 84.6508 147.333 83.1428C146.026 80.2776 144.116 78.8701 141.552 78.8198C137.48 78.669 135.972 82.0369 135.47 83.1428C133.71 86.8123 132.152 89.8284 130.594 92.6433C130.393 92.9952 129.789 93.4476 129.337 93.4979C126.22 94.0508 123.104 94.4529 119.987 94.8551L118.278 95.0561C115.312 95.4583 113.453 96.8658 112.699 99.3791C111.945 101.842 112.648 104.104 114.709 106.115C117.373 108.679 119.987 111.192 122.45 113.856C122.752 114.208 123.003 115.012 122.903 115.515C122.501 118.28 121.998 121.095 121.495 123.859L120.993 126.523C120.49 129.288 121.244 131.45 123.305 132.958C125.366 134.466 127.728 134.566 130.342 133.209C131.75 132.455 133.157 131.751 134.565 131.047C136.425 130.092 138.285 129.137 140.094 128.132C140.798 127.73 141.2 127.78 141.954 128.182C145.071 129.942 148.288 131.651 151.455 133.309C152.209 133.712 152.963 133.963 153.566 134.164L154.42 134.415C154.42 134.415 154.471 134.415 154.521 134.415C156.632 134.415 158.492 133.661 159.698 132.254C160.855 130.947 161.357 129.188 161.056 127.328C160.855 125.87 160.603 124.412 160.352 122.954C159.95 120.642 159.598 118.38 159.296 116.068C159.246 115.515 159.497 114.61 159.849 114.208C162.212 111.745 164.775 109.382 167.188 107.12C168.897 105.512 170.757 103.25 169.702 99.8818C168.746 96.5139 165.931 95.7096 163.569 95.3577ZM149.796 115.364C150.148 117.375 150.449 119.436 150.801 121.647L150.952 122.502L150.449 122.251C148.539 121.245 146.78 120.341 145.071 119.335C143.713 118.531 142.406 118.179 141.049 118.179C139.742 118.179 138.385 118.581 137.028 119.335C135.319 120.29 133.559 121.195 131.649 122.15L131.147 122.401L131.247 121.949C131.599 119.938 131.901 118.028 132.303 116.168C133.057 112.851 132.202 110.237 129.789 108.075C128.332 106.819 127.025 105.461 125.517 104.004C125.366 103.853 125.265 103.752 125.115 103.602C125.215 103.602 125.316 103.551 125.416 103.551C127.226 103.25 128.935 102.998 130.644 102.898C134.665 102.646 137.329 100.787 138.787 97.2176C139.441 95.5588 140.295 94.0005 141.2 92.2914C141.25 92.2412 141.301 92.1406 141.301 92.0904L141.552 92.593C142.557 94.654 143.512 96.6144 144.417 98.5748C145.523 101.038 147.433 102.395 150.198 102.797C152.259 103.099 154.32 103.4 156.381 103.752L156.783 103.803C156.682 103.953 156.532 104.054 156.431 104.205C154.973 105.763 153.566 107.271 152.058 108.679C150.097 110.538 149.343 112.75 149.796 115.364Z" fill="#7A0003"/>
</svg>
