<svg width="238" height="247" viewBox="0 0 238 247" fill="none" xmlns="http://www.w3.org/2000/svg">
<path d="M221.31 5.63037C205.275 5.63037 54.3729 5.88171 54.3729 5.88171C54.3729 5.88171 37.3826 4.67529 34.7687 23.3244C34.7687 23.3244 14.2094 25.9383 15.4158 49.8655L18.3816 90.7327C18.3816 90.7327 19.588 87.8172 27.8318 82.4386V49.1617C27.8318 45.1906 29.3901 42.2249 31.7527 40.2142C33.7131 38.2035 36.4778 36.8966 40.097 36.8966C40.9013 36.8966 41.605 36.9971 42.3088 37.0976V36.9468C42.3088 36.9468 40.8008 20.6603 68.0958 20.6603C82.4722 20.6603 232.872 20.6603 232.872 20.6603C232.872 20.6603 237.345 5.63037 221.31 5.63037Z" fill="#FFD6D6"/>
<path d="M129.926 131.852C128.971 130.847 128.116 129.942 127.061 128.786C128.368 127.278 129.675 125.87 130.881 124.412C143.85 108.679 148.173 90.7836 142.995 71.0789C141.236 64.3431 144.805 59.7688 151.491 59.9698C162.6 60.372 173.759 60.1206 184.868 60.0704C208.644 59.9698 227.595 42.7785 230.058 19.1026C230.209 17.6449 230.259 16.1369 230.159 14.6791C229.907 11.1101 227.243 8.44598 223.674 8.09411C222.719 7.99357 221.714 8.04384 220.709 8.04384C165.465 8.04384 110.221 8.04384 54.9274 8.04384C43.7681 8.04384 37.8366 13.1711 36.3285 24.2801C36.0772 26.0898 35.2227 26.7935 33.4633 26.9946C23.058 28.201 17.4281 34.5346 17.3778 44.8897C17.3778 54.2394 17.3778 78.6692 17.3276 88.0692C17.3276 88.2702 17.2773 88.4713 17.1768 88.9237C15.8195 88.9237 14.4121 88.9237 12.6527 88.9237C12.6527 87.1141 12.6527 90.2809 12.6527 88.4713C12.6527 80.2778 12.6024 52.0276 12.6527 43.8341C12.703 33.3785 19.3382 25.1347 29.5425 22.8224C31.151 22.4203 31.8045 21.7668 32.1564 20.1582C34.4687 10.0043 42.7125 3.31873 53.168 3.31873C109.618 3.26846 166.018 3.31873 222.468 3.31873C230.008 3.31873 234.934 8.44598 234.884 16.0363C234.683 42.125 212.817 64.2928 186.728 64.7452C175.116 64.9463 163.504 64.7955 151.842 64.7955C146.916 64.7955 146.564 65.3484 147.721 70.1238C153.149 93.1964 147.67 113.354 131.535 130.645C131.283 130.947 130.982 131.198 130.68 131.5C130.579 131.601 130.378 131.651 129.926 131.852Z" fill="#EB1D36"/>
<path d="M129.976 133.61C129.423 133.61 128.87 133.459 128.568 133.157L125.703 130.091C125.05 129.387 124.999 128.281 125.653 127.578L126.91 126.17C127.764 125.215 128.619 124.21 129.473 123.255C142.191 107.772 146.162 90.38 141.186 71.5801C140.13 67.6593 140.683 64.1406 142.694 61.6775C144.604 59.2646 147.72 58.008 151.541 58.1588C159.935 58.4604 168.481 58.4101 176.724 58.3096L184.868 58.2593C207.639 58.1588 225.835 41.6209 228.198 18.9504C228.349 17.4424 228.399 16.0851 228.299 14.8787C228.097 12.2648 226.187 10.3044 223.523 10.0531C222.87 10.0028 222.166 10.0028 221.512 10.0028H220.758H54.9773C44.7731 10.0028 39.5956 14.5269 38.2384 24.6306C37.8865 27.2445 36.3785 28.6519 33.7143 28.9535C24.3143 29.9589 19.3379 35.4883 19.2876 44.8882L19.2374 88.0677C19.2374 88.2185 19.1368 88.7715 19.1368 88.9223C18.9358 89.7768 18.0812 90.7822 17.2267 90.7822H13.3561C12.2502 91.2346 10.7925 90.3297 10.7925 89.0228V80.8293C10.7925 75.1993 10.7925 49.4123 10.7925 43.7824C10.893 32.422 18.0812 23.4744 29.14 20.9611C29.9945 20.76 30.0951 20.6595 30.2961 19.7546C32.8095 8.6456 41.8073 1.4574 53.1677 1.4574C109.618 1.40713 166.068 1.4574 222.468 1.4574C226.64 1.4574 230.209 2.86488 232.772 5.42851C235.436 8.09267 236.794 11.7622 236.743 16.0851C236.542 43.0786 213.62 66.2015 186.728 66.6539C178.735 66.8047 170.743 66.7545 162.75 66.7042H151.842C150.183 66.7042 149.178 66.8047 148.876 66.9555C148.927 67.1566 149.379 69.0667 149.53 69.7202C155.11 93.2452 149.48 114.156 132.891 131.951C132.54 132.303 132.238 132.655 131.886 132.906C131.735 133.057 131.132 133.358 130.981 133.409C130.73 133.56 130.378 133.61 129.976 133.61ZM129.624 128.784L130.227 129.387C145.911 112.548 151.189 92.7426 145.961 70.5748C145.307 67.8603 144.956 65.9502 146.112 64.4924C147.268 63.0347 149.228 62.9341 151.892 62.9341H162.8C170.793 62.9844 178.735 62.9844 186.728 62.8839C211.66 62.4817 232.823 41.0177 233.024 16.0851C233.024 12.8178 232.069 10.0531 230.108 8.14293C228.248 6.23278 225.584 5.2777 222.468 5.2777C166.017 5.2777 109.567 5.22744 53.1677 5.2777C43.6169 5.2777 36.0769 11.3098 33.9656 20.6595C33.463 22.9717 32.2566 24.1782 29.9443 24.6808C20.6951 26.7418 14.6631 34.2819 14.5625 43.8326C14.5123 49.4625 14.5123 75.1993 14.5625 80.8293V87.0121H15.5176V44.8882C15.5176 33.6284 22.0021 26.3899 33.2619 25.1332C34.3175 25.0327 34.3678 24.8316 34.4683 24.0776C36.0769 12.0638 42.8127 6.18251 54.9271 6.18251H221.412C222.216 6.18251 223.071 6.18251 223.825 6.23278C228.299 6.68519 231.666 10.1034 231.968 14.5269C232.069 15.9846 232.069 17.5429 231.867 19.3022C229.304 43.9332 209.549 61.8785 184.817 61.9791L176.724 62.0293C168.43 62.1299 159.835 62.1801 151.39 61.8785C148.726 61.778 146.765 62.532 145.609 63.9898C144.352 65.548 144.101 67.8603 144.805 70.5748C150.083 90.6314 145.911 109.13 132.338 125.617C131.484 126.673 130.579 127.628 129.674 128.633L129.624 128.784Z" fill="#EB1D36"/>
<path d="M212.263 198.405V208.056C212.263 208.157 212.263 208.207 212.263 208.257C212.363 211.072 212.414 213.887 212.062 216.702C211.056 225.65 204.12 231.732 195.122 231.481C187.179 231.28 179.187 230.626 171.295 229.872C165.615 229.319 159.985 228.314 154.355 227.51C149.479 226.806 145.609 229.269 145.407 233.692C145.257 236.859 145.81 240.076 146.061 243.394C147.77 243.293 149.027 243.193 150.585 243.092C150.434 240.83 150.334 238.82 150.133 236.759C149.68 232.285 150.535 231.481 155.009 232.285C168.43 234.647 181.901 236.055 195.524 236.156C206.08 236.256 215.279 228.465 216.536 217.959C217.038 213.887 216.837 209.715 216.938 205.593C216.988 198.757 216.887 198.355 212.263 198.405Z" fill="#EB1D36"/>
<path d="M146.01 245.254C145.055 245.254 144.2 244.5 144.15 243.495C144.049 242.489 143.949 241.434 143.848 240.479C143.597 238.217 143.346 235.904 143.446 233.542C143.597 231.129 144.602 228.967 146.362 227.51C148.422 225.801 151.338 225.097 154.555 225.549C156.264 225.801 157.923 226.052 159.632 226.303C163.503 226.906 167.474 227.51 171.395 227.912C180.996 228.817 188.335 229.319 195.121 229.52C203.013 229.721 209.246 224.343 210.151 216.451C210.452 213.787 210.402 211.072 210.301 208.257V198.355C210.301 197.299 211.156 196.495 212.161 196.445C214.474 196.394 216.183 196.495 217.389 197.701C218.797 199.159 218.746 201.421 218.696 205.543C218.696 206.649 218.696 207.704 218.696 208.81C218.696 211.877 218.696 214.993 218.294 218.11C216.937 229.47 207.185 237.965 195.573 237.965C195.523 237.965 195.422 237.965 195.372 237.965C182.202 237.865 168.479 236.507 154.555 234.044C152.444 233.692 151.941 233.793 151.841 233.894C151.891 233.894 151.69 234.396 151.891 236.507C152.042 237.915 152.092 239.272 152.193 240.73L152.343 242.841C152.394 243.344 152.193 243.846 151.891 244.198C151.589 244.55 151.087 244.801 150.584 244.852L146.06 245.153C146.11 245.254 146.06 245.254 146.01 245.254ZM152.645 229.269C151.087 229.269 149.729 229.671 148.774 230.475C147.819 231.28 147.266 232.386 147.216 233.743C147.116 235.753 147.367 237.865 147.568 240.076C147.618 240.479 147.668 240.931 147.719 241.383L148.523 241.333V241.031C148.422 239.624 148.372 238.267 148.221 236.91C148.02 234.748 147.92 232.486 149.428 231.129C150.785 229.872 152.695 229.922 155.309 230.375C169.032 232.788 182.554 234.095 195.523 234.245C195.573 234.245 195.623 234.245 195.724 234.245C205.375 234.245 213.518 227.158 214.675 217.708C215.027 214.842 215.026 211.776 215.026 208.86C215.026 207.755 215.026 206.649 215.026 205.543C215.077 203.482 215.127 200.918 214.775 200.416C214.675 200.365 214.423 200.315 214.172 200.315V208.056C214.222 211.173 214.272 214.038 213.971 216.903C212.865 226.856 205.023 233.542 195.121 233.341C188.234 233.14 180.845 232.637 171.143 231.732C167.122 231.33 163.05 230.727 159.129 230.123C157.471 229.872 155.761 229.621 154.103 229.369C153.55 229.269 153.097 229.269 152.645 229.269Z" fill="#EB1D36"/>
<path d="M218.648 132.707C217.593 130.495 217.09 127.881 216.939 125.418C216.386 116.37 216.939 107.221 215.582 98.3241C214.476 90.9348 212.566 83.8471 209.952 77.1113C208.394 77.5135 206.886 77.8151 205.428 77.9659C207.087 82.0878 208.444 86.3605 209.5 90.784C212.315 102.396 212.214 114.208 212.365 126.021C212.415 128.836 213.119 131.903 214.325 134.466C218.9 144.168 223.776 153.718 228.652 163.269C229.908 165.783 229.406 167.291 226.892 168.397C224.027 169.703 221.212 171.111 218.447 172.619C214.426 174.831 212.265 178.299 212.214 182.924C212.214 184.834 212.214 186.794 212.214 188.805H212.164V193.681C212.667 193.681 213.119 193.681 213.622 193.631C215.884 193.53 216.789 192.424 216.789 190.313C216.789 188.051 216.839 185.789 216.789 183.527C216.738 180.109 218.246 177.746 221.363 176.288C223.826 175.132 226.289 173.825 228.752 172.569C234.231 169.804 235.337 166.486 232.623 161.007C227.998 151.607 223.173 142.207 218.648 132.707Z" fill="#EB1D36"/>
<path d="M212.214 195.59C211.711 195.59 211.259 195.389 210.907 195.037C210.555 194.685 210.354 194.183 210.354 193.68V188.804C210.354 188.653 210.354 188.553 210.404 188.402V186.994C210.404 185.637 210.404 184.28 210.404 182.923C210.455 177.645 212.918 173.523 217.593 170.959C220.357 169.401 223.273 167.993 226.138 166.636C227.194 166.134 227.395 165.782 227.445 165.681C227.495 165.581 227.545 165.128 226.992 164.073C222.468 155.226 217.341 145.172 212.616 135.219C211.259 132.354 210.505 129.087 210.455 125.97L210.404 123.105C210.304 112.549 210.203 101.641 207.64 91.135C206.634 86.9628 205.277 82.7404 203.668 78.5682C203.467 78.0153 203.518 77.4121 203.819 76.9094C204.121 76.4067 204.624 76.0548 205.227 76.0046C206.685 75.8538 208.092 75.5522 209.499 75.2003C210.455 74.949 211.41 75.4516 211.762 76.3565C214.476 83.3436 216.386 90.6323 217.492 97.9713C218.347 103.752 218.447 109.633 218.548 115.364C218.598 118.681 218.648 121.949 218.849 125.216C219 127.729 219.553 130.042 220.407 131.801C223.524 138.386 226.791 144.871 230.059 151.405L234.382 160.051C237.549 166.435 236.041 170.909 229.657 174.126L227.998 174.981C226.088 175.936 224.178 176.941 222.217 177.846C219.754 179.002 218.698 180.711 218.749 183.375C218.799 184.833 218.749 186.291 218.749 187.748V190.212C218.749 193.429 216.989 195.289 213.772 195.439C213.27 195.54 212.767 195.59 212.214 195.59C212.264 195.59 212.264 195.59 212.214 195.59ZM214.124 189.257V191.72C214.878 191.619 214.979 191.317 214.979 190.312V187.799C214.979 186.391 214.979 184.984 214.979 183.526C214.878 179.354 216.788 176.338 220.609 174.528C222.519 173.623 224.379 172.668 226.238 171.713L227.948 170.909C232.472 168.597 233.226 166.385 230.964 161.861L226.641 153.215C223.373 146.68 220.056 140.145 216.939 133.56C215.582 130.746 215.18 127.629 215.029 125.568C214.828 122.25 214.778 118.882 214.727 115.515C214.627 109.935 214.526 104.154 213.722 98.6248C212.717 92.0901 211.058 85.6056 208.796 79.3222C208.544 79.3725 208.293 79.4228 208.042 79.473C209.349 83.042 210.505 86.7115 211.359 90.3307C214.024 101.239 214.124 112.348 214.225 123.155L214.275 125.97C214.325 128.483 214.979 131.298 216.084 133.661C220.759 143.564 225.887 153.567 230.411 162.414C231.315 164.173 231.517 165.681 231.064 166.988C230.612 168.295 229.556 169.3 227.797 170.105C224.982 171.412 222.167 172.819 219.503 174.277C216.034 176.187 214.325 179.052 214.275 182.973C214.275 184.33 214.275 185.637 214.275 187.045V188.854C214.174 188.955 214.174 189.106 214.124 189.257Z" fill="#EB1D36"/>
<path d="M213.622 184.934L212.214 193.681L212.265 206.398L216.738 209.666L216.889 185.336C216.889 185.336 214.979 177.243 213.622 184.934Z" fill="#EB1D36"/>
<path d="M216.737 211.575C216.335 211.575 215.933 211.475 215.632 211.224L211.158 207.956C210.655 207.604 210.404 207.051 210.404 206.448L210.354 193.68L211.761 184.632C211.761 184.632 211.761 184.632 211.761 184.582C212.063 182.923 212.616 179.756 214.928 179.706C215.933 179.555 217.592 180.158 218.698 184.884L218.597 209.665C218.597 210.369 218.195 211.023 217.542 211.324C217.341 211.525 217.039 211.575 216.737 211.575ZM214.174 205.493L214.878 205.996L214.978 188.503L214.124 193.982L214.174 205.493Z" fill="#EB1D36"/>
<path d="M99.1106 241.283C97.2004 240.981 95.3405 240.78 93.4304 240.428C78.3502 237.663 66.4369 229.872 57.8412 217.205C44.7215 197.802 45.6263 172.115 60.3043 153.818C72.4187 138.738 88.4037 131.851 107.656 133.309C131.734 135.118 151.841 153.868 156.114 177.695C161.04 205.342 143.899 231.883 117.458 239.222C114.342 240.076 111.024 240.428 107.807 241.031C107.405 241.082 107.053 241.182 106.651 241.283C104.137 241.283 101.624 241.283 99.1106 241.283ZM98.8592 160.604C98.8592 159.749 98.809 158.895 98.8592 158.04C98.9598 157.035 98.5576 156.432 97.7031 155.828C93.179 152.611 88.7052 149.344 84.2315 146.026C83.4272 145.423 82.824 145.423 81.9694 145.876C77.4957 148.188 73.4743 151.103 69.9053 154.622C69.2016 155.326 69.0005 155.879 69.3524 156.884C71.1117 162.162 72.8711 167.49 74.5299 172.819C74.8315 173.774 75.3342 174.226 76.239 174.478C77.8978 174.93 79.5064 175.483 81.1149 176.086C82.0197 176.438 82.6732 176.287 83.4775 175.734C87.4988 172.768 91.4699 169.702 95.5918 166.988C98.0549 165.329 99.7138 163.67 98.8592 160.604ZM106.701 160.503C106.701 161.408 106.6 162.363 106.751 163.218C106.852 163.871 107.153 164.675 107.656 165.078C112.532 168.697 117.408 172.266 122.334 175.734C122.786 176.086 123.641 176.187 124.244 176.036C126.054 175.583 127.813 174.98 129.572 174.327C130.176 174.075 130.779 173.422 130.98 172.869C132.79 167.541 134.499 162.162 136.308 156.834C136.61 155.929 136.409 155.376 135.755 154.723C132.136 151.103 128.014 148.138 123.44 145.775C122.736 145.423 122.233 145.423 121.53 145.926C117.659 148.791 113.789 151.757 109.767 154.421C107.455 155.929 105.846 157.538 106.701 160.503ZM72.0668 209.564C73.1727 209.564 74.2786 209.564 75.3844 209.564C77.4957 209.514 79.9588 210.167 81.6176 209.262C83.3267 208.358 84.2817 205.945 85.5887 204.236C85.6389 204.185 85.6892 204.185 85.6892 204.135C85.7898 203.532 86.1416 202.879 85.9908 202.326C84.1309 196.495 82.2711 190.613 80.3106 184.833C80.1598 184.38 79.6069 183.878 79.1545 183.676C77.3951 183.023 75.6358 182.42 73.8262 181.967C73.1727 181.817 72.2176 181.917 71.6647 182.269C67.0401 185.536 62.5161 188.904 57.9417 192.172C57.1375 192.725 56.9867 193.328 57.1375 194.233C57.992 199.259 59.4498 204.135 61.9631 208.609C62.2144 209.061 63.0187 209.514 63.5214 209.564C66.2861 209.614 69.1513 209.564 72.0668 209.564ZM133.493 209.564C136.308 209.564 139.123 209.514 141.988 209.564C142.994 209.564 143.496 209.313 143.949 208.408C146.211 203.884 147.769 199.109 148.573 194.082C148.724 193.127 148.473 192.624 147.719 192.121C143.698 189.256 139.626 186.441 135.755 183.375C133.895 181.917 132.237 181.264 130.075 182.47C129.221 182.922 128.165 183.174 127.21 183.375C126.054 183.626 125.451 184.229 125.149 185.386C123.943 189.306 122.636 193.127 121.379 197.048C120.725 199.109 119.368 201.32 119.67 203.18C120.022 205.141 121.982 206.85 123.339 208.609C123.691 209.061 124.445 209.464 125.048 209.464C127.813 209.614 130.678 209.564 133.493 209.564ZM102.83 171.361C98.0047 174.88 93.2293 178.298 88.5042 181.817C88.2026 182.068 88.0015 182.872 88.1523 183.325C89.8111 188.552 91.5202 193.78 93.179 199.008C93.4304 199.812 93.8828 200.064 94.687 200.064C100.116 200.013 105.595 200.064 111.024 200.013C111.476 200.013 112.23 199.511 112.381 199.109C114.191 193.83 115.9 188.502 117.559 183.174C117.659 182.822 117.508 182.168 117.257 181.967C112.482 178.348 107.656 174.88 102.83 171.361ZM102.78 207.855C99.8646 207.855 96.9491 207.905 93.9833 207.855C92.9277 207.855 92.3245 208.157 91.7715 209.011C90.8165 210.419 89.7106 211.726 88.8058 213.183C88.4539 213.787 88.2528 214.691 88.4539 215.345C90.1127 220.673 91.8721 225.951 93.5812 231.279C93.8828 232.335 94.4357 232.687 95.4913 232.838C100.468 233.592 105.444 233.592 110.421 232.788C111.275 232.637 111.728 232.335 111.979 231.481C113.135 227.711 114.392 223.991 115.598 220.271C116.252 218.21 117.609 216.049 117.307 214.138C117.006 212.228 115.045 210.519 113.688 208.86C113.286 208.358 112.381 207.905 111.728 207.905C108.712 207.805 105.746 207.855 102.78 207.855ZM63.2198 163.268C59.4498 169.551 57.3888 176.036 56.6851 183.274C60.2038 180.711 63.4711 178.348 66.7385 175.935C66.9898 175.785 67.0401 175.131 66.9396 174.779C65.7834 171.059 64.5267 167.34 63.2198 163.268ZM120.776 229.822C127.461 226.906 132.94 222.935 137.766 217.406C133.393 217.406 129.371 217.406 125.35 217.456C125.099 217.456 124.697 217.758 124.596 218.009C123.339 221.829 122.133 225.65 120.776 229.822ZM67.8444 217.406C72.7203 222.885 78.0989 226.856 84.8849 229.771C83.5277 225.549 82.271 221.779 81.0144 218.009C80.9138 217.758 80.4614 217.406 80.1598 217.406C76.1887 217.406 72.2176 217.406 67.8444 217.406ZM142.391 163.268C141.335 166.535 140.38 169.451 139.425 172.366C138.369 175.634 138.369 175.634 141.184 177.695C142.34 178.549 143.446 179.354 144.602 180.158C145.909 181.113 147.266 182.068 148.875 183.224C148.222 175.986 146.11 169.551 142.391 163.268ZM113.286 142.156C106.299 140.246 95.1395 140.799 92.5758 142.357C95.994 144.82 99.3619 147.283 102.78 149.796C106.299 147.283 109.667 144.82 113.286 142.156Z" fill="#7A0003"/>
<path d="M1.89502 136.525C2.39769 133.711 2.69929 130.845 3.35277 128.081C8.22868 107.069 25.3195 90.8829 46.5825 87.1631C71.3642 82.7899 95.7438 95.8594 105.646 118.781C106.803 121.496 105.948 124.009 103.485 124.713C101.424 125.316 99.6646 124.361 98.5588 122.3C96.7994 119.033 94.8893 115.815 92.9791 112.598C92.7278 112.146 92.3256 111.744 91.6722 110.889C89.8123 113.805 87.9021 116.469 86.3438 119.334C85.1374 121.496 84.3332 123.808 83.3781 126.12C82.423 128.483 80.4123 129.639 78.2508 128.885C76.1396 128.131 75.1343 125.969 75.9385 123.557C78.1503 116.871 81.6187 110.889 86.2936 105.46C78.7032 98.9759 70.0573 95.3064 59.9033 94.3513C59.9033 94.9546 59.9033 95.4572 59.9033 95.9599C59.9033 110.638 59.9033 125.316 59.9536 139.994C59.9536 142.759 58.2445 144.468 55.3793 144.468C50.252 144.417 45.0745 144.417 39.9473 144.417C39.4949 144.417 39.0425 144.468 38.5398 144.518C37.5344 156.18 33.2617 166.434 25.5206 175.533C27.7826 177.091 29.8938 178.7 32.1559 180.107C33.9152 181.213 35.7751 182.068 37.6852 182.922C40.1986 184.129 41.2039 186.24 40.1986 188.401C39.2435 190.512 36.9815 191.266 34.5184 190.11C16.4222 181.716 5.66506 167.691 2.44796 147.936C2.24689 146.78 2.09609 145.574 1.89502 144.367C1.89502 141.804 1.89502 139.19 1.89502 136.525ZM52.0114 136.425C52.0114 122.35 52.0114 108.426 52.0114 94.5524C45.1248 93.9492 30.0949 100.333 25.7719 105.661C33.312 114.508 37.5344 124.763 38.59 136.425C43.1141 136.425 47.5376 136.425 52.0114 136.425ZM20.1923 111.191C14.2105 118.681 10.8426 126.924 9.98803 136.375C16.9752 136.375 23.8115 136.375 30.7484 136.375C29.743 126.874 26.3249 118.63 20.1923 111.191ZM9.93777 144.417C10.8426 153.968 14.2105 162.262 20.1923 169.652C26.3249 162.212 29.7933 153.918 30.6981 144.417C23.711 144.417 16.9249 144.417 9.93777 144.417Z" fill="#7A0003"/>
<path d="M74.58 172.82C74.6806 173.122 74.8314 173.323 74.9822 173.524C79.7073 165.431 85.9907 158.343 93.3799 152.663C90.3639 150.451 87.2976 148.29 84.2816 146.028C83.4773 145.425 82.8741 145.425 82.0196 145.877C77.5458 148.189 73.5244 151.105 69.9554 154.624C69.2517 155.327 69.0506 155.88 69.4025 156.886C71.1619 162.164 72.8709 167.492 74.58 172.82Z" fill="#FFD6D6"/>
<path d="M65.3324 208.359C65.3324 199.562 67.142 191.067 70.2586 183.226C66.1367 186.191 62.0148 189.207 57.8929 192.123C57.0886 192.676 56.9378 193.279 57.0886 194.184C57.9432 199.211 59.4009 204.086 61.9143 208.56C62.1656 209.013 62.9699 209.465 63.4725 209.515C64.126 209.515 64.7795 209.515 65.433 209.515C65.3827 209.113 65.3324 208.761 65.3324 208.359Z" fill="#FFD6D6"/>
<path d="M63.2203 163.268C64.5272 167.289 65.7839 171.009 66.94 174.779C67.0406 175.131 66.9903 175.785 66.739 175.935C63.4716 178.348 60.2042 180.761 56.6855 183.274C57.3893 176.036 59.4502 169.551 63.2203 163.268Z" fill="#FFD6D6"/>
<path d="M112.532 142.006C105.494 140.347 95.0891 140.9 92.626 142.358C95.1896 144.217 97.703 146.027 100.267 147.887C104.137 145.575 108.209 143.564 112.532 142.006Z" fill="#FFD6D6"/>
</svg>
