<svg width="259" height="266" viewBox="0 0 259 266" fill="none" xmlns="http://www.w3.org/2000/svg">
<g clip-path="url(#clip0_176_4204)">
<path d="M27.7028 8.19397C27.7028 8.19397 14.511 11.6585 14.511 16.6629V80.0145C14.511 80.0145 14.8408 90.3532 22.9758 100.087C22.9758 100.087 1.64893 78.4747 1.64893 62.7468C1.64893 47.0189 1.97872 11.6035 1.97872 11.6035L6.7058 7.2041L27.7028 8.13898V8.19397Z" fill="#FFD6D6"/>
<path d="M190.842 172.787L154.235 212.547C154.235 212.547 151.322 216.342 151.322 225.415C151.322 234.489 151.157 263.195 151.157 263.195L136.701 263.36L136.865 225.03L140.493 208.698L173.143 175.867C173.143 175.867 181.058 164.153 190.842 172.787Z" fill="#FFD6D6"/>
<path d="M14.1263 149.91L13.7415 188.955C13.7415 188.955 11.7078 197.479 23.4705 203.198C35.2332 208.917 71.5108 234.544 71.5108 234.544C71.5108 234.544 75.4684 238.613 75.4684 244.278C75.4684 249.942 75.0836 262.92 75.0836 262.92L65.1897 263.25L64.0904 244.608C64.0904 244.608 58.4289 236.469 48.2602 230.805C38.0915 225.14 4.78203 199.899 4.78203 199.899L3.57278 169.818C3.57278 169.818 0.714543 150.735 14.1263 149.91Z" fill="#FFD6D6"/>
<path d="M182.597 53.2329C184.026 51.968 185.126 51.0332 186.5 49.8783C188.863 52.573 191.337 55.3776 194.03 58.4572C200.681 51.7481 206.672 45.6989 212.883 39.4297C214.203 40.7495 215.247 41.7944 216.511 43.1142C212.499 47.1287 208.651 50.9232 204.803 54.7727C202.11 57.4123 199.472 60.107 196.833 62.7466C195.514 64.0664 194.14 64.4514 192.711 63.0766C189.413 59.887 186.115 56.6974 182.597 53.2329Z" fill="#7A0003"/>
<path d="M194.58 66.7059C193.151 66.7059 191.831 66.046 190.842 65.1111C188.533 62.9114 186.28 60.7117 183.971 58.402L180.673 55.2124C180.124 54.6625 179.794 53.9476 179.849 53.1777C179.849 52.4078 180.234 51.6929 180.783 51.198L184.686 47.8434C185.84 46.8535 187.544 46.9635 188.533 48.1184L194.14 54.4975L210.905 37.5598C211.399 37.0648 212.114 36.7349 212.883 36.7349C213.598 36.7349 214.313 37.0098 214.862 37.5598L218.49 41.2443C219.534 42.3441 219.534 44.0489 218.49 45.1488L205.848 57.7421C203.484 60.1068 201.121 62.4165 198.812 64.7812C197.383 66.211 195.954 66.8159 194.58 66.8159V66.7059Z" fill="#7A0003"/>
<path d="M35.618 51.913C37.0472 50.6482 38.1465 49.7133 39.5206 48.5585C41.8842 51.2531 44.3576 54.0578 47.051 57.1374C53.7019 50.4282 59.6932 44.379 65.9043 38.1099C67.2235 39.4297 68.2679 40.4746 69.5321 41.7944C65.5196 45.8089 61.672 49.6034 57.8243 53.4528C55.131 56.0925 52.4926 58.7871 49.8542 61.4268C48.5351 62.7466 47.1609 63.1316 45.7318 61.7568C42.4338 58.5672 39.1359 55.3776 35.618 51.913Z" fill="#7A0003"/>
<path d="M47.6006 65.3861C46.1715 65.3861 44.8523 64.7262 43.8629 63.7913C41.5543 61.5916 39.3007 59.3369 36.9372 57.0272L33.7491 53.8926C33.1995 53.3427 32.8697 52.6278 32.9247 51.8579C32.9247 51.088 33.3094 50.3731 33.8591 49.8781L37.7617 46.5236C38.916 45.5337 40.6199 45.6437 41.6093 46.7985L47.2158 53.1777L63.9805 36.2399C64.4752 35.745 65.1897 35.415 65.9592 35.415C66.6738 35.415 67.3884 35.69 67.938 36.2399L71.5658 39.9244C72.6101 41.0243 72.6101 42.7291 71.5658 43.8289L58.264 57.0822C56.1203 59.2269 53.9766 61.3166 51.8879 63.4613C50.4588 64.8912 48.9747 65.4961 47.6556 65.4961L47.6006 65.3861Z" fill="#7A0003"/>
<path d="M109.163 109.931C110.592 108.666 111.691 107.731 113.065 106.576C115.429 109.271 117.902 112.075 120.596 115.155C127.246 108.446 133.238 102.397 139.449 96.1274C140.768 97.4473 141.812 98.4921 143.077 99.812C139.064 103.826 135.216 107.621 131.369 111.47C128.676 114.11 126.037 116.805 123.399 119.444C122.08 120.764 120.705 121.149 119.276 119.774C115.978 116.585 112.68 113.395 109.163 109.931Z" fill="#7A0003"/>
<path d="M121.145 123.404C119.716 123.404 118.397 122.744 117.407 121.809C115.099 119.609 112.845 117.409 110.537 115.1L107.239 111.91C106.689 111.36 106.359 110.645 106.414 109.875C106.414 109.106 106.799 108.391 107.349 107.896L111.251 104.541C112.406 103.551 114.11 103.661 115.099 104.816L120.705 111.195L137.47 94.2575C137.965 93.7626 138.679 93.4326 139.449 93.4326C140.163 93.4326 140.878 93.7076 141.428 94.2575L145.055 97.942C146.1 99.0419 146.1 100.747 145.055 101.847L132.083 114.77C129.83 117.025 127.576 119.224 125.378 121.479C123.948 122.909 122.519 123.514 121.145 123.514V123.404Z" fill="#7A0003"/>
<path d="M190.897 260.941H185.895C185.895 255.881 185.51 250.932 186.005 246.038C186.555 240.208 190.073 236.029 194.91 232.839C210.85 222.336 226.625 211.612 242.565 201.164C246.303 198.744 248.007 195.774 247.897 191.265C247.677 180.486 247.897 169.708 247.842 158.874C247.842 153.265 244.764 149.635 240.092 149.635C235.53 149.635 232.341 153.375 232.286 158.874C232.286 167.178 232.177 175.482 232.286 183.786C232.341 187.745 230.857 190.55 227.395 192.585C215.577 199.459 203.814 206.498 191.996 213.372C186.39 216.672 180.234 215.682 176.551 211.117C172.813 206.443 173.253 200.064 177.815 195.224C181.223 191.65 184.851 188.24 188.314 184.666C192.271 180.596 192.491 175.482 188.973 172.017C185.62 168.718 180.399 168.883 176.496 172.732C166.602 182.521 156.763 192.365 146.979 202.263C141.483 207.818 138.954 214.692 138.954 222.446C138.954 233.994 138.954 245.543 138.954 257.091C138.954 258.246 138.954 259.401 138.954 260.776H134.007C133.952 260.061 133.787 259.236 133.787 258.466C133.787 246.368 133.787 234.269 133.787 222.226C133.787 213.207 136.81 205.288 143.187 198.799C153.08 188.735 163.029 178.672 173.143 168.773C181.113 160.964 193.59 164.208 196.229 174.712C197.438 179.551 196.229 183.896 192.711 187.525C189.083 191.265 185.4 194.839 181.773 198.524C179.519 200.834 178.365 203.528 179.904 206.718C181.443 209.852 185.236 211.117 188.479 209.247C200.791 202.153 213.048 194.949 225.251 187.58C226.295 186.975 226.9 184.886 226.955 183.456C227.12 174.822 226.955 166.188 227.065 157.554C227.23 147.986 236.409 141.771 244.874 145.346C249.931 147.491 252.734 151.45 252.844 156.894C253.009 169.103 252.954 181.256 252.844 193.465C252.844 198.414 250.205 201.933 246.193 204.628C230.363 215.132 214.697 225.8 198.812 236.139C193.151 239.823 190.292 244.388 190.732 251.152C190.952 254.232 190.732 257.366 190.732 260.776L190.897 260.941Z" fill="#EB1D36"/>
<path d="M190.897 262.976H185.895C184.741 262.976 183.806 262.041 183.806 260.886C183.806 259.346 183.806 257.806 183.751 256.266C183.697 252.857 183.587 249.282 183.916 245.763C184.521 239.879 187.819 234.929 193.7 231.025C200.296 226.68 206.837 222.336 213.378 217.936C222.722 211.722 232.012 205.508 241.411 199.349C244.599 197.259 245.918 194.895 245.808 191.265C245.698 184.006 245.698 176.747 245.698 169.543C245.698 165.968 245.698 162.449 245.698 158.874C245.698 154.475 243.5 151.725 240.037 151.725C236.574 151.725 234.32 154.53 234.32 158.929V161.954C234.32 169.213 234.21 176.527 234.32 183.786C234.375 188.57 232.451 192.035 228.439 194.4C222.283 197.974 216.126 201.604 210.025 205.233C204.364 208.588 198.702 211.887 193.041 215.187C186.555 218.981 179.299 217.827 174.957 212.437C170.56 206.938 171.109 199.294 176.386 193.85C178.31 191.815 180.289 189.89 182.267 187.91C183.806 186.371 185.345 184.831 186.885 183.291C190.018 180.046 190.292 176.252 187.599 173.557C185.016 170.973 181.058 171.303 178.035 174.272C168.141 184.061 158.302 193.905 148.573 203.803C143.626 208.808 141.153 215.132 141.153 222.556V260.886C141.153 262.041 140.218 262.976 139.064 262.976H134.117C133.073 262.976 132.193 262.151 132.083 261.106V260.501C131.918 259.896 131.864 259.236 131.864 258.576V252.857C131.864 242.683 131.864 232.51 131.864 222.336C131.864 212.547 135.271 204.188 141.812 197.479C153.41 185.656 162.919 176.142 171.824 167.453C176.166 163.164 182.157 161.569 187.654 163.109C192.931 164.594 196.943 168.828 198.317 174.327C199.692 179.827 198.317 184.941 194.25 189.065C192.326 191.045 190.347 193.025 188.424 194.95C186.72 196.654 185.016 198.359 183.312 200.064C180.783 202.649 181.168 204.518 181.828 205.948C182.322 206.938 183.202 207.708 184.246 208.038C185.345 208.368 186.5 208.203 187.544 207.598C200.846 199.954 212.829 192.86 224.261 185.931C224.481 185.711 224.921 184.556 224.976 183.566C225.031 179.332 225.031 175.152 225.031 170.918C225.031 166.518 225.031 162.064 225.086 157.664C225.196 152.33 227.779 147.546 232.067 144.741C236.189 142.046 241.191 141.662 245.753 143.586C251.635 146.061 254.878 150.845 254.987 157.004C255.152 169.543 255.097 182.026 254.987 193.63C254.987 198.854 252.404 203.198 247.402 206.498C241.851 210.183 236.299 213.922 230.747 217.607C220.524 224.426 210.3 231.3 199.966 238.009C194.635 241.473 192.436 245.488 192.821 251.152C192.986 253.297 192.931 255.497 192.876 257.751C192.876 258.796 192.876 259.841 192.876 260.886C192.876 262.041 191.941 262.976 190.787 262.976H190.897ZM187.929 258.851H188.808C188.808 258.466 188.808 258.081 188.808 257.696C188.808 255.552 188.863 253.462 188.753 251.427C188.259 244.223 191.117 238.834 197.768 234.544C208.101 227.835 218.27 221.016 228.494 214.197C234.045 210.457 239.597 206.773 245.149 203.088C249.051 200.504 250.865 197.479 250.865 193.63C250.975 182.026 251.03 169.598 250.865 157.114C250.81 152.55 248.556 149.306 244.159 147.436C240.861 146.061 237.288 146.336 234.32 148.261C231.132 150.295 229.318 153.76 229.208 157.774C229.098 162.174 229.153 166.573 229.153 170.973C229.153 175.207 229.153 179.442 229.098 183.676C229.098 185.381 228.329 188.35 226.405 189.505C214.972 196.434 202.935 203.528 189.633 211.227C187.599 212.382 185.236 212.712 183.037 211.997C180.893 211.337 179.134 209.798 178.145 207.818C176.936 205.288 176.276 201.439 180.399 197.259C182.102 195.499 183.806 193.795 185.565 192.09C187.489 190.165 189.468 188.24 191.392 186.261C194.415 183.126 195.459 179.497 194.415 175.372C193.371 171.248 190.567 168.223 186.61 167.123C182.487 165.968 178.09 167.178 174.737 170.423C165.888 179.112 156.378 188.625 144.781 200.394C139.009 206.278 136.041 213.702 135.986 222.391C135.986 232.565 135.986 242.738 135.986 252.912V258.631C135.986 258.631 135.986 258.796 135.986 258.906H137.03V222.666C137.03 214.087 139.944 206.828 145.66 200.999C155.444 191.1 165.283 181.201 175.177 171.413C179.849 166.793 186.28 166.518 190.512 170.698C194.855 174.987 194.635 181.366 189.853 186.261C188.314 187.855 186.775 189.395 185.181 190.935C183.202 192.86 181.278 194.84 179.354 196.819C175.507 200.834 175.067 206.113 178.2 209.963C181.278 213.812 186.28 214.472 191.007 211.777C196.668 208.478 202.33 205.123 207.991 201.824C214.148 198.194 220.249 194.565 226.405 190.99C229.153 189.395 230.308 187.306 230.253 184.006C230.143 176.692 230.198 169.378 230.253 162.064V159.039C230.253 152.385 234.32 147.711 240.092 147.711C245.918 147.711 249.876 152.275 249.876 158.984C249.876 162.559 249.876 166.133 249.876 169.653C249.876 176.857 249.876 184.061 249.986 191.32C250.095 196.379 248.062 200.064 243.719 202.978C234.375 209.138 225.031 215.352 215.742 221.566C209.201 225.965 202.605 230.31 196.064 234.654C191.172 237.899 188.534 241.748 188.094 246.368C187.764 249.612 187.874 252.912 187.929 256.376C187.929 257.256 187.929 258.136 187.984 259.016L187.929 258.851Z" fill="#EB1D36"/>
<path d="M118.232 260.995H113.23C113.23 259.841 113.23 258.686 113.23 257.531C113.23 245.763 113.23 233.994 113.23 222.226C113.23 214.692 110.757 207.982 105.48 202.593C95.6959 192.584 85.747 182.631 75.7432 172.787C70.5764 167.673 63.046 169.213 61.1222 175.537C60.0779 179.001 61.1222 181.916 63.6507 184.391C67.1685 187.91 70.6863 191.375 74.1492 194.949C77.0074 197.864 78.6014 201.328 78.0518 205.508C77.0074 213.317 68.5976 217.991 61.7268 214.142C48.8648 206.938 36.2226 199.239 23.5254 191.705C20.8871 190.165 19.9527 187.525 19.9527 184.501C19.9527 176.087 19.9527 167.673 19.9527 159.259C19.9527 157.884 19.8427 156.454 19.403 155.134C18.2487 151.395 14.8408 149.25 11.268 149.69C7.69522 150.13 4.56216 153.1 4.56216 156.894C4.39726 169.323 4.45222 181.696 4.56216 194.124C4.56216 197.039 6.54093 198.964 8.90447 200.558C24.185 210.677 39.2457 221.126 54.7462 230.914C63.2109 236.249 67.5532 243.068 66.6188 253.132C66.399 255.661 66.6188 258.246 66.6188 260.941H61.452C61.452 257.311 61.3421 253.681 61.452 250.052C61.6169 244.333 59.2534 240.208 54.4713 237.074C38.6411 226.625 22.9208 215.956 7.03563 205.618C1.64896 202.098 -0.934449 197.644 -0.824517 191.1C-0.604652 180.211 -0.824516 169.323 -0.76955 158.379C-0.76955 150.24 4.72705 144.466 12.2574 144.466C19.458 144.466 25.0645 150.405 25.1195 158.269C25.1744 166.683 25.2294 175.097 25.1195 183.511C25.1195 185.875 25.9439 187.25 27.9227 188.405C39.4106 195.059 50.7886 201.823 62.2215 208.532C66.1791 210.842 69.587 210.512 71.7307 207.652C73.8194 204.903 73.3247 201.548 70.2466 198.359C66.8387 194.894 63.3758 191.485 59.9679 188.02C54.1965 182.136 54.0316 173.832 59.5282 168.388C64.8049 163.108 73.2697 163.163 78.9862 168.773C89.1549 178.781 99.2137 188.845 109.163 199.019C115.044 205.068 118.122 212.492 118.287 220.906C118.507 233.719 118.342 246.587 118.342 259.456C118.342 259.896 118.232 260.281 118.177 260.995H118.232Z" fill="#EB1D36"/>
<path d="M118.232 263.085H113.23C112.076 263.085 111.141 262.15 111.141 260.995V245.762C111.141 237.898 111.141 230.09 111.141 222.226C111.141 215.021 108.723 208.862 103.941 204.023C94.3217 194.179 84.3179 184.171 74.2591 174.272C72.1704 172.237 69.587 171.412 67.2235 172.017C65.2447 172.512 63.7057 174.052 63.101 176.197C62.3315 178.726 62.9911 180.871 65.0798 183.016L69.1473 187.085C71.291 189.23 73.4346 191.375 75.5783 193.519C79.1511 197.149 80.6902 201.273 80.0855 205.783C79.4809 210.292 76.6776 214.197 72.6651 216.231C68.8175 218.156 64.4202 218.046 60.6825 215.956C50.129 210.017 39.5756 203.748 29.3519 197.644L22.4261 193.519C20.3374 192.254 17.864 189.67 17.864 184.555C17.864 176.142 17.864 167.728 17.864 159.314C17.864 157.884 17.6991 156.729 17.4242 155.794C16.5448 153.045 14.1812 151.395 11.4879 151.78C8.7396 152.11 6.59593 154.419 6.54096 156.949C6.43103 168.388 6.43103 180.541 6.54096 194.124C6.54096 195.829 7.58531 197.259 10.0038 198.854C14.9508 202.153 19.8427 205.453 24.7897 208.752C34.9034 215.571 45.347 222.555 55.7905 229.21C65.4646 235.314 69.5321 243.013 68.5976 253.351C68.4327 255.001 68.4877 256.706 68.5427 258.411C68.5427 259.236 68.5427 260.116 68.5427 260.995C68.5427 262.15 67.6082 263.085 66.454 263.085H61.2871C60.1329 263.085 59.1984 262.15 59.1984 260.995V257.696C59.1984 255.166 59.1984 252.637 59.1984 250.107C59.3633 245.268 57.4395 241.693 53.1522 238.888C46.5013 234.489 39.9054 230.09 33.2545 225.69C24.0751 219.586 14.9508 213.482 5.71647 207.432C-0.439728 203.418 -3.243 198.249 -3.0781 191.155C-2.9132 183.951 -2.96817 176.747 -2.96817 169.487C-2.96817 165.803 -2.96817 162.173 -2.96817 158.489C-2.96817 153.815 -1.31919 149.635 1.64898 146.72C4.34232 144.026 8.08001 142.541 12.0376 142.541H12.0925C20.5023 142.541 26.9334 149.415 26.9883 158.379C27.0433 166.793 27.0983 175.262 26.9883 183.676C26.9883 185.215 27.3731 185.985 28.8022 186.755C36.3326 191.155 43.8629 195.609 51.3933 200.008L63.101 206.883C66.1242 208.642 68.4327 208.532 69.9168 206.498C71.7307 204.078 70.1916 201.548 68.5976 199.898C66.8387 198.084 65.0248 196.269 63.211 194.454C61.562 192.804 59.913 191.21 58.319 189.56C51.833 182.906 51.6681 173.227 57.8793 167.013C63.9805 160.909 73.8194 161.074 80.2504 167.398C90.4192 177.406 100.588 187.58 110.427 197.644C116.748 204.078 119.991 211.887 120.156 220.906C120.321 230.089 120.266 239.328 120.266 248.512V259.456C120.266 259.786 120.211 260.171 120.156 260.61V261.16C119.936 262.205 119.056 262.975 118.012 262.975L118.232 263.085ZM115.319 258.961H116.363V248.567C116.363 239.383 116.418 230.199 116.308 221.016C116.198 213.097 113.34 206.223 107.788 200.558C97.9495 190.495 87.8357 180.376 77.667 170.367C72.7751 165.583 65.6844 165.418 61.0673 169.982C56.3952 174.657 56.615 181.696 61.507 186.755C63.101 188.405 64.75 190 66.344 191.595C68.1579 193.409 69.9718 195.224 71.7857 197.039C75.5783 200.888 76.1829 205.398 73.4346 208.972C70.6314 212.712 66.0692 213.262 61.2322 210.402L49.5244 203.528C41.9941 199.074 34.4637 194.674 26.9334 190.275C24.24 188.68 23.0308 186.645 23.0857 183.566C23.1957 175.152 23.1957 166.793 23.0857 158.379C23.0857 151.67 18.4136 146.61 12.2574 146.61C9.28926 146.61 6.70586 147.655 4.78205 149.58C2.5834 151.725 1.37415 154.914 1.37415 158.434C1.37415 162.118 1.37415 165.748 1.37415 169.432C1.37415 176.692 1.42912 183.951 1.26422 191.21C1.15429 196.874 3.18803 200.668 8.18994 203.913C17.4242 209.962 26.6036 216.066 35.7279 222.171C42.3239 226.57 48.9747 231.024 55.5707 235.369C61.0673 238.998 63.6507 243.838 63.4308 250.162C63.3759 252.637 63.4308 255.111 63.4308 257.641V258.906H64.4752C64.4752 258.906 64.4752 258.631 64.4752 258.466C64.4752 256.596 64.4202 254.726 64.5851 252.966C65.3546 244.223 62.0017 237.953 53.6469 232.674C43.1484 226.02 32.6498 218.981 22.5361 212.162C17.6441 208.862 12.6972 205.563 7.75021 202.263C5.49661 200.778 2.47347 198.304 2.47347 194.179C2.36354 180.541 2.36354 168.388 2.47347 156.894C2.47347 152.275 6.21116 148.315 10.9932 147.71C15.6104 147.105 19.8977 149.91 21.3818 154.584C21.8215 155.904 21.9864 157.444 22.0414 159.314C22.0414 167.728 22.0414 176.142 22.0414 184.61C22.0414 188.075 23.4705 189.34 24.5698 190L31.4955 194.124C41.6643 200.228 52.2177 206.498 62.7163 212.382C65.2447 213.812 68.2129 213.867 70.7963 212.547C73.5995 211.117 75.5234 208.422 75.9631 205.233C76.4028 201.988 75.3035 199.129 72.6102 196.434C70.4665 194.289 68.3228 192.144 66.1791 190L62.0567 185.875C58.8686 182.686 57.8243 178.946 59.0335 174.987C60.1329 171.412 62.6613 168.883 66.1242 168.003C69.8618 167.068 73.9843 168.278 77.0624 171.357C87.1762 181.311 97.18 191.32 106.799 201.163C112.351 206.828 115.154 213.922 115.154 222.226C115.154 230.09 115.154 237.898 115.154 245.762V258.906L115.319 258.961Z" fill="#EB1D36"/>
<path d="M126.202 56.6421C138.899 56.6421 151.651 56.6421 164.349 56.6421C172.868 56.6421 177.925 61.6465 177.87 70.2253C177.76 83.1486 178.09 96.1269 177.321 108.995C176.276 126.593 168.196 141.056 154.839 152.275C147.969 158.049 140.273 162.943 132.853 168.002C129.225 170.477 125.048 170.972 121.145 168.827C108.393 161.678 96.4105 153.429 87.3961 141.606C78.7664 130.277 74.8089 117.299 74.534 103.166C74.3142 91.8925 74.4241 80.564 74.534 69.2905C74.534 61.9214 79.8108 56.6971 87.1762 56.6421C100.203 56.5871 113.23 56.6421 126.257 56.6421H126.202ZM173.583 87.658C173.583 87.658 173.143 87.658 172.978 87.658C172.978 81.7188 172.978 75.7246 172.978 69.7854C172.978 64.6711 170.065 61.6465 165.008 61.6465C139.174 61.6465 113.285 61.6465 87.4511 61.6465C82.3942 61.6465 79.426 64.6161 79.3711 69.7304C79.3711 81.0039 79.1512 92.3324 79.426 103.606C79.8108 117.904 84.318 130.772 93.6073 141.771C101.742 151.45 112.186 158.159 122.959 164.373C125.488 165.858 128.181 165.308 130.544 163.768C135.986 160.139 141.593 156.674 146.814 152.714C159.237 143.201 168.691 131.377 171.329 115.594C172.868 106.466 172.868 97.0618 173.583 87.768V87.658Z" fill="#EB1D36"/>
<path d="M126.202 172.127C124.113 172.127 122.08 171.577 120.156 170.532C109.382 164.538 95.8059 155.904 85.802 142.761C77.2823 131.597 72.83 118.289 72.5552 103.166C72.3353 93.6525 72.3903 83.9737 72.4453 74.57V69.2357C72.5002 60.8218 78.6564 54.7176 87.0663 54.6626C96.2456 54.6626 105.48 54.6626 114.659 54.6626H164.349C169.076 54.6626 173.033 56.1474 175.726 58.842C178.42 61.5917 179.849 65.4962 179.794 70.2256C179.794 73.5801 179.794 76.9897 179.794 80.3442C179.794 89.748 179.794 99.5367 179.244 109.105C178.2 126.703 170.395 141.716 156.049 153.76C150.387 158.489 144.176 162.668 138.185 166.738L133.952 169.597C131.479 171.247 128.84 172.127 126.257 172.127H126.202ZM103.171 58.5671C97.7846 58.5671 92.4529 58.5671 87.0663 58.5671C80.8001 58.5671 76.4028 62.9665 76.3479 69.2357V74.57C76.2929 83.9188 76.2379 93.5425 76.3479 103.056C76.6227 117.299 80.8001 129.838 88.8252 140.341C98.3893 152.935 111.581 161.239 121.97 167.068C124.993 168.773 128.456 168.498 131.589 166.353L135.876 163.493C141.812 159.534 147.914 155.409 153.41 150.79C166.932 139.516 174.242 125.383 175.232 108.94C175.781 99.4817 175.781 89.803 175.781 80.3992C175.781 76.9897 175.781 73.6351 175.781 70.2256C175.781 66.541 174.792 63.6264 172.813 61.6467C170.835 59.6669 167.866 58.6221 164.184 58.6221H137.745H125.982H114.494C110.647 58.6221 106.854 58.6221 103.006 58.6221L103.171 58.5671ZM126.092 167.123C124.663 167.123 123.289 166.738 121.97 165.968C109.767 158.929 100.038 152.33 92.1231 142.926C82.7789 131.872 77.8869 118.619 77.5022 103.551C77.2823 94.8623 77.3373 86.0085 77.3922 77.4846V69.6206C77.4472 63.4614 81.2948 59.6119 87.451 59.6119C113.285 59.6119 139.174 59.6119 165.008 59.6119C171.054 59.6119 174.847 63.5164 174.902 69.7306C174.902 73.8551 174.902 78.0345 174.902 82.159V86.2284C175.342 86.6134 175.562 87.2183 175.507 87.8232C175.287 90.6829 175.122 93.5975 175.012 96.4571C174.682 102.836 174.352 109.435 173.253 115.815C170.78 130.443 162.48 142.981 147.969 154.145C144.066 157.169 139.834 159.919 135.821 162.558L131.644 165.308C129.83 166.518 127.961 167.123 126.147 167.123H126.092ZM126.202 63.5164C113.285 63.5164 100.368 63.5164 87.396 63.5164C83.4385 63.5164 81.2948 65.6062 81.2948 69.6206V77.4846C81.1849 86.0085 81.1299 94.8073 81.3498 103.441C81.7345 117.629 86.3517 130.058 95.0913 140.396C102.622 149.36 112.076 155.739 123.894 162.558C125.542 163.548 127.356 163.328 129.39 162.008L133.622 159.204C137.635 156.619 141.757 153.925 145.55 150.955C159.237 140.451 167.042 128.683 169.35 115.1C170.395 108.885 170.725 102.451 171.054 96.1821C171.164 93.7625 171.329 91.2878 171.494 88.8681C171.164 88.5381 170.944 88.0432 170.944 87.5483V82.104C170.944 77.9795 170.944 73.8551 170.944 69.6756C170.944 65.5512 168.911 63.4614 164.953 63.4614C152.036 63.4614 139.119 63.4614 126.202 63.4614V63.5164Z" fill="#EB1D36"/>
<path d="M149.453 45.8088H144.286C144.286 44.709 144.286 43.5541 144.286 42.3993C144.286 33.4355 144.286 24.4717 144.286 15.5078C144.286 7.36891 149.782 1.92462 157.917 1.86963C185.071 1.86963 212.279 1.86963 239.432 1.86963C246.743 1.86963 252.789 6.70899 252.899 13.5831C253.119 27.6062 253.448 41.6844 252.514 55.6526C251.03 77.7596 240.037 94.9724 222.558 108.116C217.391 111.965 211.729 115.155 206.288 118.619C201.121 121.919 195.954 121.809 190.842 118.454C189.303 117.464 187.764 116.53 185.95 115.485C186.83 114 187.654 112.68 188.589 111.14C190.732 112.405 192.546 113.89 194.635 114.55C196.888 115.21 199.857 116.035 201.615 115.1C216.676 107.401 230.088 97.612 238.882 82.599C244.654 72.8103 247.622 62.1967 247.842 50.9232C248.117 39.1547 247.952 27.3863 247.897 15.6178C247.897 10.2285 244.819 7.09394 239.487 7.09394C212.334 7.09394 185.126 7.09394 157.972 7.09394C152.696 7.09394 149.563 10.2835 149.563 15.6178C149.563 24.5816 149.563 33.5455 149.563 42.5093C149.563 43.5541 149.563 44.599 149.563 45.8088H149.453Z" fill="#EB1D36"/>
<path d="M198.647 123.129C195.624 123.129 192.656 122.139 189.633 120.214C188.643 119.554 187.599 118.949 186.5 118.289L184.796 117.245C183.806 116.64 183.532 115.375 184.081 114.44L186.72 110.095C187.324 109.106 188.588 108.831 189.523 109.381C190.237 109.766 190.897 110.205 191.557 110.645C192.821 111.47 193.975 112.24 195.129 112.57C196.174 112.9 199.417 113.835 200.571 113.23C217.94 104.376 229.483 94.3125 236.959 81.5542C242.455 72.1504 245.423 61.8118 245.643 50.8682C245.863 41.5745 245.808 32.1157 245.753 22.9319V15.6179C245.753 11.3834 243.5 9.18373 239.377 9.12874C212.224 9.12874 185.016 9.12874 157.862 9.12874C153.74 9.12874 151.541 11.3834 151.486 15.5629C151.486 21.8871 151.486 28.2662 151.486 34.5904V45.7539C151.486 46.9088 150.552 47.8436 149.453 47.8436H144.286C143.132 47.8436 142.197 46.9088 142.197 45.7539V34.3154C142.197 28.0463 142.197 21.7771 142.197 15.5079C142.197 6.15913 148.518 -0.165039 157.862 -0.165039C185.071 -0.165039 212.224 -0.165039 239.377 -0.165039C248.117 -0.165039 254.768 5.71919 254.878 13.5832V16.4428C255.152 29.3661 255.372 42.7293 254.493 55.8176C253.064 77.3198 242.73 95.5224 223.712 109.82C220.029 112.57 216.072 115.045 212.224 117.41C210.575 118.399 208.926 119.444 207.332 120.434C204.474 122.249 201.56 123.184 198.647 123.184V123.129ZM188.698 114.77C189.798 115.43 190.842 116.09 191.886 116.75C196.339 119.664 200.681 119.719 205.133 116.915C206.782 115.87 208.431 114.825 210.08 113.835C213.818 111.525 217.72 109.161 221.238 106.466C239.267 92.9377 249.051 75.78 250.37 55.4876C251.25 42.5643 251.03 29.3111 250.81 16.4428V13.5832C250.645 8.08388 245.753 3.90443 239.377 3.90443C212.224 3.90443 185.071 3.90443 157.862 3.90443C150.882 3.90443 146.375 8.46882 146.32 15.4529C146.32 21.7221 146.32 27.9913 146.32 34.2604V43.6642H147.364V34.5904C147.364 28.2662 147.364 21.8871 147.364 15.5629C147.364 9.07375 151.431 5.00428 157.862 5.00428C185.016 5.00428 212.224 5.00428 239.377 5.00428C245.808 5.00428 249.821 9.07375 249.821 15.5629V22.8219C249.876 32.0057 249.931 41.5195 249.766 50.8682C249.491 62.5267 246.413 73.5253 240.531 83.5889C232.616 97.0622 220.524 107.621 202.44 116.86C200.076 118.069 196.943 117.355 193.92 116.475C192.216 115.98 190.732 114.99 189.248 114.055C189.248 114.055 189.193 114.055 189.138 114L188.643 114.77H188.698Z" fill="#EB1D36"/>
<path d="M107.953 45.809H102.842C102.842 39.4299 102.842 33.2157 102.842 27.0015C102.842 23.097 102.896 19.2475 102.842 15.343C102.732 10.3387 99.7085 7.14912 94.7615 7.09412C67.3884 7.09412 39.9604 7.09412 12.5873 7.09412C8.08005 7.09412 4.56222 10.0637 4.56222 14.2982C4.56222 28.2113 4.23243 42.1795 5.00195 56.0377C6.04631 74.4603 15.0058 89.0883 29.132 100.472C35.5081 105.586 42.4888 109.876 49.3046 114.495C52.1628 116.475 55.186 116.31 58.1541 114.495C59.968 113.395 61.8368 112.295 63.8156 111.085C64.6951 112.57 65.4646 113.835 66.2341 115.1C57.2197 122.689 51.7231 122.304 44.8523 117.905C35.0134 111.58 25.4493 105.036 17.4243 96.4574C5.55161 83.754 -0.219823 68.521 -0.604585 51.3083C-0.879415 39.2099 -0.714517 27.1115 -0.659551 15.0681C-0.659551 7.47907 4.89202 1.9248 12.4773 1.9248C39.9604 1.9248 67.4984 1.9248 94.9814 1.9248C101.852 1.9248 107.679 6.87415 107.898 13.5283C108.228 24.1969 108.008 34.8655 108.008 45.809H107.953Z" fill="#EB1D36"/>
<path d="M53.7568 123.129C50.5688 123.129 47.3258 121.974 43.753 119.664C34.7935 113.89 24.4599 107.016 15.9402 97.8872C3.95757 85.1289 -2.25359 69.456 -2.69332 51.3084C-2.91319 40.9147 -2.85822 30.3561 -2.80325 20.1825V15.0131C-2.69332 6.2693 3.68274 -0.109863 12.4773 -0.109863C39.9603 -0.109863 67.4983 -0.109863 94.9813 -0.109863C103.116 -0.109863 109.712 5.88435 109.932 13.4734C110.152 21.0074 110.152 28.7063 110.097 36.1304C110.097 39.32 110.097 42.5645 110.097 45.8091C110.097 46.9639 109.163 47.8988 108.008 47.8988H102.896C101.742 47.8988 100.808 46.9639 100.808 45.8091V23.427C100.808 20.7324 100.808 18.0377 100.808 15.3981C100.753 11.4936 98.5541 9.18391 94.8164 9.18391C67.4433 9.18391 40.0153 9.18391 12.6422 9.18391C9.12438 9.18391 6.70587 11.3286 6.70587 14.3532V22.3272C6.59594 33.3807 6.54097 44.8192 7.1456 55.9828C8.08002 72.7556 15.9402 87.2187 30.5062 98.8771C35.0684 102.562 40.1252 105.916 44.9622 109.106C46.8311 110.316 48.645 111.58 50.5138 112.79C52.6025 114.22 54.6912 114.22 57.1097 112.735L62.8262 109.326C63.7606 108.776 65.0798 109.051 65.6295 110.041L68.048 114.055C68.5427 114.935 68.3778 116.035 67.6083 116.695C62.4964 121.039 58.1541 123.129 53.8118 123.129H53.7568ZM53.2071 3.9596C39.6305 3.9596 26.0539 3.9596 12.4773 3.9596C6.10125 3.9596 1.42913 8.63399 1.37417 15.0131V20.1825C1.26423 30.3561 1.20927 40.8598 1.37417 51.1984C1.75893 68.2461 7.6403 83.0392 18.8534 95.0276C27.0433 103.826 37.1021 110.536 45.8967 116.145C51.5032 119.719 55.9005 120.489 63.4308 114.605L62.9911 113.89L59.0885 116.2C55.2959 118.51 51.5032 118.51 48.0403 116.145C46.2265 114.88 44.3576 113.67 42.5437 112.46C37.5968 109.161 32.4849 105.806 27.7579 102.012C12.3674 89.6383 3.95757 74.1854 2.96818 56.2027C2.30859 44.8742 2.41852 33.3807 2.47349 22.2722V14.3532C2.47349 9.07393 6.87077 5.11445 12.5872 5.05946C40.0153 5.05946 67.3884 5.05946 94.8164 5.05946C100.863 5.05946 104.82 9.07393 104.93 15.2881C104.93 17.9828 104.93 20.7324 104.93 23.427V43.7194H105.92C105.92 41.1347 105.92 38.605 105.92 36.0754C105.92 28.3214 106.03 21.0074 105.755 13.5833C105.59 8.19404 100.808 4.01459 94.9264 3.9596C81.02 3.9596 67.0586 3.9596 53.1522 3.9596H53.2071Z" fill="#EB1D36"/>
</g>
<defs>
<clipPath id="clip0_176_4204">
<rect width="259" height="266" fill="white"/>
</clipPath>
</defs>
</svg>
