<svg width="257" height="265" viewBox="0 0 257 265" fill="none" xmlns="http://www.w3.org/2000/svg">
<g clip-path="url(#clip0_176_4149)">
<path d="M192.736 173.911L156.218 213.489C156.218 213.489 153.312 217.266 153.312 226.298C153.312 235.331 153.147 263.905 153.147 263.905L138.726 264.069L138.891 225.915L142.51 209.657L175.08 176.977C175.08 176.977 182.976 165.317 192.736 173.911Z" fill="#FFD6D6"/>
<path d="M16.5045 151.194L16.1207 190.06C16.1207 190.06 14.0919 198.545 25.8261 204.238C37.5602 209.931 73.7497 235.44 73.7497 235.44C73.7497 235.44 77.6976 239.491 77.6976 245.129C77.6976 250.767 77.3138 263.686 77.3138 263.686L67.4439 264.015L66.3473 245.457C66.3473 245.457 60.6996 237.356 50.5555 231.718C40.4115 226.079 7.18301 200.953 7.18301 200.953L5.9767 171.01C5.9767 171.01 3.12541 152.015 16.5045 151.194Z" fill="#FFD6D6"/>
<path d="M193.01 262.975H187.527C187.911 257.117 187.856 251.205 188.788 245.512C189.556 240.914 193.01 237.739 196.904 235.166C212.476 224.875 227.939 214.42 243.621 204.238C248.062 201.337 250.036 197.943 249.872 192.578C249.543 182.177 249.762 171.777 249.762 161.376C249.762 156.011 246.746 152.563 242.14 152.453C237.644 152.344 234.354 155.956 234.299 161.212C234.245 169.696 234.19 178.181 234.299 186.611C234.299 190.443 232.819 193.125 229.529 195.041C217.74 201.884 206.061 208.891 194.272 215.733C188.459 219.127 182.428 218.142 178.644 213.325C175.08 208.781 175.574 202.541 180.015 197.778C183.415 194.166 186.979 190.772 190.433 187.268C194.381 183.217 194.71 178.181 191.256 174.733C187.911 171.393 182.592 171.612 178.59 175.554C168.829 185.243 159.069 194.932 149.419 204.676C143.935 210.205 141.358 216.992 141.358 224.711C141.358 236.206 141.358 247.647 141.358 259.143C141.358 260.292 141.358 261.497 141.358 262.865H136.204C136.204 258.65 136.204 254.599 136.204 250.549C136.204 242.064 136.204 233.579 136.204 225.149C136.204 215.679 139.384 207.468 146.019 200.789C155.67 191.045 165.375 181.301 175.19 171.667C181.002 165.974 189.611 165.81 194.875 171.12C200.358 176.594 200.084 184.86 194.162 190.936C190.927 194.22 187.637 197.45 184.402 200.734C181.112 204.074 180.563 207.358 182.702 210.15C184.895 213.051 188.13 213.38 192.188 210.971C203.593 204.293 214.943 197.559 226.349 190.936C228.377 189.786 229.2 188.363 229.145 186.064C229.035 177.47 229.035 168.875 229.145 160.336C229.2 154.533 233.038 149.442 238.138 147.855C243.127 146.267 249.049 147.855 251.955 152.234C253.546 154.697 254.697 157.927 254.752 160.828C255.081 172.105 254.807 183.327 254.916 194.603C254.916 200.132 252.778 204.238 248.172 207.303C232.435 217.704 216.753 228.324 200.961 238.56C195.368 242.228 192.517 246.826 193.01 253.505C193.23 256.57 193.01 259.69 193.01 262.92V262.975Z" fill="#EB1D36"/>
<path d="M193.01 265H187.527C186.979 265 186.431 264.781 186.047 264.343C185.663 263.905 185.444 263.358 185.498 262.81C185.608 261.059 185.663 259.252 185.773 257.5C185.937 253.45 186.102 249.235 186.814 245.129C187.801 239.326 192.407 235.659 195.807 233.414C201.564 229.583 207.322 225.751 213.079 221.919C222.894 215.405 232.654 208.836 242.524 202.486C246.472 199.913 247.953 197.176 247.788 192.633C247.569 185.407 247.569 178.126 247.624 171.065C247.624 167.835 247.624 164.605 247.624 161.376C247.624 157.161 245.54 154.588 242.031 154.533C240.55 154.424 239.289 154.971 238.302 155.956C237.041 157.161 236.328 159.077 236.328 161.266C236.273 169.751 236.218 178.181 236.328 186.666C236.328 191.264 234.464 194.603 230.516 196.902C224.594 200.351 218.672 203.854 212.75 207.358C206.938 210.807 201.126 214.2 195.313 217.594C188.679 221.481 181.496 220.331 177.054 214.693C172.832 209.274 173.38 201.993 178.535 196.464C180.673 194.22 182.866 192.03 185.06 189.841C186.376 188.527 187.692 187.268 189.008 185.9C192.188 182.67 192.462 178.893 189.83 176.21C187.308 173.638 183.195 173.966 180.07 177.032C170.31 186.666 160.604 196.41 150.954 206.154C146.019 211.135 143.497 217.43 143.497 224.765V262.865C143.497 264.015 142.565 264.945 141.413 264.945H136.259C135.107 264.945 134.175 264.015 134.175 262.865V242.72C134.175 236.863 134.175 231.006 134.175 225.149C134.175 215.022 137.63 206.318 144.593 199.311C154.244 189.567 163.949 179.823 173.764 170.189C180.344 163.784 190.214 163.511 196.355 169.642C202.661 175.937 202.332 185.462 195.642 192.304C193.943 194.056 192.188 195.808 190.433 197.505C188.898 199.037 187.363 200.57 185.827 202.103C182.044 205.935 183.744 208.124 184.292 208.836C185.334 210.204 187.089 211.518 191.091 209.164L203.812 201.72C210.941 197.505 218.124 193.29 225.252 189.129C226.623 188.308 227.061 187.596 227.007 186.064C226.897 177.469 226.897 168.875 227.007 160.281C227.116 153.712 231.393 147.745 237.425 145.829C243.621 143.913 250.256 146.048 253.546 151.03C255.41 153.876 256.616 157.489 256.726 160.719C256.945 167.671 256.89 174.623 256.89 181.575C256.89 185.9 256.89 190.224 256.89 194.549C256.89 200.789 254.423 205.497 249.214 208.945C243.292 212.832 237.425 216.773 231.503 220.715C221.688 227.284 211.873 233.798 201.948 240.257C196.684 243.651 194.491 247.702 194.93 253.34C195.094 255.53 195.039 257.665 194.984 259.909C194.984 260.894 194.984 261.88 194.984 262.92C194.984 264.069 194.052 265 192.901 265H193.01ZM189.721 260.894H190.982C190.982 260.566 190.982 260.183 190.982 259.854C190.982 257.719 191.036 255.694 190.927 253.669C190.433 246.552 193.339 241.023 199.81 236.808C209.68 230.404 219.495 223.835 229.31 217.321C235.177 213.379 241.099 209.438 247.02 205.551C251.078 202.869 252.888 199.42 252.888 194.603C252.888 190.279 252.888 185.9 252.888 181.575C252.888 174.678 252.888 167.78 252.723 160.883C252.668 158.474 251.681 155.573 250.256 153.329C248.007 149.88 243.182 148.402 238.796 149.771C234.409 151.139 231.284 155.464 231.229 160.336C231.119 168.875 231.119 177.469 231.229 186.009C231.229 189.074 230.077 191.155 227.39 192.687C220.207 196.848 213.079 201.063 205.951 205.223L193.23 212.668C186.54 216.609 182.757 213.489 181.057 211.299C178.261 207.632 178.919 203.198 182.921 199.202C184.457 197.669 185.992 196.136 187.527 194.603C189.227 192.906 190.982 191.155 192.681 189.403C197.836 184.148 198.165 177.196 193.449 172.488C188.953 167.999 181.605 168.218 176.67 173.09C166.855 182.725 157.205 192.414 147.499 202.212C141.358 208.453 138.233 216.116 138.288 225.149C138.288 231.006 138.288 236.863 138.288 242.775V260.84H139.329V224.765C139.329 216.281 142.29 209.055 147.993 203.252C157.643 193.454 167.404 183.765 177.164 174.076C181.879 169.423 188.569 169.094 192.736 173.254C196.958 177.524 196.629 183.874 191.914 188.691C190.598 190.005 189.282 191.319 187.966 192.633C185.773 194.768 183.634 196.902 181.55 199.147C177.877 203.088 177.328 208.288 180.289 212.011C183.415 216.007 188.405 216.719 193.23 213.872C199.042 210.478 204.854 207.029 210.667 203.636C216.588 200.132 222.51 196.629 228.487 193.18C231.174 191.647 232.271 189.622 232.216 186.556C232.106 178.072 232.161 169.587 232.216 161.102C232.216 157.763 233.367 154.862 235.451 152.891C237.26 151.139 239.673 150.263 242.14 150.318C247.898 150.428 251.736 154.862 251.791 161.266C251.791 164.496 251.791 167.78 251.791 171.01C251.791 178.017 251.681 185.297 251.955 192.414C252.175 198.38 249.927 202.486 244.772 205.825C234.903 212.23 225.142 218.744 215.327 225.258C209.57 229.09 203.812 232.922 198.055 236.754C193.614 239.71 191.365 242.447 190.817 245.731C190.159 249.618 189.995 253.504 189.83 257.61C189.83 258.65 189.721 259.745 189.666 260.785L189.721 260.894Z" fill="#EB1D36"/>
<path d="M120.631 262.974H115.642C115.642 261.825 115.642 260.675 115.642 259.526C115.642 248.249 115.587 236.973 115.642 225.751C115.697 217.156 112.79 209.876 106.649 203.8C97.4373 194.658 88.2803 185.461 79.0684 176.265C78.1363 175.389 77.2041 174.459 76.1075 173.802C72.4885 171.557 67.8277 172.269 65.3055 175.28C62.6187 178.455 62.6187 182.998 65.5248 186.173C69.0889 190.005 72.9272 193.673 76.601 197.395C79.4522 200.296 81.0972 203.69 80.6037 207.85C79.5619 216.171 70.7887 220.386 63.3315 216.062C51.2683 209.109 39.3148 201.938 27.2517 194.877C24.1811 193.07 22.7554 190.498 22.8103 186.939C22.8651 178.674 22.8103 170.408 22.8103 162.142C22.8103 160.554 22.6458 158.912 22.0974 157.434C20.8911 154.04 17.7108 152.124 14.3112 152.508C10.7471 152.891 7.56681 155.518 7.51198 159.131C7.29265 171.667 7.34748 184.202 7.51198 196.793C7.51198 199.858 9.81495 201.665 12.2276 203.252C27.9097 213.598 43.4273 224.163 59.1642 234.345C66.2376 238.943 69.6921 245.019 69.2534 253.449C69.0889 256.515 69.2534 259.635 69.2534 262.92H64.0991C64.0991 259.471 63.9895 255.968 64.0991 252.519C64.3733 246.552 61.851 242.337 56.9161 239.107C41.5081 228.98 26.2647 218.525 10.7471 208.562C4.71552 204.675 1.86423 199.858 2.13839 192.633C2.52222 182.122 2.19323 171.612 2.24806 161.102C2.24806 153.055 7.78614 147.198 15.1885 147.307C22.4264 147.362 27.9097 153.219 28.0193 161.047C28.0742 169.422 28.129 177.798 28.0193 186.173C28.0193 188.527 28.8418 189.841 30.8706 191.045C42.3855 197.723 53.7906 204.511 65.2506 211.244C69.0341 213.434 72.324 213.051 74.4625 210.204C76.4913 207.522 76.0526 204.183 73.2013 201.227C69.7469 197.669 66.1828 194.275 62.7283 190.717C57.0806 184.914 56.8064 176.812 62.0155 171.393C67.2246 165.974 75.8881 165.864 81.7004 171.557C91.7347 181.411 101.714 191.319 111.529 201.391C117.835 207.796 120.851 215.678 120.906 224.656C120.96 236.644 120.906 248.687 120.906 260.675C120.906 261.387 120.796 262.153 120.741 263.029L120.631 262.974Z" fill="#EB1D36"/>
<path d="M120.632 265H115.642C114.49 265 113.558 264.069 113.558 262.92V249.344C113.558 241.461 113.558 233.579 113.558 225.696C113.613 217.539 110.871 210.861 105.169 205.223C99.9048 199.968 94.6409 194.713 89.377 189.457L77.588 177.688C76.8203 176.922 75.943 176.101 75.0109 175.499C72.2692 173.802 68.76 174.24 66.8408 176.593C64.7572 179.057 64.8669 182.451 67.0053 184.75C69.3631 187.268 71.8306 189.731 74.2432 192.14C75.5044 193.399 76.7655 194.658 78.0267 195.917C81.5908 199.53 83.1261 203.635 82.5778 208.069C82.0294 212.668 79.3975 216.445 75.3947 218.415C71.3371 220.441 66.4022 220.222 62.2349 217.813C54.9422 213.598 47.6494 209.328 40.4116 205.059C35.6411 202.267 30.9255 199.42 26.1551 196.683C22.4813 194.548 20.617 191.264 20.6718 186.939C20.7267 178.674 20.6718 170.462 20.6718 162.197C20.6718 160.554 20.4525 159.186 20.1235 158.146C19.2462 155.682 17.0529 154.259 14.4758 154.588C12.118 154.861 9.54084 156.558 9.48601 159.241C9.32151 170.189 9.26668 182.122 9.48601 196.847C9.48601 198.763 10.9117 200.077 13.3243 201.665C18.8075 205.278 24.2908 208.945 29.774 212.613C39.9181 219.346 50.0621 226.134 60.2609 232.757C68.1568 237.903 71.7758 244.746 71.2823 253.668C71.1726 255.749 71.2274 257.829 71.2823 259.964V263.084C71.2823 264.233 70.4049 265.164 69.2535 265.164H64.0992C62.9477 265.164 62.0156 264.233 62.0156 263.084V259.909C62.0156 257.5 61.9607 255.037 62.0156 252.628C62.2349 247.647 60.2061 243.979 55.7098 241.023C49.5137 236.918 43.3177 232.812 37.1216 228.707C27.9646 222.576 18.8075 216.445 9.54084 210.533C2.79644 205.934 -0.274177 200.296 -1.40251e-05 192.578C0.219316 185.626 0.219316 178.455 0.164484 171.612C0.164484 168.109 0.164484 164.605 0.164484 161.157C0.164484 156.558 1.80946 152.343 4.82525 149.442C7.51204 146.76 11.1858 145.336 15.0789 145.336H15.2434C23.6328 145.391 29.9934 152.179 30.103 161.102C30.1579 169.477 30.2127 177.852 30.103 186.228C30.103 187.761 30.4869 188.472 31.9125 189.293C39.2601 193.563 46.5528 197.888 53.9003 202.157L66.3473 209.493C69.1438 211.135 71.3919 210.971 72.8724 208.945C74.7915 206.427 72.9821 203.909 71.7209 202.65C69.9663 200.844 68.1568 199.037 66.3473 197.231C64.6475 195.534 62.9477 193.837 61.3027 192.14C54.8873 185.571 54.5583 176.21 60.5899 169.97C63.4412 167.014 67.2795 165.317 71.3919 165.262C75.8334 165.043 79.9458 166.904 83.1809 170.079C92.6121 179.33 102.372 189.074 113.065 199.913C119.645 206.591 122.989 214.912 123.044 224.601C123.044 233.907 123.044 243.158 123.044 252.464V260.675C123.044 261.223 122.989 261.77 122.934 262.372V263.193C122.77 264.288 121.893 265.109 120.796 265.109L120.632 265ZM117.725 260.894H118.767C118.767 260.894 118.767 260.675 118.767 260.62V252.409C118.767 243.103 118.767 233.852 118.767 224.546C118.767 215.952 115.751 208.617 109.994 202.705C99.3565 191.866 89.5963 182.122 80.1651 172.926C77.6977 170.517 74.5174 169.313 71.3371 169.258C68.3213 169.258 65.5248 170.517 63.4412 172.707C58.9449 177.36 59.2191 184.148 64.0992 189.184C65.7442 190.881 67.444 192.523 69.089 194.22C70.8984 196.026 72.7627 197.833 74.5174 199.694C78.0815 203.362 78.6298 207.796 75.9979 211.354C73.2014 215.076 68.76 215.678 64.0992 212.941L51.6522 205.606C44.3595 201.281 37.0668 196.957 29.7192 192.742C27.0324 191.154 25.8261 189.129 25.8809 186.064C25.9906 177.688 25.9906 169.368 25.8809 160.992C25.8809 154.259 21.275 149.333 15.1338 149.278H15.0241C12.1728 149.278 9.65051 150.318 7.67654 152.234C5.48324 154.423 4.27692 157.544 4.27692 161.047C4.27692 164.55 4.27692 167.999 4.27692 171.503C4.27692 178.455 4.38659 185.626 4.11242 192.687C3.89309 198.982 6.19606 203.197 11.789 206.81C21.0557 212.777 30.2675 218.908 39.4246 225.039C45.6206 229.145 51.7619 233.305 57.958 237.356C63.7154 241.133 66.3473 246.114 66.0732 252.574C65.9635 254.927 66.0183 257.281 66.0732 259.635V260.839H67.115V259.854C67.115 257.61 67.0602 255.475 67.115 253.34C67.4988 245.895 64.5927 240.421 57.958 236.097C47.7043 229.473 37.5603 222.685 27.4162 215.897C21.933 212.23 16.4497 208.562 10.9665 204.949C8.99252 203.635 5.37357 201.227 5.31874 196.793C5.15424 182.013 5.20908 170.079 5.31874 159.076C5.37357 154.642 9.10218 150.92 13.9823 150.427C18.4785 149.989 22.4813 152.507 23.9618 156.723C24.5101 158.201 24.7295 160.007 24.7843 162.087C24.8391 170.353 24.8391 178.619 24.7843 186.885C24.7843 189.731 25.8261 191.647 28.2387 193.016C33.0092 195.807 37.7796 198.599 42.55 201.446C49.7879 205.715 57.0258 209.985 64.3185 214.2C67.3343 215.952 70.7339 216.116 73.5852 214.693C76.3268 213.324 78.1363 210.697 78.5201 207.522C78.904 204.347 77.8073 201.5 75.1205 198.763C73.8594 197.504 72.5982 196.245 71.3371 194.986C68.8148 192.523 66.3473 190.06 63.9895 187.487C60.3706 183.6 60.2609 178.017 63.7154 173.911C66.9505 170.025 72.7079 169.203 77.2042 171.995C78.5201 172.816 79.6168 173.856 80.549 174.732L92.3379 186.501C97.6019 191.757 102.866 197.012 108.13 202.267C114.545 208.671 117.78 216.554 117.725 225.696C117.671 233.579 117.725 241.461 117.725 249.344V260.894Z" fill="#EB1D36"/>
<path d="M86.471 83.2606H81.3167V46.6938H62.893V83.1511H57.5742V81.4542C57.5742 69.3565 57.5742 57.204 57.5742 45.1063C57.5742 42.1503 58.3419 41.3839 61.3577 41.3839C67.3344 41.3839 73.2563 41.3839 79.2331 41.3839H81.1522C81.1522 40.6723 81.1522 40.0702 81.1522 39.468C81.1522 33.337 81.1522 27.2608 81.1522 21.1299C81.1522 19.7613 81.6457 18.776 82.6875 17.9002C87.5676 13.9041 92.4477 9.79852 97.3278 5.74771C99.0824 4.26971 100.015 4.26971 101.769 5.74771C106.649 9.79852 111.529 13.8493 116.41 17.9002C117.451 18.776 117.945 19.7613 117.945 21.1299C117.89 24.3048 117.945 27.4798 117.945 30.7642H138.946V29.0673C138.946 21.2941 138.946 13.5756 138.946 5.80245C138.946 2.84645 139.713 2.08008 142.784 2.08008C152.544 2.08008 162.249 2.08008 172.01 2.08008C174.971 2.08008 175.738 2.84645 175.738 5.91193C175.738 17.9549 175.738 30.0526 175.738 42.0956V44.0115C176.67 44.0115 177.493 44.0115 178.315 44.0115C184.292 44.0115 190.214 44.0115 196.191 44.0115C198.274 44.0115 199.371 44.9421 199.371 46.9128C199.371 58.8462 199.371 70.8345 199.371 82.7679C199.371 82.8774 199.371 82.9869 199.261 83.2059H194.217V49.3761H175.793V83.2059H170.584V7.38993H144.319V83.2059H139.055V36.2383H118.109V83.2059H112.791V81.2352C112.791 61.9117 112.791 42.5882 112.791 23.2647C112.791 22.1152 112.516 21.3488 111.584 20.6372C107.581 17.4075 103.688 14.123 99.6308 10.7291C95.299 14.342 91.0769 17.8454 86.9096 21.4036C86.5258 21.732 86.5258 22.6079 86.5258 23.21C86.5258 42.5335 86.5258 61.857 86.5258 81.1805V83.2606H86.471Z" fill="#7A0003"/>
<path d="M88.5546 85.3408H79.2879V48.774H64.9766V85.2314H55.5454V45.1064C55.5454 41.0008 57.2452 39.3039 61.4125 39.3039H79.1782V34.6509C79.1782 30.1622 79.1782 25.6734 79.1782 21.1299C79.1782 19.1593 79.9459 17.5718 81.4812 16.3127C84.7711 13.6304 88.0063 10.8934 91.2414 8.21111L96.0666 4.1603C98.5889 2.02541 100.618 2.02541 103.14 4.1603L108.13 8.32059C111.31 11.0029 114.545 13.6304 117.78 16.3127C119.37 17.6265 120.083 19.214 120.028 21.1847C120.028 23.429 120.028 25.6734 120.028 27.9725V28.6842H136.917V5.80252C136.917 1.69696 138.617 0 142.784 0H172.01C176.122 0 177.822 1.69696 177.822 5.85726V41.9314H196.246C199.536 41.9314 201.455 43.7926 201.455 46.8581C201.455 56.164 201.455 65.4699 201.455 74.7759L201.345 83.4796L200.961 85.0124L199.316 85.2314H192.188V51.4016H177.877V85.2314H168.555V9.47015H146.403V85.2314H137.027V38.2638H120.193V85.2861H110.762V69.6302C110.762 54.1386 110.762 38.7017 110.762 23.2101C110.762 22.6079 110.707 22.4985 110.323 22.17C107.417 19.8162 104.511 17.3528 101.55 14.9442L99.6856 13.3567L98.0406 14.7253C94.8603 17.3528 91.7349 19.9804 88.6094 22.6079C88.6094 22.7722 88.6094 23.0459 88.6094 23.1553V85.3408H88.5546ZM83.4003 81.2353H84.4421V23.2101C84.4421 22.2795 84.4421 20.8015 85.5388 19.8709C88.7739 17.0791 92.0639 14.3968 95.3538 11.605L99.6308 8.04689L104.182 11.824C107.088 14.2873 109.994 16.6959 112.9 19.0498C114.271 20.1446 114.874 21.4584 114.874 23.2648C114.874 38.7017 114.874 54.1933 114.874 69.6302V81.1805H116.081V34.1582H141.139V81.1258H142.29V5.36459H172.668V81.1805H173.764V47.3507H196.3V81.1805H197.342V74.8306C197.342 65.5247 197.342 56.2188 197.342 46.9128C197.342 46.2559 197.342 46.0917 196.246 46.0917H173.764V5.85726C173.764 4.59822 173.6 4.26978 173.6 4.21504C173.6 4.21504 173.216 4.10556 172.119 4.10556H142.894C141.632 4.10556 141.303 4.26978 141.249 4.26978C141.249 4.26978 141.139 4.59822 141.139 5.74778V32.7897H116.026V27.9725C116.026 25.6187 116.026 23.3743 116.026 21.0752C116.026 20.3636 115.861 19.9256 115.258 19.433C112.023 16.8054 108.843 14.1231 105.607 11.4408L100.618 7.28052C99.9597 6.73311 99.6856 6.67837 99.6856 6.62363C99.6856 6.62363 99.4663 6.67837 98.8083 7.22578L93.983 11.2766C90.7479 14.0136 87.4579 16.6959 84.168 19.3782C83.5648 19.8709 83.3455 20.2541 83.4003 21.0204C83.4003 25.5092 83.4003 30.0527 83.4003 34.5414V43.2999H61.5222C60.261 43.2999 59.932 43.4642 59.8772 43.4642C59.8772 43.4642 59.7675 43.7926 59.7675 44.9422V80.9616H60.9738V44.5042H83.51V81.0711L83.4003 81.2353Z" fill="#7A0003"/>
<path d="M198.384 121.743C200.194 116.324 201.893 111.069 203.648 105.704C205.348 106.252 206.938 106.799 208.638 107.346C206.828 112.93 205.074 118.404 203.209 123.769C202.277 126.451 199.481 127.546 196.575 126.67C194.655 126.068 192.736 125.411 191.037 124.863C187.472 129.79 183.963 134.662 180.344 139.643C181.331 141.012 182.537 142.654 183.634 144.296C185.663 147.198 185.169 150.044 182.373 152.179C178.315 155.135 174.258 158.091 170.145 161.047C167.349 163.018 164.443 162.525 162.414 159.733C161.427 158.365 160.495 156.941 159.398 155.628C159.124 155.299 158.356 155.08 157.973 155.19C152.599 156.996 147.28 158.912 141.687 160.938C141.687 162.416 141.687 164.331 141.687 166.302C141.687 169.97 139.549 172.05 135.875 172.05C130.94 172.05 126.005 172.05 121.125 172.05C117.671 172.05 115.532 169.915 115.477 166.412C115.477 164.441 115.477 162.47 115.477 160.719C109.665 158.857 103.962 156.996 98.0406 155.08C97.0536 156.449 95.8473 158.036 94.641 159.678C92.5025 162.47 89.6512 162.963 86.7451 160.883C82.6875 157.982 78.6847 155.08 74.6819 152.124C71.8306 150.044 71.392 147.143 73.4208 144.296C74.5723 142.709 75.7237 141.121 76.7656 139.643C73.2014 134.771 69.6922 129.9 66.0184 124.863C64.4831 125.356 62.6188 125.958 60.7545 126.506C57.1903 127.6 54.6132 126.341 53.4069 122.838C51.7071 117.747 50.0621 112.601 48.3623 107.346C50.0073 106.799 51.5426 106.306 53.2972 105.704C55.0519 111.014 56.7517 116.269 58.5612 121.688C60.5351 121.032 62.4543 120.484 64.3734 119.827C67.0602 118.951 69.418 119.663 70.8436 122.126C73.6401 127.053 76.93 131.542 80.7683 135.757C82.6326 137.782 82.6875 140.081 81.1522 142.38C80.0007 144.077 78.7395 145.72 77.4235 147.581C81.6456 150.646 85.8129 153.712 90.1447 156.777C91.351 155.08 92.5025 153.493 93.654 151.96C95.5731 149.387 97.8212 148.73 100.673 150.044C105.662 152.288 110.817 153.985 116.19 155.08C119.041 155.628 120.577 157.653 120.632 160.554C120.632 162.525 120.632 164.496 120.632 166.576H136.369C136.369 164.605 136.369 162.634 136.369 160.664C136.369 157.544 137.904 155.573 140.974 155.026C146.238 153.985 151.283 152.288 156.218 150.099C159.179 148.785 161.427 149.387 163.401 152.015C164.552 153.548 165.649 155.08 166.91 156.777C171.132 153.712 175.354 150.701 179.631 147.581C178.425 145.939 177.328 144.406 176.232 142.873C174.258 140.136 174.532 137.946 176.561 135.319C179.741 131.213 182.812 127.053 185.718 122.783C187.747 119.827 189.775 118.897 193.23 119.991C194.93 120.539 196.629 121.086 198.549 121.688L198.384 121.743Z" fill="#EB1D36"/>
<path d="M127.65 174.13C125.402 174.13 123.209 174.13 120.961 174.13C116.3 174.13 113.284 171.12 113.284 166.467V162.252L98.6985 157.544L96.1762 160.938C93.3798 164.66 89.2673 165.317 85.4291 162.58C81.3714 159.679 77.3687 156.777 73.3111 153.821C69.5276 151.03 68.8696 146.979 71.6113 143.147L74.1336 139.698L65.141 127.327L61.3027 128.531C56.5872 129.954 52.9134 128.148 51.3781 123.55C50.1169 119.773 48.9106 115.941 47.6494 112.109L46.3335 108.003C46.0045 106.909 46.5528 105.759 47.6494 105.431L52.5844 103.788C53.1327 103.624 53.681 103.679 54.1745 103.898C54.668 104.117 55.0518 104.555 55.2163 105.102L59.8771 119.171C61.1931 118.787 62.4542 118.349 63.7154 117.966C67.444 116.707 70.7888 117.966 72.6531 121.196C75.3399 125.958 78.6298 130.392 82.3036 134.443C84.7711 137.126 84.9356 140.465 82.8519 143.585C82.0294 144.789 81.2069 145.939 80.2748 147.198L89.6512 153.986C90.4188 152.891 91.1865 151.851 92.009 150.811C94.4764 147.472 97.8212 146.541 101.55 148.238C106.43 150.482 111.529 152.124 116.629 153.11C120.357 153.876 122.605 156.668 122.715 160.555C122.715 161.868 122.715 163.182 122.715 164.551H134.34V160.719C134.34 156.559 136.588 153.821 140.591 153.055C145.525 152.07 150.46 150.482 155.341 148.238C159.124 146.541 162.469 147.417 164.991 150.811L167.294 153.931L176.67 147.143L174.422 144.078C172.01 140.684 172.119 137.509 174.806 134.06C178.096 129.845 181.112 125.685 183.853 121.634C186.431 117.802 189.501 116.707 193.668 118.021L197.013 119.116L201.619 105.047C201.784 104.555 202.167 104.117 202.661 103.843C203.154 103.624 203.703 103.569 204.251 103.734L209.241 105.376C210.338 105.704 210.886 106.909 210.557 107.949L208.967 112.766C207.706 116.707 206.444 120.539 205.074 124.426C203.812 128.093 199.974 129.845 195.862 128.586C194.546 128.203 193.175 127.765 191.969 127.327L191.694 127.217L182.757 139.589L182.866 139.698C183.634 140.738 184.457 141.888 185.279 143.092C187.911 146.924 187.253 151.03 183.524 153.767C179.467 156.777 175.409 159.733 171.297 162.635C167.623 165.262 163.456 164.551 160.714 160.883L159.672 159.405C159.179 158.693 158.63 157.982 158.137 157.27C154.079 158.639 150.077 160.117 145.909 161.595L143.716 162.361V166.302C143.716 171.12 140.645 174.076 135.82 174.13C133.133 174.13 130.392 174.13 127.705 174.13H127.65ZM97.9309 153.055C97.9309 153.055 98.3695 153.055 98.5889 153.165L115.971 158.803C116.848 159.077 117.396 159.843 117.396 160.774V162.525V166.412C117.396 168.766 118.658 169.97 121.015 169.97C125.95 169.97 130.83 169.97 135.765 169.97C138.342 169.97 139.549 168.766 139.549 166.248V160.883C139.549 160.007 140.097 159.241 140.92 158.967L144.484 157.708C148.815 156.175 153.038 154.697 157.26 153.219C158.466 152.836 160.111 153.219 160.933 154.259C161.646 155.135 162.359 156.066 163.017 157.051L164.059 158.474C165.485 160.39 167.075 160.664 168.939 159.35C172.997 156.449 177.109 153.493 181.112 150.537C183.031 149.114 183.305 147.526 181.934 145.501C181.167 144.351 180.344 143.256 179.576 142.216L178.644 140.903C178.151 140.191 178.151 139.206 178.644 138.494L189.337 123.714C189.83 123.002 190.762 122.674 191.64 122.948L193.339 123.495C194.546 123.878 195.862 124.316 197.178 124.699C198.768 125.192 200.687 124.864 201.29 123.112C202.606 119.28 203.867 115.448 205.128 111.562L206.061 108.66L204.964 108.332L200.358 122.4C200.029 123.495 198.878 124.097 197.781 123.714L192.517 122.017C190.049 121.251 188.953 121.634 187.363 123.988C184.566 128.093 181.496 132.363 178.151 136.633C176.561 138.658 176.506 139.863 177.877 141.724L181.276 146.431C181.605 146.869 181.715 147.417 181.66 147.964C181.605 148.512 181.276 149.004 180.838 149.278L168.116 158.474C167.184 159.131 165.923 158.967 165.265 158.037L161.756 153.274C160.33 151.358 159.124 151.03 157.095 151.96C151.941 154.314 146.677 156.011 141.413 157.051C139.329 157.434 138.507 158.529 138.507 160.719V166.576C138.507 167.726 137.575 168.656 136.423 168.656H120.686C119.535 168.656 118.603 167.726 118.603 166.576V164.605C118.603 163.237 118.603 161.923 118.603 160.609C118.603 158.584 117.671 157.489 115.861 157.106C110.433 156.011 105.059 154.259 99.85 151.906C97.876 151.03 96.6697 151.358 95.2989 153.165C94.4764 154.314 93.6539 155.409 92.7766 156.613L91.7896 157.982C91.1316 158.912 89.8156 159.077 88.9383 158.42L76.2172 149.223C75.285 148.566 75.1205 147.307 75.7785 146.377L76.9848 144.734C77.8622 143.53 78.6847 142.381 79.5071 141.231C80.549 139.698 80.4941 138.439 79.3426 137.126C75.4495 132.856 72.0499 128.148 69.1986 123.167C68.6503 122.181 67.6085 120.977 65.141 121.798C63.825 122.236 62.5091 122.619 61.1931 123.057L59.3288 123.659C58.2321 123.988 57.0806 123.44 56.7516 122.346L52.1457 108.277L51.1039 108.606L51.8167 110.74C53.0779 114.572 54.2842 118.404 55.5453 122.181C56.3678 124.645 57.7386 125.356 60.3158 124.535L65.5248 122.893C66.3473 122.619 67.2795 122.893 67.8278 123.659L78.575 138.439C79.0685 139.151 79.0685 140.136 78.575 140.848L75.2302 145.501C73.8046 147.472 74.0787 149.059 75.9979 150.537C80.0006 153.493 84.0034 156.394 88.061 159.296C90.035 160.719 91.6251 160.445 93.1056 158.529L96.5052 153.986C96.889 153.438 97.4922 153.165 98.1502 153.165L97.9309 153.055Z" fill="#EB1D36"/>
<path d="M209.789 91.855V96.8911H47.2108V91.855H209.789Z" fill="#EB1D36"/>
<path d="M209.789 98.9714H47.2108C46.0594 98.9714 45.1272 98.0408 45.1272 96.8912V91.8551C45.1272 90.7055 46.0594 89.7749 47.2108 89.7749H209.789C210.941 89.7749 211.873 90.7055 211.873 91.8551V96.8912C211.873 98.0408 210.941 98.9714 209.789 98.9714ZM49.2396 94.8658H207.706V93.9352H49.2396V94.8658Z" fill="#EB1D36"/>
<path d="M107.417 25.7827V30.8189H91.8993V25.7827H107.417Z" fill="#EB1D36"/>
<path d="M107.417 43.9019H91.8445V38.811H107.417V43.9019Z" fill="#EB1D36"/>
<path d="M149.583 15.2178H154.573V20.3087H149.583V15.2178Z" fill="#EB1D36"/>
<path d="M165.21 15.2725V20.2539H160.111V15.2725H165.21Z" fill="#EB1D36"/>
<path d="M149.638 28.3008H154.628V33.3917H149.638V28.3008Z" fill="#EB1D36"/>
<path d="M160.111 28.3555H165.156V33.4464H160.111V28.3555Z" fill="#EB1D36"/>
<path d="M149.583 41.439H154.628V46.5299H149.583V41.439Z" fill="#EB1D36"/>
<path d="M165.156 46.5299H160.111V41.439H165.156V46.5299Z" fill="#EB1D36"/>
</g>
<defs>
<clipPath id="clip0_176_4149">
<rect width="257" height="265" fill="white"/>
</clipPath>
</defs>
</svg>
