<svg width="259" height="264" viewBox="0 0 259 264" fill="none" xmlns="http://www.w3.org/2000/svg">
<g clip-path="url(#clip0_176_4119)">
<path d="M195.12 174.171L158.318 213.845C158.318 213.845 155.389 217.632 155.389 226.686C155.389 235.74 155.223 264.384 155.223 264.384L140.69 264.549L140.856 226.302L144.503 210.004L177.327 177.244C177.327 177.244 185.284 165.556 195.12 174.171Z" fill="#FFD6D6"/>
<path d="M18.125 151.343L17.7382 190.304C17.7382 190.304 14.8647 196.615 26.0271 201.828C37.9078 207.425 76.2577 233.819 76.2577 233.819C76.2577 233.819 79.9601 237.66 79.9601 243.367V264.274L69.4608 264.439L68.3557 245.837C68.3557 245.837 62.664 237.715 52.441 232.063C42.218 226.411 8.73094 201.224 8.73094 201.224L7.51524 171.208C7.51524 171.208 4.64176 152.166 18.125 151.343Z" fill="#FFD6D6"/>
<path d="M195.618 262.244H190.092C190.479 256.373 190.423 250.446 191.363 244.739C192.136 240.13 195.618 236.947 199.541 234.368C215.235 224.052 230.818 213.571 246.622 203.364C251.098 200.456 253.087 197.054 252.922 191.676C252.59 181.25 252.811 170.824 252.811 160.398C252.811 155.02 249.772 151.563 245.13 151.453C240.599 151.343 237.283 154.965 237.228 160.233C237.173 168.738 237.117 177.244 237.228 185.695C237.228 189.536 235.736 192.225 232.42 194.145C220.54 201.005 208.769 208.028 196.889 214.888C191.031 218.29 184.953 217.302 181.14 212.473C177.548 207.919 178.045 201.663 182.521 196.889C185.947 193.267 189.539 189.865 193.021 186.353C196.999 182.292 197.331 177.244 193.849 173.787C190.479 170.44 185.118 170.659 181.085 174.61C171.248 184.323 161.412 194.035 151.687 203.803C146.161 209.345 143.564 216.15 143.564 223.887C143.564 235.411 143.564 246.879 143.564 258.403C143.564 259.555 143.564 260.763 143.564 262.134H138.369C138.369 257.909 138.369 253.848 138.369 249.788C138.369 241.282 138.369 232.777 138.369 224.326C138.369 214.833 141.574 206.602 148.261 199.907C157.986 190.139 167.767 180.372 177.658 170.714C183.516 165.007 192.192 164.842 197.497 170.165C203.022 175.653 202.746 183.939 196.778 190.03C193.518 193.322 190.202 196.56 186.942 199.852C183.626 203.199 183.074 206.492 185.229 209.291C187.439 212.199 190.7 212.528 194.789 210.114C206.283 203.419 217.721 196.669 229.215 190.03C231.26 188.877 232.089 187.451 232.034 185.146C231.923 176.531 231.923 167.915 232.034 159.355C232.089 153.538 235.957 148.435 241.096 146.844C246.125 145.252 252.093 146.844 255.021 151.234C256.624 153.703 257.784 156.94 257.84 159.849C258.171 171.153 257.895 182.402 258.005 193.706C258.005 199.249 255.85 203.364 251.208 206.437C235.349 216.863 219.545 227.509 203.63 237.77C197.994 241.447 195.12 246.056 195.618 252.751C195.839 255.824 195.618 258.952 195.618 262.189V262.244Z" fill="#EB1D36"/>
<path d="M197.718 264.274H187.881L188.047 262.079C188.158 260.323 188.213 258.513 188.323 256.757C188.489 252.696 188.655 248.471 189.373 244.355C190.368 238.538 195.01 234.862 198.436 232.612C204.183 228.826 209.985 224.984 215.732 221.198C225.623 214.613 235.515 208.083 245.517 201.608C249.495 199.029 250.987 196.285 250.822 191.731C250.601 184.487 250.601 177.189 250.656 170.11C250.656 166.873 250.656 163.635 250.656 160.397C250.656 156.172 248.556 153.593 245.019 153.538C243.527 153.428 242.256 153.977 241.262 154.965C239.991 156.172 239.272 158.093 239.272 160.288C239.217 168.793 239.162 177.244 239.272 185.749C239.272 190.359 237.394 193.706 233.415 196.011C227.281 199.578 221.203 203.144 215.124 206.711C209.377 210.059 203.686 213.406 197.939 216.753C191.197 220.649 184.013 219.497 179.537 213.845C175.227 208.412 175.835 201.114 181.029 195.572C183.129 193.322 185.339 191.182 187.55 188.987C188.876 187.67 190.258 186.353 191.584 184.981C194.789 181.743 195.12 177.957 192.413 175.268C189.815 172.689 185.726 173.018 182.577 176.091C172.74 185.749 162.959 195.517 153.179 205.285C148.205 210.278 145.663 216.589 145.663 223.942V264.219H136.325V241.995C136.325 236.124 136.325 230.252 136.325 224.381C136.325 214.229 139.806 205.504 146.824 198.48C156.549 188.713 166.33 178.945 176.222 169.287C182.798 162.867 192.799 162.592 198.988 168.738C205.343 175.049 205.012 184.597 198.27 191.456C196.502 193.212 194.734 194.968 192.965 196.724C191.418 198.261 189.926 199.742 188.379 201.279C184.566 205.12 186.279 207.315 186.831 208.028C187.881 209.4 189.65 210.717 193.684 208.358L206.835 200.675C213.908 196.505 220.982 192.389 228.11 188.274C229.492 187.45 229.934 186.737 229.878 185.201C229.768 176.585 229.768 167.97 229.878 159.355C229.989 152.77 234.299 146.789 240.378 144.868C246.511 142.947 253.364 145.142 256.624 150.081C258.503 152.935 259.718 156.556 259.829 159.794C260.05 166.763 259.995 173.732 259.995 180.701C259.995 185.036 259.995 189.371 259.995 193.706C259.995 199.962 257.508 204.681 252.258 208.138C246.29 212.034 240.378 215.985 234.41 219.936C224.518 226.521 214.627 233.051 204.625 239.526C199.32 242.928 197.11 246.989 197.552 252.641C197.718 254.836 197.662 256.976 197.607 259.226C197.607 260.214 197.607 261.201 197.607 262.244V264.329L197.718 264.274ZM192.302 260.159H193.573C193.573 259.83 193.573 259.445 193.573 259.116C193.573 256.976 193.628 254.946 193.518 252.915C193.02 245.782 195.949 240.294 202.47 236.014C212.416 229.594 222.308 223.009 232.199 216.479C238.112 212.528 244.08 208.577 250.048 204.681C254.137 201.992 255.961 198.535 255.961 193.706C255.961 189.371 255.961 184.981 255.961 180.646C255.961 173.732 255.961 166.818 255.795 159.904C255.74 157.489 254.745 154.581 253.308 152.331C251.043 148.874 246.18 147.392 241.759 148.764C237.338 150.136 234.189 154.526 234.133 159.355C234.023 167.915 234.023 176.53 234.133 185.091C234.133 188.164 232.973 190.249 230.265 191.785C223.192 195.901 216.119 200.017 209.046 204.187L195.894 211.869C189.152 215.82 185.339 212.693 183.626 210.498C180.808 206.821 181.471 202.376 185.505 198.37C187.052 196.834 188.545 195.297 190.092 193.816C191.86 192.06 193.628 190.359 195.341 188.603C200.536 183.335 200.867 176.366 196.115 171.647C191.584 167.147 184.179 167.366 179.206 172.25C169.314 181.908 159.589 191.621 149.808 201.443C143.619 207.699 140.469 215.436 140.524 224.436C140.524 230.307 140.524 236.179 140.524 242.105V260.214H141.574V224.052C141.574 215.546 144.558 208.303 150.305 202.486C160.031 192.663 169.867 182.951 179.703 173.238C184.455 168.574 191.197 168.244 195.397 172.415C199.707 176.695 199.32 183.06 194.568 187.889C193.242 189.261 191.86 190.578 190.479 191.95C188.323 194.09 186.168 196.23 184.069 198.425C180.366 202.376 179.814 207.589 182.798 211.321C185.947 215.327 190.976 216.04 195.839 213.186C201.586 209.839 207.333 206.492 213.024 203.144C219.103 199.578 225.237 196.011 231.37 192.444C234.078 190.907 235.183 188.877 235.128 185.804C235.018 177.299 235.073 168.793 235.128 160.288C235.128 156.94 236.288 154.032 238.388 152.057C240.157 150.355 242.643 149.423 245.13 149.477C250.932 149.587 254.8 154.032 254.856 160.452C254.856 163.69 254.856 166.982 254.856 170.22C254.856 177.244 254.745 184.542 255.021 191.676C255.242 197.657 252.977 201.773 247.782 205.12C237.836 211.54 227.944 218.125 218.053 224.655C212.306 228.496 206.559 232.283 200.757 236.069C196.281 239.032 194.015 241.776 193.463 245.068C192.799 248.91 192.634 252.861 192.468 256.976C192.468 258.019 192.357 259.116 192.302 260.159Z" fill="#EB1D36"/>
<path d="M122.675 262.244H117.647C117.647 261.091 117.647 259.939 117.647 258.787C117.647 247.483 117.592 236.179 117.647 224.929C117.702 216.314 114.773 209.016 108.584 202.925C99.3008 193.761 90.0725 184.542 80.789 175.323C79.8496 174.445 78.9102 173.512 77.805 172.854C74.1579 170.604 69.4609 171.317 66.9189 174.335C64.2112 177.518 64.2112 182.072 67.14 185.255C70.7318 189.096 74.6 192.773 78.3023 196.504C81.1758 199.413 82.8336 202.815 82.3363 206.985C81.2863 215.326 72.4449 219.552 64.9296 215.217C52.7726 208.248 40.7261 201.059 28.569 193.98C25.4745 192.169 24.0378 189.59 24.093 186.023C24.1483 177.737 24.093 169.451 24.093 161.165C24.093 159.574 23.9273 157.928 23.3747 156.446C22.159 153.044 18.9539 151.123 15.5278 151.508C11.936 151.892 8.73096 154.526 8.6757 158.147C8.45467 170.714 8.50993 183.28 8.6757 195.901C8.6757 198.974 10.9966 200.785 13.428 202.376C29.2321 212.747 44.8705 223.338 60.7299 233.545C67.8583 238.154 71.3397 244.245 70.8976 252.696C70.7318 255.769 70.8976 258.896 70.8976 262.189H65.7032C65.7032 258.732 65.5927 255.22 65.7032 251.763C65.9795 245.782 63.4376 241.556 58.4643 238.319C42.9364 228.167 27.5744 217.686 11.936 207.699C5.85748 203.803 2.984 198.974 3.2603 191.73C3.64711 181.194 3.31556 170.659 3.37082 160.123C3.37082 152.056 8.952 146.185 16.412 146.294C23.7062 146.349 29.2321 152.221 29.3427 160.068C29.3979 168.464 29.4532 176.859 29.3427 185.255C29.3427 187.615 30.1715 188.932 32.2161 190.139C43.8206 196.834 55.3145 203.638 66.8637 210.388C70.6766 212.583 73.9921 212.198 76.1472 209.345C78.1918 206.656 77.7497 203.309 74.8763 200.346C71.3949 196.779 67.8031 193.377 64.3218 189.81C58.63 183.993 58.3538 175.872 63.6034 170.439C68.853 165.007 77.584 164.897 83.4414 170.604C93.5539 180.481 103.611 190.413 113.502 200.51C119.857 206.931 122.897 214.832 122.952 223.832C123.007 235.849 122.952 247.922 122.952 259.939C122.952 260.652 122.841 261.421 122.786 262.299L122.675 262.244Z" fill="#EB1D36"/>
<path d="M124.554 264.274H115.547V248.251C115.547 240.459 115.547 232.667 115.547 224.82C115.602 216.643 112.839 209.949 107.092 204.297C101.843 199.084 96.5931 193.87 91.3435 188.657L79.297 176.695C78.5234 175.927 77.6392 175.103 76.6998 174.5C73.9368 172.799 70.4002 173.293 68.4662 175.597C66.3663 178.067 66.4768 181.469 68.6319 183.774C71.0081 186.298 73.4948 188.767 75.9262 191.182C77.1971 192.444 78.4681 193.706 79.7391 194.968C83.3309 198.59 84.8782 202.705 84.3256 207.15C83.773 211.759 81.1205 215.546 77.0866 217.521C72.9974 219.552 68.0241 219.332 63.8244 216.918C56.3644 212.637 49.0149 208.302 41.6102 203.967C36.9132 201.224 32.1609 198.425 27.4638 195.681C23.7615 193.541 21.8826 190.249 21.9379 185.914C21.9932 177.628 21.9379 169.397 21.9379 161.111C21.9379 159.464 21.7169 158.092 21.3853 157.05C20.5012 154.581 18.2355 153.209 15.6936 153.483C13.3175 153.757 10.7203 155.459 10.665 158.147C10.4992 169.122 10.444 180.701 10.665 195.846C10.665 197.767 12.1018 199.029 14.5332 200.675C20.1696 204.351 25.7508 208.083 31.332 211.814C41.4444 218.564 51.6121 225.259 61.8351 231.843C69.7924 237.002 73.4395 243.861 72.9422 252.805C72.8316 254.891 72.8869 256.921 72.9422 259.061V264.219H63.6034V258.951C63.6034 256.537 63.5481 254.068 63.6034 251.653C63.8244 246.66 61.7798 242.983 57.2485 240.02C51.0043 235.904 44.76 231.789 38.5157 227.618C29.2874 221.472 20.0591 215.381 10.7203 209.4C3.86814 205.01 0.828877 199.358 1.04991 191.621C1.27095 184.652 1.27095 177.463 1.21569 170.604C1.21569 167.092 1.21569 163.58 1.21569 160.123C1.21569 155.513 2.87347 151.288 5.91273 148.38C8.67569 145.691 12.157 144.209 16.3567 144.264C24.8114 144.319 31.2215 151.123 31.332 160.068C31.3872 168.464 31.4425 176.859 31.332 185.255C31.332 186.792 31.7188 187.505 33.1555 188.328C40.4497 192.553 47.744 196.834 55.0382 201.114L67.8583 208.632C70.6765 210.278 72.9422 210.113 74.4342 208.083C76.3682 205.559 74.5447 203.034 73.2737 201.772C71.5054 199.962 69.6819 198.151 67.8583 196.34C66.1453 194.639 64.4322 192.938 62.7745 191.237C56.3091 184.652 56.0328 175.268 62.0561 169.012C64.9296 166.049 68.7977 164.348 72.9422 164.293C77.2524 164.293 81.5626 165.939 84.8229 169.122C94.3275 178.396 104.164 188.164 114.939 199.029C121.57 205.723 124.941 214.064 124.996 223.777C124.996 233.106 124.996 242.379 124.996 251.708V259.939C124.996 260.488 124.941 261.037 124.886 261.64L124.665 264.329L124.554 264.274ZM119.691 260.159H120.741C120.741 260.159 120.741 259.939 120.741 259.884V251.653C120.741 242.324 120.741 233.051 120.741 223.722C120.741 215.107 117.702 207.754 111.9 201.827C101.18 190.962 91.3435 181.195 81.8389 171.976C79.3522 169.561 76.2577 168.299 72.9422 168.299C69.9029 168.299 67.0847 169.561 64.9848 171.756C60.4536 176.475 60.7299 183.225 65.648 188.273C67.3057 189.974 69.0188 191.621 70.6765 193.322C72.5001 195.133 74.3789 196.943 76.1472 198.809C79.7391 202.486 80.2916 206.931 77.6392 210.497C74.821 214.229 70.345 214.832 65.648 212.089L52.8278 204.571C45.5336 200.291 38.2946 196.011 31.0004 191.84C28.2375 190.249 27.077 188.218 27.1323 185.145C27.2428 176.805 27.2428 168.409 27.1323 160.013C27.1323 153.264 22.4905 148.325 16.3015 148.27C13.4832 148.27 10.7755 149.258 8.78621 151.233C6.57584 153.428 5.36013 156.556 5.36013 160.068C5.36013 163.58 5.36013 167.037 5.36013 170.549C5.36013 177.518 5.47065 184.706 5.19436 191.785C4.97332 198.096 7.29421 202.376 12.9306 205.943C22.2695 211.924 31.553 218.07 40.7813 224.216C47.0256 228.332 53.2146 232.502 59.5142 236.563C65.3164 240.349 67.9688 245.343 67.6925 251.818C67.582 254.177 67.6373 256.537 67.6925 258.896V260.104H68.7425V259.116C68.7425 256.866 68.6872 254.726 68.7425 252.586C69.1293 245.123 66.2005 239.636 59.5142 235.301C49.2912 228.716 39.1235 221.966 28.9558 215.217C23.3746 211.485 17.7382 207.809 12.157 204.077C10.1677 202.76 6.52058 200.346 6.46532 195.901C6.29954 180.756 6.3548 169.122 6.46532 158.092C6.52058 153.648 10.2782 149.916 15.1963 149.422C19.7828 148.983 23.7062 151.508 25.2535 155.733C25.806 157.269 26.0271 159.025 26.0823 161.111C26.1376 169.397 26.1376 177.683 26.0823 185.969C26.0823 188.822 27.1323 190.743 29.5637 192.114C34.316 194.858 39.013 197.657 43.71 200.401C51.0595 204.736 58.4643 209.071 65.869 213.351C68.9082 215.107 72.3343 215.271 75.2078 213.845C77.9708 212.473 79.7943 209.839 80.1811 206.656C80.5679 203.473 79.4628 200.62 76.7551 197.876C75.4841 196.614 74.2131 195.352 72.9422 194.09C70.4002 191.621 67.9136 189.151 65.5374 186.572C61.8903 182.676 61.7798 177.079 65.2611 172.963C68.5214 169.067 74.3237 168.244 78.8549 171.043C80.1811 171.866 81.2863 172.909 82.2257 173.787L94.2722 185.749C99.5219 190.962 104.771 196.175 110.021 201.388C116.486 207.809 119.747 215.71 119.691 224.874C119.636 232.667 119.691 240.459 119.691 248.251V260.159Z" fill="#EB1D36"/>
<path d="M83.1651 85.0003C83.4967 86.2075 83.8835 87.4148 84.2703 88.622C86.4807 94.8777 89.741 101.627 94.438 107.389C96.9799 110.407 99.7981 113.041 102.893 115.401C95.0459 123.303 90.9014 132.906 90.6251 143.825C90.5699 146.35 91.454 148.6 93.0565 150.301C94.7143 152.002 97.0352 152.935 99.6324 152.935C109.192 152.935 118.752 152.935 128.312 152.935C137.872 152.935 147.432 152.935 156.991 152.935C159.533 152.935 161.854 152.002 163.512 150.356C165.17 148.709 166.054 146.405 165.999 143.825C165.888 135.485 163.346 127.857 158.539 121.108C157.268 119.297 155.776 117.65 154.284 115.949C154.118 115.785 153.952 115.565 153.786 115.401C156.715 113.206 159.423 110.627 161.854 107.773V107.663C166.054 102.45 167.546 100.585 170.585 93.9448V93.7253C171.138 92.4083 171.58 91.1462 172.022 89.8292C175.89 77.4825 176.995 64.0932 176.995 64.0932L177.216 64.3127C177.216 64.3127 177.437 63.9835 177.658 63.8188C178.764 62.9957 179.537 61.9531 180.366 60.8556C184.068 56.0267 184.787 50.0454 182.355 44.3934C179.924 38.7413 174.84 34.6806 169.37 34.077C168.099 33.9124 166.828 33.9672 165.557 34.0221C163.954 28.5896 160.915 24.6386 156.77 22.5534C152.515 20.4133 147.321 20.3584 141.74 22.3339C138.645 18.4378 133.562 16.3526 128.257 16.188C122.896 16.188 118.034 18.4378 114.939 22.2242C110.187 19.9743 105.103 20.0841 100.185 22.4985C95.2116 24.9679 92.0619 28.8639 90.9014 33.9124C86.0386 33.8026 81.5073 35.4488 78.1918 38.5218C74.5447 41.8691 72.6106 46.5334 72.7764 51.6916C72.9422 56.2462 75.042 60.3618 79.4075 64.3676C79.4075 65.9041 79.4627 67.3857 79.518 68.8673C79.6285 69.8001 80.2916 75.3973 82.281 82.6407M165.28 42.5825C168.651 42.0338 171.193 43.0215 173.072 45.5457C175.559 48.8382 175.89 51.7465 174.122 54.7097C173.569 55.6426 172.685 56.5754 171.801 57.5083L171.304 58.2217C166.109 58.2217 160.915 58.2217 155.665 58.2217C156.494 57.3437 157.378 56.4108 158.152 55.4779C161.688 51.3075 163.954 47.0822 165.225 42.6374L165.28 42.5825ZM145.884 35.6683C145.884 34.0221 145.608 32.1564 145.111 30.0712C148.095 28.5896 150.913 28.9188 153.952 31.004C156.66 32.8698 157.71 35.394 157.268 38.7413C156.77 42.1435 155.278 45.3262 152.129 49.332C149.587 52.5696 146.713 55.3133 143.453 57.3986C142.458 58.057 141.685 58.2765 140.745 58.2217C140.635 58.2217 140.469 58.2217 140.358 58.2217C144.282 51.527 146.105 44.119 145.94 35.6683H145.884ZM119.747 32.1564C120.299 29.3578 121.57 27.2177 123.449 26.0105C124.72 25.1325 126.323 24.6935 128.091 24.6935C128.865 24.6935 129.638 24.8032 130.467 24.913C133.562 25.5166 135.551 27.547 136.546 31.004C136.932 32.4856 137.153 33.9672 137.319 35.1745L137.485 36.272C137.098 44.2836 135.606 49.8259 132.456 54.6C131.793 55.6426 130.909 56.6303 129.914 57.4534C128.422 58.7155 127.538 58.2217 126.82 57.4534C125.217 55.9169 123.946 54.3256 123.173 52.7891C119.581 45.8201 118.476 38.8511 119.802 32.0466L119.747 32.1564ZM101.069 32.2113C102.672 30.2358 104.993 29.1383 107.59 29.1383C107.811 29.1383 107.977 29.1383 108.198 29.1383C109.137 29.1932 110.132 29.6322 111.237 30.0712H111.347C109.524 40.1132 111.237 49.5515 116.265 58.1668C115.658 58.1668 115.105 58.1668 114.497 58.1668C106.595 53.4476 101.677 47.4663 99.5218 39.9485C98.7482 37.15 99.2456 34.3514 101.014 32.1564L101.069 32.2113ZM81.4521 52.0757C81.1205 49.8259 81.8389 47.5212 83.4967 45.3811C84.9887 43.4056 87.3096 42.363 89.6857 42.363C90.2383 42.363 90.7356 42.363 91.2882 42.5276C92.8907 48.1248 95.93 53.1732 100.793 58.1668C95.6537 58.1668 90.5146 58.1668 85.3202 58.1668C83.1099 56.5206 81.7284 54.3805 81.4521 52.1306V52.0757ZM88.1384 66.782H168.43V69.0868H88.1937V66.782H88.1384ZM157.378 143.606C157.378 143.99 157.378 144.264 157.378 144.319C157.268 144.319 157.047 144.374 156.549 144.374H100.24C99.6324 144.374 99.3008 144.374 99.2455 144.374C99.2455 144.264 99.1903 143.99 99.2455 143.441C99.6876 134.113 103.39 126.43 110.574 120.01C122.289 125.552 134.225 125.552 146.105 120.01C153.289 126.485 156.991 134.168 157.434 143.606H157.378ZM153.842 103.658C148.316 109.529 142.237 113.206 135.164 114.797C126.323 116.827 118.034 115.126 109.8 109.639C99.3561 102.67 91.7856 90.1036 90.5698 77.7569H166.054C164.838 87.6891 160.804 96.1398 153.842 103.603V103.658Z" fill="#7A0003"/>
</g>
<defs>
<clipPath id="clip0_176_4119">
<rect width="259" height="264" fill="white"/>
</clipPath>
</defs>
</svg>
