<svg width="301" height="267" viewBox="0 0 301 267" fill="none" xmlns="http://www.w3.org/2000/svg">
<g clip-path="url(#clip0_176_4131)">
<path d="M164.297 21.1092L29.4115 119.18C29.4115 119.18 24.124 121.818 24.124 136.661V238.414L12.4476 238.964C12.4476 238.964 3.96558 239.514 3.96558 220.438C3.96558 201.363 5.56283 112.858 5.56283 112.858L89.997 52.9931L149.922 11.0493L164.242 21.1092H164.297Z" fill="#FFD6D6"/>
<path d="M135.381 62.2283H130.039L121.061 48.7052V62.2283H115.718V40.2944H121.061L130.039 53.8726V40.2944H135.381V62.2283Z" fill="#7A0003"/>
<path d="M153.832 47.2211C153.447 46.5065 152.841 45.9567 152.125 45.5719C151.409 45.1871 150.528 44.9672 149.536 44.9672C147.829 44.9672 146.397 45.517 145.35 46.6714C144.304 47.8258 143.808 49.31 143.808 51.2341C143.808 53.268 144.359 54.8073 145.46 55.9617C146.562 57.1161 148.049 57.6658 149.977 57.6658C151.299 57.6658 152.4 57.336 153.336 56.6763C154.273 56.0166 154.934 55.0271 155.319 53.8178H148.545V49.8598H160.221V54.8073C159.836 56.1266 159.175 57.3909 158.183 58.5454C157.247 59.6998 156.035 60.6343 154.548 61.3489C153.061 62.0636 151.464 62.3934 149.591 62.3934C147.443 62.3934 145.46 61.8987 143.808 60.9641C142.101 60.0296 140.779 58.7103 139.842 57.0061C138.906 55.302 138.41 53.378 138.41 51.2341C138.41 49.0901 138.906 47.1112 139.842 45.462C140.779 43.7578 142.101 42.4385 143.808 41.504C145.515 40.5695 147.443 40.0747 149.591 40.0747C152.235 40.0747 154.438 40.7344 156.256 41.9987C158.073 43.2631 159.23 45.0222 159.836 47.2761H153.942L153.832 47.2211Z" fill="#7A0003"/>
<path d="M167.822 61.0189C166.114 60.0844 164.738 58.7101 163.746 57.0059C162.755 55.3018 162.204 53.3778 162.204 51.2339C162.204 49.0899 162.7 47.1659 163.746 45.4618C164.793 43.7576 166.114 42.4383 167.822 41.4488C169.529 40.5143 171.457 40.0195 173.495 40.0195C175.533 40.0195 177.461 40.5143 179.168 41.4488C180.875 42.3833 182.252 43.7576 183.244 45.4618C184.235 47.1659 184.731 49.0899 184.731 51.2339C184.731 53.3778 184.235 55.3018 183.244 57.0059C182.252 58.7101 180.875 60.0844 179.168 61.0189C177.461 61.9534 175.588 62.4482 173.495 62.4482C171.402 62.4482 169.529 61.9534 167.822 61.0189ZM177.736 55.8515C178.782 54.6971 179.333 53.1579 179.333 51.2339C179.333 49.3098 178.782 47.7706 177.736 46.6162C176.689 45.4618 175.257 44.8571 173.55 44.8571C171.843 44.8571 170.355 45.4068 169.309 46.5612C168.263 47.7156 167.712 49.2549 167.712 51.2339C167.712 53.2129 168.263 54.6971 169.309 55.8515C170.355 57.0059 171.788 57.6106 173.55 57.6106C175.312 57.6106 176.689 57.0059 177.736 55.8515Z" fill="#7A0003"/>
<path d="M90.1072 189.709C98.1486 192.842 104.758 198.779 109.054 208.069C113.35 198.779 119.959 192.787 128.882 189.324C126.403 181.243 126.459 173.107 127.78 165.191C129.763 153.207 140.614 145.511 153.061 146.611C164.242 147.545 173.55 157.44 173.715 169.039C173.825 175.746 173.275 182.452 173.054 189.599C181.261 194.052 183.905 194.601 192.111 207.685C196.187 198.834 202.851 192.897 211.719 189.379C209.351 181.188 209.296 172.997 210.672 164.916C212.655 153.372 223.065 145.841 235.237 146.501C246.253 147.105 255.891 156.341 256.497 167.61C256.883 174.756 257.599 182.013 255.01 188.884C258.315 190.918 261.73 192.622 264.649 194.876C272.91 201.253 277.151 209.884 277.317 220.273C277.537 232.257 277.372 244.186 277.317 256.17C277.317 261.832 274.232 264.856 268.449 264.911C189.743 264.911 111.092 264.911 32.3857 264.911C26.4924 264.911 23.5182 261.832 23.4631 255.895C23.4631 244.681 23.4631 233.467 23.4631 222.252C23.4631 206.97 30.6232 196.305 44.5028 189.984C44.8884 189.819 45.2739 189.654 44.9985 189.764C44.7232 182.892 44.2275 176.405 44.2275 169.919C44.2275 156.67 54.527 146.446 67.5804 146.501C80.4686 146.501 90.7131 156.67 90.7682 169.754C90.7682 176.241 90.2725 182.782 89.9971 189.764L90.1072 189.709ZM189.357 259.578C189.357 247.045 189.357 234.786 189.357 222.472C189.357 221.098 189.412 219.669 189.247 218.294C187.815 207.245 182.087 199.384 171.953 194.711C170.356 193.997 169.309 193.887 167.822 195.426C158.018 205.871 142.927 205.926 133.233 195.426C131.801 193.887 130.755 193.887 129.102 194.601C118.087 199.714 112.083 208.289 111.698 220.383C111.367 231.158 111.643 241.932 111.643 252.707C111.643 254.961 111.643 257.16 111.643 259.523H189.357V259.578ZM106.245 259.688C106.355 258.974 106.465 258.589 106.465 258.204C106.465 245.396 106.796 232.532 106.355 219.724C105.97 207.85 99.6357 199.604 88.8955 194.656C87.1881 193.887 86.1416 194.161 84.8198 195.591C75.1812 205.871 60.0898 205.816 50.3962 195.591C49.0192 194.107 47.9727 193.942 46.3204 194.711C35.2498 199.879 29.0811 208.509 28.8057 220.768C28.5854 232.092 28.8057 243.417 28.8057 254.686C28.8057 259.359 29.1361 259.688 33.7627 259.688C56.8403 259.688 79.9729 259.688 103.051 259.688C104.097 259.688 105.143 259.688 106.3 259.688H106.245ZM194.535 259.688C219.705 259.688 244.38 259.688 269.055 259.688C271.644 259.688 272.249 258.149 272.249 255.895C272.249 243.966 272.36 231.982 272.194 220.053C272.029 208.839 264.704 198.559 254.404 194.546C252.917 193.942 252.036 194.107 250.824 195.371C240.745 205.981 226.039 205.981 216.015 195.371C214.858 194.161 213.922 193.832 212.435 194.491C203.292 198.559 197.068 205.211 195.251 215.216C194.48 219.504 194.59 224.011 194.59 228.409C194.48 238.744 194.59 249.024 194.59 259.688H194.535ZM85.9764 175.086H85.6459C85.6459 172.887 85.7561 170.743 85.6459 168.599C85.0952 159.034 77.1089 151.613 67.4152 151.668C57.7766 151.668 49.7903 159.309 49.4598 168.874C49.2946 172.942 49.2946 177.065 49.4598 181.133C49.8454 190.094 56.7852 197.075 66.0382 198.064C74.4651 198.999 82.9471 193.117 84.9299 184.651C85.6459 181.573 85.5909 178.275 85.9213 175.031L85.9764 175.086ZM132.076 174.536C132.076 174.536 132.242 174.536 132.352 174.536C132.352 176.57 132.297 178.659 132.352 180.693C132.682 190.423 140.779 198.174 150.472 198.119C160.056 198.119 168.097 190.478 168.538 180.913C168.703 176.845 168.703 172.722 168.538 168.654C168.152 159.969 161.102 152.548 152.676 151.723C143.257 150.788 134.996 156.341 132.958 165.246C132.297 168.27 132.352 171.403 132.076 174.536ZM215.024 174.536H215.244C215.244 176.515 215.244 178.439 215.244 180.363C215.464 189.819 222.459 197.185 232.043 198.119C240.8 198.944 249.337 192.842 250.879 183.882C251.76 178.659 251.705 173.162 251.32 167.775C250.714 159.199 243.334 152.273 234.962 151.723C225.654 151.118 217.722 156.67 215.795 165.576C215.134 168.489 215.244 171.568 214.969 174.536H215.024Z" fill="#EB1D36"/>
<path d="M150.472 267C111.147 267 71.7663 267 32.4408 267C25.3909 267 21.4803 263.042 21.4803 255.895C21.4803 244.681 21.4803 233.467 21.4803 222.252C21.4803 206.585 28.7506 195.206 42.9607 188.444C42.9056 186.795 42.7954 185.146 42.7404 183.552C42.5201 178.879 42.2447 174.426 42.2997 169.919C42.2997 162.937 44.9435 156.506 49.7352 151.723C54.4719 146.995 60.8059 144.412 67.6355 144.412H67.6906C81.7905 144.412 92.9162 155.571 92.9162 169.699C92.9162 174.207 92.6959 178.659 92.4756 183.332C92.4205 184.981 92.3104 186.685 92.2553 188.389C99.3603 191.523 105.033 196.635 109.054 203.617C113.13 196.525 118.858 191.468 126.403 188.169C124.531 181.078 124.311 173.437 125.743 164.916C127.891 151.998 139.402 143.367 153.226 144.577C165.509 145.621 175.588 156.56 175.753 169.039C175.808 173.657 175.588 178.22 175.368 183.002C175.257 184.761 175.202 186.575 175.147 188.389L175.973 188.829C182.252 192.182 185.447 193.832 191.891 203.617C195.857 196.745 201.695 191.578 209.24 188.224C207.368 180.913 207.203 173.162 208.635 164.641C210.728 152.273 221.963 143.807 235.347 144.522C247.464 145.181 257.874 155.516 258.59 167.555L258.7 169.314C259.086 175.471 259.471 181.848 257.544 188.06C258.094 188.389 258.7 188.719 259.251 189.049C261.509 190.368 263.878 191.688 265.971 193.337C274.728 200.098 279.244 209.224 279.465 220.328C279.63 229.948 279.575 239.623 279.52 249.299V256.28C279.52 263.097 275.499 267.055 268.559 267.055C229.234 267.055 189.853 267.055 150.528 267.055L150.472 267ZM45.8247 191.688L45.4392 191.853C32.1104 197.955 25.6112 207.905 25.6112 222.252C25.6112 233.467 25.6112 244.681 25.6112 255.84C25.6112 260.678 27.7041 262.822 32.4408 262.822C111.147 262.822 189.798 262.822 268.504 262.822C273.131 262.822 275.334 260.678 275.334 256.17V249.189C275.389 239.569 275.444 229.948 275.334 220.328C275.169 210.488 271.203 202.517 263.437 196.525C261.564 195.041 259.416 193.832 257.158 192.567C256.112 191.963 255.01 191.358 253.964 190.698L252.532 189.819L253.137 188.224C255.396 182.342 255.01 176.131 254.625 169.589L254.514 167.83C253.964 157.825 245.261 149.194 235.182 148.644C224.001 148.04 214.528 155.076 212.82 165.356C211.333 173.932 211.664 181.628 213.812 188.884L214.363 190.698L212.6 191.358C203.898 194.766 197.894 200.373 194.094 208.564L192.497 212.027L190.459 208.784C183.189 197.295 180.71 195.976 174.101 192.457L171.016 190.808V189.544C171.127 187.235 171.237 185.036 171.347 182.782C171.567 178.055 171.788 173.602 171.732 169.094C171.622 158.704 163.195 149.524 152.951 148.699C141.274 147.71 131.636 154.801 129.873 165.576C128.441 174.207 128.772 181.793 130.92 188.774L131.471 190.588L129.708 191.303C121.061 194.656 114.947 200.428 111.037 209.004L109.164 213.072L107.292 209.004C103.436 200.648 97.4326 194.821 89.4463 191.688L88.0694 191.138V189.654C88.2346 187.455 88.3448 185.256 88.4549 183.167C88.6752 178.549 88.8955 174.152 88.8955 169.754C88.8955 157.88 79.5874 148.59 67.7457 148.59C62.1277 148.425 56.675 150.733 52.7094 154.691C48.6888 158.649 46.4857 164.092 46.4857 169.974C46.4857 174.371 46.706 178.769 46.9263 183.387C47.0364 185.091 47.0915 186.85 47.2017 188.609L47.422 188.774L47.2017 191.138L45.9349 191.688H45.8247ZM79.8628 261.832H33.6525C27.8694 261.832 26.6577 260.568 26.6577 254.796V244.846C26.6026 236.82 26.5475 228.849 26.6577 220.823C26.933 208.014 33.2119 198.614 45.329 192.952C47.8626 191.743 49.8454 192.182 51.8282 194.271C56.1243 198.834 61.6871 201.363 67.5254 201.363C73.3636 201.363 78.9265 198.889 83.2225 194.326C84.5444 192.897 86.4721 191.468 89.6666 192.952C101.453 198.394 107.897 207.685 108.338 219.833C108.668 228.849 108.558 238.029 108.503 246.88C108.503 250.728 108.448 254.576 108.448 258.369C108.448 258.754 108.448 259.084 108.338 259.578L108.008 261.942H79.8077L79.8628 261.832ZM47.9177 196.36C47.9177 196.36 47.4771 196.47 47.1466 196.635C36.4064 201.638 31.0639 209.609 30.8436 220.878C30.6783 228.849 30.7334 236.82 30.7334 244.791V254.741C30.7334 255.4 30.7334 257.215 30.9537 257.599C31.174 257.654 32.9916 257.654 33.6525 257.654H104.317C104.317 253.971 104.317 250.343 104.372 246.66C104.427 237.864 104.538 228.739 104.207 219.833C103.822 209.169 98.3689 201.363 87.9592 196.58C87.133 196.195 87.078 196.195 86.2518 197.075C81.1846 202.462 74.5753 205.431 67.5804 205.431C60.5856 205.431 53.9212 202.462 48.854 197.075C48.4134 196.58 48.1931 196.415 47.9177 196.415V196.36ZM269.055 261.832H192.442V250.508C192.442 243.087 192.442 235.775 192.442 228.464V226.265C192.442 222.527 192.442 218.679 193.158 214.941C195.03 204.771 201.199 197.35 211.554 192.732C214.473 191.413 216.29 192.842 217.447 194.052C221.908 198.724 227.526 201.308 233.309 201.308C239.093 201.308 244.766 198.724 249.282 193.997C250.989 192.182 252.807 191.798 255.12 192.677C266.411 197.075 274.067 208.124 274.232 220.053C274.342 227.53 274.342 235.006 274.287 242.482C274.287 246.935 274.287 251.442 274.287 255.895C274.287 257.215 274.122 259.084 272.8 260.403C271.864 261.337 270.597 261.777 269 261.777L269.055 261.832ZM196.573 257.709H269.055C269.606 257.709 269.881 257.599 269.936 257.544C269.936 257.544 270.212 257.215 270.212 255.95C270.212 251.443 270.212 246.99 270.212 242.482C270.212 235.006 270.212 227.585 270.156 220.108C270.046 209.938 263.217 200.263 253.633 196.47C252.917 196.195 252.862 196.195 252.311 196.8C247.024 202.352 240.304 205.376 233.365 205.376C226.425 205.376 219.76 202.352 214.528 196.8C214.032 196.305 213.867 196.25 213.867 196.25C213.867 196.25 213.757 196.25 213.316 196.415C204.283 200.428 198.941 206.86 197.289 215.601C196.683 219.009 196.628 222.637 196.628 226.21V228.409C196.573 235.72 196.573 242.977 196.628 250.453V257.654L196.573 257.709ZM191.395 261.722H109.55V252.872C109.55 249.573 109.55 246.22 109.55 242.922C109.55 235.556 109.44 227.969 109.66 220.493C110.045 207.74 116.269 198.449 128.276 192.897C130.81 191.688 132.848 192.073 134.775 194.161C139.071 198.779 144.634 201.308 150.472 201.308C156.366 201.308 161.984 198.724 166.335 194.106C168.758 191.523 170.961 192.073 172.834 192.897C183.574 197.845 189.798 206.31 191.34 218.074C191.505 219.229 191.505 220.383 191.45 221.593V261.722H191.395ZM113.681 257.599H187.264V221.593C187.264 220.603 187.264 219.614 187.154 218.679C185.832 208.234 180.545 201.088 171.016 196.745C169.97 196.25 169.915 196.25 169.254 197.02C164.132 202.517 157.412 205.541 150.417 205.541C143.423 205.541 136.758 202.517 131.691 197.075C130.92 196.25 130.865 196.305 129.984 196.745C119.574 201.583 114.121 209.664 113.791 220.713C113.57 228.134 113.625 235.665 113.681 242.977C113.681 246.33 113.681 249.628 113.681 252.982V257.709V257.599ZM233.64 200.318C233.034 200.318 232.483 200.318 231.877 200.208C221.302 199.219 213.481 190.918 213.206 180.473C213.206 179.154 213.206 177.835 213.206 176.515H213.041L212.986 174.371C213.041 173.437 213.096 172.557 213.151 171.623C213.261 169.534 213.371 167.335 213.812 165.136C215.96 155.351 224.717 148.974 235.127 149.689C244.711 150.294 252.752 158.21 253.413 167.665C253.853 174.262 253.743 179.539 252.972 184.211C251.43 193.392 243.003 200.263 233.695 200.263L233.64 200.318ZM217.227 172.667H217.337V176.46C217.337 177.78 217.337 179.044 217.337 180.363C217.557 188.829 223.726 195.316 232.263 196.085C240.194 196.855 247.575 191.193 248.841 183.552C249.557 179.209 249.723 174.262 249.282 167.94C248.786 160.518 242.452 154.307 234.852 153.812C226.48 153.262 219.54 158.155 217.833 166.016C217.447 167.83 217.337 169.754 217.227 171.788C217.227 172.063 217.227 172.337 217.227 172.612V172.667ZM67.8007 200.318C67.1398 200.318 66.534 200.318 65.873 200.208C55.6286 199.109 47.9177 191.138 47.4771 181.298C47.3118 177.45 47.3118 173.382 47.4771 168.874C47.8626 158.155 56.675 149.744 67.4703 149.689H67.5804C78.3206 149.689 87.1881 157.99 87.7389 168.599C87.8491 170.139 87.794 171.623 87.7389 173.162L88.0143 175.416C87.9041 176.405 87.8491 177.395 87.794 178.384C87.6838 180.638 87.5186 183.002 86.9678 185.311C84.9299 193.942 76.5581 200.373 67.7457 200.373L67.8007 200.318ZM67.5254 153.812H67.4703C58.8782 153.812 51.8833 160.518 51.5528 169.039C51.3876 173.437 51.3876 177.395 51.5528 181.133C51.9383 189.049 57.9969 195.206 66.3136 196.14C73.8042 196.91 81.2397 191.633 83.0022 184.321C83.4428 182.342 83.6081 180.308 83.7182 178.11C83.7182 177.725 83.7182 177.395 83.7733 177.01L83.6081 175.196V173.107C83.6081 171.678 83.6631 170.249 83.6081 168.819C83.1674 160.409 76.1175 153.812 67.5254 153.812ZM150.472 200.318C139.732 200.318 130.7 191.633 130.314 180.913C130.314 179.484 130.314 178.055 130.314 176.625L130.039 174.481C130.094 173.547 130.149 172.612 130.204 171.623C130.314 169.424 130.424 167.17 130.975 164.916C133.178 155.131 142.376 148.809 152.896 149.799C162.424 150.733 170.19 159.034 170.631 168.709C170.796 172.832 170.796 177.01 170.631 181.188C170.19 191.908 161.323 200.318 150.528 200.373L150.472 200.318ZM134.28 172.777H134.39V176.625C134.39 178 134.39 179.374 134.39 180.748C134.72 189.269 141.88 196.195 150.417 196.195C158.899 196.195 166.059 189.324 166.39 180.968C166.555 176.955 166.555 172.887 166.39 168.874C166.059 161.343 159.781 154.581 152.4 153.867C143.918 153.042 136.703 157.935 134.885 165.796C134.445 167.72 134.335 169.699 134.225 171.843C134.225 172.173 134.225 172.447 134.225 172.777H134.28Z" fill="#EB1D36"/>
<path d="M231.492 144.907C231.547 145.511 231.602 146.116 231.602 146.666C233.199 146.666 234.852 146.721 236.449 146.886C235.898 142.488 235.513 138.035 233.805 133.967C233.64 133.582 233.53 133.143 233.475 132.758C225.984 121.104 223.23 120.389 215.354 116.156C215.629 109.065 216.125 102.303 216.015 95.5965C215.85 83.9974 206.542 74.1024 195.361 73.1679C182.913 72.1234 172.063 79.7645 170.08 91.7485C168.758 99.6645 168.703 107.8 171.182 115.881C162.259 119.344 155.65 125.336 151.354 134.627C147.058 125.391 140.448 119.399 132.407 116.266C132.682 109.285 133.178 102.743 133.178 96.2562C133.178 83.1728 122.879 73.0579 109.99 73.0029C96.9369 73.0029 86.6924 83.1728 86.6373 96.4211C86.6373 102.908 87.133 109.395 87.4084 116.266C87.2983 116.266 87.078 116.431 86.9127 116.486C73.1984 122.753 66.0933 133.307 65.9281 148.37C67.6906 148.645 69.398 148.975 71.1054 149.414C71.1054 148.7 71.1054 148.04 71.1054 147.325C71.3808 135.012 77.4944 126.436 88.6201 121.269C90.2725 120.499 91.3189 120.664 92.6959 122.148C102.334 132.428 117.426 132.428 127.119 122.148C128.496 120.719 129.488 120.389 131.195 121.214C141.935 126.161 148.269 134.462 148.655 146.281C148.655 147.215 148.655 148.15 148.71 149.084C150.472 149.084 152.235 149.029 153.997 149.084C153.997 148.425 153.997 147.71 153.997 147.05C154.328 134.957 160.386 126.381 171.402 121.269C172.999 120.499 174.101 120.554 175.533 122.093C185.227 132.538 200.318 132.538 210.122 122.093C211.609 120.554 212.655 120.664 214.253 121.378C224.387 126.051 230.115 133.912 231.547 144.962L231.492 144.907ZM127.285 111.264C125.302 119.729 116.82 125.556 108.393 124.677C99.14 123.687 92.2002 116.651 91.8146 107.745C91.6494 103.677 91.6494 99.5545 91.8146 95.4866C92.1451 85.9214 100.131 78.3352 109.77 78.2803C119.464 78.2803 127.45 85.6465 128.001 95.2117C128.111 97.3556 128.001 99.4995 128.001 101.698C128.111 101.698 128.221 101.698 128.331 101.698C128.001 104.887 128.056 108.185 127.34 111.319L127.285 111.264ZM192.772 124.732C183.078 124.732 174.982 117.036 174.652 107.306C174.597 105.272 174.652 103.238 174.652 101.149C174.541 101.149 174.486 101.149 174.376 101.149C174.652 98.0703 174.597 94.8819 175.257 91.8584C177.295 82.9529 185.557 77.4007 194.975 78.3352C203.402 79.1598 210.452 86.5811 210.838 95.2667C211.003 99.3346 211.003 103.458 210.838 107.525C210.452 117.091 202.356 124.677 192.772 124.732Z" fill="#EB1D36"/>
<path d="M73.0331 152.108L70.4995 151.448C68.8472 151.008 67.1948 150.678 65.5425 150.459L63.78 150.184V148.37C63.9453 132.922 71.1604 121.708 85.2604 115.001C85.2053 113.352 85.0951 111.703 85.04 110.109C84.8197 105.436 84.5443 100.984 84.5994 96.4759C84.5994 89.4944 87.2432 83.0626 92.0349 78.2801C96.7716 73.5524 103.106 70.9688 109.935 70.9688H109.99C124.09 70.9688 135.216 82.1281 135.271 96.256C135.271 100.764 135.051 105.161 134.83 109.834C134.72 111.483 134.665 113.187 134.61 114.892C141.77 118.025 147.388 123.137 151.409 130.119C155.485 123.027 161.213 117.97 168.758 114.672C166.886 107.58 166.665 99.9391 168.097 91.4184C170.245 78.4999 181.812 69.9243 195.636 71.0787C207.919 72.1232 217.998 83.0626 218.163 95.5413C218.218 100.214 217.998 104.777 217.777 109.614C217.667 111.373 217.612 113.077 217.557 114.892L218.383 115.331C224.938 118.795 228.187 120.554 235.347 131.603L235.623 132.373C235.623 132.373 235.733 132.867 235.843 133.142C237.55 137.1 238.046 141.333 238.487 145.401L238.927 149.139L236.394 148.919C234.852 148.754 233.309 148.699 231.712 148.699H229.674V146.72C229.619 146.171 229.619 145.676 229.509 145.126C228.187 134.682 222.9 127.535 213.371 123.192C212.325 122.698 212.27 122.753 211.609 123.467C206.487 128.964 199.767 131.988 192.772 131.988C185.777 131.988 179.113 128.964 174.046 123.522C173.275 122.698 173.22 122.753 172.338 123.192C161.929 128.03 156.476 136.111 156.145 147.16L156.035 151.283H153.997C152.29 151.228 150.528 151.283 148.82 151.283H146.782L146.672 146.446C146.287 135.781 140.834 127.975 130.424 123.192C129.653 122.863 129.543 122.808 128.717 123.687C123.65 129.074 117.04 132.043 110.045 132.043C103.05 132.043 96.3861 129.074 91.3189 123.687C90.5478 122.863 90.4927 122.863 89.6115 123.302C78.8713 128.305 73.5288 136.276 73.3085 147.545V152.218L73.0331 152.108ZM129.378 118.795C130.094 118.795 130.975 118.959 131.911 119.399C143.698 124.842 150.142 134.132 150.583 146.281V147.105C151.023 147.105 151.409 147.105 151.849 147.105C152.235 134.297 158.459 125.061 170.466 119.454C172.999 118.245 175.037 118.63 176.965 120.719C181.261 125.336 186.824 127.865 192.662 127.865C198.5 127.865 204.173 125.281 208.524 120.664C210.948 118.08 213.151 118.63 215.024 119.454C225.764 124.402 231.988 132.867 233.53 144.632C233.53 144.632 233.915 144.632 234.08 144.632C233.64 141.113 233.144 137.815 231.877 134.737C231.712 134.352 231.602 133.912 231.492 133.527C225.103 123.632 222.459 122.258 216.29 118.959L213.206 117.31V116.046C213.316 113.792 213.426 111.593 213.536 109.449C213.757 104.667 213.977 100.159 213.922 95.5963C213.812 85.2065 205.385 76.0262 195.196 75.2016C183.574 74.2121 173.88 81.3585 172.118 92.0781C170.686 100.709 171.016 108.295 173.164 115.276L173.715 117.09L171.953 117.805C163.306 121.158 157.192 126.93 153.281 135.506L151.409 139.574L149.536 135.506C145.681 127.15 139.677 121.323 131.691 118.19L130.314 117.64V116.156C130.479 113.902 130.589 111.758 130.7 109.614C130.92 104.997 131.14 100.654 131.14 96.256C131.14 84.382 121.832 75.0917 109.99 75.0917C104.262 75.0917 98.9196 77.2356 95.0091 81.1936C90.9884 85.1516 88.7853 90.5938 88.7853 96.4759C88.7853 100.874 89.0057 105.271 89.226 109.889C89.3361 111.978 89.4463 114.067 89.5564 116.211V117.585L88.3447 118.135L86.9678 116.486L87.849 118.355C75.2362 124.127 68.737 133.362 68.1312 146.611C68.4616 146.665 68.7921 146.72 69.1777 146.83C69.6183 134.242 75.8421 125.006 87.849 119.399C90.3826 118.245 92.3654 118.63 94.3482 120.719C98.6443 125.281 104.207 127.81 110.045 127.81C115.884 127.81 121.446 125.336 125.743 120.774C126.679 119.784 127.946 118.74 129.708 118.74L129.378 118.795ZM110.045 126.821C109.384 126.821 108.668 126.821 108.007 126.711C97.8181 125.611 90.0521 117.64 89.6115 107.8C89.4463 103.952 89.4463 99.8841 89.6115 95.3764C89.997 84.6568 98.8095 76.2461 109.605 76.1911H109.715C120.455 76.1911 129.323 84.4919 129.873 95.1015C129.984 96.6408 129.928 98.125 129.873 99.6642V99.8292H130.039L130.149 101.863C130.039 102.853 129.984 103.842 129.928 104.832C129.818 107.085 129.653 109.449 129.102 111.758C127.009 120.554 118.858 126.821 109.99 126.821H110.045ZM109.715 80.314H109.605C101.013 80.314 94.0177 87.0206 93.6873 95.5413C93.522 99.9391 93.522 103.897 93.6873 107.635C94.0728 115.551 100.131 121.708 108.448 122.643C115.884 123.412 123.374 118.135 125.137 110.824C125.577 108.845 125.743 106.811 125.853 104.612C125.853 104.062 125.908 103.512 125.963 102.908L125.743 101.643V99.5543C125.743 98.125 125.798 96.6957 125.743 95.2665C125.302 86.8557 118.252 80.2591 109.66 80.2591L109.715 80.314ZM192.607 126.821C181.867 126.821 172.834 118.135 172.448 107.415C172.448 105.986 172.448 104.557 172.448 103.127L172.228 100.984C172.283 100.049 172.338 99.0596 172.393 98.125C172.504 95.9261 172.614 93.6723 173.164 91.4184C175.368 81.6334 184.621 75.2566 195.085 76.3011C204.614 77.2356 212.38 85.5364 212.82 95.2115C212.986 99.3344 212.986 103.512 212.82 107.69C212.38 118.245 203.347 126.821 192.717 126.875L192.607 126.821ZM176.414 99.9391L176.579 101.148V103.127C176.579 104.502 176.579 105.876 176.579 107.25C176.91 115.771 184.07 122.698 192.607 122.698C201.089 122.698 208.249 115.826 208.579 107.47C208.745 103.457 208.745 99.3344 208.579 95.3764C208.249 87.8452 201.97 81.0836 194.59 80.369C186.108 79.5444 178.893 84.4369 177.075 92.298C176.634 94.167 176.524 96.201 176.414 98.2899C176.414 98.8397 176.359 99.3894 176.304 99.9391H176.414Z" fill="#EB1D36"/>
<path d="M15.6421 239.184V244.516C12.7781 244.187 9.91404 244.297 7.38046 243.417C4.02072 242.208 2.75393 239.184 2.75393 235.611C2.75393 226.431 2.75393 217.305 2.75393 208.125C2.75393 165.356 2.75393 155.571 2.69885 112.803C2.69885 108.515 4.18595 105.547 7.71093 103.073C53.2602 70.6393 98.7545 38.2057 144.194 5.77212C149.371 2.08898 151.574 2.08898 156.696 5.77212C202.246 38.2607 247.795 70.7493 293.399 103.183C296.704 105.547 298.136 108.35 298.136 112.418C298.081 163.487 297.971 181.573 298.191 232.642C298.191 242.482 293.895 245.176 285.358 244.022V239.404C285.358 239.404 285.688 239.129 285.854 239.129C293.014 239.019 292.904 239.624 292.904 231.598C292.904 181.298 292.904 163.927 292.904 113.628C292.904 110.494 292.022 108.57 289.434 106.701C244.38 74.6523 199.216 42.4386 154.163 10.2249C151.409 8.24587 149.536 8.24587 146.782 10.2249C101.894 42.3286 56.9504 74.3774 11.9519 106.316C8.97772 108.46 7.93124 110.659 7.93124 114.232C8.0414 164.752 7.98632 182.343 7.98632 232.862C7.98632 236.894 10.0058 238.946 14.0449 239.019C14.4855 239.019 14.871 239.074 15.6421 239.129V239.184Z" fill="#EB1D36"/>
<path d="M15.6421 247.21C15.6421 247.21 15.4218 247.21 15.3116 247.21C14.4855 247.1 13.6042 247.045 12.778 246.99C10.6851 246.825 8.53705 246.715 6.4441 245.945C2.25819 244.461 0 240.778 0 235.556C0 229.179 0 222.802 0 216.48V208.125L0.0550778 180.639C0.0550778 158.155 0.0550778 144.577 0 112.748C0 107.58 1.92772 103.732 6.16871 100.764C41.4736 75.6416 76.8335 50.4643 112.138 25.287L142.596 3.57302C148.71 -0.769783 152.235 -0.769783 158.349 3.57302L192.882 28.2006C226.92 52.4983 261.014 76.741 295.052 100.984C299.072 103.842 300.945 107.525 300.945 112.473V135.671C300.835 170.524 300.835 190.149 301 232.697C301 238.249 299.733 242.042 297.034 244.406C294.336 246.77 290.535 247.54 285.027 246.77C283.651 246.605 282.659 245.396 282.659 244.021V239.404C282.659 238.414 283.155 237.535 284.036 237.04C284.201 236.93 284.917 236.38 285.909 236.38H287.286C288.332 236.38 289.489 236.38 290.095 236.27C290.205 235.446 290.205 233.687 290.205 231.983V221.538C290.205 178.714 290.205 160.409 290.205 113.627C290.205 111.264 289.709 110.219 287.891 108.955C242.728 76.851 197.564 44.6922 152.51 12.4785C150.693 11.2142 150.142 11.2142 148.324 12.4785C103.491 44.5823 58.5477 76.6311 13.5491 108.57C11.346 110.164 10.6851 111.483 10.6851 114.287C10.7952 154.087 10.7952 173.437 10.7952 204.551V232.917C10.7952 234.181 10.7952 235.501 10.8503 236.215C11.5113 236.325 12.8331 236.325 14.0999 236.38C14.4304 236.38 14.7608 236.38 15.1464 236.435H15.8624C17.2944 236.6 18.396 237.81 18.396 239.239V244.571C18.396 245.341 18.0655 246.11 17.4597 246.605C16.964 247.045 16.303 247.32 15.6421 247.32V247.21ZM150.472 5.9918C151.078 5.9918 151.684 6.04677 152.29 6.21169C151.023 5.60699 149.977 5.60699 148.71 6.21169C149.316 6.04677 149.922 5.9918 150.528 5.9918H150.472Z" fill="#EB1D36"/>
</g>
<defs>
<clipPath id="clip0_176_4131">
<rect width="301" height="267" fill="white"/>
</clipPath>
</defs>
</svg>
