<svg width="300" height="266" viewBox="0 0 300 266" fill="none" xmlns="http://www.w3.org/2000/svg">
<path d="M217.083 172.588L180.342 212.176C180.342 212.176 177.418 215.954 177.418 224.989C177.418 234.023 177.253 262.605 177.253 262.605L162.744 262.77L162.909 224.605L166.55 208.343L199.32 175.654C199.32 175.654 207.264 163.992 217.083 172.588Z" fill="#FFD6D6"/>
<path d="M39.7756 149.81L39.3894 188.686C39.3894 188.686 37.3482 197.173 49.154 202.867C60.9598 208.562 97.3703 234.078 97.3703 234.078C97.3703 234.078 101.342 238.129 101.342 243.769C101.342 249.409 100.956 262.331 100.956 262.331L91.026 262.66L89.9227 244.098C89.9227 244.098 84.2405 235.994 74.0345 230.354C63.8285 224.714 30.3971 199.582 30.3971 199.582L29.1835 169.631C29.1835 169.631 26.3148 150.631 39.7756 149.81Z" fill="#FFD6D6"/>
<path d="M216.918 262.66H211.401C211.787 256.801 211.732 250.887 212.67 245.193C213.442 240.593 216.918 237.418 220.835 234.844C236.502 224.55 252.06 214.092 267.837 203.907C272.306 201.005 274.292 197.611 274.127 192.245C273.796 181.841 274.016 171.438 274.016 161.034C274.016 155.668 270.982 152.219 266.348 152.109C261.824 152 258.514 155.614 258.459 160.87C258.404 169.357 258.349 177.844 258.459 186.276C258.459 190.109 256.969 192.792 253.659 194.709C241.798 201.553 230.048 208.562 218.187 215.406C212.339 218.801 206.271 217.815 202.464 212.997C198.878 208.452 199.375 202.21 203.843 197.446C207.264 193.833 210.85 190.438 214.325 186.933C218.297 182.882 218.628 177.844 215.153 174.395C211.787 171.054 206.436 171.273 202.409 175.216C192.589 184.907 182.769 194.599 173.06 204.346C167.543 209.876 164.95 216.665 164.95 224.386C164.95 235.884 164.95 247.328 164.95 258.827C164.95 259.977 164.95 261.181 164.95 262.55H159.765C159.765 258.334 159.765 254.282 159.765 250.23C159.765 241.743 159.765 233.256 159.765 224.824C159.765 215.351 162.964 207.138 169.64 200.458C179.349 190.712 189.114 180.965 198.989 171.328C204.836 165.634 213.498 165.469 218.794 170.781C224.31 176.256 224.035 184.524 218.077 190.602C214.822 193.887 211.512 197.118 208.257 200.403C204.947 203.743 204.395 207.029 206.547 209.821C208.753 212.723 212.008 213.052 216.09 210.642C227.565 203.962 238.985 197.227 250.46 190.602C252.501 189.452 253.328 188.029 253.273 185.729C253.163 177.132 253.163 168.536 253.273 159.994C253.328 154.19 257.19 149.098 262.321 147.51C267.341 145.922 273.299 147.51 276.223 151.89C277.823 154.354 278.981 157.585 279.036 160.487C279.367 171.766 279.092 182.991 279.202 194.271C279.202 199.801 277.05 203.907 272.416 206.974C256.583 217.377 240.805 228 224.917 238.239C219.29 241.907 216.422 246.507 216.918 253.187C217.139 256.253 216.918 259.374 216.918 262.605V262.66Z" fill="#EB1D36"/>
<path d="M216.918 265.398H211.401C210.629 265.398 209.912 265.069 209.36 264.521C208.864 263.974 208.588 263.207 208.643 262.496C208.753 260.743 208.864 258.991 208.919 257.239C209.084 253.132 209.25 248.916 209.967 244.755C211.015 238.677 215.815 234.899 219.345 232.545C225.083 228.766 230.875 224.934 236.613 221.155C246.488 214.585 256.418 208.014 266.348 201.608C270.155 199.144 271.479 196.68 271.368 192.354C271.148 185.127 271.148 177.844 271.203 170.726C271.203 167.496 271.203 164.265 271.203 161.034C271.203 159.228 270.706 154.957 266.238 154.847C264.914 154.847 263.865 155.23 262.983 156.052C261.824 157.147 261.217 158.844 261.217 160.87C261.162 169.302 261.107 177.789 261.217 186.222C261.217 190.985 259.176 194.654 255.039 197.063C248.97 200.568 242.957 204.072 236.944 207.631C231.151 211.026 225.359 214.421 219.566 217.761C212.56 221.813 205.002 220.663 200.313 214.694C195.899 209.109 196.506 201.225 201.857 195.585C203.954 193.34 206.16 191.15 208.367 189.014C209.691 187.7 211.07 186.386 212.394 185.017C215.318 182.06 215.649 178.72 213.222 176.311C210.905 173.957 207.264 174.34 204.395 177.132C194.575 186.769 184.811 196.516 175.101 206.262C170.247 211.135 167.819 217.213 167.764 224.386V262.496C167.764 264.029 166.55 265.233 165.006 265.233H159.82C158.275 265.233 157.062 264.029 157.062 262.496V242.346C157.062 236.487 157.062 230.628 157.062 224.769C157.062 214.475 160.647 205.605 167.764 198.432C177.473 188.631 187.293 178.939 197.168 169.302C204.009 162.622 214.436 162.349 220.835 168.755C227.455 175.326 227.124 185.291 220.118 192.409C218.408 194.161 216.642 195.913 214.877 197.611C213.332 199.144 211.788 200.677 210.243 202.21C206.878 205.605 208.257 207.412 208.753 208.069C209.415 208.945 210.684 210.588 214.711 208.233L227.841 200.568C234.903 196.406 241.964 192.3 249.081 188.193C250.239 187.536 250.515 187.043 250.515 185.674C250.405 177.078 250.405 168.481 250.515 159.83C250.625 152.931 255.094 146.743 261.493 144.772C268.003 142.746 275.009 144.991 278.485 150.248C280.471 153.204 281.685 156.983 281.795 160.268C282.016 167.222 281.96 174.176 281.96 181.13C281.96 185.455 281.96 189.781 281.96 194.107C281.96 200.513 279.312 205.55 273.906 209.109C267.948 213.052 261.99 216.994 256.032 220.936C246.157 227.452 236.337 234.023 226.352 240.429C221.221 243.715 219.18 247.493 219.566 252.913C219.732 255.104 219.676 257.294 219.621 259.539V262.55C219.621 264.083 218.352 265.288 216.808 265.288L216.918 265.398ZM217.58 241.196C216.973 241.908 216.532 242.619 216.201 243.331C216.587 242.619 217.084 241.908 217.58 241.196Z" fill="#EB1D36"/>
<path d="M144.042 262.66H139.022C139.022 261.51 139.022 260.36 139.022 259.21C139.022 247.931 138.966 236.651 139.022 225.426C139.077 216.83 136.153 209.547 129.974 203.47C120.706 194.326 111.493 185.127 102.225 175.928C101.287 175.052 100.349 174.121 99.246 173.464C95.605 171.219 90.9157 171.931 88.378 174.942C85.6748 178.118 85.6748 182.663 88.5987 185.839C92.1846 189.671 96.0463 193.34 99.7425 197.063C102.611 199.965 104.266 203.36 103.77 207.522C102.722 215.844 93.8948 220.06 86.392 215.735C74.2552 208.781 62.2287 201.608 50.0919 194.545C47.0025 192.738 45.5682 190.164 45.6234 186.605C45.6785 178.337 45.6234 170.069 45.6234 161.801C45.6234 160.213 45.4579 158.571 44.9062 157.092C43.6925 153.697 40.4928 151.781 37.0724 152.164C33.4865 152.547 30.2868 155.176 30.2317 158.79C30.011 171.328 30.0662 183.867 30.2317 196.461C30.2317 199.527 32.5487 201.334 34.9761 202.922C50.7539 213.271 66.3663 223.839 82.1993 234.023C89.3159 238.622 92.7914 244.7 92.3501 253.132C92.1846 256.199 92.3501 259.32 92.3501 262.605H87.1644C87.1644 259.156 87.054 255.651 87.1644 252.202C87.4402 246.233 84.9025 242.017 79.9374 238.787C64.4354 228.657 49.0989 218.199 33.4865 208.233C27.4181 204.346 24.5494 199.527 24.8253 192.3C25.2114 181.787 24.8804 171.274 24.9356 160.761C24.9356 152.712 30.5075 146.853 37.9551 146.962C45.2372 147.017 50.7539 152.876 50.8643 160.706C50.9194 169.083 50.9746 177.461 50.8643 185.839C50.8643 188.193 51.6918 189.507 53.733 190.712C65.3181 197.392 76.7929 204.181 88.3229 210.916C92.1294 213.107 95.4395 212.723 97.591 209.876C99.6322 207.193 99.1908 203.853 96.3221 200.896C92.8466 197.337 89.2607 193.942 85.7852 190.383C80.1029 184.579 79.8271 176.475 85.068 171.055C90.3089 165.634 99.0253 165.524 104.873 171.219C114.969 181.075 125.009 190.986 134.884 201.06C141.228 207.467 144.263 215.351 144.318 224.331C144.373 236.323 144.318 248.369 144.318 260.36C144.318 261.072 144.207 261.839 144.152 262.715L144.042 262.66Z" fill="#EB1D36"/>
<path d="M144.042 265.397H139.022C137.477 265.397 136.263 264.193 136.263 262.66V248.971C136.263 241.086 136.263 233.256 136.263 225.372C136.318 217.432 133.615 210.861 128.043 205.386C122.637 200.075 117.286 194.763 111.935 189.452L100.294 177.899C99.577 177.187 98.6944 176.366 97.8117 175.818C95.3292 174.285 92.1846 174.723 90.4744 176.749C88.5987 178.994 88.6539 181.896 90.5848 184.031C92.957 186.55 95.3843 188.959 97.8669 191.423C99.1357 192.683 100.405 193.942 101.673 195.202C105.425 198.98 107.025 203.25 106.473 207.905C105.866 212.723 103.108 216.72 98.8599 218.801C94.5568 220.936 89.3711 220.663 84.9577 218.199C77.5101 213.928 70.1729 209.602 62.7804 205.276C58.0912 202.539 53.3468 199.746 48.6576 197.008C44.7407 194.709 42.7547 191.259 42.8099 186.66C42.865 178.392 42.8099 170.178 42.8099 161.91C42.8099 160.323 42.6444 159.063 42.2582 158.078C41.4858 155.942 39.4998 154.738 37.2931 154.957C35.1968 155.176 32.9349 156.654 32.9349 158.899C32.7694 169.85 32.7142 181.403 32.9349 196.461C32.9349 197.885 33.8727 198.98 36.4656 200.677C42.0927 204.346 47.6646 208.069 53.2365 211.792C63.3321 218.527 73.4829 225.207 83.6889 231.778C91.8536 237.034 95.605 244.098 95.1085 253.297C94.9982 255.323 95.0533 257.403 95.1085 259.539V262.66C95.1085 264.193 93.8948 265.397 92.3501 265.397H87.1644C85.6197 265.397 84.406 264.193 84.406 262.66V259.484C84.406 257.02 84.3509 254.611 84.406 252.147C84.6267 247.383 82.751 243.988 78.3928 241.141C72.1037 237.034 65.925 232.928 59.6911 228.766C50.4781 222.634 41.2652 216.556 31.9419 210.588C24.8805 206.098 21.7359 200.239 22.0118 192.245C22.2324 185.291 22.2324 178.173 22.1773 171.274C22.1773 167.769 22.1773 164.265 22.1773 160.761C22.1773 155.942 23.9426 151.616 27.0872 148.55C29.9559 145.703 33.8176 144.115 38.0103 144.225C46.8371 144.279 53.5675 151.397 53.6227 160.706C53.6778 169.083 53.733 177.461 53.6227 185.893C53.6227 187.098 53.7882 187.591 55.1122 188.357C62.3943 192.573 69.6763 196.844 76.9584 201.115L89.7573 208.616C93.5086 210.807 94.8878 208.945 95.4395 208.288C96.9842 206.262 95.7153 204.236 94.3913 202.867C92.626 201.06 90.8054 199.308 89.0401 197.501C87.3299 195.804 85.5645 194.106 83.9095 192.354C77.1791 185.51 76.9033 175.763 83.1923 169.193C86.1714 166.072 90.1986 164.374 94.5568 164.265C99.246 164.265 103.494 165.962 106.914 169.302C116.403 178.556 126.278 188.302 136.98 199.144C143.711 205.933 147.131 214.421 147.186 224.331C147.186 233.64 147.186 242.893 147.186 252.202V260.415C147.186 260.962 147.131 261.565 147.076 262.167V262.933C146.911 264.357 145.697 265.452 144.263 265.452L144.042 265.397Z" fill="#EB1D36"/>
<path d="M118.168 60.4492H123.409V105.786H139.077C139.077 102.008 139.077 87.2244 139.077 83.4463C139.077 77.5328 142.111 74.576 148.069 74.5213C150.883 74.5213 153.696 74.5213 156.51 74.5213C161.861 74.6308 164.95 77.6423 165.061 82.8988C165.116 86.8411 165.061 101.735 165.061 105.896H180.452V60.504H185.693V105.786H211.732V65.7057H216.808V105.786H227.51V65.8152H232.696V105.951H240.419V111.043H63.7183V106.06H71.221V65.7057H76.2964V105.841H86.9989V65.7057H92.1846V105.841H118.113V60.4492H118.168ZM159.82 105.951C159.82 101.68 160.04 86.7316 159.709 82.844C159.599 81.7489 157.999 79.9968 156.951 79.8325C153.751 79.4492 150.441 79.4492 147.242 79.8325C146.193 79.942 144.483 81.4752 144.428 82.4607C144.097 86.5674 144.318 101.68 144.318 105.951H159.875H159.82Z" fill="#7A0003"/>
<path d="M240.364 113.069H63.7182C62.5597 113.069 61.6218 112.138 61.6218 110.988V106.006C61.6218 104.856 62.5597 103.925 63.7182 103.925H69.1798V65.6511C69.1798 64.5013 70.1176 63.5704 71.2761 63.5704H76.3515C77.51 63.5704 78.4479 64.5013 78.4479 65.6511V103.706H85.0128V65.6511C85.0128 64.5013 85.9506 63.5704 87.1091 63.5704H92.2949C93.4534 63.5704 94.3912 64.5013 94.3912 65.6511V103.761H116.182V60.3947C116.182 59.2448 117.12 58.314 118.279 58.314H123.52C124.678 58.314 125.616 59.2448 125.616 60.3947V103.706H137.146V101.406C137.146 95.4926 137.146 86.2938 137.146 83.3918C137.146 76.3831 141.118 72.4955 148.179 72.4408C150.993 72.4408 153.806 72.4408 156.675 72.4408C163.185 72.5503 167.157 76.4379 167.267 82.8442C167.267 85.801 167.267 94.9451 167.267 101.078V103.761H178.521V60.4494C178.521 59.2996 179.459 58.3687 180.618 58.3687H185.859C187.017 58.3687 187.955 59.2996 187.955 60.4494V103.651H209.856V65.6511C209.856 64.5013 210.794 63.5704 211.953 63.5704H217.028C218.187 63.5704 219.125 64.5013 219.125 65.6511V103.706H225.689V65.7607C225.689 64.6108 226.627 63.68 227.786 63.68H232.972C234.13 63.68 235.068 64.6108 235.068 65.7607V103.815H240.695C241.854 103.815 242.791 104.746 242.791 105.896V110.988C242.791 112.138 241.854 113.069 240.695 113.069H240.364ZM65.7594 108.962H238.268V107.977H232.641C231.482 107.977 230.544 107.046 230.544 105.896V67.8413H229.496V105.787C229.496 106.936 228.558 107.867 227.4 107.867H216.697C215.539 107.867 214.601 106.936 214.601 105.787V67.7318H213.663V105.732C213.663 106.882 212.725 107.813 211.567 107.813H185.528C184.369 107.813 183.431 106.882 183.431 105.732V62.5301H182.328V105.841C182.328 106.991 181.39 107.922 180.232 107.922H164.84C163.681 107.922 162.744 106.991 162.744 105.841V101.078C162.744 94.9998 162.744 85.8558 162.744 82.899C162.688 78.7376 160.482 76.6021 156.234 76.5474C153.42 76.5474 150.607 76.5474 147.848 76.5474C143.049 76.5474 140.952 78.6281 140.952 83.4465C140.952 86.3485 140.952 95.5474 140.952 101.461V105.841C140.952 106.991 140.015 107.922 138.911 107.922H123.244C122.085 107.922 121.147 106.991 121.147 105.841V62.5301H120.044V105.896C120.044 107.046 119.106 107.977 117.948 107.977H92.019C90.8605 107.977 89.9227 107.046 89.9227 105.896V67.7866H88.8745V105.841C88.8745 106.991 87.9366 107.922 86.7781 107.922H76.0757C74.9172 107.922 73.9793 106.991 73.9793 105.841V67.7866H73.0415V106.06C73.0415 107.21 72.1036 108.141 70.9451 108.141H65.4835V109.017L65.7594 108.962ZM159.765 107.922H144.207C143.049 107.922 142.111 106.991 142.111 105.841V101.844C142.056 95.3284 142.001 85.5272 142.276 82.1872C142.442 80.0517 145.035 77.8615 146.911 77.6425C150.441 77.2592 153.862 77.2592 157.061 77.6425C159.103 77.9163 161.475 80.3802 161.64 82.5157C161.916 85.6915 161.861 95.2736 161.806 101.68V105.841C161.806 106.991 160.868 107.922 159.709 107.922H159.765ZM146.249 103.815H157.668V101.68C157.668 95.7664 157.778 85.8558 157.503 82.899C157.392 82.6252 156.73 81.8586 156.399 81.7491C153.641 81.4206 150.552 81.4206 147.352 81.7491C147.131 81.8586 146.469 82.4062 146.304 82.7347C146.083 85.6915 146.138 95.7664 146.193 101.844V103.815H146.249Z" fill="#7A0003"/>
<path d="M190.934 42.8732C190.438 42.2709 189.776 41.1758 188.893 40.2998C177.694 29.1297 166.44 18.0145 155.241 6.84443C152.372 3.99717 151.71 3.99717 148.897 6.84443C137.642 17.9597 126.443 29.1297 115.189 40.2998C114.638 40.8473 113.865 41.3401 113.7 41.9424C113.479 42.9828 113.314 44.5707 113.921 45.0634C114.693 45.7205 116.238 45.7753 117.341 45.5562C118.168 45.392 118.83 44.3516 119.492 43.6946C129.257 34.0029 139.077 24.3113 148.841 14.6196C151.71 11.7724 152.317 11.7724 155.186 14.6196C164.95 24.3113 174.77 34.0029 184.535 43.6946C185.197 44.3516 185.859 45.1182 186.686 45.6658C188.617 46.8704 190.879 45.6658 190.934 42.9828V42.8732Z" fill="#7A0003"/>
<path d="M188.231 48.0748C187.293 48.0748 186.41 47.801 185.583 47.2535C184.755 46.7059 184.093 46.0489 183.542 45.4466L172.563 34.4956L153.751 15.8788C152.593 14.729 152.152 14.4004 151.986 14.3457C151.986 14.4552 151.324 14.948 150.386 15.9336L120.596 45.5013C119.934 46.2679 119.106 47.1987 117.837 47.4177C116.348 47.7463 114.086 47.6915 112.652 46.4869C111.548 45.5561 111.273 43.9134 111.769 41.3947C111.99 40.2448 112.817 39.533 113.424 38.9855C125.009 27.4869 136.263 16.3716 147.462 5.2016C151.103 1.58777 153.089 1.64252 156.73 5.2016C167.985 16.3169 179.184 27.4869 190.383 38.6569C191.1 39.3687 191.707 40.1901 192.148 40.8471L192.534 41.3947C192.81 41.778 192.975 42.216 192.975 42.7088C192.975 44.7347 191.982 46.4869 190.383 47.363C189.721 47.7463 188.948 47.9105 188.231 47.9105V48.0748ZM152.041 10.3486C153.42 10.3486 154.8 11.2247 156.62 13.0316L186.466 42.6541C186.907 43.0921 187.348 43.5849 187.734 43.8039C187.9 43.9134 188.176 44.0229 188.397 43.9134C188.507 43.8587 188.672 43.6944 188.728 43.4206C188.341 42.9278 187.955 42.2708 187.404 41.778C176.205 30.6079 164.95 19.4379 153.751 8.32264C152.593 7.17278 152.096 6.84425 151.931 6.7895C151.931 6.84425 151.49 7.17278 150.331 8.26788C139.077 19.3832 127.878 30.5532 116.624 41.7232C116.458 41.8875 116.238 42.0517 116.072 42.2708C115.907 42.3803 115.686 42.5993 115.631 42.7088C115.631 43.0373 115.631 43.3659 115.631 43.5849C115.962 43.5849 116.458 43.6396 116.955 43.5849C116.955 43.5849 117.231 43.2016 117.451 42.9826C117.672 42.7636 117.893 42.4898 118.113 42.2708L147.462 13.1958C149.338 11.3889 150.717 10.4581 152.096 10.4581L152.041 10.3486Z" fill="#7A0003"/>
<path d="M81.5372 58.3688C71.5519 58.2593 63.4975 50.046 63.6078 40.1354C63.7181 30.2247 71.9932 22.2305 81.9785 22.34C91.9638 22.4495 100.018 30.6627 99.9079 40.5734C99.7976 50.4841 91.5225 58.4783 81.5372 58.3688ZM81.7027 27.487C74.5861 27.487 68.7935 33.3457 68.7935 40.4091C68.7935 47.4725 74.6964 53.2766 81.813 53.2218C88.9296 53.2218 94.7222 47.363 94.7222 40.2996C94.7222 33.2362 88.8193 27.4322 81.7027 27.487Z" fill="#EB1D36"/>
<path d="M81.7028 60.3947H81.4821C70.3383 60.2852 61.4012 51.1411 61.5115 40.0806C61.6218 29.1296 70.6693 20.2593 81.7579 20.2593H81.9786C87.3298 20.2593 92.4052 22.4495 96.1566 26.2823C99.908 30.1152 102.004 35.2074 101.949 40.5734C101.949 45.8846 99.7425 50.9221 95.8256 54.6454C92.0191 58.3688 86.9988 60.3947 81.6476 60.3947H81.7028ZM81.7579 24.3659C72.9311 24.3659 65.7042 31.3745 65.6491 40.1354C65.5387 48.9509 72.7105 56.2333 81.5373 56.2881C85.8955 56.3428 89.8675 54.7002 92.9569 51.7434C96.0463 48.7319 97.7565 44.7895 97.8116 40.5734C97.8116 36.3025 96.2118 32.3054 93.2327 29.2391C90.2537 26.1728 86.2265 24.4754 81.9786 24.4207H81.8131L81.7579 24.3659ZM81.7579 55.2477C77.7859 55.2477 74.0345 53.7146 71.1658 50.9221C68.2971 48.1296 66.7524 44.3515 66.6972 40.4091C66.6972 36.412 68.2419 32.6887 71.0555 29.8414C73.869 26.9941 77.6755 25.4063 81.6476 25.4063H81.7028C89.9779 25.4063 96.7083 32.0316 96.7634 40.2449C96.7634 48.4581 90.0882 55.193 81.8131 55.2477H81.7579ZM81.7579 29.5129C78.8341 29.5129 76.1309 30.6627 74.0897 32.7434C72.0485 34.8241 70.89 37.5071 70.9451 40.4091C70.9451 43.2564 72.1036 45.9941 74.2 48.0201C76.2412 50.046 78.9996 51.1959 81.8683 51.1959C87.8815 51.1959 92.7362 46.2679 92.7362 40.3544C92.7362 34.3861 87.8263 29.5676 81.8131 29.5676L81.7579 29.5129Z" fill="#EB1D36"/>
<path d="M221.993 58.3683C212.008 58.2588 203.954 50.0455 204.064 40.1349C204.174 30.2242 212.449 22.23 222.435 22.3395C232.42 22.449 240.474 30.6623 240.364 40.5729C240.254 50.4836 231.979 58.4778 221.993 58.3683ZM235.178 40.2444C235.178 33.181 229.22 27.4317 222.104 27.4865C214.987 27.4865 209.194 33.4 209.25 40.4634C209.25 47.5268 215.208 53.2761 222.324 53.2213C229.441 53.2213 235.233 47.3078 235.178 40.2444Z" fill="#EB1D36"/>
<path d="M222.159 60.3945H221.938C210.794 60.285 201.857 51.1409 201.968 40.0804C202.078 29.0199 211.07 20.2043 222.435 20.259C227.786 20.259 232.861 22.4492 236.613 26.2821C240.364 30.115 242.46 35.2072 242.405 40.5732C242.405 45.8844 240.199 50.9219 236.282 54.6452C232.475 58.3686 227.455 60.3945 222.104 60.3945H222.159ZM222.214 24.3657C213.387 24.3657 206.16 31.3743 206.105 40.1351C205.995 48.9507 213.167 56.2331 221.993 56.2879C226.462 56.3426 230.324 54.7 233.413 51.7432C236.502 48.7317 238.212 44.7893 238.268 40.5732C238.268 36.3023 236.668 32.2504 233.689 29.2389C230.71 26.1726 226.683 24.4752 222.435 24.4204H222.269L222.214 24.3657ZM222.214 55.2475C218.242 55.2475 214.491 53.7144 211.677 50.9219C208.808 48.1294 207.208 44.406 207.208 40.4089C207.153 32.1956 213.829 25.406 222.104 25.3513H222.214C230.434 25.3513 237.164 31.9766 237.275 40.1351C237.33 48.3484 230.655 55.138 222.379 55.1928H222.269L222.214 55.2475ZM222.214 29.5126H222.159C216.146 29.5126 211.291 34.4406 211.346 40.4089C211.346 43.2562 212.505 45.9939 214.601 48.0199C216.697 50.0458 219.18 51.2504 222.324 51.1409C228.338 51.1409 233.192 46.2129 233.137 40.2446C233.137 34.3311 228.227 29.5126 222.214 29.5126Z" fill="#EB1D36"/>
<path d="M152.151 61.7636C145.035 61.8184 139.132 56.1239 139.077 49.0057C139.022 41.9423 144.759 36.0835 151.876 35.974C158.992 35.9193 164.895 41.6138 165.005 48.7319C165.061 55.7953 159.323 61.6541 152.207 61.7636H152.151ZM144.263 48.7319C144.207 52.9481 147.738 56.5619 151.986 56.5619C156.234 56.5619 159.82 53.0576 159.82 48.8415C159.82 44.7348 156.399 41.2853 152.262 41.1758C148.014 41.0662 144.373 44.5158 144.263 48.7319Z" fill="#7A0003"/>
<path d="M152.041 63.7897C148.069 63.7897 144.373 62.2566 141.504 59.5188C138.636 56.7263 137.036 53.003 136.981 49.0059C136.925 40.7926 143.545 34.003 151.876 33.9482H152.041C160.261 33.9482 166.992 40.5188 167.102 48.7321C167.157 56.9454 160.482 63.735 152.207 63.7897H152.041ZM151.986 38.0001H151.876C145.863 38.0549 141.063 42.9828 141.118 48.9511C141.118 51.7984 142.332 54.5361 144.373 56.5621C146.414 58.588 149.117 59.6831 151.986 59.6831H152.096C158.11 59.6284 162.909 54.7004 162.854 48.7321C162.799 42.8186 157.889 38.0549 151.931 38.0549L151.986 38.0001ZM151.986 58.588H151.931C149.338 58.588 146.856 57.4929 144.98 55.6312C143.104 53.7696 142.111 51.2508 142.166 48.6774C142.166 46.1039 143.325 43.6399 145.256 41.833C147.187 40.0261 149.504 39.0405 152.317 39.0952C157.558 39.2595 161.861 43.6399 161.861 48.8416C161.861 51.4151 160.813 53.8791 158.937 55.7408C157.061 57.6024 154.634 58.588 152.041 58.588H151.986ZM146.304 48.7321C146.304 50.2105 146.856 51.6341 147.959 52.7292C149.062 53.8243 150.497 54.4266 151.986 54.4814C153.531 54.6456 154.91 53.8791 156.013 52.8387C157.117 51.7436 157.723 50.32 157.723 48.8416C157.723 45.8848 155.186 43.3114 152.207 43.2018C150.772 43.1471 149.283 43.6946 148.124 44.7897C147.021 45.8301 146.359 47.2537 146.304 48.7321Z" fill="#7A0003"/>
</svg>
