<svg width="267" height="225" viewBox="0 0 267 225" fill="none" xmlns="http://www.w3.org/2000/svg">
<g clip-path="url(#clip0_176_3910)">
<path d="M79.3254 200.088C78.6255 199.809 78.2055 199.902 78.2055 200.645V217.703H47.7353C48.0152 217.563 48.1552 217.47 48.2952 217.424C54.6412 215.054 61.1739 213.752 67.8932 213.287C69.993 213.148 70.133 213.009 70.133 210.917V199.112C70.133 198.043 69.5731 197.903 69.1065 197.624C68.8265 197.485 67.8466 197.16 67.7999 197.996V211.01C59.1674 211.521 50.8616 213.566 42.8357 217.145V216.309C42.8357 202.597 42.8357 202.83 42.8357 189.119C42.8357 188.375 42.2291 188.189 41.6692 188.189C41.4359 188.189 40.596 188.422 40.596 189.212C40.596 191.257 40.596 188.654 40.596 190.699V217.099C32.5701 213.52 24.3109 211.475 15.5851 210.964V174.897C16.4717 174.99 17.3116 175.036 18.1515 175.082C19.2714 175.175 19.5514 175.222 20.6246 175.408C22.5844 175.408 21.7445 173.27 19.9714 173.084C18.1515 172.805 16.705 172.666 14.7919 172.526C13.6253 172.433 13.252 172.852 13.252 173.967C13.252 175.268 13.252 176.57 13.252 177.871V179.266C11.8055 179.266 5.83277 179.266 4.47957 179.266C3.2197 179.266 2.89307 179.637 2.89307 180.846C2.89307 196.416 2.89307 202.737 2.89307 218.307C2.89307 219.469 3.26636 219.841 4.38625 219.841C26.1307 219.841 57.2543 219.841 78.9988 219.841C79.6987 219.841 80.212 219.655 80.492 219.004V201.203C80.3987 200.506 79.4654 200.041 79.2788 199.948L79.3254 200.088ZM35.5098 217.703H5.22617V181.729H13.2987V182.565C13.2987 195.3 13.2987 198.74 13.2987 211.475C13.2987 211.847 13.252 212.265 13.4387 212.497C13.672 212.823 14.1386 213.148 14.5119 213.194C17.2183 213.52 19.9247 213.752 22.5844 214.124C26.924 214.775 31.1236 215.937 35.2298 217.47C35.3232 217.47 35.4631 217.563 35.5565 217.61C35.5565 217.61 35.5565 217.656 35.5565 217.703H35.5098Z" fill="#2192FF"/>
<path d="M79.0454 221.747H4.43284C2.33305 221.747 1.1665 220.585 1.1665 218.447V180.939C1.1665 178.754 2.33305 177.639 4.52617 177.639H11.5255V174.014C11.5255 173.642 11.5255 172.433 12.412 171.597C13.2986 170.76 14.5118 170.853 14.9318 170.853C16.8449 170.946 18.3381 171.132 20.2513 171.411C22.1177 171.597 23.6109 173.177 23.5176 174.85C23.4709 176.012 22.5377 177.221 20.6712 177.221C19.3647 177.035 19.0847 176.988 18.0581 176.895H17.4049V209.383C24.7775 209.988 31.9634 211.707 38.9161 214.496V190.746C38.9161 190.746 38.9161 190.467 38.9161 190.327V189.258C38.9161 187.353 40.5959 186.47 41.7624 186.47C43.4423 186.47 44.6088 187.492 44.7022 189.026V214.496C51.6548 211.707 58.8874 209.988 66.2133 209.337V197.95C66.2133 197.113 66.5866 196.416 67.2399 196.044C67.7532 195.719 68.5931 195.44 69.9463 196.044C70.7862 196.509 71.9994 197.206 72.0461 199.065V210.917C72.0461 213.938 71.2062 214.821 68.1731 215.007C65.6067 215.193 63.0403 215.472 60.5672 215.937H76.619V200.599C76.619 199.437 77.1789 198.833 77.6455 198.508C78.3455 198.043 79.1854 198.043 80.1653 198.415L80.3519 198.508C81.6585 199.205 82.3584 200.041 82.4517 201.11V219.469L82.3117 219.795C81.9384 220.631 81.0519 221.654 79.1854 221.654L79.0454 221.747ZM37.1896 218.261H38.6361C38.2161 218.075 37.7962 217.889 37.3762 217.749L37.1429 218.261H37.1896ZM6.95259 215.983H23.0043C22.771 215.983 22.491 215.89 22.2577 215.89C20.7645 215.658 19.2714 215.519 17.7782 215.333C16.6116 215.193 15.3984 215.1 14.2319 214.914C13.252 214.775 12.4587 214.124 11.9921 213.566C11.4321 212.869 11.4788 212.079 11.4788 211.614V183.449H6.90593V215.937L6.95259 215.983Z" fill="#2192FF"/>
<path d="M79.0452 221.142H4.43268C2.65953 221.142 1.77295 220.212 1.77295 218.446V180.985C1.77295 179.126 2.65953 178.243 4.52601 178.243H12.1319V174.06C12.1319 173.502 12.2252 172.619 12.8318 172.061C13.4851 171.457 14.325 171.457 14.885 171.457C16.7048 171.55 18.1513 171.736 20.1578 172.015C21.7443 172.201 23.0042 173.502 22.9575 174.85C22.9108 175.779 22.1642 176.663 20.6711 176.663C19.4578 176.477 19.1779 176.43 18.1046 176.337C17.6847 176.337 17.2181 176.244 16.7981 176.244V209.987C24.6373 210.545 32.1032 212.358 39.4758 215.425V189.305C39.4758 187.864 40.7824 187.12 41.7156 187.12C43.0688 187.12 44.0021 187.91 44.0487 189.165C44.0487 202.597 44.0487 202.272 44.0487 215.472C51.4213 212.404 58.8872 210.592 66.6798 209.987V198.042C66.6798 197.206 67.1464 196.788 67.4264 196.602C67.9863 196.23 68.7329 196.23 69.5728 196.602L69.8528 196.741C70.3194 197.02 71.2527 197.531 71.2993 199.111V210.963C71.2993 213.659 70.6927 214.31 67.9863 214.496C63.5534 214.775 59.1672 215.472 55.0143 216.587H77.0388V200.692C77.0388 199.762 77.4587 199.297 77.7854 199.111C78.5319 198.6 79.4652 198.972 79.7452 199.111H79.8385L79.2785 200.18L79.8385 199.158C80.9584 199.716 81.565 200.459 81.6583 201.296V219.469L81.565 219.701C81.0984 220.724 80.2584 221.235 78.9986 221.235L79.0452 221.142ZM42.0423 218.818H42.5555L47.2684 216.634H47.3151C45.9619 217.098 44.6553 217.656 43.3488 218.26L42.0423 218.818ZM35.7895 218.818H41.389L40.0825 218.26C38.8692 217.703 37.6094 217.191 36.3962 216.727L36.9094 216.959L36.3495 218.772H35.7895V218.818ZM6.39249 216.587H28.5569C26.4571 216.029 24.4507 215.611 22.3976 215.332C20.8577 215.1 19.3645 214.96 17.8247 214.775C16.6581 214.635 15.4916 214.542 14.325 214.403C13.5318 214.31 12.8318 213.752 12.4585 213.241C12.0386 212.73 12.0853 212.079 12.0853 211.707V182.937H6.39249V216.587ZM17.2647 212.358L18.058 212.451C18.9912 212.544 19.9711 212.637 20.9044 212.776C19.6912 212.59 18.4779 212.497 17.2647 212.404V212.358ZM69.0129 211.614V212.079C69.0129 212.079 69.0129 212.079 69.0596 212.079C69.0596 212.079 69.0129 211.893 69.0129 211.661V211.614Z" fill="#2192FF"/>
<path d="M79.0454 222.908H4.43289C1.67983 222.862 0 221.189 0 218.447V180.985C0 178.15 1.63317 176.523 4.52621 176.523H10.4056V174.107C10.4056 173.549 10.4056 171.969 11.6655 170.807C12.8787 169.691 14.4186 169.738 14.9785 169.738C16.8916 169.877 18.3848 170.016 20.438 170.295C22.911 170.574 24.8709 172.666 24.7309 174.943C24.6375 176.663 23.2377 178.382 20.7179 178.382C19.598 178.243 19.1781 178.197 18.5715 178.104V208.314C25.1975 208.965 31.4969 210.406 37.7496 212.776V189.258C37.7496 186.795 39.8494 185.308 41.7625 185.308C44.0489 185.308 45.7288 186.841 45.8688 188.979V212.776C52.1681 210.406 58.4675 208.919 65.0468 208.268V197.95C65.0468 196.695 65.6534 195.626 66.6333 195.022C67.3333 194.557 68.5932 194.139 70.413 194.882L70.8796 195.115C71.4395 195.44 73.166 196.369 73.2593 198.926V210.824C73.2593 211.057 73.2593 211.289 73.2593 211.521L75.1258 212.218L73.1194 212.73C72.9794 213.566 72.6527 214.171 72.2328 214.682H75.4991V200.506C75.4991 198.74 76.479 197.81 77.039 197.438C77.5056 197.113 78.2988 196.834 79.2321 196.881L79.4187 196.555L82.4518 197.95L82.3118 198.275C83.2917 199.158 83.6183 200.134 83.665 200.831V219.562L83.525 219.887C82.6851 221.746 81.1919 222.676 79.2787 222.676L79.0454 222.908ZM46.9886 219.423H78.9988C79.6054 219.423 79.792 219.237 79.8854 219.051V201.25C79.8854 201.25 79.5587 200.924 79.0454 200.645L78.6255 200.506L78.7188 218.261H47.7819L46.1021 219.051L46.8953 219.423H46.9886ZM4.52621 179.963C3.59297 179.963 3.49965 180.102 3.49965 180.939V218.4C3.49965 219.283 3.63964 219.376 4.43289 219.376H35.7431L35.6964 218.539L34.7632 218.261H4.6662V181.125H13.8586V211.614C13.8586 211.614 13.8586 212.033 13.8586 212.126C13.9986 212.311 14.3252 212.544 14.5585 212.59C15.3985 212.683 16.285 212.776 17.1716 212.869L17.2649 211.707C17.2649 211.707 16.7983 211.707 16.565 211.661L14.9318 211.521V174.292L18.1515 174.571C19.2247 174.664 19.5514 174.711 20.7646 174.897C20.7646 174.897 21.0912 174.897 21.0912 174.711C21.0912 174.385 20.5779 173.781 19.878 173.735C17.9182 173.456 16.4717 173.316 14.6985 173.177C14.5585 173.177 14.0919 173.177 13.9053 173.316C13.812 173.409 13.7653 173.688 13.7653 174.06V179.963H4.52621ZM41.2026 216.773L41.7625 217.006L42.3224 216.773V189.072C42.3224 189.072 42.3224 188.794 41.7158 188.794C41.7158 188.794 41.2026 188.887 41.2026 189.258V216.773ZM35.2765 216.401L36.3497 216.727L36.6297 216.123C31.5435 214.171 26.364 212.823 21.0446 212.126L20.9046 213.287C21.5112 213.38 22.1178 213.427 22.7244 213.52C24.7775 213.845 26.924 214.264 29.0704 214.821L35.3231 216.448L35.2765 216.401ZM47.1753 215.937L47.4553 216.587L54.5945 214.728C58.7008 213.659 62.947 212.962 67.24 212.637V211.521H66.82C60.0073 212.033 53.568 213.473 47.1753 215.89V215.937ZM8.11919 214.682H11.5722C11.5722 214.682 11.2455 214.31 11.0589 214.124C10.2656 213.148 10.3123 211.986 10.3123 211.428V184.471H8.11919V214.635V214.682ZM68.3598 197.95L68.4532 211.428H68.8731L68.4998 210.266L68.9198 211.428H69.1998L69.6197 210.499V199.019C69.6197 198.461 69.4331 198.368 69.0598 198.182C68.6865 197.996 68.4998 197.95 68.4065 197.95H68.3598Z" fill="#2192FF"/>
<path d="M35.4631 109.363C33.7366 70.6469 69.7596 37.6475 107.416 37.601V12.7817L91.5974 13.3395L90.7575 31.0941L86.8846 34.2546L70.2262 40.1108L50.7215 55.1697L38.6361 49.4994L32.7567 46.9895L19.458 68.0906L18.1048 76.9679L27.3439 82.6382L31.7301 87.6578L28.8837 99.0449L30.0503 123.167L32.3834 133.532L17.9181 141.061L16.5649 143.571L20.5779 149.102L34.5298 170.853L49.9749 162.162L61.7338 175.408L89.6376 187.307C88.6111 206.874 93.5106 205.061 93.5106 205.061L102.61 205.712L106.156 203.434V181.079C66.4 180.381 37.1429 147.8 35.3697 109.317L35.4631 109.363Z" fill="#B9F3FC"/>
<path d="M129.067 112.477C128.647 112.477 128.227 112.337 127.854 112.105L93.5574 89.2377C92.5308 88.587 92.2975 87.1927 92.9508 86.2166C93.6041 85.1941 95.0039 84.9617 95.9838 85.6124L130.28 108.48C131.307 109.13 131.54 110.525 130.887 111.501C130.467 112.151 129.767 112.477 129.067 112.477Z" fill="#2D388B"/>
<path d="M129.067 114.197C128.274 114.197 127.528 113.964 126.874 113.546L92.5777 90.6787C91.6911 90.0745 91.0845 89.1914 90.8979 88.1689C90.7112 87.1463 90.8979 86.0774 91.5045 85.2408C92.0644 84.3577 92.9977 83.7999 94.0242 83.5675C95.0508 83.3816 96.124 83.5675 97.0106 84.1718L131.307 107.039C133.127 108.247 133.594 110.711 132.38 112.477C131.634 113.592 130.421 114.243 129.114 114.243L129.067 114.197ZM95.0508 87.0069L94.4442 87.1463L94.5842 87.7506L129.114 110.711C129.114 110.711 129.347 110.711 129.487 110.525C129.627 110.339 129.581 110.06 129.347 109.921L95.0508 87.0534V87.0069Z" fill="#2D388B"/>
<path d="M95.7506 136.971C95.0507 136.971 94.3974 136.645 93.9775 136.088C93.2776 135.112 93.4642 133.764 94.4441 133.02L127.761 108.712C128.741 108.015 130.094 108.201 130.84 109.177C131.54 110.153 131.354 111.501 130.374 112.244L97.0572 136.552C96.6839 136.831 96.2173 136.971 95.7506 136.971Z" fill="#2D388B"/>
<path d="M95.704 138.737C94.4442 138.737 93.2776 138.132 92.531 137.11C91.9244 136.273 91.6444 135.251 91.8311 134.182C91.9711 133.159 92.531 132.23 93.4176 131.626L126.734 107.318C127.574 106.713 128.601 106.435 129.674 106.62C130.701 106.76 131.634 107.318 132.24 108.201C133.547 109.967 133.127 112.43 131.4 113.685L98.0838 137.993C97.3839 138.504 96.5906 138.737 95.7507 138.737H95.704ZM129.021 110.06C129.021 110.06 128.834 110.06 128.787 110.106L95.4707 134.414L95.3774 135.018L95.7507 135.204C95.7507 135.204 95.9373 135.204 96.0307 135.111L129.347 110.803C129.347 110.803 129.581 110.385 129.441 110.199C129.347 110.106 129.207 110.013 129.067 110.013L129.021 110.06Z" fill="#2D388B"/>
<path d="M94.864 137.389C93.6508 137.389 92.6709 136.413 92.6709 135.204V87.3319C92.6709 86.1235 93.6508 85.1475 94.864 85.1475C96.0772 85.1475 97.0571 86.1235 97.0571 87.3319V135.204C97.0571 136.413 96.0772 137.389 94.864 137.389Z" fill="#2D388B"/>
<path d="M94.8642 139.109C92.6711 139.109 90.8979 137.342 90.8979 135.158V87.2856C90.8979 85.1011 92.6711 83.335 94.8642 83.335C97.0573 83.335 98.8305 85.1011 98.8305 87.2856V135.158C98.8305 137.342 97.0573 139.109 94.8642 139.109ZM94.8642 86.8673C94.6309 86.8673 94.3976 87.0532 94.3976 87.3321V135.204C94.3976 135.669 95.2842 135.716 95.2842 135.204V87.3321C95.2842 87.0997 95.0975 86.8673 94.8176 86.8673H94.8642Z" fill="#2D388B"/>
<path d="M166.397 165.555C155.898 176.152 143.719 183.449 129.58 187.26C128.087 187.678 127.807 188.468 127.807 189.77C127.854 193.302 127.901 196.881 127.807 200.413C127.714 205.2 125.241 207.664 120.481 207.664C112.269 207.664 104.01 207.664 95.7972 207.664C91.0376 207.664 88.6112 205.2 88.5179 200.367C88.4712 196.834 88.4712 193.256 88.5179 189.723C88.5179 188.375 88.1913 187.632 86.7447 187.214C72.6062 183.356 60.4274 176.105 49.9751 165.508C46.4288 167.553 42.8825 169.598 39.3361 171.597C34.6233 174.246 31.4503 173.456 28.7439 168.855C24.6843 161.929 20.6713 155.004 16.7051 148.033C14.1387 143.571 15.0252 140.317 19.4115 137.714C22.3978 135.948 25.3842 134.182 28.4172 132.509C29.5838 131.858 30.0971 131.3 29.7238 129.767C26.1308 116.102 26.1775 102.391 29.6304 88.7266C29.8171 88.0295 29.2105 86.6816 28.6039 86.2633C25.5242 84.3112 22.3045 82.5915 19.1782 80.7324C15.2119 78.362 14.232 74.9691 16.4718 71.0185C20.6247 63.7215 24.8243 56.4709 29.0705 49.2668C31.3569 45.4091 34.7633 44.5261 38.6362 46.664C42.3692 48.7091 46.0555 50.8935 49.8351 53.078C52.0282 51.1259 54.0347 49.1739 56.2278 47.3612C65.0003 40.0177 74.9393 34.6727 85.9982 31.6517C87.9113 31.1404 88.6579 30.3503 88.5646 28.3052C88.3779 24.8659 88.4712 21.38 88.5646 17.9406C88.7045 13.5252 91.1776 11.0154 95.6105 10.9689C104.01 10.9225 112.456 10.9225 120.855 10.9689C125.194 10.9689 127.714 13.4323 127.854 17.7083C127.994 21.4265 127.947 25.1912 127.854 28.9094C127.854 30.2573 128.134 31.0474 129.627 31.4193C143.812 35.2769 155.944 42.5275 166.443 53.1245C169.896 51.1259 173.349 49.1274 176.802 47.1753C181.889 44.2937 184.922 45.1303 187.908 50.1964C191.781 56.8892 195.701 63.582 199.527 70.2749C202.28 75.0621 201.44 78.2226 196.727 80.9648C193.741 82.731 190.661 84.3577 187.768 86.2168C187.115 86.6351 186.555 87.983 186.741 88.7266C190.148 102.438 190.148 116.102 186.741 129.813C186.555 130.557 187.161 131.905 187.768 132.277C190.754 134.182 193.927 135.855 196.96 137.668C201.3 140.224 202.233 143.478 199.76 147.754C195.701 154.865 191.594 161.976 187.441 169.041C185.015 173.177 181.655 174.06 177.456 171.736C173.816 169.691 170.176 167.553 166.397 165.369V165.555ZM108.116 203.434C111.942 203.434 115.815 203.434 119.641 203.434C123.048 203.434 123.561 202.97 123.561 199.437C123.561 195.347 123.608 191.257 123.561 187.121C123.561 185.168 124.354 184.146 126.267 183.681C140.873 180.149 153.331 172.898 163.69 162.115C165.09 160.675 166.303 160.489 168.03 161.511C171.716 163.742 175.496 165.741 179.136 167.972C181.375 169.366 182.728 168.855 183.988 166.67C187.908 159.791 191.874 152.913 195.934 146.08C197.287 143.803 196.68 142.455 194.487 141.247C190.894 139.295 187.395 137.064 183.802 135.158C181.889 134.136 181.235 132.974 181.889 130.789C186.041 116.52 186.088 102.252 181.889 87.983C181.235 85.752 181.889 84.6366 183.802 83.5676C187.488 81.569 191.081 79.3381 194.721 77.3395C196.68 76.224 197.24 74.9691 196.027 72.9241C191.921 65.9524 187.861 58.9342 183.848 51.8696C182.589 49.6851 181.189 49.4992 179.136 50.7541C175.543 52.9386 171.81 54.8906 168.263 57.0751C166.35 58.2371 165.044 58.0047 163.504 56.4244C153.191 45.7345 140.779 38.5304 126.267 35.0445C124.308 34.5798 123.514 33.6037 123.561 31.6517C123.608 27.4686 123.561 23.2856 123.561 19.1026C123.561 15.9421 123.001 15.3844 119.921 15.3844C112.036 15.3844 104.196 15.3844 96.3104 15.3844C93.2774 15.3844 92.6708 15.9886 92.6708 19.1026C92.6708 23.2856 92.6242 27.4686 92.6708 31.6517C92.6708 33.6037 91.9242 34.6262 89.9644 35.091C75.4525 38.6234 63.0404 45.781 52.7281 56.4709C51.1883 58.0512 49.8818 58.33 47.9686 57.1216C44.329 54.8907 40.5027 52.8921 36.8631 50.6612C34.8566 49.4527 33.5501 49.871 32.3835 51.8696C28.3706 58.8878 24.311 65.9059 20.1581 72.9241C18.9448 74.9691 19.4581 76.224 21.4646 77.3395C25.1509 79.3381 28.6972 81.569 32.3835 83.5676C34.2966 84.5901 34.9499 85.752 34.2966 87.983C30.0971 102.252 30.0971 116.52 34.2966 130.789C34.9499 132.974 34.2966 134.182 32.4302 135.205C28.7439 137.203 25.1509 139.434 21.5113 141.433C19.5515 142.548 18.9448 143.803 20.1581 145.848C24.2643 152.82 28.3239 159.838 32.3835 166.903C33.5034 168.901 34.8099 169.366 36.8631 168.111C40.5494 165.88 44.329 163.882 47.9686 161.651C49.8818 160.489 51.1883 160.721 52.7281 162.301C63.0404 173.038 75.4525 180.149 89.9644 183.681C91.9242 184.146 92.7175 185.168 92.6708 187.121C92.6242 191.211 92.6708 195.301 92.6708 199.437C92.6708 202.923 93.1841 203.434 96.5904 203.434C100.417 203.434 104.29 203.434 108.116 203.434Z" fill="#2192FF"/>
<path d="M108.116 209.476C104.01 209.476 99.9035 209.476 95.7506 209.476C90.0578 209.476 86.8382 206.27 86.6982 200.506C86.6515 196.927 86.6515 193.349 86.6982 189.77C86.6982 189.305 86.6982 189.166 86.6515 189.119C86.6515 189.119 86.5115 189.026 86.1849 188.933C72.3263 185.122 60.0075 178.011 49.5552 167.739L47.3154 168.994C44.889 170.388 42.4626 171.783 40.0362 173.131C34.4834 176.291 30.2371 175.176 27.1108 169.784C23.0512 162.859 19.0383 155.934 15.072 148.962C12.039 143.664 13.1589 139.388 18.4317 136.274L19.0849 135.902C21.8846 134.275 24.6377 132.648 27.4841 131.068C27.8107 130.882 27.9507 130.789 28.044 130.696C28.044 130.696 28.044 130.51 27.9507 130.278C24.3577 116.567 24.3111 102.438 27.8574 88.3548C27.8574 88.3083 27.6241 87.8436 27.5308 87.7041C25.7109 86.5422 23.7511 85.4267 21.7913 84.3112C20.5781 83.6141 19.3649 82.9634 18.1984 82.2197C13.3455 79.3381 12.1323 74.9227 14.8853 70.1354C19.0383 62.8384 23.2378 55.5878 27.5308 48.3837C30.2838 43.7359 34.7167 42.5275 39.4762 45.1303C42.0893 46.5711 44.6557 48.0584 47.2688 49.5457L49.6019 50.8936L50.6751 49.9175C52.1683 48.5697 53.6148 47.2683 55.108 45.9669C64.2071 38.3445 74.4727 32.953 85.5783 29.932C86.8848 29.5602 86.9315 29.3742 86.8382 28.3517C86.6982 25.0053 86.6982 21.7518 86.8382 17.8477C86.9782 12.4562 90.2911 9.20279 95.6106 9.20279C104.01 9.20279 112.456 9.15631 120.855 9.20279C126.128 9.20279 129.394 12.3633 129.581 17.6153C129.721 21.38 129.674 25.1447 129.581 28.9095C129.581 29.3742 129.581 29.5137 129.627 29.5602C129.627 29.5602 129.767 29.6531 130.047 29.6996C143.999 33.4643 155.991 40.436 166.724 50.8936L175.916 45.5951C181.795 42.2486 185.995 43.3641 189.401 49.2668C193.274 55.9597 197.194 62.6525 201.067 69.3918C204.286 75.0156 203.213 79.1987 197.614 82.4521C196.587 83.0563 195.561 83.6141 194.534 84.2183C192.574 85.3338 190.568 86.4492 188.701 87.7041C188.655 87.7971 188.468 88.2154 188.468 88.4478C191.921 102.252 191.921 116.335 188.468 130.278C188.468 130.324 188.701 130.789 188.841 130.929C190.614 132.091 192.528 133.16 194.441 134.229C195.607 134.879 196.774 135.576 197.94 136.227C203.073 139.295 204.286 143.571 201.393 148.683C197.334 155.794 193.181 162.906 189.028 169.97C186.135 174.943 181.749 176.152 176.709 173.317C174.189 171.922 171.67 170.435 169.103 168.948L166.77 167.6C156.085 178.057 144.092 185.029 130.094 188.794C129.767 188.887 129.674 188.98 129.627 188.98C129.627 188.98 129.627 189.119 129.627 189.63C129.674 193.209 129.674 196.788 129.627 200.367C129.487 206.13 126.268 209.291 120.575 209.337C116.469 209.337 112.362 209.337 108.209 209.337L108.116 209.476ZM50.2085 163.37L51.1417 164.346C61.454 174.85 73.2595 181.776 87.1181 185.587C89.9179 186.377 90.1978 188.375 90.1978 189.816C90.1512 193.349 90.1512 196.881 90.1978 200.413C90.2912 204.271 91.9243 205.944 95.7506 205.991C103.963 205.991 112.176 205.991 120.435 205.991C124.214 205.991 125.941 204.271 126.034 200.46C126.128 196.927 126.081 193.395 126.034 189.863C126.034 188.422 126.314 186.377 129.114 185.633C142.879 181.915 154.685 174.943 165.184 164.393L166.117 163.417L170.783 166.113C173.35 167.6 175.823 169.041 178.342 170.435C181.702 172.341 183.988 171.69 185.948 168.343C190.101 161.279 194.207 154.214 198.267 147.103C200.227 143.664 199.574 141.433 196.074 139.341C194.954 138.644 193.787 137.993 192.621 137.343C190.661 136.227 188.701 135.112 186.788 133.903C185.528 133.113 184.642 130.975 185.015 129.534C188.375 116.149 188.375 102.624 185.015 89.2844C184.642 87.8436 185.528 85.7056 186.788 84.9155C188.748 83.6605 190.754 82.4986 192.808 81.3366C193.834 80.7789 194.814 80.1747 195.841 79.617C199.714 77.3395 200.273 75.2015 198.034 71.2974C194.161 64.6046 190.288 57.9117 186.415 51.2189C183.942 46.9894 181.935 46.3852 177.689 48.802L166.164 55.4484L165.23 54.4724C154.731 43.8754 142.926 36.9502 129.207 33.2319C126.408 32.4883 126.128 30.4432 126.128 29.0024C126.174 25.2842 126.221 21.5659 126.128 17.8942C126.034 14.5478 124.261 12.8745 120.901 12.8745C112.502 12.8281 104.103 12.8281 95.7039 12.8745C92.251 12.8745 90.4778 14.6407 90.3845 18.1266C90.2912 21.9378 90.2445 25.1447 90.3845 28.3982C90.5711 31.9305 88.4247 32.9995 86.5115 33.5108C75.8726 36.3924 66.0736 41.5515 57.3944 48.8485C55.9479 50.0569 54.5014 51.3583 53.1015 52.6597L50.1618 55.3554L45.589 52.7062C43.0225 51.2189 40.4561 49.7316 37.8897 48.3373C34.81 46.6641 32.4303 47.2683 30.6571 50.2893C26.4109 57.4934 22.2113 64.744 18.0584 71.9946C16.2852 75.1086 16.9385 77.479 20.1582 79.3846C21.3247 80.0817 22.4913 80.7324 23.7045 81.4296C25.7109 82.5916 27.7174 83.707 29.6772 84.9619C30.9371 85.7521 31.8237 87.89 31.4504 89.3309C28.044 102.856 28.0907 116.381 31.5437 129.534C32.2903 132.277 30.7971 133.485 29.3972 134.229C26.5975 135.762 23.8445 137.389 21.0914 139.016L20.4381 139.388C16.8452 141.479 16.2852 143.71 18.3383 147.335C22.3046 154.307 26.3175 161.232 30.3771 168.158C32.5702 171.876 34.67 172.434 38.5896 170.249C41.0161 168.901 43.4425 167.507 45.8223 166.113L50.3951 163.51L50.2085 163.37ZM111.429 205.154H96.6372C92.251 205.154 90.9911 203.853 90.9911 199.437V197.532C90.9911 194.046 90.9911 190.56 90.9911 187.074C90.9911 186.005 90.8511 185.68 89.6379 185.354C74.8927 181.776 62.0606 174.386 51.5617 163.463C50.5351 162.394 50.1618 162.348 48.9953 163.091C46.9888 164.346 44.9357 165.462 42.9292 166.624C41.2494 167.6 39.5229 168.529 37.8897 169.552C36.4899 170.388 35.23 170.667 34.0168 170.342C32.8036 170.017 31.8237 169.18 30.9837 167.693C26.9708 160.675 22.9112 153.656 18.805 146.685C17.965 145.29 17.7317 144.035 18.0584 142.874C18.385 141.665 19.2716 140.689 20.8114 139.852C22.5846 138.876 24.3111 137.854 26.0376 136.878C27.9507 135.762 29.8172 134.693 31.777 133.624C33.0369 132.927 33.1769 132.555 32.8036 131.208C28.5573 116.66 28.5573 101.926 32.8036 87.4253C33.1769 86.0774 33.0369 85.752 31.7303 85.0549C29.8172 84.0324 27.9507 82.9169 26.0842 81.8014C24.3111 80.7789 22.5846 79.7564 20.8114 78.7804C19.3182 77.9438 18.4317 76.9677 18.0584 75.7593C17.7317 74.5973 17.965 73.3424 18.805 71.9481C22.9112 64.9764 26.9708 57.9582 30.9837 50.94C31.8237 49.4527 32.8036 48.6161 34.0168 48.2908C35.1833 47.9654 36.4432 48.2908 37.8897 49.1274C39.5695 50.1499 41.296 51.1259 43.0225 52.102C45.029 53.2639 47.0355 54.3794 48.9953 55.5878C50.1152 56.285 50.5351 56.285 51.5617 55.216C62.1073 44.2937 74.8927 36.9037 89.6379 33.3249C90.8044 33.046 91.0377 32.7671 90.9911 31.6052C90.9444 27.4222 90.9911 23.1927 90.9911 19.0096C90.9911 14.9661 92.3909 13.5717 96.4039 13.5717C104.29 13.5717 112.129 13.5717 120.015 13.5717C124.028 13.5717 125.334 14.9196 125.381 19.0561C125.381 23.2391 125.428 27.4686 125.381 31.6517C125.381 32.7207 125.521 33.046 126.781 33.3713C141.433 36.9037 154.265 44.2472 164.857 55.2625C165.93 56.378 166.304 56.3315 167.423 55.6343C169.243 54.5188 171.11 53.4498 173.023 52.3809C174.796 51.3583 176.569 50.3823 178.342 49.3133C179.882 48.3837 181.235 48.0584 182.449 48.3837C183.662 48.7091 184.642 49.5457 185.482 51.033C189.495 58.0512 193.554 65.0693 197.66 72.041C198.5 73.4354 198.734 74.6903 198.407 75.8522C198.08 77.0607 197.194 78.0367 195.701 78.8733C194.067 79.7564 192.481 80.6859 190.894 81.662C188.841 82.8239 186.835 84.0324 184.782 85.1478C183.522 85.845 183.335 86.2168 183.755 87.5182C188.001 102.019 188.001 116.753 183.755 131.3C183.382 132.648 183.522 132.974 184.782 133.671C186.695 134.693 188.561 135.809 190.428 136.878C192.108 137.854 193.787 138.83 195.467 139.759C196.494 140.317 197.94 141.293 198.407 142.92C198.734 144.128 198.454 145.476 197.567 147.01C193.508 153.796 189.588 160.675 185.668 167.553C185.108 168.576 184.128 169.97 182.449 170.435C181.189 170.76 179.882 170.435 178.342 169.505C176.383 168.297 174.329 167.135 172.323 165.973C170.596 164.997 168.917 164.021 167.237 163.045C166.304 162.487 165.93 162.487 165.09 163.37C154.405 174.479 141.526 181.869 126.828 185.447C125.614 185.726 125.428 186.098 125.474 187.167C125.521 190.792 125.474 194.464 125.474 198.089V199.484C125.474 203.946 124.214 205.201 119.782 205.201H111.569L111.429 205.154ZM108.116 201.668H119.642C121.135 201.668 121.555 201.529 121.648 201.482C121.648 201.436 121.788 200.971 121.788 199.391V197.95C121.788 194.325 121.835 190.746 121.788 187.121C121.788 184.378 123.095 182.612 125.848 181.962C139.94 178.569 152.212 171.457 162.431 160.861C164.39 158.815 166.537 158.49 168.917 159.977C170.55 160.953 172.23 161.929 173.909 162.859C175.963 164.021 178.016 165.183 180.022 166.438C180.955 166.996 181.282 166.996 181.375 166.949C181.469 166.949 181.842 166.763 182.402 165.741C186.322 158.862 190.288 151.983 194.347 145.151C194.907 144.268 194.861 143.85 194.814 143.803C194.814 143.664 194.581 143.338 193.601 142.781C191.874 141.805 190.148 140.828 188.421 139.806C186.602 138.737 184.735 137.668 182.869 136.645C180.162 135.205 179.276 133.16 180.115 130.231C184.175 116.335 184.175 102.252 180.115 88.4013C179.276 85.4732 180.115 83.4746 182.869 81.9873C184.922 80.8719 186.881 79.7099 188.888 78.548C190.521 77.6184 192.108 76.6424 193.787 75.7593C194.674 75.248 194.814 74.9692 194.861 74.8762C194.861 74.7832 194.907 74.5044 194.487 73.7607C190.381 66.7425 186.322 59.7244 182.262 52.7062C181.795 51.8696 181.469 51.7302 181.375 51.7302C181.282 51.7302 180.909 51.6837 179.976 52.2414C178.202 53.3104 176.383 54.3794 174.563 55.4019C172.743 56.4244 170.876 57.4934 169.103 58.6089C166.537 60.1892 164.297 59.9103 162.151 57.6793C152.025 47.1753 139.8 40.1571 125.801 36.7642C123.048 36.1135 121.695 34.3939 121.741 31.6052C121.788 27.4222 121.741 23.2391 121.741 19.0561C121.741 17.6153 121.601 17.29 121.555 17.197C121.555 17.197 121.181 17.0576 119.875 17.0576C112.036 17.0576 104.15 17.0576 96.3105 17.0576C94.9573 17.0576 94.6307 17.197 94.5841 17.2435C94.5841 17.2435 94.4441 17.6153 94.3974 19.0561C94.3974 23.2391 94.3507 27.4222 94.3974 31.6052C94.3974 34.3474 93.0909 36.1135 90.3378 36.7642C76.2459 40.2036 64.0204 47.2218 53.9881 57.6793C51.8417 59.9103 49.6485 60.2356 47.0355 58.6089C45.1223 57.4005 43.1159 56.285 41.1561 55.1695C39.3829 54.1935 37.6564 53.171 35.9299 52.1485C35.3233 51.7766 34.95 51.6837 34.7634 51.7302C34.7167 51.7302 34.3901 51.8696 33.9234 52.7527C29.9105 59.8173 25.8043 66.8355 21.698 73.8072C21.3247 74.4114 21.278 74.7832 21.3247 74.9692C21.3247 75.1551 21.6513 75.4804 22.3513 75.8522C24.1711 76.8283 25.9442 77.8973 27.7174 78.9198C29.5839 79.9888 31.4037 81.0578 33.2702 82.0803C35.9766 83.5676 36.8632 85.6126 36.0232 88.4943C31.9636 102.391 31.9636 116.428 36.0232 130.324C36.8632 133.253 36.0232 135.298 33.3168 136.738C31.4037 137.761 29.5372 138.876 27.6707 139.945C25.8976 140.968 24.1711 141.99 22.3513 142.966C21.4647 143.478 21.3247 143.757 21.278 143.85C21.278 143.989 21.278 144.407 21.6513 144.965C25.7576 151.937 29.8172 158.955 33.8768 166.02C34.2501 166.717 34.5767 166.996 34.7634 167.042C34.9033 167.042 35.3233 167.042 35.9299 166.624C37.6097 165.601 39.3362 164.625 41.0627 163.649C43.0692 162.534 45.0757 161.372 47.0355 160.163C49.6019 158.583 51.8417 158.908 53.9881 161.093C64.0204 171.55 76.2926 178.569 90.3378 182.008C93.0442 182.659 94.4441 184.378 94.3974 187.167C94.3507 190.606 94.3974 194.092 94.3974 197.532V199.437C94.3974 201.017 94.5374 201.436 94.6307 201.575C94.6774 201.575 95.0973 201.715 96.5905 201.715H108.116V201.668Z" fill="#2192FF"/>
<path d="M244.975 181.544V190.467C244.975 190.467 244.975 190.607 244.975 190.653C245.069 193.256 245.115 195.859 244.789 198.462C243.855 206.735 237.416 212.358 229.064 212.126C221.691 211.94 214.272 211.336 206.946 210.639C201.673 210.127 196.447 209.198 191.221 208.454C186.695 207.804 183.102 210.081 182.915 214.171C182.775 217.099 183.288 220.074 183.522 223.141C185.108 223.048 186.275 222.955 187.721 222.862C187.581 220.771 187.488 218.912 187.301 217.006C186.881 212.87 187.674 212.126 191.827 212.87C204.286 215.054 216.792 216.356 229.437 216.449C239.236 216.541 247.775 209.337 248.942 199.623C249.408 195.859 249.222 192.001 249.315 188.19C249.408 181.915 249.315 181.497 245.022 181.544H244.975Z" fill="#2192FF"/>
<path d="M181.888 225L181.748 223.281C181.655 222.351 181.562 221.421 181.469 220.492C181.235 218.4 181.002 216.262 181.142 214.078C181.235 211.847 182.215 209.895 183.848 208.547C185.808 206.967 188.468 206.316 191.454 206.734C193.041 206.967 194.627 207.199 196.167 207.432C199.76 207.989 203.446 208.547 207.086 208.919C215.998 209.755 222.764 210.22 229.11 210.406C236.343 210.639 242.222 205.619 243.062 198.322C243.342 195.905 243.296 193.442 243.202 190.746V179.87H244.975C247.169 179.87 248.708 179.917 249.828 181.032C251.135 182.38 251.088 184.471 251.042 188.283C251.042 189.305 251.042 190.328 251.042 191.35C251.042 194.139 251.042 197.02 250.668 199.902C249.408 210.453 240.356 218.214 229.39 218.261C217.165 218.168 204.38 216.913 191.501 214.636C189.541 214.31 189.074 214.45 188.981 214.496C188.981 214.496 188.841 215.007 189.028 216.913C189.168 218.214 189.261 219.562 189.308 220.957L189.541 224.535L181.888 225.047V225ZM189.681 210.081C188.235 210.081 186.975 210.453 186.088 211.196C185.201 211.94 184.688 212.962 184.642 214.217C184.548 216.123 184.735 218.029 184.968 220.074C184.968 220.445 185.061 220.864 185.108 221.236H185.855V221.05C185.761 219.702 185.715 218.4 185.575 217.145C185.388 215.24 185.295 213.055 186.648 211.8C188.048 210.546 190.194 210.778 192.107 211.103C204.846 213.381 217.398 214.543 229.437 214.682C238.443 214.775 246.142 208.175 247.215 199.391C247.542 196.742 247.542 193.953 247.542 191.257C247.542 190.188 247.542 189.166 247.542 188.097C247.542 186.191 247.635 183.821 247.309 183.356C247.215 183.356 246.982 183.263 246.749 183.263V190.421C246.795 193.302 246.842 195.951 246.562 198.601C245.535 207.803 238.163 214.031 229.064 213.799C222.671 213.613 215.812 213.148 206.806 212.312C203.073 211.94 199.293 211.382 195.7 210.824C194.161 210.592 192.574 210.36 191.034 210.127C190.614 210.081 190.194 210.034 189.774 210.034L189.681 210.081Z" fill="#2192FF"/>
<path d="M263.92 146.964C259.581 138.272 255.101 129.581 250.902 120.796C249.922 118.751 249.455 116.335 249.315 114.057C248.802 105.691 249.315 97.232 248.055 89.0054C241.662 46.571 206.759 14.2223 165.65 11.2477C154.964 10.5041 144.512 11.6196 134.013 14.6871C134.386 16.0815 134.76 17.3364 135.086 18.6842C135.833 18.4983 136.3 18.4518 136.72 18.3124C147.872 15.2449 159.257 14.3153 170.643 16.035C205.826 21.38 234.01 47.5006 242.409 81.9408C245.022 92.6772 244.929 103.6 245.069 114.522C245.069 117.125 245.769 119.96 246.889 122.33C251.135 131.3 255.661 140.131 260.187 148.962C261.354 151.286 260.887 152.68 258.554 153.703C255.894 154.911 253.281 156.213 250.715 157.607C246.982 159.652 244.975 162.859 244.929 167.135C244.929 168.901 244.929 170.714 244.929 172.573V177.081C245.395 177.081 245.815 177.081 246.282 177.081C248.382 176.988 249.222 175.966 249.222 174.014C249.222 171.922 249.222 169.831 249.222 167.739C249.175 164.579 250.575 162.394 253.468 161.046C255.754 159.977 258.041 158.769 260.327 157.607C265.413 155.051 266.44 151.983 263.92 146.917V146.964Z" fill="#2192FF"/>
<path d="M243.202 178.987V167.274C243.296 162.394 245.582 158.583 249.922 156.213C252.488 154.772 255.148 153.471 257.854 152.216C258.834 151.751 259.021 151.425 259.068 151.333C259.068 151.24 259.161 150.821 258.648 149.845C254.495 141.712 249.735 132.462 245.349 123.167C244.089 120.518 243.389 117.497 243.342 114.615V111.966C243.202 102.205 243.109 92.1195 240.776 82.4056C232.517 48.3837 204.94 23.0532 170.456 17.8012C159.677 16.1745 148.479 16.9181 137.233 20.0322C136.906 20.1251 136.58 20.1716 136.16 20.2646L133.873 20.7293L131.914 13.4788L133.547 13.014C144.279 9.85349 154.871 8.69154 165.837 9.48166C208.066 12.5027 243.389 45.8275 249.828 88.6802C250.622 94.0251 250.715 99.5095 250.808 104.808C250.855 107.829 250.902 110.897 251.088 113.918C251.228 116.242 251.742 118.38 252.535 120.006C255.428 126.095 258.508 132.137 261.541 138.179L265.554 146.127C268.493 152.03 267.093 156.166 261.167 159.141L259.767 159.838C257.948 160.768 256.128 161.697 254.261 162.58C251.975 163.649 250.995 165.229 251.042 167.693C251.042 168.994 251.042 170.296 251.042 171.597V174.014C251.042 176.988 249.408 178.708 246.422 178.847L243.249 178.94L243.202 178.987ZM246.702 173.967V175.362C247.402 175.269 247.495 174.99 247.495 174.06V171.597C247.495 170.342 247.495 169.041 247.495 167.786C247.402 163.928 249.175 161.139 252.721 159.466C254.541 158.63 256.314 157.7 258.134 156.77L259.534 156.027C263.78 153.889 264.434 151.844 262.334 147.661L258.368 139.713C255.335 133.671 252.255 127.582 249.315 121.494C248.102 118.891 247.682 116.056 247.542 114.104C247.355 111.036 247.309 107.922 247.262 104.855C247.169 99.649 247.075 94.304 246.329 89.1914C240.123 47.919 206.153 15.8491 165.557 12.921C155.571 12.2239 145.912 13.1534 136.16 15.8491L136.346 16.5928C148.059 13.3858 159.677 12.5957 170.923 14.3154C206.806 19.7998 235.503 46.1528 244.089 81.569C246.515 91.6548 246.655 101.926 246.749 111.919V114.522C246.795 116.846 247.402 119.449 248.429 121.633C252.815 130.882 257.528 140.085 261.681 148.218C262.521 149.845 262.707 151.24 262.287 152.448C261.867 153.656 260.887 154.632 259.254 155.33C256.641 156.538 254.028 157.839 251.555 159.187C248.335 160.953 246.702 163.603 246.702 167.228V170.807V173.921V173.967Z" fill="#2192FF"/>
<path d="M95.8906 214.45H99.8569V222.909H95.8906V214.45Z" fill="#2192FF"/>
<path d="M101.583 224.628H94.1641V212.684H101.583V224.628ZM97.6637 221.143H98.0837V216.169H97.6637V221.143Z" fill="#2192FF"/>
<path d="M53.3811 109.316C53.3811 79.1984 77.9253 54.751 108.116 54.751C138.399 54.751 163.037 79.3843 162.897 109.549C162.757 139.713 138.213 164.067 108.022 164.021C77.832 163.974 53.3345 139.434 53.3345 109.363L53.3811 109.316ZM57.6274 108.991C57.2541 136.087 79.7452 159.234 106.856 159.652C135.413 160.117 158.277 138.04 158.697 109.688C159.117 82.5913 136.579 59.3988 109.469 59.027C80.9117 58.6087 58.0473 80.6392 57.6274 108.991Z" fill="#2192FF"/>
<path d="M108.163 165.74H108.069C76.9457 165.694 51.6082 140.364 51.6548 109.316C51.6548 78.2689 77.039 52.9849 108.163 52.9849C123.281 52.9849 137.513 58.8876 148.199 69.5775C158.884 80.2675 164.764 94.4897 164.67 109.549C164.53 140.549 139.193 165.74 108.163 165.74ZM108.163 56.5172C78.9988 56.5172 55.2012 80.221 55.1545 109.363C55.1545 138.504 78.8588 162.208 108.069 162.301H108.163C137.28 162.301 161.031 138.69 161.171 109.595C161.217 95.4658 155.758 82.1731 145.725 72.1338C135.693 62.0946 122.348 56.5637 108.163 56.5637V56.5172ZM107.696 161.465C107.416 161.465 107.136 161.465 106.809 161.465C78.8121 161.046 55.4811 137.017 55.8544 109.037C56.2744 79.8956 79.4187 57.3538 108.676 57.3538C108.956 57.3538 109.236 57.3538 109.516 57.3538C123.094 57.5397 135.926 63.1635 145.679 73.2028C155.431 83.242 160.657 96.2094 160.471 109.781C160.237 123.957 154.591 137.11 144.559 146.777C134.713 156.259 121.648 161.465 107.696 161.465ZM59.3541 109.084C58.9808 135.204 80.7253 157.56 106.856 157.979C120.201 158.165 132.707 153.331 142.086 144.268C151.465 135.204 156.738 122.981 156.924 109.688C157.111 97.046 152.211 84.9153 143.112 75.5732C134.013 66.2311 122.068 60.9791 109.422 60.7932C81.7985 60.2819 59.7274 81.5688 59.3541 109.037V109.084Z" fill="#2192FF"/>
<path d="M246.282 169.087L244.976 177.174V188.933L249.175 191.954L249.315 169.459C249.315 169.459 247.542 161.976 246.282 169.087Z" fill="#2192FF"/>
<path d="M250.855 195.394L243.249 189.863V177.221L244.509 168.808C244.789 167.274 245.302 164.346 247.449 164.3C248.289 164.3 249.922 164.718 250.948 169.087L250.855 195.394ZM246.749 188.097L247.402 188.561L247.495 172.387L246.702 177.453V188.05L246.749 188.097Z" fill="#2192FF"/>
</g>
<defs>
<clipPath id="clip0_176_3910">
<rect width="267" height="225" fill="white"/>
</clipPath>
</defs>
</svg>
