<svg width="254" height="200" viewBox="0 0 254 200" fill="none" xmlns="http://www.w3.org/2000/svg">
<g clip-path="url(#clip0_176_3855)">
<path d="M4.15626 117.038L3.78266 105.432L6.81814 103.157L22.5093 106.453V186.304C22.5093 186.304 23.9103 196.843 43.0105 196.843C43.0105 196.843 8.68613 200.371 6.91154 190.158C5.13695 179.944 2.66187 160.956 2.66187 160.956L4.06286 116.991L4.15626 117.038Z" fill="#B9F3FC"/>
<path d="M70.0496 38.951L29.5142 48.886C29.5142 48.886 22.7427 50.6037 22.7427 59.0995V93.6864L2.7085 89.6938L3.96939 49.9074C3.96939 49.9074 8.96626 38.951 25.2178 38.4867C41.4693 37.9761 70.0029 38.9974 70.0029 38.9974L70.0496 38.951Z" fill="#B9F3FC"/>
<path d="M247.695 89.5077C247.695 77.8085 247.976 66.3415 247.602 54.9209C247.369 47.2607 240.597 41.3183 232.845 41.0397C232.004 41.0397 231.21 41.0397 230.37 41.0397C161.394 41.0397 92.372 41.0397 23.3965 41.0397C12.2352 41.0397 6.11756 47.1214 6.11756 58.2635C6.11756 67.6414 6.11756 77.0193 6.11756 86.3972V89.5077C37.78 96.2393 69.2556 102.971 100.965 109.703C100.638 111.188 100.404 112.395 100.077 113.881C98.4897 113.602 97.0887 113.37 95.6877 113.092C65.6598 106.685 35.6318 100.325 5.60386 93.9181C1.77448 93.0824 1.72778 92.9896 1.72778 89.0434C1.72778 78.5049 1.72778 67.9199 1.72778 57.3814C1.72778 45.1716 10.1337 36.7222 22.3691 36.7222C92.0918 36.7222 161.815 36.7222 231.537 36.7222C243.586 36.7222 252.039 45.1716 252.085 57.1957C252.085 67.9199 251.992 78.6906 252.179 89.4148C252.225 92.3396 251.058 93.4074 248.396 93.9645C217.714 100.418 187.079 106.964 156.444 113.463C155.65 113.649 154.856 113.695 153.782 113.835C153.455 112.535 153.175 111.328 152.802 109.749C184.417 103.017 215.893 96.2858 247.649 89.5541L247.695 89.5077Z" fill="#2192FF"/>
<path d="M101.525 115.831L98.3964 115.274C97.3223 115.088 96.3416 114.902 95.3609 114.717C65.333 108.31 35.305 101.95 5.27707 95.543C0.653797 94.5681 0 93.7324 0 88.9506V79.2013C0 71.9125 0 64.5774 0 57.2886C0 44.1038 9.24655 34.9116 22.4159 34.9116C92.1386 34.9116 161.861 34.9116 231.584 34.9116C244.66 34.9116 253.86 44.0574 253.907 57.1493C253.907 60.8169 253.907 64.4381 253.907 68.1057C253.907 75.1623 253.907 82.2654 254 89.322C254.047 92.8968 252.459 94.8466 248.863 95.5894C225.793 100.464 202.724 105.385 179.654 110.26L156.911 115.088C156.351 115.181 155.79 115.274 155.137 115.367L152.568 115.738L150.84 108.403L246.061 88.115C246.061 85.0509 246.061 82.0333 246.061 79.0156C246.108 71.1233 246.154 62.9525 245.921 54.9673C245.734 48.5142 239.85 43.036 232.892 42.8039C232.285 42.8039 231.724 42.8039 231.117 42.8039H23.4433C13.3094 42.8039 7.93896 48.1428 7.93896 58.2635V88.0685L103.113 108.31L101.525 115.831ZM154.997 111.049L155.183 111.885C155.51 111.885 155.837 111.792 156.164 111.745L178.907 106.917C201.976 101.996 225.046 97.1215 248.116 92.2468C250.124 91.829 250.544 91.3647 250.498 89.4149C250.404 82.3118 250.404 75.2087 250.404 68.1521C250.404 64.4845 250.404 60.8633 250.404 57.1957C250.404 46.1465 242.652 38.4399 231.584 38.4399C161.861 38.4399 92.1386 38.4399 22.4159 38.4399C11.1145 38.4399 3.54918 46.0537 3.50248 57.335C3.50248 64.6238 3.50248 71.959 3.50248 79.2477V88.997C3.50248 90.0184 3.50248 91.2719 3.64258 91.5504C3.82938 91.6897 5.09027 91.9683 5.97757 92.154C36.0055 98.5606 66.0335 104.967 96.0614 111.328C96.9487 111.513 97.836 111.653 98.7233 111.838L98.9101 111.003L4.38978 90.854V58.2171C4.38978 46.1465 11.348 39.2756 23.3966 39.2756H231.024C231.678 39.2756 232.285 39.2756 232.938 39.2756C241.905 39.6006 249.097 46.4251 249.377 54.8281C249.61 62.8596 249.564 71.0769 249.517 79.0156C249.517 82.4975 249.517 85.9794 249.517 89.5077V90.9005L155.043 111.049H154.997Z" fill="#2192FF"/>
<path d="M1.77466 104.967H6.16444C6.16444 106.174 6.16444 107.242 6.16444 108.31C6.16444 132.776 6.16444 152.6 6.16444 177.066C6.16444 187.651 12.4222 193.918 23.023 193.918C92.3722 193.918 161.721 193.918 231.07 193.918C241.438 193.918 247.789 187.604 247.789 177.205C247.789 152.739 247.789 132.915 247.789 108.449V105.014H252.179V107.799C252.179 132.451 252.179 152.46 252.179 177.112C252.179 190.065 243.913 198.282 230.93 198.282C161.675 198.282 92.4189 198.282 23.1631 198.282C9.99382 198.282 1.77466 190.111 1.77466 176.973C1.77466 152.414 1.77466 132.497 1.77466 107.938V104.967Z" fill="#2192FF"/>
<path d="M230.93 200H23.1164C9.10645 200 0 190.947 0 176.973V103.203H7.89226V177.066C7.89226 186.676 13.4028 192.154 22.9763 192.154H231.07C240.457 192.154 246.014 186.583 246.014 177.205V103.25H253.907V177.112C253.907 191.04 244.894 200 230.93 200ZM3.50248 106.685V176.973C3.50248 189.229 10.8343 196.518 23.1164 196.518H230.93C242.932 196.518 250.404 189.09 250.404 177.112V106.731H249.517V177.205C249.517 188.579 242.418 195.636 231.07 195.636H22.9763C11.4881 195.636 4.38978 188.533 4.38978 177.066V106.685H3.50248Z" fill="#2192FF"/>
<path d="M146.731 121.866C146.731 127.53 146.731 133.148 146.731 138.811C146.684 148.05 140.099 154.503 130.759 154.596C127.911 154.596 125.062 154.642 122.26 154.596C113.947 154.364 107.316 147.818 107.269 139.554C107.176 127.716 107.176 115.877 107.269 104.085C107.363 95.8216 114.041 89.3221 122.4 89.1364C125.435 89.09 128.424 89.09 131.46 89.1364C140.099 89.2757 146.637 95.868 146.777 104.457C146.871 110.26 146.777 116.109 146.777 121.913L146.731 121.866ZM140.566 122.191C140.566 116.667 140.613 111.142 140.566 105.617C140.473 99.7213 136.363 95.3574 130.853 95.2181C128.191 95.1717 125.482 95.1252 122.82 95.2181C117.543 95.4038 113.387 99.7213 113.34 105.339C113.247 116.574 113.247 127.809 113.34 139.044C113.34 144.661 117.543 148.979 122.82 149.164C125.342 149.257 127.864 149.164 130.339 149.164C136.457 149.118 140.52 144.754 140.566 138.254C140.566 132.915 140.566 127.53 140.566 122.191Z" fill="#2D388B"/>
<path d="M67.6681 30.0371H63.6052C63.6052 24.5125 62.9981 18.8951 63.7453 13.5097C64.726 6.36026 71.2173 1.76416 79.0628 1.76416C103.113 1.76416 127.164 1.76416 151.261 1.76416C156.304 1.76416 161.348 1.76416 166.345 1.76416C175.451 1.85701 181.849 8.21727 181.896 17.2702C181.896 21.4485 181.896 25.6267 181.896 29.9443H177.506C177.506 25.766 177.506 21.5877 177.506 17.4095C177.506 10.5385 173.163 6.08171 166.251 6.08171C137.157 6.08171 108.063 6.08171 78.9694 6.08171C72.0579 6.08171 67.7148 10.5385 67.7148 17.4095C67.7148 21.4949 67.7148 25.5803 67.7148 29.9907L67.6681 30.0371Z" fill="#2192FF"/>
<path d="M69.3959 31.7549H61.8305V29.9907C61.8305 28.3194 61.7838 26.6017 61.7371 24.9304C61.597 21.0771 61.4569 17.1309 62.0173 13.2312C63.0914 5.47818 70.0964 0 79.0627 0C96.2483 0 113.434 0 130.619 0H151.261H155.977C159.48 0 162.936 0 166.391 0C176.525 0.0928505 183.624 7.19591 183.67 17.2238V25.5803V31.662H175.778V17.4559C175.778 11.5599 172.089 7.89229 166.251 7.89229C137.157 7.89229 108.063 7.89229 78.9693 7.89229C73.1319 7.89229 69.4426 11.5599 69.4426 17.4559V31.7549H69.3959ZM65.2863 28.273H65.8934V17.4559C65.8934 9.51718 71.0304 4.4104 78.9226 4.4104C108.017 4.4104 137.111 4.4104 166.204 4.4104C174.097 4.4104 179.187 9.5636 179.234 17.4559V28.2266H180.121V25.6267V17.2702C180.121 9.09935 174.564 3.57474 166.298 3.48189C162.842 3.48189 159.386 3.48189 155.931 3.48189H151.214H130.573C113.387 3.48189 96.2016 3.48189 79.016 3.48189C71.7309 3.48189 66.267 7.61374 65.4264 13.6954C64.9127 17.2702 65.0528 20.9378 65.1929 24.7911C65.1929 25.9517 65.2863 27.1123 65.2863 28.2266V28.273Z" fill="#2192FF"/>
<path d="M164.103 30.0373H159.947V23.7235H85.367V29.9444H80.8371C80.8371 27.1125 80.6503 24.327 80.9305 21.5415C81.0239 20.7058 81.631 20.3808 82.565 19.7309C82.9386 19.4523 84.433 19.2202 84.9467 19.2202C110.024 19.2202 135.056 19.2202 160.133 19.2202C163.916 19.2202 164.243 19.5452 164.243 23.2128C164.243 25.2091 164.243 27.2054 164.243 29.2016C164.243 29.3873 164.15 29.5266 164.056 30.0373H164.103Z" fill="#2192FF"/>
<path d="M164.103 31.8015H158.219V25.4876H87.1416V31.7086H79.1093V29.9444C79.1093 29.1552 79.1093 28.4124 79.1093 27.6232C79.1093 25.5805 79.0159 23.4449 79.2494 21.3558C79.4362 19.8237 80.4636 19.0809 81.3042 18.5238C82.5184 17.6882 84.5731 17.4561 84.9934 17.4561H160.18C164.943 17.4561 166.064 18.5238 166.064 23.2128C166.064 25.2091 166.064 27.2054 166.064 29.2481L165.924 30.0837L165.597 31.3836L164.15 31.8015H164.103ZM161.721 28.3196H162.562C162.562 26.6018 162.562 24.9305 162.562 23.2592C162.562 22.795 162.562 21.3558 162.375 21.0772C162.141 21.0308 160.647 21.0308 160.18 21.0308H84.9934C84.7132 21.0308 83.7325 21.2165 83.4524 21.3094C83.0321 21.6343 82.7052 21.82 82.6585 21.9129C82.5184 23.677 82.5184 25.5805 82.5651 27.6232C82.5651 27.8553 82.5651 28.041 82.5651 28.2731H83.5924V22.0522H161.674V28.366L161.721 28.3196Z" fill="#2192FF"/>
</g>
<defs>
<clipPath id="clip0_176_3855">
<rect width="254" height="200" fill="white"/>
</clipPath>
</defs>
</svg>
