<svg width="302" height="283" viewBox="0 0 302 283" fill="none" xmlns="http://www.w3.org/2000/svg">
<g clip-path="url(#clip0_176_4256)">
<path d="M123.788 30.626C123.788 30.626 88.1106 58.816 85.483 105.857C82.9137 152.841 106.971 175.52 131.087 193.444C131.087 193.444 76.8994 174.186 72.5785 143.038C68.2575 111.832 66.9729 90.8923 66.9729 90.8923L76.0236 62.2382C76.0236 62.2382 103.993 25.0576 123.788 30.626Z" fill="#B9F3FC"/>
<path d="M190.234 279.578C190.293 269.949 190.351 256.725 190.351 250.924C190.351 241.295 193.446 237.351 193.446 237.351L232.334 195.414C221.941 186.366 213.532 198.662 213.532 198.662L178.848 233.291L174.994 250.518L174.877 279.578H190.234Z" fill="#B9F3FC"/>
<path d="M72.9868 272.328L73.454 280.739H84.8987C84.9571 277.49 85.0155 274.184 85.0155 271.98C85.0155 266.005 80.8113 261.713 80.8113 261.713C80.8113 261.713 42.273 234.625 29.7773 228.651C17.2815 222.676 19.442 213.628 19.442 213.628L19.8507 172.445C5.60324 173.315 8.63959 193.442 8.63959 193.442L9.9242 225.171C9.9242 225.171 45.3093 251.736 56.1117 257.769C66.9141 263.801 72.9868 272.328 72.9868 272.328Z" fill="#B9F3FC"/>
<path d="M74.3343 279.87C72.641 279.87 71.1812 279.87 69.4878 279.87C69.3711 279.348 69.1959 278.826 69.1959 278.304C69.1959 272.678 66.5099 268.675 61.897 265.601C45.0219 254.522 28.2636 243.269 11.3301 232.249C5.72451 228.594 3.0969 223.896 3.21369 217.226C3.44725 205.741 3.27208 194.256 3.27208 182.771C3.27208 174.187 9.05282 168.038 16.994 168.038C24.7601 168.038 30.6576 174.361 30.716 182.887C30.7744 191.646 30.7744 200.404 30.6576 209.163C30.5992 211.599 31.4167 213.107 33.5772 214.383C45.8394 221.46 58.0431 228.594 70.2469 235.787C72.641 237.179 75.035 237.933 77.721 236.657C82.1004 234.627 82.8011 229.406 79.064 225.462C75.5022 221.634 71.6483 218.038 67.9697 214.325C61.605 207.945 61.2547 199.244 67.1522 193.386C72.9329 187.585 81.9252 187.876 88.3482 194.14C98.6835 204.291 108.96 214.499 119.179 224.766C126.186 231.785 129.631 240.369 129.689 250.23C129.748 259.975 129.689 269.719 129.689 279.696C127.821 279.696 126.186 279.696 124.201 279.696C124.201 273.954 124.201 268.327 124.201 262.643C124.201 258.641 124.142 254.696 124.201 250.694C124.259 241.819 121.106 234.279 114.8 228.014C104.931 218.212 95.0633 208.409 85.1951 198.606C84.3192 197.736 83.385 196.866 82.3339 196.17C78.4217 193.676 73.692 194.256 70.7725 197.446C67.7361 200.752 67.6193 205.741 70.8892 209.221C74.6847 213.339 78.7721 217.168 82.6843 221.112C85.7206 224.186 87.414 227.84 86.8885 232.191C85.8374 240.427 76.9619 245.416 69.663 241.355C55.9995 233.757 42.6278 225.694 29.1394 217.748C26.3367 216.124 25.2856 213.397 25.2856 210.207C25.344 200.868 25.4024 191.588 25.2272 182.249C25.1104 175.695 19.3297 171.634 13.7825 174.129C10.571 175.579 8.81925 178.131 8.81925 181.669C8.76086 194.314 8.76086 206.901 8.81925 219.546C8.81925 222.91 10.6878 225.172 13.4322 227.028C30.7744 238.455 48.1166 249.882 65.4005 261.425C72.2322 266.065 75.2102 272.271 74.3343 279.87Z" fill="#2192FF"/>
<path d="M74.3283 282.074H69.4818C68.4308 282.074 67.5549 281.378 67.3213 280.334C67.0878 279.522 66.971 278.942 66.971 278.304C66.971 273.721 64.9273 270.241 60.6647 267.399C54.0081 263.048 47.4099 258.64 40.8117 254.29C30.5932 247.503 20.3747 240.775 10.0978 234.104C3.73318 229.986 0.872 224.592 0.988782 217.225C1.16396 209.685 1.10557 202.086 1.10557 194.488C1.10557 190.601 1.04717 186.715 1.10557 182.771C1.10557 172.968 7.82057 165.892 16.988 165.892C25.9803 165.892 32.8121 173.2 32.8705 182.887C32.9288 191.645 32.9288 200.404 32.8121 209.163C32.8121 210.903 33.2208 211.657 34.6222 212.469C46.8844 219.545 59.0882 226.68 71.292 233.872C73.5692 235.207 75.0874 235.439 76.664 234.684C78.007 234.046 78.8244 233.002 79.1164 231.726C79.4084 230.16 78.766 228.42 77.3647 226.912C75.029 224.476 72.635 222.098 70.2409 219.719C68.8979 218.443 67.6133 217.167 66.3287 215.833C59.1466 208.641 58.7962 198.548 65.5112 191.819C72.1678 185.149 82.5615 185.497 89.802 192.573C100.137 202.724 110.414 212.933 120.633 223.2C127.99 230.566 131.727 239.673 131.785 250.23C131.785 256.958 131.785 263.745 131.785 270.531V279.696C131.785 280.914 130.793 281.9 129.567 281.9H124.078C122.852 281.9 121.859 280.914 121.859 279.696V258.93C121.859 256.204 121.859 253.42 121.859 250.694C121.917 242.399 119.056 235.497 113.1 229.58L83.4957 200.172C82.7367 199.418 81.8608 198.606 80.9849 198.026C77.9486 196.112 74.4451 196.518 72.2262 198.954C69.8906 201.506 69.949 205.218 72.343 207.829C74.9122 210.555 77.5982 213.223 80.2258 215.833C81.5104 217.109 82.795 218.385 84.0797 219.661C87.8751 223.49 89.5101 227.84 88.8678 232.538C88.2254 237.295 85.3059 241.471 81.0433 243.617C76.9559 245.647 72.343 245.589 68.3724 243.385C57.4532 237.353 46.4756 230.856 35.9068 224.534L27.7904 219.719C25.5715 218.385 22.8855 215.659 22.8855 210.323V205.682C22.9439 197.91 22.9439 190.195 22.8271 182.423C22.7688 179.871 21.6593 177.666 19.7908 176.506C18.2142 175.52 16.2873 175.404 14.4772 176.216C12.0247 177.318 10.7985 179.117 10.7985 181.785C10.7401 194.372 10.7401 207.017 10.7985 219.603C10.7985 221.866 11.908 223.548 14.4772 225.288C31.8194 236.715 49.1616 248.141 66.4455 259.684C74.0364 264.731 77.3647 271.633 76.372 280.16C76.372 281.262 75.4377 282.074 74.3283 282.074ZM71.3504 277.724H72.2846C72.4014 271.749 69.7154 266.993 64.1098 263.281C46.826 251.738 29.4838 240.311 12.1999 228.884C8.40448 226.39 6.59435 223.374 6.59435 219.603C6.59435 206.959 6.53596 194.372 6.59435 181.727C6.59435 177.434 8.81322 174.07 12.8422 172.214C15.9954 170.822 19.4404 170.996 22.3016 172.794C25.3964 174.766 27.2649 178.304 27.3233 182.307C27.4401 190.079 27.4401 197.852 27.3817 205.624V210.265C27.3817 212.991 28.2575 214.789 30.1261 215.949L38.2425 220.764C48.8113 227.028 59.6721 233.524 70.5913 239.557C73.2773 241.007 76.4304 241.123 79.1748 239.731C82.1527 238.223 84.1964 235.381 84.6052 232.016C85.0139 228.652 83.8461 225.578 81.0433 222.736C79.7587 221.46 78.4741 220.241 77.2479 218.965C74.5035 216.297 71.8175 213.629 69.1899 210.787C65.2193 206.552 65.1609 200.346 69.0731 196.054C72.7517 191.993 78.6493 191.355 83.4374 194.372C84.6636 195.184 85.773 196.17 86.7073 197.098L116.312 226.506C123.027 233.176 126.413 241.355 126.355 250.752C126.355 253.478 126.355 256.204 126.355 258.93V277.55H127.464V270.531C127.464 263.745 127.464 256.958 127.464 250.23C127.406 240.833 124.136 232.828 117.596 226.274C107.378 216.007 97.1009 205.798 86.7657 195.648C81.2769 190.253 73.686 189.905 68.6643 194.894C63.6427 199.882 63.993 207.249 69.4818 212.759C70.7664 214.035 72.051 215.311 73.394 216.587C75.8465 219.023 78.2989 221.402 80.693 223.896C83.087 226.39 84.0797 229.522 83.5541 232.48C83.0286 235.091 81.2769 237.295 78.7077 238.513C74.7954 240.369 71.4087 238.861 69.1899 237.527C56.9861 230.334 44.8407 223.2 32.5785 216.123C29.6589 214.615 28.3743 212.469 28.4327 209.163C28.5495 200.404 28.4911 191.703 28.4911 182.945C28.4327 175.578 23.5862 170.3 16.988 170.3C10.2146 170.3 5.48492 175.462 5.42652 182.887C5.42652 186.773 5.42652 190.659 5.42652 194.546C5.48492 202.144 5.48492 209.743 5.30974 217.341C5.19296 223.2 7.35344 227.26 12.4335 230.508C22.7104 237.179 32.9288 243.965 43.1473 250.752C49.7456 255.102 56.4022 259.51 63.0004 263.861C68.4308 267.341 71.1752 271.923 71.3504 277.724Z" fill="#2192FF"/>
<path d="M232.629 279.813C230.819 279.813 229.301 279.813 227.491 279.813C227.024 271.692 230.235 265.718 236.892 261.309C253.767 250.23 270.525 238.978 287.459 227.957C291.605 225.231 293.532 221.982 293.415 216.994C293.123 205.741 293.356 194.488 293.298 183.236C293.298 177.377 290.028 173.549 285.065 173.549C280.218 173.549 276.89 177.493 276.832 183.352C276.773 192.226 276.773 201.101 276.832 209.976C276.89 213.92 275.314 216.704 271.927 218.676C259.198 226.101 246.527 233.583 233.797 240.95C228.075 244.256 221.594 243.096 217.74 238.34C213.944 233.641 214.236 226.913 218.674 222.156C222.645 217.922 226.907 213.978 230.936 209.802C233.389 207.249 234.206 204.117 233.038 200.695C231.929 197.505 229.652 195.127 226.382 195.127C223.637 195.127 220.134 195.881 218.265 197.679C207.054 208.351 196.077 219.314 185.274 230.451C180.252 235.613 178.034 242.226 177.917 249.418C177.8 258.409 177.858 267.4 177.858 276.332C177.858 277.434 177.858 278.536 177.858 279.871C175.99 279.871 174.472 279.871 172.545 279.871C172.486 279 172.37 278.014 172.37 277.028C172.37 268.27 172.37 259.511 172.37 250.752C172.37 240.486 175.931 231.669 183.289 224.419C193.391 214.384 203.492 204.291 213.652 194.314C220.075 187.992 229.009 187.702 234.848 193.444C240.804 199.361 240.454 208.061 233.914 214.616C230.469 218.096 226.907 221.518 223.462 224.999C220.192 228.305 219.667 231.901 221.885 234.743C224.221 237.76 227.783 238.166 231.987 235.671C244.016 228.653 255.986 221.576 268.073 214.616C270.409 213.282 271.401 211.716 271.343 208.931C271.168 200.289 271.226 191.646 271.285 183.004C271.343 174.477 277.182 168.155 284.948 168.097C293.065 168.039 298.728 174.245 298.728 183.062C298.728 194.778 298.67 206.495 298.787 218.212C298.845 224.245 296.334 228.595 291.371 231.843C274.846 242.69 258.438 253.595 241.972 264.499C234.673 269.372 233.564 271.112 232.629 279.813Z" fill="#2192FF"/>
<path d="M232.627 281.957H227.489C226.321 281.957 225.387 281.029 225.328 279.927C224.861 271.227 228.365 264.324 235.722 259.51C241.853 255.45 247.984 251.389 254.115 247.329C264.801 240.252 275.545 233.118 286.289 226.157C289.968 223.779 291.311 221.227 291.252 217.051C291.077 209.336 291.077 201.622 291.135 193.907C291.135 190.369 291.194 186.773 291.135 183.234C291.135 178.594 288.8 175.752 285.063 175.694C281.442 175.694 279.048 178.71 279.048 183.292C278.99 192.167 278.99 200.984 279.048 209.858C279.107 214.557 277.121 218.095 273.092 220.473C267.779 223.547 262.524 226.68 257.21 229.754C249.794 234.104 242.379 238.454 234.963 242.747C228.423 246.517 220.657 245.241 216.103 239.614C211.548 233.988 211.957 226.157 217.154 220.589C219.431 218.153 221.825 215.833 224.161 213.455C225.912 211.714 227.722 209.974 229.474 208.176C231.459 206.146 231.985 203.884 231.051 201.274C230.642 200.056 229.357 197.213 226.496 197.213C223.81 197.213 221.124 198.025 219.898 199.186C209.329 209.22 198.585 219.951 186.965 231.9C182.586 236.424 180.309 242.283 180.25 249.359C180.192 255.624 180.192 261.946 180.192 268.21V279.753C180.192 280.971 179.199 281.957 177.973 281.957H172.659C171.492 281.957 170.557 281.087 170.499 279.927L170.441 279.057C170.382 278.361 170.324 277.665 170.324 276.969V250.693C170.324 239.788 174.178 230.45 181.885 222.793L193.272 211.482C199.578 205.218 205.884 198.896 212.249 192.631C219.431 185.555 229.883 185.207 236.481 191.761C243.371 198.606 242.963 208.582 235.547 216.007L231.226 220.299C229.182 222.329 227.139 224.301 225.153 226.389C223.46 228.13 221.766 230.798 223.752 233.35C224.336 234.162 226.204 236.54 230.992 233.756L242.904 226.796C250.962 222.097 258.962 217.399 267.078 212.759C268.83 211.772 269.297 210.902 269.297 208.988C269.122 201.506 269.18 194.023 269.239 186.483V183.002C269.297 173.316 276.07 165.949 285.063 165.949C285.121 165.949 285.121 165.949 285.179 165.949C289.442 165.949 293.238 167.457 296.157 170.3C299.31 173.432 301.12 178.014 301.12 183.118V195.009C301.12 202.724 301.12 210.496 301.179 218.211C301.237 224.881 298.493 229.928 292.77 233.698C281.968 240.775 271.166 247.909 260.422 255.044L243.371 266.354C236.54 270.879 235.839 272.039 234.963 280.101C234.729 281.145 233.737 281.957 232.627 281.957ZM229.649 277.607H230.7C231.693 269.893 233.503 267.514 240.802 262.642L257.852 251.389C268.655 244.255 279.399 237.12 290.201 230.044C294.697 227.086 296.741 223.431 296.683 218.211C296.624 210.438 296.624 202.724 296.624 194.951V183.06C296.624 179.116 295.34 175.636 293.004 173.316C290.96 171.286 288.216 170.242 285.121 170.242H285.063C278.464 170.3 273.618 175.636 273.618 183.002V186.483C273.56 193.965 273.56 201.39 273.676 208.872C273.735 212.352 272.392 214.673 269.297 216.471C261.239 221.111 253.181 225.809 245.181 230.508L233.27 237.468C228.131 240.426 223.343 239.904 220.307 235.96C217.387 232.132 218.088 227.434 222.058 223.373C224.102 221.285 226.146 219.255 228.19 217.283L232.511 212.991C238.233 207.248 238.583 199.94 233.445 194.835C228.481 189.905 220.891 190.253 215.343 195.705C208.979 201.97 202.673 208.234 196.366 214.499L184.98 225.809C178.031 232.654 174.703 240.775 174.703 250.577V276.853C174.703 277.085 174.703 277.317 174.703 277.549H175.813V268.21C175.813 261.888 175.813 255.566 175.871 249.243C175.988 241.007 178.674 234.104 183.812 228.768C195.49 216.761 206.293 206.03 216.862 195.937C219.314 193.617 223.401 192.805 226.438 192.747H226.496C230.467 192.747 233.678 195.357 235.196 199.766C236.598 203.942 235.722 207.886 232.627 211.076C230.876 212.875 229.065 214.673 227.255 216.413C224.92 218.733 222.584 220.995 220.365 223.431C216.686 227.376 216.336 232.886 219.489 236.772C222.701 240.717 228.014 241.587 232.744 238.86C240.16 234.568 247.575 230.218 254.991 225.867C260.305 222.735 265.56 219.661 270.874 216.587C273.56 215.021 274.727 212.933 274.669 209.8C274.552 200.926 274.611 192.051 274.669 183.176C274.669 176.158 278.99 171.228 285.063 171.228C291.311 171.228 295.456 176.042 295.515 183.06C295.515 186.599 295.515 190.195 295.515 193.733C295.515 201.39 295.456 209.104 295.632 216.761C295.748 222.445 293.646 226.39 288.683 229.58C277.939 236.54 267.253 243.675 256.568 250.751C250.437 254.812 244.306 258.872 238.116 262.932C232.569 266.76 229.825 271.401 229.649 277.607Z" fill="#2192FF"/>
<path d="M155.147 107.539C158.359 108.467 161.512 109.163 164.49 110.323C169.687 112.353 174.008 115.544 176.81 120.474C181.073 127.957 179.205 136.831 172.198 142.806C167.993 146.402 164.315 147.91 155.03 149.94C155.03 153.362 155.089 151.796 155.03 155.276C155.03 156.321 154.855 157.423 154.447 158.351C153.629 159.975 151.994 160.555 150.242 160.207C148.374 159.801 147.148 158.583 147.089 156.611C146.972 153.594 147.031 155.566 147.031 152.55C147.031 151.68 147.031 150.81 147.031 150.462C142.476 148.78 138.097 147.62 134.243 145.59C127.82 142.168 123.499 137.005 123.149 129.349C123.032 126.796 124.433 125.056 126.711 124.882C129.163 124.65 130.973 126.158 131.148 128.769C131.382 132.655 133.426 135.323 136.404 137.527C139.44 139.731 142.885 141.007 146.797 141.529C146.797 132.887 146.797 124.302 146.797 115.95C143.235 114.848 139.615 114.036 136.228 112.527C129.981 109.743 125.134 105.393 123.382 98.4904C121.514 91.0659 124.959 83.6414 132.258 78.769C136.637 75.8108 141.542 74.3607 146.972 73.5487C146.972 69.9524 146.972 71.4605 146.972 67.9803C146.972 64.848 148.374 63.1659 150.943 63.1079C153.512 63.1079 154.972 64.79 154.972 67.8642C154.972 71.4025 154.972 69.8364 154.972 73.3746C157.658 74.0707 160.227 74.5927 162.738 75.4048C168.285 77.2609 173.132 80.2771 176.051 85.3815C177.57 88.0497 178.212 91.2979 178.796 94.3721C179.205 96.5763 177.511 98.2004 175.409 98.4324C173.19 98.7224 171.38 97.4463 170.855 95.1842C168.986 87.0636 163.614 82.5393 155.089 81.9592C155.147 90.5439 155.147 99.0125 155.147 107.539ZM146.914 81.8432C141.6 82.7133 137.104 84.4534 133.659 88.2817C131.09 91.1239 130.331 94.4301 131.849 98.0844C133.834 102.899 141.542 107.423 146.914 107.017C146.914 98.7224 146.914 90.3698 146.914 81.8432ZM155.147 141.587C160.461 140.775 165.015 138.977 168.461 135.033C171.497 131.553 171.789 127.318 169.278 123.722C165.891 118.908 160.87 116.994 155.089 116.066C155.147 124.592 155.147 132.945 155.147 141.587Z" fill="#2D388B"/>
<path d="M145.214 200.637C141.769 200.173 138.324 199.767 134.937 199.187C117.595 196.229 102.413 188.746 89.4504 176.971C74.6774 163.572 65.2764 147.099 61.1306 127.61C52.8974 88.6891 72.5169 47.3902 108.136 29.0609C111.756 27.2048 115.493 25.6387 119.23 24.1306C123.025 22.5644 126.295 23.8405 127.58 27.1468C128.806 30.395 127.113 33.4692 123.317 34.9193C100.778 43.5039 85.0127 59.049 76.1956 81.3226C64.167 111.891 73.276 147.853 98.3259 169.315C114.559 183.236 133.477 189.906 154.907 188.978C190.701 187.412 221.298 161.832 229.181 127.03C238.874 84.4548 212.014 41.8798 169.271 32.0191C168.571 31.8451 167.87 31.7291 167.169 31.6131C166.994 31.7871 166.819 31.9611 166.644 32.1931C167.636 32.9472 168.687 33.5852 169.563 34.4553C172.074 37.0655 172.133 40.6037 169.797 42.9239C167.461 45.2441 163.899 45.186 161.33 42.6339C156.6 37.9935 151.929 33.3532 147.258 28.6549C144.513 25.8707 144.513 22.6224 147.258 19.8382C151.871 15.1979 156.542 10.5576 161.213 5.97526C163.899 3.36508 167.461 3.19107 169.797 5.62724C172.191 8.00541 172.016 11.4857 169.388 14.1538C167.753 15.836 166.06 17.4601 164.366 19.2002C168.746 20.2443 172.95 20.9983 176.979 22.2744C211.138 33.2952 232.918 56.0908 240.684 90.8933C251.72 140.487 218.846 189.268 168.687 199.013C165.301 199.651 161.797 199.941 158.352 200.347C157.827 200.405 157.36 200.579 156.892 200.695C152.922 200.637 149.068 200.637 145.214 200.637Z" fill="#2192FF"/>
</g>
<defs>
<clipPath id="clip0_176_4256">
<rect width="302" height="282.886" fill="white"/>
</clipPath>
</defs>
</svg>
