<svg width="254" height="224" viewBox="0 0 254 224" fill="none" xmlns="http://www.w3.org/2000/svg">
<g clip-path="url(#clip0_176_3836)">
<path d="M165.364 222.003C165.364 214.295 165.457 203.708 165.457 199.065C165.457 191.356 167.932 188.199 167.932 188.199L199.034 154.627C190.722 147.383 183.997 157.227 183.997 157.227L156.257 184.949L153.175 198.74L153.082 222.003H165.364Z" fill="#B9F3FC"/>
<path d="M57.6275 216.245L58.0011 222.978H67.1543C67.201 220.378 67.2477 217.731 67.2477 215.967C67.2477 211.184 63.8853 207.748 63.8853 207.748C63.8853 207.748 33.0635 186.063 23.0697 181.28C13.076 176.497 14.8038 169.254 14.8038 169.254L15.1307 136.285C3.736 136.982 6.16439 153.094 6.16439 153.094L7.19179 178.494C7.19179 178.494 35.4918 199.761 44.1313 204.59C52.7708 209.373 57.5808 216.245 57.5808 216.245H57.6275Z" fill="#B9F3FC"/>
<path d="M96.902 10.2619C96.902 10.2619 43.8511 8.72952 35.632 51.2635C29.0473 85.2071 52.2104 99.1839 81.2109 136.703L32.1295 87.3896C32.1295 87.3896 7.00501 63.2436 36.0523 21.4061C36.0523 21.4061 60.5696 -3.99353 96.9487 10.2619H96.902Z" fill="#B9F3FC"/>
<path d="M126.977 34.3154C133.188 28.0468 138.698 22.0567 144.583 16.4846C171.575 -9.10083 216.454 0.418239 230.604 34.7333C238.869 54.8395 234.246 77.1745 218.322 93.0551C190.629 120.637 162.889 148.126 135.196 175.616C133.888 176.916 132.628 178.262 131.227 179.423C128.565 181.652 125.436 181.559 122.727 179.423C122.213 179.005 121.793 178.587 121.326 178.123C92.5591 149.566 63.7454 121.101 35.1184 92.4514C15.9715 73.274 14.1502 43.7881 30.4484 22.7068C49.642 -2.18209 86.3947 -5.1539 109.278 16.3917C115.255 22.0103 120.812 28.0468 126.977 34.3619V34.3154ZM74.4863 6.31542C60.6165 6.31542 48.6146 10.9124 39.8818 18.8992C19.007 37.9837 18.2131 69.3735 38.3407 89.4796C66.7808 117.944 95.4078 146.223 123.988 174.548C126.93 177.427 127.164 177.427 130.106 174.501C146.404 158.296 162.749 142.09 179.047 125.884C191.236 113.811 203.471 101.785 215.52 89.5725C228.269 76.6637 232.985 61.1081 228.736 43.463C219.956 7.05837 175.078 -6.08259 147.665 19.5493C141.547 25.2607 135.71 31.3436 129.732 37.2408C127.21 39.7018 126.697 39.7018 124.175 37.1944C118.618 31.6687 113.06 26.0965 107.456 20.6172C97.8362 11.1446 86.1612 6.50116 74.4863 6.26899V6.31542Z" fill="#2192FF"/>
<path d="M127.023 182.813C125.155 182.813 123.287 182.116 121.606 180.723C121.046 180.305 120.579 179.795 120.065 179.33L95.4077 154.859C74.8598 134.474 54.3119 114.09 33.8574 93.6121C14.1034 73.8774 12.0486 43.5557 29.0474 21.5922C38.5274 9.33347 52.8642 1.57891 68.4153 0.371613C83.9196 -0.835684 99.2371 4.50428 110.445 15.0913C114.555 18.9454 118.384 22.9388 122.447 27.1643C123.941 28.6967 125.436 30.2754 126.93 31.8078C128.471 30.229 129.966 28.6967 131.46 27.1643C135.476 22.9852 139.305 19.0383 143.322 15.2307C156.398 2.83264 174.844 -2.32159 192.637 1.43961C210.523 5.2008 225.28 17.4131 232.145 34.0831C240.737 54.8857 235.881 77.9637 219.489 94.3086C199.175 114.508 178.86 134.707 158.546 154.859L135.476 177.798C134.449 178.819 133.421 179.841 132.301 180.77C130.666 182.116 128.798 182.813 126.977 182.813H127.023ZM72.7583 3.66846C71.404 3.66846 70.0497 3.7149 68.6955 3.80777C54.1251 4.96863 40.6756 12.2124 31.8026 23.6817C15.9247 44.2522 17.7927 72.6237 36.3325 91.1511C56.787 111.629 77.3349 132.013 97.8828 152.352L122.54 176.823C122.961 177.241 123.381 177.659 123.801 177.984C125.903 179.702 128.098 179.702 130.106 178.03C131.133 177.194 132.067 176.219 133.001 175.29L156.117 152.352C176.432 132.199 196.793 112 217.061 91.8011C232.472 76.4778 237.001 54.8393 228.969 35.3368C222.524 19.7348 208.701 8.31191 191.983 4.78289C175.311 1.25387 158.032 6.08306 145.797 17.6917C141.827 21.4529 138.045 25.3534 134.028 29.486C132.16 31.4363 130.199 33.433 128.238 35.4761L126.977 36.7298L125.716 35.4761C123.754 33.4794 121.84 31.4827 119.925 29.5325C115.862 25.3534 112.08 21.36 108.017 17.5988C98.4899 8.63695 85.7876 3.66846 72.7116 3.66846H72.7583ZM127.023 178.401C125.763 178.401 124.548 177.519 122.727 175.708L97.3691 150.541C77.2415 130.574 57.1139 110.654 37.0797 90.5938C27.0393 80.564 21.6688 67.423 21.9957 53.632C22.3226 39.8874 28.2535 27.025 38.7142 17.4595C47.9141 9.05486 60.6164 4.45785 74.4862 4.45785C87.1886 4.69002 99.0036 9.84425 108.67 19.3169C112.08 22.6602 115.442 26.0035 118.804 29.3467L125.389 35.894C126.276 36.7763 126.837 37.2406 127.07 37.287C127.117 37.2406 127.677 36.7763 128.518 35.9404C130.479 33.9902 132.441 32.0399 134.402 30.0897C138.325 26.1428 142.341 22.103 146.497 18.2489C159.9 5.75801 178.346 1.34674 195.859 6.59384C213.278 11.7481 226.214 25.3998 230.463 42.9985C234.853 61.0615 230.23 77.1278 216.827 90.7332C208.468 99.2307 199.968 107.589 191.469 115.994L131.367 175.662C129.545 177.473 128.284 178.401 127.023 178.401ZM74.4862 8.03331C61.5037 8.03331 49.6419 12.3517 41.0959 20.1527C31.3356 29.0681 25.7784 41.0482 25.4982 53.8177C25.218 66.6336 30.2148 78.8459 39.6015 88.2257C59.6357 108.239 79.7633 128.206 99.8442 148.126L125.202 173.294C125.763 173.851 126.79 174.826 127.117 174.965C127.257 174.826 128.284 173.804 128.891 173.247L188.994 113.579C197.447 105.221 205.946 96.8161 214.305 88.365C226.821 75.6884 231.117 60.69 227.054 43.8807C223.085 27.4429 211.036 14.7663 194.832 9.98355C178.533 5.15437 161.348 9.19417 148.879 20.8492C144.816 24.6569 140.753 28.6967 136.877 32.5972C134.916 34.5474 132.954 36.5441 130.993 38.4943C127.771 41.6519 126.23 41.6519 122.961 38.4015L116.376 31.8542C113.014 28.5109 109.651 25.1676 106.242 21.8244C97.2757 13.0018 86.3013 8.21904 74.4862 7.98687V8.03331Z" fill="#2192FF"/>
<path d="M58.655 222.282H54.7789C54.6855 221.864 54.5454 221.446 54.5454 221.028C54.5454 216.524 52.3972 213.32 48.708 210.859C35.2117 201.99 21.8089 192.982 8.26597 184.159C3.7828 181.234 1.68131 177.473 1.77471 172.133C1.96151 162.939 1.77471 153.745 1.82141 144.551C1.82141 137.678 6.44468 132.756 12.7959 132.756C19.0069 132.756 23.7236 137.818 23.7703 144.644C23.7703 151.655 23.817 158.667 23.7703 165.678C23.7703 167.629 24.3774 168.836 26.1053 169.858C35.9122 175.523 45.6725 181.234 55.4327 186.992C57.3474 188.106 59.2621 188.71 61.4103 187.688C64.9128 186.063 65.4732 181.884 62.4844 178.727C59.6357 175.662 56.5535 172.783 53.6114 169.811C48.5212 164.703 48.241 157.738 52.9576 153.048C57.5809 148.405 64.7727 148.637 69.9097 153.652C78.1755 161.778 86.3947 169.95 94.5671 178.169C100.171 183.788 102.926 190.66 102.973 198.554C102.973 206.355 102.973 214.156 102.973 222.143H98.5833C98.5833 217.546 98.5833 213.042 98.5833 208.491C98.5833 205.287 98.5833 202.129 98.5833 198.926C98.63 191.821 96.1082 185.785 91.0646 180.77C83.1724 172.922 75.2801 165.075 67.3879 157.227C66.6874 156.531 65.9402 155.834 65.0996 155.277C61.9707 153.28 58.188 153.745 55.853 156.299C53.4246 158.945 53.3312 162.939 55.9464 165.725C58.9819 169.022 62.2509 172.086 65.3798 175.244C67.8082 177.705 69.1625 180.63 68.7422 184.113C67.9016 190.707 60.8032 194.7 54.9657 191.45C44.038 185.367 33.3437 178.912 22.5561 172.551C20.3145 171.251 19.4739 169.068 19.4739 166.514C19.4739 159.038 19.5673 151.609 19.4739 144.133C19.3805 138.886 14.7572 135.635 10.3208 137.632C7.75228 138.793 6.35128 140.836 6.35128 143.668C6.35128 153.791 6.35128 163.867 6.35128 173.99C6.35128 176.683 7.84568 178.494 10.0406 179.98C23.9104 189.128 37.7802 198.275 51.6033 207.516C57.1139 211.184 59.4956 216.153 58.7951 222.282H58.655Z" fill="#2192FF"/>
<path d="M58.655 224H54.7789C53.9383 224 53.2378 223.443 53.051 222.607C52.8642 221.957 52.7708 221.493 52.7708 220.982C52.7708 217.313 51.1363 214.527 47.7272 212.252C42.4035 208.769 37.1264 205.24 31.8493 201.758C23.6769 196.325 15.5044 190.939 7.28524 185.599C2.19497 182.302 -0.140017 178.03 8.19004e-05 172.086C0.140181 166.05 0.0934814 159.967 0.0934814 153.884C0.0934814 150.773 0.0934814 147.662 0.0934814 144.504C0.0934814 136.657 5.46395 130.992 12.7958 130.992C19.9876 130.992 25.4515 136.842 25.4982 144.597C25.4982 151.609 25.5449 158.62 25.4982 165.632C25.4982 167.025 25.8251 167.629 26.9458 168.279C36.7528 173.944 46.513 179.655 56.2733 185.413C58.0946 186.481 59.3088 186.667 60.5697 186.063C61.6438 185.552 62.2976 184.716 62.5311 183.695C62.7646 182.441 62.2509 181.048 61.1301 179.841C59.2621 177.891 57.3474 175.987 55.4327 174.083C54.3586 173.061 53.3312 172.04 52.3038 170.972C46.5597 165.214 46.2795 157.134 51.65 151.748C56.9738 146.408 65.2864 146.687 71.0771 152.352C79.343 160.478 87.5621 168.65 95.7346 176.869C101.619 182.766 104.608 190.056 104.654 198.507C104.654 203.894 104.654 209.327 104.654 214.76V222.096C104.654 223.071 103.86 223.861 102.88 223.861H98.4899C97.5092 223.861 96.7153 223.071 96.7153 222.096V205.473C96.7153 203.29 96.7153 201.061 96.7153 198.879C96.762 192.239 94.4737 186.713 89.7103 181.977L66.0335 158.434C65.4265 157.831 64.726 157.181 64.0255 156.716C61.5971 155.184 58.7951 155.509 57.0205 157.459C55.1525 159.502 55.1992 162.474 57.1139 164.564C59.1687 166.746 61.3169 168.882 63.4184 170.972C64.4458 171.993 65.4731 173.015 66.5005 174.036C69.536 177.101 70.8436 180.584 70.3299 184.345C69.8162 188.153 67.4812 191.496 64.0722 193.214C60.8032 194.839 57.1139 194.793 53.9383 193.028C45.2055 188.199 36.4259 182.998 27.9732 177.937L21.482 174.083C19.7074 173.015 17.5592 170.832 17.5592 166.561V162.846C17.5592 156.624 17.6526 150.448 17.5592 144.226C17.5592 142.182 16.6252 140.418 15.1308 139.489C13.8699 138.7 12.3288 138.607 10.8811 139.257C8.91974 140.139 7.93904 141.579 7.93904 143.715C7.93904 153.791 7.93904 163.914 7.93904 173.99C7.93904 175.801 8.82634 177.148 10.8811 178.541C24.751 187.688 38.6208 196.836 52.4439 206.076C58.5149 210.116 61.1768 215.642 60.3829 222.468C60.2895 223.35 59.5423 224 58.655 224ZM56.2733 220.517H57.0205C57.1139 215.735 54.9657 211.927 50.4825 208.955C36.6594 199.715 22.7896 190.567 8.96644 181.42C5.93095 179.423 4.48326 177.008 4.48326 173.99C4.48326 163.867 4.48326 153.791 4.48326 143.668C4.48326 140.232 6.25785 137.539 9.48013 136.053C12.0019 134.939 14.7572 135.078 17.0455 136.517C19.5206 138.096 21.015 140.929 21.0617 144.133C21.1551 150.355 21.1551 156.577 21.0617 162.799V166.514C21.0617 168.697 21.7622 170.136 23.2566 171.065L29.7478 174.919C38.2005 179.934 46.8866 185.134 55.6195 189.964C57.7677 191.124 60.2895 191.217 62.4844 190.103C64.8661 188.896 66.5005 186.62 66.8274 183.927C67.1543 181.234 66.2203 178.773 63.9788 176.497C62.9514 175.476 61.924 174.501 60.9433 173.479C58.7484 171.343 56.6002 169.207 54.4987 166.932C51.3231 163.542 51.2764 158.574 54.4053 155.138C57.3474 151.887 62.0641 151.376 65.8934 153.791C66.8741 154.441 67.7614 155.231 68.5086 155.973L92.1854 179.516C97.5559 184.856 100.264 191.403 100.218 198.925C100.218 201.108 100.218 203.29 100.218 205.473V220.378H101.105V214.76C101.105 209.327 101.105 203.894 101.105 198.507C101.105 190.985 98.4432 184.577 93.2128 179.33C85.0403 171.111 76.8212 162.939 68.5553 154.813C64.1656 150.494 58.0946 150.216 54.0784 154.209C50.0622 158.202 50.3424 164.1 54.7322 168.511C55.7596 169.532 56.787 170.554 57.8611 171.575C59.8225 173.526 61.7839 175.43 63.6986 177.426C65.6132 179.423 66.4071 181.93 65.9868 184.298C65.5665 186.388 64.1656 188.153 62.1108 189.128C58.9819 190.614 56.2733 189.406 54.4987 188.338C44.7385 182.58 35.0249 176.869 25.218 171.204C22.9764 169.904 21.9957 168.139 21.9957 165.493C22.0891 158.481 22.0424 151.516 21.9957 144.504C21.9957 138.607 18.0729 134.381 12.7958 134.381C7.37864 134.381 3.59596 138.514 3.54926 144.458C3.54926 147.569 3.54926 150.68 3.54926 153.791C3.54926 159.874 3.59596 165.957 3.45586 172.04C3.36246 176.73 5.09036 179.98 9.15324 182.58C17.3724 187.92 25.5449 193.353 33.7173 198.786C38.9944 202.269 44.3182 205.798 49.5952 209.28C53.8916 212.113 56.0865 215.735 56.2266 220.425L56.2733 220.517Z" fill="#2192FF"/>
<path d="M199.315 222.19H195.205C194.832 215.689 197.4 210.906 202.724 207.377C216.22 198.508 229.623 189.5 243.166 180.677C246.481 178.495 248.023 175.894 247.929 171.901C247.696 162.893 247.882 153.885 247.836 144.876C247.836 140.186 245.221 137.122 241.251 137.122C237.375 137.122 234.713 140.279 234.666 144.969C234.666 152.074 234.62 159.178 234.666 166.283C234.666 169.44 233.452 171.669 230.744 173.248C220.563 179.191 210.429 185.181 200.249 191.079C195.672 193.725 190.488 192.797 187.406 188.989C184.371 185.228 184.604 179.841 188.153 176.034C191.329 172.644 194.738 169.487 197.96 166.143C199.922 164.1 200.576 161.593 199.642 158.853C198.754 156.299 196.933 154.395 194.318 154.395C192.123 154.395 189.321 154.999 187.827 156.438C178.86 164.982 170.081 173.758 161.441 182.674C157.425 186.807 155.65 192.1 155.557 197.858C155.464 205.055 155.557 212.253 155.557 219.404C155.557 220.286 155.557 221.168 155.557 222.236H151.307C151.261 221.54 151.167 220.75 151.167 219.961C151.167 212.949 151.167 205.938 151.167 198.926C151.167 190.707 154.016 183.649 159.9 177.845C167.979 169.812 176.058 161.732 184.184 153.745C189.321 148.684 196.466 148.452 201.136 153.049C205.899 157.785 205.619 164.75 200.389 169.997C197.634 172.783 194.785 175.523 192.03 178.309C189.414 180.956 188.994 183.835 190.769 186.11C192.637 188.525 195.485 188.85 198.848 186.853C208.468 181.234 218.041 175.569 227.708 169.997C229.576 168.929 230.37 167.676 230.323 165.447C230.183 158.528 230.23 151.609 230.323 144.69C230.323 137.865 235.04 132.803 241.251 132.757C247.742 132.757 252.272 137.679 252.272 144.737C252.272 154.117 252.226 163.496 252.272 172.876C252.319 177.705 250.311 181.188 246.341 183.788C233.125 192.472 220.003 201.201 206.833 209.931C200.949 213.831 200.062 215.224 199.361 222.19H199.315Z" fill="#2192FF"/>
<path d="M199.315 223.954H195.205C194.271 223.954 193.524 223.211 193.477 222.329C193.104 215.364 195.906 209.838 201.79 205.984C206.693 202.733 211.597 199.483 216.5 196.233C225.046 190.568 233.639 184.856 242.232 179.284C245.174 177.38 246.248 175.337 246.201 171.994C246.061 165.818 246.061 159.642 246.108 153.466C246.108 150.634 246.108 147.755 246.108 144.922C246.108 141.208 244.24 138.932 241.251 138.886C238.356 138.886 236.441 141.301 236.441 144.969C236.441 152.073 236.394 159.131 236.441 166.236C236.441 169.997 234.9 172.83 231.678 174.733C227.428 177.194 223.225 179.702 218.975 182.163C213.044 185.645 207.113 189.128 201.183 192.564C195.952 195.582 189.741 194.561 186.099 190.057C182.456 185.553 182.783 179.284 186.939 174.826C188.76 172.876 190.675 171.019 192.543 169.115C193.944 167.722 195.392 166.329 196.793 164.889C198.381 163.264 198.801 161.453 198.054 159.364C197.727 158.388 196.699 156.113 194.411 156.113C192.263 156.113 190.115 156.763 189.134 157.692C180.681 165.725 172.089 174.315 162.795 183.881C159.293 187.503 157.472 192.193 157.425 197.858C157.378 202.873 157.378 207.934 157.425 212.949V222.189C157.425 223.165 156.631 223.954 155.697 223.954H151.447C150.513 223.954 149.766 223.257 149.719 222.329V221.632C149.626 221.075 149.579 220.518 149.579 219.961V198.926C149.579 190.196 152.662 182.72 158.826 176.591L167.932 167.536C172.976 162.521 178.02 157.46 183.11 152.445C188.854 146.78 197.213 146.501 202.49 151.748C208.001 157.228 207.674 165.214 201.743 171.158L198.287 174.594C196.653 176.219 195.018 177.798 193.43 179.47C192.076 180.863 190.722 182.999 192.31 185.042C192.777 185.692 194.271 187.596 198.1 185.367L207.627 179.795C214.072 176.034 220.47 172.272 226.961 168.558C228.362 167.768 228.735 167.072 228.735 165.539C228.595 159.549 228.642 153.559 228.689 147.523V144.737C228.735 136.982 234.199 131.085 241.344 131.085H241.438C244.847 131.085 247.882 132.292 250.217 134.568C252.739 137.075 254.187 140.743 254.187 144.83V154.349C254.187 160.524 254.187 166.747 254.187 172.922C254.234 178.262 252.039 182.302 247.462 185.32C238.823 190.985 230.183 196.697 221.59 202.408L207.954 211.463C202.49 215.085 201.93 216.014 201.229 222.468C201.136 223.35 200.389 224.047 199.501 224.047L199.315 223.954ZM196.933 220.471H197.773C198.567 214.296 200.015 212.392 205.853 208.491L219.489 199.483C228.128 193.772 236.721 188.06 245.361 182.395C248.956 180.027 250.591 177.102 250.544 172.922C250.498 166.7 250.498 160.524 250.544 154.302V144.783C250.544 141.626 249.517 138.84 247.649 136.982C246.014 135.357 243.819 134.521 241.344 134.521H241.298C236.021 134.521 232.145 138.84 232.145 144.737V147.523C232.145 153.513 232.051 159.456 232.145 165.446C232.191 168.233 231.117 170.09 228.642 171.529C222.197 175.244 215.753 179.005 209.355 182.767L199.828 188.339C195.719 190.707 191.889 190.289 189.461 187.131C187.126 184.067 187.686 180.306 190.862 177.055C192.496 175.383 194.131 173.758 195.765 172.179L199.221 168.743C203.798 164.146 204.078 158.296 199.968 154.209C195.999 150.262 189.928 150.541 185.491 154.906C180.401 159.921 175.358 164.936 170.314 169.951L161.208 179.005C155.65 184.485 152.988 190.985 152.988 198.833V219.868C152.988 219.868 152.988 220.239 152.988 220.425H153.876V212.949C153.876 207.888 153.876 202.826 153.876 197.765C153.969 191.171 156.117 185.645 160.227 181.374C169.567 171.762 178.206 163.171 186.659 155.092C188.62 153.234 191.889 152.584 194.318 152.538C197.493 152.538 200.062 154.627 201.276 158.156C202.397 161.5 201.696 164.657 199.221 167.211C197.82 168.65 196.373 170.09 194.925 171.483C193.057 173.34 191.189 175.151 189.414 177.102C186.472 180.259 186.192 184.67 188.714 187.781C191.282 190.939 195.532 191.636 199.315 189.453C205.245 186.017 211.176 182.534 217.107 179.052C221.357 176.544 225.56 174.083 229.81 171.622C231.958 170.369 232.892 168.697 232.845 166.189C232.752 159.085 232.845 151.98 232.845 144.876C232.845 139.257 236.301 135.31 241.158 135.31C246.154 135.31 249.47 139.165 249.517 144.783C249.517 147.616 249.517 150.495 249.517 153.327C249.517 159.456 249.47 165.632 249.61 171.762C249.704 176.312 248.022 179.47 244.053 182.024C235.46 187.596 226.914 193.307 218.368 198.972C213.465 202.223 208.561 205.473 203.611 208.723C199.174 211.649 196.98 215.364 196.84 220.332L196.933 220.471Z" fill="#2192FF"/>
<path d="M122.681 139.025C121.7 139.025 120.859 138.422 120.579 137.493L103.16 80.8894L96.6688 101.971C96.3886 102.899 95.548 103.503 94.5673 103.503H70.19C68.9758 103.503 67.9951 102.528 67.9951 101.321C67.9951 100.113 68.9758 99.1381 70.19 99.1381H92.9328L101.012 72.7633C101.292 71.8346 102.133 71.231 103.113 71.231C104.094 71.231 104.935 71.8811 105.215 72.7633L122.214 128.067L137.484 55.3504C137.718 54.3288 138.605 53.6323 139.633 53.6323C140.66 53.6323 141.594 54.3753 141.781 55.3968L151.588 102.481H183.951C185.165 102.481 186.146 103.457 186.146 104.664C186.146 105.871 185.165 106.846 183.951 106.846H149.813C148.786 106.846 147.852 106.103 147.665 105.082L139.679 66.5411L124.829 137.261C124.642 138.236 123.801 138.932 122.774 138.979C122.774 138.979 122.727 138.979 122.681 138.979V139.025Z" fill="#2D388B"/>
<path d="M122.68 140.79C120.906 140.79 119.411 139.675 118.898 138.004L103.16 86.8793L98.3499 102.528C97.8362 104.199 96.3418 105.314 94.5672 105.314H70.1899C67.995 105.314 66.2205 103.549 66.2205 101.367C66.2205 99.1844 67.995 97.4199 70.1899 97.4199H91.6251L99.3306 72.2524C99.8443 70.5808 101.339 69.4663 103.113 69.4663C104.888 69.4663 106.382 70.5808 106.896 72.2524L121.933 121.055L135.803 54.9788C136.177 53.1678 137.811 51.8677 139.679 51.8677C141.547 51.8677 143.182 53.1678 143.555 54.9788L153.035 100.67H183.951C186.145 100.67 187.92 102.435 187.92 104.617C187.92 106.8 186.145 108.564 183.951 108.564H149.813C147.945 108.564 146.311 107.264 145.937 105.407L139.632 75.0849L126.51 137.632C126.136 139.397 124.642 140.697 122.821 140.743H122.634L122.68 140.79ZM103.16 74.9456L122.26 136.982C122.26 136.982 122.494 137.307 122.68 137.307C122.961 137.307 123.101 137.121 123.147 136.936L139.726 57.997L149.439 104.71C149.439 104.71 149.673 105.082 149.86 105.082H183.997C184.231 105.082 184.464 104.896 184.464 104.617C184.464 104.339 184.277 104.153 183.997 104.153H150.233L140.146 55.6753C140.053 55.2574 139.352 55.2574 139.259 55.6753L122.587 135.032L103.58 73.2275C103.44 72.8561 102.833 72.8561 102.74 73.2275L94.2403 100.856H70.1899C69.9564 100.856 69.7229 101.042 69.7229 101.32C69.7229 101.599 69.9097 101.785 70.1899 101.785H94.5672C94.5672 101.785 94.9408 101.645 94.9875 101.46L103.113 74.9456H103.16Z" fill="#2D388B"/>
</g>
<defs>
<clipPath id="clip0_176_3836">
<rect width="254" height="224" fill="white"/>
</clipPath>
</defs>
</svg>
