<svg width="219" height="226" viewBox="0 0 219 226" fill="none" xmlns="http://www.w3.org/2000/svg">
<g clip-path="url(#clip0_176_3872)">
<path d="M164.601 147.694L133.475 181.454C133.475 181.454 130.998 184.676 130.998 192.38C130.998 200.085 130.858 224.459 130.858 224.459L118.567 224.599L118.707 192.054L121.791 178.185L149.552 150.309C149.552 150.309 156.282 140.363 164.601 147.694Z" fill="#B9F3FC"/>
<path d="M14.3476 128.269L14.0205 161.422C14.0205 161.422 12.2913 168.66 22.2926 173.516C32.2939 178.372 63.1389 200.131 63.1389 200.131C63.1389 200.131 66.5038 203.587 66.5038 208.396C66.5038 213.206 66.1767 224.226 66.1767 224.226L57.7644 224.506L56.8297 208.676C56.8297 208.676 52.016 201.766 43.37 196.956C34.7241 192.147 6.40269 170.714 6.40269 170.714L5.37452 145.172C5.37452 145.172 2.9443 128.969 14.3476 128.269Z" fill="#B9F3FC"/>
<path d="M109.5 2.61523C121.044 2.61523 132.587 2.66193 144.131 2.61523C147.776 2.61523 150.159 4.06275 151.795 7.28466C157.17 17.5574 165.395 24.5615 176.425 28.2504C180.724 29.6979 182.079 31.6123 182.079 36.1884C182.079 49.9165 181.939 41.6516 182.079 55.3797C182.5 92.0347 166.517 119.491 135.298 138.215C128.241 142.418 120.763 145.966 113.332 149.469C111.463 150.356 108.612 150.729 106.789 149.982C89.8714 142.978 74.075 134.013 61.1294 120.752C46.6416 105.95 38.6966 87.9723 37.6685 67.4735C36.7338 49.4028 37.1544 53.2785 37.0609 35.1611C37.0609 31.7991 38.6499 29.6045 41.8746 28.5772C53.5583 24.8884 62.1108 17.5107 67.719 6.63094C69.1678 3.78259 71.5513 2.66193 74.6825 2.70862C86.3195 2.75532 97.9566 2.70862 109.594 2.70862L109.5 2.61523ZM41.4073 60.2826C41.4073 60.2826 41.7344 60.2826 41.9213 60.2826C41.9213 70.0884 41.3605 57.9012 42.0615 67.6136C43.3701 85.9644 50.1934 102.214 62.7651 115.849C75.3836 129.53 91.1332 138.495 108.005 145.686C109.079 146.153 110.762 145.826 111.884 145.313C118.847 141.904 125.951 138.682 132.634 134.666C162.684 116.689 178.2 90.4004 177.733 55.0528C177.546 41.6049 177.64 50.1499 177.733 36.702C177.733 34.2272 176.985 32.9665 174.508 32.126C162.778 28.2037 154.038 20.6392 148.197 9.80614C147.075 7.7516 145.813 7.00449 143.476 7.00449C120.857 7.09788 98.237 7.09788 75.6172 7.00449C73.3272 7.00449 72.0186 7.7049 70.897 9.80614C65.0084 20.7793 56.1755 28.3437 44.3516 32.2661C42.1083 33.0132 41.3605 34.1805 41.4073 36.4685C41.5007 44.4066 41.4073 52.3913 41.4073 60.376V60.2826Z" fill="#2192FF"/>
<path d="M109.173 152.037C108.098 152.037 107.07 151.897 106.135 151.476C86.2728 143.258 71.598 133.826 59.8676 121.872C45.0058 106.65 36.9674 88.3457 35.8925 67.4734C35.2382 54.8192 35.2382 52.9048 35.285 46.6478C35.285 43.9862 35.285 40.5308 35.285 35.0676C35.285 30.9118 37.3413 28.0635 41.3138 26.8027C52.5302 23.254 60.6153 16.3432 66.13 5.74363C67.8125 2.52173 70.6633 0.840738 74.5891 0.840738H74.6358C83.0014 0.840738 91.3669 0.840738 99.7325 0.840738H109.5H119.081C127.446 0.840738 135.765 0.840738 144.084 0.840738C148.197 0.747349 151.328 2.61512 153.337 6.44404C158.478 16.2965 166.423 23.0205 176.939 26.5693C181.939 28.2502 183.762 30.8184 183.762 36.1416C183.762 41.9783 183.762 43.8461 183.762 45.1069C183.762 46.8345 183.762 47.4416 183.809 55.2862C184.229 92.0812 168.199 120.471 136.186 139.663C129.035 143.959 121.417 147.507 114.08 150.963C112.772 151.57 110.949 152.037 109.173 152.037ZM74.5423 4.3428C71.9252 4.3428 70.2427 5.27669 69.1678 7.33123C63.3259 18.6779 54.2594 26.3358 42.2952 30.118C39.8183 30.9118 38.6966 32.406 38.7434 35.0209C38.7434 40.4841 38.7434 43.9395 38.7434 46.6478C38.7434 52.8581 38.7434 54.7259 39.3509 67.2866C40.3791 87.3184 48.0903 104.875 62.3445 119.444C73.7011 131.071 88.002 140.223 107.444 148.301C108.659 148.815 110.949 148.581 112.585 147.834C119.875 144.425 127.4 140.877 134.363 136.674C165.255 118.183 180.677 90.8205 180.304 55.3329C180.21 47.3949 180.21 46.7878 180.257 45.0602C180.257 43.7994 180.257 41.9316 180.257 36.1416C180.257 32.3126 179.369 31.0519 175.817 29.8845C164.367 26.0556 155.768 18.7246 150.206 8.07834C148.851 5.46346 147.075 4.3895 144.177 4.3895H144.084C135.718 4.43619 127.353 4.43619 119.034 4.3895H109.453H99.6857C91.3202 4.3895 82.9546 4.3895 74.5423 4.3895V4.3428ZM109.22 147.647C108.519 147.647 107.864 147.554 107.257 147.274C86.7869 138.495 72.6262 129.156 61.4098 117.016C48.7446 103.241 41.5942 86.6647 40.2389 67.7535C40.1454 66.1659 40.0519 65.1854 40.0052 64.5783C39.9585 64.3449 39.9117 64.0647 39.9117 63.7378C39.9117 63.411 39.9585 63.0841 40.0987 62.804C40.0987 62.4771 40.0987 62.0102 40.0987 61.4965C39.7715 61.1697 39.5846 60.7494 39.5846 60.2358V53.5585C39.5846 47.8151 39.5846 42.1184 39.5846 36.375C39.5846 33.2932 40.7997 31.4721 43.744 30.4916C55.0071 26.756 63.6064 19.4717 69.308 8.87214C70.7101 6.25727 72.6729 5.13661 75.5705 5.1833C98.1435 5.22999 120.81 5.27669 143.43 5.1833C146.421 5.1833 148.243 6.30396 149.645 8.91884C155.3 19.4717 163.806 26.7093 174.976 30.4449C178.107 31.4721 179.416 33.3399 179.369 36.7019C179.369 41.6982 179.275 43.6593 179.275 44.8734C179.275 46.0563 179.275 48.6401 179.275 52.6246V55.0527C179.743 90.4002 164.273 117.716 133.335 136.207C128.054 139.336 122.446 142.044 117.071 144.659L112.491 146.9C111.556 147.367 110.295 147.694 109.126 147.694L109.22 147.647ZM43.5571 64.4383C43.6505 65.2321 43.6973 66.2126 43.7907 67.4734C45.0993 85.5907 51.9226 101.467 64.027 114.635C74.9162 126.401 88.6563 135.507 108.659 144.052C109.079 144.239 110.248 144.099 111.089 143.678L115.669 141.437C120.997 138.869 126.558 136.161 131.699 133.125C161.469 115.335 176.378 89.0461 175.957 55.0527V52.6246C175.895 48.5778 175.864 45.9629 175.864 44.78C175.864 43.6126 175.91 41.6515 175.957 36.6552C175.957 34.8808 175.583 34.3205 173.948 33.7602C161.937 29.7445 152.73 21.9465 146.654 10.5998C145.86 9.10561 145.159 8.68537 143.523 8.68537C120.903 8.77875 98.2837 8.77875 75.664 8.68537C73.9815 8.68537 73.3272 9.10561 72.5327 10.5531C66.4105 21.9932 57.1102 29.8378 44.9591 33.8535C43.5103 34.3205 43.1832 34.7874 43.2299 36.375C43.3234 42.1184 43.2766 47.8618 43.2299 53.6052V59.0684C43.5571 59.3953 43.744 59.8155 43.744 60.3292C43.744 62.2903 43.744 63.5978 43.6038 64.485L43.5571 64.4383Z" fill="#2192FF"/>
<path d="M120.483 224.273H116.09C116.09 223.245 116.09 222.358 116.09 221.471C116.09 211.665 116.09 201.906 116.09 192.1C116.09 183.975 118.8 176.971 124.689 171.181C133.054 162.963 141.14 154.511 149.458 146.247C156.188 139.616 166.704 142.278 169.04 151.103C170.162 155.352 169.04 159.087 166.003 162.216C162.871 165.438 159.6 168.52 156.515 171.742C154.085 174.31 153.945 177.438 156.048 179.586C157.824 181.454 160.301 181.874 162.825 180.38C173.013 174.45 183.201 168.473 193.296 162.356C194.277 161.749 195.118 160.021 195.118 158.807C195.305 151.663 195.165 144.519 195.212 137.421C195.212 130.511 199.745 125.561 206.101 125.468C212.317 125.421 217.131 130.464 217.177 137.328C217.224 146.854 217.177 156.379 217.177 165.858C217.177 170.574 215.308 174.076 211.382 176.644C197.782 185.61 184.323 194.762 170.676 203.68C166.283 206.575 164.086 210.311 164.367 215.587C164.507 218.389 164.367 221.237 164.367 224.179H160.301C160.301 219.697 159.927 215.214 160.394 210.825C160.862 206.202 163.899 202.933 167.732 200.412C180.864 191.727 193.857 182.855 207.083 174.31C211.148 171.695 213.018 168.706 212.831 163.804C212.504 155.399 212.737 146.994 212.737 138.542C212.737 137.608 212.737 136.721 212.644 135.787C212.083 132.192 209.186 129.717 205.867 129.857C202.362 130.044 199.652 132.799 199.605 136.581C199.511 143.912 199.465 151.243 199.605 158.527C199.698 162.263 198.203 164.691 194.978 166.512C185.164 172.162 175.443 177.999 165.629 183.742C160.535 186.73 155.347 185.937 152.076 181.781C148.991 177.859 149.505 172.489 153.478 168.333C156.375 165.298 159.46 162.403 162.404 159.368C165.629 156.052 165.769 151.803 162.871 148.861C159.927 145.92 155.721 146.013 152.403 149.328C143.663 158.06 134.877 166.745 126.278 175.617C122.165 179.866 120.436 185.236 120.389 191.166C120.342 201.066 120.389 210.918 120.389 220.817C120.389 221.798 120.389 222.825 120.389 224.132L120.483 224.273Z" fill="#2192FF"/>
<path d="M120.483 226H116.09C115.108 226 114.314 225.206 114.314 224.226V192.053C114.314 183.275 117.398 175.804 123.427 169.874C127.773 165.578 132.073 161.235 136.373 156.846C140.298 152.877 144.224 148.861 148.197 144.939C151.889 141.297 156.843 139.896 161.563 141.157C166.049 142.371 169.508 145.919 170.723 150.589C171.985 155.305 170.723 159.741 167.218 163.336C165.816 164.784 164.367 166.185 162.965 167.632C161.189 169.36 159.46 171.088 157.777 172.862C156.001 174.683 155.861 176.784 157.31 178.325C158.572 179.679 160.207 179.866 161.937 178.839C173.293 172.208 182.827 166.652 192.361 160.862C192.735 160.628 193.343 159.508 193.343 158.807C193.483 153.858 193.436 148.908 193.436 143.912V137.421C193.436 129.577 198.764 123.786 206.054 123.74H206.195C209.466 123.74 212.504 125 214.841 127.242C217.411 129.81 218.86 133.359 218.907 137.328C218.907 141.717 218.907 146.06 218.907 150.449C218.907 155.585 218.907 160.722 218.907 165.858C218.907 171.134 216.803 175.15 212.317 178.139C206.615 181.921 200.914 185.703 195.259 189.485C187.407 194.715 179.509 199.991 171.611 205.174C167.545 207.836 165.862 211.011 166.096 215.494C166.19 217.455 166.19 219.416 166.143 221.471V224.179C166.143 225.16 165.348 225.953 164.367 225.953H160.301C159.319 225.953 158.525 225.16 158.525 224.179C158.525 222.825 158.525 221.471 158.478 220.117C158.385 217.035 158.338 213.813 158.665 210.638C159.133 206.062 161.796 202.233 166.75 198.964C171.424 195.882 176.051 192.754 180.677 189.672C189.136 184.022 197.549 178.372 206.101 172.862C209.887 170.434 211.195 168.006 211.055 163.897C210.821 157.967 210.868 151.943 210.915 146.106C210.915 143.585 210.915 141.063 210.915 138.542V138.075C210.915 137.421 210.915 136.721 210.821 136.114C210.401 133.405 208.204 131.491 205.821 131.678C203.157 131.818 201.287 133.872 201.241 136.674C201.194 143.305 201.101 151.009 201.241 158.574C201.334 162.869 199.605 165.905 195.773 168.146C189.604 171.695 183.435 175.337 177.312 178.979C173.714 181.127 170.069 183.275 166.47 185.376C160.675 188.785 154.459 187.851 150.674 182.948C147.028 178.279 147.636 171.975 152.169 167.212C153.758 165.531 155.44 163.897 157.076 162.262C158.432 160.955 159.74 159.601 161.049 158.247C163.619 155.632 163.806 152.457 161.563 150.215C160.535 149.188 159.273 148.628 157.964 148.628C156.422 148.628 154.926 149.328 153.571 150.729L150.674 153.624C142.916 161.375 135.111 169.127 127.446 177.018C123.894 180.66 122.072 185.516 122.072 191.353C122.072 198.45 122.072 205.595 122.072 212.692V224.319C122.072 225.3 121.277 226.093 120.343 226.093L120.483 226ZM117.819 222.498H118.707V212.646C118.707 205.548 118.707 198.404 118.707 191.306C118.707 184.536 120.903 178.886 125.063 174.59C132.727 166.698 140.532 158.9 148.337 151.149L151.234 148.254C153.244 146.246 155.674 145.126 158.104 145.126C160.348 145.126 162.451 146.06 164.18 147.787C167.779 151.429 167.592 156.753 163.713 160.768C162.404 162.122 161.049 163.477 159.693 164.831C158.058 166.465 156.422 168.053 154.833 169.734C151.468 173.236 151.001 177.625 153.524 180.893C156.235 184.349 160.535 184.956 164.787 182.434C168.386 180.333 172.031 178.185 175.63 176.037C181.799 172.395 187.921 168.753 194.137 165.204C196.848 163.663 197.923 161.796 197.876 158.76C197.736 151.149 197.782 143.398 197.876 136.767C197.923 132.098 201.241 128.549 205.774 128.316C210.027 128.129 213.672 131.211 214.373 135.693C214.513 136.534 214.513 137.374 214.513 138.262V138.729C214.513 141.25 214.513 143.772 214.513 146.293C214.467 152.083 214.42 158.06 214.654 163.897C214.887 169.267 212.924 172.862 208.111 175.944C199.605 181.454 191.146 187.057 182.734 192.707C178.107 195.836 173.433 198.917 168.76 201.999C164.647 204.708 162.544 207.649 162.217 211.151C161.937 214.093 161.983 217.035 162.077 220.163C162.077 220.957 162.077 221.751 162.124 222.591H162.684V221.564C162.684 219.603 162.731 217.735 162.684 215.821C162.357 210.077 164.694 205.688 169.788 202.373C177.686 197.19 185.538 191.96 193.389 186.73C199.091 182.948 204.746 179.166 210.448 175.384C213.906 173.096 215.495 170.154 215.448 166.045C215.448 160.908 215.448 155.725 215.448 150.589C215.448 146.2 215.448 141.857 215.448 137.468C215.448 134.479 214.373 131.771 212.457 129.857C210.775 128.222 208.485 127.289 206.148 127.335C200.773 127.382 196.988 131.584 196.988 137.561V144.005C196.988 149.001 196.988 153.998 196.894 158.994C196.894 160.675 195.866 163.01 194.231 163.99C184.65 169.78 175.116 175.384 163.759 182.014C160.581 183.882 157.263 183.415 154.833 180.893C152.076 177.998 152.263 173.796 155.3 170.621C157.029 168.8 158.805 167.072 160.581 165.298C161.983 163.897 163.432 162.496 164.787 161.048C167.451 158.34 168.339 155.165 167.405 151.616C166.47 148.114 164.04 145.593 160.722 144.659C157.263 143.725 153.524 144.799 150.72 147.554C146.748 151.476 142.822 155.445 138.943 159.414C134.643 163.803 130.344 168.146 125.951 172.442C120.529 177.765 117.866 184.209 117.866 192.147V222.545L117.819 222.498Z" fill="#2192FF"/>
<path d="M102.77 224.226H98.5172C98.5172 223.105 98.5172 222.078 98.5172 221.097C98.5172 211.291 98.5172 201.532 98.5172 191.727C98.5172 185.003 96.2272 179.259 91.4135 174.496C83.2817 166.418 75.29 158.247 67.2048 150.169C66.0832 149.048 64.6811 147.927 63.2324 147.414C60.1011 146.246 56.7829 147.601 55.1005 150.262C53.3713 153.017 53.5582 156.379 55.9417 158.854C59.1664 162.263 62.5781 165.438 65.8028 168.8C68.934 172.068 69.635 176.504 67.9058 180.193C66.2701 183.695 62.4846 186.03 58.5121 185.61C56.8297 185.423 55.1005 184.816 53.6517 183.975C43.5102 178.092 33.4622 172.115 23.3674 166.185C20.6568 164.597 19.395 162.356 19.4417 159.181C19.4884 151.943 19.4417 144.706 19.4417 137.515C19.4417 132.985 16.8245 129.95 12.9455 129.903C9.11328 129.903 6.30918 132.939 6.26245 137.421C6.21571 147.134 6.26245 156.799 6.26245 166.512C6.26245 169.64 7.85144 171.555 10.3284 173.189C23.6946 182.014 36.9206 191.026 50.3335 199.758C56.3623 203.68 59.4001 208.817 59.0262 216.008C58.886 218.622 59.0262 221.284 59.0262 224.132H54.6331C54.6331 221.564 54.4462 219.043 54.6331 216.521C55.1472 210.451 52.4833 206.389 47.4359 203.12C34.2099 194.575 21.2644 185.656 8.08511 177.065C3.7855 174.216 1.72916 170.574 1.82263 165.438C1.96283 156.006 1.82263 146.573 1.86936 137.141C1.9161 129.577 7.99164 124.44 15.0954 125.794C20.096 126.775 23.7881 131.211 23.8348 136.627C23.8815 143.958 23.9283 151.289 23.8348 158.574C23.8348 160.535 24.4423 161.749 26.1715 162.776C35.9859 168.473 45.7067 174.263 55.5211 180.006C58.7458 181.921 61.5499 181.594 63.3726 179.213C65.1952 176.878 64.8213 174.03 62.2042 171.368C59.3066 168.426 56.3623 165.578 53.4647 162.636C48.5576 157.593 48.3706 150.542 52.9507 145.966C57.5307 141.344 64.9615 141.53 69.9155 146.527C78.7016 155.352 87.4878 164.177 96.1338 173.096C100.246 177.298 102.583 182.668 102.77 188.411C103.144 200.272 102.864 212.179 102.864 224.272L102.77 224.226Z" fill="#2192FF"/>
<path d="M102.77 225.953H98.5173C97.5359 225.953 96.7414 225.16 96.7414 224.179V212.039C96.7414 205.268 96.7414 198.497 96.7414 191.727C96.7414 185.329 94.5916 180.1 90.1517 175.71C85.8521 171.415 81.5525 167.119 77.2996 162.823C73.5141 158.994 69.7286 155.165 65.943 151.383C64.7279 150.169 63.6063 149.375 62.5781 149.001C60.3348 148.161 57.8579 149.048 56.5026 151.149C55.1473 153.297 55.3809 155.772 57.1101 157.593C58.7459 159.321 60.3816 160.955 62.064 162.636C63.6998 164.27 65.3355 165.905 66.9245 167.586C70.5231 171.368 71.411 176.504 69.308 180.94C67.2983 185.236 62.8585 187.851 58.185 187.337C56.3156 187.151 54.3528 186.497 52.6236 185.47C46.7817 182.061 40.9398 178.652 35.098 175.197C30.8451 172.675 26.5922 170.201 22.3393 167.679C19.0679 165.765 17.5256 162.963 17.5256 159.181C17.5724 152.877 17.5256 146.527 17.5256 140.223V137.515C17.5256 133.919 15.703 131.678 12.7587 131.631C11.637 131.678 10.3752 132.051 9.53394 132.892C8.45904 133.919 7.89822 135.553 7.85148 137.374C7.85148 142.417 7.85148 147.507 7.85148 152.55C7.85148 157.22 7.85148 161.842 7.85148 166.465C7.85148 168.613 8.78618 170.107 11.1229 171.648C16.1236 174.963 21.1242 178.325 26.1249 181.641C34.4437 187.197 42.7158 192.754 51.1281 198.17C57.9046 202.56 61.0359 208.396 60.662 215.961C60.5685 217.735 60.6152 219.51 60.662 221.331V224.039C60.662 225.02 59.9142 225.813 58.9328 225.813H54.5397C53.5583 225.813 52.7638 225.02 52.7638 224.039C52.7638 223.245 52.7638 222.451 52.7638 221.658C52.7638 219.836 52.6703 218.062 52.8105 216.241C53.2311 211.151 51.315 207.649 46.4078 204.474C39.0237 199.711 31.6863 194.808 24.3489 189.905C18.6005 186.03 12.8054 182.201 7.01025 178.419C2.24329 175.337 -0.0934592 171.041 1.07004e-05 165.391C0.0934806 160.115 0.0467457 154.885 0.0467457 149.608C0.0467457 145.453 0.0467457 141.297 0.0467457 137.141C0.0467457 132.939 1.82267 129.11 4.86045 126.635C7.75801 124.253 11.4968 123.366 15.3758 124.113C21.3112 125.234 25.4706 130.417 25.5173 136.674C25.564 144.005 25.6108 151.336 25.5173 158.667C25.5173 160.021 25.8444 160.628 27.0128 161.329C33.2753 164.971 39.491 168.613 45.7068 172.302L56.3624 178.559C60.0077 180.707 61.4565 178.792 61.9706 178.185C63.5596 176.131 62.2977 174.029 60.8957 172.629C59.4469 171.134 57.9514 169.687 56.5026 168.193C55.0538 166.745 53.605 165.298 52.1562 163.85C46.6415 158.2 46.4078 149.982 51.6421 144.705C54.1191 142.231 57.3905 140.877 60.8957 140.877C64.6345 140.877 68.2798 142.417 71.0839 145.266C79.8701 154.091 88.6562 162.916 97.3489 171.882C101.835 176.504 104.266 182.201 104.453 188.365C104.686 196.816 104.64 205.455 104.593 213.766C104.593 217.268 104.593 220.724 104.593 224.272C104.593 225.253 103.798 226.047 102.817 226.047L102.77 225.953ZM100.246 222.451H100.994C100.994 219.51 100.994 216.615 100.994 213.673C101.041 205.361 101.088 196.77 100.854 188.365C100.714 183.088 98.564 178.185 94.7318 174.216C86.0858 165.298 77.2996 156.472 68.5135 147.647C66.3637 145.499 63.6063 144.285 60.8022 144.285C58.2785 144.285 55.8483 145.266 54.0724 147.087C50.1466 151.009 50.3803 156.986 54.5864 161.329C55.9885 162.776 57.4373 164.224 58.8861 165.624C60.3816 167.119 61.8771 168.566 63.3259 170.06C66.5506 173.329 67.0179 177.158 64.6345 180.193C62.2042 183.322 58.5122 183.789 54.493 181.454L43.8374 175.197C37.6217 171.508 31.4059 167.866 25.1434 164.224C22.8534 162.916 21.872 161.142 21.9187 158.527C22.0122 151.243 22.0122 143.912 21.9187 136.627C21.9187 132.051 18.8809 128.316 14.6281 127.475C11.824 126.962 9.11333 127.569 7.01025 129.296C4.76698 131.117 3.50513 133.919 3.50513 137.141C3.50513 141.297 3.50513 145.406 3.50513 149.562C3.50513 154.838 3.50513 160.161 3.4584 165.438C3.36493 169.92 5.09412 173.049 8.92639 175.57C14.7215 179.353 20.5167 183.228 26.2651 187.104C33.5557 192.007 40.8464 196.863 48.2305 201.626C54.2126 205.455 56.7362 210.217 56.2222 216.615C56.082 218.296 56.1287 219.977 56.1754 221.658C56.1754 221.891 56.1754 222.124 56.1754 222.358H57.0634V221.471C57.0634 219.556 57.0167 217.735 57.0634 215.867C57.3905 209.564 54.8669 204.894 49.1652 201.205C40.7996 195.742 32.4341 190.186 24.1152 184.629C19.1146 181.314 14.114 177.952 9.11333 174.636C7.01025 173.282 4.25289 170.901 4.25289 166.512C4.25289 161.889 4.25289 157.22 4.25289 152.597C4.25289 147.554 4.25289 142.464 4.25289 137.421C4.25289 134.62 5.23433 132.145 6.96352 130.417C8.45904 128.923 10.5621 128.129 12.7119 128.129C17.5256 128.176 20.9373 132.051 20.9373 137.468V140.176C20.9373 146.527 20.9373 152.83 20.9373 159.181C20.9373 161.749 21.8252 163.383 24.0218 164.644C28.2747 167.119 32.5275 169.64 36.8272 172.162C42.669 175.617 48.4642 179.026 54.3528 182.434C55.6613 183.182 57.1569 183.695 58.5122 183.835C61.6434 184.162 64.7279 182.341 66.13 179.399C67.6255 176.271 66.9245 172.629 64.354 169.92C62.8118 168.286 61.1761 166.652 59.5403 165.064C57.8579 163.383 56.1287 161.702 54.493 159.974C51.6421 156.986 51.2215 152.737 53.4648 149.235C55.6613 145.733 59.8675 144.239 63.6998 145.639C65.1953 146.2 66.7375 147.274 68.3265 148.815C72.1588 152.597 75.9443 156.426 79.7298 160.255C83.9827 164.551 88.2356 168.846 92.5352 173.142C97.5826 178.139 100.153 184.349 100.153 191.633C100.153 198.404 100.153 205.174 100.153 211.992V222.405L100.246 222.451Z" fill="#2192FF"/>
<path d="M110.435 61.5897C116.37 61.5897 122.072 61.5897 127.773 61.5897C130.063 61.5897 131.746 63.2707 131.886 65.4186C131.98 67.4732 130.437 69.2943 128.334 69.5744C127.82 69.6211 127.353 69.5744 126.839 69.5744C121.978 69.5744 117.118 69.5744 112.257 69.5744H110.528V77.6058C112.725 77.6058 114.921 77.6058 117.118 77.6058C118.239 77.6058 119.361 77.6058 120.483 77.6058C123.661 77.6058 125.904 79.1467 127.119 82.0418C128.568 85.4971 129.923 88.9525 131.279 92.4546C131.652 93.3885 132.073 93.7153 133.101 93.7153C135.578 93.7153 137.307 95.4897 137.261 97.7777C137.261 100.066 135.438 101.653 132.914 101.7C128.428 101.825 125.343 99.7856 123.661 95.5831C122.492 92.6881 121.277 89.793 120.202 86.898C119.828 85.8707 119.314 85.5905 118.239 85.5905C115.342 85.6839 112.444 85.5905 109.547 85.5905C105.2 85.5905 102.396 82.7889 102.396 78.493C102.396 70.2748 102.396 62.1034 102.396 53.8852C102.396 52.998 102.209 52.391 101.368 51.8773C97.7695 49.5893 96.2273 45.3868 97.4424 41.3711C98.564 37.4955 102.256 34.7405 106.322 34.6938C110.481 34.6938 114.22 37.3554 115.435 41.3244C116.65 45.2934 115.155 49.4959 111.603 51.8306C110.715 52.391 110.435 52.998 110.481 53.9786C110.575 56.4067 110.481 58.8815 110.481 61.4963L110.435 61.5897Z" fill="#2192FF"/>
<path d="M119.268 97.5909C118.941 96.8905 118.613 96.2368 118.286 95.5831C111.697 101.7 104.219 103.708 95.8068 100.112C88.2357 96.8905 83.9361 90.7736 83.7024 82.5554C83.4687 72.6095 88.5629 66.1657 97.536 62.617V59.9087C88.5161 62.2434 81.5526 70.7417 80.9918 80.174C80.3375 90.3533 86.5065 99.7389 95.9937 103.148C104.172 106.089 114.174 103.755 119.455 98.0112C119.408 97.8711 119.361 97.7777 119.268 97.6376V97.5909Z" fill="#2192FF"/>
<path d="M115.856 90.0731C111.743 95.2561 106.556 97.5441 99.9194 95.8631C94.0308 94.3689 89.7311 89.5127 89.1703 83.3491C88.516 76.3917 91.6473 71.4888 97.6294 68.3602C97.6294 67.7065 97.6294 67.0528 97.6294 66.3524V65.5586C90.6658 67.8933 85.9924 75.1309 86.413 82.8355C86.8803 90.5867 92.9559 97.4507 100.527 98.7582C106.883 99.8321 113.659 97.3107 117.118 92.828C116.697 91.8941 116.277 90.9602 115.856 90.0264V90.0731Z" fill="#2192FF"/>
<path d="M89.0768 66.1655L97.4891 61.8696L97.5826 67.6597C97.5826 67.6597 89.2638 69.0605 89.0768 76.4382C88.8899 83.8159 84.2631 96.2833 106.275 97.544L117.071 92.9213L118.333 95.5828L118.006 97.9643C118.006 97.9643 100.293 109.544 92.0679 99.5986C83.8425 89.6527 81.4123 88.6254 82.2068 81.2477C83.0013 73.87 89.0768 66.2122 89.0768 66.2122V66.1655Z" fill="#2192FF"/>
</g>
<defs>
<clipPath id="clip0_176_3872">
<rect width="219" height="226" fill="white"/>
</clipPath>
</defs>
</svg>
