<svg width="219" height="228" viewBox="0 0 219 228" fill="none" xmlns="http://www.w3.org/2000/svg">
<g clip-path="url(#clip0_176_3891)">
<path d="M31.5459 152.452C31.5459 152.452 18.9274 157.968 18.5535 171.292C18.1797 184.616 20.0491 223.979 20.0491 223.979C20.0491 223.979 4.11244 225.288 4.20591 222.39C4.29938 219.491 3.83203 166.991 3.83203 166.991C3.83203 166.991 9.90757 148.291 22.9934 146.281L31.4991 152.405L31.5459 152.452Z" fill="#B9F3FC"/>
<path d="M18.8807 91.0224C18.8807 91.0224 32.3404 26.8813 76.5049 12.0148L79.4025 8.97607C79.4025 8.97607 41.8276 20.5701 31.4057 34.4549C20.9838 48.3864 7.7578 73.8652 7.7578 73.8652C7.7578 73.8652 1.02797 87.3292 3.59839 89.6199C6.16881 91.9107 18.8807 91.0224 18.8807 91.0224Z" fill="#B9F3FC"/>
<path d="M21.0308 144.271C18.6006 137.305 18.7875 130.199 19.9559 123.28C21.5916 113.603 30.6115 107.011 40.5193 107.572C50.1934 108.18 58.2786 116.127 58.8861 125.851C59.0731 128.937 59.1198 132.069 58.8861 135.201C58.6992 138.193 58.0916 141.138 57.671 144.458C64.9149 147.263 70.5699 152.405 74.2619 160.399C78.0475 152.732 83.422 147.263 90.5257 144.691C90.2453 138.707 89.7779 133.004 89.7779 127.347C89.7779 116.314 98.6108 107.572 109.453 107.572C120.343 107.572 129.175 116.267 129.222 127.254C129.222 132.864 130.017 138.614 127.446 144.271C135.204 147.263 140.859 152.452 144.598 160.446C148.337 152.732 153.758 147.309 160.862 144.738C160.581 138.754 160.114 133.051 160.114 127.394C160.114 116.361 168.947 107.619 179.789 107.619C190.679 107.619 199.418 116.314 199.605 127.3C199.652 130.152 199.792 133.004 199.605 135.809C199.371 138.614 198.764 141.372 198.296 144.411C198.764 144.645 199.558 145.019 200.4 145.439C211.102 150.769 216.99 159.371 217.177 171.386C217.411 187.14 217.271 202.895 217.224 218.65C217.224 223.839 214.654 226.317 209.419 226.317C142.869 226.317 76.3183 226.317 9.76768 226.317C4.34643 226.317 1.86948 223.839 1.86948 218.463C1.86948 203.924 2.10315 189.338 1.82274 174.798C1.54233 160.353 7.61788 150.255 21.1243 144.364L21.0308 144.271ZM146.935 221.642C147.402 221.782 147.542 221.876 147.729 221.876C168.386 221.876 189.09 221.876 209.747 221.922C211.99 221.922 212.784 220.847 212.784 218.697C212.784 202.568 213.018 186.486 212.644 170.357C212.41 160.212 206.896 153.106 197.642 148.899C196.24 148.244 195.305 148.385 194.137 149.6C186.005 158.062 173.574 158.015 165.395 149.507C164.273 148.338 163.432 148.291 162.124 148.805C153.151 152.312 146.935 161.334 146.888 171.292C146.841 187.468 146.888 203.69 146.888 219.865C146.888 220.38 146.888 220.941 146.982 221.595L146.935 221.642ZM142.401 221.782C142.401 204.157 142.822 186.72 142.261 169.375C141.934 159.605 136.092 152.826 127.119 148.899C125.764 148.291 124.923 148.478 123.801 149.6C115.529 158.062 103.471 158.109 95.2926 149.647C94.0775 148.385 93.1428 148.431 91.7408 148.946C82.7677 152.499 76.5987 161.381 76.5519 171.199C76.5052 187.514 76.5519 203.783 76.5519 220.099C76.5519 220.613 76.6454 221.128 76.6921 221.782H142.448H142.401ZM71.9252 221.876C72.0186 221.315 72.1588 221.034 72.1588 220.8C72.1588 203.97 72.4393 187.094 72.0186 170.264C71.785 160.119 66.13 153.06 56.8765 148.899C55.4277 148.244 54.5398 148.525 53.3714 149.694C45.2863 158.015 33.0884 158.015 25.05 149.694C23.7882 148.385 22.8067 148.338 21.3112 148.992C12.4316 152.639 6.3093 161.381 6.26256 171.058C6.16909 186.813 6.26256 202.568 6.26256 218.323C6.26256 221.455 6.77665 221.876 10.0014 221.922C18.6006 221.922 27.1998 221.922 35.7991 221.922H71.9252V221.876ZM54.7267 131.929H54.5398C54.5398 130.339 54.5398 128.796 54.5398 127.254C54.3528 118.652 47.5295 111.92 39.0705 111.966C30.7049 111.966 23.9751 118.698 23.7882 127.16C23.7414 130.199 23.7414 133.191 23.7882 136.23C23.9284 144.177 29.817 150.629 37.6217 151.47C45.3797 152.265 52.5302 147.076 54.1192 139.315C54.6332 136.931 54.5398 134.406 54.68 131.975L54.7267 131.929ZM93.9841 131.601C93.9841 131.601 94.0775 131.601 94.1243 131.601C94.1243 133.238 94.1243 134.921 94.1243 136.557C94.4047 144.832 101.135 151.47 109.36 151.517C117.725 151.564 124.595 144.925 124.829 136.51C124.923 133.378 124.923 130.292 124.829 127.16C124.642 119.213 118.707 112.761 110.949 111.966C103.144 111.218 96.0871 116.361 94.4981 124.168C94.0308 126.552 94.1243 129.077 93.9373 131.555L93.9841 131.601ZM195.212 131.695C195.212 130.059 195.259 128.376 195.212 126.739C194.885 118.465 188.062 111.92 179.836 111.966C171.611 111.966 164.788 118.558 164.507 126.833C164.414 130.105 164.414 133.425 164.507 136.697C164.788 144.878 171.704 151.517 179.883 151.517C188.062 151.517 194.932 144.878 195.212 136.65C195.259 135.014 195.212 133.378 195.212 131.695Z" fill="#2192FF"/>
<path d="M109.547 228.047C76.2717 228.047 42.9964 228.047 9.72108 228.047C3.31839 228.047 0.0936808 224.821 0.0469458 218.416C0.0469458 213.741 0.0469458 209.066 0.0469458 204.391C0.0469458 194.667 0.140416 184.662 -0.0465241 174.798C-0.326934 159.885 5.84208 149.553 18.8344 143.382C17.0585 137.398 16.8715 130.9 18.1801 123.046C19.9093 112.621 29.49 105.234 40.5662 105.889C51.1283 106.543 59.9144 115.285 60.5687 125.804C60.7557 129.123 60.8024 132.349 60.5687 135.341C60.4285 137.492 60.1014 139.549 59.7742 141.746C59.6807 142.26 59.5873 142.821 59.5405 143.382C65.803 146.094 70.7102 150.582 74.2621 156.659C77.9541 150.395 82.7678 146 88.6564 143.522C88.563 142.073 88.5162 140.671 88.4227 139.221C88.1891 135.154 87.9554 131.274 87.9554 127.3C87.9554 115.426 97.5828 105.795 109.407 105.748C121.184 105.748 130.811 115.379 130.905 127.207C130.905 128.188 130.905 129.217 130.952 130.199C131.092 134.453 131.232 138.847 129.643 143.242C136.092 146.094 141 150.488 144.505 156.612C148.197 150.348 153.01 145.953 158.899 143.476C158.806 142.026 158.759 140.624 158.665 139.175C158.432 135.107 158.198 131.227 158.198 127.253C158.198 115.379 167.825 105.748 179.649 105.702C191.52 105.702 200.961 115.098 201.194 127.113V128.656C201.288 130.993 201.334 133.378 201.194 135.762C201.054 137.772 200.68 139.736 200.353 141.793C200.259 142.26 200.166 142.774 200.119 143.242L201.054 143.709C212.644 149.46 218.626 158.716 218.813 171.198C219 182.746 218.953 194.527 218.907 205.887V218.463C218.907 224.634 215.542 227.906 209.279 227.906C176.004 227.906 142.729 227.906 109.453 227.906L109.547 228.047ZM39.2576 109.301C30.5181 109.301 23.0873 115.239 21.732 123.56C20.4234 131.461 20.7505 137.866 22.7601 143.663L23.2742 145.205L21.7787 145.86C9.207 151.33 3.27166 160.773 3.55207 174.658C3.73901 184.569 3.69227 194.62 3.64554 204.344C3.64554 209.019 3.64554 213.694 3.64554 218.369C3.64554 222.764 5.37473 224.494 9.81455 224.494C76.3651 224.494 142.916 224.494 209.466 224.494C213.766 224.494 215.542 222.764 215.542 218.556V205.934C215.635 194.573 215.682 182.839 215.495 171.292C215.308 160.259 210.027 152.031 199.699 146.888L196.474 145.299L196.661 144.037C196.801 143.102 196.988 142.167 197.128 141.232C197.455 139.268 197.783 137.398 197.923 135.528C198.11 133.331 198.016 130.993 197.969 128.749V127.16C197.783 117.062 189.838 109.161 179.93 109.161C170.069 109.161 162.03 117.249 161.984 127.207C161.984 131.04 162.217 134.874 162.451 138.894C162.544 140.717 162.685 142.587 162.778 144.457V145.72L161.61 146.14C155.114 148.525 149.973 153.527 146.327 161.007L144.692 164.326L143.149 160.96C139.738 153.574 134.457 148.571 126.979 145.673L125.25 145.018L126.044 143.335C128.007 139.081 127.867 134.733 127.727 130.152C127.727 129.123 127.68 128.095 127.68 127.066C127.587 116.968 119.688 109.114 109.687 109.114C99.8261 109.114 91.7877 117.202 91.7409 127.16C91.7409 130.993 91.9746 134.827 92.2083 138.847C92.3017 140.671 92.442 142.541 92.5354 144.411V145.72L91.367 146.14C84.8709 148.525 79.73 153.527 76.0847 160.96L74.449 164.279L72.9067 160.96C69.5418 153.667 64.2608 148.618 57.2505 145.907L55.942 145.392L56.1289 144.037C56.2691 143.008 56.4093 141.98 56.5962 141.045C56.9234 138.941 57.2505 136.931 57.344 134.967C57.5309 132.069 57.5309 129.03 57.344 125.851C56.7832 117.062 49.4458 109.722 40.6129 109.208C40.239 109.208 39.8184 109.208 39.4445 109.208L39.2576 109.301ZM209.793 223.652C195.306 223.652 180.864 223.652 166.377 223.652L146.841 223.465L145.673 223.091L145.206 221.128C145.206 220.707 145.206 220.333 145.206 219.959V207.009C145.206 195.134 145.206 183.26 145.206 171.385C145.206 160.773 151.795 151.049 161.563 147.262C163.058 146.701 164.834 146.374 166.751 148.384C170.396 152.171 175.069 154.275 179.93 154.275C184.743 154.275 189.37 152.218 192.969 148.478C194.651 146.748 196.334 146.421 198.484 147.356C208.719 152.031 214.233 159.978 214.514 170.357C214.794 181.25 214.747 192.283 214.701 202.989C214.701 208.225 214.701 213.507 214.701 218.743C214.701 220.426 214.28 221.642 213.439 222.483C212.598 223.325 211.476 223.699 209.934 223.699L209.793 223.652ZM148.664 220.099H166.377C180.864 220.099 195.306 220.099 209.793 220.146C210.401 220.146 210.728 220.052 210.822 219.959C210.822 219.959 211.055 219.678 211.055 218.697C211.055 213.461 211.055 208.178 211.055 202.942C211.055 192.283 211.149 181.25 210.868 170.45C210.635 161.334 205.961 154.649 196.895 150.535C196.194 150.208 196.053 150.161 195.352 150.862C191.099 155.303 185.585 157.734 179.79 157.734C173.948 157.734 168.386 155.257 164.087 150.769C163.526 150.208 163.479 150.208 162.685 150.488C154.272 153.761 148.617 162.129 148.571 171.339C148.571 183.213 148.571 195.088 148.571 206.962V219.912C148.571 219.912 148.571 220.052 148.571 220.099H148.664ZM28.4618 223.652H9.95476C5.74861 223.652 4.44003 222.39 4.44003 218.323V206.822C4.44003 194.901 4.44003 182.979 4.44003 171.058C4.48677 160.867 10.9829 151.33 20.5636 147.403C22.1993 146.748 24.1154 146.327 26.2653 148.525C29.8171 152.218 34.3971 154.228 39.1174 154.228C43.8843 154.228 48.4644 152.218 52.0162 148.525C53.1846 147.356 54.8203 146.14 57.4842 147.356C67.8126 151.984 73.4208 159.932 73.6545 170.263C73.9349 182.185 73.8882 194.293 73.8414 205.981C73.8414 210.936 73.7947 215.892 73.7947 220.847C73.7947 221.221 73.7012 221.502 73.6545 221.829L73.2806 223.699H28.4151L28.4618 223.652ZM8.22556 220.052C8.22556 220.052 8.78638 220.146 10.0482 220.146H70.3363C70.3363 215.331 70.3831 210.656 70.4298 205.934C70.4765 194.246 70.57 182.185 70.2428 170.31C70.0092 161.287 65.2889 154.602 56.1289 150.488C55.5213 150.208 55.3344 150.114 54.5866 150.909C50.3338 155.303 44.8658 157.688 39.1641 157.688C33.4624 157.688 27.9945 155.257 23.7883 150.909C23.0873 150.208 22.9471 150.161 21.9656 150.582C13.6468 153.994 8.03862 162.222 7.99189 171.011C7.94515 182.933 7.99189 194.854 7.99189 206.729V218.229C7.99189 219.538 8.13209 219.865 8.17883 219.959L8.22556 220.052ZM144.224 223.559H75.1033L74.9163 221.361C74.9163 220.941 74.8229 220.52 74.8229 220.146V206.542C74.8229 194.761 74.8229 182.979 74.8229 171.198C74.8229 160.773 81.4125 151.189 91.1334 147.309C92.7224 146.701 94.5918 146.327 96.6014 148.431C100.2 152.171 104.78 154.228 109.5 154.228C114.267 154.228 118.894 152.171 122.539 148.384C124.128 146.748 125.764 146.421 127.774 147.309C138.055 151.797 143.663 159.417 143.991 169.328C144.411 181.577 144.318 194.106 144.224 206.168C144.224 211.357 144.131 216.546 144.131 221.782V223.559H144.224ZM78.3747 220.052H140.719C140.719 215.424 140.719 210.796 140.813 206.168C140.906 194.106 141 181.624 140.579 169.469C140.205 158.763 132.727 153.246 126.465 150.535C125.857 150.254 125.764 150.208 125.11 150.862C120.763 155.303 115.249 157.781 109.547 157.781C103.892 157.781 98.424 155.35 94.1244 150.909C93.5169 150.301 93.4234 150.254 92.4887 150.628C84.1231 153.948 78.4682 162.269 78.4215 171.245C78.3747 183.026 78.4215 194.807 78.4215 206.542V220.052H78.3747ZM39.3043 153.34C38.6968 153.34 38.1359 153.34 37.5284 153.246C28.9291 152.358 22.2928 145.065 22.1526 136.323C22.1058 133.284 22.1058 130.245 22.1526 127.207C22.3395 117.763 29.8171 110.33 39.1641 110.283H39.2576C48.6513 110.283 56.1756 117.716 56.4093 127.3C56.4093 128.329 56.4093 129.357 56.4093 130.386H56.5028V132.162C56.456 132.91 56.4093 133.658 56.4093 134.453C56.3626 136.183 56.2691 138.006 55.8952 139.782C54.2128 147.823 47.2492 153.433 39.2576 153.433L39.3043 153.34ZM39.2576 113.743H39.2108C31.78 113.743 25.8446 119.727 25.7044 127.207C25.6577 130.199 25.6577 133.191 25.7044 136.183C25.8446 143.195 31.079 148.992 37.949 149.693C44.8658 150.441 51.1283 145.766 52.577 138.894C52.9042 137.398 52.9509 135.809 52.9977 134.172C52.9977 133.939 52.9977 133.752 52.9977 133.518H52.9042V130.386C52.9042 129.357 52.9042 128.282 52.9042 127.253C52.7172 119.633 46.7352 113.696 39.2576 113.696V113.743ZM109.594 153.293H109.453C100.247 153.246 92.7691 145.907 92.4887 136.65C92.4887 135.575 92.4887 134.5 92.4887 133.424H92.3952V131.554C92.3952 130.806 92.3952 130.058 92.442 129.31C92.4887 127.581 92.5822 125.757 92.9093 123.981C94.6852 115.379 102.63 109.488 111.276 110.377C119.922 111.218 126.558 118.464 126.745 127.253C126.792 130.386 126.839 133.518 126.745 136.697C126.465 146.094 118.941 153.387 109.64 153.387L109.594 153.293ZM95.9003 129.965L95.9938 131.601V133.191C95.9938 134.266 95.9938 135.388 95.9938 136.463C96.2275 143.85 102.163 149.693 109.5 149.74H109.594C117.025 149.74 123.007 143.943 123.194 136.463C123.287 133.378 123.287 130.292 123.194 127.207C123.053 120.194 117.772 114.397 110.902 113.743C104.032 113.135 97.723 117.716 96.321 124.589C95.9938 126.085 95.9471 127.674 95.9003 129.357C95.9003 129.544 95.9003 129.778 95.9003 129.965ZM179.93 153.293C170.816 153.293 163.152 145.907 162.825 136.79C162.731 133.565 162.731 130.199 162.825 126.786C163.105 117.529 170.63 110.236 179.883 110.236C189.137 110.236 196.614 117.483 196.988 126.692C196.988 127.861 196.988 128.983 196.988 130.152V131.695V133.237C196.988 134.406 196.988 135.575 196.988 136.697C196.661 145.813 188.996 153.246 179.883 153.246L179.93 153.293ZM179.93 113.743C172.686 113.743 166.564 119.633 166.33 126.879C166.236 130.199 166.236 133.471 166.33 136.65C166.564 143.896 172.686 149.787 179.93 149.787C187.174 149.787 193.249 143.85 193.53 136.603C193.53 135.481 193.53 134.406 193.53 133.284V131.695V130.105C193.53 128.983 193.53 127.908 193.53 126.786C193.249 119.446 187.267 113.696 179.93 113.696V113.743Z" fill="#2192FF"/>
<path d="M109.36 94.3417C76.3186 94.3417 43.277 94.3417 10.2353 94.3417C3.55224 94.3417 0.794875 91.0225 2.47733 84.571C12.3384 46.6099 36.1265 20.7104 72.8602 8.46189C117.819 -6.49813 157.871 3.78689 191.287 37.6339C204.232 50.7239 212.317 66.7592 216.57 84.6645C218.112 91.116 215.449 94.3885 208.672 94.3885C188.529 94.3885 168.386 94.3885 148.244 94.3885C135.251 94.3885 122.259 94.3885 109.267 94.3885L109.36 94.3417ZM131.559 89.8537C131.559 89.2927 131.653 88.9187 131.653 88.5447C130.718 68.7695 128.568 49.1344 123.521 29.9202C121.885 23.7024 119.548 17.5314 116.511 11.8746C112.538 4.44139 107.21 4.48814 102.957 11.6876C100.481 15.8951 98.5177 20.5234 96.9754 25.1517C91.6009 41.7012 89.4511 58.8584 88.0958 76.1092C87.7219 80.644 87.535 85.132 87.2545 89.807H131.513L131.559 89.8537ZM100.107 7.57364C99.3589 7.66714 98.7513 7.71389 98.1438 7.85414C88.7033 10.0046 80.3845 14.4926 73.0004 20.7104C58.4191 33.0057 49.2123 48.8072 43.6041 66.7592C41.2673 74.1925 39.8186 81.9062 37.9024 89.807H82.581C83.5157 79.7557 84.1233 69.9382 85.3851 60.1207C87.7219 41.9817 90.4325 23.8894 100.107 7.57364ZM136.42 89.8537H180.491C180.444 88.9187 180.491 88.0772 180.351 87.3292C178.061 72.5562 173.714 58.4844 166.283 45.4412C158.292 31.4162 147.917 19.6352 133.195 12.3421C128.849 10.1916 124.128 8.83589 119.315 7.01264C132.961 33.4732 133.709 61.8504 136.42 89.8537ZM76.5055 12.0149C75.9914 12.0149 75.6643 11.9214 75.4306 12.0149C39.6316 25.0114 15.937 49.1812 6.49654 86.5345C5.88899 88.9187 6.73021 89.9005 9.30064 89.9472C13.6003 89.994 17.8999 89.9472 22.1995 89.9472C26.1252 89.9472 30.0042 89.9472 33.8832 89.9472C38.6035 58.6247 49.8666 31.1824 76.5055 12.0149ZM142.402 11.9214C169.274 31.2292 180.444 58.7182 185.211 89.807C185.865 89.8537 186.52 89.9472 187.127 89.9472C194.558 89.9472 201.942 89.9472 209.373 89.9472C212.551 89.9472 213.252 89.1057 212.411 85.88C202.924 48.9942 179.416 25.1049 144.084 12.1551C143.71 12.0149 143.243 12.0149 142.449 11.8746L142.402 11.9214Z" fill="#2192FF"/>
<path d="M168.48 96.118H10.2352C6.26272 96.118 3.41189 95.0428 1.77617 92.8923C0.140443 90.7885 -0.186702 87.8433 0.794732 84.15C10.8895 45.254 34.958 19.2142 72.3459 6.77868C117.772 -8.32158 158.198 1.63618 192.595 36.3715C205.167 49.0875 213.859 65.2162 218.346 84.2435C219.234 87.9835 218.86 90.882 217.224 92.939C215.589 95.0428 212.738 96.118 208.765 96.118H168.48ZM112.024 3.45943C99.6392 3.45943 86.7403 5.65668 73.4676 10.0979C37.248 22.1594 13.9273 47.3577 4.15965 84.9915C3.45862 87.6095 3.59883 89.5263 4.53353 90.7418C5.7019 92.2845 8.27232 92.6118 10.2352 92.6118H208.719C211.569 92.6118 213.486 92.004 214.42 90.7885C215.355 89.6198 215.495 87.6563 214.888 85.0383C210.541 66.6187 202.176 51.0977 190.071 38.8492C166.797 15.2872 140.672 3.45943 112.024 3.45943ZM14.5348 91.7235C12.7589 91.7235 11.0297 91.7235 9.25376 91.7235C8.55273 91.7235 6.44966 91.7235 5.28129 90.1808C4.48679 89.199 4.34659 87.8433 4.7672 86.1135C14.0675 49.3212 37.6219 23.8424 74.8229 10.3784C75.2902 10.1914 75.7576 10.1914 76.0847 10.2382C76.8325 10.2382 77.7205 10.7524 77.9541 11.4537C78.1878 12.2017 78.1411 12.9964 77.4868 13.4172C54.3063 30.107 40.9868 54.5105 35.5655 90.1808C35.4253 91.0223 34.6776 91.6768 33.8363 91.6768H18.3671C17.1052 91.6768 15.7967 91.6768 14.5348 91.6768V91.7235ZM8.08539 88.0303C8.08539 88.0303 8.41253 88.1705 9.30049 88.2173C12.3383 88.2173 15.3293 88.2173 18.3671 88.2173H32.3876C37.3882 56.7545 48.5579 33.8937 67.1584 17.2507C36.2666 30.9485 16.4042 54.3702 8.17885 86.955C7.99192 87.703 8.03865 87.9835 8.08539 88.0303ZM198.951 91.7235C194.978 91.7235 191.053 91.7235 187.08 91.7235C186.613 91.7235 186.146 91.7235 185.678 91.63H185.071C184.276 91.5365 183.575 90.882 183.482 90.0873C178.014 54.4637 164.647 30.0602 141.373 13.3237C140.719 12.8562 140.486 11.9679 140.766 11.2199C141.093 10.4719 141.841 10.0044 142.635 10.1447L143.336 10.2382C143.757 10.2849 144.178 10.3317 144.645 10.5187C181.379 23.9827 204.746 49.181 214.093 85.459C214.514 87.0485 214.794 88.8718 213.766 90.1808C212.738 91.4898 210.962 91.6768 209.373 91.6768C205.914 91.6768 202.456 91.6768 198.998 91.6768L198.951 91.7235ZM186.706 88.2173C186.706 88.2173 186.987 88.2173 187.127 88.2173C194.511 88.2173 201.942 88.2173 209.326 88.2173C210.541 88.2173 210.915 88.077 211.009 88.0303C210.962 88.0303 211.009 87.5628 210.681 86.3473C202.409 54.0897 182.594 30.855 151.749 17.2039C170.443 33.8937 181.659 56.7545 186.706 88.2173ZM131.559 91.63H87.3011C86.8338 91.63 86.3664 91.443 86.0393 91.069C85.7121 90.695 85.5252 90.2275 85.5719 89.76L85.8056 85.4123C85.9926 82.28 86.1328 79.1478 86.3664 76.0623C87.5815 60.4945 89.5911 42.1685 95.2928 24.684C96.9753 19.5882 99.0316 14.9132 101.415 10.8459C104.5 5.60993 107.631 4.39443 109.921 4.58143C112.071 4.58143 115.202 5.79693 118.053 11.0797C121.091 16.6897 123.474 22.9074 125.203 29.4992C129.69 46.5162 132.307 65.263 133.382 88.451C133.382 88.7783 133.382 89.0588 133.335 89.4328V89.947C133.195 90.882 132.447 91.5833 131.559 91.5833V91.63ZM89.1238 88.1238H129.877C128.755 65.4032 126.231 47.0772 121.838 30.4342C120.156 24.0762 117.866 18.1389 114.968 12.7627C113.379 9.81743 111.557 8.13443 109.874 8.08768C108.285 8.22793 106.229 9.67718 104.453 12.6224C102.163 16.4559 100.2 20.8972 98.611 25.7592C93.0495 42.9165 91.0399 60.9152 89.8248 76.3428C89.5911 79.4283 89.4042 82.5138 89.264 85.646L89.1238 88.1705V88.1238ZM180.491 91.5833H136.42C135.532 91.5833 134.784 90.882 134.69 89.9938C134.316 86.3005 133.989 82.5605 133.709 78.8673C131.653 55.0715 129.503 30.4342 117.819 7.80718C117.492 7.15268 117.585 6.35793 118.053 5.84368C118.52 5.28268 119.315 5.09568 119.969 5.37618C121.464 5.93718 122.96 6.45143 124.455 6.96568C127.774 8.13443 130.905 9.20968 133.989 10.7524C147.636 17.4844 158.712 28.5175 167.825 44.5527C174.976 57.0817 179.649 70.9665 182.126 87.0485C182.22 87.6563 182.267 88.264 182.267 88.9185V89.76C182.313 90.2275 182.126 90.695 181.799 91.069C181.472 91.443 181.005 91.63 180.537 91.63L180.491 91.5833ZM138.009 88.077H178.668C178.668 88.077 178.668 87.7498 178.621 87.5628C176.191 71.9482 171.658 58.4375 164.741 46.2825C156.002 30.9017 145.393 20.2894 132.4 13.9314C129.503 12.5289 126.465 11.4537 123.24 10.3317C123.1 10.2849 122.96 10.2382 122.773 10.1914C133.101 32.351 135.158 55.8662 137.121 78.6335C137.401 81.8125 137.681 84.9915 137.962 88.1238L138.009 88.077ZM82.5809 91.5365H37.8556C37.2947 91.5365 36.8274 91.3028 36.5002 90.882C36.1731 90.4613 36.0329 89.9003 36.1731 89.386C36.7806 86.9083 37.3415 84.4773 37.9023 82.0463C39.1641 76.5765 40.3325 71.434 41.9682 66.2447C48.1372 46.4695 57.9516 31.1355 71.8786 19.3544C79.7301 12.7159 88.4695 8.27468 97.7698 6.17093C98.2371 6.07743 98.7512 5.98393 99.2653 5.93718L99.8728 5.84368C100.527 5.79693 101.181 6.07743 101.555 6.63843C101.929 7.19943 101.929 7.94743 101.555 8.50843C92.3018 24.0762 89.4977 41.2335 87.0675 60.3542C86.2262 66.9927 85.6187 73.865 85.0579 80.5035C84.7775 83.6358 84.5438 86.8148 84.2166 89.9938C84.1232 90.882 83.3754 91.5833 82.4874 91.5833L82.5809 91.5365ZM40.1456 88.0303H80.9919C81.2256 85.4123 81.4593 82.7943 81.6462 80.1763C82.207 73.491 82.7678 66.6187 83.6558 59.8867C85.9926 41.6542 88.6565 25.245 96.7416 10.0044C88.6565 12.1549 81.0386 16.1754 74.1219 22.0192C60.7089 33.3327 51.2685 48.1057 45.2864 67.2732C43.6974 72.3223 42.529 77.418 41.3139 82.7943C40.9401 84.524 40.5194 86.2538 40.0988 88.0303H40.1456Z" fill="#2192FF"/>
<path d="M35.1445 197.893C35.7988 197.659 36.3129 197.612 36.64 197.332C43.8372 190.179 51.0811 183.026 58.1381 175.733C58.6054 175.266 58.3718 173.536 57.8577 172.881C57.4838 172.414 56.035 172.554 55.1938 172.788C54.5862 172.975 54.1189 173.723 53.6048 174.237C48.4172 179.426 43.2764 184.616 38.042 189.758C35.8455 191.955 35.051 191.909 32.8545 189.711C31.0785 187.982 29.3493 186.252 27.6202 184.475C26.4518 183.307 25.003 182.559 23.9281 184.055C23.414 184.756 23.7879 186.766 24.4889 187.514C27.293 190.646 30.3308 193.545 33.3686 196.49C33.9294 197.051 34.6304 197.425 35.238 197.893H35.1445Z" fill="#2D388B"/>
<path d="M34.8643 199.856L33.6024 198.968C33.0416 198.594 32.5275 198.22 32.0602 197.752L30.3777 196.116C27.9475 193.732 25.4238 191.301 23.1338 188.683C22.0589 187.514 21.3579 184.616 22.4795 183.026C23.3207 181.857 24.3489 181.53 25.0499 181.483C26.3118 181.437 27.5736 181.998 28.8355 183.26C30.5646 185.036 32.2938 186.719 34.0698 188.496C35.0512 189.478 35.4251 189.618 35.5186 189.665C35.5186 189.665 35.8457 189.524 36.8271 188.543C40.192 185.223 43.557 181.857 46.8751 178.491L52.717 172.648C53.1844 172.133 53.7919 171.385 54.7734 171.105C55.5211 170.918 58.0915 170.357 59.2599 171.806C60.1946 172.975 60.662 175.686 59.4469 176.995C52.717 183.914 45.847 190.693 39.0237 197.519L37.902 198.594C37.3879 199.108 36.7804 199.295 36.2663 199.389L34.911 199.856H34.8643ZM25.2836 184.99C25.2836 184.99 25.5173 186.112 25.7509 186.392C27.9942 188.87 30.4244 191.301 32.8079 193.638L34.4904 195.321C34.7708 195.602 35.0512 195.789 35.3783 195.976L36.4533 195.041C43.2298 188.356 49.9597 181.624 56.596 174.845C56.596 174.705 56.596 174.564 56.5493 174.424C56.2689 174.424 55.9417 174.471 55.5679 174.564C55.6146 174.564 55.3809 174.798 55.2407 174.985C55.0538 175.172 54.9136 175.359 54.7266 175.546L49.2586 181.016C45.8937 184.382 42.5755 187.748 39.2106 191.067C36.3598 193.919 34.4904 193.919 31.5461 191.067C29.7702 189.337 27.9942 187.561 26.265 185.831C25.6107 185.13 25.2369 185.083 25.2369 185.083L25.2836 184.99Z" fill="#2D388B"/>
<path d="M104.593 197.893C105.247 197.659 105.761 197.612 106.088 197.332C113.285 190.179 120.529 183.026 127.586 175.733C128.054 175.266 127.82 173.536 127.306 172.881C126.932 172.414 125.483 172.554 124.642 172.788C124.034 172.975 123.567 173.723 123.053 174.237C117.865 179.426 112.725 184.616 107.49 189.758C105.294 191.955 104.499 191.909 102.303 189.711C100.527 187.982 98.7976 186.252 97.0684 184.475C95.9 183.307 94.4512 182.559 93.3763 184.055C92.8622 184.756 93.2361 186.766 93.9372 187.514C96.7413 190.646 99.779 193.545 102.817 196.49C103.378 197.051 104.079 197.425 104.686 197.893H104.593Z" fill="#2D388B"/>
<path d="M104.313 199.856L103.051 198.968C102.49 198.594 101.976 198.22 101.508 197.752L99.826 196.116C97.3957 193.732 94.872 191.301 92.582 188.683C91.5071 187.514 90.8061 184.616 91.9277 183.026C92.769 181.857 93.7971 181.53 94.4982 181.483C95.76 181.437 97.0219 181.998 98.2837 183.26C100.013 185.036 101.742 186.719 103.518 188.496C104.499 189.478 104.873 189.618 104.967 189.665C104.967 189.665 105.294 189.524 106.275 188.543C109.64 185.223 113.005 181.857 116.323 178.491L122.165 172.648C122.633 172.133 123.24 171.385 124.222 171.105C124.969 170.918 127.54 170.357 128.708 171.806C129.643 172.975 130.11 175.686 128.895 176.995C122.165 183.914 115.295 190.693 108.472 197.519L107.35 198.594C106.836 199.108 106.229 199.295 105.715 199.389L104.359 199.856H104.313ZM94.7318 184.99C94.7318 184.99 94.9655 186.112 95.1992 186.392C97.4425 188.87 99.8727 191.301 102.256 193.638L103.939 195.321C104.219 195.602 104.499 195.789 104.827 195.976L105.901 195.041C112.678 188.356 119.408 181.624 126.044 174.845C126.044 174.705 126.044 174.564 125.998 174.424C125.717 174.424 125.39 174.471 125.016 174.564C125.063 174.564 124.829 174.798 124.689 174.985C124.502 175.172 124.362 175.359 124.175 175.546L118.707 181.016C115.342 184.382 112.024 187.748 108.659 191.067C105.808 193.919 103.939 193.919 100.994 191.067C99.2184 189.337 97.4425 187.561 95.7133 185.831C95.059 185.13 94.6851 185.083 94.6851 185.083L94.7318 184.99Z" fill="#2D388B"/>
<path d="M173.994 197.893C174.648 197.659 175.162 197.612 175.49 197.332C182.687 190.179 189.931 183.026 196.988 175.733C197.455 175.266 197.221 173.536 196.707 172.881C196.333 172.414 194.885 172.554 194.043 172.788C193.436 172.975 192.968 173.723 192.454 174.237C187.267 179.426 182.126 184.616 176.892 189.758C174.695 191.955 173.901 191.909 171.704 189.711C169.928 187.982 168.199 186.252 166.47 184.475C165.301 183.307 163.853 182.559 162.778 184.055C162.264 184.756 162.637 186.766 163.339 187.514C166.143 190.646 169.18 193.545 172.218 196.49C172.779 197.051 173.48 197.425 174.088 197.893H173.994Z" fill="#2D388B"/>
<path d="M173.714 199.856L172.452 198.968C171.938 198.594 171.377 198.22 170.91 197.752L169.227 196.116C166.797 193.732 164.273 191.301 161.983 188.683C160.908 187.514 160.207 184.616 161.329 183.026C162.17 181.857 163.199 181.53 163.9 181.483C165.161 181.437 166.423 181.998 167.685 183.26C169.414 185.036 171.143 186.719 172.919 188.496C173.901 189.478 174.275 189.618 174.368 189.665C174.368 189.665 174.695 189.524 175.677 188.543L191.567 172.648C192.034 172.133 192.642 171.385 193.623 171.105C194.371 170.918 196.941 170.357 198.11 171.806C199.044 172.975 199.512 175.686 198.296 176.995C191.567 183.914 184.697 190.693 177.873 197.519L176.752 198.594C176.238 199.108 175.63 199.295 175.116 199.389L173.761 199.856H173.714ZM164.133 184.99C164.133 184.99 164.367 186.112 164.601 186.392C166.844 188.87 169.274 191.301 171.658 193.638L173.34 195.321C173.62 195.602 173.901 195.789 174.228 195.976L175.303 195.041C182.079 188.356 188.809 181.624 195.446 174.845C195.446 174.705 195.446 174.564 195.399 174.424C195.118 174.424 194.791 174.471 194.417 174.564C194.464 174.564 194.231 174.798 194.09 174.985C193.903 175.172 193.763 175.359 193.576 175.546L178.013 191.067C175.116 193.919 173.293 193.919 170.349 191.067C168.573 189.337 166.797 187.561 165.068 185.831C164.414 185.13 164.04 185.083 164.04 185.083L164.133 184.99Z" fill="#2D388B"/>
</g>
<defs>
<clipPath id="clip0_176_3891">
<rect width="219" height="228" fill="white"/>
</clipPath>
</defs>
</svg>
