<svg width="90" height="90" viewBox="0 0 90 90" fill="none" xmlns="http://www.w3.org/2000/svg">
<path d="M80.0307 0C67.3464 -1.15169e-05 54.8407 6.87942 44.7601 16.5556C37.0779 23.9296 30.7718 32.9454 26.8729 41.9288L15.7159 35.8824L24.0297 26.201H28.0606C28.2132 26.2031 28.3647 26.1749 28.5064 26.118C28.648 26.0611 28.7769 25.9766 28.8856 25.8695C28.9943 25.7623 29.0806 25.6346 29.1395 25.4938C29.1984 25.353 29.2287 25.2019 29.2287 25.0493C29.2287 24.8967 29.1984 24.7455 29.1395 24.6047C29.0806 24.4639 28.9943 24.3363 28.8856 24.2291C28.7769 24.1219 28.648 24.0374 28.5064 23.9805C28.3647 23.9236 28.2132 23.8954 28.0606 23.8976H23.4898C23.4539 23.8959 23.4178 23.8959 23.3819 23.8976C23.2303 23.9081 23.0823 23.9485 22.9464 24.0164C22.8105 24.0844 22.6894 24.1785 22.5901 24.2935L13.0526 35.4505C12.9405 35.5809 12.859 35.7347 12.814 35.9007C12.7691 36.0666 12.7619 36.2406 12.793 36.4097C12.824 36.5788 12.8926 36.7388 12.9936 36.878C13.0945 37.0172 13.2254 37.132 13.3766 37.214L25.9732 44.0882C25.1574 46.1732 24.4917 48.2316 23.9577 50.2785C23.9101 50.4681 23.9116 50.6667 23.962 50.8556C24.0123 51.0445 24.11 51.2175 24.2456 51.3582L38.6058 65.7184C38.7501 65.8601 38.9292 65.9613 39.125 66.0119C39.3209 66.0624 39.5266 66.0605 39.7215 66.0063C41.7599 65.4745 43.8355 64.8003 45.9118 63.9908L52.75 76.6234C52.832 76.7746 52.9468 76.9055 53.086 77.0064C53.2252 77.1074 53.3852 77.176 53.5543 77.207C53.7234 77.2381 53.8974 77.2309 54.0634 77.186C54.2293 77.141 54.3832 77.0595 54.5135 76.9474L65.6705 67.3739C65.8007 67.2698 65.9068 67.1386 65.9814 66.9895C66.0559 66.8404 66.0972 66.6768 66.1024 66.5102V61.9394C66.1066 61.7644 66.0709 61.5908 65.998 61.4317C65.9251 61.2726 65.8169 61.1322 65.6815 61.0211C65.5462 60.9101 65.3874 60.8314 65.2171 60.7909C65.0468 60.7505 64.8696 60.7494 64.6988 60.7877C64.4387 60.8459 64.2069 60.9926 64.0428 61.2026C63.8788 61.4126 63.7926 61.673 63.799 61.9394V65.9703L54.1176 74.2481L48.0712 63.0911C57.0566 59.2023 66.0688 52.9239 73.4444 45.2399C83.1205 35.1594 90 22.6538 90 9.96933C90 7.01828 89.9105 4.19144 88.9203 1.69155C88.8664 1.54834 88.7846 1.4173 88.6796 1.30607C88.5745 1.19484 88.4484 1.10566 88.3085 1.04372C85.8086 0.0535882 82.9818 0 80.0307 0ZM80.0307 2.30338C82.6982 2.30338 85.0118 2.4732 86.9048 3.09517C87.5268 4.98827 87.6966 7.3018 87.6966 9.96933C87.6966 21.8131 81.1472 33.8333 71.7529 43.6203C62.5202 53.2389 50.5848 60.6153 39.7215 63.5949L26.4051 50.2425C27.572 45.9991 29.3935 41.6003 31.7676 37.25L48.0712 53.5536C48.1799 53.66 48.3085 53.744 48.4497 53.8007C48.5908 53.8573 48.7417 53.8857 48.8938 53.884C49.0459 53.8824 49.1962 53.8508 49.3361 53.791C49.4759 53.7313 49.6027 53.6446 49.709 53.5359C49.8154 53.4271 49.8993 53.2985 49.956 53.1574C50.0126 53.0162 50.0409 52.8653 50.0392 52.7132C50.0375 52.5611 50.0059 52.4108 49.9461 52.271C49.8863 52.1311 49.7996 52.0044 49.6908 51.8981L32.9913 35.1986C36.5495 29.146 41.087 23.2569 46.3437 18.2111C56.1307 8.81674 68.1871 2.30338 80.0307 2.30338ZM69.7014 14.756C66.6658 14.756 64.1949 17.2629 64.1949 20.2986C64.1949 23.3342 66.6658 25.8051 69.7014 25.8051C72.7371 25.8051 75.244 23.3342 75.244 20.2986C75.244 17.2629 72.7371 14.756 69.7014 14.756ZM69.7014 17.0594C71.4923 17.0594 72.9406 18.5077 72.9406 20.2986C72.9406 22.0894 71.4923 23.5017 69.7014 23.5017C67.9106 23.5017 66.4983 22.0894 66.4983 20.2986C66.4983 18.5077 67.9106 17.0594 69.7014 17.0594ZM16.9396 54.7053C16.8425 54.7051 16.7457 54.7172 16.6517 54.7413C16.5898 54.7602 16.5296 54.7843 16.4717 54.8133L0.959883 60.1039C0.795977 60.1316 0.640008 60.1944 0.50269 60.2881C0.365372 60.3818 0.249959 60.5041 0.164378 60.6466C0.0787964 60.7891 0.025074 60.9484 0.00690259 61.1137C-0.0112689 61.2789 0.00654115 61.4461 0.0591077 61.6038C0.111674 61.7615 0.197753 61.906 0.31143 62.0273C0.425108 62.1485 0.56369 62.2438 0.717659 62.3064C0.871629 62.3691 1.03734 62.3977 1.2034 62.3902C1.36946 62.3828 1.53195 62.3395 1.67969 62.2633L17.2275 56.9727C17.4985 56.9021 17.7345 56.7353 17.8914 56.5033C18.0483 56.2714 18.1154 55.9903 18.0801 55.7125C18.0449 55.4347 17.9096 55.1792 17.6997 54.9939C17.4898 54.8085 17.2196 54.706 16.9396 54.7053ZM25.4693 63.235C25.2067 63.2727 24.9652 63.3998 24.7855 63.5949L7.43815 80.9063C7.22338 81.1258 7.10462 81.4217 7.10799 81.7288C7.11137 82.0359 7.2366 82.3291 7.45614 82.5439C7.67568 82.7586 7.97155 82.8774 8.27865 82.874C8.58575 82.8706 8.87893 82.7454 9.0937 82.5259L26.4051 65.2145C26.5815 65.0476 26.7006 64.8292 26.7455 64.5905C26.7904 64.3518 26.7586 64.1051 26.6548 63.8855C26.551 63.666 26.3805 63.4848 26.1676 63.368C25.9547 63.2512 25.7103 63.2046 25.4693 63.235ZM33.8911 71.9807C33.6829 72.0174 33.4888 72.1107 33.3301 72.2503C33.1714 72.39 33.0542 72.5706 32.9913 72.7725L27.7007 88.2843C27.6504 88.4286 27.629 88.5815 27.6379 88.7341C27.6468 88.8867 27.6857 89.036 27.7525 89.1735C27.8192 89.311 27.9124 89.434 28.0268 89.5354C28.1412 89.6368 28.2745 89.7146 28.419 89.7644C28.5635 89.8141 28.7164 89.8348 28.869 89.8253C29.0216 89.8158 29.1707 89.7763 29.308 89.709C29.4452 89.6417 29.5678 89.548 29.6688 89.4332C29.7697 89.3184 29.8469 89.1848 29.8961 89.0401L35.1867 73.5283C35.2614 73.3361 35.2832 73.1273 35.2497 72.9239C35.2162 72.7204 35.1287 72.5296 34.9963 72.3715C34.864 72.2134 34.6916 72.0937 34.4971 72.0249C34.3027 71.9562 34.0934 71.9409 33.8911 71.9807Z" fill="black"/>
</svg>
