<svg width="90" height="90" viewBox="0 0 90 90" fill="none" xmlns="http://www.w3.org/2000/svg">
<path d="M45.0001 82.3078C24.4232 82.3078 7.69238 65.577 7.69238 45.0001C7.69238 24.4232 24.4232 7.69238 45.0001 7.69238C65.577 7.69238 82.3078 24.4232 82.3078 45.0001C82.3078 65.577 65.577 82.3078 45.0001 82.3078ZM45.0001" fill="#faf7f4"/>
<path d="M45.0001 82.3078C24.4232 82.3078 7.69238 65.577 7.69238 45.0001C7.69238 24.4232 24.4232 7.69238 45.0001 7.69238C65.577 7.69238 82.3078 24.4232 82.3078 45.0001C82.3078 65.577 65.577 82.3078 45.0001 82.3078ZM45.0001 9.23084C25.2693 9.23084 9.23084 25.2693 9.23084 45.0001C9.23084 64.7308 25.2693 80.7693 45.0001 80.7693C64.7308 80.7693 80.7693 64.7308 80.7693 45.0001C80.7693 25.2693 64.7308 9.23084 45.0001 9.23084Z" fill="black"/>

<path d="M45.0005 68.8461C31.8466 68.8461 21.1543 58.1538 21.1543 45C21.1543 31.8461 31.8466 21.1538 45.0005 21.1538C58.1543 21.1538 68.8466 31.8461 68.8466 45C68.8466 58.1538 58.1543 68.8461 45.0005 " fill="#faf7f4"/>
<path d="M45.0005 68.8461C31.8466 68.8461 21.1543 58.1538 21.1543 45C21.1543 31.8461 31.8466 21.1538 45.0005 21.1538C58.1543 21.1538 68.8466 31.8461 68.8466 45C68.8466 58.1538 58.1543 68.8461 45.0005 68.8461ZM45.0005 22.6923C32.6928 22.6923 22.6928 32.6923 22.6928 45C22.6928 57.3077 32.6928 67.3077 45.0005 67.3077C57.3081 67.3077 67.3081 57.3077 67.3081 45C67.3081 32.6923 57.3081 22.6923 45.0005 22.6923Z" fill="black"/>

<path d="M44.9997 30.3846C44.5766 30.3846 44.2305 30.0385 44.2305 29.6154V0.769231C44.2305 0.346154 44.5766 0 44.9997 0C45.4228 0 45.7689 0.346154 45.7689 0.769231V29.6154C45.7689 30.0385 45.4228 30.3846 44.9997 30.3846Z" fill="black"/>

<path d="M44.9997 89.9999C44.5766 89.9999 44.2305 89.6537 44.2305 89.2306V60.3845C44.2305 59.9614 44.5766 59.6152 44.9997 59.6152C45.4228 59.6152 45.7689 59.9614 45.7689 60.3845V89.2306C45.7689 89.6537 45.4228 89.9999 44.9997 89.9999Z" fill="black"/>

<path d="M89.2306 45.7694H60.3845C59.9614 45.7694 59.6152 45.4233 59.6152 45.0002C59.6152 44.5771 59.9614 44.231 60.3845 44.231H89.2306C89.6537 44.231 89.9999 44.5771 89.9999 45.0002C89.9999 45.4233 89.6537 45.7694 89.2306 45.7694Z" fill="black"/>

<path d="M29.6154 45.7694H0.769231C0.346154 45.7694 0 45.4233 0 45.0002C0 44.5771 0.346154 44.231 0.769231 44.231H29.6154C30.0385 44.231 30.3846 44.5771 30.3846 45.0002C30.3846 45.4233 30.0385 45.7694 29.6154 45.7694Z" fill="black"/>

<path d="M52.6919 55.3845H37.3073C36.8842 55.3845 36.5381 55.0384 36.5381 54.6153V50.7692C36.5381 46.0961 40.3265 42.3076 44.9996 42.3076C49.6727 42.3076 53.4612 46.0961 53.4612 50.7692V54.6153C53.4612 55.0384 53.115 55.3845 52.6919 " fill="#faf7f4"/>
<path d="M52.6919 55.3845H37.3073C36.8842 55.3845 36.5381 55.0384 36.5381 54.6153V50.7692C36.5381 46.0961 40.3265 42.3076 44.9996 42.3076C49.6727 42.3076 53.4612 46.0961 53.4612 50.7692V54.6153C53.4612 55.0384 53.115 55.3845 52.6919 55.3845ZM38.0765 53.8461H51.9227V50.7692C51.9227 46.9422 48.8265 43.8461 44.9996 43.8461C41.1727 43.8461 38.0765 46.9422 38.0765 50.7692V53.8461Z" fill="black"/>

<path d="M45.0002 43.846C42.4617 43.846 40.3848 41.7691 40.3848 39.2306C40.3848 36.6922 42.4617 34.6152 45.0002 34.6152C47.5386 34.6152 49.6155 36.6922 49.6155 39.2306C49.6155 41.7691 47.5386 43.846 45.0002 " fill="#faf7f4"/>
<path d="M45.0002 43.846C42.4617 43.846 40.3848 41.7691 40.3848 39.2306C40.3848 36.6922 42.4617 34.6152 45.0002 34.6152C47.5386 34.6152 49.6155 36.6922 49.6155 39.2306C49.6155 41.7691 47.5386 43.846 45.0002 43.846ZM45.0002 36.1537C43.3078 36.1537 41.9232 37.5383 41.9232 39.2306C41.9232 40.9229 43.3078 42.3075 45.0002 42.3075C46.6925 42.3075 48.0771 40.9229 48.0771 39.2306C48.0771 37.5383 46.6925 36.1537 45.0002 36.1537Z" fill="black"/>
</svg>
