<svg width="86" height="86" viewBox="0 0 86 86" fill="none" xmlns="http://www.w3.org/2000/svg">
<path d="M10.8125 0.00440356C10.5809 0.0485865 10.3724 0.17313 10.2238 0.356088C10.0751 0.539046 9.99585 0.768644 10 1.00434V8.00398H1C0.734791 8.004 0.480453 8.10936 0.292922 8.29688C0.105391 8.4844 2.62e-05 8.73878 0 9.00398V47.002C3.94585e-05 47.2672 0.10541 47.5215 0.29294 47.7091C0.480469 47.8966 0.7348 48.0019 1 48.0019H13C13.2652 48.0019 13.5195 47.8966 13.7071 47.7091C13.8946 47.5215 14 47.2672 14 47.002C14 33.2668 26.8998 22.0033 43 22.0033C59.1002 22.0033 71.9461 33.2621 72 47.002C72 47.2672 72.1054 47.5215 72.2929 47.7091C72.4805 47.8966 72.7348 48.0019 73 48.0019H85C85.2652 48.0019 85.5195 47.8966 85.7071 47.7091C85.8946 47.5215 86 47.2672 86 47.002V9.00398C86 8.73878 85.8946 8.4844 85.7071 8.29688C85.5195 8.10936 85.2652 8.004 85 8.00398H76V1.00434C76 0.739148 75.8946 0.484833 75.7071 0.297311C75.5195 0.10979 75.2652 0.00443008 75 0.00440356H63C62.7348 0.00443008 62.4805 0.10979 62.2929 0.297311C62.1054 0.484833 62 0.739148 62 1.00434V8.00398H50V1.00434C50 0.739148 49.8946 0.484833 49.7071 0.297311C49.5195 0.10979 49.2652 0.00443008 49 0.00440356H37C36.7348 0.00443008 36.4805 0.10979 36.2929 0.297311C36.1054 0.484833 36 0.739148 36 1.00434V8.00398H24V1.00434C24 0.739148 23.8946 0.484833 23.7071 0.297311C23.5195 0.10979 23.2652 0.00443008 23 0.00440356H11C10.9376 -0.00146785 10.8749 -0.00146785 10.8125 0.00440356ZM12 2.00428H22V9.00398C22 9.26917 22.1054 9.52349 22.2929 9.71101C22.4805 9.89853 22.7348 10.0039 23 10.0039H37C37.2652 10.0039 37.5195 9.89853 37.7071 9.71101C37.8946 9.52349 38 9.26917 38 9.00398V2.00428H48V9.00398C48 9.26917 48.1054 9.52349 48.2929 9.71101C48.4805 9.89853 48.7348 10.0039 49 10.0039H63C63.2652 10.0039 63.5195 9.89853 63.7071 9.71101C63.8946 9.52349 64 9.26917 64 9.00398V2.00428H74V9.00398C74 9.26917 74.1054 9.52349 74.2929 9.71101C74.4805 9.89853 74.7348 10.0039 75 10.0039H84V46.002H73.875C73.2192 31.4918 59.6571 20.0034 43 20.0034C26.353 20.0034 12.7439 31.4999 12.125 46.002H2V10.0039H11C11.2652 10.0039 11.5195 9.89853 11.7071 9.71101C11.8946 9.52349 12 9.26917 12 9.00398V2.00428ZM31.8125 32.0028C31.6766 32.0311 31.548 32.0873 31.435 32.168C31.322 32.2487 31.2271 32.3521 31.1562 32.4715L0.15625 84.4689C0.061534 84.62 0.00894139 84.7936 0.00392056 84.9718C-0.00110028 85.1501 0.0416331 85.3264 0.127694 85.4826C0.213755 85.6387 0.340013 85.7691 0.493387 85.8601C0.646761 85.9511 0.821673 85.9994 1 86H85C85.1783 85.9994 85.3532 85.9511 85.5066 85.8601C85.66 85.7691 85.7862 85.6387 85.8723 85.4826C85.9584 85.3264 86.0011 85.1501 85.9961 84.9718C85.9911 84.7936 85.9385 84.62 85.8438 84.4689L54.8438 32.4715C54.7541 32.3285 54.6297 32.2106 54.4822 32.1286C54.3346 32.0467 54.1688 32.0033 54 32.0028H32C31.9376 31.9969 31.8749 31.9969 31.8125 32.0028ZM32.5312 34.0027H42V40.0024C41.9981 40.1349 42.0226 40.2664 42.072 40.3894C42.1214 40.5124 42.1948 40.6243 42.2878 40.7186C42.3809 40.813 42.4918 40.888 42.614 40.9391C42.7363 40.9902 42.8675 41.0165 43 41.0165C43.1325 41.0165 43.2637 40.9902 43.386 40.9391C43.5082 40.888 43.6191 40.813 43.7122 40.7186C43.8052 40.6243 43.8786 40.5124 43.928 40.3894C43.9774 40.2664 44.0019 40.1349 44 40.0024V34.0027H53.4688L83.25 84.0001H44V76.0005C44.0057 75.8554 43.9797 75.7108 43.9238 75.5768C43.8679 75.4427 43.7835 75.3224 43.6765 75.2243C43.5694 75.1261 43.4422 75.0525 43.3038 75.0084C43.1654 74.9644 43.0191 74.9511 42.875 74.9694C42.6265 75.0005 42.3988 75.1236 42.2368 75.3146C42.0747 75.5055 41.9903 75.7503 42 76.0005V84.0001H2.75L32.5312 34.0027ZM42.875 50.9705C42.6265 51.0017 42.3988 51.1249 42.2368 51.3158C42.0747 51.5067 41.9903 51.7515 42 52.0017V62.0012C41.9981 62.1337 42.0226 62.2653 42.072 62.3883C42.1214 62.5112 42.1948 62.6231 42.2878 62.7175C42.3809 62.8118 42.4918 62.8868 42.614 62.9379C42.7363 62.9891 42.8675 63.0154 43 63.0154C43.1325 63.0154 43.2637 62.9891 43.386 62.9379C43.5082 62.8868 43.6191 62.8118 43.7122 62.7175C43.8052 62.6231 43.8786 62.5112 43.928 62.3883C43.9774 62.2653 44.0019 62.1337 44 62.0012V52.0017C44.0057 51.8566 43.9797 51.712 43.9238 51.5779C43.8679 51.4439 43.7835 51.3236 43.6765 51.2255C43.5694 51.1273 43.4422 51.0537 43.3038 51.0097C43.1654 50.9656 43.0191 50.9523 42.875 50.9705Z" fill="#1A1A1A"/>
</svg>
