<svg width="91" height="85" viewBox="0 0 91 85" fill="none" xmlns="http://www.w3.org/2000/svg">
<path d="M35.399 52.6009C34.733 52.6009 34.289 53.0449 34.289 53.7109V69.3619V81.6829H25.298V70.4719H28.628C29.294 70.4719 29.738 70.0279 29.738 69.3619C29.738 68.6959 29.294 68.2519 28.628 68.2519H25.298V60.3709C25.298 59.7049 24.854 59.2609 24.188 59.2609C23.522 59.2609 23.078 59.7049 23.078 60.3709V68.2519H14.087V62.5909C14.087 61.9249 13.643 61.4809 12.977 61.4809C12.311 61.4809 11.867 61.9249 11.867 62.5909V68.2519H2.87601V54.8209H12.977C13.643 54.8209 14.087 54.3769 14.087 53.7109C14.087 53.0449 13.643 52.6009 12.977 52.6009H2.87601V40.2799C2.87601 39.6139 2.43201 39.1699 1.76601 39.1699C1.10001 39.1699 0.656006 39.6139 0.656006 40.2799V82.9039C0.656006 83.5699 1.10001 84.0139 1.76601 84.0139H24.188H35.399C36.065 84.0139 36.509 83.5699 36.509 82.9039V69.3619V53.7109C36.509 53.1559 36.065 52.6009 35.399 52.6009ZM23.078 70.4719V81.6829H14.087V76.0219C14.087 75.3559 13.643 74.9119 12.977 74.9119C12.311 74.9119 11.867 75.3559 11.867 76.0219V81.6829H2.87601V70.4719H23.078Z" fill="#1A1A1A"/>
<path d="M89.234 9.97696C89.123 9.97696 89.012 9.97696 88.901 10.088C88.79 10.088 88.679 9.97696 88.568 9.97696H76.913V2.09596C76.913 1.42996 76.469 0.985962 75.803 0.985962C75.137 0.985962 74.693 1.42996 74.693 2.09596V9.97696H48.83H8.537C7.871 9.97696 7.427 10.421 7.427 11.087C7.427 11.753 7.871 12.197 8.537 12.197H18.86C18.749 12.419 18.638 12.53 18.638 12.752C18.638 13.418 19.082 13.862 19.748 13.862H20.858V23.852C20.858 25.628 19.859 27.404 18.083 28.514C16.418 29.624 15.197 31.289 14.864 33.176C14.42 34.619 14.42 36.95 16.196 39.392C16.418 39.836 16.862 40.169 17.195 40.391C18.749 41.39 20.303 41.945 21.968 41.945C22.634 41.945 23.411 41.834 24.077 41.612C26.186 40.946 27.851 39.503 28.739 37.394C28.961 36.839 28.739 36.173 28.184 35.951C27.629 35.729 26.963 35.951 26.741 36.506C26.186 37.949 24.965 38.948 23.522 39.392C21.968 39.836 20.192 39.503 18.527 38.393C18.305 38.282 18.194 38.06 18.083 37.949C17.084 36.506 16.751 34.952 17.084 33.398C17.417 32.066 18.194 30.845 19.304 30.179C21.746 28.625 23.189 26.294 23.189 23.63V13.64H24.299C24.965 13.64 25.409 13.196 25.409 12.53C25.409 12.308 25.298 12.086 25.187 11.975H47.72V24.296C47.72 24.962 48.164 25.406 48.83 25.406H56.711V72.581H55.601H51.161C50.495 72.581 50.051 73.025 50.051 73.691V81.572H46.721C46.055 81.572 45.611 82.016 45.611 82.682C45.611 83.348 46.055 83.792 46.721 83.792H87.125C87.791 83.792 88.235 83.348 88.235 82.682C88.235 82.016 87.791 81.572 87.125 81.572H74.693V73.691C74.693 73.025 74.249 72.581 73.583 72.581H67.922V25.628H75.803C76.469 25.628 76.913 25.184 76.913 24.518V22.964L88.124 12.974V22.298C88.124 22.964 88.568 23.408 89.234 23.408C89.9 23.408 90.344 22.964 90.344 22.298V11.087C90.344 10.532 89.9 9.97696 89.234 9.97696ZM60.485 72.803L65.702 67.586V72.803H60.485ZM58.931 55.043L65.702 48.272V62.036L59.264 55.598C59.153 55.487 59.042 55.487 58.931 55.376V55.043ZM58.931 51.935V39.17L65.258 45.497L58.931 51.935ZM65.258 64.811L58.931 71.138V58.484L65.258 64.811ZM65.702 42.833L59.375 36.506C59.264 36.395 59.153 36.284 58.931 36.284V35.84L65.702 29.069V42.833ZM72.473 75.023V81.794H52.271V75.023H55.601H57.821H66.812H72.473ZM65.702 26.072C65.591 26.072 65.591 26.183 65.48 26.183L58.931 32.732V25.628H65.702V26.072ZM74.693 23.408H66.812H57.821H49.94V12.197H74.582V22.52V23.408H74.693ZM76.913 20.078V12.197H85.682L76.913 20.078Z" fill="#1A1A1A"/>
</svg>
