<svg width="89" height="87" viewBox="0 0 89 87" fill="none" xmlns="http://www.w3.org/2000/svg">
<path fill-rule="evenodd" clip-rule="evenodd" d="M21.1874 18.4114C24.886 10.5673 32.336 1.7675 41.621 0.908986L41.6587 0.905518C41.6587 0.905518 41.826 0.905952 41.9097 0.913756C42.0784 0.948877 42.0662 0.938904 42.2661 1.03256C42.4574 1.13576 42.6481 1.23982 42.8393 1.34431C48.7848 4.61318 53.7685 8.63216 57.229 14.6218C58.9417 14.092 60.6982 13.8127 62.4924 13.782C62.6372 13.7802 62.7816 13.7798 62.9264 13.7802C72.3771 13.8565 84.8377 18.8021 88.8497 28.1066L88.8684 28.1512L88.8827 28.1855C88.8827 28.1855 88.9733 28.5983 88.9464 28.8034C88.9061 29.0171 88.8649 29.2305 88.8233 29.4442C86.9267 39.0808 82.1672 48.5115 72.9485 53.1028C77.206 62.1923 73.122 72.1242 68.1998 80.0225C67.1648 81.6832 64.9296 84.4911 63.1181 85.4199C59.1954 87.4305 53.4329 84.7981 50.0552 83.3555C47.373 82.21 43.1776 79.9518 41.3023 77.5831C34.9085 81.0389 26.5592 81.8176 19.5692 79.8768C14.6505 78.5114 12.3382 78.3046 10.4564 73.7475C8.08941 68.0154 9.49165 60.0299 11.2746 54.3581C6.38452 50.2866 3.39402 45.0163 1.17879 39.1311C-0.153207 35.5926 -0.582031 31.816 1.66832 28.5484C3.78079 25.4812 9.95603 22.1308 12.1877 21.1344C15.0495 19.8562 18.0972 18.9343 21.1874 18.4114ZM43.2287 76.4007C48.3391 80.6456 55.1057 84.5471 61.9903 83.4583L62.0935 83.4414L62.126 83.4358C62.3632 83.1968 62.5982 82.9562 62.8337 82.7156C68.8181 76.5694 72.5886 69.0834 72.4733 60.3824C72.3307 49.6024 60.7702 42.482 50.8487 44.6729C53.2629 46.602 55.5254 48.7496 57.5403 51.094C58.0398 50.2498 58.907 49.7715 59.8471 49.736C59.9182 49.7351 59.9177 49.7351 59.9888 49.736C63.1784 49.8574 63.5985 54.4791 60.5386 55.1832C61.395 56.6327 62.1841 58.0827 62.1837 59.8344C62.1833 60.6027 61.3612 61.1117 60.6705 60.8139C57.9466 63.3699 54.1457 58.8982 57.0994 56.6158C56.4538 55.759 55.8029 54.9833 55.0524 54.2163C52.926 55.5227 50.262 53.4246 50.9666 51.0719C50.1476 50.5967 49.3276 50.1227 48.509 49.6462C48.0564 49.3817 47.6041 49.1164 47.1549 48.8467C53.3007 57.4852 52.2262 70.1405 43.2287 76.4007ZM42.1738 46.5504C37.3336 58.0302 23.5414 62.9333 13.1156 55.7564C11.2729 62.0592 10.4078 69.7129 14.0678 75.5426L14.1242 75.6311C14.1242 75.6311 14.7598 75.9012 15.082 76.0265C23.4963 79.2733 32.6013 79.5815 40.759 75.4026C51.7315 69.7819 50.4576 53.8642 42.1738 46.5504ZM59.6238 58.2179C59.4477 57.9647 59.1685 57.8069 58.8624 57.78C58.8268 57.7774 58.7913 57.7765 58.7557 57.777C58.5372 57.7856 58.3351 57.8559 58.1604 57.9877C57.4207 58.5449 57.8087 59.752 58.7162 59.8214C58.8945 59.8348 59.0991 59.7819 59.2556 59.6991C59.4178 59.6137 59.5661 59.4806 59.661 59.3227C59.766 59.1484 59.815 58.9624 59.8067 58.7586C59.753 58.5761 59.6914 58.3957 59.6238 58.2179ZM25.7653 20.1679C17.3375 20.2104 6.12176 24.1951 2.09801 32.273C2.82341 37.0347 3.93341 41.9577 6.7934 45.9559C10.0549 50.5156 12.8368 52.7529 17.6996 55.4954C25.5559 59.9259 34.657 55.0354 38.888 47.9834C44.0573 39.3675 42.2635 26.5812 32.7392 21.7861C30.7005 20.7593 28.5438 20.2273 26.26 20.1727C26.0953 20.1692 25.9305 20.1679 25.7653 20.1679ZM59.3038 53.3144C59.8523 53.7285 60.6874 53.4376 60.8907 52.7881C60.9883 52.4767 60.9276 52.1741 60.7546 51.904C60.6817 51.7904 60.543 51.6711 60.4268 51.6048C60.2937 51.5285 60.1501 51.486 59.9975 51.4725C59.962 51.4704 59.9268 51.4695 59.8909 51.4699C59.2084 51.4959 58.7167 52.1875 58.9526 52.8401C59.0714 52.997 59.1884 53.1549 59.3038 53.3144ZM54.6331 51.7912C54.598 51.2887 54.1891 50.8859 53.69 50.8416C53.6545 50.8395 53.6194 50.8386 53.5838 50.839C53.4299 50.8451 53.2825 50.8802 53.145 50.9505C52.6078 51.2241 52.414 51.9707 52.7712 52.465C52.975 52.7464 53.2556 53.1085 53.7932 52.9918C54.3114 52.8791 54.6392 52.6892 54.6331 51.7912ZM71.9253 51.1907C80.7159 46.8209 84.9751 37.8794 86.7468 28.7648L86.7537 28.7284C84.0654 22.8289 77.9409 19.6459 72.0727 17.6921C67.6214 16.2101 62.8944 15.2627 58.2688 16.5752C62.6624 25.5887 61.0954 36.4043 52.1989 42.2326C53.1715 42.1004 54.1006 42.038 55.0858 42.0319C55.1621 42.0319 55.238 42.0323 55.3143 42.0328C62.0098 42.0991 68.4192 45.4148 71.9253 51.1907ZM52.773 49.2343C50.9896 47.5342 49.7508 46.5248 47.7706 45.061C46.6407 44.2259 45.4162 43.3387 44.0309 42.9654C44.0274 43.0036 44.0261 43.0422 44.0257 43.0803C44.0226 44.1487 45.1643 44.9487 45.9018 45.4616C48.4817 47.2558 49.1624 47.5203 51.8772 49.0934L52.3875 49.39C52.512 49.3284 52.6407 49.2764 52.773 49.2343ZM47.4415 42.2344C47.53 42.201 47.5469 42.1941 47.6648 42.1481C49.6611 41.3511 51.8715 40.1111 53.3874 38.5501C54.461 37.4449 55.4526 36.2399 56.2534 34.9236C63.9012 22.3541 52.2188 8.94261 41.562 3.11685L41.529 3.09907C33.6207 4.04647 27.2543 11.47 23.769 18.0858C24.4428 18.0307 25.0767 18.0034 25.7597 18C25.8329 18 25.9058 18 25.9791 18.0004C38.2623 18.1144 45.457 29.155 43.7655 40.7458C43.7755 40.7458 43.7872 40.7463 43.8032 40.7463C45.0901 40.7987 46.3905 41.584 47.4415 42.2344Z" fill="#1A1A1A"/>
</svg>
