<svg width="111" height="111" viewBox="0 0 111 111" fill="none" xmlns="http://www.w3.org/2000/svg">
<path d="M55.0005 100.888C55.1554 100.966 55.3265 101.007 55.5 101.007C55.6735 101.007 55.8446 100.966 55.9995 100.888C90.2985 83.7273 89.91 61.9269 89.91 61.05V22.2C89.912 21.9273 89.8135 21.6634 89.6333 21.4587C89.4532 21.254 89.2039 21.1227 88.9332 21.09C72.7827 19.1697 56.1993 10.212 56.0328 10.1232C55.8641 10.0258 55.6726 9.97449 55.4778 9.97449C55.283 9.97449 55.0915 10.0258 54.9228 10.1232C54.7563 10.212 38.1729 19.1697 22.0224 21.1011C21.7617 21.1434 21.5245 21.2772 21.3536 21.4787C21.1827 21.6801 21.0892 21.9358 21.09 22.2V61.05C21.09 61.9269 20.7015 83.7273 55.0005 100.888ZM23.31 61.05V23.1768C38.1063 21.1677 52.5363 13.9083 55.5 12.3543C58.4637 13.9083 72.8937 21.1677 87.69 23.1768V61.05C87.69 61.2609 87.9231 82.14 55.5 98.6235C23.0769 82.2177 23.31 61.2942 23.31 61.05Z" fill="#1A1A1A"/>
<path d="M39.96 76.0017H71.04C72.1607 75.9988 73.2347 75.5523 74.0272 74.7598C74.8197 73.9673 75.2662 72.8933 75.2691 71.7726V48.9066C75.2664 47.8002 74.8302 46.739 74.0541 45.9505C73.2781 45.1619 72.2239 44.7089 71.1177 44.6886V39.5604C71.1177 35.4066 69.4676 31.4229 66.5304 28.4856C63.5932 25.5484 59.6094 23.8983 55.4556 23.8983C51.3017 23.8983 47.318 25.5484 44.3808 28.4856C41.4436 31.4229 39.7935 35.4066 39.7935 39.5604V44.6886C38.6873 44.7089 37.6331 45.1619 36.8571 45.9505C36.081 46.739 35.6448 47.8002 35.6421 48.9066V71.7726C35.6435 72.3351 35.7567 72.8917 35.9753 73.41C36.1939 73.9283 36.5135 74.3979 36.9153 74.7915C37.3172 75.1851 37.7933 75.4948 38.316 75.7026C38.8388 75.9103 39.3976 76.012 39.96 76.0017ZM37.9065 48.9066C37.9079 48.6394 37.9623 48.3752 38.0666 48.1292C38.1709 47.8832 38.3229 47.6603 38.5139 47.4734C38.7048 47.2866 38.931 47.1394 39.1792 47.0406C39.4275 46.9417 39.6928 46.8931 39.96 46.8975H71.04C71.5719 46.9004 72.0813 47.113 72.4574 47.4892C72.8336 47.8653 73.0462 48.3747 73.0491 48.9066V71.7726C73.0491 72.3055 72.8374 72.8165 72.4606 73.1933C72.0839 73.57 71.5728 73.7817 71.04 73.7817H39.96C39.4271 73.7817 38.9161 73.57 38.5393 73.1933C38.1626 72.8165 37.9509 72.3055 37.9509 71.7726L37.9065 48.9066ZM55.5 26.1183C59.0642 26.1213 62.4815 27.5384 65.0017 30.0587C67.522 32.5789 68.9392 35.9962 68.9421 39.5604V44.6775H63.8583V38.517C63.8583 36.3003 62.9777 34.1743 61.4102 32.6068C59.8427 31.0393 57.7167 30.1587 55.5 30.1587C53.2832 30.1587 51.1573 31.0393 49.5898 32.6068C48.0223 34.1743 47.1417 36.3003 47.1417 38.517V44.6775H42.0579V39.5604C42.0608 35.9962 43.478 32.5789 45.9982 30.0587C48.5185 27.5384 51.9358 26.1213 55.5 26.1183ZM61.6383 44.6775H49.3617V38.517C49.3617 36.889 50.0084 35.3277 51.1596 34.1766C52.3107 33.0254 53.872 32.3787 55.5 32.3787C57.128 32.3787 58.6893 33.0254 59.8404 34.1766C60.9916 35.3277 61.6383 36.889 61.6383 38.517V44.6775Z" fill="#1A1A1A"/>
<path d="M55.5 53.6796C54.1828 53.6796 52.8951 54.0702 51.7999 54.802C50.7047 55.5338 49.851 56.5739 49.347 57.7909C48.8429 59.0079 48.711 60.347 48.968 61.6389C49.2249 62.9308 49.8593 64.1175 50.7907 65.0489C51.7221 65.9803 52.9088 66.6146 54.2007 66.8716C55.4926 67.1286 56.8317 66.9967 58.0487 66.4926C59.2656 65.9885 60.3058 65.1349 61.0376 64.0397C61.7694 62.9444 62.16 61.6568 62.16 60.3396C62.16 58.5732 61.4583 56.8792 60.2093 55.6302C58.9603 54.3812 57.2663 53.6796 55.5 53.6796ZM55.5 64.7796C54.6219 64.7796 53.7634 64.5192 53.0333 64.0313C52.3031 63.5434 51.734 62.85 51.398 62.0387C51.0619 61.2274 50.974 60.3346 51.1453 59.4734C51.3166 58.6121 51.7395 57.821 52.3604 57.2C52.9814 56.5791 53.7725 56.1562 54.6338 55.9849C55.4951 55.8136 56.3878 55.9015 57.1991 56.2375C58.0104 56.5736 58.7039 57.1427 59.1917 57.8728C59.6796 58.603 59.94 59.4614 59.94 60.3396C59.94 61.5171 59.4722 62.6465 58.6396 63.4791C57.8069 64.3118 56.6776 64.7796 55.5 64.7796Z" fill="#1A1A1A"/>
</svg>
