<svg width="68" height="68" viewBox="0 0 68 68" fill="none" xmlns="http://www.w3.org/2000/svg">
<path d="M67.1079 51.6982C66.3922 49.5537 63.8934 48.3287 61.5201 48.9493L47.7181 51.3738C46.9287 49.9171 45.1649 48.8996 43.1191 48.8996H36.5034L36.4241 48.9006L36.353 48.91C36.3316 48.9124 34.2005 49.1721 30.5045 47.9569C28.3415 47.2457 26.9842 46.778 25.9932 46.4364C25.1409 46.1427 24.5779 45.9487 24.047 45.7887C22.9677 45.4634 17.1583 45.4159 14.6992 45.4107V45.0434C14.6992 43.641 13.4374 42.5 11.8864 42.5H0V44.305H6.71446V62.1912H0V63.9962H11.8864C13.2052 63.9962 14.3118 63.1702 14.6145 62.0611C17.5453 62.1029 19.1208 62.9079 19.1308 62.9131L19.2142 62.9584L30.3803 66.5997C33.4246 67.5765 35.6942 67.8175 37.1931 67.8175C38.5901 67.8175 39.3174 67.6081 39.3775 67.59L39.4447 67.5697L48.572 63.4431L64.1586 56.7761C66.5003 56.0972 67.8211 53.8353 67.1079 51.6982ZM12.703 61.4528C12.703 61.8599 12.3367 62.1912 11.8864 62.1912H8.71065V44.305H11.8864C12.3367 44.305 12.703 44.6363 12.703 45.0434V61.4528ZM63.5065 55.0692L63.4352 55.0887L47.7086 61.8156L38.7023 65.8873C38.3051 65.974 35.7773 66.4162 31.0527 64.9002L20.0579 61.3146C19.6187 61.1017 17.7761 60.3097 14.6992 60.2572V47.2158C18.5823 47.2246 22.7813 47.3302 23.4158 47.5011C23.9065 47.649 24.4538 47.8376 25.2823 48.1231C26.2793 48.4667 27.645 48.9374 29.8223 49.6533C33.656 50.9139 36.0651 50.7571 36.5666 50.7047H43.1191C44.798 50.7047 46.164 51.7721 46.164 53.084C46.164 54.3959 44.798 55.4634 43.1191 55.4634H36.5145L32.4486 55.3816C32.035 55.3341 30.3546 55.2122 29.1579 56.1871C28.6104 56.6332 27.9763 57.4813 28.0641 58.989L30.0574 58.8941C30.0204 58.2573 30.1656 57.799 30.4891 57.5323C30.9905 57.1185 31.9076 57.1339 32.2129 57.1742L32.2793 57.1837L36.4813 57.2681L43.1191 57.2684C45.8781 57.2684 48.1253 55.4188 48.1586 53.1352L61.9474 50.713L62.0454 50.6911C63.3805 50.327 64.7941 51.0126 65.1968 52.2196C65.5996 53.4267 64.8413 54.705 63.5065 55.0692Z" fill="#131E58"/>
<path d="M60.793 41.6967C60.793 36.7095 58.5835 32.0657 54.5716 28.6203C50.561 25.1762 45.3089 23.4218 39.7794 23.6794C29.1756 24.1743 20.8691 32.1674 20.8691 41.8766V43.1565H60.793V41.6967ZM22.8744 41.3515C23.1663 32.8422 30.5317 25.9184 39.8823 25.482C44.8583 25.2486 49.5871 26.8291 53.197 29.9292C56.7152 32.9506 58.6935 36.9954 58.7929 41.3515H22.8744Z" fill="#131E58"/>
<path d="M40.7414 22.4808C47.5957 22.4808 53.1722 17.4383 53.1722 11.2404C53.1722 5.04242 47.5957 0 40.7414 0C33.887 0 28.3105 5.04242 28.3105 11.2404C28.3105 17.4383 33.887 22.4808 40.7414 22.4808ZM40.7414 1.80502C46.495 1.80502 51.176 6.03771 51.176 11.2404C51.176 16.443 46.495 20.6757 40.7414 20.6757C34.9877 20.6757 30.3067 16.443 30.3067 11.2404C30.3067 6.03771 34.9877 1.80502 40.7414 1.80502Z" fill="#131E58"/>
</svg>
