<svg width="82" height="58" viewBox="0 0 82 58" fill="none" xmlns="http://www.w3.org/2000/svg">
<path d="M27 0C25.371 0 24 1.18454 24 2.65817V9.04902H3C1.371 9.04902 0 10.2336 0 11.7072V44.3685C0 45.8422 1.371 47.055 3 47.055H8V57.009C8.004 57.6973 9.08222 58.1392 9.65625 57.6876L23.4688 47.055H55C56.629 47.055 58 45.8424 58 44.3685V38.006H58.5312L72.3438 48.6386C72.9178 49.0901 73.9963 48.6485 74 47.96V38.006H79C80.629 38.006 82 36.7932 82 35.3195V2.65817C82 1.18454 80.629 0 79 0H27ZM27 1.80985H79C79.587 1.80985 80 2.18517 80 2.65817V35.3195C80 35.7927 79.587 36.1962 79 36.1962H73C72.4764 36.1963 72.0001 36.6273 72 37.1011V45.9805L59.5312 36.3942C59.3474 36.2611 59.1103 36.1896 58.875 36.1962H27C26.413 36.1962 26 35.7927 26 35.3195V2.65817C26 2.18517 26.413 1.80985 27 1.80985ZM53 6.33433C49.7778 6.33433 47.27 7.48072 45.1562 10.3499C44.8714 10.7496 45.0133 11.3477 45.4544 11.6064C45.8956 11.8651 46.5568 11.7382 46.8438 11.3396C48.73 8.77942 50.2222 8.14418 53 8.14418C56 8.1695 58.9427 10.8767 59 13.5736C59 15.0818 58.1964 16.1576 56.9375 17.1932C55.6786 18.2288 53.9802 19.1188 52.4375 20.0492C52.1645 20.2172 51.9944 20.5141 52 20.8128V25.3374C51.993 25.8154 52.4716 26.2552 53 26.2552C53.5284 26.2552 54.0075 25.8154 54 25.3374V21.2652C55.3741 20.4588 56.9594 19.6354 58.3125 18.5223C59.8036 17.2957 61 15.685 61 13.5736C61 9.07364 57.0246 6.3979 53 6.33433ZM3 10.8589H24V35.3195C24 36.7931 25.371 38.006 27 38.006H56V44.3685C56 44.8417 55.587 45.2453 55 45.2453H23.125C22.8897 45.2362 22.6526 45.3104 22.4688 45.4432L10 55.0296V46.1502C9.99995 45.6763 9.52358 45.2454 9 45.2453H3C2.413 45.2453 2 44.8417 2 44.3685V11.7072C2 11.2342 2.413 10.8589 3 10.8589ZM53 28.957C51.8954 28.957 51 29.7672 51 30.7668C51 31.7663 51.8954 32.5766 53 32.5766C54.1046 32.5766 55 31.7663 55 30.7668C55 29.7672 54.1046 28.957 53 28.957Z" fill="#131E58"/>
</svg>
