<svg width="44" height="64" viewBox="0 0 44 64" fill="none" xmlns="http://www.w3.org/2000/svg">
<path d="M22.1549 0C10.1315 0 0.356186 8.70069 0.356186 19.4351C0.354661 19.5327 0.374588 19.6295 0.414808 19.72C0.455029 19.8105 0.51474 19.8929 0.590474 19.9623C0.666208 20.0318 0.756453 20.0869 0.855965 20.1246C0.955476 20.1622 1.06227 20.1816 1.17014 20.1816C1.27801 20.1816 1.3848 20.1622 1.48431 20.1246C1.58383 20.0869 1.67407 20.0318 1.7498 19.9623C1.82554 19.8929 1.88525 19.8105 1.92547 19.72C1.96569 19.6295 1.98562 19.5327 1.98409 19.4351C1.98409 9.50769 10.9988 1.47201 22.1549 1.47201C33.3109 1.47201 42.3257 9.50769 42.3257 19.4351C42.3257 27.6612 38.2914 31.5441 34.0335 35.4892C29.7756 39.4343 25.2581 43.4463 25.2581 51.2903C25.2581 57.125 19.9948 61.8244 13.4303 61.8244C6.86582 61.8244 1.62799 57.125 1.62799 51.2903V45.4253C1.62951 45.3278 1.60959 45.2309 1.56937 45.1404C1.52915 45.0499 1.46943 44.9675 1.3937 44.8981C1.31797 44.8286 1.22772 44.7735 1.12821 44.7358C1.0287 44.6982 0.921904 44.6788 0.814035 44.6788C0.706166 44.6788 0.599372 44.6982 0.49986 44.7358C0.400348 44.7735 0.310104 44.8286 0.23437 44.8981C0.158636 44.9675 0.098924 45.0499 0.0587035 45.1404C0.018483 45.2309 -0.00144399 45.3278 8.13999e-05 45.4253V51.2903C8.13999e-05 57.9264 6.00453 63.2964 13.4303 63.2964C20.8561 63.2964 26.886 57.9264 26.886 51.2903C26.886 43.9449 30.8998 40.4884 35.1781 36.5242C39.4565 32.5601 43.9536 28.1094 43.9536 19.4351C43.9536 8.70069 34.1782 0 22.1549 0ZM22.104 7.91205C14.9108 7.91205 9.03281 13.1272 9.00444 19.5501C9.00437 19.5657 9.00444 19.5805 9.00444 19.5961L8.47028 28.7502C8.46334 28.8506 8.47925 28.9513 8.51703 29.046C8.55482 29.1406 8.61367 29.2273 8.68995 29.3006C8.76624 29.3739 8.85834 29.4322 8.96055 29.4721C9.06277 29.5119 9.17293 29.5324 9.28424 29.5322C13.0785 29.5322 16.3046 32.9082 16.3046 37.2602C16.3046 41.6124 13.0785 45.0113 9.28424 45.0113C9.17638 45.0099 9.06929 45.0279 8.9692 45.0643C8.86911 45.1007 8.77802 45.1547 8.7012 45.2231C8.62439 45.2916 8.56339 45.3732 8.52176 45.4632C8.48013 45.5532 8.45869 45.6497 8.45869 45.7473C8.45869 45.8448 8.48013 45.9414 8.52176 46.0314C8.56339 46.1214 8.62439 46.203 8.7012 46.2714C8.77802 46.3399 8.86911 46.3939 8.9692 46.4303C9.06929 46.4667 9.17638 46.4847 9.28424 46.4833C14.1331 46.4833 17.9325 42.2761 17.9325 37.2602C17.9325 32.5535 14.567 28.6259 10.1491 28.1522L10.6323 19.6191C10.6325 19.6115 10.6325 19.6038 10.6323 19.5961C10.6323 13.9586 15.7606 9.38406 22.104 9.38406C28.4474 9.38406 33.5502 13.9586 33.5502 19.5961C33.5487 19.6937 33.5686 19.7905 33.6088 19.881C33.6491 19.9715 33.7088 20.0539 33.7845 20.1233C33.8602 20.1928 33.9505 20.2479 34.05 20.2856C34.1495 20.3232 34.2563 20.3426 34.3642 20.3426C34.472 20.3426 34.5788 20.3232 34.6784 20.2856C34.7779 20.2479 34.8681 20.1928 34.9438 20.1233C35.0196 20.0539 35.0793 19.9715 35.1195 19.881C35.1597 19.7905 35.1797 19.6937 35.1781 19.5961C35.1781 13.1517 29.3147 7.91205 22.104 7.91205Z" fill="#131E58"/>
</svg>
