<svg id="svg" version="1.1" xmlns="http://www.w3.org/2000/svg" xmlns:xlink="http://www.w3.org/1999/xlink" width="400" height="200.98522167487684" viewBox="0, 0, 400,200.98522167487684"><g id="svgg"><path id="path0" d="M247.437 56.239 C 247.437 56.326,247.618 56.410,247.839 56.427 C 248.060 56.444,248.241 56.373,248.241 56.269 C 248.241 56.165,248.060 56.080,247.839 56.080 C 247.618 56.080,247.437 56.152,247.437 56.239 M245.561 56.415 C 245.346 56.630,245.407 57.122,245.631 56.983 C 245.744 56.913,245.788 56.779,245.729 56.685 C 245.671 56.590,245.783 56.471,245.977 56.420 C 246.259 56.347,246.266 56.323,246.013 56.305 C 245.838 56.292,245.635 56.342,245.561 56.415 M248.844 56.402 C 248.844 56.606,249.630 57.241,249.686 57.082 C 249.720 56.983,249.962 57.124,250.222 57.396 C 250.482 57.667,250.590 57.889,250.461 57.889 C 250.333 57.889,250.283 57.980,250.352 58.090 C 250.543 58.400,251.256 58.328,251.256 58.000 C 251.256 57.840,251.098 57.616,250.905 57.504 C 250.709 57.390,250.665 57.296,250.804 57.293 C 251.755 57.269,250.719 56.388,249.698 56.352 C 249.229 56.335,248.844 56.358,248.844 56.402 M244.027 58.269 C 243.457 58.427,243.187 60.235,243.732 60.235 C 243.928 60.235,243.946 60.137,243.801 59.866 C 243.671 59.622,243.672 59.497,243.806 59.497 C 243.917 59.497,244.138 59.249,244.297 58.945 C 244.456 58.641,244.640 58.415,244.705 58.442 C 245.015 58.573,245.437 58.470,245.327 58.291 C 245.189 58.068,244.773 58.061,244.027 58.269 M251.388 60.352 C 251.439 60.435,251.707 60.503,251.984 60.503 C 252.267 60.503,252.432 60.590,252.362 60.704 C 252.293 60.814,252.401 60.912,252.601 60.920 C 252.809 60.929,252.858 60.979,252.715 61.037 C 252.525 61.114,252.519 61.238,252.692 61.561 C 252.817 61.794,252.961 62.307,253.013 62.701 C 253.188 64.028,253.306 63.631,253.207 62.049 C 253.153 61.185,253.054 60.424,252.986 60.356 C 252.806 60.177,251.277 60.173,251.388 60.352 M241.468 62.904 C 241.457 63.380,241.483 63.451,241.544 63.116 C 241.595 62.839,241.776 62.505,241.948 62.373 C 242.220 62.162,242.210 62.136,241.871 62.161 C 241.570 62.184,241.480 62.350,241.468 62.904 M287.638 62.333 C 287.638 62.455,287.505 62.505,287.343 62.442 C 286.935 62.286,286.773 62.626,287.029 63.104 C 287.164 63.357,287.370 63.462,287.591 63.391 C 287.868 63.302,287.881 63.320,287.656 63.480 C 287.501 63.591,287.252 63.635,287.104 63.578 C 286.947 63.518,286.834 63.610,286.834 63.798 C 286.834 63.975,286.924 64.121,287.034 64.121 C 287.406 64.121,288.211 63.272,288.104 62.992 C 288.045 62.839,288.090 62.714,288.203 62.714 C 288.316 62.714,288.454 62.827,288.510 62.965 C 288.581 63.142,288.616 63.146,288.627 62.979 C 288.646 62.704,288.098 62.111,287.825 62.111 C 287.722 62.111,287.638 62.211,287.638 62.333 M288.643 62.303 C 288.643 62.418,289.010 62.513,289.459 62.513 C 289.908 62.513,290.225 62.594,290.164 62.693 C 290.034 62.902,290.609 63.167,290.859 63.012 C 290.951 62.955,291.084 63.000,291.154 63.112 C 291.223 63.225,291.388 63.315,291.519 63.314 C 291.667 63.312,291.643 63.228,291.457 63.097 C 291.189 62.908,291.189 62.894,291.457 62.970 C 291.623 63.018,291.730 63.214,291.695 63.406 C 291.661 63.598,291.796 63.877,291.997 64.024 C 292.342 64.278,292.342 64.300,292.010 64.429 C 291.817 64.504,291.658 64.652,291.658 64.757 C 291.658 64.862,291.771 64.880,291.910 64.797 C 292.080 64.695,292.072 64.755,291.885 64.987 C 291.601 65.336,291.144 65.470,291.345 65.144 C 291.407 65.044,291.277 65.009,291.056 65.067 C 290.834 65.125,290.653 65.303,290.653 65.462 C 290.653 65.622,290.571 65.702,290.471 65.640 C 290.371 65.578,290.333 65.695,290.387 65.901 C 290.487 66.285,289.839 66.533,288.734 66.533 C 288.213 66.533,287.035 67.436,287.035 67.835 C 287.035 67.979,286.812 68.153,286.538 68.222 C 286.265 68.290,285.880 68.510,285.684 68.710 C 285.487 68.910,284.761 69.503,284.070 70.026 C 283.379 70.550,282.814 71.044,282.814 71.125 C 282.814 71.206,282.302 71.540,281.675 71.867 C 281.049 72.194,280.108 72.847,279.585 73.317 C 279.062 73.786,278.552 74.171,278.452 74.171 C 278.352 74.171,277.925 74.486,277.504 74.872 C 277.083 75.258,276.454 75.749,276.105 75.965 C 275.757 76.180,275.287 76.568,275.062 76.827 C 274.837 77.087,274.131 77.562,273.495 77.884 C 272.859 78.206,272.046 78.791,271.688 79.184 C 271.330 79.578,270.805 80.021,270.521 80.170 C 270.237 80.319,269.782 80.647,269.511 80.899 C 269.239 81.150,268.661 81.586,268.227 81.866 C 267.793 82.146,267.135 82.657,266.766 83.001 C 266.397 83.346,265.718 83.816,265.258 84.046 C 264.798 84.277,264.106 84.767,263.719 85.135 C 263.010 85.811,262.703 86.047,260.557 87.567 C 259.910 88.025,259.259 88.546,259.111 88.725 C 258.963 88.904,258.307 89.335,257.655 89.682 C 257.002 90.030,256.211 90.608,255.896 90.967 C 255.581 91.326,255.109 91.733,254.847 91.872 C 254.586 92.011,254.010 92.426,253.568 92.794 C 252.038 94.068,250.949 94.863,249.648 95.656 C 248.930 96.094,248.169 96.688,247.958 96.975 C 247.747 97.262,247.137 97.735,246.601 98.027 C 246.066 98.318,245.628 98.628,245.628 98.716 C 245.628 98.803,245.228 99.151,244.739 99.487 C 244.249 99.824,243.729 100.217,243.583 100.361 C 243.436 100.505,242.741 100.977,242.037 101.410 C 241.332 101.843,240.518 102.455,240.227 102.771 C 239.937 103.086,239.337 103.532,238.894 103.762 C 238.452 103.992,237.813 104.483,237.473 104.854 C 237.134 105.224,236.760 105.528,236.643 105.528 C 236.526 105.528,236.170 105.789,235.853 106.108 C 235.536 106.428,234.783 106.948,234.179 107.264 C 233.576 107.580,232.716 108.204,232.270 108.650 C 231.823 109.095,231.231 109.573,230.955 109.712 C 230.678 109.851,230.064 110.323,229.589 110.761 C 229.115 111.199,228.640 111.558,228.535 111.558 C 228.429 111.558,228.003 111.858,227.589 112.224 C 227.174 112.590,226.413 113.132,225.899 113.427 C 225.384 113.722,224.586 114.327,224.124 114.771 C 223.662 115.215,223.186 115.578,223.067 115.578 C 222.836 115.578,221.709 116.758,221.709 116.999 C 221.709 117.078,221.341 117.289,220.892 117.469 C 220.443 117.649,219.840 118.014,219.552 118.281 C 219.264 118.548,218.733 118.926,218.372 119.121 C 217.980 119.331,217.571 119.792,217.361 120.260 C 217.166 120.691,216.726 121.259,216.382 121.521 C 215.934 121.863,215.656 122.337,215.396 123.206 C 215.197 123.871,214.766 124.710,214.439 125.072 C 214.112 125.433,213.611 126.090,213.326 126.533 C 213.042 126.975,212.369 127.769,211.831 128.297 C 211.294 128.826,210.854 129.338,210.854 129.437 C 210.854 129.535,210.527 129.818,210.127 130.065 C 209.727 130.312,208.899 130.953,208.286 131.488 C 207.674 132.024,207.036 132.462,206.867 132.462 C 206.249 132.462,205.226 132.954,205.214 133.256 C 205.208 133.428,205.176 133.907,205.145 134.322 L 205.087 135.075 215.307 135.075 L 225.528 135.075 225.528 134.070 L 225.528 133.065 226.533 133.065 L 227.538 133.065 227.538 132.071 L 227.538 131.077 228.492 131.016 L 229.447 130.955 229.509 130.000 L 229.570 129.045 230.564 129.045 L 231.558 129.045 231.558 128.040 L 231.558 127.035 232.563 127.035 L 233.568 127.035 233.568 126.131 L 233.568 125.226 234.422 125.217 C 236.606 125.195,237.201 124.923,237.371 123.872 C 237.484 123.167,237.548 123.109,238.294 123.015 C 239.049 122.920,239.105 122.866,239.273 122.067 C 239.439 121.277,239.508 121.208,240.278 121.056 C 241.052 120.904,241.112 120.843,241.206 120.111 C 241.301 119.374,241.359 119.316,242.211 119.111 C 243.068 118.906,243.121 118.853,243.216 118.093 C 243.310 117.347,243.368 117.283,244.073 117.170 C 245.007 117.019,245.059 116.967,245.210 116.035 C 245.321 115.351,245.402 115.271,246.086 115.160 C 247.017 115.008,247.069 114.957,247.220 114.022 C 247.334 113.318,247.397 113.259,248.143 113.166 C 248.899 113.071,248.955 113.017,249.123 112.218 C 249.288 111.428,249.358 111.358,250.125 111.207 C 250.881 111.057,250.960 110.981,251.072 110.293 C 251.216 109.406,251.152 109.469,252.161 109.233 C 252.907 109.059,252.972 108.987,253.065 108.244 C 253.159 107.497,253.218 107.434,253.922 107.320 C 254.852 107.170,254.901 107.122,255.084 106.183 L 255.230 105.427 255.253 106.382 L 255.276 107.337 256.163 107.337 L 257.049 107.337 257.159 109.497 C 257.220 110.686,257.273 111.875,257.278 112.140 C 257.290 112.842,257.648 113.166,258.409 113.166 L 259.081 113.166 259.138 115.126 L 259.196 117.085 260.151 117.147 L 261.106 117.208 261.106 119.596 C 261.106 122.643,261.236 123.015,262.299 123.015 L 263.101 123.015 263.159 124.975 L 263.216 126.935 264.171 126.996 L 265.126 127.057 265.148 129.207 C 265.160 130.389,265.153 131.565,265.132 131.820 C 265.078 132.484,265.478 132.864,266.230 132.864 L 266.883 132.864 267.024 134.674 C 267.139 136.143,267.237 136.522,267.540 136.684 C 268.353 137.120,290.208 136.939,290.445 136.496 C 290.852 135.736,290.693 135.138,289.970 134.712 C 289.515 134.444,289.241 134.100,289.150 133.687 C 289.075 133.345,288.934 133.065,288.837 133.065 C 288.557 133.065,287.638 132.070,287.638 131.766 C 287.638 131.233,286.861 129.742,286.257 129.116 C 285.921 128.768,285.584 128.225,285.508 127.910 C 285.310 127.085,284.818 126.169,284.424 125.890 C 284.087 125.652,283.580 124.473,283.324 123.335 C 283.251 123.013,282.881 122.386,282.500 121.941 C 281.489 120.760,280.826 117.461,280.810 113.534 C 280.802 111.467,280.745 111.357,279.685 111.357 L 278.809 111.357 278.751 109.497 L 278.693 107.638 277.739 107.454 L 276.784 107.269 276.784 105.709 C 276.784 103.964,276.541 103.518,275.592 103.518 C 275.037 103.518,275.032 103.505,274.895 101.870 C 274.751 100.144,274.560 99.698,273.962 99.698 C 273.190 99.698,272.965 99.468,272.965 98.679 C 272.965 97.806,272.595 97.487,271.579 97.487 L 270.970 97.487 270.912 95.628 L 270.854 93.769 269.899 93.708 L 268.945 93.646 268.945 92.656 C 268.945 91.611,268.946 91.609,270.245 91.413 C 270.531 91.370,270.686 91.125,270.804 90.528 C 270.956 89.760,271.026 89.690,271.815 89.525 C 272.615 89.357,272.669 89.301,272.764 88.545 C 272.857 87.799,272.916 87.736,273.620 87.622 C 274.555 87.471,274.606 87.419,274.758 86.488 C 274.869 85.804,274.949 85.723,275.633 85.612 C 276.565 85.461,276.616 85.409,276.768 84.477 C 276.857 83.932,277.001 83.706,277.289 83.663 C 278.494 83.481,278.568 83.424,278.738 82.562 C 278.896 81.756,278.950 81.703,279.698 81.608 C 280.443 81.514,280.501 81.457,280.654 80.680 C 280.806 79.910,280.875 79.841,281.665 79.675 C 282.464 79.507,282.518 79.451,282.613 78.696 C 282.707 77.950,282.765 77.886,283.470 77.773 C 284.404 77.622,284.456 77.570,284.607 76.635 C 284.723 75.912,284.767 75.875,285.631 75.779 C 286.530 75.679,286.533 75.676,286.594 74.824 C 286.649 74.076,286.716 73.970,287.134 73.970 C 288.209 73.970,288.643 73.632,288.643 72.795 C 288.643 72.032,288.663 72.010,289.464 71.903 C 290.470 71.768,290.461 71.776,290.594 70.784 C 290.696 70.029,290.753 69.968,291.481 69.845 C 292.458 69.680,292.487 69.627,292.487 68.025 C 292.487 66.487,292.268 66.131,291.320 66.131 C 290.940 66.131,290.678 66.052,290.737 65.957 C 290.796 65.861,291.086 65.829,291.382 65.885 C 291.722 65.950,291.872 65.912,291.791 65.780 C 291.720 65.666,291.814 65.585,291.999 65.601 C 292.267 65.622,292.350 65.412,292.405 64.573 C 292.452 63.870,292.397 63.518,292.243 63.518 C 292.075 63.518,292.080 63.435,292.259 63.219 C 292.579 62.833,292.373 62.281,291.967 62.437 C 291.797 62.502,291.658 62.473,291.658 62.372 C 291.658 62.271,290.980 62.167,290.151 62.141 C 289.206 62.111,288.643 62.171,288.643 62.303 M239.628 64.550 C 239.393 64.926,239.551 65.781,239.825 65.612 C 239.925 65.550,239.946 65.402,239.873 65.283 C 239.782 65.137,239.928 65.111,240.322 65.203 C 240.696 65.290,240.807 65.274,240.632 65.157 C 240.338 64.961,240.661 64.612,240.963 64.798 C 241.051 64.852,241.136 64.723,241.152 64.510 C 241.189 64.013,239.943 64.046,239.628 64.550 M253.970 64.267 C 254.191 64.322,254.444 64.492,254.533 64.646 C 254.768 65.055,255.075 64.986,255.075 64.523 C 255.075 64.188,254.949 64.125,254.322 64.144 C 253.884 64.157,253.737 64.209,253.970 64.267 M283.417 64.312 C 283.417 64.441,283.335 64.496,283.235 64.434 C 283.135 64.372,283.104 64.516,283.166 64.755 C 283.244 65.052,283.206 65.143,283.047 65.045 C 282.919 64.966,282.815 64.974,282.817 65.064 C 282.823 65.353,283.106 65.654,283.518 65.805 C 283.838 65.923,283.869 65.903,283.671 65.703 C 283.306 65.335,283.958 64.623,284.357 64.954 C 284.575 65.135,284.606 65.114,284.506 64.853 C 284.417 64.622,284.491 64.518,284.752 64.508 C 285.345 64.484,286.096 64.323,286.219 64.194 C 286.314 64.093,285.973 64.120,284.322 64.342 C 284.211 64.357,283.962 64.304,283.769 64.224 C 283.552 64.133,283.417 64.167,283.417 64.312 M281.005 66.148 C 280.618 66.246,280.097 66.280,279.848 66.224 C 279.548 66.157,279.412 66.209,279.446 66.378 C 279.474 66.518,279.362 66.603,279.196 66.566 C 279.030 66.529,278.957 66.561,279.032 66.637 C 279.108 66.713,279.082 67.007,278.974 67.290 C 278.835 67.658,278.847 67.848,279.019 67.955 C 279.417 68.201,279.763 67.946,279.645 67.493 C 279.570 67.207,279.609 67.119,279.767 67.217 C 279.907 67.303,280.000 67.230,280.000 67.035 C 280.000 66.856,280.090 66.766,280.201 66.834 C 280.312 66.902,280.402 66.868,280.402 66.757 C 280.402 66.646,280.585 66.591,280.809 66.634 C 281.033 66.677,281.164 66.627,281.099 66.522 C 281.034 66.417,281.100 66.325,281.244 66.316 C 281.727 66.288,282.247 66.162,282.363 66.045 C 282.524 65.885,281.846 65.936,281.005 66.148 M237.588 68.241 C 237.383 68.488,237.397 68.543,237.664 68.543 C 237.843 68.543,237.990 68.407,237.990 68.241 C 237.990 68.075,237.956 67.940,237.914 67.940 C 237.872 67.940,237.726 68.075,237.588 68.241 M256.482 68.024 C 256.482 68.063,256.618 68.354,256.783 68.670 L 257.083 69.246 257.084 68.715 C 257.085 68.423,256.950 68.132,256.784 68.068 C 256.618 68.004,256.482 67.984,256.482 68.024 M276.911 68.081 C 276.888 68.104,276.529 68.145,276.113 68.173 C 275.187 68.236,274.862 68.560,275.162 69.121 C 275.305 69.387,275.310 69.565,275.176 69.648 C 274.916 69.809,274.916 70.151,275.176 70.151 C 275.286 70.151,275.377 70.015,275.377 69.849 C 275.377 69.683,275.473 69.548,275.590 69.548 C 275.707 69.548,275.753 69.468,275.692 69.370 C 275.632 69.271,275.734 69.068,275.920 68.917 C 276.210 68.682,276.236 68.686,276.104 68.945 C 275.967 69.213,275.980 69.213,276.217 68.945 C 276.364 68.779,276.574 68.627,276.684 68.607 C 276.794 68.587,277.201 68.434,277.588 68.266 L 278.291 67.960 277.622 68.000 C 277.254 68.022,276.934 68.059,276.911 68.081 M235.977 70.207 C 235.522 70.574,235.454 71.759,235.889 71.759 C 236.165 71.759,236.184 71.703,235.987 71.465 C 235.785 71.222,235.815 71.186,236.163 71.253 C 236.394 71.297,236.583 71.248,236.583 71.144 C 236.583 71.040,236.442 70.955,236.270 70.955 C 236.097 70.955,236.007 70.872,236.069 70.772 C 236.132 70.671,236.408 70.613,236.684 70.643 C 237.001 70.678,237.186 70.597,237.186 70.425 C 237.186 70.274,237.103 70.151,237.001 70.151 C 236.900 70.151,236.696 70.108,236.549 70.056 C 236.402 70.004,236.144 70.072,235.977 70.207 M257.085 70.410 C 257.085 70.806,257.168 70.896,257.460 70.819 C 257.718 70.752,257.868 70.851,257.944 71.140 C 258.022 71.442,258.152 71.521,258.406 71.424 C 258.617 71.343,258.710 71.368,258.637 71.487 C 258.570 71.596,258.641 72.041,258.796 72.476 L 259.078 73.266 259.087 72.613 C 259.092 72.254,258.994 71.960,258.870 71.960 C 258.713 71.960,258.720 71.869,258.892 71.661 C 259.039 71.484,259.077 71.217,258.985 71.008 C 258.899 70.813,258.821 70.571,258.811 70.471 C 258.802 70.371,258.658 70.260,258.492 70.224 C 258.327 70.188,257.942 70.101,257.638 70.030 C 257.148 69.917,257.085 69.960,257.085 70.410 M272.053 70.163 C 271.985 70.272,271.778 70.337,271.593 70.307 C 271.391 70.274,271.281 70.365,271.317 70.534 C 271.351 70.690,271.270 70.884,271.137 70.966 C 270.815 71.165,271.059 71.759,271.463 71.759 C 271.639 71.759,271.727 71.668,271.658 71.558 C 271.590 71.447,271.635 71.357,271.759 71.357 C 271.882 71.357,271.931 71.273,271.868 71.170 C 271.804 71.067,271.838 70.930,271.943 70.865 C 272.047 70.800,272.198 70.853,272.278 70.983 C 272.375 71.139,272.336 71.164,272.161 71.055 C 271.985 70.947,271.946 70.971,272.043 71.128 C 272.236 71.441,272.574 71.219,272.440 70.868 C 272.382 70.717,272.445 70.525,272.580 70.442 C 272.737 70.344,272.774 70.373,272.683 70.522 C 272.463 70.877,272.720 70.798,273.134 70.383 C 273.495 70.023,273.486 70.012,272.841 69.988 C 272.476 69.974,272.121 70.053,272.053 70.163 M267.940 72.182 C 267.940 72.305,267.807 72.354,267.645 72.292 C 267.236 72.135,267.075 72.475,267.330 72.953 C 267.466 73.206,267.671 73.311,267.893 73.240 C 268.170 73.151,268.183 73.169,267.958 73.329 C 267.802 73.440,267.553 73.484,267.405 73.427 C 267.249 73.367,267.136 73.459,267.136 73.647 C 267.136 73.824,267.225 73.970,267.335 73.970 C 267.709 73.970,268.513 73.120,268.405 72.839 C 268.331 72.646,268.398 72.597,268.619 72.682 C 268.815 72.757,268.990 72.679,269.065 72.484 C 269.132 72.308,269.263 72.209,269.354 72.266 C 269.445 72.322,269.577 72.276,269.646 72.164 C 269.716 72.051,269.588 71.960,269.359 71.960 C 269.101 71.960,268.942 72.092,268.939 72.312 C 268.933 72.647,268.923 72.647,268.728 72.312 C 268.501 71.923,267.940 71.831,267.940 72.182 M267.733 72.667 C 267.822 72.612,268.017 72.719,268.168 72.905 C 268.404 73.196,268.400 73.217,268.141 73.057 C 267.975 72.954,267.756 72.869,267.655 72.867 C 267.554 72.866,267.447 72.749,267.419 72.608 C 267.390 72.467,267.413 72.445,267.469 72.559 C 267.526 72.673,267.645 72.722,267.733 72.667 M259.095 74.515 C 259.095 74.768,259.186 74.975,259.296 74.975 C 259.407 74.975,259.497 74.887,259.497 74.780 C 259.497 74.673,259.627 74.635,259.786 74.696 C 259.945 74.757,260.029 74.926,259.974 75.072 C 259.918 75.217,259.983 75.405,260.118 75.488 C 260.285 75.592,260.312 75.556,260.201 75.377 C 260.096 75.206,260.117 75.162,260.262 75.252 C 260.384 75.328,260.434 75.523,260.372 75.685 C 260.309 75.847,260.352 75.980,260.467 75.980 C 260.581 75.980,260.817 76.122,260.991 76.296 C 261.164 76.469,261.307 76.521,261.307 76.410 C 261.307 76.299,261.510 76.170,261.759 76.122 C 262.156 76.045,262.146 76.031,261.672 76.007 C 261.119 75.979,260.776 75.434,260.876 74.741 C 260.938 74.311,260.592 74.106,259.761 74.078 C 259.195 74.059,259.095 74.125,259.095 74.515 M263.719 74.233 C 263.719 74.322,263.637 74.345,263.536 74.283 C 263.436 74.221,263.399 74.374,263.453 74.623 C 263.533 74.986,263.510 75.016,263.337 74.774 C 263.150 74.511,263.121 74.516,263.119 74.810 C 263.117 74.995,263.251 75.283,263.417 75.448 C 263.684 75.716,263.679 75.760,263.367 75.841 C 263.096 75.912,263.116 75.939,263.455 75.957 C 263.952 75.983,264.240 75.675,263.910 75.471 C 263.765 75.382,263.808 75.210,264.038 74.956 C 264.303 74.662,264.446 74.627,264.658 74.803 C 264.879 74.986,264.906 74.960,264.795 74.669 C 264.706 74.437,264.732 74.353,264.868 74.437 C 264.985 74.509,265.180 74.448,265.303 74.300 C 265.483 74.083,265.354 74.036,264.622 74.051 C 264.125 74.062,263.719 74.144,263.719 74.233 M231.891 76.231 C 231.942 76.314,231.904 76.382,231.807 76.382 C 231.709 76.382,231.623 76.857,231.615 77.437 C 231.607 78.018,231.642 78.289,231.694 78.040 C 231.745 77.791,231.866 77.588,231.962 77.588 C 232.059 77.588,232.103 77.409,232.061 77.190 C 231.982 76.778,232.256 76.497,232.747 76.488 C 232.903 76.485,233.069 76.369,233.115 76.230 C 233.175 76.053,232.989 75.993,232.499 76.029 C 232.113 76.057,231.840 76.148,231.891 76.231 M229.520 81.702 C 229.469 81.754,229.137 81.819,228.783 81.846 C 228.430 81.873,228.141 81.971,228.141 82.065 C 228.141 82.158,228.060 82.185,227.962 82.124 C 227.863 82.063,227.723 82.331,227.650 82.719 C 227.496 83.543,227.697 84.045,227.980 83.539 C 228.082 83.357,228.244 83.256,228.340 83.316 C 228.436 83.375,228.569 83.336,228.635 83.230 C 228.701 83.122,228.574 83.071,228.347 83.115 C 228.123 83.158,227.940 83.147,227.940 83.090 C 227.940 82.852,228.465 82.487,228.695 82.563 C 228.832 82.609,228.945 82.543,228.945 82.417 C 228.945 82.291,229.017 82.232,229.105 82.287 C 229.194 82.341,229.376 82.211,229.509 81.997 C 229.735 81.636,229.740 81.482,229.520 81.702 M244.874 83.148 C 244.521 83.291,244.560 83.819,244.925 83.819 C 245.092 83.819,245.226 83.640,245.226 83.417 C 245.226 83.196,245.204 83.022,245.176 83.031 C 245.148 83.040,245.013 83.092,244.874 83.148 M245.504 83.260 C 245.562 83.450,245.524 83.659,245.418 83.724 C 245.313 83.789,245.226 83.993,245.226 84.177 C 245.226 84.441,245.292 84.418,245.538 84.066 C 245.779 83.722,245.799 83.540,245.624 83.267 C 245.417 82.945,245.406 82.945,245.504 83.260 M243.719 83.618 C 243.497 83.713,243.422 83.797,243.551 83.805 C 243.681 83.813,243.929 83.874,244.104 83.941 C 244.313 84.021,244.422 83.952,244.422 83.740 C 244.422 83.383,244.311 83.363,243.719 83.618 M243.683 84.774 C 243.656 85.256,243.735 85.435,243.984 85.456 C 244.170 85.471,243.960 85.549,243.518 85.628 L 242.714 85.772 243.455 85.801 C 244.204 85.829,244.613 85.569,244.211 85.321 C 244.066 85.231,244.109 85.059,244.339 84.805 C 244.590 84.527,244.754 84.481,244.939 84.635 C 245.135 84.797,245.170 84.754,245.090 84.449 C 244.895 83.701,243.727 83.971,243.683 84.774 M243.158 84.824 C 243.100 85.045,243.149 85.285,243.266 85.357 C 243.387 85.432,243.421 85.394,243.344 85.271 C 243.270 85.151,243.301 84.996,243.414 84.927 C 243.665 84.771,243.683 84.422,243.441 84.422 C 243.343 84.422,243.216 84.603,243.158 84.824 M225.662 86.566 C 225.588 86.640,225.528 86.881,225.528 87.102 C 225.528 87.595,225.711 87.446,225.824 86.861 C 225.911 86.407,225.879 86.349,225.662 86.566 M224.429 87.814 C 223.780 87.953,223.405 89.782,224.026 89.782 C 224.167 89.782,224.241 89.673,224.190 89.539 C 224.070 89.227,224.745 88.147,225.075 88.121 C 225.626 88.077,225.729 88.032,225.729 87.839 C 225.729 87.621,225.360 87.614,224.429 87.814 M221.772 92.452 C 221.763 92.974,221.783 93.021,221.847 92.626 C 221.905 92.267,222.115 92.018,222.474 91.884 L 223.015 91.683 222.400 91.710 C 221.838 91.736,221.784 91.799,221.772 92.452 M219.945 94.072 C 219.789 94.323,219.767 94.616,219.883 94.916 C 220.042 95.329,220.075 95.340,220.205 95.019 C 220.305 94.770,220.479 94.698,220.778 94.781 C 221.082 94.866,221.127 94.846,220.933 94.712 C 220.597 94.479,220.984 94.172,221.338 94.391 C 221.481 94.480,221.515 94.446,221.426 94.302 C 221.347 94.175,221.384 94.070,221.508 94.070 C 221.631 94.070,221.676 93.980,221.608 93.869 C 221.438 93.594,220.704 93.614,220.704 93.894 C 220.704 94.056,220.630 94.058,220.444 93.904 C 220.251 93.744,220.123 93.788,219.945 94.072 M217.889 97.789 C 217.624 98.108,217.821 98.181,218.374 97.969 C 218.549 97.902,218.641 97.766,218.580 97.667 C 218.417 97.404,218.173 97.447,217.889 97.789 M216.380 99.702 C 216.310 99.814,216.192 99.868,216.117 99.822 C 216.041 99.775,215.955 100.090,215.925 100.522 C 215.883 101.115,215.944 101.307,216.176 101.307 C 216.345 101.307,216.482 101.166,216.482 100.993 C 216.482 100.821,216.567 100.732,216.670 100.795 C 216.772 100.859,216.913 100.819,216.983 100.707 C 217.053 100.593,216.921 100.503,216.683 100.503 C 216.446 100.503,216.314 100.412,216.384 100.298 C 216.453 100.186,216.594 100.146,216.697 100.210 C 216.800 100.273,216.884 100.218,216.884 100.088 C 216.884 99.915,216.969 99.921,217.197 100.110 C 217.456 100.325,217.499 100.320,217.449 100.084 C 217.333 99.547,216.631 99.296,216.380 99.702 " stroke="none" fill="#707478" fill-rule="evenodd"></path><path id="path1" d="M267.344 72.550 C 267.083 73.037,267.077 73.367,267.330 73.367 C 267.437 73.367,267.477 73.243,267.419 73.091 C 267.361 72.940,267.461 72.668,267.641 72.488 C 267.821 72.308,267.875 72.161,267.760 72.161 C 267.646 72.161,267.458 72.336,267.344 72.550 M194.487 74.286 C 194.313 74.459,194.171 74.866,194.171 75.190 L 194.171 75.779 192.714 75.780 C 185.980 75.783,184.322 76.057,184.322 77.168 C 184.322 77.722,184.314 77.724,182.470 77.907 C 180.734 78.079,180.609 78.122,180.480 78.593 C 180.351 79.060,180.340 79.064,180.322 78.650 C 180.284 77.810,179.940 77.783,170.110 77.837 L 160.704 77.889 160.643 78.817 L 160.583 79.744 158.859 79.851 C 156.988 79.968,156.792 80.089,156.787 81.129 C 156.784 81.712,156.725 81.764,155.951 81.868 C 155.003 81.995,154.781 82.240,154.777 83.166 C 154.774 83.788,154.737 83.819,154.010 83.819 C 153.047 83.819,152.764 84.103,152.764 85.065 L 152.764 85.829 151.881 85.829 C 150.928 85.829,150.754 86.015,150.754 87.028 C 150.754 87.608,150.386 87.830,149.420 87.836 C 148.982 87.839,148.752 88.302,148.746 89.196 C 148.744 89.561,148.631 89.648,148.157 89.648 C 147.182 89.648,146.962 89.833,146.821 90.772 L 146.688 91.658 145.806 91.658 L 144.925 91.658 144.925 92.663 L 144.925 93.668 143.920 93.668 L 142.915 93.668 142.915 94.673 L 142.915 95.678 141.910 95.678 L 140.905 95.678 140.905 93.695 L 140.905 91.711 141.725 91.601 C 142.868 91.448,142.808 91.713,142.874 86.540 L 142.935 81.857 143.722 81.731 C 144.889 81.545,145.463 79.051,144.550 78.138 C 144.107 77.696,127.955 77.788,127.508 78.235 C 127.207 78.536,127.150 79.170,127.073 83.103 L 126.984 87.625 126.155 87.788 L 125.327 87.952 125.273 92.687 L 125.219 97.421 124.268 97.605 L 123.317 97.789 123.263 102.530 L 123.209 107.271 122.258 107.454 L 121.307 107.638 121.253 112.379 L 121.199 117.120 120.248 117.304 L 119.296 117.487 119.242 121.357 L 119.187 125.226 118.513 125.226 C 117.453 125.226,117.353 125.512,117.234 128.864 C 117.164 130.819,117.062 131.788,116.945 131.581 C 116.846 131.403,116.407 131.201,115.970 131.131 L 115.176 131.004 115.176 127.426 C 115.176 123.496,115.096 123.216,113.980 123.216 L 113.417 123.216 113.332 119.617 C 113.238 115.634,113.159 115.377,112.036 115.377 L 111.357 115.377 111.354 111.910 C 111.351 107.777,111.307 107.538,110.546 107.538 C 109.323 107.538,109.347 107.615,109.344 103.747 C 109.340 99.767,109.325 99.711,108.170 99.556 L 107.337 99.445 107.337 95.793 C 107.337 91.745,107.311 91.658,106.095 91.658 L 105.335 91.658 105.281 87.789 L 105.226 83.920 104.372 83.858 L 103.518 83.796 103.518 81.001 C 103.518 77.439,104.446 77.784,94.938 77.813 C 86.833 77.837,85.962 77.893,85.894 78.394 C 85.871 78.558,85.795 79.394,85.723 80.251 L 85.594 81.809 84.948 81.809 C 83.960 81.809,83.819 82.090,83.819 84.060 L 83.819 85.829 82.936 85.829 C 81.865 85.829,81.809 85.938,81.809 88.030 L 81.809 89.595 80.976 89.707 C 79.897 89.852,79.806 90.030,79.802 92.010 L 79.799 93.668 78.918 93.668 C 77.870 93.668,77.796 93.824,77.792 96.030 C 77.789 97.406,77.764 97.488,77.337 97.490 C 76.085 97.498,76.025 97.585,75.873 99.617 L 75.731 101.508 74.850 101.508 L 73.970 101.508 73.970 103.518 L 73.970 105.528 72.965 105.528 L 71.960 105.528 71.960 107.426 L 71.960 109.325 71.005 109.386 L 70.050 109.447 69.993 111.396 L 69.935 113.345 68.988 113.406 L 68.040 113.467 67.983 115.301 L 67.925 117.135 67.112 117.244 C 66.036 117.388,66.066 117.333,65.967 119.402 L 65.880 121.206 65.001 121.206 L 64.121 121.206 64.121 123.216 L 64.121 125.226 63.116 125.226 L 62.111 125.226 62.111 126.231 C 62.111 127.230,62.107 127.236,61.457 127.239 C 60.667 127.243,60.380 127.409,60.248 127.940 C 60.192 128.161,60.137 127.188,60.124 125.779 L 60.101 123.216 47.337 123.216 L 34.573 123.216 34.573 121.232 L 34.573 119.247 35.355 119.122 C 36.395 118.956,36.382 119.025,36.382 113.864 L 36.382 109.369 37.337 109.307 L 38.291 109.246 38.345 104.372 L 38.399 99.497 39.159 99.497 C 40.376 99.497,40.402 99.411,40.402 95.358 C 40.402 91.412,40.389 91.457,41.502 91.457 C 42.211 91.457,42.272 91.098,42.397 86.231 L 42.513 81.709 43.151 81.647 C 44.248 81.540,44.800 79.085,43.923 78.208 C 43.494 77.779,27.327 77.719,26.900 78.145 C 26.713 78.332,26.623 79.638,26.565 83.019 C 26.486 87.574,26.479 87.638,26.057 87.641 C 24.669 87.650,24.724 87.481,24.724 91.782 L 24.724 95.678 24.034 95.678 C 22.741 95.678,22.714 95.786,22.714 100.919 L 22.714 105.528 21.831 105.528 C 20.669 105.528,20.704 105.366,20.704 110.770 L 20.704 115.377 19.821 115.377 C 18.659 115.377,18.693 115.215,18.693 120.619 L 18.693 125.226 17.815 125.226 C 16.687 125.226,16.688 125.221,16.689 131.558 C 16.690 136.774,16.695 136.805,17.589 136.937 L 18.191 137.025 17.561 137.055 C 16.800 137.092,16.690 137.390,16.686 139.436 L 16.683 140.881 15.829 140.943 L 14.975 141.005 14.975 144.824 L 14.975 148.643 16.834 148.701 L 18.693 148.759 18.726 147.897 C 18.754 147.141,18.768 147.116,18.840 147.699 C 18.943 148.534,19.440 148.744,21.320 148.744 L 22.714 148.744 22.714 149.541 C 22.714 150.704,22.962 150.772,26.981 150.708 L 30.452 150.653 30.553 149.347 C 30.615 148.542,30.709 148.175,30.798 148.392 C 30.985 148.847,44.106 148.945,44.289 148.492 C 44.370 148.291,44.394 148.291,44.406 148.492 C 44.433 148.915,53.987 148.850,54.149 148.426 C 54.325 147.969,54.294 137.634,54.117 137.355 C 54.035 137.227,53.697 137.082,53.366 137.033 C 53.035 136.984,53.962 136.931,55.427 136.915 L 58.090 136.884 58.110 136.332 L 58.131 135.779 58.270 136.281 C 58.365 136.623,58.599 136.824,59.004 136.910 L 59.598 137.038 58.966 137.062 C 58.089 137.095,58.090 137.084,58.090 142.915 C 58.090 149.279,57.906 148.744,60.101 148.744 C 62.172 148.744,62.111 148.812,62.111 146.516 L 62.111 144.925 64.020 144.925 L 65.930 144.925 65.932 146.080 C 65.933 146.716,65.990 147.575,66.059 147.990 L 66.183 148.744 91.668 148.744 C 111.867 148.744,117.173 148.692,117.254 148.492 C 117.335 148.291,117.358 148.291,117.371 148.492 C 117.383 148.686,118.491 148.744,122.197 148.744 L 127.007 148.744 127.094 148.291 L 127.181 147.839 127.209 148.291 C 127.252 149.002,130.784 148.993,130.963 148.282 C 131.138 147.584,130.980 139.354,130.787 139.162 C 130.487 138.862,123.427 138.956,123.237 139.263 C 123.104 139.479,123.047 139.469,122.949 139.213 C 122.777 138.766,117.972 138.740,117.529 139.183 C 117.307 139.406,117.186 139.417,117.002 139.233 C 116.709 138.940,112.571 138.807,110.856 139.036 C 109.731 139.187,109.644 139.237,109.523 139.800 L 109.394 140.402 109.371 139.753 C 109.338 138.853,109.296 138.848,102.357 138.927 C 95.718 139.002,95.757 138.994,95.623 140.267 C 95.552 140.941,95.542 140.924,95.511 140.072 C 95.468 138.869,95.559 138.894,91.240 138.894 L 87.638 138.894 87.638 138.102 C 87.638 137.061,87.584 137.041,84.932 137.063 C 82.159 137.086,82.040 137.127,81.883 138.112 L 81.758 138.894 79.812 138.894 L 77.866 138.894 77.677 138.040 L 77.487 137.186 75.779 137.080 C 74.522 137.003,74.283 136.949,74.874 136.879 L 75.678 136.784 75.736 134.925 C 75.793 133.113,75.806 133.065,76.276 133.065 C 77.630 133.065,77.789 132.834,77.789 130.859 L 77.789 129.045 78.586 129.045 C 79.618 129.045,79.799 128.701,79.799 126.747 L 79.799 125.226 88.744 125.226 L 97.688 125.226 97.688 125.923 C 97.688 126.689,98.091 127.035,98.982 127.035 L 99.497 127.035 99.500 130.503 C 99.504 134.836,99.500 134.820,100.624 134.989 L 101.508 135.121 101.508 136.003 L 101.508 136.884 108.928 136.884 C 116.620 136.884,116.976 136.859,116.999 136.310 C 117.008 136.070,117.072 136.103,117.230 136.432 L 117.448 136.884 125.133 136.884 L 132.817 136.884 132.939 136.432 C 133.005 136.183,133.061 134.420,133.063 132.513 L 133.065 129.045 133.862 129.045 C 135.035 129.045,135.075 128.870,135.075 123.732 L 135.075 119.196 135.980 119.196 L 136.884 119.196 136.884 118.191 L 136.884 117.186 137.889 117.186 L 138.894 117.186 138.894 116.292 L 138.894 115.399 139.849 115.338 L 140.804 115.276 140.865 114.322 L 140.927 113.367 141.921 113.367 L 142.915 113.367 142.915 114.958 C 142.915 117.080,142.968 117.186,144.042 117.186 L 144.925 117.186 144.925 118.870 C 144.925 120.695,145.014 120.870,146.055 121.093 C 146.681 121.227,146.684 121.233,146.827 122.875 C 146.992 124.776,147.136 125.025,148.065 125.025 L 148.744 125.025 148.755 126.080 C 148.780 128.306,148.946 128.721,149.901 128.933 L 150.754 129.122 150.774 130.441 C 150.805 132.500,150.924 132.753,151.898 132.825 L 152.725 132.886 152.794 134.691 C 152.887 137.072,152.104 136.889,161.910 136.832 L 170.352 136.784 170.407 133.859 C 170.483 129.871,170.368 129.376,169.339 129.246 L 168.543 129.146 168.437 127.376 C 168.320 125.436,168.193 125.234,167.085 125.229 C 166.436 125.226,166.432 125.220,166.432 124.221 L 166.432 123.216 165.528 123.216 L 164.623 123.216 164.623 121.595 C 164.623 119.537,164.451 119.196,163.410 119.196 L 162.613 119.196 162.613 117.604 C 162.613 115.483,162.559 115.377,161.486 115.377 L 160.603 115.377 160.603 113.685 C 160.603 111.455,160.556 111.357,159.476 111.357 L 158.593 111.357 158.593 109.454 L 158.593 107.552 157.595 107.419 L 156.597 107.287 156.540 105.452 L 156.482 103.618 155.578 103.498 C 154.691 103.379,154.688 103.376,155.420 103.347 C 156.236 103.314,156.583 102.919,156.583 102.023 C 156.583 101.611,156.681 101.508,157.072 101.508 C 158.171 101.508,158.593 101.174,158.593 100.306 C 158.593 99.519,158.611 99.497,159.282 99.497 C 160.158 99.497,160.603 99.052,160.603 98.177 C 160.603 97.496,160.614 97.487,161.486 97.487 C 162.460 97.487,162.613 97.309,162.613 96.175 C 162.613 95.512,162.630 95.498,163.568 95.438 L 164.523 95.377 164.584 94.523 L 164.646 93.668 165.539 93.668 L 166.432 93.668 166.432 92.663 L 166.432 91.658 167.487 91.647 C 169.706 91.622,170.119 91.454,170.307 90.500 C 170.463 89.712,170.524 89.648,171.117 89.645 C 172.031 89.641,172.277 89.417,172.404 88.471 C 172.513 87.653,172.530 87.638,173.312 87.638 C 173.964 87.638,174.132 87.557,174.240 87.186 C 174.312 86.937,174.417 90.035,174.472 94.070 L 174.573 101.407 175.395 101.467 L 176.218 101.528 176.400 103.377 L 176.583 105.226 177.405 105.409 C 178.157 105.576,178.243 105.662,178.410 106.414 L 178.593 107.236 180.442 107.294 L 182.290 107.351 182.351 108.299 L 182.412 109.246 184.372 109.304 L 186.332 109.361 186.332 110.033 C 186.332 111.167,186.601 111.249,190.583 111.326 L 194.171 111.396 194.171 112.259 C 194.171 113.309,194.286 113.367,196.373 113.367 L 197.939 113.367 198.068 114.177 C 198.228 115.175,198.656 115.377,200.616 115.377 L 202.010 115.377 202.010 117.260 L 202.010 119.143 201.177 119.255 C 200.229 119.382,200.007 119.627,200.003 120.553 C 200.000 121.140,199.941 121.206,199.413 121.206 C 198.438 121.206,198.218 121.391,198.077 122.329 L 197.944 123.216 192.037 123.216 L 186.131 123.216 186.131 122.211 L 186.131 121.206 185.226 121.206 L 184.322 121.206 184.322 119.614 C 184.322 117.558,184.262 117.433,183.206 117.274 L 182.326 117.142 182.269 115.305 L 182.211 113.467 175.377 113.467 L 168.543 113.467 168.543 119.966 C 168.543 127.168,168.518 127.035,169.877 127.035 C 170.394 127.035,170.434 127.097,170.491 127.990 L 170.553 128.945 171.497 129.006 L 172.441 129.066 172.502 130.011 L 172.563 130.955 173.507 131.016 L 174.451 131.076 174.512 132.021 L 174.573 132.965 175.528 133.026 L 176.482 133.087 176.482 133.885 C 176.482 134.944,176.858 135.075,179.887 135.075 L 182.260 135.075 182.385 135.857 C 182.455 136.297,182.650 136.693,182.829 136.762 C 183.403 136.982,201.000 136.901,201.420 136.676 C 201.869 136.436,201.986 135.075,201.558 135.075 C 201.384 135.075,201.311 134.717,201.319 133.920 C 201.329 133.100,201.406 132.780,201.586 132.819 C 201.725 132.849,201.788 132.793,201.727 132.693 C 201.377 132.127,203.092 131.266,204.581 131.258 C 205.096 131.256,205.764 130.711,206.111 130.011 C 206.265 129.701,206.636 129.476,207.230 129.332 C 207.965 129.154,208.147 129.015,208.277 128.528 C 208.460 127.843,208.939 127.437,209.564 127.437 C 209.914 127.437,210.034 127.283,210.145 126.693 C 210.301 125.865,210.725 125.443,211.413 125.434 C 211.666 125.430,211.902 125.314,211.939 125.176 C 212.281 123.888,212.400 123.709,213.063 123.493 C 213.802 123.253,213.978 123.039,214.164 122.155 C 214.253 121.736,214.432 121.566,214.880 121.476 C 215.550 121.342,215.693 121.005,215.081 121.005 C 214.297 121.005,214.070 120.065,214.070 116.823 C 214.070 112.113,213.965 111.472,213.141 111.174 C 212.219 110.841,212.006 109.293,212.545 106.834 C 212.593 106.613,212.639 106.272,212.648 106.075 C 212.658 105.842,212.880 105.675,213.287 105.594 C 213.890 105.473,213.907 105.441,213.782 104.663 C 213.598 103.507,213.617 103.518,211.657 103.518 L 209.871 103.518 209.810 102.563 L 209.749 101.608 207.789 101.551 L 205.829 101.493 205.829 100.617 C 205.829 99.506,205.805 99.497,202.614 99.497 L 200.035 99.497 199.902 98.709 C 199.728 97.678,199.691 97.668,195.638 97.539 L 192.181 97.430 192.121 96.604 L 192.060 95.779 191.106 95.718 L 190.151 95.656 190.151 92.678 L 190.151 89.699 191.857 89.609 C 193.800 89.507,193.789 89.513,193.954 88.495 L 194.077 87.739 197.038 87.683 L 200.000 87.627 200.000 88.322 C 200.000 89.431,200.382 89.648,202.326 89.648 L 204.020 89.648 204.020 91.169 C 204.020 93.069,204.213 93.467,205.133 93.467 C 205.803 93.467,205.829 93.496,205.832 94.221 C 205.838 95.520,205.516 95.462,212.973 95.522 L 219.799 95.578 219.746 90.553 C 219.675 83.933,219.649 83.819,218.215 83.819 C 217.756 83.819,217.705 83.734,217.649 82.864 L 217.588 81.910 216.633 81.848 L 215.678 81.787 215.678 80.793 L 215.678 79.799 214.774 79.799 C 213.888 79.799,213.869 79.786,213.866 79.146 C 213.861 78.015,213.665 77.897,211.666 77.819 L 209.849 77.749 209.849 76.977 C 209.849 75.958,210.054 76.012,205.658 75.854 L 201.809 75.716 201.809 75.051 C 201.809 74.075,201.432 73.970,197.917 73.970 C 195.354 73.970,194.747 74.026,194.487 74.286 M288.851 76.369 C 288.737 76.583,288.643 77.430,288.643 78.252 L 288.643 79.746 287.823 79.856 C 286.694 80.008,286.765 79.695,286.669 84.931 L 286.583 89.648 286.021 89.648 C 284.776 89.648,284.824 89.445,284.824 94.695 L 284.824 99.497 284.137 99.497 C 282.763 99.497,282.814 99.338,282.814 103.628 L 282.814 107.515 281.968 107.576 C 280.875 107.656,280.849 107.755,280.824 111.988 L 280.804 115.332 281.488 115.460 C 282.255 115.604,282.328 115.723,282.505 117.110 C 282.794 119.365,282.792 119.360,283.410 119.496 C 284.213 119.672,284.390 119.947,284.722 121.532 C 284.880 122.290,285.110 122.943,285.232 122.984 C 286.064 123.261,286.504 123.984,286.594 125.222 C 286.682 126.440,287.095 127.236,287.638 127.236 C 288.126 127.236,288.643 128.064,288.643 128.844 C 288.643 129.562,288.696 129.648,289.131 129.648 C 290.140 129.648,290.653 131.007,290.653 133.678 L 290.653 135.075 291.417 135.075 C 292.642 135.075,292.663 135.001,292.663 130.814 L 292.663 127.035 293.216 127.032 C 294.502 127.025,294.653 126.403,294.665 121.055 L 294.673 117.186 295.262 117.186 C 296.443 117.186,296.482 117.018,296.482 111.945 L 296.482 107.337 297.085 107.337 C 297.961 107.337,298.492 106.713,298.496 105.678 C 298.497 105.139,298.561 104.922,298.668 105.091 C 298.761 105.237,299.211 105.407,299.670 105.469 L 300.503 105.581 300.523 107.815 C 300.549 110.808,300.616 111.005,301.666 111.213 L 302.513 111.380 302.513 113.137 C 302.513 115.138,302.646 115.377,303.759 115.377 L 304.523 115.377 304.523 117.965 C 304.523 120.765,304.556 120.859,305.654 121.093 L 306.284 121.227 306.370 123.041 C 306.465 125.029,306.580 125.218,307.688 125.223 L 308.342 125.226 308.357 127.085 C 308.383 130.342,308.493 130.712,309.497 130.910 L 310.352 131.079 310.352 132.836 C 310.352 134.836,310.485 135.075,311.598 135.075 C 312.308 135.075,312.362 135.117,312.362 135.662 C 312.362 136.930,312.176 136.882,317.157 136.911 C 319.660 136.925,321.392 136.993,321.005 137.062 C 320.336 137.180,320.299 137.230,320.242 138.090 L 320.182 138.995 316.554 139.000 C 313.416 139.004,312.893 139.049,312.683 139.337 C 312.460 139.642,312.420 139.637,312.198 139.282 C 311.978 138.929,311.703 138.894,309.144 138.894 L 306.332 138.894 306.332 138.330 C 306.332 137.264,305.988 137.059,304.317 137.126 L 302.814 137.186 302.626 138.034 L 302.438 138.883 296.596 138.939 C 289.767 139.004,290.664 139.118,290.513 138.166 C 290.356 137.170,290.221 137.092,288.633 137.089 C 287.136 137.085,286.834 137.277,286.834 138.231 C 286.834 138.893,286.832 138.894,285.829 138.894 C 284.830 138.894,284.824 138.891,284.821 138.241 C 284.816 137.141,284.641 137.040,282.585 136.946 C 279.582 136.810,278.909 137.004,278.834 138.024 C 278.774 138.834,278.754 138.855,277.904 138.982 C 277.049 139.110,277.034 139.127,276.934 140.009 C 276.755 141.596,276.972 142.712,277.463 142.726 L 277.889 142.739 277.467 142.910 C 276.977 143.108,276.734 144.493,276.956 145.829 C 277.085 146.604,277.120 146.635,277.932 146.694 L 278.773 146.756 278.834 147.699 L 278.894 148.643 286.626 148.686 C 292.511 148.719,294.394 148.671,294.512 148.485 C 294.632 148.296,294.668 148.298,294.670 148.492 C 294.675 148.856,302.233 148.856,302.379 148.492 C 302.461 148.291,302.484 148.291,302.497 148.492 C 302.525 148.935,306.278 148.838,306.394 148.392 C 306.479 148.066,306.488 148.066,306.509 148.402 C 306.531 148.736,306.758 148.760,309.448 148.704 L 312.362 148.643 312.362 149.490 C 312.362 150.711,312.576 150.773,316.629 150.708 L 320.101 150.653 320.159 149.648 L 320.218 148.643 322.119 148.707 C 323.554 148.756,324.020 148.709,324.020 148.516 C 324.020 148.318,324.074 148.315,324.261 148.503 C 324.431 148.672,325.586 148.744,328.172 148.744 L 331.841 148.744 331.978 148.012 C 332.199 146.836,331.901 143.455,331.553 143.194 C 331.177 142.911,331.174 142.714,331.545 142.714 C 331.916 142.714,332.154 141.222,331.974 140.023 C 331.821 139.007,331.557 138.894,329.322 138.894 L 328.040 138.894 328.040 137.990 C 328.040 137.107,328.025 137.085,327.387 137.070 L 326.734 137.054 327.266 136.859 C 327.558 136.752,327.860 136.465,327.937 136.221 C 328.074 135.784,328.078 135.784,328.218 136.281 L 328.359 136.784 332.069 136.884 C 334.109 136.940,335.417 137.030,334.975 137.085 L 334.171 137.186 334.171 142.915 L 334.171 148.643 336.030 148.701 L 337.889 148.759 337.909 148.198 L 337.930 147.638 338.069 148.141 L 338.209 148.643 348.753 148.696 C 358.057 148.742,359.323 148.712,359.524 148.439 C 359.728 148.161,359.764 148.161,359.869 148.436 C 360.052 148.913,366.741 148.890,367.271 148.411 C 367.613 148.101,367.638 148.102,367.638 148.413 C 367.638 148.721,368.353 148.747,376.382 148.737 L 385.126 148.726 385.126 142.906 L 385.126 137.085 384.573 137.079 C 384.058 137.074,384.047 137.058,384.422 136.845 C 385.098 136.462,385.119 136.313,385.123 131.950 C 385.126 127.342,385.101 127.236,384.005 127.236 L 383.366 127.236 383.282 123.637 C 383.189 119.705,383.119 119.462,382.045 119.358 L 381.407 119.296 381.307 115.520 C 381.196 111.380,381.192 111.366,379.950 111.360 L 379.296 111.357 379.296 107.678 C 379.296 103.602,379.271 103.518,378.055 103.518 L 377.295 103.518 377.241 99.648 L 377.186 95.779 376.231 95.718 L 375.276 95.656 375.276 91.760 L 375.276 87.864 374.393 87.731 L 373.510 87.599 373.439 83.127 C 373.359 78.178,373.311 77.990,372.136 77.990 C 371.551 77.990,371.457 77.922,371.457 77.501 C 371.457 77.231,371.369 76.778,371.260 76.493 L 371.063 75.975 363.594 76.028 C 355.051 76.088,355.864 75.862,355.671 78.230 L 355.546 79.777 354.707 79.838 L 353.869 79.899 353.812 81.859 L 353.754 83.819 352.757 83.819 L 351.759 83.819 351.759 85.729 L 351.759 87.638 351.072 87.638 C 349.782 87.638,349.749 87.691,349.749 89.770 L 349.749 91.658 348.866 91.658 C 347.892 91.658,347.739 91.836,347.739 92.970 C 347.739 93.621,347.708 93.647,346.884 93.707 L 346.030 93.769 345.881 95.559 C 345.710 97.617,345.765 97.512,344.776 97.672 L 344.020 97.795 343.962 99.651 L 343.905 101.508 343.148 101.508 C 342.042 101.508,341.910 101.748,341.910 103.759 L 341.910 105.528 341.113 105.528 C 340.083 105.528,339.899 105.872,339.899 107.800 L 339.899 109.294 339.079 109.404 C 337.995 109.549,338.025 109.493,337.927 111.553 L 337.841 113.346 337.011 113.407 L 336.181 113.467 336.001 115.417 L 335.821 117.367 334.996 117.427 L 334.171 117.487 334.113 119.347 L 334.055 121.206 333.299 121.206 C 332.193 121.206,332.060 121.447,332.060 123.457 L 332.060 125.226 331.266 125.226 C 330.722 125.226,330.408 125.337,330.267 125.578 C 330.124 125.825,330.061 124.626,330.056 121.558 L 330.050 117.186 330.933 117.186 C 332.079 117.186,332.060 117.254,332.060 112.974 L 332.060 109.398 332.842 109.273 C 333.918 109.101,333.931 109.039,334.026 103.970 L 334.109 99.497 334.753 99.497 C 335.864 99.497,335.879 99.429,335.879 94.332 L 335.879 89.648 336.566 89.648 C 337.976 89.648,337.889 90.081,337.889 83.010 C 337.889 79.493,337.835 76.473,337.767 76.298 C 337.583 75.818,325.016 75.816,324.537 76.296 C 324.282 76.550,324.221 77.116,324.221 79.210 L 324.221 81.809 323.618 81.809 C 322.288 81.809,322.211 82.099,322.211 87.110 L 322.211 91.607 321.401 91.736 C 320.265 91.918,320.201 92.206,320.201 97.160 L 320.201 101.430 319.347 101.620 C 318.298 101.852,318.242 102.121,318.196 107.136 C 318.176 109.340,318.105 110.301,317.984 110.000 C 317.865 109.703,317.632 109.548,317.309 109.548 C 316.237 109.548,316.181 109.441,316.181 107.416 L 316.181 105.528 315.276 105.528 L 314.372 105.528 314.357 103.668 C 314.330 100.323,314.172 99.869,312.944 99.613 L 312.420 99.504 312.312 96.851 C 312.194 93.944,312.073 93.668,310.916 93.668 L 310.352 93.668 310.352 91.899 C 310.352 89.892,310.219 89.648,309.121 89.648 L 308.373 89.648 308.307 86.927 C 308.235 83.942,308.187 83.828,306.992 83.822 L 306.346 83.819 306.289 81.859 L 306.231 79.899 305.405 79.839 L 304.579 79.779 304.442 78.141 C 304.367 77.241,304.208 76.386,304.088 76.242 C 303.680 75.750,289.118 75.871,288.851 76.369 M244.089 84.019 C 243.691 84.180,243.236 85.313,243.474 85.551 C 243.527 85.604,243.628 85.334,243.700 84.953 C 243.811 84.361,243.941 84.229,244.578 84.060 C 244.990 83.950,245.146 83.857,244.925 83.853 C 244.704 83.848,244.328 83.923,244.089 84.019 M175.932 85.770 C 175.685 85.817,175.233 85.819,174.927 85.772 C 174.622 85.726,174.824 85.687,175.377 85.686 C 175.930 85.684,176.180 85.722,175.932 85.770 M94.070 107.140 C 94.236 107.245,94.621 107.332,94.925 107.334 L 95.477 107.337 95.480 108.894 C 95.482 109.751,95.537 110.656,95.604 110.905 L 95.725 111.357 91.330 111.351 C 88.246 111.346,87.040 111.283,87.286 111.140 C 87.580 110.969,87.638 110.637,87.638 109.136 L 87.638 107.337 88.435 107.337 C 89.464 107.337,89.648 106.992,89.648 105.065 L 89.648 103.571 90.469 103.460 C 91.552 103.315,91.522 103.370,91.620 101.323 L 91.705 99.541 92.464 99.420 C 93.244 99.295,93.436 99.058,93.510 98.124 C 93.534 97.829,93.602 99.694,93.661 102.269 C 93.750 106.129,93.822 106.983,94.070 107.140 M362.134 101.316 C 362.412 101.421,362.859 101.508,363.129 101.508 L 363.618 101.508 363.618 106.221 C 363.618 110.498,363.651 110.954,363.970 111.140 C 364.217 111.283,363.018 111.346,359.950 111.351 L 355.578 111.357 355.578 109.347 L 355.578 107.337 356.583 107.337 L 357.588 107.337 357.588 105.438 L 357.588 103.540 358.543 103.478 L 359.497 103.417 359.555 101.457 L 359.613 99.497 360.510 99.497 C 361.074 99.497,361.421 99.404,361.444 99.246 C 361.465 99.108,361.515 99.474,361.556 100.059 C 361.620 100.978,361.699 101.150,362.134 101.316 M367.457 125.879 C 367.490 130.338,367.573 130.710,368.573 130.907 L 369.407 131.071 369.478 133.646 C 369.575 137.210,368.888 136.878,376.256 136.915 C 379.642 136.931,382.163 136.982,381.859 137.028 C 381.323 137.110,381.306 137.151,381.283 138.456 C 381.270 139.194,381.219 139.645,381.170 139.458 C 380.978 138.730,374.275 138.670,373.748 139.392 C 373.518 139.706,373.482 139.700,373.275 139.313 C 372.978 138.758,367.918 138.657,367.709 139.201 C 367.612 139.453,367.536 139.462,367.282 139.251 C 366.908 138.941,362.881 138.800,361.106 139.036 C 359.966 139.187,359.894 139.229,359.803 139.799 C 359.746 140.157,359.664 139.748,359.602 138.797 L 359.497 137.191 358.693 137.045 C 358.251 136.965,357.415 136.952,356.834 137.016 L 355.779 137.132 355.743 139.068 C 355.723 140.134,355.673 140.576,355.631 140.051 C 355.538 138.867,355.441 138.835,352.346 138.963 C 351.083 139.015,349.915 139.053,349.749 139.047 C 349.583 139.042,348.203 139.028,346.683 139.016 L 343.919 138.995 343.919 138.358 C 343.920 137.352,343.738 137.086,343.044 137.078 L 342.412 137.070 343.035 136.799 C 343.678 136.519,343.912 135.703,343.918 133.730 C 343.920 133.119,343.961 133.085,344.774 133.027 L 345.628 132.965 345.686 131.005 L 345.743 129.045 346.741 129.045 L 347.739 129.045 347.739 127.136 L 347.739 125.226 348.503 125.226 C 349.465 125.226,349.749 124.943,349.749 123.980 L 349.749 123.216 358.593 123.216 L 367.437 123.216 367.457 125.879 M330.050 127.839 L 330.050 129.045 329.361 129.045 C 328.982 129.045,328.530 129.187,328.356 129.361 C 328.069 129.648,328.040 129.557,328.040 128.356 L 328.040 127.035 328.945 127.035 C 329.442 127.035,329.849 126.945,329.849 126.834 C 329.849 126.724,329.894 126.633,329.950 126.633 C 330.005 126.633,330.050 127.176,330.050 127.839 M51.055 137.062 C 50.386 137.180,50.349 137.230,50.293 138.090 L 50.233 138.995 47.421 138.995 C 45.293 138.995,44.568 139.060,44.443 139.263 C 44.310 139.477,44.252 139.465,44.151 139.203 C 43.985 138.771,30.948 138.812,30.804 139.244 C 30.744 139.427,30.634 139.407,30.395 139.168 C 29.902 138.674,23.378 138.867,22.998 139.386 C 22.776 139.689,22.727 139.609,22.618 138.762 C 22.427 137.280,22.340 137.200,20.783 137.071 C 20.021 137.007,26.678 136.951,35.578 136.946 C 44.477 136.941,51.442 136.993,51.055 137.062 M72.965 137.065 L 72.060 137.186 71.960 138.291 C 71.899 138.958,71.795 139.297,71.697 139.146 C 71.579 138.965,70.755 138.894,68.743 138.894 L 65.953 138.894 65.891 138.040 L 65.829 137.186 64.724 137.068 C 64.116 137.003,65.925 136.949,68.744 136.947 C 71.563 136.946,73.462 136.999,72.965 137.065 M135.628 137.019 L 135.075 137.112 135.075 142.928 L 135.075 148.744 148.727 148.744 C 159.469 148.744,162.397 148.690,162.463 148.492 C 162.531 148.292,162.610 148.292,162.855 148.495 C 163.363 148.914,184.041 148.839,184.203 148.418 C 184.396 147.913,184.332 137.614,184.133 137.300 C 183.936 136.988,181.007 136.874,180.543 137.161 C 180.401 137.248,180.300 137.783,180.298 138.454 C 180.296 139.255,180.238 139.507,180.105 139.296 C 179.796 138.808,163.292 138.846,162.934 139.336 C 162.701 139.654,162.662 139.651,162.349 139.286 C 161.915 138.779,156.072 138.692,155.140 139.178 C 154.678 139.419,154.586 139.419,154.493 139.177 C 154.339 138.777,149.482 138.767,149.109 139.166 C 148.896 139.394,148.812 139.394,148.584 139.166 C 148.435 139.017,147.958 138.894,147.523 138.894 C 146.738 138.894,146.734 138.890,146.734 138.102 C 146.734 137.667,146.639 137.252,146.524 137.181 C 146.277 137.028,136.437 136.882,135.628 137.019 M215.731 137.040 C 211.328 137.105,211.829 136.285,211.903 143.317 L 211.960 148.643 219.749 148.696 L 227.538 148.748 227.558 148.193 L 227.578 147.638 227.717 148.141 L 227.857 148.643 233.462 148.697 C 237.795 148.738,239.103 148.693,239.224 148.497 C 239.348 148.296,239.431 148.295,239.630 148.494 C 240.072 148.936,247.181 148.842,247.299 148.392 C 247.386 148.059,247.392 148.059,247.414 148.394 C 247.448 148.907,274.659 148.932,274.855 148.419 C 275.049 147.915,274.986 137.615,274.787 137.301 C 274.587 136.984,271.665 136.862,271.206 137.152 C 271.054 137.248,270.946 137.801,270.931 138.555 C 270.919 139.239,270.868 139.645,270.818 139.458 C 270.701 139.012,269.588 138.853,267.136 138.933 L 265.226 138.995 265.107 140.000 L 264.988 141.005 264.956 140.146 C 264.912 138.944,264.532 138.832,260.862 138.943 C 257.581 139.043,257.351 139.126,257.231 140.267 C 257.160 140.941,257.150 140.924,257.119 140.072 C 257.077 138.896,257.072 138.894,253.864 138.894 L 251.279 138.894 251.218 138.043 C 251.158 137.221,251.127 137.185,250.352 137.045 C 249.146 136.827,247.477 137.058,247.371 137.459 C 247.291 137.756,247.281 137.757,247.259 137.465 C 247.230 137.058,245.763 136.826,244.382 137.009 L 243.417 137.137 243.417 138.016 L 243.417 138.894 239.347 138.935 C 237.108 138.957,233.961 138.946,232.354 138.910 C 228.528 138.824,227.745 138.952,227.719 139.666 L 227.699 140.201 227.561 139.710 C 227.372 139.032,226.546 138.857,223.895 138.933 L 221.708 138.995 221.705 138.291 C 221.700 136.982,221.558 136.953,215.731 137.040 M324.925 137.033 C 324.594 137.082,324.256 137.227,324.175 137.355 C 324.063 137.530,324.025 137.529,324.023 137.349 C 324.021 137.218,323.726 137.074,323.367 137.030 C 323.008 136.985,323.347 136.948,324.121 136.947 C 324.894 136.946,325.257 136.984,324.925 137.033 M340.804 137.033 C 340.472 137.081,340.088 137.215,339.950 137.329 C 339.776 137.473,339.698 137.470,339.698 137.319 C 339.698 137.189,339.080 137.075,338.141 137.034 C 337.138 136.990,337.442 136.962,338.995 136.955 C 340.322 136.949,341.136 136.984,340.804 137.033 M190.275 137.398 C 190.207 137.576,190.151 137.985,190.151 138.308 C 190.151 138.842,190.089 138.894,189.462 138.894 C 189.083 138.894,188.630 139.037,188.457 139.210 C 188.283 139.384,188.141 139.836,188.141 140.215 C 188.141 140.884,188.117 140.905,187.349 140.905 C 186.913 140.905,186.508 140.984,186.448 141.080 C 186.224 141.443,186.083 144.115,186.221 145.400 L 186.364 146.734 187.241 146.734 L 188.119 146.734 188.180 147.688 L 188.241 148.643 195.025 148.696 C 200.238 148.737,201.809 148.693,201.809 148.505 C 201.809 148.316,201.863 148.315,202.050 148.503 C 202.220 148.673,203.376 148.744,205.966 148.744 C 210.340 148.744,209.887 149.253,209.806 144.422 L 209.749 141.005 208.794 140.944 L 207.839 140.882 207.839 140.010 C 207.839 138.911,207.792 138.894,204.858 138.898 C 202.370 138.901,202.115 138.962,201.956 139.598 C 201.861 139.981,201.855 139.979,201.832 139.573 C 201.802 139.013,201.179 138.894,198.278 138.894 L 196.003 138.894 195.941 138.040 L 195.879 137.186 193.139 137.130 C 190.773 137.082,190.382 137.119,190.275 137.398 " stroke="none" fill="#fcfcfc" fill-rule="evenodd"></path><path id="path2" d="M213.675 107.406 C 213.670 109.000,213.740 109.489,214.035 109.919 C 214.799 111.029,215.226 113.767,215.344 118.311 C 215.379 119.664,215.484 120.282,215.748 120.685 C 216.099 121.221,216.097 121.236,215.585 121.638 C 215.299 121.863,214.934 122.362,214.773 122.747 C 214.612 123.131,214.199 123.688,213.855 123.984 C 213.511 124.280,212.881 125.020,212.456 125.628 C 211.451 127.068,209.038 129.560,208.478 129.737 C 208.237 129.814,208.040 129.961,208.040 130.064 C 208.040 130.167,207.956 130.251,207.854 130.251 C 207.751 130.251,207.331 130.568,206.921 130.955 C 206.511 131.341,205.804 131.757,205.349 131.878 C 203.911 132.260,203.216 132.940,203.216 133.963 C 203.216 134.473,203.111 134.886,202.965 134.950 C 202.827 135.009,203.121 135.040,203.618 135.017 L 204.523 134.975 204.567 133.996 C 204.618 132.890,204.798 132.696,206.254 132.172 C 206.781 131.983,207.424 131.631,207.683 131.391 C 207.943 131.151,208.421 130.781,208.746 130.569 C 209.518 130.065,209.806 129.829,210.215 129.370 C 210.401 129.161,210.995 128.528,211.535 127.963 C 212.075 127.397,212.753 126.573,213.041 126.131 C 213.330 125.688,213.857 125.011,214.214 124.624 C 214.570 124.238,215.054 123.408,215.289 122.779 C 215.525 122.151,215.835 121.591,215.979 121.536 C 216.123 121.480,216.491 120.977,216.796 120.416 C 217.101 119.856,217.430 119.397,217.526 119.397 C 217.625 119.397,217.623 119.243,217.521 119.045 C 217.422 118.852,217.325 117.970,217.306 117.085 C 217.252 114.564,216.676 112.501,215.949 112.222 C 215.782 112.157,215.678 111.797,215.678 111.277 C 215.678 110.097,215.130 108.124,214.663 107.628 C 214.448 107.398,214.271 106.985,214.271 106.709 C 214.271 106.433,214.139 106.032,213.976 105.817 C 213.710 105.466,213.680 105.622,213.675 107.406 M281.125 116.482 C 281.200 117.035,281.339 117.697,281.434 117.953 C 281.530 118.209,281.608 118.647,281.608 118.927 C 281.608 119.582,282.135 120.716,282.852 121.604 C 283.163 121.988,283.417 122.458,283.417 122.647 C 283.417 122.836,283.496 123.040,283.592 123.100 C 283.688 123.159,283.824 123.491,283.893 123.838 C 283.962 124.184,284.329 124.890,284.708 125.406 C 285.088 125.923,285.464 126.614,285.545 126.942 C 285.717 127.642,286.170 128.406,286.696 128.883 C 286.902 129.071,287.278 129.734,287.532 130.357 C 288.058 131.653,288.517 132.253,289.273 132.638 C 289.673 132.841,289.828 133.104,289.910 133.714 C 290.077 134.958,290.452 135.156,290.452 134.000 C 290.452 132.803,290.034 131.975,289.256 131.630 C 288.905 131.475,288.557 131.110,288.423 130.757 C 287.869 129.294,287.426 128.506,286.872 127.995 C 286.518 127.669,286.221 127.143,286.137 126.695 C 285.963 125.767,285.526 124.881,284.918 124.221 C 284.664 123.945,284.305 123.196,284.121 122.556 C 283.910 121.821,283.498 121.060,282.999 120.484 C 282.566 119.983,282.211 119.385,282.211 119.155 C 282.211 118.626,281.477 116.180,281.198 115.779 C 281.047 115.562,281.027 115.759,281.125 116.482 " stroke="none" fill="#a4acac" fill-rule="evenodd"></path><path id="path3" d="M247.179 56.205 C 247.062 56.321,246.862 56.360,245.868 56.457 C 245.723 56.471,245.656 56.567,245.720 56.670 C 245.784 56.772,245.738 56.917,245.620 56.990 C 245.501 57.064,245.419 57.319,245.438 57.557 C 245.497 58.306,245.436 58.492,245.133 58.492 C 244.596 58.492,243.645 59.595,243.856 59.973 C 243.990 60.212,243.972 60.294,243.796 60.255 C 243.637 60.220,243.518 60.524,243.464 61.106 C 243.365 62.178,243.459 62.051,242.676 62.173 C 241.755 62.316,241.669 62.408,241.519 63.410 C 241.445 63.906,241.297 64.366,241.191 64.431 C 241.085 64.497,241.059 64.649,241.133 64.769 C 241.214 64.899,241.175 64.929,241.036 64.843 C 240.686 64.627,240.293 64.931,240.632 65.157 C 240.806 65.273,240.688 65.290,240.302 65.204 C 239.970 65.130,239.759 65.135,239.834 65.216 C 239.908 65.297,239.844 65.718,239.691 66.152 C 239.382 67.026,239.397 66.954,239.397 67.608 C 239.397 67.994,239.288 68.083,238.793 68.097 C 237.958 68.120,237.585 68.570,237.532 69.619 C 237.508 70.111,237.420 70.471,237.337 70.420 C 237.254 70.370,237.186 70.411,237.186 70.513 C 237.186 70.615,236.960 70.674,236.684 70.643 C 236.408 70.613,236.132 70.671,236.069 70.772 C 236.007 70.872,236.097 70.955,236.270 70.955 C 236.442 70.955,236.583 71.045,236.583 71.156 C 236.583 71.266,236.470 71.334,236.332 71.307 C 236.193 71.279,236.103 71.369,236.131 71.508 C 236.158 71.646,236.085 71.759,235.968 71.759 C 235.851 71.759,235.811 71.849,235.879 71.960 C 235.948 72.070,235.926 72.161,235.832 72.161 C 235.737 72.161,235.638 72.492,235.610 72.897 C 235.545 73.876,235.483 73.948,234.577 74.093 C 233.828 74.213,233.796 74.251,233.671 75.159 C 233.545 76.071,232.991 76.747,232.577 76.491 C 232.359 76.357,232.030 76.794,232.055 77.186 C 232.065 77.352,232.009 77.534,231.929 77.592 C 231.772 77.706,231.600 78.589,231.574 79.425 C 231.565 79.717,231.445 79.951,231.307 79.946 C 230.021 79.898,229.821 80.058,229.661 81.257 C 229.569 81.948,229.325 82.422,229.125 82.299 C 229.026 82.237,228.945 82.293,228.945 82.422 C 228.945 82.551,228.817 82.607,228.660 82.547 C 228.421 82.455,228.226 82.667,228.041 83.216 C 227.873 83.716,227.722 84.440,227.663 85.021 C 227.602 85.628,227.506 85.739,226.944 85.854 C 225.990 86.049,225.787 86.343,225.744 87.584 C 225.734 87.885,225.567 88.073,225.237 88.156 C 224.667 88.299,224.040 89.148,224.199 89.562 C 224.258 89.717,224.201 89.823,224.072 89.797 C 223.821 89.746,223.783 89.876,223.744 90.913 C 223.721 91.519,223.644 91.595,222.834 91.812 C 221.967 92.044,221.946 92.068,221.810 93.059 C 221.733 93.615,221.584 94.070,221.477 94.070 C 221.370 94.070,221.347 94.175,221.426 94.302 C 221.515 94.446,221.481 94.480,221.338 94.391 C 220.984 94.172,220.597 94.479,220.933 94.712 C 221.126 94.845,221.079 94.865,220.772 94.779 C 220.256 94.635,219.763 95.779,219.714 97.236 C 219.703 97.546,219.574 97.688,219.306 97.688 C 218.686 97.688,217.891 98.124,217.873 98.474 C 217.824 99.410,217.727 99.786,217.517 99.856 C 217.389 99.899,217.347 100.039,217.424 100.168 C 217.501 100.297,217.412 100.278,217.225 100.126 C 216.985 99.932,216.884 99.920,216.884 100.088 C 216.884 100.218,216.800 100.273,216.697 100.210 C 216.594 100.146,216.453 100.186,216.384 100.298 C 216.314 100.412,216.446 100.503,216.683 100.503 C 216.921 100.503,217.053 100.593,216.983 100.707 C 216.913 100.819,216.772 100.859,216.670 100.795 C 216.567 100.732,216.482 100.813,216.482 100.976 C 216.482 101.140,216.387 101.305,216.270 101.344 C 216.035 101.422,215.918 101.890,215.895 102.841 C 215.880 103.429,215.820 103.481,214.993 103.605 C 214.006 103.753,213.922 103.872,213.988 105.025 C 214.065 106.343,214.297 107.212,214.687 107.641 C 215.135 108.132,215.678 110.127,215.678 111.277 C 215.678 111.797,215.782 112.157,215.949 112.222 C 216.683 112.503,217.256 114.574,217.309 117.136 C 217.357 119.473,217.558 119.686,218.874 118.789 C 219.438 118.405,219.899 118.035,219.899 117.967 C 219.899 117.899,220.307 117.688,220.804 117.498 C 221.302 117.308,221.709 117.086,221.709 117.005 C 221.709 116.759,222.833 115.578,223.067 115.578 C 223.186 115.578,223.662 115.215,224.124 114.771 C 224.586 114.327,225.384 113.722,225.899 113.427 C 226.413 113.132,227.174 112.590,227.589 112.224 C 228.003 111.858,228.429 111.558,228.535 111.558 C 228.640 111.558,229.115 111.199,229.589 110.761 C 230.064 110.323,230.678 109.851,230.955 109.712 C 231.231 109.573,231.823 109.095,232.270 108.650 C 232.716 108.204,233.576 107.580,234.179 107.264 C 234.783 106.948,235.536 106.428,235.853 106.108 C 236.170 105.789,236.526 105.528,236.643 105.528 C 236.760 105.528,237.134 105.224,237.473 104.854 C 237.813 104.483,238.452 103.992,238.894 103.762 C 239.337 103.532,239.937 103.086,240.227 102.771 C 240.518 102.455,241.332 101.843,242.037 101.410 C 242.741 100.977,243.436 100.505,243.583 100.361 C 243.729 100.217,244.249 99.824,244.739 99.487 C 245.228 99.151,245.628 98.803,245.628 98.716 C 245.628 98.628,246.066 98.318,246.601 98.027 C 247.137 97.735,247.747 97.262,247.958 96.975 C 248.169 96.688,248.930 96.094,249.648 95.656 C 250.949 94.863,252.038 94.068,253.568 92.794 C 254.010 92.426,254.586 92.011,254.847 91.872 C 255.109 91.733,255.581 91.326,255.896 90.967 C 256.211 90.608,257.002 90.030,257.655 89.682 C 258.307 89.335,258.963 88.904,259.111 88.725 C 259.259 88.546,259.910 88.025,260.557 87.567 C 262.703 86.047,263.010 85.811,263.719 85.135 C 264.106 84.767,264.798 84.277,265.258 84.046 C 265.718 83.816,266.397 83.346,266.766 83.001 C 267.135 82.657,267.793 82.146,268.227 81.866 C 268.661 81.586,269.239 81.150,269.511 80.899 C 269.782 80.647,270.237 80.319,270.521 80.170 C 270.805 80.021,271.330 79.578,271.688 79.184 C 272.046 78.791,272.859 78.206,273.495 77.884 C 274.131 77.562,274.837 77.087,275.062 76.827 C 275.287 76.568,275.757 76.180,276.105 75.965 C 276.454 75.749,277.083 75.258,277.504 74.872 C 277.925 74.486,278.352 74.171,278.452 74.171 C 278.552 74.171,279.062 73.786,279.585 73.317 C 280.108 72.847,281.049 72.194,281.675 71.867 C 282.302 71.540,282.814 71.206,282.814 71.125 C 282.814 71.044,283.379 70.550,284.070 70.026 C 284.761 69.503,285.487 68.910,285.684 68.710 C 285.880 68.510,286.265 68.290,286.538 68.222 C 286.812 68.153,287.035 67.979,287.035 67.835 C 287.035 67.436,288.213 66.533,288.734 66.533 C 289.839 66.533,290.487 66.285,290.387 65.901 C 290.333 65.695,290.371 65.578,290.471 65.640 C 290.571 65.702,290.653 65.622,290.653 65.462 C 290.653 65.303,290.834 65.125,291.056 65.067 C 291.277 65.009,291.407 65.044,291.345 65.144 C 291.144 65.470,291.601 65.336,291.885 64.987 C 292.072 64.755,292.080 64.695,291.910 64.797 C 291.771 64.880,291.658 64.862,291.658 64.757 C 291.658 64.652,291.817 64.504,292.010 64.429 C 292.342 64.300,292.342 64.278,291.997 64.024 C 291.796 63.877,291.661 63.598,291.695 63.406 C 291.730 63.214,291.623 63.018,291.457 62.970 C 291.189 62.894,291.189 62.908,291.457 63.097 C 291.643 63.228,291.667 63.312,291.519 63.314 C 291.388 63.315,291.223 63.225,291.154 63.112 C 291.084 63.000,290.951 62.955,290.859 63.012 C 290.609 63.167,290.034 62.902,290.164 62.693 C 290.225 62.594,289.908 62.513,289.459 62.513 C 288.822 62.513,288.640 62.590,288.627 62.864 C 288.618 63.074,288.571 63.115,288.510 62.965 C 288.454 62.827,288.316 62.714,288.203 62.714 C 288.090 62.714,288.045 62.839,288.104 62.992 C 288.253 63.381,287.440 64.033,286.618 64.181 C 284.538 64.556,284.344 64.632,284.558 64.989 C 284.657 65.154,284.606 65.149,284.391 64.976 C 283.953 64.621,283.289 65.309,283.671 65.721 C 283.835 65.898,283.840 65.944,283.686 65.857 C 283.557 65.785,283.421 65.806,283.384 65.903 C 283.347 66.000,282.836 66.130,282.248 66.192 C 281.661 66.254,281.064 66.400,280.923 66.517 C 280.782 66.634,280.593 66.663,280.502 66.581 C 280.412 66.499,280.403 66.545,280.482 66.683 C 280.562 66.822,280.524 66.935,280.400 66.935 C 280.157 66.935,279.598 67.424,279.598 67.636 C 279.598 67.705,279.711 67.699,279.849 67.621 C 280.039 67.513,280.045 67.539,279.872 67.727 C 279.746 67.863,279.224 68.019,278.712 68.072 C 278.199 68.125,277.540 68.294,277.246 68.446 C 276.953 68.598,276.624 68.669,276.516 68.602 C 276.407 68.535,276.384 68.584,276.463 68.713 C 276.542 68.840,276.506 68.945,276.382 68.945 C 276.256 68.945,276.223 69.055,276.308 69.196 C 276.426 69.393,276.395 69.395,276.163 69.208 C 275.921 69.012,275.823 69.067,275.627 69.509 C 275.415 69.988,275.265 70.055,274.328 70.095 C 273.652 70.123,273.188 70.250,273.045 70.447 C 272.921 70.616,272.731 70.754,272.622 70.754 C 272.331 70.754,271.702 71.504,271.826 71.704 C 271.884 71.799,271.644 71.904,271.293 71.938 C 270.274 72.037,269.656 72.118,269.548 72.165 C 269.492 72.189,269.379 72.198,269.296 72.185 C 269.214 72.172,269.146 72.247,269.146 72.352 C 269.146 72.458,268.826 72.696,268.435 72.881 C 268.044 73.067,267.771 73.265,267.827 73.321 C 267.884 73.378,268.090 73.305,268.287 73.159 C 268.483 73.013,268.399 73.135,268.101 73.430 C 267.681 73.846,267.344 73.973,266.594 73.999 C 265.622 74.032,264.604 74.562,264.881 74.891 C 264.960 74.985,264.881 74.952,264.704 74.818 C 264.276 74.494,263.581 75.159,263.956 75.534 C 264.250 75.828,263.997 75.923,262.523 76.073 C 261.921 76.135,261.357 76.297,261.270 76.434 C 261.154 76.616,261.111 76.619,261.109 76.446 C 261.107 76.315,260.918 76.149,260.689 76.076 C 260.444 75.998,260.316 75.830,260.379 75.667 C 260.437 75.514,260.384 75.328,260.262 75.252 C 260.117 75.162,260.096 75.206,260.201 75.377 C 260.312 75.556,260.285 75.592,260.118 75.488 C 259.983 75.405,259.918 75.217,259.974 75.072 C 260.029 74.926,259.945 74.757,259.786 74.696 C 259.627 74.635,259.497 74.673,259.497 74.780 C 259.497 74.887,259.407 74.975,259.296 74.975 C 259.186 74.975,259.095 74.635,259.095 74.220 C 259.095 73.804,259.007 73.156,258.899 72.778 C 258.756 72.280,258.770 72.004,258.949 71.774 C 259.172 71.489,259.158 71.487,258.807 71.759 C 258.450 72.035,258.429 72.029,258.558 71.686 C 258.666 71.397,258.625 71.340,258.376 71.436 C 258.157 71.520,258.018 71.424,257.944 71.140 C 257.868 70.851,257.718 70.752,257.460 70.819 C 257.155 70.899,257.083 70.799,257.070 70.283 C 257.049 69.354,256.901 68.680,256.668 68.447 C 256.449 68.228,256.361 68.205,255.578 68.166 C 255.121 68.143,255.075 68.059,255.075 67.249 C 255.075 66.759,254.988 66.129,254.882 65.849 C 254.764 65.539,254.761 65.296,254.875 65.226 C 255.158 65.051,254.387 64.379,253.739 64.236 C 253.291 64.138,253.157 63.988,253.127 63.553 C 253.064 62.657,252.913 61.974,252.681 61.541 C 252.521 61.241,252.529 61.112,252.715 61.037 C 252.858 60.979,252.809 60.929,252.601 60.920 C 252.401 60.912,252.293 60.814,252.362 60.704 C 252.432 60.589,252.262 60.503,251.967 60.503 C 251.453 60.503,251.069 59.957,251.104 59.278 C 251.140 58.576,251.024 58.330,250.603 58.214 C 250.302 58.132,250.230 58.039,250.388 57.937 C 250.555 57.828,250.481 57.644,250.137 57.312 C 249.868 57.054,249.648 56.947,249.648 57.075 C 249.648 57.203,249.445 57.096,249.196 56.838 C 248.906 56.537,248.527 56.375,248.141 56.388 C 247.809 56.398,247.486 56.332,247.423 56.240 C 247.361 56.149,247.250 56.133,247.179 56.205 M245.483 82.312 C 245.537 82.754,245.640 83.254,245.710 83.424 C 245.784 83.601,245.671 83.913,245.444 84.157 C 245.227 84.390,245.112 84.655,245.188 84.746 C 245.264 84.837,245.182 84.802,245.005 84.667 C 244.744 84.469,244.619 84.495,244.339 84.805 C 244.109 85.059,244.066 85.231,244.211 85.321 C 244.609 85.566,244.207 85.829,243.455 85.815 C 242.902 85.804,242.813 85.762,243.102 85.649 C 243.331 85.559,243.404 85.443,243.280 85.366 C 242.991 85.188,243.412 83.628,243.760 83.588 C 243.903 83.571,244.133 83.549,244.271 83.538 C 244.833 83.493,245.226 82.915,245.226 82.133 C 245.226 81.153,245.350 81.240,245.483 82.312 M281.032 116.683 C 280.951 118.403,281.665 120.966,282.498 121.938 C 282.880 122.385,283.251 123.013,283.324 123.335 C 283.580 124.473,284.087 125.652,284.424 125.890 C 284.818 126.169,285.310 127.085,285.508 127.910 C 285.584 128.225,285.921 128.768,286.257 129.116 C 286.861 129.742,287.638 131.233,287.638 131.766 C 287.638 132.062,288.554 133.065,288.824 133.065 C 288.914 133.065,289.068 133.348,289.168 133.694 C 289.267 134.041,289.554 134.460,289.805 134.627 C 290.254 134.925,290.259 134.920,290.056 134.387 C 289.942 134.088,289.849 133.638,289.849 133.388 C 289.849 133.093,289.654 132.833,289.296 132.651 C 288.516 132.253,288.062 131.663,287.532 130.357 C 287.278 129.734,286.902 129.071,286.696 128.883 C 286.170 128.406,285.717 127.642,285.545 126.942 C 285.464 126.614,285.088 125.923,284.708 125.406 C 284.329 124.890,283.962 124.184,283.893 123.838 C 283.824 123.491,283.688 123.159,283.592 123.100 C 283.496 123.040,283.417 122.847,283.417 122.670 C 283.417 122.494,283.168 122.025,282.864 121.629 C 282.045 120.560,281.797 120.018,281.573 118.794 C 281.243 116.997,281.053 116.255,281.032 116.683 M216.796 120.416 C 216.491 120.977,216.123 121.480,215.979 121.536 C 215.835 121.591,215.525 122.151,215.289 122.779 C 215.054 123.408,214.570 124.238,214.214 124.624 C 213.857 125.011,213.330 125.688,213.041 126.131 C 212.753 126.573,212.075 127.397,211.535 127.963 C 210.995 128.528,210.401 129.161,210.215 129.370 C 209.806 129.829,209.518 130.065,208.746 130.569 C 208.421 130.781,207.943 131.151,207.683 131.391 C 207.424 131.631,206.781 131.983,206.254 132.172 C 205.728 132.361,205.147 132.626,204.964 132.760 C 204.544 133.067,204.370 135.075,204.764 135.075 C 205.004 135.075,205.293 134.361,205.215 133.957 C 205.049 133.099,205.753 132.462,206.867 132.462 C 207.036 132.462,207.674 132.024,208.286 131.488 C 208.899 130.953,209.727 130.312,210.127 130.065 C 210.527 129.818,210.854 129.535,210.854 129.437 C 210.854 129.338,211.294 128.826,211.831 128.297 C 212.369 127.769,213.042 126.975,213.326 126.533 C 213.611 126.090,214.112 125.433,214.439 125.072 C 214.767 124.710,215.198 123.866,215.399 123.195 C 215.656 122.339,215.933 121.856,216.329 121.574 C 216.800 121.239,217.688 119.887,217.688 119.505 C 217.688 119.119,217.269 119.547,216.796 120.416 " stroke="none" fill="#949c9c" fill-rule="evenodd"></path><path id="path4" d="M212.934 105.681 C 212.674 105.848,212.514 106.616,212.331 108.571 C 212.162 110.389,212.313 110.875,213.141 111.174 C 213.965 111.472,214.070 112.113,214.070 116.823 C 214.070 120.065,214.297 121.005,215.081 121.005 C 215.693 121.005,215.550 121.342,214.880 121.476 C 214.432 121.566,214.253 121.736,214.164 122.155 C 213.978 123.039,213.802 123.253,213.063 123.493 C 212.400 123.709,212.281 123.888,211.939 125.176 C 211.902 125.314,211.666 125.430,211.413 125.434 C 210.725 125.443,210.301 125.865,210.145 126.693 C 210.034 127.283,209.914 127.437,209.564 127.437 C 208.939 127.437,208.460 127.843,208.277 128.528 C 208.147 129.015,207.965 129.154,207.230 129.332 C 206.636 129.476,206.265 129.701,206.111 130.011 C 205.764 130.711,205.096 131.256,204.581 131.258 C 203.092 131.266,201.377 132.127,201.727 132.693 C 201.788 132.793,201.725 132.849,201.586 132.819 C 201.406 132.780,201.329 133.100,201.319 133.919 L 201.307 135.074 201.910 135.049 C 203.108 135.000,203.216 134.910,203.216 133.967 C 203.216 132.939,203.909 132.260,205.349 131.878 C 205.804 131.757,206.511 131.341,206.921 130.955 C 207.331 130.568,207.751 130.251,207.854 130.251 C 207.956 130.251,208.040 130.167,208.040 130.064 C 208.040 129.961,208.237 129.814,208.478 129.737 C 209.038 129.560,211.451 127.068,212.456 125.628 C 212.881 125.020,213.511 124.280,213.855 123.984 C 214.199 123.688,214.612 123.131,214.773 122.747 C 214.934 122.362,215.299 121.863,215.585 121.638 C 216.097 121.236,216.099 121.221,215.748 120.685 C 215.484 120.282,215.379 119.664,215.344 118.311 C 215.226 113.767,214.799 111.029,214.035 109.919 C 213.743 109.493,213.668 108.995,213.668 107.456 C 213.668 105.524,213.567 105.278,212.934 105.681 M281.262 115.903 C 281.632 116.628,282.211 118.619,282.211 119.164 C 282.211 119.389,282.566 119.983,282.999 120.484 C 283.498 121.060,283.910 121.821,284.121 122.556 C 284.305 123.196,284.664 123.945,284.918 124.221 C 285.526 124.881,285.963 125.767,286.137 126.695 C 286.221 127.143,286.518 127.669,286.872 127.995 C 287.426 128.506,287.869 129.294,288.423 130.757 C 288.557 131.109,288.905 131.475,289.254 131.629 C 290.023 131.970,290.309 132.497,290.467 133.869 L 290.594 134.975 290.624 133.628 C 290.680 131.076,290.144 129.648,289.131 129.648 C 288.696 129.648,288.643 129.562,288.643 128.844 C 288.643 128.064,288.126 127.236,287.638 127.236 C 287.095 127.236,286.682 126.440,286.594 125.222 C 286.504 123.984,286.064 123.261,285.232 122.984 C 285.110 122.943,284.880 122.290,284.722 121.532 C 284.391 119.950,284.212 119.672,283.416 119.497 C 282.795 119.361,282.740 119.218,282.517 117.184 C 282.369 115.834,282.263 115.649,281.537 115.467 L 280.967 115.324 281.262 115.903 " stroke="none" fill="#f4f4f4" fill-rule="evenodd"></path></g></svg>