<?xml version="1.0" encoding="UTF-8" standalone="no"?>
<svg
   xmlns:dc="http://purl.org/dc/elements/1.1/"
   xmlns:cc="http://creativecommons.org/ns#"
   xmlns:rdf="http://www.w3.org/1999/02/22-rdf-syntax-ns#"
   xmlns:svg="http://www.w3.org/2000/svg"
   xmlns="http://www.w3.org/2000/svg"
   xmlns:sodipodi="http://sodipodi.sourceforge.net/DTD/sodipodi-0.dtd"
   xmlns:inkscape="http://www.inkscape.org/namespaces/inkscape"
   width="193.3575mm"
   height="58.017834mm"
   viewBox="0 0 193.3575 58.017834"
   version="1.1"
   id="svg8"
   inkscape:version="1.0.2-2 (e86c870879, 2021-01-15)"
   sodipodi:docname="laksana-logo.svg">
  <defs
     id="defs2">
    <style
       id="style10">
      .cls-1 {
        fill: #fff;
      }
    </style>
  </defs>
  <sodipodi:namedview
     id="base"
     pagecolor="#ffffff"
     bordercolor="#666666"
     borderopacity="1.0"
     inkscape:pageopacity="0.0"
     inkscape:pageshadow="2"
     inkscape:zoom="0.7"
     inkscape:cx="425.31868"
     inkscape:cy="95.514445"
     inkscape:document-units="mm"
     inkscape:current-layer="layer1"
     inkscape:document-rotation="0"
     showgrid="false"
     fit-margin-top="0"
     fit-margin-left="0"
     fit-margin-right="0"
     fit-margin-bottom="0"
     inkscape:window-width="1920"
     inkscape:window-height="986"
     inkscape:window-x="-11"
     inkscape:window-y="-11"
     inkscape:window-maximized="1" />
  <metadata
     id="metadata5">
    <rdf:RDF>
      <cc:Work
         rdf:about="">
        <dc:format>image/svg+xml</dc:format>
        <dc:type
           rdf:resource="http://purl.org/dc/dcmitype/StillImage" />
        <dc:title></dc:title>
      </cc:Work>
    </rdf:RDF>
  </metadata>
  <g
     inkscape:label="Layer 1"
     inkscape:groupmode="layer"
     id="layer1"
     transform="translate(-10.666489,-54.145846)">
    <g
       id="g233"
       transform="matrix(0.26458333,0,0,0.26458333,-1.9303231,46.864513)">
      <g
         id="g122">
        <path
           class="cls-1"
           d="m 53.05,238.23 -1.49,4.18 h -2.15 l 5.15,-14.58 h 2.68 l 5.37,14.58 h -2.3 l -1.54,-4.18 h -5.73 z m 5.2,-1.83 c -1.32,-3.69 -2.07,-5.71 -2.39,-6.86 h -0.02 c -0.36,1.27 -1.19,3.71 -2.25,6.86 z"
           id="path14" />
        <path
           class="cls-1"
           d="m 75.67,241.38 c 0,3.43 -1.39,5.42 -4.98,5.42 -3.37,0 -4.32,-1.89 -4.5,-3.29 h 2.1 c 0.29,1.09 1.15,1.68 2.49,1.68 2.33,0 2.88,-1.47 2.88,-3.86 v -0.8 c -0.57,1.14 -1.53,1.8 -3.28,1.8 -2.67,0 -4.42,-2.18 -4.42,-5.26 0,-3.46 2.02,-5.62 4.63,-5.62 2,0 2.85,0.94 3.07,1.61 0.02,-0.45 0.07,-1.14 0.09,-1.36 h 1.95 c 0,0.68 -0.03,2.06 -0.03,3.08 v 6.58 z m -7.58,-4.39 c 0,2.17 1.12,3.62 2.78,3.62 2.2,0 2.84,-1.49 2.84,-3.75 0,-2.26 -0.57,-3.67 -2.78,-3.67 -1.84,0 -2.85,1.53 -2.85,3.8 z"
           id="path16" />
        <path
           class="cls-1"
           d="m 82.15,237.46 c 0.01,2.01 1.02,3.51 2.77,3.51 1.6,0 2.11,-0.8 2.44,-1.55 h 2.07 c -0.41,1.36 -1.56,3.25 -4.58,3.25 -3.39,0 -4.79,-2.71 -4.79,-5.47 0,-3.21 1.62,-5.72 4.91,-5.72 3.49,0 4.64,2.74 4.64,5.1 0,0.33 0,0.6 -0.03,0.89 h -7.44 z m 5.39,-1.4 c -0.02,-1.66 -0.83,-3 -2.58,-3 -1.75,0 -2.57,1.24 -2.74,3 z"
           id="path18" />
        <path
           class="cls-1"
           d="m 93.97,234.42 c 0,-0.92 0,-1.87 -0.02,-2.69 h 2 c 0.05,0.31 0.08,1.36 0.08,1.68 0.41,-0.87 1.28,-1.93 3.31,-1.93 2.03,0 3.57,1.27 3.57,4.08 v 6.86 h -2.06 v -6.61 c 0,-1.53 -0.59,-2.58 -2.15,-2.58 -1.87,0 -2.66,1.37 -2.66,3.47 v 5.72 h -2.06 v -8 z"
           id="path20" />
        <path
           class="cls-1"
           d="m 109.01,239.32 c 0.29,1.11 1.12,1.75 2.5,1.75 1.48,0 2.05,-0.62 2.05,-1.53 0,-0.91 -0.48,-1.36 -2.43,-1.84 -3.14,-0.77 -3.76,-1.73 -3.76,-3.19 0,-1.46 1.11,-3.05 3.95,-3.05 2.84,0 3.97,1.63 4.1,3.11 h -1.98 c -0.14,-0.63 -0.61,-1.55 -2.21,-1.55 -1.4,0 -1.82,0.67 -1.82,1.32 0,0.75 0.42,1.11 2.33,1.57 3.3,0.78 3.92,1.89 3.92,3.47 0,1.85 -1.46,3.27 -4.24,3.27 -2.78,0 -4.21,-1.43 -4.48,-3.34 h 2.04 z"
           id="path22" />
        <path
           class="cls-1"
           d="m 120,227.01 h 2.06 v 2.37 H 120 Z m 0,4.71 h 2.06 v 10.69 H 120 Z"
           id="path24" />
        <path
           class="cls-1"
           d="m 134.83,227.83 h 5.63 c 2.89,0 4.86,1.62 4.86,4.29 0,2.9 -2.11,4.4 -4.97,4.4 H 137 v 5.89 h -2.18 v -14.58 z m 2.18,6.9 h 3.19 c 1.9,0 2.9,-0.9 2.9,-2.55 0,-1.65 -1.19,-2.55 -2.83,-2.55 H 137 v 5.11 z"
           id="path26" />
        <path
           class="cls-1"
           d="m 150.6,237.46 c 0.01,2.01 1.02,3.51 2.77,3.51 1.6,0 2.11,-0.8 2.44,-1.55 h 2.07 c -0.41,1.36 -1.56,3.25 -4.58,3.25 -3.39,0 -4.79,-2.71 -4.79,-5.47 0,-3.21 1.62,-5.72 4.91,-5.72 3.49,0 4.64,2.74 4.64,5.1 0,0.33 0,0.6 -0.03,0.89 h -7.44 z m 5.39,-1.4 c -0.02,-1.66 -0.83,-3 -2.58,-3 -1.75,0 -2.57,1.24 -2.74,3 z"
           id="path28" />
        <path
           class="cls-1"
           d="m 162.45,242.41 v -15.4 h 2.06 v 15.4 z"
           id="path30" />
        <path
           class="cls-1"
           d="m 177.62,240 c 0,0.98 0.08,2.12 0.15,2.41 h -1.97 c -0.08,-0.23 -0.15,-0.75 -0.17,-1.33 -0.38,0.69 -1.2,1.58 -3.24,1.58 -2.53,0 -3.61,-1.65 -3.61,-3.28 0,-2.4 1.89,-3.49 5.06,-3.49 h 1.77 v -0.86 c 0,-0.91 -0.3,-1.98 -2.17,-1.98 -1.68,0 -1.98,0.82 -2.16,1.64 h -1.98 c 0.15,-1.56 1.11,-3.23 4.21,-3.22 2.66,0 4.13,1.08 4.13,3.54 V 240 Z m -2.01,-2.73 h -1.63 c -2.06,0 -3.11,0.58 -3.11,2 0,1.05 0.71,1.83 1.98,1.83 2.44,0 2.76,-1.65 2.76,-3.49 v -0.33 z"
           id="path32" />
        <path
           class="cls-1"
           d="m 184.79,236.71 c 0.88,-1.06 3.05,-3.37 4.5,-4.99 h 2.43 l -3.97,4.14 4.41,6.55 h -2.39 l -3.42,-5.23 -1.56,1.51 v 3.72 h -2.06 v -15.4 h 2.06 z"
           id="path34" />
        <path
           class="cls-1"
           d="m 196.94,239.32 c 0.29,1.11 1.12,1.75 2.5,1.75 1.48,0 2.05,-0.62 2.05,-1.53 0,-0.91 -0.48,-1.36 -2.43,-1.84 -3.14,-0.77 -3.76,-1.73 -3.76,-3.19 0,-1.46 1.11,-3.05 3.95,-3.05 2.84,0 3.97,1.63 4.1,3.11 h -1.98 c -0.14,-0.63 -0.61,-1.55 -2.21,-1.55 -1.4,0 -1.82,0.67 -1.82,1.32 0,0.75 0.42,1.11 2.33,1.57 3.3,0.78 3.92,1.89 3.92,3.47 0,1.85 -1.46,3.27 -4.24,3.27 -2.78,0 -4.21,-1.43 -4.48,-3.34 h 2.04 z"
           id="path36" />
        <path
           class="cls-1"
           d="m 216.15,240 c 0,0.98 0.08,2.12 0.15,2.41 h -1.97 c -0.08,-0.23 -0.15,-0.75 -0.17,-1.33 -0.38,0.69 -1.2,1.58 -3.24,1.58 -2.53,0 -3.61,-1.65 -3.61,-3.28 0,-2.4 1.89,-3.49 5.06,-3.49 h 1.77 v -0.86 c 0,-0.91 -0.3,-1.98 -2.17,-1.98 -1.68,0 -1.98,0.82 -2.16,1.64 h -1.98 c 0.14,-1.56 1.11,-3.23 4.21,-3.22 2.66,0 4.13,1.08 4.13,3.54 V 240 Z m -2.01,-2.73 h -1.63 c -2.06,0 -3.11,0.58 -3.11,2 0,1.05 0.71,1.83 1.98,1.83 2.44,0 2.76,-1.65 2.76,-3.49 v -0.33 z"
           id="path38" />
        <path
           class="cls-1"
           d="m 221.27,234.42 c 0,-0.92 0,-1.87 -0.02,-2.69 h 2 c 0.05,0.31 0.08,1.36 0.08,1.68 0.41,-0.87 1.28,-1.93 3.31,-1.93 2.03,0 3.57,1.27 3.57,4.08 v 6.86 h -2.06 v -6.61 c 0,-1.53 -0.59,-2.58 -2.15,-2.58 -1.87,0 -2.66,1.37 -2.66,3.47 v 5.72 h -2.06 v -8 z"
           id="path40" />
        <path
           class="cls-1"
           d="m 243.3,240 c 0,0.98 0.08,2.12 0.15,2.41 h -1.97 c -0.08,-0.23 -0.15,-0.75 -0.17,-1.33 -0.38,0.69 -1.2,1.58 -3.24,1.58 -2.53,0 -3.61,-1.65 -3.61,-3.28 0,-2.4 1.89,-3.49 5.06,-3.49 h 1.77 v -0.86 c 0,-0.91 -0.3,-1.98 -2.17,-1.98 -1.68,0 -1.98,0.82 -2.16,1.64 h -1.98 c 0.15,-1.56 1.11,-3.23 4.21,-3.22 2.66,0 4.13,1.08 4.13,3.54 V 240 Z m -2.01,-2.73 h -1.63 c -2.06,0 -3.11,0.58 -3.11,2 0,1.05 0.71,1.83 1.98,1.83 2.44,0 2.76,-1.65 2.76,-3.49 v -0.33 z"
           id="path42" />
        <path
           class="cls-1"
           d="m 256.41,240 c 0,0.98 0.08,2.12 0.15,2.41 h -1.97 c -0.08,-0.23 -0.15,-0.75 -0.17,-1.33 -0.38,0.69 -1.2,1.58 -3.24,1.58 -2.53,0 -3.61,-1.65 -3.61,-3.28 0,-2.4 1.89,-3.49 5.06,-3.49 h 1.77 v -0.86 c 0,-0.91 -0.3,-1.98 -2.17,-1.98 -1.68,0 -1.98,0.82 -2.16,1.64 h -1.98 c 0.14,-1.56 1.11,-3.23 4.21,-3.22 2.66,0 4.13,1.08 4.13,3.54 V 240 Z m -2.01,-2.73 h -1.63 c -2.06,0 -3.11,0.58 -3.11,2 0,1.05 0.71,1.83 1.98,1.83 2.44,0 2.76,-1.65 2.76,-3.49 v -0.33 z"
           id="path44" />
        <path
           class="cls-1"
           d="m 261.53,234.42 c 0,-0.92 0,-1.87 -0.02,-2.69 h 2 c 0.05,0.31 0.08,1.36 0.08,1.68 0.41,-0.87 1.28,-1.93 3.31,-1.93 2.03,0 3.57,1.27 3.57,4.08 v 6.86 h -2.06 v -6.61 c 0,-1.53 -0.59,-2.58 -2.15,-2.58 -1.87,0 -2.66,1.37 -2.66,3.47 v 5.72 h -2.06 v -8 z"
           id="path46" />
        <path
           class="cls-1"
           d="m 292.53,235.69 h -7.2 v 4.88 h 7.91 l -0.27,1.83 h -9.76 v -14.58 h 9.66 v 1.83 h -7.54 v 4.2 h 7.2 v 1.83 z"
           id="path48" />
        <path
           class="cls-1"
           d="m 299.39,236.71 c 0.88,-1.06 3.05,-3.37 4.5,-4.99 h 2.43 l -3.97,4.14 4.41,6.55 h -2.39 l -3.42,-5.23 -1.56,1.51 v 3.72 h -2.06 v -15.4 h 2.06 z"
           id="path50" />
        <path
           class="cls-1"
           d="m 319.28,237.05 c 0,3.11 -1.8,5.62 -5.09,5.62 -3.11,0 -4.98,-2.37 -4.98,-5.58 0,-3.21 1.85,-5.62 5.1,-5.62 3,0 4.96,2.22 4.96,5.58 z m -7.95,0.02 c 0,2.29 1.11,3.9 2.94,3.9 1.83,0 2.9,-1.54 2.9,-3.89 0,-2.35 -1.04,-3.91 -2.94,-3.91 -1.9,0 -2.9,1.5 -2.9,3.9 z"
           id="path52" />
        <path
           class="cls-1"
           d="m 323.65,234.42 c 0,-0.92 0,-1.87 -0.02,-2.69 h 2 c 0.05,0.31 0.08,1.36 0.08,1.68 0.41,-0.87 1.28,-1.93 3.31,-1.93 2.03,0 3.57,1.27 3.57,4.08 v 6.86 h -2.06 v -6.61 c 0,-1.53 -0.59,-2.58 -2.15,-2.58 -1.87,0 -2.66,1.37 -2.66,3.47 v 5.72 h -2.06 v -8 z"
           id="path54" />
        <path
           class="cls-1"
           d="m 347,237.05 c 0,3.11 -1.8,5.62 -5.09,5.62 -3.11,0 -4.98,-2.37 -4.98,-5.58 0,-3.21 1.85,-5.62 5.1,-5.62 3,0 4.96,2.22 4.96,5.58 z m -7.95,0.02 c 0,2.29 1.11,3.9 2.94,3.9 1.83,0 2.9,-1.54 2.9,-3.89 0,-2.35 -1.04,-3.91 -2.94,-3.91 -1.9,0 -2.9,1.5 -2.9,3.9 z"
           id="path56" />
        <path
           class="cls-1"
           d="m 351.36,234.48 c 0,-0.92 0,-1.88 -0.02,-2.76 h 1.98 c 0.03,0.31 0.08,1.06 0.08,1.57 0.5,-0.93 1.42,-1.82 3.08,-1.82 1.52,0 2.52,0.77 2.92,1.86 0.58,-0.99 1.57,-1.86 3.38,-1.86 1.81,0 3.37,1.05 3.37,3.92 v 7.02 h -2.02 v -6.77 c 0,-1.19 -0.43,-2.42 -2.01,-2.42 -1.58,0 -2.35,1.22 -2.35,3.06 v 6.13 h -2.02 v -6.7 c 0,-1.32 -0.37,-2.48 -1.96,-2.48 -1.59,0 -2.39,1.26 -2.39,3.26 v 5.93 h -2.04 v -7.93 z"
           id="path58" />
        <path
           class="cls-1"
           d="m 371.27,227.01 h 2.06 v 2.37 h -2.06 z m 0,4.71 h 2.06 v 10.69 h -2.06 z"
           id="path60" />
        <path
           class="cls-1"
           d="m 394.81,227.01 v 12.39 c 0,1 0,1.98 0.02,3 h -1.98 c -0.05,-0.29 -0.09,-1.06 -0.1,-1.44 -0.52,1.06 -1.58,1.69 -3.3,1.69 -2.74,0 -4.43,-2.22 -4.43,-5.49 0,-3.27 1.82,-5.7 4.79,-5.7 1.82,0 2.66,0.72 2.94,1.3 v -5.75 z m -7.66,10.1 c 0,2.49 1.15,3.83 2.78,3.83 2.41,0 2.9,-1.82 2.9,-4 0,-2.18 -0.45,-3.75 -2.77,-3.75 -1.82,0 -2.91,1.44 -2.91,3.92 z"
           id="path62" />
        <path
           class="cls-1"
           d="m 407.9,240 c 0,0.98 0.08,2.12 0.15,2.41 h -1.97 c -0.08,-0.23 -0.15,-0.75 -0.17,-1.33 -0.38,0.69 -1.2,1.58 -3.24,1.58 -2.53,0 -3.61,-1.65 -3.61,-3.28 0,-2.4 1.89,-3.49 5.06,-3.49 h 1.77 v -0.86 c 0,-0.91 -0.3,-1.98 -2.17,-1.98 -1.68,0 -1.98,0.82 -2.16,1.64 h -1.98 c 0.14,-1.56 1.11,-3.23 4.21,-3.22 2.66,0 4.13,1.08 4.13,3.54 V 240 Z m -2.01,-2.73 h -1.63 c -2.06,0 -3.11,0.58 -3.11,2 0,1.05 0.71,1.83 1.98,1.83 2.44,0 2.76,-1.65 2.76,-3.49 v -0.33 z"
           id="path64" />
        <path
           class="cls-1"
           d="m 413.02,234.42 c 0,-0.92 0,-1.87 -0.02,-2.69 h 2 c 0.05,0.31 0.08,1.36 0.08,1.68 0.41,-0.87 1.28,-1.93 3.31,-1.93 2.03,0 3.57,1.27 3.57,4.08 v 6.86 h -2.06 v -6.61 c 0,-1.53 -0.59,-2.58 -2.15,-2.58 -1.87,0 -2.66,1.37 -2.66,3.47 v 5.72 h -2.06 v -8 z"
           id="path66" />
        <path
           class="cls-1"
           d="m 434.71,227.83 h 2.15 v 7.03 c 1.06,-1.12 4.63,-4.72 6.84,-7.03 h 2.67 l -6.19,6.13 6.48,8.45 h -2.62 l -5.38,-7.05 -1.8,1.65 v 5.4 h -2.15 z"
           id="path68" />
        <path
           class="cls-1"
           d="m 459.35,237.05 c 0,3.11 -1.8,5.62 -5.09,5.62 -3.11,0 -4.98,-2.37 -4.98,-5.58 0,-3.21 1.85,-5.62 5.1,-5.62 3,0 4.96,2.22 4.96,5.58 z m -7.95,0.02 c 0,2.29 1.12,3.9 2.94,3.9 1.82,0 2.9,-1.54 2.9,-3.89 0,-2.35 -1.04,-3.91 -2.94,-3.91 -1.9,0 -2.9,1.5 -2.9,3.9 z"
           id="path70" />
        <path
           class="cls-1"
           d="m 473.17,237.05 c 0,3.11 -1.8,5.62 -5.09,5.62 -3.11,0 -4.98,-2.37 -4.98,-5.58 0,-3.21 1.85,-5.62 5.1,-5.62 3,0 4.96,2.22 4.96,5.58 z m -7.95,0.02 c 0,2.29 1.11,3.9 2.94,3.9 1.83,0 2.9,-1.54 2.9,-3.89 0,-2.35 -1.04,-3.91 -2.94,-3.91 -1.9,0 -2.9,1.5 -2.9,3.9 z"
           id="path72" />
        <path
           class="cls-1"
           d="m 477.53,234.63 c 0,-1.41 -0.01,-2.27 -0.02,-2.9 h 2.02 c 0.03,0.29 0.06,1.17 0.06,2.12 0.54,-1.4 1.79,-2.33 3.57,-2.37 v 2.03 c -2.18,0.04 -3.57,1.08 -3.57,3.82 v 5.09 h -2.06 z"
           id="path74" />
        <path
           class="cls-1"
           d="m 496.02,227.01 v 12.39 c 0,1 0,1.98 0.02,3 h -1.98 c -0.05,-0.29 -0.09,-1.06 -0.1,-1.44 -0.53,1.06 -1.58,1.69 -3.3,1.69 -2.74,0 -4.43,-2.22 -4.43,-5.49 0,-3.27 1.82,-5.7 4.79,-5.7 1.82,0 2.66,0.72 2.94,1.3 v -5.75 z m -7.66,10.1 c 0,2.49 1.15,3.83 2.78,3.83 2.41,0 2.9,-1.82 2.9,-4 0,-2.18 -0.45,-3.75 -2.77,-3.75 -1.82,0 -2.91,1.44 -2.91,3.92 z"
           id="path76" />
        <path
           class="cls-1"
           d="m 501.11,227.01 h 2.06 v 2.37 h -2.06 z m 0,4.71 h 2.06 v 10.69 h -2.06 z"
           id="path78" />
        <path
           class="cls-1"
           d="m 508.28,234.42 c 0,-0.92 0,-1.87 -0.02,-2.69 h 2 c 0.05,0.31 0.08,1.36 0.08,1.68 0.41,-0.87 1.29,-1.93 3.31,-1.93 2.02,0 3.57,1.27 3.57,4.08 v 6.86 h -2.06 v -6.61 c 0,-1.53 -0.59,-2.58 -2.16,-2.58 -1.87,0 -2.66,1.37 -2.66,3.47 v 5.72 h -2.06 z"
           id="path80" />
        <path
           class="cls-1"
           d="m 530.31,240 c 0,0.98 0.08,2.12 0.15,2.41 h -1.97 c -0.08,-0.23 -0.15,-0.75 -0.17,-1.33 -0.38,0.69 -1.21,1.58 -3.24,1.58 -2.53,0 -3.61,-1.65 -3.61,-3.28 0,-2.4 1.89,-3.49 5.06,-3.49 h 1.77 v -0.86 c 0,-0.91 -0.3,-1.98 -2.17,-1.98 -1.68,0 -1.98,0.82 -2.16,1.64 h -1.98 c 0.14,-1.56 1.11,-3.23 4.21,-3.22 2.66,0 4.13,1.08 4.13,3.54 V 240 Z m -2.01,-2.73 h -1.63 c -2.06,0 -3.11,0.58 -3.11,2 0,1.05 0.71,1.83 1.98,1.83 2.44,0 2.76,-1.65 2.76,-3.49 v -0.33 z"
           id="path82" />
        <path
           class="cls-1"
           d="m 536.42,239.32 c 0.29,1.11 1.12,1.75 2.5,1.75 1.48,0 2.05,-0.62 2.05,-1.53 0,-0.91 -0.49,-1.36 -2.43,-1.84 -3.14,-0.77 -3.76,-1.73 -3.76,-3.19 0,-1.46 1.11,-3.05 3.95,-3.05 2.84,0 3.97,1.63 4.1,3.11 h -1.99 c -0.14,-0.63 -0.61,-1.55 -2.21,-1.55 -1.4,0 -1.82,0.67 -1.82,1.32 0,0.75 0.42,1.11 2.33,1.57 3.3,0.78 3.92,1.89 3.92,3.47 0,1.85 -1.46,3.27 -4.24,3.27 -2.78,0 -4.21,-1.43 -4.48,-3.34 h 2.04 z"
           id="path84" />
        <path
           class="cls-1"
           d="m 547.41,227.01 h 2.06 v 2.37 h -2.06 z m 0,4.71 h 2.06 v 10.69 h -2.06 z"
           id="path86" />
        <path
           class="cls-1"
           d="m 563.38,238.31 c 0.38,1.69 1.55,2.58 3.58,2.58 2.16,0 3.03,-0.99 3.03,-2.31 0,-1.41 -0.72,-2.17 -3.56,-2.86 -3.54,-0.85 -4.69,-2.08 -4.69,-4.12 0,-2.24 1.65,-4 4.95,-4 3.55,0 5,2.02 5.2,3.98 h -2.2 c -0.24,-1.22 -0.99,-2.27 -3.07,-2.27 -1.68,0 -2.64,0.75 -2.64,2.07 0,1.32 0.78,1.82 3.3,2.42 4.17,1.01 4.95,2.62 4.95,4.53 0,2.41 -1.79,4.25 -5.42,4.25 -3.63,0 -5.32,-1.97 -5.63,-4.29 h 2.2 z"
           id="path88" />
        <path
           class="cls-1"
           d="m 575.36,231.72 h 1.81 v -3.1 h 2.06 v 3.1 h 2.31 v 1.64 h -2.31 v 6.07 c 0,0.99 0.25,1.49 1.2,1.49 0.24,0 0.6,-0.01 0.88,-0.08 v 1.52 c -0.48,0.18 -1.15,0.2 -1.67,0.2 -1.74,0 -2.47,-0.91 -2.47,-2.71 v -6.49 h -1.81 z"
           id="path90" />
        <path
           class="cls-1"
           d="m 585.42,234.63 c 0,-1.41 -0.01,-2.27 -0.02,-2.9 h 2.02 c 0.03,0.29 0.06,1.17 0.06,2.12 0.54,-1.4 1.79,-2.33 3.57,-2.37 v 2.03 c -2.18,0.04 -3.57,1.08 -3.57,3.82 v 5.09 h -2.06 z"
           id="path92" />
        <path
           class="cls-1"
           d="m 602.8,240 c 0,0.98 0.08,2.12 0.15,2.41 h -1.97 c -0.08,-0.23 -0.15,-0.75 -0.17,-1.33 -0.38,0.69 -1.21,1.58 -3.24,1.58 -2.53,0 -3.61,-1.65 -3.61,-3.28 0,-2.4 1.89,-3.49 5.06,-3.49 h 1.77 v -0.86 c 0,-0.91 -0.3,-1.98 -2.17,-1.98 -1.68,0 -1.98,0.82 -2.16,1.64 h -1.98 c 0.14,-1.56 1.11,-3.23 4.21,-3.22 2.66,0 4.13,1.08 4.13,3.54 V 240 Z m -2.01,-2.73 h -1.63 c -2.06,0 -3.11,0.58 -3.11,2 0,1.05 0.71,1.83 1.98,1.83 2.44,0 2.76,-1.65 2.76,-3.49 v -0.33 z"
           id="path94" />
        <path
           class="cls-1"
           d="m 606.44,231.72 h 1.81 v -3.1 h 2.06 v 3.1 h 2.31 v 1.64 h -2.31 v 6.07 c 0,0.99 0.25,1.49 1.2,1.49 0.24,0 0.6,-0.01 0.88,-0.08 v 1.52 c -0.48,0.18 -1.15,0.2 -1.67,0.2 -1.74,0 -2.47,-0.91 -2.47,-2.71 v -6.49 h -1.81 z"
           id="path96" />
        <path
           class="cls-1"
           d="m 617.83,237.46 c 0.01,2.01 1.02,3.51 2.77,3.51 1.6,0 2.11,-0.8 2.44,-1.55 h 2.07 c -0.41,1.36 -1.56,3.25 -4.58,3.25 -3.39,0 -4.79,-2.71 -4.79,-5.47 0,-3.21 1.62,-5.72 4.91,-5.72 3.49,0 4.64,2.74 4.64,5.1 0,0.33 0,0.6 -0.03,0.89 h -7.44 z m 5.39,-1.4 c -0.02,-1.66 -0.83,-3 -2.58,-3 -1.75,0 -2.57,1.24 -2.74,3 z"
           id="path98" />
        <path
           class="cls-1"
           d="m 638.82,241.38 c 0,3.43 -1.39,5.42 -4.98,5.42 -3.37,0 -4.32,-1.89 -4.5,-3.29 h 2.1 c 0.29,1.09 1.15,1.68 2.49,1.68 2.33,0 2.88,-1.47 2.88,-3.86 v -0.8 c -0.57,1.14 -1.53,1.8 -3.28,1.8 -2.67,0 -4.42,-2.18 -4.42,-5.26 0,-3.46 2.02,-5.62 4.63,-5.62 2,0 2.85,0.94 3.07,1.61 0.02,-0.45 0.07,-1.14 0.09,-1.36 h 1.95 c 0,0.68 -0.03,2.06 -0.03,3.08 v 6.58 z m -7.58,-4.39 c 0,2.17 1.12,3.62 2.78,3.62 2.21,0 2.84,-1.49 2.84,-3.75 0,-2.26 -0.57,-3.67 -2.78,-3.67 -1.84,0 -2.85,1.53 -2.85,3.8 z"
           id="path100" />
        <path
           class="cls-1"
           d="m 643.91,227.01 h 2.06 v 2.37 h -2.06 z m 0,4.71 h 2.06 v 10.69 h -2.06 z"
           id="path102" />
        <path
           class="cls-1"
           d="m 653.13,236.71 c 0.88,-1.06 3.05,-3.37 4.5,-4.99 h 2.43 l -3.97,4.14 4.41,6.55 h -2.39 l -3.42,-5.23 -1.56,1.51 v 3.72 h -2.06 v -15.4 h 2.06 z"
           id="path104" />
        <path
           class="cls-1"
           d="m 671.56,242.41 v -14.58 h 2.82 c 2.04,3.38 6.37,10.38 7.16,11.97 h 0.03 c -0.15,-1.81 -0.13,-4.15 -0.13,-6.53 v -5.43 h 2.02 v 14.58 h -2.65 c -1.86,-3.11 -6.41,-10.72 -7.29,-12.36 h -0.03 c 0.1,1.59 0.11,4.16 0.11,6.79 v 5.57 h -2.03 z"
           id="path106" />
        <path
           class="cls-1"
           d="m 696.73,240 c 0,0.98 0.08,2.12 0.15,2.41 h -1.97 c -0.08,-0.23 -0.15,-0.75 -0.17,-1.33 -0.38,0.69 -1.2,1.58 -3.24,1.58 -2.53,0 -3.61,-1.65 -3.61,-3.28 0,-2.4 1.89,-3.49 5.06,-3.49 h 1.77 v -0.86 c 0,-0.91 -0.3,-1.98 -2.17,-1.98 -1.68,0 -1.98,0.82 -2.16,1.64 h -1.99 c 0.15,-1.56 1.11,-3.23 4.21,-3.22 2.66,0 4.13,1.08 4.13,3.54 V 240 Z m -2.01,-2.73 h -1.63 c -2.06,0 -3.11,0.58 -3.11,2 0,1.05 0.71,1.83 1.98,1.83 2.44,0 2.76,-1.65 2.76,-3.49 v -0.33 z"
           id="path108" />
        <path
           class="cls-1"
           d="m 702.84,239.32 c 0.29,1.11 1.12,1.75 2.5,1.75 1.48,0 2.05,-0.62 2.05,-1.53 0,-0.91 -0.48,-1.36 -2.43,-1.84 -3.14,-0.77 -3.76,-1.73 -3.76,-3.19 0,-1.46 1.11,-3.05 3.95,-3.05 2.84,0 3.97,1.63 4.1,3.11 h -1.98 c -0.14,-0.63 -0.62,-1.55 -2.21,-1.55 -1.4,0 -1.82,0.67 -1.82,1.32 0,0.75 0.42,1.11 2.33,1.57 3.3,0.78 3.92,1.89 3.92,3.47 0,1.85 -1.46,3.27 -4.24,3.27 -2.78,0 -4.21,-1.43 -4.48,-3.34 h 2.04 z"
           id="path110" />
        <path
           class="cls-1"
           d="m 713.84,227.01 h 2.06 v 2.37 h -2.06 z m 0,4.71 h 2.06 v 10.69 h -2.06 z"
           id="path112" />
        <path
           class="cls-1"
           d="m 730.33,237.05 c 0,3.11 -1.8,5.62 -5.09,5.62 -3.11,0 -4.98,-2.37 -4.98,-5.58 0,-3.21 1.85,-5.62 5.1,-5.62 3,0 4.96,2.22 4.96,5.58 z m -7.95,0.02 c 0,2.29 1.12,3.9 2.94,3.9 1.82,0 2.9,-1.54 2.9,-3.89 0,-2.35 -1.04,-3.91 -2.94,-3.91 -1.9,0 -2.9,1.5 -2.9,3.9 z"
           id="path114" />
        <path
           class="cls-1"
           d="m 734.7,234.42 c 0,-0.92 0,-1.87 -0.02,-2.69 h 2 c 0.05,0.31 0.08,1.36 0.08,1.68 0.41,-0.87 1.28,-1.93 3.31,-1.93 2.03,0 3.57,1.27 3.57,4.08 v 6.86 h -2.06 v -6.61 c 0,-1.53 -0.59,-2.58 -2.15,-2.58 -1.87,0 -2.66,1.37 -2.66,3.47 v 5.72 h -2.06 v -8 z"
           id="path116" />
        <path
           class="cls-1"
           d="m 756.73,240 c 0,0.98 0.08,2.12 0.15,2.41 h -1.97 c -0.08,-0.23 -0.15,-0.75 -0.17,-1.33 -0.38,0.69 -1.2,1.58 -3.24,1.58 -2.53,0 -3.61,-1.65 -3.61,-3.28 0,-2.4 1.89,-3.49 5.06,-3.49 h 1.77 v -0.86 c 0,-0.91 -0.3,-1.98 -2.17,-1.98 -1.68,0 -1.98,0.82 -2.16,1.64 h -1.99 c 0.15,-1.56 1.11,-3.23 4.21,-3.22 2.66,0 4.13,1.08 4.13,3.54 V 240 Z m -2.01,-2.73 h -1.63 c -2.06,0 -3.11,0.58 -3.11,2 0,1.05 0.71,1.83 1.98,1.83 2.44,0 2.76,-1.65 2.76,-3.49 v -0.33 z"
           id="path118" />
        <path
           class="cls-1"
           d="m 761.84,242.41 v -15.4 h 2.06 v 15.4 z"
           id="path120" />
      </g>
      <g
         id="g154">
        <g
           id="g138">
          <g
             id="g134">
            <path
               class="cls-1"
               d="M 533.95,80.32 500.62,27.52 375.18,210.1 611.03,44.33 Z m -57.2,26.7 21.64,-32.19 8.79,17.98 z"
               id="path124" />
            <g
               id="g130">
              <polygon
                 class="cls-1"
                 points="555.81,108.43 553.25,110.9 553.34,111.03 "
                 id="polygon126" />
              <polygon
                 class="cls-1"
                 points="523.47,127.97 532.65,144.9 558.03,118.47 548.06,102.08 "
                 id="polygon128" />
            </g>
            <polygon
               class="cls-1"
               points="547.11,101.17 520.87,120.81 407.56,210.09 447.73,210.09 616.03,50.5 "
               id="polygon132" />
          </g>
          <polygon
             class="cls-1"
             points="580.87,210.09 615.04,210.09 589.91,169.72 558.03,118.47 532.65,144.9 566.25,210.09 "
             id="polygon136" />
        </g>
        <g
           id="g152">
          <path
             class="cls-1"
             d="m 91.18,108.78 -17.31,82.59 h 48.96 l -3.97,18.73 H 47.61 L 68.75,108.78 h 22.42 z"
             id="path140" />
          <path
             class="cls-1"
             d="m 201.29,108.78 16.89,101.32 h -22.14 l -3.26,-22.56 h -37.89 l -12.77,22.56 h -23.41 l 59.74,-101.32 h 22.85 z m -10.5,62.15 -4.97,-40.3 h -0.28 l -21.85,40.3 z"
             id="path142" />
          <path
             class="cls-1"
             d="m 269.55,108.78 -8.8,42.43 h 0.28 l 45.98,-42.43 h 29.52 l -48.67,41.72 31.08,59.6 h -25.12 l -23.13,-45.55 -15.47,13.48 -6.67,32.07 h -22.28 l 21,-101.32 z"
             id="path144" />
          <path
             class="cls-1"
             d="m 343.76,185.48 c 1.04,2.41 2.55,4.33 4.54,5.75 1.99,1.42 4.35,2.44 7.09,3.05 2.74,0.62 5.72,0.92 8.94,0.92 2.27,0 4.54,-0.28 6.81,-0.85 2.27,-0.57 4.33,-1.42 6.17,-2.55 1.84,-1.13 3.36,-2.6 4.54,-4.4 1.18,-1.8 1.77,-3.97 1.77,-6.53 0,-2.56 -0.76,-4.47 -2.27,-6.03 -1.51,-1.56 -3.48,-2.91 -5.89,-4.04 -2.41,-1.14 -5.16,-2.13 -8.23,-2.98 -3.08,-0.85 -6.17,-1.75 -9.3,-2.7 -3.22,-0.94 -6.34,-2.08 -9.37,-3.41 -3.03,-1.32 -5.75,-3.03 -8.16,-5.11 -2.41,-2.08 -4.35,-4.63 -5.82,-7.66 -1.47,-3.03 -2.2,-6.72 -2.2,-11.07 0,-5.68 1.18,-10.5 3.55,-14.47 2.36,-3.97 5.44,-7.21 9.22,-9.72 3.78,-2.51 8.06,-4.35 12.84,-5.53 4.78,-1.18 9.62,-1.77 14.55,-1.77 5.2,0 10.1,0.59 14.69,1.77 4.59,1.18 8.61,3.1 12.06,5.75 3.45,2.65 6.19,6.03 8.23,10.15 2.03,4.12 3.05,9.11 3.05,14.97 h -21.14 c 0.09,-2.84 -0.31,-5.23 -1.21,-7.17 -0.9,-1.94 -2.18,-3.52 -3.83,-4.75 -1.66,-1.23 -3.62,-2.1 -5.89,-2.62 -2.27,-0.52 -4.68,-0.78 -7.24,-0.78 -2.08,0 -4.19,0.21 -6.31,0.64 -2.13,0.43 -4.04,1.14 -5.75,2.13 -1.7,0.99 -3.08,2.29 -4.12,3.9 -1.04,1.61 -1.56,3.6 -1.56,5.96 0,2.36 0.92,4.52 2.77,6.17 1.84,1.66 4.07,3.03 6.67,4.12 2.6,1.09 5.27,1.94 8.02,2.55 2.74,0.62 4.97,1.11 6.67,1.49 3.97,1.04 7.61,2.25 10.93,3.62 3.31,1.37 6.17,3.15 8.58,5.32 2.41,2.18 4.28,4.82 5.61,7.95 1.32,3.12 1.99,6.95 1.99,11.49 0,6.06 -1.26,11.21 -3.76,15.47 -2.51,4.26 -5.73,7.71 -9.65,10.36 -3.93,2.65 -8.35,4.56 -13.27,5.75 -4.92,1.18 -9.79,1.77 -14.62,1.77 -14.19,0 -24.76,-2.88 -31.72,-8.66 -6.95,-5.77 -10.43,-14.85 -10.43,-27.25 h 21.14 c -0.19,3.6 0.24,6.6 1.28,9.01 z"
             id="path146" />
          <path
             class="cls-1"
             d="m 628.42,108.78 27.53,72.09 h 0.28 l 14.47,-72.09 h 20.43 L 669.7,210.1 h -22.28 l -27.81,-71.09 h -0.28 l -14.47,71.09 h -20.72 l 21.29,-101.32 z"
             id="path148" />
          <path
             class="cls-1"
             d="m 761.52,108.78 16.89,101.32 h -22.14 l -3.26,-22.56 h -37.89 l -12.77,22.56 h -23.41 l 59.74,-101.32 h 22.85 z m -10.5,62.15 -4.97,-40.3 h -0.28 l -21.85,40.3 z"
             id="path150" />
        </g>
      </g>
    </g>
  </g>
</svg>
