<svg height='100px' width='100px'  fill="#1A1A1A" xmlns="http://www.w3.org/2000/svg" xmlns:xlink="http://www.w3.org/1999/xlink" version="1.1" x="0px" y="0px" viewBox="0 0 130 130" style="enable-background:new 0 0 130 130;" xml:space="preserve"><g>
<path d="M128.9401855,22.4023438c0.5522461,0,1-0.4477539,1-1v-9.2104492C129.9401855,5.4692383,124.4709473,0,117.748291,0   L26.986084,0.0004883c-8.6845703,0-15.75,7.0600586-15.75,15.7382813v98.3642578H1.0598145c-0.5522461,0-1,0.4477539-1,1v1.7807617   C0.0598145,124.1162109,5.9440918,130,13.1765137,130h82.1875c6.7226563,0,12.1923828-5.4692383,12.1923828-12.1918945v-17.2104492   c0-0.0068359-0.0037842-0.0124512-0.0039063-0.0192871V22.4023438H128.9401855z" fill="#FAF7F4"></path>
<path d="M128.9401855,22.4023438c0.5522461,0,1-0.4477539,1-1v-9.2104492C129.9401855,5.4692383,124.4709473,0,117.748291,0   L26.986084,0.0004883c-8.6845703,0-15.75,7.0600586-15.75,15.7382813v98.3642578H1.0598145c-0.5522461,0-1,0.4477539-1,1v1.7807617   C0.0598145,124.1162109,5.9440918,130,13.1765137,130h82.1875c6.7226563,0,12.1923828-5.4692383,12.1923828-12.1918945v-17.2104492   c0-0.0068359-0.0037842-0.0124512-0.0039063-0.0192871V22.4023438H128.9401855z M127.9401855,12.1918945v8.2104492h-20.3837891   v-8.2104492C107.5563965,6.5722656,112.1286621,2,117.748291,2S127.9401855,6.5722656,127.9401855,12.1918945z M13.1765137,128   c-6.1298828,0-11.1166992-4.9868164-11.1166992-11.1162109v-0.7807617h81.1123047v1.7050781   c0,4.2600098,2.2000732,8.0112305,5.5197754,10.1918945H13.1765137z M105.5563965,12.1918945v9.1911621   c-0.0001221,0.0068359-0.0039063,0.0124512-0.0039063,0.0192871v96.409668c0,0.005127,0.0029297,0.0095215,0.0029907,0.0146484   C105.5452271,123.4377441,100.9778442,128,95.3640137,128c-5.6196289,0-10.1918945-4.5722656-10.1918945-10.1918945v-2.685791   c0.0001221-0.0068359,0.0039063-0.0124512,0.0039063-0.0192871c0-0.5522461-0.4477539-1-1-1H13.236084V15.7387695   c0-7.5751953,6.168457-13.7382813,13.75-13.7382813L111.0761108,2   C107.7564697,4.1806641,105.5563965,7.9318848,105.5563965,12.1918945z"></path>
<path d="M88.7692871,81.355957h-58.75c-0.5522461,0-1,0.4477539-1,1s0.4477539,1,1,1h58.75c0.5522461,0,1-0.4477539,1-1   S89.3215332,81.355957,88.7692871,81.355957z"></path>
<path d="M88.7692871,95.5161133h-58.75c-0.5522461,0-1,0.4477539-1,1s0.4477539,1,1,1h58.75c0.5522461,0,1-0.4477539,1-1   S89.3215332,95.5161133,88.7692871,95.5161133z"></path>
<path d="M88.7692871,67.1958008h-58.75c-0.5522461,0-1,0.4477539-1,1s0.4477539,1,1,1h58.75c0.5522461,0,1-0.4477539,1-1   S89.3215332,67.1958008,88.7692871,67.1958008z"></path>
<path d="M70.1452637,39.9301758c-4.9599609,0-8.9951172,4.0351563-8.9951172,8.9946289   c0,4.9599609,4.0351563,8.9951172,8.9951172,8.9951172s8.9951172-4.0351563,8.9951172-8.9951172   C79.1403809,43.965332,75.1052246,39.9301758,70.1452637,39.9301758z M70.1452637,55.9199219   c-3.8569336,0-6.9951172-3.1381836-6.9951172-6.9951172s3.1381836-6.9946289,6.9951172-6.9946289   s6.9951172,3.1376953,6.9951172,6.9946289S74.0021973,55.9199219,70.1452637,55.9199219z"></path>
<path d="M48.6433105,36.5766602c4.9594727,0,8.9946289-4.0351563,8.9946289-8.9951172   c0-4.9594727-4.0351563-8.9946289-8.9946289-8.9946289c-4.9599609,0-8.9951172,4.0351563-8.9951172,8.9946289   C39.6481934,32.5415039,43.6833496,36.5766602,48.6433105,36.5766602z M48.6433105,20.5869141   c3.8569336,0,6.9946289,3.1376953,6.9946289,6.9946289s-3.1376953,6.9951172-6.9946289,6.9951172   s-6.9951172-3.1381836-6.9951172-6.9951172S44.786377,20.5869141,48.6433105,20.5869141z"></path>
<path d="M41.9973145,55.6435547c0.1953125,0.1953125,0.4511719,0.2929688,0.7070313,0.2929688   s0.5117188-0.0976563,0.7070313-0.2929688l33.3798828-33.3662109c0.390625-0.3901367,0.390625-1.0234375,0-1.4140625   s-1.0234375-0.390625-1.4140625,0L41.9973145,54.2294922C41.6066895,54.6196289,41.6066895,55.2529297,41.9973145,55.6435547z"></path></g></svg>