<svg version="1.2" baseProfile="tiny-ps" xmlns="http://www.w3.org/2000/svg" viewBox="0 0 2314 622" width="112" height="30">
	<title>logo-pemulih (1)-svg</title>
	<defs>
		<clipPath clipPathUnits="userSpaceOnUse" id="cp1">
			<path d="M-123 -409L2437 -409L2437 1031L-123 1031L-123 -409Z" />
		</clipPath>
	</defs>
	<style>
		tspan { white-space:pre }
		.shp0 { fill: #cc3366 } 
		.shp1 { fill: #663399 } 
	</style>
	<g id="g10">
		<g id="g12">
			<path id="path14" class="shp0" d="M1147.29 25.74L974.87 257.25L854.2 95.22L747.53 95.22L975.23 413.06L1263.69 25.74L1147.29 25.74Z" />
		</g>
		<g id="g16">
			<path id="path18" class="shp1" d="M747.53 132.11L747.53 487.75L840.89 487.75L840.89 262.43L747.53 132.11Z" />
		</g>
		<g id="g20">
			<path id="path22" class="shp1" d="M1108.23 270.44L1108.23 487.75L1201.59 487.75L1201.59 145.09L1108.23 270.44Z" />
		</g>
		<g id="g24">
			<g id="Clip-Path: g26" clip-path="url(#cp1)">
				<g id="g26">
					<g id="g32">
						<path id="path34" fill-rule="evenodd" class="shp1" d="M182.8 551.8C186.97 555.28 189.05 560.1 189.05 566.27C189.05 572.38 186.97 577.17 182.8 580.65C178.63 584.12 172.88 585.86 165.54 585.86L148.87 585.86L148.87 604.95L144.62 604.95L144.62 546.59L165.54 546.59C172.88 546.59 178.63 548.33 182.8 551.8ZM179.8 577.94C183.08 575.22 184.72 571.32 184.72 566.27C184.72 561.21 183.08 557.3 179.8 554.55C176.52 551.8 171.76 550.43 165.54 550.43L148.87 550.43L148.87 582.02L165.54 582.02C171.76 582.02 176.52 580.66 179.8 577.94Z" />
					</g>
					<g id="g36">
						<path id="path38" fill-rule="evenodd" class="shp1" d="M228.73 565.22C231.62 567.98 233.07 572.02 233.07 577.35L233.07 604.95L229.07 604.95L229.07 597.2C227.68 599.75 225.65 601.74 222.98 603.16C220.31 604.57 217.12 605.28 213.39 605.28C208.56 605.28 204.74 604.14 201.93 601.86C199.12 599.59 197.72 596.59 197.72 592.86C197.72 589.25 199.01 586.32 201.6 584.07C204.18 581.81 208.31 580.69 213.98 580.69L228.9 580.69L228.9 577.19C228.9 573.13 227.8 570.05 225.61 567.93C223.41 565.82 220.2 564.77 215.98 564.77C213.09 564.77 210.32 565.27 207.68 566.27C205.04 567.27 202.81 568.6 200.97 570.27L198.89 567.27C201.06 565.32 203.67 563.81 206.72 562.72C209.78 561.64 212.98 561.1 216.31 561.1C221.7 561.1 225.84 562.47 228.73 565.22ZM223.19 599.36C225.72 597.7 227.62 595.28 228.9 592.11L228.9 583.94L214.06 583.94C209.78 583.94 206.68 584.72 204.76 586.27C202.85 587.83 201.89 589.97 201.89 592.69C201.89 595.53 202.94 597.77 205.06 599.41C207.17 601.05 210.14 601.86 213.98 601.86C217.59 601.86 220.66 601.03 223.19 599.36Z" />
					</g>
					<g id="g40">
						<path id="path42" class="shp1" d="M265.75 581.69L254.41 592.03L254.41 604.95L250.24 604.95L250.24 543.09L254.41 543.09L254.41 586.86L282.25 561.43L287.59 561.43L268.83 579.02L289.42 604.95L284.26 604.95L265.75 581.69Z" />
					</g>
					<g id="g44">
						<path id="path46" fill-rule="evenodd" class="shp1" d="M334.28 584.19L296.84 584.19C296.95 587.58 297.81 590.6 299.43 593.24C301.04 595.88 303.22 597.92 305.97 599.36C308.72 600.81 311.82 601.53 315.27 601.53C318.1 601.53 320.73 601.02 323.14 599.99C325.56 598.96 327.58 597.45 329.19 595.45L331.61 598.2C329.72 600.48 327.34 602.23 324.48 603.45C321.62 604.67 318.52 605.28 315.18 605.28C310.85 605.28 306.99 604.34 303.6 602.45C300.21 600.56 297.55 597.95 295.63 594.61C293.71 591.28 292.76 587.47 292.76 583.19C292.76 578.97 293.66 575.17 295.47 571.81C297.27 568.45 299.76 565.82 302.93 563.93C306.1 562.04 309.65 561.1 313.6 561.1C317.54 561.1 321.09 562.03 324.23 563.89C327.37 565.75 329.84 568.35 331.65 571.69C333.45 575.02 334.36 578.8 334.36 583.02L334.28 584.19ZM305.35 566.81C302.9 568.17 300.94 570.09 299.47 572.56C298 575.03 297.15 577.83 296.93 580.94L330.27 580.94C330.11 577.83 329.27 575.05 327.77 572.6C326.27 570.16 324.3 568.24 321.85 566.85C319.41 565.46 316.65 564.77 313.6 564.77C310.54 564.77 307.79 565.45 305.35 566.81Z" />
					</g>
					<g id="g48">
						<path id="path50" class="shp1" d="M347.36 549.88C346.7 549.25 346.36 548.45 346.36 547.51C346.36 546.56 346.7 545.76 347.36 545.09C348.03 544.42 348.83 544.09 349.78 544.09C350.72 544.09 351.53 544.41 352.2 545.05C352.87 545.69 353.2 546.48 353.2 547.43C353.2 548.37 352.87 549.18 352.2 549.84C351.53 550.51 350.72 550.84 349.78 550.84C348.83 550.84 348.03 550.52 347.36 549.88ZM334.98 620.71C333.4 620.2 332.11 619.48 331.11 618.54L332.77 615.45C334.55 617.06 336.91 617.87 339.86 617.87C342.41 617.87 344.36 617.12 345.7 615.62C347.03 614.12 347.7 611.95 347.7 609.12L347.7 561.43L351.87 561.43L351.87 609.28C351.87 613.01 350.84 615.97 348.78 618.16C346.72 620.36 343.83 621.46 340.11 621.46C338.27 621.46 336.57 621.21 334.98 620.71" />
					</g>
					<g id="g52">
						<path id="path54" fill-rule="evenodd" class="shp1" d="M430.39 551.8C434.56 555.28 436.65 560.1 436.65 566.27C436.65 572.38 434.56 577.17 430.39 580.65C426.23 584.12 420.47 585.86 413.14 585.86L396.46 585.86L396.46 604.95L392.21 604.95L392.21 546.59L413.14 546.59C420.47 546.59 426.23 548.33 430.39 551.8ZM427.39 577.94C430.67 575.22 432.31 571.32 432.31 566.27C432.31 561.21 430.67 557.3 427.39 554.55C424.11 551.8 419.36 550.43 413.14 550.43L396.46 550.43L396.46 582.02L413.14 582.02C419.36 582.02 424.11 580.66 427.39 577.94Z" />
					</g>
					<g id="g56">
						<path id="path58" fill-rule="evenodd" class="shp1" d="M486.17 584.19L448.74 584.19C448.85 587.58 449.71 590.6 451.32 593.24C452.93 595.88 455.11 597.92 457.86 599.36C460.61 600.81 463.71 601.53 467.16 601.53C469.99 601.53 472.62 601.02 475.04 599.99C477.46 598.96 479.47 597.45 481.08 595.45L483.5 598.2C481.61 600.48 479.23 602.23 476.37 603.45C473.51 604.67 470.41 605.28 467.08 605.28C462.74 605.28 458.88 604.34 455.49 602.45C452.1 600.56 449.44 597.95 447.53 594.61C445.61 591.28 444.65 587.47 444.65 583.19C444.65 578.97 445.55 575.17 447.36 571.81C449.16 568.45 451.65 565.82 454.82 563.93C457.99 562.04 461.55 561.1 465.49 561.1C469.44 561.1 472.98 562.03 476.12 563.89C479.26 565.75 481.73 568.35 483.54 571.69C485.35 575.02 486.25 578.8 486.25 583.02L486.17 584.19ZM457.24 566.81C454.79 568.17 452.83 570.09 451.36 572.56C449.89 575.03 449.04 577.83 448.82 580.94L482.17 580.94C482 577.83 481.16 575.05 479.66 572.6C478.16 570.16 476.19 568.24 473.74 566.85C471.3 565.46 468.55 564.77 465.49 564.77C462.43 564.77 459.68 565.45 457.24 566.81Z" />
					</g>
					<g id="g60">
						<path id="path62" class="shp1" d="M509.43 563.64C512.26 561.95 515.71 561.1 519.76 561.1L519.76 565.18L518.76 565.1C513.93 565.1 510.15 566.61 507.43 569.64C504.7 572.67 503.34 576.88 503.34 582.27L503.34 604.95L499.17 604.95L499.17 561.43L503.17 561.43L503.17 570.93C504.51 567.77 506.59 565.34 509.43 563.64Z" />
					</g>
					<path id="path64" class="shp1" d="M531.27 543.09L535.44 543.09L535.44 604.95L531.27 604.95L531.27 543.09Z" />
					<path id="path66" class="shp1" d="M553.03 561.43L557.19 561.43L557.19 604.95L553.03 604.95L553.03 561.43ZM552.69 549.88C552.03 549.25 551.69 548.45 551.69 547.51C551.69 546.56 552.03 545.76 552.69 545.09C553.36 544.43 554.17 544.09 555.11 544.09C556.05 544.09 556.86 544.41 557.53 545.05C558.2 545.69 558.53 546.48 558.53 547.43C558.53 548.37 558.2 549.18 557.53 549.84C556.86 550.51 556.05 550.84 555.11 550.84C554.17 550.84 553.36 550.52 552.69 549.88" />
					<g id="g68">
						<path id="path70" class="shp1" d="M608.96 565.85C612.13 569.02 613.72 573.57 613.72 579.52L613.72 604.95L609.55 604.95L609.55 579.86C609.55 574.97 608.31 571.24 605.84 568.68C603.36 566.13 599.9 564.85 595.46 564.85C590.34 564.85 586.32 566.38 583.37 569.43C580.42 572.49 578.95 576.6 578.95 581.77L578.95 604.95L574.78 604.95L574.78 561.43L578.78 561.43L578.78 570.85C580.29 567.8 582.52 565.41 585.5 563.68C588.47 561.96 591.98 561.1 596.04 561.1C601.49 561.1 605.8 562.68 608.96 565.85Z" />
					</g>
					<g id="g72">
						<path id="path74" fill-rule="evenodd" class="shp1" d="M669.65 543.09L669.65 604.95L665.57 604.95L665.57 594.69C663.85 598.09 661.43 600.7 658.32 602.53C655.2 604.37 651.67 605.28 647.73 605.28C643.67 605.28 640 604.34 636.73 602.45C633.44 600.56 630.87 597.95 629.01 594.61C627.15 591.28 626.22 587.47 626.22 583.19C626.22 578.91 627.15 575.09 629.01 571.73C630.87 568.37 633.44 565.75 636.73 563.89C640 562.03 643.67 561.1 647.73 561.1C651.62 561.1 655.11 562.01 658.19 563.85C661.28 565.68 663.71 568.24 665.49 571.52L665.49 543.09L669.65 543.09ZM663.19 592.69C664.72 589.92 665.49 586.75 665.49 583.19C665.49 579.63 664.72 576.47 663.19 573.69C661.66 570.91 659.58 568.74 656.94 567.18C654.3 565.63 651.31 564.85 647.98 564.85C644.64 564.85 641.66 565.63 639.02 567.18C636.38 568.74 634.29 570.91 632.77 573.69C631.23 576.47 630.47 579.63 630.47 583.19C630.47 586.75 631.23 589.92 632.77 592.69C634.29 595.47 636.38 597.64 639.02 599.2C641.66 600.75 644.64 601.53 647.98 601.53C651.31 601.53 654.3 600.75 656.94 599.2C659.58 597.64 661.66 595.47 663.19 592.69Z" />
					</g>
					<g id="g76">
						<path id="path78" class="shp1" d="M725.34 561.43L725.34 604.95L721.34 604.95L721.34 595.61C719.89 598.67 717.76 601.04 714.92 602.74C712.09 604.44 708.75 605.28 704.92 605.28C699.25 605.28 694.8 603.7 691.58 600.53C688.36 597.36 686.74 592.81 686.74 586.86L686.74 561.43L690.91 561.43L690.91 586.53C690.91 591.42 692.16 595.14 694.66 597.7C697.16 600.25 700.69 601.53 705.25 601.53C710.14 601.53 714.02 600 716.88 596.95C719.74 593.89 721.17 589.78 721.17 584.61L721.17 561.43L725.34 561.43Z" />
					</g>
					<g id="g80">
						<path id="path82" class="shp1" d="M777.2 565.85C780.36 569.02 781.95 573.57 781.95 579.52L781.95 604.95L777.78 604.95L777.78 579.86C777.78 574.97 776.54 571.24 774.07 568.68C771.6 566.13 768.14 564.85 763.69 564.85C758.58 564.85 754.55 566.38 751.6 569.43C748.65 572.49 747.18 576.6 747.18 581.77L747.18 604.95L743.02 604.95L743.02 561.43L747.02 561.43L747.02 570.85C748.52 567.8 750.75 565.41 753.73 563.68C756.7 561.96 760.22 561.1 764.27 561.1C769.72 561.1 774.03 562.68 777.2 565.85Z" />
					</g>
					<g id="g84">
						<path id="path86" fill-rule="evenodd" class="shp1" d="M838.39 561.43L838.39 600.28C838.39 607.5 836.64 612.84 833.13 616.29C829.63 619.73 824.35 621.46 817.3 621.46C813.29 621.46 809.51 620.84 805.96 619.62C802.4 618.4 799.54 616.7 797.37 614.54L799.62 611.37C801.79 613.37 804.4 614.92 807.46 616.04C810.51 617.15 813.77 617.7 817.21 617.7C822.99 617.7 827.27 616.33 830.05 613.58C832.83 610.83 834.22 606.56 834.22 600.78L834.22 593.44C832.44 596.61 829.97 599.06 826.8 600.78C823.63 602.5 820.07 603.37 816.13 603.37C812.07 603.37 808.39 602.46 805.08 600.66C801.77 598.85 799.18 596.34 797.29 593.11C795.4 589.89 794.45 586.25 794.45 582.19C794.45 578.13 795.4 574.49 797.29 571.27C799.18 568.05 801.77 565.55 805.08 563.77C808.39 561.99 812.07 561.1 816.13 561.1C820.13 561.1 823.74 561.99 826.97 563.77C830.19 565.55 832.66 568.05 834.38 571.27L834.38 561.43L838.39 561.43ZM832.01 591.24C833.54 588.6 834.3 585.58 834.3 582.19C834.3 578.8 833.54 575.8 832.01 573.19C830.48 570.58 828.35 568.53 825.63 567.06C822.91 565.59 819.85 564.85 816.46 564.85C813.07 564.85 810.03 565.59 807.33 567.06C804.64 568.53 802.53 570.58 801 573.19C799.47 575.8 798.7 578.8 798.7 582.19C798.7 585.58 799.47 588.6 801 591.24C802.53 593.88 804.64 595.93 807.33 597.4C810.03 598.88 813.07 599.61 816.46 599.61C819.85 599.61 822.91 598.88 825.63 597.4C828.35 595.93 830.48 593.88 832.01 591.24Z" />
					</g>
					<g id="g88">
						<path id="path90" fill-rule="evenodd" class="shp1" d="M883.15 565.22C886.04 567.98 887.48 572.02 887.48 577.35L887.48 604.95L883.48 604.95L883.48 597.2C882.09 599.75 880.06 601.74 877.4 603.16C874.73 604.57 871.54 605.28 867.81 605.28C862.98 605.28 859.16 604.14 856.35 601.86C853.54 599.59 852.14 596.59 852.14 592.86C852.14 589.25 853.43 586.32 856.02 584.07C858.6 581.81 862.73 580.69 868.4 580.69L883.32 580.69L883.32 577.19C883.32 573.13 882.22 570.05 880.02 567.93C877.83 565.82 874.62 564.77 870.4 564.77C867.51 564.77 864.74 565.27 862.1 566.27C859.46 567.27 857.23 568.6 855.39 570.27L853.31 567.27C855.48 565.32 858.09 563.81 861.14 562.72C864.2 561.64 867.4 561.1 870.73 561.1C876.12 561.1 880.26 562.47 883.15 565.22ZM883.32 592.11L883.32 583.94L868.48 583.94C864.2 583.94 861.1 584.72 859.18 586.27C857.27 587.83 856.31 589.97 856.31 592.69C856.31 595.53 857.36 597.77 859.48 599.41C861.59 601.05 864.56 601.86 868.4 601.86C872.01 601.86 875.08 601.03 877.61 599.36C880.13 597.7 882.04 595.28 883.32 592.11Z" />
					</g>
					<g id="g92">
						<path id="path94" class="shp1" d="M938.84 565.85C942.01 569.02 943.59 573.57 943.59 579.52L943.59 604.95L939.42 604.95L939.42 579.86C939.42 574.97 938.19 571.24 935.71 568.68C933.24 566.13 929.78 564.85 925.33 564.85C920.22 564.85 916.19 566.38 913.25 569.43C910.3 572.49 908.83 576.6 908.83 581.77L908.83 604.95L904.66 604.95L904.66 561.43L908.66 561.43L908.66 570.85C910.16 567.8 912.4 565.41 915.37 563.68C918.35 561.96 921.86 561.1 925.92 561.1C931.37 561.1 935.67 562.68 938.84 565.85Z" />
					</g>
					<g id="g96">
						<path id="path98" fill-rule="evenodd" class="shp1" d="M1024.04 604.95L1010.12 585.44C1008.06 585.72 1006.17 585.86 1004.45 585.86L987.77 585.86L987.77 604.95L983.52 604.95L983.52 546.59L1004.45 546.59C1011.78 546.59 1017.54 548.33 1021.7 551.8C1025.87 555.28 1027.96 560.1 1027.96 566.27C1027.96 570.88 1026.77 574.76 1024.41 577.9C1022.05 581.04 1018.67 583.25 1014.28 584.52L1028.87 604.95L1024.04 604.95ZM1004.45 582.11C1010.67 582.11 1015.42 580.73 1018.7 577.98C1021.98 575.23 1023.62 571.32 1023.62 566.27C1023.62 561.21 1021.98 557.3 1018.7 554.55C1015.42 551.8 1010.67 550.43 1004.45 550.43L987.77 550.43L987.77 582.11L1004.45 582.11Z" />
					</g>
					<g id="g100">
						<path id="path102" fill-rule="evenodd" class="shp1" d="M1068.89 565.22C1071.78 567.98 1073.22 572.02 1073.22 577.35L1073.22 604.95L1069.22 604.95L1069.22 597.2C1067.83 599.75 1065.8 601.74 1063.14 603.16C1060.47 604.57 1057.27 605.28 1053.55 605.28C1048.71 605.28 1044.89 604.14 1042.09 601.86C1039.28 599.59 1037.88 596.59 1037.88 592.86C1037.88 589.25 1039.17 586.32 1041.75 584.07C1044.34 581.81 1048.47 580.69 1054.13 580.69L1069.06 580.69L1069.06 577.19C1069.06 573.13 1067.96 570.05 1065.76 567.93C1063.57 565.82 1060.36 564.77 1056.13 564.77C1053.24 564.77 1050.48 565.27 1047.84 566.27C1045.2 567.27 1042.96 568.6 1041.13 570.27L1039.04 567.27C1041.21 565.32 1043.82 563.81 1046.88 562.72C1049.94 561.64 1053.13 561.1 1056.47 561.1C1061.86 561.1 1066 562.47 1068.89 565.22ZM1063.35 599.36C1065.87 597.7 1067.78 595.28 1069.06 592.11L1069.06 583.94L1054.22 583.94C1049.94 583.94 1046.84 584.72 1044.92 586.27C1043 587.83 1042.05 589.97 1042.05 592.69C1042.05 595.53 1043.1 597.77 1045.21 599.41C1047.32 601.05 1050.3 601.86 1054.13 601.86C1057.75 601.86 1060.82 601.03 1063.35 599.36Z" />
					</g>
					<g id="g104">
						<path id="path106" class="shp1" d="M1105.9 581.69L1094.56 592.03L1094.56 604.95L1090.4 604.95L1090.4 543.09L1094.56 543.09L1094.56 586.86L1122.41 561.43L1127.74 561.43L1108.99 579.02L1129.58 604.95L1124.41 604.95L1105.9 581.69Z" />
					</g>
					<g id="g108">
						<path id="path110" class="shp1" d="M1172.18 561.43L1149.84 610.87C1148.17 614.7 1146.24 617.43 1144.05 619.04C1141.85 620.65 1139.25 621.46 1136.25 621.46C1134.25 621.46 1132.38 621.12 1130.62 620.45C1128.87 619.79 1127.39 618.82 1126.17 617.54L1128.25 614.37C1130.47 616.65 1133.17 617.79 1136.34 617.79C1138.45 617.79 1140.26 617.2 1141.75 616.04C1143.25 614.87 1144.64 612.87 1145.92 610.03L1148.26 604.78L1128.67 561.43L1133.08 561.43L1150.51 600.36L1167.93 561.43L1172.18 561.43Z" />
					</g>
					<g id="g112">
						<path id="path114" fill-rule="evenodd" class="shp1" d="M1207.03 565.22C1209.92 567.98 1211.37 572.02 1211.37 577.35L1211.37 604.95L1207.36 604.95L1207.36 597.2C1205.97 599.75 1203.95 601.74 1201.28 603.16C1198.61 604.57 1195.41 605.28 1191.69 605.28C1186.85 605.28 1183.03 604.14 1180.23 601.86C1177.42 599.59 1176.02 596.59 1176.02 592.86C1176.02 589.25 1177.31 586.32 1179.9 584.07C1182.48 581.81 1186.61 580.69 1192.27 580.69L1207.2 580.69L1207.2 577.19C1207.2 573.13 1206.1 570.05 1203.9 567.93C1201.71 565.82 1198.5 564.77 1194.28 564.77C1191.38 564.77 1188.62 565.27 1185.98 566.27C1183.34 567.27 1181.1 568.6 1179.27 570.27L1177.19 567.27C1179.35 565.32 1181.97 563.81 1185.02 562.72C1188.08 561.64 1191.27 561.1 1194.61 561.1C1200 561.1 1204.14 562.47 1207.03 565.22ZM1201.49 599.36C1204.01 597.7 1205.92 595.28 1207.2 592.11L1207.2 583.94L1192.36 583.94C1188.08 583.94 1184.98 584.72 1183.06 586.27C1181.15 587.83 1180.19 589.97 1180.19 592.69C1180.19 595.53 1181.24 597.77 1183.35 599.41C1185.47 601.05 1188.44 601.86 1192.27 601.86C1195.89 601.86 1198.96 601.03 1201.49 599.36Z" />
					</g>
					<g id="g116">
						<path id="path118" class="shp1" d="M1250.13 602.2C1249.07 603.2 1247.75 603.96 1246.17 604.49C1244.59 605.02 1242.93 605.28 1241.21 605.28C1237.43 605.28 1234.51 604.24 1232.46 602.16C1230.4 600.07 1229.37 597.17 1229.37 593.44L1229.37 565.02L1221.37 565.02L1221.37 561.43L1229.37 561.43L1229.37 551.93L1233.54 551.93L1233.54 561.43L1247.38 561.43L1247.38 565.02L1233.54 565.02L1233.54 593.03C1233.54 595.86 1234.22 598.02 1235.58 599.49C1236.94 600.96 1238.96 601.7 1241.63 601.7C1244.35 601.7 1246.6 600.89 1248.38 599.28L1250.13 602.2Z" />
					</g>
					<g id="g120">
						<path id="path122" fill-rule="evenodd" class="shp1" d="M1284.48 546.59L1307.57 546.59C1313.63 546.59 1319 547.84 1323.7 550.34C1328.39 552.84 1332.05 556.3 1334.66 560.72C1337.27 565.14 1338.58 570.16 1338.58 575.77C1338.58 581.38 1337.27 586.4 1334.66 590.82C1332.05 595.24 1328.39 598.7 1323.7 601.2C1319 603.7 1313.63 604.95 1307.57 604.95L1284.48 604.95L1284.48 546.59ZM1307.23 601.11C1312.63 601.11 1317.38 600.04 1321.49 597.9C1325.6 595.77 1328.77 592.78 1331 588.94C1333.22 585.11 1334.33 580.72 1334.33 575.77C1334.33 570.82 1333.22 566.43 1331 562.6C1328.77 558.76 1325.6 555.78 1321.49 553.64C1317.38 551.5 1312.63 550.43 1307.23 550.43L1288.73 550.43L1288.73 601.11L1307.23 601.11Z" />
					</g>
					<g id="g124">
						<path id="path126" fill-rule="evenodd" class="shp1" d="M1379.1 565.22C1381.99 567.98 1383.43 572.02 1383.43 577.35L1383.43 604.95L1379.43 604.95L1379.43 597.2C1378.04 599.75 1376.01 601.74 1373.34 603.16C1370.68 604.57 1367.48 605.28 1363.76 605.28C1358.92 605.28 1355.1 604.14 1352.3 601.86C1349.49 599.59 1348.08 596.59 1348.08 592.86C1348.08 589.25 1349.38 586.32 1351.96 584.07C1354.54 581.81 1358.67 580.69 1364.34 580.69L1379.26 580.69L1379.26 577.19C1379.26 573.13 1378.16 570.05 1375.97 567.93C1373.77 565.82 1370.57 564.77 1366.34 564.77C1363.45 564.77 1360.68 565.27 1358.04 566.27C1355.41 567.27 1353.17 568.6 1351.34 570.27L1349.25 567.27C1351.42 565.32 1354.03 563.81 1357.09 562.72C1360.14 561.64 1363.34 561.1 1366.68 561.1C1372.06 561.1 1376.21 562.47 1379.1 565.22ZM1373.55 599.36C1376.08 597.7 1377.98 595.28 1379.26 592.11L1379.26 583.94L1364.42 583.94C1360.14 583.94 1357.05 584.72 1355.13 586.27C1353.21 587.83 1352.25 589.97 1352.25 592.69C1352.25 595.53 1353.31 597.77 1355.42 599.41C1357.53 601.05 1360.5 601.86 1364.34 601.86C1367.95 601.86 1371.02 601.03 1373.55 599.36Z" />
					</g>
					<g id="g128">
						<path id="path130" class="shp1" d="M1434.78 565.85C1437.95 569.02 1439.54 573.57 1439.54 579.52L1439.54 604.95L1435.37 604.95L1435.37 579.86C1435.37 574.97 1434.13 571.24 1431.66 568.68C1429.18 566.13 1425.73 564.85 1421.28 564.85C1416.17 564.85 1412.14 566.38 1409.19 569.43C1406.24 572.49 1404.77 576.6 1404.77 581.77L1404.77 604.95L1400.6 604.95L1400.6 561.43L1404.61 561.43L1404.61 570.85C1406.11 567.8 1408.34 565.41 1411.32 563.68C1414.29 561.96 1417.81 561.1 1421.86 561.1C1427.31 561.1 1431.62 562.68 1434.78 565.85Z" />
					</g>
					<g id="g132">
						<path id="path134" fill-rule="evenodd" class="shp1" d="M1517.65 551.8C1521.82 555.28 1523.9 560.1 1523.9 566.27C1523.9 572.38 1521.82 577.17 1517.65 580.65C1513.48 584.12 1507.73 585.86 1500.39 585.86L1483.72 585.86L1483.72 604.95L1479.47 604.95L1479.47 546.59L1500.39 546.59C1507.73 546.59 1513.48 548.33 1517.65 551.8ZM1514.65 577.94C1517.93 575.22 1519.57 571.32 1519.57 566.27C1519.57 561.21 1517.93 557.3 1514.65 554.55C1511.37 551.8 1506.62 550.43 1500.39 550.43L1483.72 550.43L1483.72 582.02L1500.39 582.02C1506.62 582.02 1511.37 580.66 1514.65 577.94Z" />
					</g>
					<g id="g136">
						<path id="path138" fill-rule="evenodd" class="shp1" d="M1573.43 584.19L1535.99 584.19C1536.1 587.58 1536.96 590.6 1538.58 593.24C1540.19 595.88 1542.37 597.92 1545.12 599.36C1547.87 600.81 1550.97 601.53 1554.42 601.53C1557.25 601.53 1559.88 601.02 1562.29 599.99C1564.71 598.96 1566.73 597.45 1568.34 595.45L1570.76 598.2C1568.87 600.48 1566.49 602.23 1563.63 603.45C1560.77 604.67 1557.67 605.28 1554.33 605.28C1550 605.28 1546.13 604.34 1542.75 602.45C1539.35 600.56 1536.7 597.95 1534.78 594.61C1532.87 591.28 1531.91 587.47 1531.91 583.19C1531.91 578.97 1532.81 575.17 1534.62 571.81C1536.42 568.45 1538.91 565.82 1542.08 563.93C1545.25 562.04 1548.8 561.1 1552.75 561.1C1556.69 561.1 1560.24 562.03 1563.38 563.89C1566.52 565.75 1568.99 568.35 1570.8 571.69C1572.6 575.02 1573.51 578.8 1573.51 583.02L1573.43 584.19ZM1544.49 566.81C1542.05 568.17 1540.09 570.09 1538.62 572.56C1537.15 575.03 1536.3 577.83 1536.08 580.94L1569.42 580.94C1569.26 577.83 1568.42 575.05 1566.92 572.6C1565.42 570.16 1563.45 568.24 1561 566.85C1558.55 565.46 1555.8 564.77 1552.75 564.77C1549.69 564.77 1546.94 565.45 1544.49 566.81Z" />
					</g>
					<g id="g140">
						<path id="path142" class="shp1" d="M1653.33 565.85C1656.42 569.02 1657.96 573.57 1657.96 579.52L1657.96 604.95L1653.79 604.95L1653.79 579.86C1653.79 574.97 1652.59 571.24 1650.21 568.68C1647.81 566.13 1644.48 564.85 1640.2 564.85C1635.31 564.85 1631.43 566.38 1628.57 569.43C1625.71 572.49 1624.28 576.6 1624.28 581.77L1624.28 604.95L1620.11 604.95L1620.11 579.86C1620.11 574.97 1618.91 571.24 1616.53 568.68C1614.13 566.13 1610.8 564.85 1606.52 564.85C1601.63 564.85 1597.75 566.38 1594.89 569.43C1592.03 572.49 1590.6 576.6 1590.6 581.77L1590.6 604.95L1586.43 604.95L1586.43 561.43L1590.43 561.43L1590.43 570.77C1591.88 567.71 1594.03 565.34 1596.89 563.64C1599.75 561.95 1603.16 561.1 1607.1 561.1C1611.05 561.1 1614.4 561.99 1617.15 563.77C1619.9 565.55 1621.86 568.16 1623.03 571.6C1624.47 568.38 1626.74 565.82 1629.82 563.93C1632.91 562.04 1636.5 561.1 1640.62 561.1C1646.01 561.1 1650.25 562.68 1653.33 565.85Z" />
					</g>
					<g id="g144">
						<path id="path146" class="shp1" d="M1713.23 561.43L1713.23 604.95L1709.23 604.95L1709.23 595.61C1707.78 598.67 1705.64 601.04 1702.81 602.74C1699.98 604.44 1696.64 605.28 1692.8 605.28C1687.14 605.28 1682.69 603.7 1679.47 600.53C1676.24 597.36 1674.63 592.81 1674.63 586.86L1674.63 561.43L1678.8 561.43L1678.8 586.53C1678.8 591.42 1680.05 595.14 1682.55 597.7C1685.05 600.25 1688.58 601.53 1693.14 601.53C1698.03 601.53 1701.9 600 1704.77 596.95C1707.63 593.89 1709.06 589.78 1709.06 584.61L1709.06 561.43L1713.23 561.43Z" />
					</g>
					<path id="path148" class="shp1" d="M1730.9 543.09L1735.07 543.09L1735.07 604.95L1730.9 604.95L1730.9 543.09Z" />
					<path id="path150" class="shp1" d="M1752.66 561.43L1756.83 561.43L1756.83 604.95L1752.66 604.95L1752.66 561.43ZM1752.33 549.88C1751.66 549.25 1751.32 548.45 1751.32 547.51C1751.32 546.56 1751.66 545.76 1752.33 545.09C1752.99 544.43 1753.8 544.09 1754.74 544.09C1755.69 544.09 1756.49 544.41 1757.16 545.05C1757.83 545.69 1758.16 546.48 1758.16 547.43C1758.16 548.37 1757.83 549.18 1757.16 549.84C1756.49 550.51 1755.69 550.84 1754.74 550.84C1753.8 550.84 1752.99 550.52 1752.33 549.88" />
					<g id="g152">
						<path id="path154" class="shp1" d="M1808.6 565.85C1811.77 569.02 1813.35 573.57 1813.35 579.52L1813.35 604.95L1809.18 604.95L1809.18 579.86C1809.18 574.97 1807.94 571.24 1805.47 568.68C1803 566.13 1799.54 564.85 1795.09 564.85C1789.98 564.85 1785.95 566.38 1783.01 569.43C1780.06 572.49 1778.59 576.6 1778.59 581.77L1778.59 604.95L1774.42 604.95L1774.42 543.09L1778.59 543.09L1778.59 570.52C1780.09 567.52 1782.31 565.2 1785.26 563.56C1788.2 561.92 1791.68 561.1 1795.68 561.1C1801.12 561.1 1805.43 562.68 1808.6 565.85Z" />
					</g>
					<g id="g156">
						<path id="path158" fill-rule="evenodd" class="shp1" d="M1857.62 565.22C1860.51 567.98 1861.95 572.02 1861.95 577.35L1861.95 604.95L1857.95 604.95L1857.95 597.2C1856.56 599.75 1854.53 601.74 1851.86 603.16C1849.2 604.57 1846 605.28 1842.28 605.28C1837.44 605.28 1833.62 604.14 1830.82 601.86C1828.01 599.59 1826.6 596.59 1826.6 592.86C1826.6 589.25 1827.9 586.32 1830.48 584.07C1833.06 581.81 1837.19 580.69 1842.86 580.69L1857.78 580.69L1857.78 577.19C1857.78 573.13 1856.68 570.05 1854.49 567.93C1852.29 565.82 1849.09 564.77 1844.86 564.77C1841.97 564.77 1839.2 565.27 1836.56 566.27C1833.93 567.27 1831.69 568.6 1829.86 570.27L1827.77 567.27C1829.94 565.32 1832.55 563.81 1835.61 562.72C1838.66 561.64 1841.86 561.1 1845.2 561.1C1850.58 561.1 1854.73 562.47 1857.62 565.22ZM1852.07 599.36C1854.6 597.7 1856.5 595.28 1857.78 592.11L1857.78 583.94L1842.94 583.94C1838.66 583.94 1835.57 584.72 1833.65 586.27C1831.73 587.83 1830.77 589.97 1830.77 592.69C1830.77 595.53 1831.83 597.77 1833.94 599.41C1836.05 601.05 1839.02 601.86 1842.86 601.86C1846.47 601.86 1849.54 601.03 1852.07 599.36Z" />
					</g>
					<g id="g160">
						<path id="path162" class="shp1" d="M1913.3 565.85C1916.47 569.02 1918.06 573.57 1918.06 579.52L1918.06 604.95L1913.89 604.95L1913.89 579.86C1913.89 574.97 1912.65 571.24 1910.18 568.68C1907.7 566.13 1904.25 564.85 1899.8 564.85C1894.69 564.85 1890.66 566.38 1887.71 569.43C1884.76 572.49 1883.29 576.6 1883.29 581.77L1883.29 604.95L1879.12 604.95L1879.12 561.43L1883.13 561.43L1883.13 570.85C1884.63 567.8 1886.86 565.41 1889.84 563.68C1892.81 561.96 1896.33 561.1 1900.38 561.1C1905.83 561.1 1910.14 562.68 1913.3 565.85Z" />
					</g>
					<g id="g164">
						<path id="path166" class="shp1" d="M1998.25 601.11L1998.25 604.95L1957.99 604.95L1957.99 546.59L1997 546.59L1997 550.43L1962.24 550.43L1962.24 573.44L1993.34 573.44L1993.34 577.19L1962.24 577.19L1962.24 601.11L1998.25 601.11Z" />
					</g>
					<g id="g168">
						<path id="path170" class="shp1" d="M2027.93 581.69L2016.59 592.03L2016.59 604.95L2012.43 604.95L2012.43 543.09L2016.59 543.09L2016.59 586.86L2044.44 561.43L2049.77 561.43L2031.02 579.02L2051.61 604.95L2046.44 604.95L2027.93 581.69Z" />
					</g>
					<g id="g172">
						<path id="path174" fill-rule="evenodd" class="shp1" d="M2065.57 602.45C2062.26 600.56 2059.67 597.93 2057.78 594.57C2055.89 591.21 2054.94 587.41 2054.94 583.19C2054.94 578.97 2055.89 575.17 2057.78 571.81C2059.67 568.45 2062.26 565.82 2065.57 563.93C2068.88 562.04 2072.59 561.1 2076.7 561.1C2080.81 561.1 2084.52 562.04 2087.83 563.93C2091.14 565.82 2093.74 568.45 2095.63 571.81C2097.51 575.17 2098.46 578.97 2098.46 583.19C2098.46 587.41 2097.51 591.21 2095.63 594.57C2093.74 597.93 2091.14 600.56 2087.83 602.45C2084.52 604.34 2080.81 605.28 2076.7 605.28C2072.59 605.28 2068.88 604.34 2065.57 602.45ZM2091.92 592.69C2093.44 589.92 2094.21 586.75 2094.21 583.19C2094.21 579.63 2093.44 576.47 2091.92 573.69C2090.39 570.91 2088.3 568.74 2085.66 567.18C2083.02 565.63 2080.04 564.85 2076.7 564.85C2073.37 564.85 2070.38 565.63 2067.74 567.18C2065.1 568.74 2063.02 570.91 2061.49 573.69C2059.96 576.47 2059.19 579.63 2059.19 583.19C2059.19 586.75 2059.96 589.92 2061.49 592.69C2063.02 595.47 2065.1 597.64 2067.74 599.2C2070.38 600.75 2073.37 601.53 2076.7 601.53C2080.04 601.53 2083.02 600.75 2085.66 599.2C2088.3 597.64 2090.39 595.47 2091.92 592.69Z" />
					</g>
					<g id="g176">
						<path id="path178" class="shp1" d="M2145.56 565.85C2148.73 569.02 2150.32 573.57 2150.32 579.52L2150.32 604.95L2146.15 604.95L2146.15 579.86C2146.15 574.97 2144.91 571.24 2142.44 568.68C2139.96 566.13 2136.51 564.85 2132.06 564.85C2126.95 564.85 2122.92 566.38 2119.97 569.43C2117.02 572.49 2115.55 576.6 2115.55 581.77L2115.55 604.95L2111.38 604.95L2111.38 561.43L2115.39 561.43L2115.39 570.85C2116.89 567.8 2119.12 565.41 2122.1 563.68C2125.07 561.96 2128.59 561.1 2132.64 561.1C2138.09 561.1 2142.4 562.68 2145.56 565.85Z" />
					</g>
					<g id="g180">
						<path id="path182" fill-rule="evenodd" class="shp1" d="M2173.45 602.45C2170.14 600.56 2167.54 597.93 2165.65 594.57C2163.76 591.21 2162.82 587.41 2162.82 583.19C2162.82 578.97 2163.76 575.17 2165.65 571.81C2167.54 568.45 2170.14 565.82 2173.45 563.93C2176.75 562.04 2180.46 561.1 2184.58 561.1C2188.69 561.1 2192.4 562.04 2195.71 563.93C2199.01 565.82 2201.61 568.45 2203.5 571.81C2205.39 575.17 2206.34 578.97 2206.34 583.19C2206.34 587.41 2205.39 591.21 2203.5 594.57C2201.61 597.93 2199.01 600.56 2195.71 602.45C2192.4 604.34 2188.69 605.28 2184.58 605.28C2180.46 605.28 2176.75 604.34 2173.45 602.45ZM2199.79 592.69C2201.32 589.92 2202.08 586.75 2202.08 583.19C2202.08 579.63 2201.32 576.47 2199.79 573.69C2198.26 570.91 2196.18 568.74 2193.54 567.18C2190.9 565.63 2187.91 564.85 2184.58 564.85C2181.24 564.85 2178.25 565.63 2175.62 567.18C2172.98 568.74 2170.89 570.91 2169.36 573.69C2167.83 576.47 2167.07 579.63 2167.07 583.19C2167.07 586.75 2167.83 589.92 2169.36 592.69C2170.89 595.47 2172.98 597.64 2175.62 599.2C2178.25 600.75 2181.24 601.53 2184.58 601.53C2187.91 601.53 2190.9 600.75 2193.54 599.2C2196.18 597.64 2198.26 595.47 2199.79 592.69Z" />
					</g>
					<g id="g184">
						<path id="path186" class="shp1" d="M2286.16 565.85C2289.24 569.02 2290.79 573.57 2290.79 579.52L2290.79 604.95L2286.62 604.95L2286.62 579.86C2286.62 574.97 2285.42 571.24 2283.03 568.68C2280.64 566.13 2277.31 564.85 2273.03 564.85C2268.14 564.85 2264.26 566.38 2261.4 569.43C2258.54 572.49 2257.11 576.6 2257.11 581.77L2257.11 604.95L2252.94 604.95L2252.94 579.86C2252.94 574.97 2251.74 571.24 2249.35 568.68C2246.96 566.13 2243.63 564.85 2239.35 564.85C2234.46 564.85 2230.58 566.38 2227.72 569.43C2224.85 572.49 2223.42 576.6 2223.42 581.77L2223.42 604.95L2219.26 604.95L2219.26 561.43L2223.26 561.43L2223.26 570.77C2224.7 567.71 2226.86 565.34 2229.72 563.64C2232.58 561.95 2235.99 561.1 2239.93 561.1C2243.88 561.1 2247.23 561.99 2249.98 563.77C2252.73 565.55 2254.69 568.16 2255.85 571.6C2257.3 568.38 2259.57 565.82 2262.65 563.93C2265.73 562.04 2269.33 561.1 2273.45 561.1C2278.84 561.1 2283.08 562.68 2286.16 565.85Z" />
					</g>
					<path id="path188" class="shp1" d="M2307.96 561.43L2312.13 561.43L2312.13 604.95L2307.96 604.95L2307.96 561.43ZM2307.63 549.88C2306.96 549.25 2306.63 548.45 2306.63 547.51C2306.63 546.56 2306.96 545.76 2307.63 545.09C2308.29 544.43 2309.1 544.09 2310.05 544.09C2310.99 544.09 2311.79 544.41 2312.46 545.05C2313.13 545.69 2313.46 546.48 2313.46 547.43C2313.46 548.37 2313.13 549.18 2312.46 549.84C2311.79 550.51 2310.99 550.84 2310.05 550.84C2309.1 550.84 2308.29 550.52 2307.63 549.88" />
					<g id="g190">
						<path id="path192" fill-rule="evenodd" class="shp1" d="M196.89 490.14C159.43 490.14 124.55 475.28 98.71 451.38L98.71 590.9C98.71 608.98 88.38 619.32 70.29 619.32L28.96 619.32C10.87 619.32 0.54 608.98 0.54 590.9L0.54 176.23C0.54 158.14 10.87 147.81 28.96 147.81L70.29 147.81C88.38 147.81 98.71 158.14 98.71 176.23L98.71 178.82C124.55 154.92 159.43 140.06 196.89 140.06C284.73 140.06 340.28 204.65 340.28 315.1C340.28 425.55 284.73 490.14 196.89 490.14ZM240.81 315.1C240.81 252.45 216.27 216.92 166.53 216.92C143.28 216.92 115.51 227.9 98.71 245.99L98.71 384.21C115.51 402.3 143.28 413.28 166.53 413.28C216.27 413.28 240.81 377.75 240.81 315.1Z" />
					</g>
					<g id="g194">
						<path id="path196" fill-rule="evenodd" class="shp1" d="M709.74 318.97C709.74 337.06 698.76 346.75 680.67 346.75L472.69 346.75C479.8 388.73 510.15 413.27 556.66 413.27C578.62 413.27 596.06 406.17 610.91 393.9C624.48 382.27 636.75 379.04 650.96 389.38L672.27 404.23C687.78 415.21 691.01 430.72 676.8 444.28C644.5 473.99 602.52 490.14 552.78 490.14C442.98 490.14 375.16 417.15 375.16 315.1C375.16 213.05 442.33 140.06 543.09 140.06C642.56 140.06 709.74 212.4 709.74 316.39L709.74 318.97ZM472.05 280.22L612.85 280.22C608.98 240.82 581.2 216.92 543.09 216.92C503.69 216.92 477.86 239.53 472.05 280.22Z" />
					</g>
					<g id="g198">
						<path id="path200" class="shp1" d="M1252.89 337.06L1252.89 176.23C1252.89 158.15 1263.23 147.81 1281.31 147.81L1322.65 147.81C1340.73 147.81 1351.07 158.15 1351.07 176.23L1351.07 342.87C1351.07 390.02 1378.2 413.28 1415.01 413.28C1451.83 413.28 1478.96 390.02 1478.96 342.87L1478.96 176.23C1478.96 158.15 1489.29 147.81 1507.38 147.81L1548.71 147.81C1566.8 147.81 1577.13 158.15 1577.13 176.23L1577.13 337.06C1577.13 438.47 1514.48 490.14 1415.01 490.14C1315.54 490.14 1252.89 438.47 1252.89 337.06Z" />
					</g>
					<g id="g202">
						<path id="path204" class="shp1" d="M1844.54 147.81L1885.88 147.81C1903.96 147.81 1914.3 158.14 1914.3 176.23L1914.3 453.97C1914.3 472.05 1903.96 482.39 1885.88 482.39L1844.54 482.39C1826.45 482.39 1816.12 472.05 1816.12 453.97L1816.12 176.23C1816.12 158.14 1826.45 147.81 1844.54 147.81ZM1865.21 114.22C1832.91 114.22 1807.08 89.68 1807.08 57.39C1807.08 25.09 1832.91 0.54 1865.21 0.54C1897.5 0.54 1923.34 25.09 1923.34 57.39C1923.34 89.68 1897.5 114.22 1865.21 114.22" />
					</g>
					<g id="g206">
						<path id="path208" class="shp1" d="M2082.88 253.74L2082.88 453.97C2082.88 472.05 2072.54 482.39 2054.46 482.39L2013.12 482.39C1995.03 482.39 1984.7 472.05 1984.7 453.97L1984.7 39.3C1984.7 21.21 1995.03 10.88 2013.12 10.88L2054.46 10.88C2072.54 10.88 2082.88 21.21 2082.88 39.3L2082.88 185.27C2106.77 160.73 2146.82 140.06 2192.68 140.06C2262.44 140.06 2309.59 183.98 2309.59 267.95L2309.59 453.97C2309.59 472.05 2299.25 482.39 2281.16 482.39L2239.83 482.39C2221.74 482.39 2211.41 472.05 2211.41 453.97L2211.41 278.28C2211.41 238.88 2193.97 216.92 2158.44 216.92C2128.09 216.92 2099.02 234.36 2082.88 253.74Z" />
					</g>
					<g id="g210">
						<path id="path212" class="shp1" d="M1742.75 357.43C1742.66 377.16 1744.81 390.58 1768.11 399.35C1794.92 409.44 1780.38 437.73 1781.37 457.98C1782.1 472.89 1770.13 482.04 1755.04 482.33C1698.31 483.43 1651.02 468.67 1646.36 392.92L1644.31 39.3C1644.31 21.21 1654.65 10.88 1672.73 10.88L1714.07 10.88C1732.15 10.88 1742.49 21.21 1742.49 39.3L1742.75 357.43Z" />
					</g>
					<path id="path214" class="shp0" d="M1343.35 962.11L1201.18 962.11L1201.18 782.37L1343.35 782.37L1343.35 962.11Z" />
					<path id="path216" class="shp1" d="M1162.06 962.11L1019.89 962.11L1019.89 782.37L1162.06 782.37L1162.06 962.11Z" />
				</g>
			</g>
		</g>
	</g>
</svg>