<svg height='100px' width='100px'  fill="#1A1A1A" xmlns="http://www.w3.org/2000/svg" xmlns:xlink="http://www.w3.org/1999/xlink" version="1.1" x="0px" y="0px" viewBox="0 0 64 64" enable-background="new 0 0 64 64" xml:space="preserve"><g><path d="M58,49.5H42.5V26.498l0.518-0.003c1.862,0,2.482,0.218,2.482,1.505c0,0.276,0.224,0.5,0.5,0.5s0.5-0.224,0.5-0.5   c0-1.288,0.62-1.505,2.482-1.505L50,26.5l1.018-0.005c1.862,0,2.482,0.218,2.482,1.505c0,0.276,0.224,0.5,0.5,0.5   s0.5-0.224,0.5-0.5c0-6.724-5.34-12.209-12-12.475V14c0-0.276-0.224-0.5-0.5-0.5s-0.5,0.224-0.5,0.5v1.525   c-6.66,0.265-12,5.751-12,12.475c0,0.276,0.224,0.5,0.5,0.5s0.5-0.224,0.5-0.5c0-1.288,0.62-1.505,2.483-1.505L34,26.5l1.018-0.005   c1.862,0,2.482,0.218,2.482,1.505c0,0.276,0.224,0.5,0.5,0.5s0.5-0.224,0.5-0.5c0-1.288,0.62-1.505,2.482-1.505l0.518,0.003V49.5   h-5.293l-3.5-3.5l5.646-5.646c0.195-0.195,0.195-0.512,0-0.707s-0.512-0.195-0.707,0l-9.745,9.745l-7.678-3.839   c-0.141-0.07-0.307-0.07-0.447,0L11.882,49.5H6c-0.276,0-0.5,0.224-0.5,0.5s0.224,0.5,0.5,0.5h52c0.276,0,0.5-0.224,0.5-0.5   S58.276,49.5,58,49.5z M38,26.342c-0.706-0.848-2.017-0.848-2.982-0.848L34,25.5l-1.017-0.005c-0.698,0-1.575,0-2.274,0.319   C31.732,20.515,36.406,16.5,42,16.5s10.268,4.015,11.292,9.313c-0.7-0.319-1.577-0.319-2.274-0.319L50,25.5l-1.018-0.005   c-0.966,0-2.276,0-2.982,0.848c-0.706-0.848-2.017-0.848-2.982-0.848L42,25.5l-1.018-0.005C40.017,25.495,38.706,25.495,38,26.342z    M34.793,49.5h-5.586L32,46.707L34.793,49.5z M20,46.559l5.882,2.941H14.118L20,46.559z"></path></g></svg>