<svg height='100px' width='100px'  fill="#1A1A1A" xmlns="http://www.w3.org/2000/svg" xmlns:xlink="http://www.w3.org/1999/xlink" version="1.1" x="0px" y="0px" viewBox="0 0 52 52" style="enable-background:new 0 0 52 52;" xml:space="preserve"><style type="text/css">
	.st0{fill:#1A1A1A;}
	.st1{fill:#1A1A1A;}
	.st2{fill:none;stroke:#1A1A1A;stroke-linecap:round;stroke-linejoin:round;stroke-miterlimit:10;}
</style><g><g><path d="M24.4570313,47.956543C12.3496094,47.956543,2.5,38.1069336,2.5,26S12.3496094,4.043457,24.4570313,4.043457    c12.1064453,0,21.9560547,9.8496094,21.9560547,21.956543S36.5634766,47.956543,24.4570313,47.956543z M24.4570313,5.043457    C12.9013672,5.043457,3.5,14.4443359,3.5,26s9.4013672,20.956543,20.9570313,20.956543S45.4130859,37.5556641,45.4130859,26    S36.0126953,5.043457,24.4570313,5.043457z"></path></g><g><path d="M24.4570313,18.1630859c-1.2021484,0-2.2714844-0.8066406-2.5996094-1.9614258l-0.9570313-3.3476563    c-0.2353516-0.8237305-0.0742188-1.6879883,0.4414063-2.371582c0.515625-0.6831055,1.3027344-1.074707,2.1582031-1.074707    h1.9130859c0.8564453,0,1.6435547,0.3920898,2.1591797,1.0756836s0.6757813,1.5473633,0.4404297,2.3706055l-0.9560547,3.3476563    C26.7265625,17.3564453,25.6572266,18.1630859,24.4570313,18.1630859z M23.5,10.4077148    c-0.5390625,0-1.0351563,0.246582-1.359375,0.6772461c-0.3251953,0.4306641-0.4267578,0.9755859-0.2792969,1.4946289    l0.9570313,3.3476563c0.2080078,0.7275391,0.8808594,1.2358398,1.6386719,1.2358398    c0.7568359,0,1.4306641-0.5083008,1.6386719-1.2358398l0.9560547-3.3476563    c0.1474609-0.519043,0.046875-1.0634766-0.2783203-1.4941406s-0.8203125-0.6777344-1.3603516-0.6777344H23.5z"></path></g><g><path d="M25.4130859,42.5922852H23.5c-0.8554688,0-1.6425781-0.3916016-2.1582031-1.074707    c-0.515625-0.6835938-0.6767578-1.5478516-0.4414063-2.371582l0.9570313-3.3476563    c0.328125-1.1547852,1.3974609-1.9614258,2.5996094-1.9614258c1.2001953,0,2.2695313,0.8066406,2.5996094,1.9614258    l0.9560547,3.3476563c0.2353516,0.8227539,0.0751953,1.6870117-0.4404297,2.3706055S26.2695313,42.5922852,25.4130859,42.5922852z     M24.4570313,34.8369141c-0.7578125,0-1.4306641,0.5083008-1.6386719,1.2358398l-0.9570313,3.3476563    c-0.1474609,0.519043-0.0458984,1.0639648,0.2792969,1.4946289c0.3242188,0.4301758,0.8203125,0.6772461,1.359375,0.6772461    h1.9130859c0.5400391,0,1.0351563-0.2470703,1.3603516-0.6782227c0.3251953-0.4306641,0.4257813-0.9750977,0.2783203-1.4936523    l-0.9560547-3.3476563C25.8876953,35.3452148,25.2138672,34.8369141,24.4570313,34.8369141z"></path></g><g><path d="M38.3525391,29.6621094c-0.2490234,0-0.5009766-0.0351563-0.75-0.105957l-3.3476563-0.9560547    C33.1005859,28.2705078,32.2939453,27.2011719,32.2939453,26c0-1.2006836,0.8066406-2.2700195,1.9609375-2.6000977    l3.3476563-0.9560547c0.8261719-0.2353516,1.6884766-0.0737305,2.3701172,0.440918    c0.6835938,0.515625,1.0761719,1.3027344,1.0761719,2.1591797v1.9125977c0,0.855957-0.3925781,1.6430664-1.0761719,2.1586914    C39.4960938,29.4750977,38.9306641,29.6621094,38.3525391,29.6621094z M38.3505859,23.3388672    c-0.1572266,0-0.3164063,0.0219727-0.4726563,0.0668945l-3.3476563,0.9560547    C33.8017578,24.5698242,33.2939453,25.2431641,33.2939453,26s0.5078125,1.4306641,1.2353516,1.6381836l3.3486328,0.9560547    c0.5166016,0.1474609,1.0615234,0.0463867,1.4931641-0.2773438c0.4306641-0.3251953,0.6777344-0.8208008,0.6777344-1.3603516    v-1.9125977c0-0.5395508-0.2470703-1.0356445-0.6777344-1.3608398    C39.0703125,23.456543,38.7138672,23.3388672,38.3505859,23.3388672z"></path></g><g><path d="M10.5605469,29.6621094c-0.578125,0-1.1435547-0.1870117-1.6210938-0.5473633    c-0.6835938-0.515625-1.0751953-1.3022461-1.0751953-2.1586914v-1.9121094c0-0.8564453,0.3916016-1.6430664,1.0751953-2.1586914    c0.6835938-0.5151367,1.546875-0.675293,2.3720703-0.4414063l3.3476563,0.9560547    C15.8134766,23.7299805,16.6201172,24.7993164,16.6201172,26c0,1.2011719-0.8066406,2.2705078-1.9619141,2.6000977    l-3.3466797,0.9560547C11.0625,29.6269531,10.8105469,29.6621094,10.5605469,29.6621094z M10.5634766,23.3388672    c-0.3642578,0-0.7207031,0.1176758-1.0214844,0.3447266c-0.4306641,0.324707-0.6777344,0.8208008-0.6777344,1.3603516v1.9121094    c0,0.5395508,0.2470703,1.0356445,0.6777344,1.3603516s0.9765625,0.4262695,1.4941406,0.277832l3.3476563-0.9560547    C15.1123047,27.4306641,15.6201172,26.7568359,15.6201172,26s-0.5078125-1.4301758-1.2363281-1.6381836l-3.3476563-0.9560547    C10.8798828,23.3608398,10.7207031,23.3388672,10.5634766,23.3388672z"></path></g><g><path d="M24.4570313,30.2548828c-2.3457031,0-4.2548828-1.9086914-4.2548828-4.2548828s1.9091797-4.2548828,4.2548828-4.2548828    S28.7119141,23.6538086,28.7119141,26S26.8027344,30.2548828,24.4570313,30.2548828z M24.4570313,22.7451172    c-1.7949219,0-3.2548828,1.4599609-3.2548828,3.2548828s1.4599609,3.2548828,3.2548828,3.2548828    S27.7119141,27.7949219,27.7119141,26S26.2519531,22.7451172,24.4570313,22.7451172z"></path></g><g><path d="M49,47.956543H24.4570313c-0.2763672,0-0.5-0.2236328-0.5-0.5s0.2236328-0.5,0.5-0.5H49    c0.2763672,0,0.5,0.2236328,0.5,0.5S49.2763672,47.956543,49,47.956543z"></path></g></g></svg>