<svg height='100px' width='100px'  fill="#1A1A1A" xmlns="http://www.w3.org/2000/svg" data-name="Layer 1" viewBox="0 0 512 512" x="0px" y="0px"><title>N_P_003_16Artboard 1 copy 15</title><path d="M392.68,277.08a37.69,37.69,0,1,0-52.83-.55c-9.69,3.64-17.54,12.34-17.77,12.61L309,301.27l-13.27-14.11a14.58,14.58,0,0,0-14.68-4,19,19,0,0,0-3-9.66l-73.91-99.21a52.55,52.55,0,0,0,14.06-29.49,3.27,3.27,0,0,0,.33-1,3.36,3.36,0,0,0-.08-1.27c.12-1.48.2-3,.2-4.46a52.7,52.7,0,0,0-29.28-47.17,24.31,24.31,0,1,0-46.61-.08A52.6,52.6,0,0,0,127.48,174c-2.54,3.74-8.45,12.73-14.83,24.29a3.35,3.35,0,0,0-.31.83A27.14,27.14,0,0,0,97.6,230.78c-3.84,10.69-5.95,20.23-6.24,28.34-.34,9.66,2.89,17.66,9.61,23.77a37.34,37.34,0,0,0,7.6,5.28L92.64,355a3.34,3.34,0,0,0,3.25,4.11h39.63v74.59a18.62,18.62,0,0,0,33.92,10.62,18.62,18.62,0,0,0,33.92-10.62V359.13h39.69a3.34,3.34,0,0,0,3.18-4.38l-23-70.37-13.35-44.2,36.94,53.66a18.6,18.6,0,0,0,24.15,6.52,14.51,14.51,0,0,0,3.57,6.77l23.17,24.61a14.56,14.56,0,0,0,20.49.71l10.69-9.89V434.75a17.59,17.59,0,0,0,34.77,3.82,17.6,17.6,0,0,0,34.78-3.82V373.8a14.35,14.35,0,0,0,22.26-12V314.67C420.66,292.61,401.81,281.28,392.68,277.08Zm-26.13-58.15a31,31,0,1,1-31,31A31.05,31.05,0,0,1,366.55,218.93ZM120.38,144.2c10.33-.11,39.63-2.39,57.52-23.58,4.09,7.77,13.88,21.44,33.31,25.43a46,46,0,0,1-90.83-1.85Zm28-60.24a17.62,17.62,0,1,1,35.24,0,17.34,17.34,0,0,1-.55,4.32,52.52,52.52,0,0,0-34.16,0A17.46,17.46,0,0,1,148.41,84Zm17.53,8.12a46,46,0,0,1,46,46c0,.43,0,.86,0,1.29-22.64-5-29.77-25.38-30.07-26.29a3.35,3.35,0,0,0-2.72-2.25,3.3,3.3,0,0,0-3.22,1.43c-15.51,22.88-46.34,25.13-55.9,25.25A46,46,0,0,1,165.94,92.08ZM123.83,203.23a20.48,20.48,0,1,1-20.48,20.48A20.5,20.5,0,0,1,123.83,203.23Zm41.91,78.62a14.14,14.14,0,0,0-14.55-13.22h-.32a93.51,93.51,0,0,1-13.34-.86c-2.85-7.1-4-13.3-3.53-18.89a27.35,27.35,0,0,0,11.91-9.4c9.27,2.26,21.15,12.38,30.28,26,1.62,2.42,2.28,3.6,3.12,5.1.49.87,1,1.81,1.8,3.1,4.54,7.56,6,19.92,6,19.92.15,4.14-.59,9.69-5,12.65-6.64,4.45-17.31.1-27.47-10.83l.61-.07C161.87,294.49,166.26,288.81,165.74,281.85ZM98,259.35a79.51,79.51,0,0,1,3.7-19.86,27,27,0,0,0,25.48,11.16,47,47,0,0,0,2.76,16c-5.79-1-10-2.06-10.07-2.08a3.34,3.34,0,1,0-1.59,6.49c.75.19,18.57,4.53,32.67,4.29a7.4,7.4,0,0,1,8.09,7c.2,2.64-.9,5.89-4.64,6.38-6.85.9-35.28,1.69-49-10.77C100.2,273.15,97.77,267.07,98,259.35Zm56.11,186.32a12,12,0,0,1-12-11.95V359.13h23.9v74.59A12,12,0,0,1,154.15,445.67Zm42.53-11.95a11.95,11.95,0,0,1-23.9,0V359.13h23.9Zm65.79-138a12,12,0,0,1-10.13-5.59l-37.88-55c-1.94-3.79-4.85-8.41-7.87-9.34a4.41,4.41,0,0,0-3.42.33c-3.58,2-3.14,6.41-1.63,9.71l15.27,50.56,21.63,66.07H100.12l14.66-61.51c10.35,3.87,22.16,4.93,30.83,4.93h.64c9.86,12.16,20.74,18.8,30,18.8a17,17,0,0,0,9.64-2.88c5.43-3.64,8.25-10.19,7.92-18.7-.06-.57-1.66-14-7-22.85-.72-1.22-1.23-2.11-1.69-2.93-.88-1.57-1.63-2.91-3.4-5.55-9.61-14.33-21.94-24.92-32.58-28.28a27.13,27.13,0,0,0-25.33-36.93,25.06,25.06,0,0,0-2.61.13c4.68-8.14,8.89-14.62,11.18-18.05a52.55,52.55,0,0,0,66.76.25l73.35,98.44a12,12,0,0,1,.94,11.12,14.2,14.2,0,0,0-1.61,2.72,11.93,11.93,0,0,1-9.37,4.57ZM414,361.82a7.68,7.68,0,1,1-15.35,0V322.31a3.34,3.34,0,0,0-3.31-3.34h0a3.34,3.34,0,0,0-3.34,3.27L391.72,334V434.75a10.92,10.92,0,1,1-21.83,0V370.67a3.34,3.34,0,0,0-1.4-2.72c-4.57-3.25-8.71-1.42-10.37.6a3.36,3.36,0,0,0-.76,2.12v64.08a10.92,10.92,0,1,1-21.83,0V314.92a3.34,3.34,0,0,0-5.61-2.45l-16.29,15.07a8.08,8.08,0,0,1-11.09-.38l-23.17-24.61a7.87,7.87,0,0,1-1.68-8.06,18.61,18.61,0,0,0,1.5-2.54,6.51,6.51,0,0,1,.51-.54,7.89,7.89,0,0,1,11.14.33l15.55,16.52a3.33,3.33,0,0,0,4.7.16l15.76-14.6c2.79-3.13,11.51-11.13,19.47-12.09a37.52,37.52,0,0,0,40.35.07c4.74,1.83,27.31,11.63,27.31,32.87Z"></path></svg>