<?xml version="1.0" encoding="UTF-8" standalone="no"?>
<svg
   xmlns:dc="http://purl.org/dc/elements/1.1/"
   xmlns:cc="http://creativecommons.org/ns#"
   xmlns:rdf="http://www.w3.org/1999/02/22-rdf-syntax-ns#"
   xmlns:svg="http://www.w3.org/2000/svg"
   xmlns="http://www.w3.org/2000/svg"
   xmlns:sodipodi="http://sodipodi.sourceforge.net/DTD/sodipodi-0.dtd"
   xmlns:inkscape="http://www.inkscape.org/namespaces/inkscape"
   width="207.41751mm"
   height="84.745956mm"
   viewBox="0 0 207.41751 84.745956"
   version="1.1"
   id="svg141"
   inkscape:version="1.0.2-2 (e86c870879, 2021-01-15)">
  <defs
     id="defs135">
    <clipPath
       clipPathUnits="userSpaceOnUse"
       id="clipPath159">
      <path
         d="M 0,1080 H 1920 V 0 H 0 Z"
         id="path157" />
    </clipPath>
  </defs>
  <sodipodi:namedview
     id="base"
     pagecolor="#ffffff"
     bordercolor="#666666"
     borderopacity="1.0"
     inkscape:pageopacity="0.0"
     inkscape:pageshadow="2"
     inkscape:zoom="0.35"
     inkscape:cx="394.04624"
     inkscape:cy="277.8313"
     inkscape:document-units="mm"
     inkscape:current-layer="layer1"
     inkscape:document-rotation="0"
     showgrid="false"
     fit-margin-top="0"
     fit-margin-left="0"
     fit-margin-right="0"
     fit-margin-bottom="0"
     inkscape:window-width="1920"
     inkscape:window-height="986"
     inkscape:window-x="-11"
     inkscape:window-y="-11"
     inkscape:window-maximized="1" />
  <metadata
     id="metadata138">
    <rdf:RDF>
      <cc:Work
         rdf:about="">
        <dc:format>image/svg+xml</dc:format>
        <dc:type
           rdf:resource="http://purl.org/dc/dcmitype/StillImage" />
        <dc:title></dc:title>
      </cc:Work>
    </rdf:RDF>
  </metadata>
  <g
     inkscape:label="Layer 1"
     inkscape:groupmode="layer"
     id="layer1"
     transform="translate(-1.5752647,-74.657135)">
    <g
       id="g155"
       clip-path="url(#clipPath159)"
       transform="matrix(0.28151751,0,0,-0.28151751,-164.44612,269.34969)">
      <g
         id="g161"
         transform="translate(848.7794,660.7997)">
        <path
           d="M 0,0 C 0,1.335 -0.406,2.356 -1.22,3.066 -2.033,3.774 -3.191,4.13 -4.693,4.13 h -7.07 V -3.879 H -4.63 C -1.544,-3.879 0,-2.586 0,0 m -11.763,12.826 h 6.195 c 3.086,0 4.629,1.272 4.629,3.817 0,2.628 -1.543,3.942 -4.629,3.942 h -6.195 z M 10.292,5.037 c 1.522,-1.981 2.283,-4.245 2.283,-6.789 0,-3.754 -1.293,-6.695 -3.879,-8.822 -2.586,-2.127 -6.215,-3.191 -10.886,-3.191 h -21.836 v 44.11 h 21.148 c 4.505,0 8.04,-1.001 10.605,-3.003 2.565,-2.003 3.848,-4.818 3.848,-8.447 0,-2.587 -0.679,-4.746 -2.034,-6.475 C 8.185,10.688 6.382,9.51 4.13,8.885 6.715,8.3 8.77,7.017 10.292,5.037"
           style="fill:#004fbf;fill-opacity:1;fill-rule:nonzero;stroke:none"
           id="path163" />
      </g>
      <g
         id="g165"
         transform="translate(882.8162,691.1445)">
        <path
           d="m 0,0 v -25.59 c 0,-2.377 0.552,-4.213 1.657,-5.505 1.105,-1.294 2.784,-1.94 5.037,-1.94 2.253,0 3.952,0.657 5.099,1.97 1.147,1.315 1.721,3.139 1.721,5.475 V 0 h 12.263 v -25.59 c 0,-4.046 -0.855,-7.498 -2.566,-10.355 -1.71,-2.857 -4.035,-5.005 -6.975,-6.444 -2.941,-1.438 -6.205,-2.158 -9.792,-2.158 -3.588,0 -6.788,0.72 -9.605,2.158 -2.815,1.439 -5.027,3.576 -6.631,6.413 -1.607,2.836 -2.409,6.298 -2.409,10.386 V 0 Z"
           style="fill:#004fbf;fill-opacity:1;fill-rule:nonzero;stroke:none"
           id="path167" />
      </g>
      <g
         id="g169"
         transform="translate(944.3812,660.7997)">
        <path
           d="m 0,0 c 2.043,1.96 3.066,4.733 3.066,8.322 0,3.628 -1.023,6.433 -3.066,8.415 -2.045,1.98 -4.86,2.972 -8.447,2.972 h -4.255 V -2.94 h 4.255 C -4.86,-2.94 -2.045,-1.961 0,0 m 4.661,27.561 c 3.482,-1.857 6.163,-4.454 8.04,-7.79 1.876,-3.338 2.815,-7.154 2.815,-11.449 0,-4.255 -0.949,-8.051 -2.847,-11.388 C 10.771,-6.404 8.08,-9.02 4.598,-10.918 1.115,-12.817 -2.92,-13.765 -7.508,-13.765 h -17.457 v 44.11 h 17.457 c 4.63,0 8.686,-0.929 12.169,-2.784"
           style="fill:#004fbf;fill-opacity:1;fill-rule:nonzero;stroke:none"
           id="path171" />
      </g>
      <g
         id="g173"
         transform="translate(997.6247,676.6294)">
        <path
           d="m 0,0 c -0.71,1.167 -1.68,2.065 -2.91,2.69 -1.231,0.626 -2.68,0.939 -4.349,0.939 -3.087,0 -5.516,-1.001 -7.288,-3.004 -1.774,-2.002 -2.659,-4.692 -2.659,-8.071 0,-3.796 0.947,-6.684 2.847,-8.666 1.897,-1.981 4.661,-2.971 8.29,-2.971 4.295,0 7.361,1.94 9.197,5.818 H -9.198 v 8.823 h 22.9 v -11.889 c -0.961,-2.335 -2.368,-4.526 -4.224,-6.569 -1.856,-2.043 -4.202,-3.722 -7.039,-5.037 -2.836,-1.313 -6.068,-1.97 -9.698,-1.97 -4.421,0 -8.332,0.948 -11.73,2.847 -3.401,1.896 -6.029,4.546 -7.884,7.946 -1.856,3.398 -2.785,7.289 -2.785,11.668 0,4.339 0.929,8.206 2.785,11.606 1.855,3.4 4.474,6.048 7.852,7.946 3.379,1.898 7.278,2.847 11.7,2.847 5.547,0 10.136,-1.335 13.765,-4.003 C 10.073,8.279 12.325,4.63 13.202,0 Z"
           style="fill:#004fbf;fill-opacity:1;fill-rule:nonzero;stroke:none"
           id="path175" />
      </g>
      <g
         id="g177"
         transform="translate(1033.1609,681.3223)">
        <path
           d="m 0,0 v -7.196 h 14.078 v -9.322 H 0 v -7.946 h 15.955 v -9.823 H -12.263 V 9.822 H 15.955 V 0 Z"
           style="fill:#004fbf;fill-opacity:1;fill-rule:nonzero;stroke:none"
           id="path179" />
      </g>
      <g
         id="g181"
         transform="translate(1092.4738,691.1445)">
        <path
           d="M 0,0 V -9.76 H -11.763 V -44.109 H -24.026 V -9.76 H -35.663 V 0 Z"
           style="fill:#004fbf;fill-opacity:1;fill-rule:nonzero;stroke:none"
           id="path183" />
      </g>
      <g
         id="g185"
         transform="translate(1310.666,507.5889)">
        <path
           d="m 0,0 c -9.536,10.772 -22.805,18.087 -37.36,20.596 -0.605,0.103 -0.81,0.549 -0.879,0.804 -0.056,0.21 -0.133,0.746 0.368,1.162 L 7.331,60.233 c 1.402,1.167 2.206,2.883 2.206,4.707 v 29.744 c 0,3.379 -2.749,6.128 -6.128,6.128 h -137.765 c -3.379,0 -6.127,-2.749 -6.127,-6.128 V 64.341 c 0,-3.379 2.748,-6.127 6.127,-6.127 h 76.311 c 0.683,0 0.955,-0.461 1.057,-0.735 0.101,-0.275 0.195,-0.803 -0.323,-1.248 l -43.9,-37.703 c -2.296,-1.97 -2.803,-5.382 -1.18,-7.934 l 16.066,-25.284 c 1.481,-2.331 4.363,-3.383 7.004,-2.557 3.217,1.006 7.86,2.16 15.269,2.16 19.116,0 30.991,-10.664 30.991,-27.831 0,-16.759 -13.263,-28.463 -32.254,-28.463 -18.535,0 -32.064,11.784 -34.467,30.023 -0.218,1.654 -1.123,3.163 -2.483,4.139 -1.369,0.986 -3.105,1.362 -4.756,1.038 l -34.831,-6.808 c -3.152,-0.616 -5.31,-3.587 -4.914,-6.763 2.174,-17.466 10.907,-33.453 24.59,-45.018 14.868,-12.566 34.53,-19.209 56.861,-19.209 24.029,0 44.653,7.389 59.642,21.367 C 8.21,-79.665 15.855,-62.241 15.855,-43.55 15.855,-26.777 10.373,-11.718 0,0"
           style="fill:#004fbf;fill-opacity:1;fill-rule:nonzero;stroke:none"
           id="path187" />
      </g>
      <g
         id="g189"
         transform="translate(1136.5371,440.9473)">
        <path
           d="m 0,0 h -79.749 c -1.647,0 -2.998,0.914 -3.613,2.444 -0.614,1.524 -0.274,3.111 0.908,4.245 2.498,2.399 5.645,4.802 9.573,7.317 l 39.5,24.015 c 26.825,16.43 41.004,39.127 41.004,65.638 0,39.711 -32.144,68.533 -76.432,68.533 -23.152,0 -42.894,-7.433 -57.089,-21.498 -13.084,-12.962 -20.29,-30.564 -20.29,-49.563 0,-3.314 0.376,-6.829 0.694,-9.194 0.577,-4.318 4.166,-7.547 8.534,-7.681 l 28.262,-0.864 c 2.548,-0.079 5.012,0.95 6.751,2.817 1.759,1.892 2.616,4.46 2.35,7.044 -0.133,1.307 -0.202,2.576 -0.202,3.771 0,19.801 11.231,31.622 30.042,31.622 14.168,0 28.463,-7.921 28.463,-25.619 0,-13.58 -6.913,-23.522 -23.111,-33.241 L -98.22,49.561 c -31.793,-19.186 -47.474,-45.495 -49.35,-82.794 -0.122,-2.434 0.769,-4.84 2.446,-6.604 1.693,-1.78 3.978,-2.761 6.435,-2.761 H 0 c 4.9,0 8.887,3.988 8.887,8.888 V -8.887 C 8.887,-3.986 4.9,0 0,0"
           style="fill:#b900ff;fill-opacity:1;fill-rule:nonzero;stroke:none"
           id="path191" />
      </g>
      <g
         id="g193"
         transform="translate(737.3184,440.9473)">
        <path
           d="m 0,0 h -79.749 c -1.647,0 -2.998,0.914 -3.613,2.444 -0.613,1.524 -0.274,3.111 0.908,4.245 2.497,2.398 5.644,4.801 9.573,7.317 l 39.501,24.015 c 26.825,16.431 41.004,39.127 41.004,65.638 0,39.711 -32.145,68.533 -76.433,68.533 -23.152,0 -42.894,-7.433 -57.089,-21.498 -13.085,-12.962 -20.29,-30.564 -20.29,-49.563 0,-3.308 0.377,-6.826 0.693,-9.194 0.578,-4.318 4.167,-7.547 8.534,-7.681 l 28.263,-0.864 c 2.545,-0.079 5.012,0.95 6.751,2.818 1.759,1.892 2.616,4.459 2.35,7.044 -0.134,1.305 -0.202,2.573 -0.202,3.77 0,19.801 11.231,31.622 30.043,31.622 14.167,0 28.463,-7.921 28.463,-25.619 0,-13.58 -6.913,-23.521 -23.112,-33.241 L -98.219,49.561 c -31.794,-19.186 -47.476,-45.495 -49.351,-82.793 -0.122,-2.434 0.769,-4.841 2.446,-6.604 1.693,-1.781 3.978,-2.762 6.434,-2.762 H 0 c 4.9,0 8.887,3.988 8.887,8.888 V -8.887 C 8.887,-3.986 4.9,0 0,0"
           style="fill:#ff4900;fill-opacity:1;fill-rule:nonzero;stroke:none"
           id="path195" />
      </g>
      <g
         id="g197"
         transform="translate(936.0208,442.204)">
        <path
           d="m 0,0 c -2.178,1.291 -4.852,-3.475 -4.852,-3.475 -3.797,-6.828 -12.461,-16.045 -12.461,-16.045 0,0 -2.939,-3.691 -5.266,-1.948 -2.289,1.713 1.668,5.291 1.668,5.291 7.219,6.966 14.376,18.705 14.376,18.705 0,0 4.929,8.356 5.96,11.983 0,0 3.32,7.765 -1.461,11.259 -3.815,3.084 -5.476,-2.684 -5.476,-2.684 -0.577,-1.625 -1.481,-3.589 -1.481,-3.589 -5.64,-13.105 -21.034,-29.752 -21.034,-29.752 0,0 -2.385,-2.731 -4.17,-1.043 -1.693,1.841 1.321,3.927 1.321,3.927 8.365,6.623 15.959,20.775 15.959,20.775 4.072,6.901 5.645,11.318 6.488,15.022 0,0 1.74,6.325 -2.257,8.296 -4.893,2.583 -6.285,-3.812 -6.285,-3.812 -3.524,-15.601 -21.462,-33.166 -21.462,-33.166 0,0 -1.979,-2.256 -3.871,-0.587 -1.716,2.022 0.333,3.987 0.333,3.987 15.05,15.662 20.044,27.249 21.7,33.213 0,0 1.84,5.05 -2.6,6.652 -0.537,0.185 -1.025,0.282 -1.472,0.316 -2.972,0.226 -4.007,-2.477 -4.007,-2.477 0,0 -0.647,-1.498 -1.291,-3.61 C -37.258,19.88 -65.294,-3.037 -65.294,-3.037 l -3.564,-3.077 c 0,0 -2.658,-2.49 -3.897,-1.024 -1.085,1.446 0.412,2.556 0.412,2.556 26.834,21.517 18.87,27.414 18.87,27.414 0,0 -2.642,3.171 -11.586,-2.442 -8.858,-5.894 -16.526,-14.978 -16.526,-14.978 -8.39,-9.195 -17.899,-11.135 -26.006,-10.37 -10.168,1.242 -20.917,10.226 -24.805,13.494 l -2.382,2.152 c -0.001,10e-4 -0.006,0.006 -0.006,0.006 l -0.001,-0.001 c -3.608,3.324 -6.559,1.509 -6.559,1.509 -6.236,-3.203 6.791,-23.542 6.791,-23.542 28.243,-49.956 78.055,-39.378 78.055,-39.378 30.452,5.278 45.695,23.274 52.603,35.108 3.66,6.269 4.984,10.812 4.984,10.812 0,0 1.391,3.572 -1.089,4.798"
           style="fill:#ff0061;fill-opacity:1;fill-rule:nonzero;stroke:none"
           id="path199" />
      </g>
      <g
         id="g201"
         transform="translate(833.6546,410.7906)">
        <path
           d="m 0,0 c -0.363,-2.736 -4.183,-2.567 -4.183,-2.567 0,0 -39.276,-1.744 -61.839,39.671 0,0 -25.964,43.66 12.167,86.356 0,0 15.035,18.827 20.06,13.963 0,0 2.66,-2.205 0.678,-6.679 h 10e-4 c 0,0 -0.003,-0.007 -0.004,-0.008 l -1.268,-2.94 c -1.841,-4.72 -6.881,-17.754 -4.793,-27.757 1.876,-7.903 6.758,-16.264 18.134,-21.24 0,0 11.039,-4.331 19.446,-10.807 8.17,-6.649 6.022,-10.161 6.022,-10.161 0,0 -3.017,-9.414 -31.945,9.034 0,0 -1.529,1.058 -2.546,-0.431 -0.988,-1.64 2.217,-3.353 2.217,-3.353 l 4.048,-2.379 c 0,0 30.637,-19.135 48.834,-18.875 2.201,0.07 3.824,-0.061 3.824,-0.061 0,0 3.821,-0.143 3.798,-4.483 -0.09,-4.707 -5.45,-4.589 -5.45,-4.589 -6.165,-0.347 -18.71,0.654 -38.33,9.848 0,0 -2.513,1.306 -3.873,-0.963 -0.97,-2.323 1.796,-3.469 1.796,-3.469 0,0 22.343,-11.311 38.209,-9.638 0,0 6.487,0.735 5.616,-4.714 -0.58,-4.408 -7.112,-4.793 -7.112,-4.793 -3.77,-0.391 -8.446,-0.321 -16.27,1.313 0,0 -15.802,2.635 -24.741,8.413 0,0 -2.936,2.178 -4.133,-0.012 -1.021,-2.227 2.322,-3.605 2.322,-3.605 0,0 20.661,-9.203 34.848,-10.327 0,0 2.146,-0.225 3.865,-0.249 0,0 5.981,0.28 4.291,-4.312 C 21.921,4.549 13.522,5.196 13.522,5.196 9.766,5.007 0.292,6.984 0.292,6.984 c 0,0 -13.383,2.996 -22.278,7.581 0,0 -4.648,2.59 -5.532,-0.121 -0.9,-2.757 3.528,-4.349 3.528,-4.349 0,0 11.485,-5.229 19.152,-6.626 0,0 5.359,-0.997 4.838,-3.469"
           style="fill:#ff4900;fill-opacity:1;fill-rule:nonzero;stroke:none"
           id="path203" />
      </g>
      <g
         id="g205"
         transform="translate(773.1824,499.2173)">
        <path
           d="m 0,0 c -2.696,-0.619 -3.879,3.027 -3.879,3.027 0,0 -15.426,36.265 15.54,71.991 0,0 31.88,39.706 85.356,18.891 0,0 22.956,-7.508 20.153,-13.933 0,0 -1.137,-3.272 -6.034,-2.982 v -0.001 c 0,0 -0.007,0.001 -0.008,0.001 l -3.206,0.159 C 102.844,77.224 88.836,77.38 80.177,71.909 73.415,67.373 67.278,59.854 66.6,47.426 c 0,0 -0.192,-11.886 -3.321,-22.054 -3.375,-10.005 -7.427,-9.221 -7.427,-9.221 0,0 -9.898,-0.473 -2.731,33.166 0,0 0.456,1.807 -1.299,2.24 -1.887,0.352 -2.37,-3.259 -2.37,-3.259 l -0.813,-4.637 c 0,0 -7.211,-35.483 -0.578,-52.478 0.837,-2.042 1.284,-3.612 1.284,-3.612 0,0 1.208,-3.639 -2.876,-5.14 -4.451,-1.568 -6.222,3.506 -6.222,3.506 -2.49,5.666 -5.954,17.797 -4.209,39.448 0,0 0.344,2.817 -2.264,3.297 -2.521,0.096 -2.627,-2.903 -2.627,-2.903 0,0 -2.777,-24.95 4.365,-39.26 0,0 2.967,-5.833 -2.456,-6.929 -4.342,-1.002 -6.996,4.996 -6.996,4.996 -1.691,3.402 -3.267,7.818 -4.48,15.738 0,0 -3.073,15.762 -0.785,26.183 0,0 1.014,3.522 -1.462,3.877 -2.451,0.177 -2.57,-3.446 -2.57,-3.446 0,0 -1.388,-22.63 2.536,-36.346 0,0 0.542,-2.093 1.124,-3.716 0,0 2.363,-5.518 -2.543,-5.543 -5.913,-0.319 -8.254,7.794 -8.254,7.794 C 8.13,-7.412 6.66,2.177 6.66,2.177 c 0,0 -1.885,13.618 -0.703,23.58 0,0 0.801,5.273 -2.055,5.152 -2.905,-0.123 -2.845,-4.84 -2.845,-4.84 0,0 -0.878,-12.619 0.502,-20.309 C 1.559,5.76 2.503,0.379 0,0"
           style="fill:#ffc800;fill-opacity:1;fill-rule:nonzero;stroke:none"
           id="path207" />
      </g>
      <g
         id="g209"
         transform="translate(831.7834,585.5585)">
        <path
           d="m 0,0 c -1.627,2.164 1.162,4.672 1.162,4.672 0,0 26.279,28.223 70.539,14.76 0,0 48.181,-12.694 50.858,-68.781 0,0 2.425,-23.509 -4.434,-23.56 0,0 -3.378,-0.286 -5.067,4.206 h -0.001 c 0,0 -0.002,0.007 -0.003,0.008 l -1.133,2.929 c -1.958,4.568 -7.393,17.151 -15.731,22.714 -6.746,4.239 -15.909,6.733 -27.289,2.393 0,0 -10.701,-4.56 -21.036,-5.809 -10.287,-0.965 -11.198,2.969 -11.198,2.969 0,0 -4.362,8.66 28.56,15.642 0,0 1.797,0.311 1.485,2.052 -0.436,1.827 -3.856,0.822 -3.856,0.822 l -4.468,-1.119 c 0,0 -34.589,-7.676 -47.142,-20.369 -1.492,-1.562 -2.717,-2.586 -2.717,-2.586 0,0 -2.772,-2.527 -5.74,0.525 -3.173,3.355 0.658,6.957 0.658,6.957 4.074,4.482 13.54,12.406 33.588,19.463 0,0 2.655,0.814 2.047,3.336 -0.918,2.293 -3.641,1.193 -3.641,1.193 0,0 -23.409,-7.448 -33.359,-19.527 0,0 -4.032,-4.974 -7.17,-0.562 -2.624,3.482 1.681,8.242 1.681,8.242 2.368,2.865 5.688,6.032 12.285,10.268 0,0 12.868,9.02 23.094,11.123 0,0 3.551,0.495 2.883,2.85 -0.817,2.261 -4.103,0.926 -4.103,0.926 0,0 -20.782,-7.766 -31.481,-16.733 0,0 -1.655,-1.318 -2.874,-2.483 0,0 -3.993,-4.309 -5.968,0.066 -2.638,5.159 3.683,10.481 3.683,10.481 2.498,2.715 10.485,7.845 10.485,7.845 0,0 11.423,7.105 20.799,10.013 0,0 5.032,1.383 3.787,3.888 -1.266,2.547 -5.459,0.617 -5.459,0.617 0,0 -11.629,-4.238 -17.954,-8.532 C 5.77,0.899 1.335,-2.087 0,0"
           style="fill:#004fbf;fill-opacity:1;fill-rule:nonzero;stroke:none"
           id="path211" />
      </g>
      <g
         id="g213"
         transform="translate(974.4346,490.4715)">
        <path
           d="m 0,0 c 0.741,46.232 -33.615,63.704 -33.615,63.704 0,0 -3.177,1.989 -4.808,-0.17 -1.638,-1.858 2.453,-5.296 2.453,-5.296 5.868,-4.894 13.143,-14.899 13.143,-14.899 0,0 3.01,-3.497 0.912,-5.415 -2.064,-1.886 -4.779,2.568 -4.779,2.568 -5.377,8.206 -15.35,17.224 -15.35,17.224 0,0 -7.129,6.26 -10.426,7.912 0,0 -6.854,4.606 -11.084,0.651 -3.659,-3.103 1.58,-5.752 1.58,-5.752 1.456,-0.85 3.178,-2.078 3.178,-2.078 11.563,-7.808 24.749,-25.635 24.749,-25.635 0,0 2.188,-2.79 0.241,-4.197 -2.078,-1.291 -3.533,1.985 -3.533,1.985 -4.837,9.245 -17.048,19.123 -17.048,19.123 -5.888,5.171 -9.844,7.488 -13.25,8.974 0,0 -5.759,2.825 -8.382,-0.655 -3.374,-4.23 2.516,-6.735 2.516,-6.735 14.346,-6.231 27.951,-26.669 27.951,-26.669 0,0 1.806,-2.314 -0.143,-3.827 -2.256,-1.28 -3.769,1.047 -3.769,1.047 -12.303,17.318 -22.525,24.229 -27.953,26.908 0,0 -4.516,2.689 -6.865,-1.284 -2.115,-3.692 1.076,-5.659 1.076,-5.659 0,0 1.322,-0.895 3.233,-1.899 15.654,-8.563 32.557,-39.68 32.557,-39.68 l 2.306,-3.985 c 0,0 1.908,-3.008 0.274,-3.931 -1.588,-0.779 -2.381,0.861 -2.381,0.861 -15.778,29.708 -22.897,23.131 -22.897,23.131 0,0 -3.528,-1.959 0.233,-11.577 1.45,-3.435 3.32,-6.788 5.124,-9.687 0.447,-0.034 0.935,-0.131 1.473,-0.317 4.439,-1.602 2.599,-6.651 2.599,-6.651 -1.656,-5.965 -6.65,-17.551 -21.7,-33.214 0,0 -2.049,-1.964 -0.333,-3.986 1.892,-1.67 3.871,0.586 3.871,0.586 0,0 17.938,17.565 21.462,33.167 0,0 1.392,6.394 6.285,3.811 3.997,-1.97 2.258,-8.295 2.258,-8.295 -0.844,-3.705 -2.417,-8.121 -6.489,-15.022 0,0 -7.594,-14.152 -15.959,-20.775 0,0 -3.014,-2.086 -1.321,-3.928 1.786,-1.687 4.171,1.043 4.171,1.043 0,0 15.393,16.647 21.033,29.753 0,0 0.904,1.964 1.481,3.588 0,0 1.662,5.769 5.477,2.685 4.78,-3.495 1.46,-11.26 1.46,-11.26 -1.031,-3.626 -5.96,-11.983 -5.96,-11.983 0,0 -7.157,-11.738 -14.376,-18.705 0,0 -3.957,-3.577 -1.668,-5.291 2.327,-1.742 5.266,1.948 5.266,1.948 0,0 8.664,9.218 12.461,16.046 0,0 2.674,4.765 4.852,3.474 2.48,-1.226 1.089,-4.798 1.089,-4.798 0,0 -1.324,-4.542 -4.984,-10.812 C 0.935,-43.472 0,0 0,0"
           style="fill:#b900ff;fill-opacity:1;fill-rule:nonzero;stroke:none"
           id="path215" />
      </g>
    </g>
  </g>
</svg>
