<svg width="186" height="65" viewBox="0 0 186 65" fill="none" xmlns="http://www.w3.org/2000/svg">
<path d="M170.449 13.7358H18.5724C12.0627 13.7358 6.78564 19.0129 6.78564 25.5225V45.3534C6.78564 51.8631 12.0627 57.1401 18.5724 57.1401H170.449C176.959 57.1401 182.236 51.8631 182.236 45.3534V25.5225C182.236 19.0129 176.959 13.7358 170.449 13.7358Z" fill="url(#paint0_linear_1_645)"/>
<path d="M30.9863 44.0142L30.9441 36.305L27.2042 42.5821H25.3765L21.6577 36.5133V44.0142H17.8545V29.4688H21.241L26.3523 37.8637L31.3397 29.4688H34.7262L34.7684 44.0142H30.9863Z" fill="white"/>
<path d="M48.9204 32.7495V44.014H45.1594V42.8087C44.7427 43.265 44.2443 43.6131 43.664 43.8478C43.0838 44.0826 42.4666 44.2013 41.8152 44.2013C40.3593 44.2013 39.1988 43.7714 38.3338 42.9142C37.4687 42.0544 37.0361 40.7673 37.0361 39.0477V32.7521H40.9844V38.4042C40.9844 39.2482 41.1426 39.8653 41.4618 40.253C41.7809 40.6407 42.2451 40.8359 42.8543 40.8359C43.4636 40.8359 43.9858 40.617 44.3814 40.1818C44.777 39.7466 44.9748 39.0767 44.9748 38.1774V32.7548H48.9231L48.9204 32.7495Z" fill="white"/>
<path d="M51.0366 28.5928H54.9849V44.0112H51.0366V28.5928Z" fill="white"/>
<path d="M66.2105 33.8417C67.1942 34.6935 67.6848 35.9991 67.6848 37.7583V44.0143H64.0056V42.5584C63.4385 43.6529 62.3282 44.1989 60.6798 44.1989C59.8068 44.1989 59.0525 44.0459 58.4142 43.7426C57.7759 43.4367 57.2959 43.0252 56.9689 42.5056C56.6445 41.9861 56.481 41.3926 56.481 40.728C56.481 39.6625 56.8898 38.8343 57.7074 38.2435C58.525 37.6554 59.7857 37.36 61.4895 37.36H63.7339C63.6653 36.1679 62.8688 35.5718 61.3444 35.5718C60.8037 35.5718 60.2578 35.6589 59.7039 35.8329C59.15 36.007 58.6779 36.2444 58.2902 36.5503L56.961 33.8707C57.5834 33.454 58.343 33.1322 59.2371 32.9054C60.1312 32.6759 61.0279 32.5625 61.9273 32.5625C63.7972 32.5625 65.2241 32.9898 66.2078 33.8417H66.2105ZM62.9902 41.3742C63.3357 41.1526 63.5862 40.8282 63.7392 40.3983V39.4225H62.0354C60.8855 39.4225 60.3105 39.8049 60.3105 40.5645C60.3105 40.91 60.4424 41.1869 60.7061 41.3953C60.9699 41.6036 61.3286 41.7065 61.7875 41.7065C62.2464 41.7065 62.6473 41.5957 62.9928 41.3742H62.9902Z" fill="white"/>
<path d="M75.5811 29.4663H82.4595C84.0525 29.4663 85.4662 29.7643 86.6979 30.3604C87.9295 30.9565 88.8869 31.8004 89.5647 32.895C90.2426 33.9895 90.5828 35.2713 90.5828 36.7404C90.5828 38.2094 90.2426 39.4912 89.5647 40.5857C88.8869 41.6803 87.9295 42.5269 86.6979 43.1203C85.4635 43.7164 84.0525 44.0144 82.4595 44.0144H75.5811V29.4689V29.4663ZM82.2933 40.7282C83.5408 40.7282 84.5404 40.3747 85.2974 39.6679C86.0517 38.9611 86.4288 37.9852 86.4288 36.7377C86.4288 35.4902 86.0517 34.5144 85.2974 33.8075C84.5431 33.1007 83.5408 32.7473 82.2933 32.7473H79.6955V40.7282H82.2933Z" fill="white"/>
<path d="M92.3717 30.901C91.9286 30.5001 91.707 30.0016 91.707 29.4056C91.707 28.8095 91.9286 28.311 92.3717 27.9101C92.8148 27.5092 93.3976 27.3062 94.1177 27.3062C94.8377 27.3062 95.4205 27.496 95.8636 27.8785C96.3067 28.2609 96.5283 28.7488 96.5283 29.3423C96.5283 29.9357 96.3067 30.4816 95.8636 30.8904C95.4205 31.2992 94.8377 31.5023 94.1177 31.5023C93.3976 31.5023 92.8148 31.3019 92.3717 30.8983V30.901ZM92.1422 32.7498H96.0905V44.0143H92.1422V32.7498Z" fill="white"/>
<path d="M105.732 43.8666C104.625 43.5765 103.723 43.1888 103.032 42.7035L104.382 39.6704C105.034 40.1003 105.788 40.4458 106.648 40.7096C107.507 40.9733 108.351 41.1052 109.182 41.1052C110.762 41.1052 111.551 40.7096 111.551 39.921C111.551 39.5043 111.326 39.1983 110.875 38.9953C110.424 38.7948 109.702 38.5838 108.705 38.3623C107.61 38.1275 106.695 37.8743 105.962 37.6027C105.229 37.3337 104.598 36.8985 104.071 36.3051C103.543 35.709 103.282 34.9072 103.282 33.8944C103.282 33.0083 103.525 32.2091 104.01 31.4944C104.496 30.7823 105.218 30.2152 106.181 29.8011C107.144 29.3844 108.325 29.1787 109.723 29.1787C110.678 29.1787 111.622 29.2868 112.55 29.5005C113.479 29.7167 114.296 30.0306 115.003 30.4473L113.734 33.5015C112.35 32.7524 111.005 32.3806 109.702 32.3806C108.884 32.3806 108.288 32.5019 107.914 32.7445C107.539 32.9872 107.352 33.301 107.352 33.6887C107.352 34.0764 107.573 34.3665 108.016 34.5617C108.46 34.7569 109.174 34.9573 110.158 35.1657C111.266 35.4004 112.184 35.6536 112.912 35.9253C113.64 36.1943 114.27 36.6242 114.803 37.215C115.335 37.8031 115.602 38.6049 115.602 39.6151C115.602 40.488 115.359 41.2766 114.874 41.9835C114.389 42.6903 113.661 43.2547 112.693 43.6767C111.722 44.0987 110.546 44.3097 109.161 44.3097C107.982 44.3097 106.84 44.1646 105.732 43.8745V43.8666Z" fill="white"/>
<path d="M117.119 30.901C116.676 30.5001 116.455 30.0016 116.455 29.4056C116.455 28.8095 116.676 28.311 117.119 27.9101C117.562 27.5092 118.145 27.3062 118.865 27.3062C119.585 27.3062 120.168 27.496 120.611 27.8785C121.054 28.2609 121.276 28.7488 121.276 29.3423C121.276 29.9357 121.054 30.4816 120.611 30.8904C120.168 31.2992 119.585 31.5023 118.865 31.5023C118.145 31.5023 117.562 31.3019 117.119 30.8983V30.901ZM116.89 32.7498H120.838V44.0143H116.89V32.7498Z" fill="white"/>
<path d="M133.694 33.8097C134.546 34.6405 134.973 35.8959 134.973 37.5707V44.014H131.025V38.2169C131.025 36.6792 130.408 35.9091 129.176 35.9091C128.498 35.9091 127.952 36.1307 127.544 36.5738C127.135 37.0168 126.932 37.6815 126.932 38.5677V44.0113H122.983V32.7468H126.744V33.9732C127.187 33.517 127.715 33.1662 128.324 32.9235C128.933 32.6809 129.598 32.5596 130.318 32.5596C131.716 32.5596 132.842 32.9763 133.694 33.8071V33.8097Z" fill="white"/>
<path d="M137.257 30.901C136.814 30.5001 136.592 30.0016 136.592 29.4056C136.592 28.8095 136.814 28.311 137.257 27.9101C137.7 27.5092 138.283 27.3062 139.003 27.3062C139.723 27.3062 140.306 27.496 140.749 27.8785C141.192 28.2609 141.414 28.7488 141.414 29.3423C141.414 29.9357 141.192 30.4816 140.749 30.8904C140.306 31.2992 139.723 31.5023 139.003 31.5023C138.283 31.5023 137.7 31.3019 137.257 30.8983V30.901ZM137.027 32.7498H140.976V44.0143H137.027V32.7498Z" fill="white"/>
<path d="M158.686 21.139C158.686 20.6248 158.269 20.208 157.755 20.208C157.241 20.208 156.824 20.6248 156.824 21.139V26.5748C156.824 27.089 157.241 27.5058 157.755 27.5058C158.269 27.5058 158.686 27.089 158.686 26.5748V21.139Z" fill="#00B6ED"/>
<path d="M169.589 31.4909V31.417C169.589 30.9233 169.189 30.5229 168.695 30.5229H163.747C163.253 30.5229 162.853 30.9233 162.853 31.417V31.4909C162.853 31.9847 163.253 32.385 163.747 32.385H168.695C169.189 32.385 169.589 31.9847 169.589 31.4909Z" fill="#B90D63"/>
<path d="M152.648 31.4909V31.417C152.648 30.9233 152.248 30.5229 151.754 30.5229H146.806C146.312 30.5229 145.912 30.9233 145.912 31.417V31.4909C145.912 31.9847 146.312 32.385 146.806 32.385H151.754C152.248 32.385 152.648 31.9847 152.648 31.4909Z" fill="#F9B000"/>
<path d="M154.354 28.761L154.405 28.7076C154.747 28.3511 154.735 27.7851 154.378 27.4435L150.805 24.0208C150.449 23.6792 149.883 23.6913 149.541 24.0479L149.49 24.1012C149.149 24.4578 149.161 25.0238 149.517 25.3654L153.09 28.7881C153.447 29.1297 154.013 29.1176 154.354 28.761Z" fill="#E50076"/>
<path d="M166.018 24.0984L165.967 24.0451C165.625 23.6885 165.059 23.6763 164.703 24.0179L161.13 27.4407C160.773 27.7822 160.761 28.3482 161.102 28.7048L161.153 28.7581C161.495 29.1147 162.061 29.1269 162.418 28.7853L165.991 25.3625C166.347 25.0209 166.359 24.455 166.018 24.0984Z" fill="#86BC25"/>
<path d="M150.526 47.756C152.715 50.9025 154.904 54.049 157.106 57.1875H170.802C171.306 56.1774 171.823 54.8296 172.306 53.8116C172.509 53.3843 172.617 52.9201 172.622 52.448C172.646 49.2409 172.63 46.0311 172.627 42.8214C172.627 42.6921 172.627 42.5603 172.604 42.4337C172.445 41.5396 171.501 41.1044 170.797 41.6055C170.399 41.8904 170.314 42.3176 170.325 42.7713C170.343 43.7471 170.375 44.7203 170.383 45.6962C170.388 46.4057 169.953 46.8936 169.331 46.9147C168.74 46.9147 168.46 46.3582 168.331 45.9125C168.26 45.6619 168.225 45.4034 168.223 45.1423C168.207 44.3458 168.152 41.6635 168.088 40.7457C168.02 39.7725 167.091 39.2397 166.319 39.7198C165.883 39.9914 165.781 40.4292 165.791 40.904C165.812 42.0249 165.841 43.1458 165.857 44.2667C165.86 44.4751 165.857 44.6966 165.791 44.8891C165.635 45.3691 165.129 45.6672 164.644 45.5986C164.098 45.5221 163.707 45.1186 163.692 44.5384C163.644 42.9955 163.623 41.4526 163.581 39.9097C163.576 39.6696 163.552 39.4191 163.478 39.1923C163.307 38.6648 162.803 38.3404 162.281 38.3826C161.795 38.4195 161.421 38.7729 161.307 39.3268C161.27 39.514 161.27 39.7145 161.273 39.907C161.302 41.4499 161.344 42.9928 161.363 44.5357C161.371 45.1107 160.98 45.5564 160.458 45.6408C159.946 45.7226 159.411 45.4245 159.258 44.9366C159.192 44.7256 159.19 44.4882 159.184 44.2641C159.105 40.7404 159.031 37.2142 158.955 33.6906C158.95 33.4954 158.955 33.3002 158.926 33.1077C158.826 32.4325 158.264 31.934 157.67 31.9789C157.08 32.0237 156.647 32.5486 156.639 33.2501C156.629 34.0203 156.568 35.5579 156.568 35.5579L156.858 48.7662C156.858 48.7662 156.768 50.7073 155.927 50.7311C155.27 50.7495 154.785 50.2906 154.814 49.5416C154.851 48.6343 154.49 47.9881 153.772 47.4765C153.35 47.1758 152.976 46.8065 152.562 46.4927C152.253 46.258 151.929 46.0391 151.586 45.8571C151.211 45.6593 150.805 45.6144 150.46 45.952C150.135 46.2659 149.861 46.8145 150.243 47.247C150.317 47.4263 150.415 47.6004 150.523 47.7587L150.526 47.756Z" fill="white"/>
<defs>
<linearGradient id="paint0_linear_1_645" x1="43.8074" y1="-16.6606" x2="120.203" y2="61.8374" gradientUnits="userSpaceOnUse">
<stop stop-color="#E73534"/>
<stop offset="0.2" stop-color="#D81C4F"/>
<stop offset="0.5" stop-color="#9A1B79"/>
<stop offset="0.7" stop-color="#672383"/>
<stop offset="0.9" stop-color="#4C3089"/>
<stop offset="1" stop-color="#44328A"/>
</linearGradient>
</defs>
</svg>
