<svg width="55" height="53" viewBox="0 0 55 53" fill="none" xmlns="http://www.w3.org/2000/svg">
<path d="M53.6625 26.5C53.6625 40.8492 41.772 52.5 27.0813 52.5C12.3906 52.5 0.5 40.8492 0.5 26.5C0.5 12.1508 12.3906 0.5 27.0813 0.5C41.772 0.5 53.6625 12.1508 53.6625 26.5Z" stroke="#3D0797"/>
<g clip-path="url(#clip0_280_2946)">
<path d="M27.7668 39.0769C28.1892 39.0264 28.5879 38.8277 28.9085 38.5079L43.3843 24.2578C43.6257 24.0705 43.8299 23.8267 43.9835 23.5425C44.1372 23.2582 44.2368 22.9399 44.2759 22.6084C44.3149 22.2768 44.2926 21.9395 44.2103 21.6186C44.128 21.2977 43.9875 21.0003 43.7982 20.746C43.6088 20.4918 43.3749 20.2863 43.1116 20.1431C42.8483 19.9999 42.5617 19.9222 42.2704 19.9151C41.9792 19.908 41.6899 19.9716 41.4215 20.1018C41.1532 20.232 40.9118 20.4258 40.7132 20.6706L27.573 33.6094L14.4328 20.6706C14.2342 20.4258 13.9928 20.232 13.7244 20.1018C13.4561 19.9716 13.1668 19.908 12.8756 19.9151C12.5843 19.9222 12.2976 19.9999 12.0343 20.1431C11.7711 20.2863 11.5371 20.4918 11.3478 20.746C11.1585 21.0003 11.018 21.2977 10.9356 21.6186C10.8533 21.9395 10.831 22.2768 10.8701 22.6084C10.9092 22.9399 11.0088 23.2582 11.1624 23.5425C11.3161 23.8267 11.5202 24.0705 11.7616 24.2578L26.2374 38.5079C26.4464 38.7151 26.6893 38.8723 26.952 38.97C27.2147 39.0678 27.4917 39.1041 27.7668 39.0769V39.0769Z" fill="#3D0797"/>
</g>
<defs>
<clipPath id="clip0_280_2946">
<rect width="19" height="33.0875" fill="white" transform="matrix(0 1 -1 0 44.1167 20)"/>
</clipPath>
</defs>
</svg>
