<svg width="53" height="54" viewBox="0 0 53 54" fill="none" xmlns="http://www.w3.org/2000/svg">
<g clip-path="url(#clip0_2762_5680)">
<path d="M26.5 0.48077C40.8505 0.48077 52.5 12.3405 52.5 26.9904C52.5 41.6403 40.8505 53.5 26.5 53.5C12.1495 53.5 0.5 41.6403 0.5 26.9904C0.5 12.3405 12.1495 0.48077 26.5 0.48077Z" stroke="#FF8B20"/>
<g clip-path="url(#clip1_2762_5680)">
<path d="M39.0768 26.3068C39.0262 25.8855 38.8275 25.4879 38.5077 25.1681L24.2577 10.7306C24.0704 10.4898 23.8266 10.2862 23.5424 10.1329C23.2581 9.97971 22.9398 9.88036 22.6082 9.84139C22.2767 9.80243 21.9394 9.82471 21.6185 9.90681C21.2975 9.98892 21.0002 10.129 20.7459 10.3178C20.4917 10.5067 20.2862 10.74 20.143 11.0026C19.9998 11.2652 19.9221 11.5511 19.915 11.8415C19.9078 12.132 19.9715 12.4206 20.1017 12.6882C20.2319 12.9558 20.4257 13.1966 20.6705 13.3946L33.6093 26.5001L20.6705 39.6056C20.4257 39.8036 20.2319 40.0444 20.1017 40.312C19.9715 40.5797 19.9078 40.8682 19.915 41.1586C19.9221 41.4491 19.9998 41.735 20.143 41.9976C20.2862 42.2602 20.4917 42.4935 20.7459 42.6824C21.0002 42.8712 21.2975 43.0113 21.6185 43.0934C21.9394 43.1755 22.2767 43.1978 22.6082 43.1588C22.9398 43.1198 23.2581 43.0205 23.5424 42.8672C23.8266 42.714 24.0704 42.5104 24.2577 42.2696L38.5077 27.8321C38.715 27.6237 38.8722 27.3814 38.9699 27.1194C39.0676 26.8575 39.104 26.5811 39.0768 26.3068Z" fill="#FF8B20"/>
</g>
</g>
<defs>
<clipPath id="clip0_2762_5680">
<rect width="54" height="53" fill="white" transform="translate(0 54) rotate(-90)"/>
</clipPath>
<clipPath id="clip1_2762_5680">
<rect width="19" height="33" fill="white" transform="translate(20 10)"/>
</clipPath>
</defs>
</svg>
