<svg width="53" height="54" viewBox="0 0 53 54" fill="none" xmlns="http://www.w3.org/2000/svg">
<g clip-path="url(#clip0_2762_5681)">
<path d="M26.5 53.5192C12.1495 53.5192 0.5 41.6595 0.5 27.0096C0.5 12.3597 12.1495 0.5 26.5 0.5C40.8505 0.5 52.5 12.3597 52.5 27.0096C52.5 41.6595 40.8505 53.5192 26.5 53.5192Z" stroke="#FF8B20"/>
<g clip-path="url(#clip1_2762_5681)">
<path d="M13.9233 27.6932C13.9739 28.1145 14.1726 28.5121 14.4924 28.8319L28.7424 43.2694C28.9297 43.5102 29.1735 43.7138 29.4578 43.8671C29.742 44.0203 30.0603 44.1196 30.3919 44.1586C30.7234 44.1976 31.0607 44.1753 31.3817 44.0932C31.7026 44.0111 31.9999 43.871 32.2542 43.6822C32.5085 43.4933 32.7139 43.26 32.8571 42.9974C33.0003 42.7348 33.078 42.4489 33.0852 42.1585C33.0923 41.868 33.0287 41.5794 32.8984 41.3118C32.7682 41.0442 32.5744 40.8034 32.3296 40.6054L19.3908 27.4999L32.3296 14.3944C32.5744 14.1964 32.7682 13.9556 32.8984 13.688C33.0287 13.4203 33.0923 13.1318 33.0852 12.8414C33.078 12.5509 33.0003 12.265 32.8571 12.0024C32.7139 11.7398 32.5085 11.5065 32.2542 11.3176C31.9999 11.1288 31.7026 10.9887 31.3817 10.9066C31.0607 10.8245 30.7234 10.8022 30.3919 10.8412C30.0603 10.8802 29.742 10.9795 29.4578 11.1328C29.1735 11.286 28.9297 11.4896 28.7424 11.7304L14.4924 26.1679C14.2851 26.3763 14.1279 26.6186 14.0302 26.8806C13.9325 27.1425 13.8961 27.4189 13.9233 27.6932Z" fill="#FF8B20"/>
</g>
</g>
<defs>
<clipPath id="clip0_2762_5681">
<rect width="54" height="53" fill="white" transform="translate(53) rotate(90)"/>
</clipPath>
<clipPath id="clip1_2762_5681">
<rect width="19" height="33" fill="white" transform="translate(33 44) rotate(-180)"/>
</clipPath>
</defs>
</svg>
