<?xml version="1.0" encoding="UTF-8" standalone="no"?>
<svg
   xmlns:dc="http://purl.org/dc/elements/1.1/"
   xmlns:cc="http://creativecommons.org/ns#"
   xmlns:rdf="http://www.w3.org/1999/02/22-rdf-syntax-ns#"
   xmlns:svg="http://www.w3.org/2000/svg"
   xmlns="http://www.w3.org/2000/svg"
   xmlns:sodipodi="http://sodipodi.sourceforge.net/DTD/sodipodi-0.dtd"
   xmlns:inkscape="http://www.inkscape.org/namespaces/inkscape"
   width="200mm"
   height="200mm"
   viewBox="0 0 200 200"
   version="1.1"
   id="svg16"
   inkscape:version="1.0.2-2 (e86c870879, 2021-01-15)"
   sodipodi:docname="perniagaan-marketaccess.svg">
  <defs
     id="defs10" />
  <sodipodi:namedview
     id="base"
     pagecolor="#ffffff"
     bordercolor="#666666"
     borderopacity="1.0"
     inkscape:pageopacity="0.0"
     inkscape:pageshadow="2"
     inkscape:zoom="0.35"
     inkscape:cx="399.25575"
     inkscape:cy="233.83261"
     inkscape:document-units="mm"
     inkscape:current-layer="layer1"
     inkscape:document-rotation="0"
     showgrid="false"
     fit-margin-top="0"
     fit-margin-left="0"
     fit-margin-right="0"
     fit-margin-bottom="0"
     inkscape:window-width="1920"
     inkscape:window-height="986"
     inkscape:window-x="-11"
     inkscape:window-y="-11"
     inkscape:window-maximized="1" />
  <metadata
     id="metadata13">
    <rdf:RDF>
      <cc:Work
         rdf:about="">
        <dc:format>image/svg+xml</dc:format>
        <dc:type
           rdf:resource="http://purl.org/dc/dcmitype/StillImage" />
        <dc:title></dc:title>
      </cc:Work>
    </rdf:RDF>
  </metadata>
  <g
     inkscape:label="Layer 1"
     inkscape:groupmode="layer"
     id="layer1"
     transform="translate(-0.1969168,-86.298456)">
    <path
       class="st3"
       d="m 194.4163,177.37187 c -1.88648,-1.34937 -3.99257,-2.00025 -6.55638,-2.06904 0.0688,-0.3175 0.18521,-0.61383 0.18521,-0.90752 0.0106,-5.09587 0.0132,-10.19175 0.008,-15.28763 -0.005,-3.40519 -2.31246,-5.73088 -5.72559,-5.74675 -3.50573,-0.0185 -7.0141,-0.045 -10.51983,0.0212 -0.90223,0.0159 -1.87854,0.20902 -2.68552,0.6006 -2.02671,0.9869 -3.00831,2.72786 -3.0189,4.97681 -0.0185,3.64333 -0.0132,7.28664 -0.003,10.92995 0.005,1.79388 0.0423,3.58775 0.0635,5.27579 -3.79148,-0.0159 -7.41892,-0.0318 -11.01725,-0.045 -0.0106,-5.18583 -0.0291,-10.47221 -0.0317,-15.75859 -0.003,-3.77296 -2.24896,-6.01398 -6.04573,-6.01133 -3.28877,0.003 -6.5749,0.008 -9.86367,0.008 -3.82058,0 -6.06689,2.24366 -6.06954,6.08277 -0.005,4.9874 -0.005,9.97215 0.005,14.95955 0,0.29633 0.10054,0.59002 0.15611,0.90223 -0.3863,0.0185 -0.54769,0.0317 -0.71173,0.0317 -18.49437,0 -36.986108,-0.005 -55.480478,0.0106 -0.56092,0 -0.73819,-0.23019 -0.889,-0.70379 -0.96308,-3.03742 -2.27806,-5.91609 -3.97404,-8.61748 -5.14879,-8.19416 -12.33223,-13.7848 -21.59265,-16.56028 -15.95966,-4.78367 -33.23166,1.42346 -42.6085003,15.18974 -8.93232997,13.1101 -8.90322997,30.37152 0.0952,43.41018 0.86784,1.25677 1.82563,2.4474 2.7437303,3.66977 1.16152,1.16153 2.32569,2.32569 3.48721,3.48721 0.77258,0.60325 1.53458,1.22502 2.32304,1.80711 7.41098,5.461 15.71361,8.06185 24.92111,7.66498 15.79827,-0.67998 29.73387,-11.4009 34.55458,-26.57211 0.18521,-0.58473 0.38365,-0.8546 1.09537,-0.8546 26.164658,0.0238 52.329298,0.0185 78.493938,0.0159 10.60185,0 21.20635,-0.0132 31.80821,0.008 3.10091,0.005 5.81025,-0.91811 8.0645,-3.07975 4.99269,-4.78102 4.40796,-12.81907 -1.21179,-16.83809 z M 40.283282,210.9184 c -13.589,0 -24.60625,-11.01725 -24.60625,-24.60625 0,-13.589 11.01725,-24.60625 24.60625,-24.60625 13.589,0 24.60625,11.01725 24.60625,24.60625 0,13.589 -11.01725,24.60625 -24.60625,24.60625 z"
       id="path20"
       style="stroke-width:0.264583" />
  </g>
  <style
     type="text/css"
     id="style18">
	.st0{fill:#00A100;}
	.st1{fill:#00E100;}
	.st2{fill:#00FF02;}
	.st3{fill:#00D57C;}
	.st4{fill:#FFFFFF;}
	.st5{fill:#00FF00;}
	.st6{fill:#DAEDBD;}
	.st7{fill:#6FFF77;}
	.st8{fill:#ABFF83;}
	.st9{fill:#00C100;}
	.st10{fill:#ED1C24;}
	.st11{fill-rule:evenodd;clip-rule:evenodd;fill:#00DA00;}
	.st12{fill:#00DA00;}
	.st13{fill-rule:evenodd;clip-rule:evenodd;fill:#00D57C;}
	.st14{fill:#00ECAA;}
	.st15{fill:none;}
	.st16{clip-path:url(#SVGID_00000129926870531025296250000008706845713607620539_);fill:#00DA00;}
	.st17{fill:#858E37;}
	.st18{fill:#00AD11;}
	.st19{fill-rule:evenodd;clip-rule:evenodd;fill:#00AD11;}
	.st20{fill-rule:evenodd;clip-rule:evenodd;fill:#8BE8A1;}
	.st21{fill:#43434B;}
</style>
  <style
     type="text/css"
     id="style31">
	.st0{fill:#00A100;}
	.st1{fill:#00E100;}
	.st2{fill:#00FF02;}
	.st3{fill:#00D57C;}
	.st4{fill:#FFFFFF;}
	.st5{fill:#00FF00;}
	.st6{fill:#DAEDBD;}
	.st7{fill:#6FFF77;}
	.st8{fill:#ABFF83;}
	.st9{fill:#00C100;}
	.st10{fill:#ED1C24;}
	.st11{fill-rule:evenodd;clip-rule:evenodd;fill:#00DA00;}
	.st12{fill:#00DA00;}
	.st13{fill-rule:evenodd;clip-rule:evenodd;fill:#00D57C;}
	.st14{fill:#00ECAA;}
	.st15{fill:none;}
	.st16{clip-path:url(#SVGID_00000024001239691117765320000009925152038486278584_);fill:#00DA00;}
	.st17{fill:#858E37;}
	.st18{fill:#00AD11;}
	.st19{fill-rule:evenodd;clip-rule:evenodd;fill:#00AD11;}
	.st20{fill-rule:evenodd;clip-rule:evenodd;fill:#8BE8A1;}
	.st21{fill:#43434B;}
</style>
</svg>
