<?xml version="1.0" encoding="UTF-8"?>
<svg id="Layer_1" data-name="Layer 1" xmlns="http://www.w3.org/2000/svg" viewBox="0 0 54.39 35.78">
  <defs>
    <style>
      .cls-1 {
        fill: #b3ffae;
      }

      .cls-2 {
        fill: #28663d;
      }

      .cls-3 {
        fill: #5fb257;
      }
    </style>
  </defs>
  <path class="cls-1" d="M12.9,20.54C12.46,10.79,21.51,2.48,30.95,2.48c1.27,0,2.5,.13,3.68,.38-2.16-.98-4.55-1.54-7.07-1.54-9.42,0-17.06,7.64-17.06,17.06,0,5.47,2.58,10.33,6.58,13.45-2.47-3.12-3.99-7.07-4.18-11.3Z"/>
  <g>
    <g>
      <g>
        <path class="cls-3" d="M1.32,11.3c0-2.02,0-4.04,0-6.06,0-2.4,1.31-3.71,3.7-3.71,4.7,0,6.39,0,11.09,0-.08-.3-.1-.63-.05-.94-4.75,0-6.5,0-11.25,0-2.62,0-4.42,1.81-4.42,4.45,0,2.27,0,4.55,0,6.82,0,.86,.01,.88,.83,1.05,2.48,.53,3.96,1.06,6.43,1.59-.01-.32,.04-.64,.16-.93-2.49-.53-3.99-1.07-6.49-1.6v-.67Z"/>
        <path class="cls-3" d="M7.64,14.88s-.05,0-.08,0c-1.25-.27-2.26-.54-3.24-.8-.97-.26-1.97-.53-3.2-.79C.14,13.07,0,12.9,0,11.86v-2.1c0-1.57,0-3.15,0-4.72C0,2.2,1.98,.22,4.8,.22h11.25c.11,0,.21,.05,.29,.13,.07,.08,.1,.19,.08,.3-.04,.26-.03,.53,.04,.78,.03,.11,0,.23-.06,.33s-.18,.15-.3,.15H5.02c-2.17,0-3.32,1.15-3.32,3.34v6.42c1.13,.25,2.06,.5,2.97,.74,.98,.26,1.98,.53,3.22,.8,.11,.02,.2,.09,.25,.19,.05,.1,.06,.21,.01,.32-.1,.24-.14,.51-.13,.78,0,.12-.04,.23-.13,.3-.07,.06-.15,.09-.24,.09ZM10.89,.97H4.8c-2.42,0-4.04,1.64-4.05,4.07,0,1.57,0,3.15,0,4.72v2.1c0,.22,0,.49,.03,.55,.04,.03,.31,.09,.5,.13,1.25,.27,2.26,.54,3.23,.8,.85,.23,1.73,.46,2.77,.7,0-.06,.02-.13,.03-.19-1.08-.24-1.98-.48-2.86-.72-.98-.26-1.99-.53-3.23-.8-.17-.04-.3-.19-.3-.37V5.24C.94,2.65,2.43,1.16,5.02,1.16H15.66c0-.06,0-.13,0-.19h-4.75Z"/>
      </g>
      <g>
        <path class="cls-3" d="M54,5.01c0-2.59-1.82-4.41-4.4-4.41-4.72,0-6.43,0-11.15,0,.06,.31,.05,.63-.03,.94,4.64,0,6.28,0,10.92,0,.18,0,.35,0,.53,0,1.66,.06,3.1,1.34,3.16,2.99,.08,2.47,.02,4.93,.02,7.45-2.49,.53-3.98,1.07-6.46,1.6,.12,.29,.17,.62,.16,.94,2.49-.53,3.97-1.06,6.46-1.59,.57-.12,.82-.35,.81-.98-.04-2.31-.01-4.63-.02-6.94Z"/>
        <path class="cls-3" d="M46.74,14.89c-.09,0-.17-.03-.24-.09-.09-.08-.14-.19-.13-.3,.01-.27-.03-.54-.13-.78-.04-.1-.04-.22,.01-.32,.05-.1,.14-.17,.25-.19,1.23-.26,2.23-.53,3.2-.79,.9-.24,1.84-.49,2.96-.74,0-.66,0-1.31,0-1.96,.01-1.7,.02-3.46-.03-5.18-.04-1.39-1.3-2.57-2.79-2.62-.13,0-.26,0-.39,0h-11.05c-.12,0-.22-.05-.29-.14-.07-.09-.1-.21-.07-.32,.06-.25,.07-.52,.02-.79-.02-.11,0-.22,.08-.31,.07-.08,.18-.13,.29-.13h4.22s6.93,0,6.93,0c2.8,0,4.77,1.97,4.78,4.79h0c0,.79,0,1.57,0,2.36,0,1.52,0,3.05,.02,4.57,.01,.77-.33,1.19-1.1,1.35-1.24,.26-2.25,.53-3.23,.79-.98,.26-1.98,.53-3.23,.8-.03,0-.05,0-.08,0Zm.32-1.03c.01,.06,.03,.13,.04,.2,1.03-.23,1.91-.47,2.76-.69,.99-.26,2.01-.54,3.27-.8,.43-.09,.52-.19,.51-.61-.02-1.53-.02-3.06-.02-4.59,0-.79,0-1.57,0-2.36h0c0-2.38-1.66-4.04-4.03-4.04h-6.93s-3.81,0-3.81,0c0,.06,0,.13,0,.19h10.61c.14,0,.28,0,.42,0,1.92,.07,3.46,1.54,3.52,3.35,.05,1.73,.04,3.5,.03,5.21,0,.75,0,1.5,0,2.26,0,.18-.12,.33-.3,.37-1.24,.27-2.24,.54-3.22,.8-.87,.23-1.77,.48-2.84,.71Z"/>
      </g>
      <g>
        <path class="cls-3" d="M17.85,34.95c0-.16,0-.32,.02-.48-4.98,0-7.96,0-12.95,0-2.26,0-3.61-1.35-3.61-3.63,0-5.27,0-8.54,0-13.81v-.72H.38v.64c0,5.29,0,8.58,0,13.87,0,2.83,1.76,4.59,4.58,4.59,4.98,0,7.97,0,12.95,0-.03-.15-.05-.3-.06-.46Z"/>
        <path class="cls-3" d="M13.24,35.78H4.95C1.95,35.78,0,33.83,0,30.82v-14.51c0-.21,.17-.38,.37-.38h.94c.21,0,.38,.17,.38,.38v14.53c0,2.07,1.18,3.25,3.23,3.25h12.95c.11,0,.21,.05,.28,.13s.1,.19,.09,.3c-.02,.13-.03,.27-.02,.41,0,.14,.03,.28,.05,.41,.02,.11,0,.22-.08,.31s-.18,.13-.29,.13h-4.66ZM.75,16.68v14.14c0,2.64,1.57,4.21,4.2,4.21h12.52s0-.04,0-.07h0s0-.08,0-.12H4.92c-2.46,0-3.98-1.53-3.98-4v-14.16h-.19Z"/>
      </g>
      <g>
        <path class="cls-3" d="M53.06,16.32v.74c0,5.27,0,8.54,0,13.81,0,2.23-1.36,3.6-3.58,3.6-4.82,0-7.64,0-12.46,0,.03,.16,.05,.32,.06,.48,0,.16,0,.31-.02,.46,4.8,0,7.6,0,12.4,0,2.78,0,4.55-1.77,4.55-4.56,0-5.31,0-8.62,0-13.93v-.6h-.94Z"/>
        <path class="cls-3" d="M49.45,35.78h-12.4c-.11,0-.21-.05-.28-.13s-.1-.19-.09-.3c.02-.13,.02-.26,.02-.39,0-.14-.03-.29-.05-.43-.02-.11,0-.22,.08-.31,.07-.09,.18-.14,.29-.14h12.46c2,0,3.2-1.2,3.2-3.22v-14.55c0-.21,.17-.38,.38-.38h.94c.21,0,.38,.17,.38,.38v14.53c0,3-1.93,4.93-4.92,4.93Zm-12-.75h12c2.57,0,4.17-1.6,4.17-4.19v-14.15h-.19v14.18c0,2.45-1.52,3.97-3.95,3.97h-12.04s0,.06,0,.09c0,.03,0,.07,0,.1Z"/>
      </g>
    </g>
    <g>
      <path class="cls-3" d="M9.79,17.77c0-9.6,7.84-17.42,17.44-17.39,9.58,.02,17.37,7.84,17.36,17.42,0,9.6-7.85,17.42-17.44,17.39-9.58-.03-17.37-7.84-17.36-17.42Zm33.86,.03c.01-9.06-7.36-16.46-16.42-16.48-9.06-.02-16.47,7.35-16.5,16.41-.03,9.09,7.37,16.51,16.45,16.52,9.06,0,16.46-7.38,16.47-16.44Z"/>
      <path class="cls-3" d="M27.2,35.56h-.05c-9.79-.03-17.74-8.01-17.73-17.79,0-4.74,1.86-9.21,5.24-12.57C18.01,1.84,22.47,0,27.19,0h.05c9.79,.02,17.74,8.01,17.73,17.79,0,4.75-1.86,9.21-5.24,12.57-3.36,3.35-7.81,5.19-12.53,5.19Zm0-34.81c-4.52,0-8.79,1.77-12.01,4.97-3.23,3.22-5.01,7.5-5.02,12.04h0c0,9.37,7.61,17.02,16.99,17.04h.05c4.52,0,8.78-1.77,12-4.97,3.23-3.22,5.02-7.5,5.02-12.04,0-9.37-7.61-17.02-16.99-17.04h-.04ZM9.79,17.77h0Zm17.4,16.85h0c-4.49,0-8.72-1.76-11.91-4.96-3.19-3.2-4.93-7.44-4.92-11.93,.03-9.26,7.58-16.79,16.83-16.79h.04c9.27,.02,16.81,7.58,16.8,16.86h0c-.01,9.27-7.56,16.82-16.83,16.82Zm0-32.93c-8.84,0-16.06,7.19-16.08,16.04-.01,4.29,1.66,8.34,4.7,11.4,3.04,3.05,7.08,4.74,11.38,4.74h0c8.86,0,16.07-7.21,16.08-16.07,.01-8.86-7.19-16.09-16.05-16.11h-.04Zm16.46,16.11h0Z"/>
    </g>
  </g>
  <g>
    <g>
      <path class="cls-3" d="M23.81,34.33c.05,.02,.1,.05,.14,.06-.13,.09-.25,.18-.38,.27h2.41c.6-.1,1.21-.1,1.81,0h2.41s-.04-.03-.06-.05c-.11-.07-.22-.13-.35-.21,.08-.03,.12-.05,.16-.07,2.31-.9,3.57-3.27,3.03-5.7-.06-.28-.2-.42-.48-.48-2.05-.4-3.73,.21-5.04,1.83-.04,.04-.07,.09-.13,.15v-6.73c.09-.01,.18-.03,.26-.04,2.12-.32,3.61-1.46,4.43-3.43,.57-1.37,.53-2.76-.02-4.13-.05-.13-.19-.28-.32-.33-.12-.04-.3,.03-.41,.11-.15,.11-.14,.3-.07,.47,.24,.56,.37,1.15,.38,1.76,.05,2.86-2.47,5.09-5.31,4.71-2.76-.37-4.59-3.07-3.9-5.76,.71-2.78,3.63-4.26,6.3-3.2,.32,.13,.56,.06,.66-.19,.1-.25-.02-.46-.35-.59-.92-.37-1.88-.5-2.86-.35-2.64,.4-4.53,2.46-4.73,5.13-.19,2.54,1.52,4.96,3.97,5.63,.36,.1,.74,.16,1.1,.24v6.72c-.05-.07-.08-.1-.11-.14-1.32-1.64-3.01-2.25-5.08-1.84-.24,.05-.38,.17-.45,.41-.6,2.38,.7,4.89,3,5.75Zm4.71-4.29c.97-.94,2.15-1.3,3.49-1.12,.12,.02,.17,.06,.19,.18,.39,2.5-1.53,4.78-4.15,4.71-.03,0-.05,0-.11-.02,.07-.07,.11-.13,.16-.17,.5-.5,1.01-1.01,1.51-1.51,.04-.04,.09-.09,.13-.14,.16-.19,.16-.43,0-.59-.17-.17-.42-.17-.61,0-.31,.3-.61,.61-.91,.91-.29,.29-.57,.58-.86,.86-.08-1.23,.29-2.29,1.16-3.13Zm-6.96-.91c.02-.12,.05-.18,.19-.21,2.5-.44,4.84,1.64,4.71,4.18,0,.01,0,.03,0,.04-.03,.02-.05,.05-.08,.07-.04-.07-.07-.16-.13-.21-.52-.53-1.05-1.06-1.58-1.58-.17-.17-.38-.2-.56-.08-.16,.1-.24,.3-.17,.48,.04,.09,.11,.18,.18,.25,.51,.52,1.03,1.04,1.55,1.56,.05,.05,.09,.1,.17,.18-.47,.04-.89-.01-1.3-.12-2.01-.54-3.29-2.49-2.97-4.55Z"/>
      <path class="cls-3" d="M30.19,35.04h-2.41c-.62-.1-1.19-.1-1.75,0h-2.47c-.16,0-.31-.1-.36-.26-.03-.1-.02-.2,.03-.29-2.18-1.07-3.4-3.62-2.79-6.01,.07-.26,.25-.59,.74-.69,1.93-.38,3.57,.08,4.89,1.36l-.04-5.43c-.26-.05-.52-.1-.78-.17-2.62-.71-4.44-3.3-4.24-6.02,.21-2.85,2.24-5.04,5.04-5.47,1.03-.16,2.06-.03,3.05,.37,.59,.24,.7,.71,.55,1.08-.14,.34-.51,.65-1.14,.4-1.18-.47-2.49-.41-3.59,.15-1.11,.57-1.9,1.56-2.21,2.8-.3,1.17-.08,2.43,.6,3.44,.69,1.02,1.77,1.69,2.99,1.86,1.25,.17,2.51-.21,3.45-1.05,.94-.83,1.46-2.03,1.44-3.27,0-.55-.13-1.09-.35-1.62-.15-.36-.08-.71,.19-.91,.19-.14,.5-.25,.75-.17,.26,.08,.46,.33,.55,.54,.61,1.5,.62,2.99,.02,4.42-.86,2.07-2.43,3.3-4.66,3.65v5.43c1.32-1.28,2.95-1.74,4.87-1.37,.42,.08,.68,.34,.78,.76,.54,2.44-.64,4.87-2.84,5.95,.04,.08,.05,.17,.02,.25-.05,.16-.16,.29-.33,.29Zm-3.31-.82c.32,0,.64,.03,.97,.08h1.57c.03-.1,.11-.19,.21-.23l.17-.08c2.16-.84,3.31-3.01,2.8-5.27-.03-.14-.07-.17-.19-.19-1.92-.37-3.45,.19-4.68,1.7l-.08,.1c-.1,.12-.29,.19-.44,.14-.15-.05-.27-.17-.27-.32v-6.73c0-.19,.14-.34,.32-.37l.26-.04c1.99-.3,3.38-1.38,4.14-3.21,.52-1.24,.51-2.54-.02-3.85-.02-.04-.06-.09-.09-.11,.01,.01-.04,.03-.07,.06,.31,.64,.45,1.28,.46,1.92,.03,1.47-.59,2.87-1.69,3.85-1.11,.98-2.59,1.43-4.05,1.24-1.42-.19-2.7-.99-3.51-2.18-.8-1.19-1.06-2.66-.71-4.04,.36-1.43,1.31-2.62,2.6-3.28,1.29-.66,2.83-.73,4.21-.18,.12,.05,.17,.03,.17,.03,0-.04-.03-.08-.14-.12-.87-.35-1.77-.46-2.66-.33-2.45,.37-4.22,2.3-4.41,4.79-.17,2.37,1.41,4.62,3.69,5.24,.24,.07,.49,.11,.73,.16l.35,.07c.17,.04,.3,.19,.3,.37v6.72c0,.16-.1,.3-.25,.35-.15,.05-.32,0-.42-.12l-.06-.08c-1.28-1.59-2.82-2.15-4.76-1.77-.11,.02-.13,.05-.15,.14-.55,2.18,.66,4.52,2.77,5.31,0,0,0,0,0,0,.05,.02,.1,.04,.14,.06,.1,.05,.18,.14,.21,.25h1.69c.29-.05,.59-.07,.9-.07Zm-1.37-.02c-.35,0-.7-.05-1.08-.15-2.19-.58-3.59-2.72-3.25-4.97,.06-.37,.3-.49,.49-.52,1.3-.23,2.63,.16,3.65,1.06,1.02,.9,1.57,2.18,1.5,3.51,0,.02,0,.07-.01,.1-.02,.07-.06,.15-.12,.2,0,0-.08,.07-.08,.07-.08,.07-.2,.11-.31,.09-.11-.02-.21-.08-.26-.18,0,0-.05-.08-.05-.09-.55-.58-1.08-1.11-1.61-1.63-.05-.05-.07-.04-.09-.03-.01,.04,0,.08,.08,.16l1.67,1.68c.1,.1,.15,.29,.1,.42s-.14,.26-.29,.27c-.12,.01-.24,.02-.35,.02Zm-3.59-4.92c-.24,1.84,.92,3.56,2.71,4.04,.09,.02,.18,.04,.26,.06l-1.04-1.05c-.13-.13-.21-.25-.26-.38-.14-.34,0-.73,.31-.94,.33-.21,.73-.16,1.02,.13,.37,.37,.74,.74,1.11,1.11-.14-.79-.56-1.52-1.19-2.08-.82-.73-1.88-1.05-2.92-.9Zm-.36-.14h0Zm6.6,5.06s-.08,0-.12,0c-.02,0-.09,0-.11-.01-.14-.02-.28-.12-.32-.25-.04-.13-.04-.28,.05-.38l.17-.18,1.51-1.51c.06-.06,.09-.08,.11-.11-.28,.14-.49,.35-.71,.57l-1.12,1.13c-.1,.1-.26,.14-.4,.09-.14-.05-.23-.18-.24-.33-.09-1.36,.34-2.51,1.28-3.42,1.04-1.01,2.32-1.42,3.8-1.22,.29,.04,.47,.21,.51,.49,.21,1.32-.18,2.65-1.05,3.64-.84,.96-2.06,1.5-3.36,1.5Zm1.29-3.3c.2,0,.4,.08,.56,.24,.3,.3,.3,.76,.02,1.1-.04,.05-.08,.09-.13,.13l-1.01,1.01c.82-.15,1.53-.55,2.07-1.17,.7-.8,1.02-1.85,.89-2.91-1.21-.14-2.21,.2-3.06,1.03h0c-.56,.54-.9,1.18-1.01,1.92l.44-.45c.22-.22,.44-.44,.66-.65,.17-.16,.37-.24,.57-.24Zm-.92-.85h0Z"/>
    </g>
    <path class="cls-2" d="M26.46,20.92c-.45-.02-.83-.17-1.18-.4-.24-.16-.31-.4-.17-.61,.13-.2,.37-.25,.61-.11,.23,.13,.45,.27,.74,.26,0-.58-.02-1.16,0-1.74,.02-.3-.08-.44-.35-.56-.62-.28-.98-.76-.91-1.47,.08-.76,.5-1.25,1.18-1.43,.08-.25,.13-.47,.23-.66,.03-.07,.18-.1,.28-.1,.28,0,.37,.16,.42,.72,.26,.12,.51,.21,.75,.34,.28,.15,.36,.4,.22,.63-.13,.22-.38,.25-.64,.1-.1-.05-.2-.1-.34-.17,0,.39,.03,.75,0,1.1-.04,.38,.05,.58,.45,.74,.66,.25,1,.8,.98,1.51-.02,.79-.42,1.37-1.14,1.71-.08,.04-.17,.06-.28,.1,0,.13,0,.26,0,.39-.01,.24-.19,.42-.41,.42-.23,0-.42-.18-.43-.43,0-.11,0-.21,0-.34Zm.86-.98c.37-.11,.6-.64,.56-.95-.04-.37-.25-.63-.56-.68v1.63Zm-.86-4.18c-.28,.13-.43,.4-.42,.71,.01,.25,.13,.39,.42,.49v-1.2Z"/>
    <path class="cls-3" d="M30.91,14.28c0,.24-.17,.42-.4,.43-.24,0-.44-.18-.44-.42,0-.23,.19-.42,.42-.42,.23,0,.42,.18,.42,.41Z"/>
  </g>
</svg>