<?xml version="1.0" encoding="UTF-8" standalone="no"?>
<svg
   xmlns:dc="http://purl.org/dc/elements/1.1/"
   xmlns:cc="http://creativecommons.org/ns#"
   xmlns:rdf="http://www.w3.org/1999/02/22-rdf-syntax-ns#"
   xmlns:svg="http://www.w3.org/2000/svg"
   xmlns="http://www.w3.org/2000/svg"
   xmlns:sodipodi="http://sodipodi.sourceforge.net/DTD/sodipodi-0.dtd"
   xmlns:inkscape="http://www.inkscape.org/namespaces/inkscape"
   width="190mm"
   height="190mm"
   viewBox="0 0 190 190"
   version="1.1"
   id="svg439"
   inkscape:version="1.0.2-2 (e86c870879, 2021-01-15)"
   sodipodi:docname="needs-carousel-facilities-biz.svg">
  <defs
     id="defs433" />
  <sodipodi:namedview
     id="base"
     pagecolor="#ffffff"
     bordercolor="#666666"
     borderopacity="1.0"
     inkscape:pageopacity="0.0"
     inkscape:pageshadow="2"
     inkscape:zoom="0.7"
     inkscape:cx="527.02322"
     inkscape:cy="411.68419"
     inkscape:document-units="mm"
     inkscape:current-layer="layer1"
     inkscape:document-rotation="0"
     showgrid="false"
     fit-margin-top="0"
     fit-margin-left="0"
     fit-margin-right="0"
     fit-margin-bottom="0"
     inkscape:window-width="1920"
     inkscape:window-height="986"
     inkscape:window-x="-11"
     inkscape:window-y="-11"
     inkscape:window-maximized="1" />
  <metadata
     id="metadata436">
    <rdf:RDF>
      <cc:Work
         rdf:about="">
        <dc:format>image/svg+xml</dc:format>
        <dc:type
           rdf:resource="http://purl.org/dc/dcmitype/StillImage" />
        <dc:title></dc:title>
      </cc:Work>
    </rdf:RDF>
  </metadata>
  <g
     inkscape:label="Layer 1"
     inkscape:groupmode="layer"
     id="layer1"
     transform="translate(-5.2740924,-31.901952)">
    <g
       id="g658"
       transform="matrix(0.38823028,0,0,0.38823028,-4.8334325,54.357242)">
      <g
         id="g586">
	<path
   class="st3"
   d="m 116.58,227.89 21.11,1.78 c 3.92,0.33 7.13,3.13 7.98,6.98 l 0.44,1.97 c 3.14,14.23 8.72,27.69 16.6,40.03 l 1.09,1.71 c 2.12,3.31 1.83,7.56 -0.71,10.57 l -3.43,4.06 c 16.94,-1.45 34.48,-2.57 52.51,-3.34 -25.26,-17.7 -41.82,-47 -41.82,-80.11 0,-53.92 43.87,-97.79 97.79,-97.79 53.92,0 97.79,43.87 97.79,97.79 0,32.99 -16.44,62.19 -41.53,79.91 17.78,0.7 35.09,1.73 51.83,3.08 l -3.04,-3.6 c -2.54,-3.01 -2.83,-7.26 -0.71,-10.58 l 1.09,-1.7 c 7.87,-12.34 13.45,-25.81 16.59,-40.03 l 0.44,-1.97 c 0.85,-3.84 4.06,-6.65 7.98,-6.98 l 21.1,-1.78 c 4.64,-0.39 8.27,-4.35 8.27,-9 v -14.71 c 0,-4.73 -3.56,-8.6 -8.27,-9 l -21.1,-1.78 c -3.92,-0.33 -7.13,-3.14 -7.98,-6.98 l -0.44,-1.97 c -3.14,-14.22 -8.72,-27.69 -16.59,-40.03 l -1.09,-1.7 c -2.12,-3.32 -1.83,-7.57 0.71,-10.58 l 13.67,-16.19 c 3,-3.56 2.78,-8.92 -0.52,-12.22 l -10.4,-10.4 c -3.35,-3.34 -8.59,-3.57 -12.22,-0.51 l -16.19,13.67 c -3.01,2.54 -7.26,2.82 -10.58,0.7 l -1.7,-1.08 C 322.93,98.25 309.46,92.66 295.22,89.51 l -1.97,-0.44 c -3.84,-0.85 -6.65,-4.06 -6.98,-7.98 l -1.78,-21.1 c -0.4,-4.72 -4.27,-8.27 -9,-8.27 h -14.71 c -4.65,0 -8.61,3.63 -9,8.27 L 250,81.09 c -0.33,3.92 -3.14,7.12 -6.98,7.98 l -1.97,0.44 c -14.24,3.15 -27.71,8.73 -40.03,16.6 l -1.7,1.09 c -3.31,2.12 -7.57,1.83 -10.58,-0.71 l -16.2,-13.67 c -3.62,-3.05 -8.87,-2.83 -12.21,0.51 l -10.4,10.4 c -3.29,3.29 -3.52,8.66 -0.52,12.22 l 13.67,16.19 c 2.54,3.01 2.82,7.26 0.71,10.58 l -1.09,1.7 c -7.87,12.34 -13.46,25.81 -16.59,40.03 l -0.44,1.97 c -0.85,3.84 -4.05,6.64 -7.97,6.98 l -21.11,1.78 c -4.64,0.39 -8.27,4.35 -8.27,9 v 14.71 c -0.01,4.66 3.62,8.61 8.26,9 z"
   id="path584" />

</g>
      <path
         class="st12"
         d="m 187.15,247.37 h 3.83 v 6.42 h -3.33 c 8.31,15.77 21.12,28.79 36.71,37.39 0.83,-0.03 1.65,-0.06 2.48,-0.09 v -29.84 l -1.9,1.47 h -15.31 c -1.64,0 -2.35,-2.08 -1.05,-3.08 l 27.94,-21.59 v -4.68 h 5.29 v 0.59 l 23.62,-18.25 h -10.69 v -76.14 h -41.28 v 43.12 h -31.19 v 58.77 c 1.37,3.92 3,7.71 4.87,11.36 v -5.45 z m 30.84,15.37 h 5.29 v 6.42 h -5.29 z m 0,14.67 h 5.29 v 6.42 h -5.29 z m 27.79,-132.09 h 5.29 v 6.42 h -5.29 z m 0,44.03 h 5.29 v 6.42 h -5.29 z m 0,14.68 h 5.29 v 6.42 h -5.29 z m 0,14.67 h 5.29 v 6.42 h -5.29 z m -9.26,-73.38 h 5.29 v 6.42 h -5.29 z m 0,14.67 h 5.29 v 6.42 h -5.29 z m 0,14.68 h 5.29 v 6.42 h -5.29 z m 0,29.36 h 5.29 v 6.42 h -5.29 z m -9.26,-29.36 h 5.29 v 6.42 h -5.29 z m 0,14.68 h 5.29 v 6.42 h -5.29 z m 0,29.35 h 5.29 v 6.42 h -5.29 z m 0,14.68 h 5.29 v 6.42 h -5.29 z m -9.27,-88.06 h 5.29 v 6.42 h -5.29 z m 0,14.67 h 5.29 v 6.42 h -5.29 z m 0,14.68 h 5.29 v 6.42 h -5.29 z m 0,29.36 h 5.29 v 6.42 h -5.29 z m 0,14.67 h 5.29 v 6.42 h -5.29 z m -10.76,-27.75 h 3.83 v 6.42 h -3.83 z m 0,14.11 h 3.83 v 6.42 h -3.83 z m 0,14.1 h 3.83 v 6.42 h -3.83 z m -6.69,-14.1 h 3.83 v 6.42 h -3.83 z m 0,28.21 h 3.83 v 6.42 h -3.83 z m 0,14.1 h 3.83 v 6.42 h -3.83 z m -6.7,-56.42 h 3.83 v 6.42 h -3.83 z m 0,28.21 h 3.83 v 6.42 h -3.83 z m 0,28.21 h 3.83 v 6.42 h -3.83 z m -6.69,-56.42 h 3.83 v 6.42 h -3.83 z m 0,14.11 h 3.83 v 6.42 h -3.83 z m 0,28.21 h 3.83 v 6.42 h -3.83 z"
         id="path588" />
      <path
         class="st5"
         d="m 512.23,322 c -61.6,-15.36 -147.05,-24.87 -241.5,-24.87 -94.45,0 -179.89,9.51 -241.49,24.87 61.6,-6.1 147.05,-9.88 241.5,-9.88 94.45,0 179.89,3.78 241.49,9.88 z"
         id="path590" />
      <g
         id="g598">
	<g
   id="g596">
		<path
   class="st3"
   d="m 327.57,243.6 v 0 L 283,209.17 l -1.74,-1.34 -66.63,51.47 h 9.14 l 45.14,-34.87 12.35,-9.54 44.36,34.27 c 0.16,-0.07 0.31,-0.16 0.47,-0.24 -0.16,0.08 -0.31,0.16 -0.47,0.24 l 13.13,10.14 h 9.14 z m -0.28,4.67 c 0.14,-0.12 0.21,-0.25 0.25,-0.43 -0.03,0.17 -0.11,0.31 -0.25,0.43 z m 0.28,-0.72 c 0,-0.01 0,-0.01 0,0 0,-0.01 0,-0.01 0,0 z"
   id="path592" />

		<path
   class="st3"
   d="m 281.26,217.61 -12.94,10 v 0 l -38.06,29.4 V 291 c 3.14,-0.09 6.29,-0.17 9.45,-0.24 v -16.97 h 18.27 v 16.68 c 3.68,-0.03 7.38,-0.06 11.09,-0.06 v -22.53 h 24.37 v 22.71 c 3.71,0.06 7.41,0.13 11.09,0.22 v -17.03 h 18.27 v 10.36 c 3.34,-2.52 6.5,-5.26 9.45,-8.2 v -18.93 l -8.92,-6.89 z m -13.13,12.87 c 0,-0.53 0.03,-1.06 0.07,-1.58 -0.05,0.53 -0.07,1.05 -0.07,1.58 -0.01,5.8 0,11.6 0,17.4 -0.01,-5.8 -0.01,-11.6 0,-17.4 z m 0.23,18.31 c -0.05,-0.02 -0.09,-0.05 -0.23,-0.12 0.14,0.07 0.18,0.1 0.23,0.12 3.74,1.17 7.51,2.17 11.33,2.97 -3.82,-0.8 -7.59,-1.8 -11.33,-2.97 z"
   id="path594" />

	</g>

</g>
      <g
         id="g608">
	<path
   class="st14"
   d="m 329.68,220.88 c -2.09,-10.69 -11.05,-18.09 -21.94,-18.13 -4.89,-0.02 -9.77,-0.05 -14.66,0.02 -1.66,0.02 -3.35,0.18 -4.96,0.55 -0.91,0.21 -1.77,0.49 -2.62,0.79 l 44.57,34.43 c 0,-4.69 0,-9.39 -0.03,-14.08 -0.01,-1.19 -0.13,-2.4 -0.36,-3.58 z"
   id="path600" />

	<path
   class="st14"
   d="m 356.54,207.85 c -0.01,-1.19 -0.13,-2.41 -0.36,-3.58 -2.15,-10.86 -11.19,-18.29 -22.26,-18.3 -4.52,-0.01 -9.04,0 -13.57,0 -0.26,0 -0.51,0 -0.83,0 -0.28,5.87 -2.48,10.85 -6.65,15.02 0.37,0.14 0.63,0.24 0.9,0.33 6.55,2.32 11.56,6.47 14.92,12.57 2.21,4.02 3.2,8.35 3.17,12.93 -0.01,1.67 0,3.34 0,5.11 8.65,-0.46 16.96,-1.75 24.71,-5.53 0,-0.26 0,-0.38 0,-0.51 -0.01,-6.01 0.01,-12.02 -0.03,-18.04 z"
   id="path602" />

	<path
   class="st14"
   d="m 300.53,201.61 c 9.69,-0.03 17.5,-7.89 17.48,-17.58 -0.02,-9.7 -7.84,-17.52 -17.53,-17.51 -9.67,0.01 -17.49,7.87 -17.48,17.57 0.01,9.69 7.88,17.55 17.53,17.52 z"
   id="path604" />

	<path
   class="st14"
   d="m 310.41,167.78 c 5.05,3.63 8.13,8.51 8.98,14.72 0.06,0.47 0.26,0.73 0.7,0.91 2.88,1.19 5.87,1.67 8.97,1.27 8.81,-1.15 15.32,-8.59 15.35,-17.44 -0.09,-0.96 -0.12,-1.93 -0.28,-2.88 -1.74,-10.37 -12.1,-16.83 -22.18,-13.84 -6.85,2.03 -11.82,8.15 -12.44,15.26 -0.06,0.87 0.12,1.43 0.9,2 z"
   id="path606" />

</g>
      <g
         id="g616">
	<g
   id="g614">
		<path
   class="st3"
   d="m 275.14,201.6 c -2,0.29 -2.73,-0.31 -2.87,-2.33 -0.11,-1.61 -0.15,-3.23 -0.16,-4.85 -0.02,-4.08 0.01,-8.16 -0.02,-12.24 -0.01,-2.01 -0.99,-2.94 -3,-2.97 -0.38,0 -0.78,-0.01 -1.15,0.06 -3.42,0.64 -6.39,2.22 -9.07,4.4 -0.03,0.02 0,0.12 0,0.22 1.31,-0.24 2.6,-0.55 3.91,-0.71 1.32,-0.16 1.86,0.29 2.19,1.58 0.09,0.37 0.16,0.76 0.16,1.14 0.05,5.45 0.13,10.9 0.11,16.35 -0.01,1.69 0.52,2.86 2.18,3.38 0.7,0 1.4,0 2.11,0 3.43,-0.88 6.54,-2.37 9.43,-4.85 -1.43,0.32 -2.61,0.65 -3.82,0.82 z"
   id="path610" />

		<path
   class="st3"
   d="m 268.67,177.47 c 1.91,0.01 3.45,-1.55 3.43,-3.49 -0.01,-1.89 -1.52,-3.41 -3.4,-3.42 -1.92,-0.01 -3.45,1.54 -3.43,3.48 0.01,1.9 1.52,3.42 3.4,3.43 z"
   id="path612" />

	</g>

</g>
      <g
         id="g626">
	<path
   class="st18"
   d="m 303.5,152.79 c -5.73,-16.51 -26.28,-22.55 -39.52,-14.49 -0.78,-1.62 -1.55,-3.24 -2.42,-5.05 0.88,-0.42 1.73,-0.8 2.57,-1.22 3.8,-1.92 7.9,-2.74 12.1,-2.84 5.41,-0.13 10.61,0.97 15.54,3.3 4.37,2.06 8.18,4.87 11.3,8.52 2.23,2.61 4.04,5.54 5.17,8.82 0.08,0.23 -0.14,0.76 -0.37,0.88 -1.4,0.72 -2.85,1.37 -4.37,2.08 z"
   id="path618" />

	<path
   class="st18"
   d="m 298.41,155.16 c -1.64,0.74 -3.25,1.46 -4.94,2.22 -1.97,-4.94 -5.35,-8.39 -10.37,-10.19 -4.97,-1.78 -9.79,-1.5 -14.49,1.14 -0.81,-1.71 -1.56,-3.3 -2.32,-4.89 10.69,-6.89 27.82,-1.03 32.12,11.72 z"
   id="path620" />

	<path
   class="st18"
   d="m 284.04,161.86 c -1.7,-4.66 -7.22,-6.49 -11.06,-4.05 -0.77,-1.65 -1.53,-3.3 -2.29,-4.94 5.93,-3.52 13.99,-1.1 17.32,4.6 1.12,1.92 1.11,1.92 -0.94,2.88 -1,0.48 -1.97,0.98 -3.03,1.51 z"
   id="path622" />

	<path
   class="st18"
   d="m 276.57,168.54 c -1.91,0.02 -3.41,-1.4 -3.43,-3.25 -0.02,-1.74 1.41,-3.25 3.08,-3.28 1.82,-0.03 3.53,1.44 3.56,3.06 0.03,1.95 -1.36,3.45 -3.21,3.47 z"
   id="path624" />

</g>
    </g>
  </g>
  <style
     type="text/css"
     id="style441">
	.st0{fill:#00A100;}
	.st1{fill:#00E100;}
	.st2{fill:#00FF02;}
	.st3{fill:#00D57C;}
	.st4{fill:#FFFFFF;}
	.st5{fill:#00FF00;}
	.st6{fill:#DAEDBD;}
	.st7{fill:#6FFF77;}
	.st8{fill:#ABFF83;}
	.st9{fill:#00C100;}
	.st10{fill:#ED1C24;}
	.st11{fill-rule:evenodd;clip-rule:evenodd;fill:#00DA00;}
	.st12{fill:#00DA00;}
	.st13{fill-rule:evenodd;clip-rule:evenodd;fill:#00D57C;}
	.st14{fill:#00ECAA;}
	.st15{fill:none;}
	.st16{clip-path:url(#SVGID_00000115484652895749070920000017661514405058514078_);fill:#00DA00;}
	.st17{fill:#858E37;}
	.st18{fill:#00AD11;}
	.st19{fill-rule:evenodd;clip-rule:evenodd;fill:#00AD11;}
	.st20{fill-rule:evenodd;clip-rule:evenodd;fill:#8BE8A1;}
	.st21{fill:#43434B;}
</style>
  <style
     type="text/css"
     id="style504">
	.st0{fill:#00A100;}
	.st1{fill:#00E100;}
	.st2{fill:#00FF02;}
	.st3{fill:#00D57C;}
	.st4{fill:#FFFFFF;}
	.st5{fill:#00FF00;}
	.st6{fill:#DAEDBD;}
	.st7{fill:#6FFF77;}
	.st8{fill:#ABFF83;}
	.st9{fill:#00C100;}
	.st10{fill:#ED1C24;}
	.st11{fill-rule:evenodd;clip-rule:evenodd;fill:#00DA00;}
	.st12{fill:#00DA00;}
	.st13{fill-rule:evenodd;clip-rule:evenodd;fill:#00D57C;}
	.st14{fill:#00ECAA;}
	.st15{fill:none;}
	.st16{clip-path:url(#SVGID_00000161630271094820711660000009582706813354580618_);fill:#00DA00;}
	.st17{fill:#858E37;}
	.st18{fill:#00AD11;}
	.st19{fill-rule:evenodd;clip-rule:evenodd;fill:#00AD11;}
	.st20{fill-rule:evenodd;clip-rule:evenodd;fill:#8BE8A1;}
	.st21{fill:#43434B;}
</style>
  <style
     type="text/css"
     id="style582">
	.st0{fill:#00A100;}
	.st1{fill:#00E100;}
	.st2{fill:#00FF02;}
	.st3{fill:#00D57C;}
	.st4{fill:#FFFFFF;}
	.st5{fill:#00FF00;}
	.st6{fill:#DAEDBD;}
	.st7{fill:#6FFF77;}
	.st8{fill:#ABFF83;}
	.st9{fill:#00C100;}
	.st10{fill:#ED1C24;}
	.st11{fill-rule:evenodd;clip-rule:evenodd;fill:#00DA00;}
	.st12{fill:#00DA00;}
	.st13{fill-rule:evenodd;clip-rule:evenodd;fill:#00D57C;}
	.st14{fill:#00ECAA;}
	.st15{fill:none;}
	.st16{clip-path:url(#SVGID_00000148647023234952012040000004249324473359549105_);fill:#00DA00;}
	.st17{fill:#858E37;}
	.st18{fill:#00AD11;}
	.st19{fill-rule:evenodd;clip-rule:evenodd;fill:#00AD11;}
	.st20{fill-rule:evenodd;clip-rule:evenodd;fill:#8BE8A1;}
	.st21{fill:#43434B;}
</style>
</svg>
