<?xml version="1.0" encoding="UTF-8"?>
<svg id="Layer_1" data-name="Layer 1" xmlns="http://www.w3.org/2000/svg" viewBox="0 0 46.86 48.77">
  <defs>
    <style>
      .cls-1 {
        fill: #b9f3fc;
      }

      .cls-2 {
        fill: #2192ff;
      }

      .cls-3 {
        fill: #2d388b;
      }
    </style>
  </defs>
  <path class="cls-1" d="M6.75,32.61s-2.7,1.18-2.78,4.03,.32,11.27,.32,11.27c0,0-3.41,.28-3.39-.34s-.08-11.85-.08-11.85c0,0,1.3-4,4.1-4.43l1.82,1.31Z"/>
  <path class="cls-1" d="M4.04,19.47S6.92,5.75,16.37,2.57l.62-.65S8.95,4.4,6.72,7.37C4.49,10.35,1.66,15.8,1.66,15.8c0,0-1.44,2.88-.89,3.37s3.27,.3,3.27,.3Z"/>
  <g>
    <g>
      <path class="cls-2" d="M4.5,30.86c-.52-1.49-.48-3.01-.23-4.49,.35-2.07,2.28-3.48,4.4-3.36,2.07,.13,3.8,1.83,3.93,3.91,.04,.66,.05,1.33,0,2-.04,.64-.17,1.27-.26,1.98,1.55,.6,2.76,1.7,3.55,3.41,.81-1.64,1.96-2.81,3.48-3.36-.06-1.28-.16-2.5-.16-3.71,0-2.36,1.89-4.23,4.21-4.23,2.33,0,4.22,1.86,4.23,4.21,0,1.2,.17,2.43-.38,3.64,1.66,.64,2.87,1.75,3.67,3.46,.8-1.65,1.96-2.81,3.48-3.36-.06-1.28-.16-2.5-.16-3.71,0-2.36,1.89-4.23,4.21-4.23,2.33,0,4.2,1.86,4.24,4.21,.01,.61,.04,1.22,0,1.82-.05,.6-.18,1.19-.28,1.84,.1,.05,.27,.13,.45,.22,2.29,1.14,3.55,2.98,3.59,5.55,.05,3.37,.02,6.74,.01,10.11,0,1.11-.55,1.64-1.67,1.64-14.24,0-28.48,0-42.72,0-1.16,0-1.69-.53-1.69-1.68,0-3.11,.05-6.23-.01-9.34-.06-3.09,1.24-5.25,4.13-6.51Zm26.94,16.55c.1,.03,.13,.05,.17,.05,4.42,0,8.85,0,13.27,.01,.48,0,.65-.23,.65-.69,0-3.45,.05-6.89-.03-10.34-.05-2.17-1.23-3.69-3.21-4.59-.3-.14-.5-.11-.75,.15-1.74,1.81-4.4,1.8-6.15-.02-.24-.25-.42-.26-.7-.15-1.92,.75-3.25,2.68-3.26,4.81-.01,3.46,0,6.93,0,10.39,0,.11,0,.23,.02,.37Zm-.97,.03c0-3.77,.09-7.5-.03-11.21-.07-2.09-1.32-3.54-3.24-4.38-.29-.13-.47-.09-.71,.15-1.77,1.81-4.35,1.82-6.1,.01-.26-.27-.46-.26-.76-.15-1.92,.76-3.24,2.66-3.25,4.76-.01,3.49,0,6.97,0,10.46,0,.11,.02,.22,.03,.36h14.07Zm-15.08,.02c.02-.12,.05-.18,.05-.23,0-3.6,.06-7.21-.03-10.81-.05-2.17-1.26-3.68-3.24-4.57-.31-.14-.5-.08-.75,.17-1.73,1.78-4.34,1.78-6.06,0-.27-.28-.48-.29-.8-.15-1.9,.78-3.21,2.65-3.22,4.72-.02,3.37,0,6.74,0,10.11,0,.67,.11,.76,.8,.77,1.84,0,3.68,0,5.52,0h7.73Zm-3.68-19.24h-.04c0-.34,0-.67,0-1-.04-1.84-1.5-3.28-3.31-3.27-1.79,0-3.23,1.44-3.27,3.25-.01,.65-.01,1.29,0,1.94,.03,1.7,1.29,3.08,2.96,3.26,1.66,.17,3.19-.94,3.53-2.6,.11-.51,.09-1.05,.12-1.57Zm8.4-.07s.02,0,.03,0c0,.35,0,.71,0,1.06,.06,1.77,1.5,3.19,3.26,3.2,1.79,.01,3.26-1.41,3.31-3.21,.02-.67,.02-1.33,0-2-.04-1.7-1.31-3.08-2.97-3.25-1.67-.16-3.18,.94-3.52,2.61-.1,.51-.08,1.05-.12,1.58Zm21.66,.02c0-.35,.01-.71,0-1.06-.07-1.77-1.53-3.17-3.29-3.16-1.76,0-3.22,1.41-3.28,3.18-.02,.7-.02,1.41,0,2.11,.06,1.75,1.54,3.17,3.29,3.17,1.75,0,3.22-1.42,3.28-3.18,.01-.35,0-.7,0-1.06Z"/>
      <path class="cls-2" d="M23.44,48.78c-7.12,0-14.24,0-21.36,0-1.37,0-2.06-.69-2.07-2.06,0-1,0-2,0-3,0-2.08,.02-4.22-.02-6.33-.06-3.19,1.26-5.4,4.04-6.72-.38-1.28-.42-2.67-.14-4.35,.37-2.23,2.42-3.81,4.79-3.67,2.26,.14,4.14,2.01,4.28,4.26,.04,.71,.05,1.4,0,2.04-.03,.46-.1,.9-.17,1.37-.02,.11-.04,.23-.05,.35,1.34,.58,2.39,1.54,3.15,2.84,.79-1.34,1.82-2.28,3.08-2.81-.02-.31-.03-.61-.05-.92-.05-.87-.1-1.7-.1-2.55,0-2.54,2.06-4.6,4.59-4.61h0c2.52,0,4.58,2.06,4.6,4.59,0,.21,0,.43,.01,.64,.03,.91,.06,1.85-.28,2.79,1.38,.61,2.43,1.55,3.18,2.86,.79-1.34,1.82-2.28,3.08-2.81-.02-.31-.03-.61-.05-.92-.05-.87-.1-1.7-.1-2.55,0-2.54,2.06-4.6,4.59-4.61h0c2.54,0,4.56,2.01,4.61,4.58v.33c.02,.5,.03,1.01,0,1.52-.03,.43-.11,.85-.18,1.29-.02,.1-.04,.21-.05,.31l.2,.1c2.48,1.23,3.76,3.21,3.8,5.88,.04,2.47,.03,4.99,.02,7.42v2.69c0,1.32-.72,2.02-2.06,2.02-7.12,0-14.24,0-21.36,0ZM8.4,23.38c-1.87,0-3.46,1.27-3.75,3.05-.28,1.69-.21,3.06,.22,4.3l.11,.33-.32,.14c-2.69,1.17-3.96,3.19-3.9,6.16,.04,2.12,.03,4.27,.02,6.35,0,1,0,2,0,3,0,.94,.37,1.31,1.32,1.31,14.24,0,28.48,0,42.72,0,.92,0,1.3-.37,1.3-1.27v-2.7c.02-2.43,.03-4.94-.01-7.41-.04-2.36-1.17-4.12-3.38-5.22l-.69-.34,.04-.27c.03-.2,.07-.4,.1-.6,.07-.42,.14-.82,.17-1.22,.04-.47,.02-.97,.01-1.45v-.34c-.04-2.16-1.74-3.85-3.86-3.85h0c-2.11,0-3.83,1.73-3.84,3.86,0,.82,.05,1.64,.1,2.5,.02,.39,.05,.79,.07,1.19v.27s-.25,.09-.25,.09c-1.39,.51-2.49,1.58-3.27,3.18l-.35,.71-.33-.72c-.73-1.58-1.86-2.65-3.46-3.27l-.37-.14,.17-.36c.42-.91,.39-1.84,.36-2.82,0-.22-.01-.44-.01-.66-.02-2.16-1.71-3.84-3.85-3.84h0c-2.11,0-3.83,1.73-3.84,3.86,0,.82,.05,1.64,.1,2.5,.02,.39,.05,.79,.07,1.19v.28s-.25,.09-.25,.09c-1.39,.51-2.49,1.58-3.27,3.17l-.35,.71-.33-.71c-.72-1.56-1.85-2.64-3.35-3.22l-.28-.11,.04-.29c.03-.22,.06-.44,.1-.64,.07-.45,.14-.88,.16-1.3,.04-.62,.04-1.27,0-1.95-.12-1.88-1.69-3.45-3.58-3.56-.08,0-.17,0-.25,0Zm36.49,24.46h0c-3.1,0-6.19,0-9.29,0l-4.18-.04-.25-.08-.1-.42c0-.09,0-.17,0-.25v-2.77c0-2.54,0-5.08,0-7.62,0-2.27,1.41-4.35,3.5-5.16,.32-.12,.7-.19,1.11,.24,.78,.81,1.78,1.26,2.82,1.26h0c1.03,0,2.02-.44,2.79-1.24,.36-.37,.72-.44,1.18-.24,2.19,1,3.37,2.7,3.43,4.92,.06,2.33,.05,4.69,.04,6.98,0,1.12,0,2.25,0,3.37,0,.36-.09,.62-.27,.8s-.42,.26-.75,.26Zm-13.08-.76h3.79c3.1,0,6.19,0,9.29,.01h0c.13,0,.2-.02,.22-.04,0,0,.05-.06,.05-.27,0-1.12,0-2.25,0-3.37,0-2.28,.02-4.64-.04-6.95-.05-1.95-1.05-3.38-2.99-4.26-.15-.07-.18-.08-.33,.07-.91,.95-2.09,1.47-3.33,1.47h0c-1.25,0-2.44-.53-3.36-1.49-.12-.12-.13-.12-.3-.06-1.8,.7-3.01,2.49-3.02,4.46,0,2.54,0,5.08,0,7.62v2.77s0,.03,0,.04Zm-25.72,.76H2.13c-.9,0-1.18-.27-1.18-1.14v-2.46c0-2.55,0-5.1,0-7.65,.01-2.18,1.4-4.22,3.45-5.06,.35-.14,.76-.23,1.22,.24,.76,.79,1.74,1.22,2.75,1.22h0c1.02,0,2-.43,2.76-1.22,.25-.25,.6-.51,1.17-.25,2.21,.99,3.41,2.69,3.46,4.9,.06,2.55,.05,5.14,.04,7.64,0,1.06-.01,2.12-.01,3.18,0,.08-.02,.14-.03,.21l-.08,.4H6.08Zm-4.33-.77s.12,.02,.39,.02H15.05c0-1.03,.01-2.03,.02-3.04,.01-2.5,.03-5.08-.04-7.62-.05-1.93-1.06-3.36-3.02-4.24-.13-.06-.17-.08-.33,.09-.91,.94-2.08,1.45-3.3,1.45h0c-1.22,0-2.39-.52-3.29-1.45-.15-.15-.18-.16-.39-.07-1.78,.73-2.98,2.49-2.99,4.37-.01,2.55,0,5.1,0,7.64v2.46c0,.28,.03,.35,.04,.37,0,0,0,0,0,0Zm29.1,.75h-14.79l-.04-.47c0-.09-.02-.18-.02-.26v-2.91c0-2.52,0-5.04,0-7.56,0-2.23,1.41-4.28,3.49-5.11,.34-.13,.74-.21,1.17,.24,.77,.8,1.75,1.24,2.76,1.24h0c1.02,0,2.01-.44,2.79-1.25,.34-.35,.69-.42,1.12-.23,2.2,.96,3.4,2.59,3.47,4.71,.09,2.62,.07,5.3,.05,7.88,0,1.11-.02,2.22-.02,3.34v.38Zm-14.09-.75h13.34c0-.99,0-1.98,.02-2.97,.02-2.58,.04-5.25-.05-7.85-.08-2.29-1.68-3.47-3.02-4.05-.13-.06-.15-.07-.29,.07-.93,.95-2.11,1.48-3.33,1.48h0c-1.21,0-2.38-.52-3.3-1.47-.13-.13-.15-.14-.35-.06-1.79,.71-3,2.49-3.01,4.41-.01,2.52,0,5.04,0,7.55v2.89Zm-8.36-14.27c-.13,0-.25,0-.38-.02-1.84-.19-3.26-1.75-3.29-3.62-.01-.65-.01-1.3,0-1.95,.04-2.02,1.64-3.61,3.64-3.62h.02c2.01,0,3.62,1.59,3.67,3.64,0,.22,0,.44,0,.66h.02s0,.38,0,.38c-.01,.16-.02,.32-.02,.49-.01,.37-.03,.76-.11,1.14-.36,1.72-1.85,2.92-3.56,2.92Zm-.01-8.47h-.01c-1.59,0-2.86,1.28-2.89,2.88-.01,.64-.01,1.28,0,1.92,.03,1.5,1.15,2.74,2.62,2.89,1.48,.16,2.82-.84,3.13-2.31,.07-.32,.08-.66,.09-1.01,0-.05,0-.09,0-.14h-.02s0-.67,0-.67c0-.22,0-.45,0-.67-.04-1.63-1.32-2.9-2.92-2.9Zm15.05,8.46h-.03c-1.97-.01-3.57-1.58-3.63-3.56,0-.23,0-.46,0-.69h-.02v-.4c0-.16,0-.32,.01-.48,.01-.37,.03-.76,.1-1.14,.38-1.84,2.08-3.1,3.93-2.91,1.85,.18,3.27,1.73,3.31,3.61,.01,.67,.02,1.34,0,2.02-.06,2.01-1.67,3.57-3.66,3.57Zm-2.93-4.99h0l.02,.35v.34c0,.23,0,.47,0,.7,.05,1.58,1.32,2.83,2.89,2.84h.02c1.59,0,2.87-1.24,2.91-2.84,.02-.66,.02-1.32,0-1.98-.03-1.5-1.16-2.74-2.63-2.88-1.47-.13-2.82,.85-3.12,2.32-.07,.32-.08,.66-.09,1.02,0,.04,0,.09,0,.13Zm17.98,4.99c-1.95,0-3.59-1.58-3.66-3.53-.02-.69-.02-1.41,0-2.14,.06-1.98,1.67-3.54,3.65-3.54h0c1.98,0,3.58,1.55,3.66,3.52,0,.25,0,.49,0,.74v.33s0,.33,0,.33c0,.25,0,.5,0,.74-.07,1.95-1.71,3.54-3.66,3.54h0Zm0-8.46h0c-1.55,0-2.86,1.26-2.91,2.81-.02,.71-.02,1.41,0,2.09,.05,1.55,1.36,2.81,2.91,2.81h0c1.55,0,2.85-1.27,2.91-2.82,0-.24,0-.47,0-.71v-.34s0-.34,0-.34c0-.24,0-.47,0-.71-.06-1.57-1.34-2.8-2.91-2.8Z"/>
    </g>
    <g>
      <path class="cls-2" d="M23.4,20.18c-7.07,0-14.14,0-21.21,0-1.43,0-2.02-.71-1.66-2.09C2.64,9.97,7.73,4.43,15.59,1.81c9.62-3.2,18.19-1,25.34,6.24,2.77,2.8,4.5,6.23,5.41,10.06,.33,1.38-.24,2.08-1.69,2.08-4.31,0-8.62,0-12.93,0-2.78,0-5.56,0-8.34,0Zm4.75-.96c0-.12,.02-.2,.02-.28-.2-4.23-.66-8.43-1.74-12.54-.35-1.33-.85-2.65-1.5-3.86-.85-1.59-1.99-1.58-2.9-.04-.53,.9-.95,1.89-1.28,2.88-1.15,3.54-1.61,7.21-1.9,10.9-.08,.97-.12,1.93-.18,2.93h9.47ZM21.42,1.62c-.16,.02-.29,.03-.42,.06-2.02,.46-3.8,1.42-5.38,2.75-3.12,2.63-5.09,6.01-6.29,9.85-.5,1.59-.81,3.24-1.22,4.93h9.56c.2-2.15,.33-4.25,.6-6.35,.5-3.88,1.08-7.75,3.15-11.24Zm7.77,17.6h9.43c-.01-.2,0-.38-.03-.54-.49-3.16-1.42-6.17-3.01-8.96-1.71-3-3.93-5.52-7.08-7.08-.93-.46-1.94-.75-2.97-1.14,2.92,5.66,3.08,11.73,3.66,17.72ZM16.37,2.57c-.11,0-.18-.02-.23,0C8.48,5.35,3.41,10.52,1.39,18.51c-.13,.51,.05,.72,.6,.73,.92,.01,1.84,0,2.76,0,.84,0,1.67,0,2.5,0,1.01-6.7,3.42-12.57,9.12-16.67Zm14.1-.02c5.75,4.13,8.14,10.01,9.16,16.66,.14,.01,.28,.03,.41,.03,1.59,0,3.17,0,4.76,0,.68,0,.83-.18,.65-.87-2.03-7.89-7.06-13-14.62-15.77-.08-.03-.18-.03-.35-.06Z"/>
      <path class="cls-2" d="M36.05,20.56H2.19c-.85,0-1.46-.23-1.81-.69-.35-.45-.42-1.08-.21-1.87C2.33,9.68,7.48,4.11,15.48,1.45,25.2-1.78,33.85,.35,41.21,7.78c2.69,2.72,4.55,6.17,5.51,10.24,.19,.8,.11,1.42-.24,1.86-.35,.45-.96,.68-1.81,.68h-8.62ZM23.97,.74c-2.65,0-5.41,.47-8.25,1.42C7.97,4.74,2.98,10.13,.89,18.18c-.15,.56-.12,.97,.08,1.23,.25,.33,.8,.4,1.22,.4H44.66c.61,0,1.02-.13,1.22-.39,.2-.25,.23-.67,.1-1.23-.93-3.94-2.72-7.26-5.31-9.88C35.69,3.27,30.1,.74,23.97,.74ZM3.11,19.62c-.38,0-.75,0-1.13,0-.15,0-.6,0-.85-.33-.17-.21-.2-.5-.11-.87C3.01,10.55,8.05,5.1,16.01,2.22c.1-.04,.2-.04,.27-.03,.16,0,.35,.11,.4,.26,.05,.16,.04,.33-.1,.42-4.96,3.57-7.81,8.79-8.97,16.42-.03,.18-.19,.32-.37,.32H3.93c-.27,0-.55,0-.82,0Zm-1.38-.79s.07,.03,.26,.04c.65,0,1.29,0,1.94,0h3c1.07-6.73,3.46-11.62,7.44-15.18C7.76,6.62,3.51,11.63,1.75,18.6c-.04,.16-.03,.22-.02,.23h0Zm40.84,.79c-.85,0-1.69,0-2.54,0-.1,0-.2,0-.3-.02h-.13c-.17-.02-.32-.16-.34-.33-1.17-7.62-4.03-12.84-9.01-16.42-.14-.1-.19-.29-.13-.45,.07-.16,.23-.26,.4-.23l.15,.02c.09,.01,.18,.02,.28,.06,7.86,2.88,12.86,8.27,14.86,16.03,.09,.34,.15,.73-.07,1.01-.22,.28-.6,.32-.94,.32-.74,0-1.48,0-2.22,0Zm-2.62-.75s.06,0,.09,0c1.58,0,3.17,0,4.75,0,.26,0,.34-.03,.36-.04-.01,0,0-.1-.07-.36-1.77-6.9-6.01-11.87-12.61-14.79,4,3.57,6.4,8.46,7.48,15.19Zm-11.8,.73h-9.47c-.1,0-.2-.04-.27-.12-.07-.08-.11-.18-.1-.28l.05-.93c.04-.67,.07-1.34,.12-2,.26-3.33,.69-7.25,1.91-10.99,.36-1.09,.8-2.09,1.31-2.96,.66-1.12,1.33-1.38,1.82-1.34,.46,0,1.13,.26,1.74,1.39,.65,1.2,1.16,2.53,1.53,3.94,.96,3.64,1.52,7.65,1.75,12.61,0,.07,0,.13-.01,.21v.11c-.03,.2-.19,.35-.38,.35Zm-9.08-.75h8.72c-.24-4.86-.78-8.78-1.72-12.34-.36-1.36-.85-2.63-1.47-3.78-.34-.63-.73-.99-1.09-1-.34,.03-.78,.34-1.16,.97-.49,.82-.91,1.77-1.25,2.81-1.19,3.67-1.62,7.52-1.88,10.82-.05,.66-.09,1.32-.12,1.99l-.03,.54Zm19.55,.74h-9.43c-.19,0-.35-.15-.37-.34-.08-.79-.15-1.59-.21-2.38-.44-5.09-.9-10.36-3.4-15.2-.07-.14-.05-.31,.05-.42,.1-.12,.27-.16,.41-.1,.32,.12,.64,.23,.96,.34,.71,.25,1.38,.48,2.04,.81,2.92,1.44,5.29,3.8,7.24,7.23,1.53,2.68,2.53,5.65,3.06,9.09,.02,.13,.03,.26,.03,.4v.18c.01,.1-.03,.2-.1,.28-.07,.08-.17,.12-.27,.12Zm-9.09-.75h8.7s0-.07-.01-.11c-.52-3.34-1.49-6.23-2.97-8.83-1.87-3.29-4.14-5.56-6.92-6.92-.62-.3-1.27-.53-1.96-.77-.03-.01-.06-.02-.1-.03,2.21,4.74,2.65,9.77,3.07,14.64,.06,.68,.12,1.36,.18,2.03Zm-11.86,.74H8.1c-.12,0-.22-.05-.29-.14s-.1-.21-.07-.32c.13-.53,.25-1.05,.37-1.57,.27-1.17,.52-2.27,.87-3.38,1.32-4.23,3.42-7.51,6.4-10.03,1.68-1.42,3.55-2.37,5.54-2.82,.1-.02,.21-.04,.32-.05l.13-.02c.14-.01,.28,.05,.36,.17,.08,.12,.08,.28,0,.4-1.98,3.33-2.58,7-3.1,11.09-.18,1.42-.31,2.89-.43,4.31-.06,.67-.11,1.35-.18,2.03-.02,.19-.18,.34-.37,.34Zm-9.08-.75h8.74c.05-.56,.1-1.12,.14-1.68,.12-1.43,.24-2.9,.43-4.34,.5-3.9,1.07-7.41,2.8-10.67-1.73,.46-3.36,1.32-4.84,2.57-2.87,2.42-4.89,5.58-6.17,9.68-.34,1.08-.59,2.17-.85,3.32-.08,.37-.17,.74-.26,1.12Z"/>
    </g>
    <g>
      <path class="cls-3" d="M7.52,42.33c.14-.05,.25-.06,.32-.12,1.54-1.53,3.09-3.06,4.6-4.62,.1-.1,.05-.47-.06-.61-.08-.1-.39-.07-.57-.02-.13,.04-.23,.2-.34,.31-1.11,1.11-2.21,2.22-3.33,3.32-.47,.47-.64,.46-1.11-.01-.38-.37-.75-.74-1.12-1.12-.25-.25-.56-.41-.79-.09-.11,.15-.03,.58,.12,.74,.6,.67,1.25,1.29,1.9,1.92,.12,.12,.27,.2,.4,.3Z"/>
      <path class="cls-3" d="M7.46,42.75l-.27-.19c-.12-.08-.23-.16-.33-.26l-.36-.35c-.52-.51-1.06-1.03-1.55-1.59-.23-.25-.38-.87-.14-1.21,.18-.25,.4-.32,.55-.33,.27-.01,.54,.11,.81,.38,.37,.38,.74,.74,1.12,1.12,.21,.21,.29,.24,.31,.25,0,0,.07-.03,.28-.24,.72-.71,1.44-1.43,2.15-2.15l1.25-1.25c.1-.11,.23-.27,.44-.33,.16-.04,.71-.16,.96,.15,.2,.25,.3,.83,.04,1.11-1.44,1.48-2.91,2.93-4.37,4.39l-.24,.23c-.11,.11-.24,.15-.35,.17l-.29,.1Zm-2.05-3.18s.05,.24,.1,.3c.48,.53,1,1.05,1.51,1.55l.36,.36c.06,.06,.12,.1,.19,.14l.23-.2c1.45-1.43,2.89-2.87,4.31-4.32,0-.03,0-.06-.01-.09-.06,0-.13,.01-.21,.03,.01,0-.04,.05-.07,.09-.04,.04-.07,.08-.11,.12l-1.17,1.17c-.72,.72-1.43,1.44-2.15,2.15-.61,.61-1.01,.61-1.64,0-.38-.37-.76-.75-1.13-1.12-.14-.15-.22-.16-.22-.16Zm6.77-2.24h0s0,0,0,0Z"/>
    </g>
    <g>
      <path class="cls-3" d="M22.38,42.33c.14-.05,.25-.06,.32-.12,1.54-1.53,3.09-3.06,4.6-4.62,.1-.1,.05-.47-.06-.61-.08-.1-.39-.07-.57-.02-.13,.04-.23,.2-.34,.31-1.11,1.11-2.21,2.22-3.33,3.32-.47,.47-.64,.46-1.11-.01-.38-.37-.75-.74-1.12-1.12-.25-.25-.56-.41-.79-.09-.11,.15-.03,.58,.12,.74,.6,.67,1.25,1.29,1.9,1.92,.12,.12,.27,.2,.4,.3Z"/>
      <path class="cls-3" d="M22.32,42.75l-.27-.19c-.12-.08-.23-.16-.33-.26l-.36-.35c-.52-.51-1.06-1.03-1.55-1.59-.23-.25-.38-.87-.14-1.21,.18-.25,.4-.32,.55-.33,.27-.01,.54,.11,.81,.38,.37,.38,.74,.74,1.12,1.12,.21,.21,.29,.24,.31,.25,0,0,.07-.03,.28-.24,.72-.71,1.44-1.43,2.15-2.15l1.25-1.25c.1-.11,.23-.27,.44-.33,.16-.04,.71-.16,.96,.15,.2,.25,.3,.83,.04,1.11-1.44,1.48-2.91,2.93-4.37,4.39l-.24,.23c-.11,.11-.24,.15-.35,.17l-.29,.1Zm-2.05-3.18s.05,.24,.1,.3c.48,.53,1,1.05,1.51,1.55l.36,.36c.06,.06,.12,.1,.19,.14l.23-.2c1.45-1.43,2.89-2.87,4.31-4.32,0-.03,0-.06-.01-.09-.06,0-.13,.01-.21,.03,.01,0-.04,.05-.07,.09-.04,.04-.07,.08-.11,.12l-1.17,1.17c-.72,.72-1.43,1.44-2.15,2.15-.61,.61-1.01,.61-1.64,0-.38-.37-.76-.75-1.13-1.12-.14-.15-.22-.16-.22-.16Zm6.77-2.24h0s0,0,0,0Z"/>
    </g>
    <g>
      <path class="cls-3" d="M37.23,42.33c.14-.05,.25-.06,.32-.12,1.54-1.53,3.09-3.06,4.6-4.62,.1-.1,.05-.47-.06-.61-.08-.1-.39-.07-.57-.02-.13,.04-.23,.2-.34,.31-1.11,1.11-2.21,2.22-3.33,3.32-.47,.47-.64,.46-1.11-.01-.38-.37-.75-.74-1.12-1.12-.25-.25-.56-.41-.79-.09-.11,.15-.03,.58,.12,.74,.6,.67,1.25,1.29,1.9,1.92,.12,.12,.27,.2,.4,.3Z"/>
      <path class="cls-3" d="M37.17,42.75l-.27-.19c-.11-.08-.23-.16-.33-.26l-.36-.35c-.52-.51-1.06-1.03-1.55-1.59-.23-.25-.38-.87-.14-1.21,.18-.25,.4-.32,.55-.33,.27-.01,.54,.11,.81,.38,.37,.38,.74,.74,1.12,1.12,.21,.21,.29,.24,.31,.25,0,0,.07-.03,.28-.24l3.4-3.4c.1-.11,.23-.27,.44-.33,.16-.04,.71-.16,.96,.15,.2,.25,.3,.83,.04,1.11-1.44,1.48-2.91,2.93-4.37,4.39l-.24,.23c-.11,.11-.24,.15-.35,.17l-.29,.1Zm-2.05-3.18s.05,.24,.1,.3c.48,.53,1,1.05,1.51,1.55l.36,.36c.06,.06,.12,.1,.19,.14l.23-.2c1.45-1.43,2.89-2.87,4.31-4.32,0-.03,0-.06-.01-.09-.06,0-.13,.01-.21,.03,.01,0-.04,.05-.07,.09-.04,.04-.07,.08-.11,.12l-3.33,3.32c-.62,.61-1.01,.61-1.64,0-.38-.37-.76-.75-1.13-1.12-.14-.15-.22-.16-.22-.16Zm6.77-2.24h0s0,0,0,0Z"/>
    </g>
  </g>
</svg>