<svg width="62" height="65" viewBox="0 0 62 65" fill="none" xmlns="http://www.w3.org/2000/svg">
<g clip-path="url(#clip0_244_3037)">
<path d="M42.662 39.295L34.38 48.2858C34.38 48.2858 33.7209 49.1439 33.7209 51.1957C33.7209 53.26 33.6836 59.7389 33.6836 59.7389L30.4131 59.7762L30.4504 51.1087L31.2711 47.4154L38.6578 39.9914C38.6578 39.9914 40.4485 37.3551 42.662 39.295Z" fill="#B3FFAE"/>
<path d="M2.75639 34.0596L2.66935 42.8887C2.66935 42.8887 2.20924 44.8162 4.87042 46.1095C7.53161 47.3904 15.739 53.1977 15.739 53.1977C15.739 53.1977 16.6344 54.118 16.6344 55.3988C16.6344 56.6797 16.5473 59.6144 16.5473 59.6144L14.3089 59.689L14.0602 55.4734C14.0602 55.4734 12.7794 53.633 10.4788 52.3521C8.17825 51.0713 0.642368 45.3634 0.642368 45.3634L0.368788 38.5612C0.368788 38.5612 -0.277856 34.2337 2.75639 34.0596Z" fill="#B3FFAE"/>
<path d="M42.9353 59.5523C42.5125 59.5523 42.1892 59.5523 41.841 59.5523C41.841 58.3709 41.7539 57.202 41.8659 56.0579C41.9902 54.802 42.7861 53.9066 43.8307 53.2102C47.4494 50.8226 51.0308 48.3853 54.6619 46.0101C55.4827 45.4754 55.8309 44.8039 55.8184 43.8339C55.7811 41.3965 55.806 38.9592 55.806 36.5218C55.806 35.2534 55.1221 34.4327 54.065 34.4327C53.0329 34.4327 52.2992 35.2659 52.2992 36.5094C52.2868 38.412 52.2868 40.3147 52.2992 42.2173C52.3116 43.0878 51.951 43.6971 51.2049 44.1323C48.5313 45.6868 45.8825 47.2785 43.2089 48.8329C41.928 49.5791 40.498 49.3428 39.6648 48.2609C38.8565 47.2039 38.9684 45.8111 39.9881 44.7417C40.7591 43.9334 41.5674 43.1624 42.3633 42.3541C43.2338 41.4712 43.3208 40.3395 42.5871 39.5561C41.841 38.7478 40.6223 38.7602 39.7145 39.6431C37.501 41.8318 35.2999 44.0453 33.1113 46.2712C31.7931 47.6018 31.1962 49.206 31.2211 51.0962C31.2584 53.8942 31.2336 56.6922 31.2336 59.5399C30.8356 59.5399 30.4874 59.5399 30.1019 59.5399C30.0895 59.316 30.0646 59.1046 30.0646 58.8932C30.0646 56.232 30.0771 53.5833 30.0646 50.9221C30.0522 48.8454 30.7361 47.0422 32.1786 45.5624C34.4295 43.2619 36.6927 40.9862 38.9933 38.7354C40.2741 37.4794 42.2141 37.4918 43.3954 38.6981C44.5892 39.9292 44.5519 41.782 43.2835 43.0878C42.5249 43.8712 41.7291 44.6298 40.9581 45.4132C40.2368 46.1593 40.1125 46.9428 40.6223 47.5645C41.1322 48.1863 41.8907 48.2485 42.7861 47.7138C45.3478 46.2091 47.8971 44.6919 50.4712 43.1997C50.9562 42.9261 51.1427 42.5903 51.1303 42.0308C51.1054 40.0784 51.093 38.126 51.1303 36.1861C51.1551 34.6441 52.3365 33.3881 53.779 33.2638C55.2588 33.1394 56.5646 34.0969 56.8879 35.5643C56.9501 35.8503 56.9625 36.1488 56.9625 36.4348C56.9625 38.9716 56.9501 41.5085 56.9749 44.0329C56.9874 45.264 56.49 46.1718 55.4702 46.8557C51.8764 49.2309 48.3074 51.6558 44.7011 54.0061C43.4576 54.8144 42.8234 55.859 42.9229 57.3512C42.9726 58.06 42.9353 58.7689 42.9353 59.5523Z" fill="#5FB257"/>
<path d="M42.9354 60.0253H41.8411C41.58 60.0253 41.3686 59.8139 41.3686 59.5528C41.3686 59.1922 41.3561 58.844 41.3561 58.4833C41.3313 57.675 41.3188 56.8294 41.4059 56.0087C41.5302 54.7527 42.2391 53.7081 43.5821 52.8252C45.0495 51.8552 46.5044 50.8728 47.9718 49.9029C50.1107 48.4728 52.262 47.0427 54.4134 45.6251C55.0973 45.1774 55.3709 44.6551 55.3585 43.8344C55.3336 42.2053 55.3336 40.5763 55.346 38.9472C55.346 38.1389 55.346 37.3182 55.346 36.5099C55.346 35.4902 54.8735 34.8933 54.0776 34.8809C53.7419 34.8933 53.4558 34.9928 53.232 35.2166C52.946 35.5026 52.7843 35.9627 52.7719 36.4975V36.883C52.7595 38.6488 52.7595 40.4271 52.7719 42.1929C52.7843 43.225 52.3491 43.9836 51.4537 44.5183C50.1356 45.2893 48.8174 46.0728 47.4993 46.8438C46.1562 47.6396 44.8008 48.4355 43.4577 49.2189C41.9904 50.077 40.2867 49.791 39.3167 48.535C38.3592 47.2914 38.5084 45.6375 39.6774 44.4064C40.1375 43.9214 40.61 43.4489 41.095 42.9763C41.4183 42.653 41.7416 42.3421 42.0525 42.0188C42.7489 41.31 42.8235 40.4644 42.2639 39.8675C42.0028 39.5815 41.667 39.4322 41.294 39.4322C40.8339 39.3949 40.4235 39.6188 40.0629 39.9794C37.8493 42.168 35.6483 44.3815 33.4596 46.595C32.2534 47.8137 31.6814 49.2935 31.7062 51.0842C31.7311 53.0366 31.7311 55.0014 31.7187 56.9662V59.5279C31.7187 59.7891 31.5073 60.0005 31.2461 60.0005H30.1145C29.8658 60.0005 29.6668 59.8015 29.6544 59.5652L29.6419 59.3663C29.6295 59.2046 29.6171 59.0429 29.6171 58.8937V56.3693C29.6171 54.5537 29.6171 52.7382 29.6046 50.935C29.5922 48.7091 30.3508 46.794 31.8555 45.252C34.3177 42.7401 36.5436 40.5017 38.6701 38.4125C39.3913 37.7037 40.3364 37.2933 41.2815 37.3431C42.2142 37.3555 43.0847 37.7286 43.7313 38.4001C45.1241 39.8302 45.0743 41.9442 43.6194 43.4364C43.209 43.8592 42.7987 44.2696 42.3883 44.68C42.0277 45.0406 41.667 45.4012 41.3064 45.7743C40.9209 46.1722 40.5603 46.7567 40.9955 47.3039C41.1199 47.4655 41.5302 47.9629 42.5624 47.3536L45.0122 45.9111C46.7531 44.879 48.4941 43.8592 50.2475 42.8395C50.5832 42.6406 50.6827 42.4665 50.6827 42.081C50.6454 39.8923 50.6454 37.9648 50.6827 36.2114C50.72 34.4705 52.0631 32.9782 53.7543 32.8414C55.4704 32.6922 56.9875 33.8114 57.3606 35.5026C57.4352 35.8259 57.4476 36.1617 57.4476 36.4726V39.3576C57.4476 40.9245 57.4476 42.4913 57.4601 44.0706C57.4725 45.4634 56.9129 46.508 55.744 47.279C54.4134 48.1619 53.0828 49.0573 51.7397 49.9402C49.4889 51.4449 47.2381 52.9496 44.9624 54.4294C43.7935 55.1879 43.3085 56.0833 43.3956 57.3517C43.4329 57.8367 43.4204 58.3341 43.408 58.844C43.408 59.0802 43.3956 59.3165 43.3956 59.5652C43.3956 59.8139 43.1842 60.0253 42.9354 60.0253ZM42.3012 59.0927H42.4753C42.4753 59.0056 42.4753 58.9061 42.4753 58.8191C42.4878 58.3341 42.4878 57.8616 42.4629 57.4015C42.3634 55.8097 43.0101 54.5786 44.4526 53.6335C46.7158 52.1537 48.9666 50.649 51.2175 49.1443C52.548 48.249 53.8786 47.366 55.2217 46.4707C56.117 45.8738 56.5274 45.1028 56.515 44.0458C56.5025 42.4789 56.5025 40.8996 56.5025 39.3327V36.4477C56.5025 36.1493 56.4901 35.9006 56.4403 35.6767C56.1668 34.4456 55.0973 33.6373 53.8165 33.7368C52.5978 33.8363 51.6154 34.9306 51.5905 36.199C51.5532 37.94 51.5532 39.855 51.5905 42.0312C51.603 42.7525 51.3294 43.2499 50.6952 43.6105C48.9418 44.6178 47.2132 45.65 45.4723 46.6821L43.0225 48.1246C41.9157 48.7713 40.9209 48.6718 40.2618 47.8635C39.6027 47.0427 39.7395 46.0106 40.6225 45.0904C40.9831 44.7173 41.3561 44.3567 41.7168 43.996C42.1271 43.5857 42.5375 43.1753 42.9479 42.7649C44.0298 41.6457 44.0795 40.0789 43.0598 39.0219C42.5873 38.5369 41.953 38.2633 41.2691 38.2509C40.5354 38.2633 39.8639 38.5244 39.3167 39.0592C37.1903 41.1483 34.9643 43.3743 32.5145 45.8862C31.1839 47.2417 30.5124 48.9329 30.5249 50.9101C30.5373 52.7257 30.5373 54.5413 30.5373 56.3569V58.8813C30.5373 58.9434 30.5373 59.0056 30.5373 59.0678H30.7736V56.9662C30.7736 55.0014 30.786 53.049 30.7611 51.0967C30.7363 49.0697 31.4078 47.3287 32.7881 45.936C34.9768 43.71 37.1778 41.4965 39.4038 39.3079C39.9509 38.7731 40.6722 38.4747 41.3064 38.4996C41.9282 38.512 42.5002 38.7731 42.9354 39.2333C43.8432 40.2032 43.7438 41.6209 42.7116 42.6779C42.3883 43.0012 42.065 43.3245 41.7416 43.6478C41.2691 44.108 40.809 44.5805 40.3489 45.0531C39.4908 45.9484 39.3789 47.0925 40.0504 47.9629C40.7344 48.8583 41.9157 49.0324 42.9852 48.4106C44.3282 47.6272 45.6837 46.8313 47.0267 46.0355C48.3449 45.2645 49.663 44.481 50.9812 43.71C51.5905 43.3494 51.8517 42.9017 51.8392 42.2053C51.8144 40.4271 51.8268 38.6488 51.8392 36.8705V36.485C51.8392 35.7016 52.1004 35.0052 52.5729 34.5451C52.9709 34.1472 53.4807 33.9482 54.0652 33.9482H54.0776C55.3958 33.9606 56.2787 34.9803 56.2787 36.5099C56.2787 37.3182 56.2787 38.1389 56.2787 38.9472C56.2787 40.5639 56.2663 42.1929 56.2911 43.8095C56.316 44.9411 55.8807 45.7619 54.9232 46.3836C52.7719 47.8013 50.633 49.2314 48.4941 50.6614C47.0267 51.6438 45.5718 52.6138 44.1044 53.5838C42.9976 54.3175 42.438 55.1133 42.3385 56.0833C42.2639 56.8543 42.2764 57.6253 42.3012 58.446C42.2888 58.6699 42.2888 58.8813 42.3012 59.0927Z" fill="#5FB257"/>
<path d="M14.8563 59.5656C14.4335 59.5656 14.1102 59.5656 13.6874 59.5656C13.6874 58.7698 13.6625 57.9739 13.6874 57.178C13.7371 55.835 13.1899 54.865 12.0583 54.1313C8.47691 51.781 4.9328 49.3686 1.35139 47.0183C0.157588 46.2348 -0.402007 45.2276 -0.377136 43.7975C-0.327395 41.3601 -0.364701 38.9228 -0.364701 36.4854C-0.364701 34.5828 0.841538 33.2646 2.55763 33.2646C4.24885 33.2646 5.46753 34.6201 5.47996 36.5227C5.4924 38.3756 5.4924 40.2285 5.46753 42.0814C5.45509 42.6161 5.64162 42.927 6.10173 43.2006C8.71318 44.7177 11.3122 46.2597 13.9112 47.7893C14.7568 48.2867 15.5154 48.1872 16.0004 47.553C16.4605 46.9561 16.3734 46.1851 15.7143 45.5136C14.9309 44.7053 14.1226 43.9343 13.3392 43.126C12.0334 41.7954 11.9961 39.9176 13.2272 38.6865C14.4211 37.4927 16.3361 37.4927 17.6294 38.7611C19.9051 40.9995 22.1559 43.2628 24.3943 45.5384C25.8617 47.0307 26.5581 48.8463 26.5332 50.9603C26.5083 53.808 26.5332 56.6557 26.5332 59.5408C26.1352 59.5408 25.7871 59.5408 25.3642 59.5408C25.3642 59.2547 25.3642 58.9936 25.3642 58.7325C25.3642 56.1459 25.3394 53.5717 25.3767 50.9852C25.3891 49.2193 24.842 47.6649 23.6109 46.4089C21.3849 44.1208 19.1217 41.87 16.846 39.6316C15.963 38.7611 14.7941 38.7611 14.0356 39.5321C13.277 40.3031 13.3392 41.4472 14.1972 42.3301C14.9558 43.1135 15.7516 43.8721 16.5226 44.6555C17.617 45.7871 17.7538 47.2048 16.9081 48.2867C16.0625 49.3686 14.6449 49.5675 13.3019 48.7717C10.7029 47.2421 8.10384 45.7001 5.4924 44.183C4.67166 43.7104 4.28616 43.0638 4.29859 42.1063C4.3359 40.2782 4.31103 38.4502 4.31103 36.6222C4.31103 36.3362 4.29859 36.0378 4.22398 35.7517C3.97527 34.8688 3.20427 34.3341 2.3711 34.4336C1.52549 34.5331 0.841538 35.217 0.829102 36.1124C0.804231 38.8606 0.804231 41.6213 0.816667 44.3695C0.816667 45.1032 1.27678 45.5509 1.86124 45.9364C5.41778 48.2867 8.93702 50.6867 12.5184 53.0121C14.1475 54.0692 14.9682 55.4495 14.8563 57.4019C14.819 58.0982 14.8563 58.8071 14.8563 59.5656Z" fill="#5FB257"/>
<path d="M14.8561 60.0371H13.6872C13.426 60.0371 13.2146 59.8257 13.2146 59.5645V58.8309C13.2146 58.2713 13.2022 57.7117 13.2271 57.1645C13.2768 56.008 12.8416 55.1873 11.8094 54.5157C10.1058 53.3966 8.40212 52.2649 6.69846 51.1209C4.83315 49.8773 2.96783 48.6338 1.09008 47.4027C-0.265389 46.5198 -0.874726 45.3633 -0.849855 43.7715C-0.812549 42.13 -0.824984 40.4886 -0.824984 38.8471C-0.824984 38.0512 -0.83742 37.2678 -0.824984 36.4719C-0.824984 35.4149 -0.501663 34.5071 0.12011 33.8356C0.729447 33.1641 1.59993 32.791 2.56989 32.791C2.56989 32.791 2.56989 32.791 2.58233 32.791C4.5347 32.791 5.95234 34.3579 5.96477 36.5092V37.2553C5.96477 38.8595 5.97721 40.4637 5.95234 42.0679C5.95234 42.4285 6.03938 42.5902 6.35027 42.7767C7.99175 43.7342 9.63323 44.6917 11.2747 45.6617L14.1597 47.3654C14.6074 47.6265 15.2167 47.813 15.652 47.2534C16.0872 46.6814 15.6893 46.1094 15.4033 45.8234C14.968 45.3757 14.5204 44.928 14.0851 44.4928C13.7369 44.1446 13.3887 43.7964 13.0405 43.4358C11.5732 41.9435 11.5234 39.7424 12.9286 38.3372C14.309 36.9445 16.5349 36.9818 17.9899 38.4118C20.2655 40.6502 22.5164 42.9135 24.7672 45.1892C26.2967 46.7436 27.0553 48.6711 27.0429 50.9343C27.0304 52.9364 27.0304 54.9386 27.0304 56.9531V59.5148C27.0304 59.7759 26.819 59.9873 26.5579 59.9873H25.3889C25.1278 59.9873 24.9164 59.7759 24.9164 59.5148V56.4184C24.9164 54.6028 24.904 52.7748 24.9288 50.9592C24.9413 49.2431 24.419 47.8503 23.2998 46.7063C21.1982 44.555 18.9847 42.329 16.5473 39.929C16.1991 39.5808 15.7639 39.3694 15.366 39.3942C15.0053 39.3942 14.6696 39.5435 14.396 39.817C13.824 40.4015 13.8862 41.272 14.5577 41.9684C14.9307 42.3539 15.3038 42.7269 15.6893 43.1C16.0872 43.4979 16.4852 43.8959 16.8831 44.2938C18.1391 45.5995 18.3007 47.2659 17.2935 48.5343C16.2986 49.7903 14.6074 50.039 13.0778 49.1312L10.2301 47.4524C8.57622 46.4824 6.93474 45.5 5.28082 44.5425C4.29842 43.9705 3.83831 43.1622 3.86318 42.0554C3.88805 40.588 3.88805 39.1207 3.87562 37.6408V36.5838C3.87562 36.3476 3.86318 36.074 3.801 35.8377C3.61447 35.1786 3.07975 34.7807 2.44554 34.8553C1.81133 34.9299 1.32635 35.4522 1.31391 36.074C1.28904 38.8222 1.28904 41.5829 1.31391 44.3311C1.31391 44.7912 1.55019 45.1145 2.14709 45.5125C3.40307 46.3457 4.65905 47.1913 5.91503 48.0244C8.20315 49.554 10.4913 51.0836 12.7918 52.5758C14.6198 53.7696 15.453 55.3365 15.3411 57.3759C15.3162 57.8484 15.3162 58.3086 15.3287 58.806V59.5272C15.3287 59.8257 15.1173 60.0371 14.8561 60.0371ZM14.1473 59.1044H14.3836V58.8682C14.3711 58.3583 14.3711 57.8609 14.396 57.3759C14.4955 55.6722 13.8115 54.4163 12.2695 53.409C9.95655 51.9043 7.66843 50.3747 5.38031 48.8452C4.12433 48.012 2.86834 47.1664 1.61236 46.3332C1.0279 45.9477 0.368819 45.3757 0.356383 44.3809C0.343948 41.6202 0.331513 38.872 0.356383 36.1113C0.368819 35.017 1.20199 34.0967 2.30875 33.9724C3.3782 33.848 4.3606 34.532 4.67148 35.6263C4.77097 35.9621 4.7834 36.3227 4.7834 36.6087V37.6657C4.79584 39.1455 4.79584 40.6253 4.77097 42.1052C4.75853 42.8886 5.03211 43.3736 5.7285 43.7715C7.38241 44.729 9.03633 45.7115 10.6902 46.6814L13.538 48.3602C14.682 49.0317 15.8385 48.8825 16.5473 47.9871C17.2562 47.0793 17.1194 45.9353 16.1991 44.9653C15.8136 44.5674 15.4157 44.1695 15.0178 43.784C14.6323 43.3985 14.2468 43.0254 13.8737 42.6399C12.8291 41.5704 12.767 40.1528 13.7121 39.1828C14.1597 38.7352 14.7318 38.4865 15.3411 38.4865H15.3535C16.0126 38.4865 16.6593 38.7725 17.1815 39.2823C19.6189 41.6948 21.8324 43.9083 23.9464 46.0721C25.2273 47.3778 25.8615 49.0317 25.8366 50.9841C25.8242 52.7997 25.8242 54.6152 25.8242 56.4308V59.0671H26.0605V56.978C26.0605 54.9634 26.048 52.9489 26.0729 50.9468C26.0853 48.9074 25.4263 47.2534 24.0584 45.8607C21.82 43.585 19.5692 41.3217 17.2935 39.0834C16.1991 38.0015 14.5825 37.9642 13.5504 38.9963C12.5058 40.0533 12.5556 41.6451 13.6748 42.7767C14.0229 43.1249 14.3711 43.4731 14.7193 43.8213C15.167 44.2689 15.6147 44.7166 16.0499 45.1643C16.8582 45.9975 16.9826 47.0172 16.3608 47.813C15.7266 48.6338 14.6945 48.7706 13.6623 48.1612L10.7773 46.4576C9.13581 45.4876 7.50677 44.5301 5.86529 43.5726C5.25595 43.2244 4.99481 42.7518 5.00724 42.043C5.03211 40.4513 5.01968 38.8471 5.01968 37.2429V36.4968C5.01968 34.8553 3.99997 33.7112 2.56989 33.7112C1.86107 33.7112 1.25174 33.9724 0.816495 34.4574C0.356383 34.9548 0.12011 35.6512 0.12011 36.4719C0.12011 37.2678 0.12011 38.0512 0.12011 38.8471C0.132545 40.501 0.132545 42.1425 0.095239 43.7964C0.0703681 45.0524 0.53048 45.9229 1.61236 46.6192C3.49012 47.8503 5.35543 49.0939 7.22075 50.3374C8.92441 51.4691 10.6156 52.6007 12.3193 53.7199C13.6126 54.5655 14.2095 55.6971 14.1473 57.1769C14.1224 57.7117 14.1349 58.2588 14.1349 58.806L14.1473 59.1044Z" fill="#5FB257"/>
<path d="M43.8437 18.7521C45.5847 18.1428 46.6417 16.9241 46.9899 15.1086C47.0023 15.0339 47.0272 14.9718 47.0521 14.9096V10.5945C46.8655 10.3209 46.6914 10.0225 46.48 9.76132C44.7142 7.63486 42.9359 5.52083 41.1825 3.38193C40.7846 2.89695 40.3494 2.68555 39.7151 2.68555C32.1046 2.69798 24.4942 2.69798 16.8837 2.68555C16.3365 2.68555 15.9386 2.87208 15.5904 3.29488C13.7499 5.52083 11.9095 7.74677 10.0566 9.94785C9.77058 10.2836 9.63379 10.6442 9.63379 11.0795C9.64622 12.1365 9.63379 13.1935 9.64622 14.263C9.65866 16.4143 10.8773 18.0931 12.9167 18.7895C13.0162 18.8268 13.153 18.976 13.153 19.063C13.1655 20.6299 13.1655 20.5055 13.1655 22.1346H12.8048C12.1458 22.1346 11.4867 22.1346 10.8276 22.1346C10.1188 22.147 9.65866 22.5947 9.65866 23.3035C9.65866 24.8206 9.65866 26.3502 9.65866 27.8673C9.65866 28.5637 10.0939 28.999 10.7903 29.0238C11.1758 29.0363 11.5613 29.0238 11.9965 29.0238V29.4839C11.9965 31.3493 12.009 33.7866 11.9965 34.6944H14.21C14.21 33.1027 14.21 31.2125 14.21 29.0487H21.4848C21.5221 28.3896 21.6464 27.7305 21.8578 27.1088C21.8827 27.0093 21.8827 26.8974 21.92 26.7979H11.8722V24.3481H23.0641C23.7978 23.3408 24.8175 22.545 26.1356 22.1097H15.3914C15.3914 20.4558 15.3914 20.518 15.3914 18.9014C15.8391 18.69 16.2868 18.5283 16.6847 18.2796C17.0826 18.0309 17.4308 17.7076 17.8288 17.3967C18.7365 18.3915 19.9055 18.976 21.2982 18.976C22.7034 18.976 23.8724 18.4164 24.8423 17.3594C25.7874 18.404 26.9439 18.976 28.3491 18.976C29.7543 18.976 30.9233 18.4164 31.8808 17.3594C32.8259 18.404 33.9948 18.976 35.3876 18.976C36.7928 18.976 37.9617 18.4164 38.9193 17.3594C39.0685 17.4962 39.2053 17.633 39.3421 17.7573C39.8519 18.2299 40.4364 18.5532 41.0955 18.777C41.195 18.8143 41.3442 18.9511 41.3442 19.0506C41.3566 20.605 41.3442 20.4682 41.3442 22.0227C41.3442 22.0475 41.3193 22.06 41.3069 22.1097H30.8114C32.1295 22.545 33.1492 23.3408 33.8829 24.3481H44.8386V26.7979H35.027C35.2135 27.5316 35.2881 28.2901 35.2757 29.0487H42.5131C42.5131 31.2125 42.5131 33.0778 42.5131 34.6944H44.7142C44.7018 33.7742 44.7142 31.3368 44.7142 29.4591V29.0238C45.05 29.0238 45.3484 28.999 45.6469 29.0238C46.3184 29.0736 46.8034 28.8249 47.0521 28.1782V22.9926C46.8158 22.346 46.3432 22.0973 45.6593 22.1222C44.9629 22.147 44.279 22.1222 43.5577 22.1222C43.5453 21.9978 43.5328 21.8859 43.5328 21.7864C43.5328 20.3563 43.5328 20.6175 43.5204 19.175C43.5328 18.9387 43.595 18.8392 43.8437 18.7521ZM16.6847 12.8702C16.6847 13.4173 16.6971 13.9645 16.6723 14.5117C16.6101 15.7801 15.5779 16.7625 14.3095 16.7998C13.066 16.8371 11.9343 15.8671 11.8597 14.6111C11.7976 13.7407 11.8473 12.8577 11.8473 11.95H16.6847C16.6847 12.2733 16.6847 12.5717 16.6847 12.8702ZM17.2443 9.46287C17.1821 9.58722 17.008 9.73645 16.8961 9.73645C15.7023 9.76132 14.5085 9.74888 13.3147 9.74888C13.2649 9.74888 13.2276 9.73645 13.1157 9.72401C13.4017 9.37582 13.6504 9.07737 13.9116 8.76648C14.9189 7.54781 15.9261 6.32913 16.9583 5.1229C17.0578 5.01098 17.2567 4.91149 17.4059 4.91149C18.0899 4.88662 18.7863 4.89906 19.5075 4.89906C19.4454 5.03585 19.4081 5.13533 19.3707 5.22238C18.6619 6.64002 17.9655 8.04523 17.2443 9.46287ZM23.6734 14.7728C23.5491 15.979 22.4423 16.8371 21.2485 16.7998C20.0423 16.7625 19.0226 15.8547 18.9231 14.6484C18.8485 13.8277 18.8858 12.9945 18.8982 12.1738C18.8982 12.0992 19.0226 11.95 19.0847 11.95C20.6267 11.9375 22.1687 11.9375 23.6983 11.9375C23.6858 12.9324 23.7729 13.8526 23.6734 14.7728ZM24.3947 6.81412C24.2454 7.6846 24.0962 8.56751 23.9594 9.438C23.9346 9.61209 23.8973 9.74888 23.661 9.74888C22.3553 9.73645 21.062 9.74888 19.7562 9.73645C19.7065 9.73645 19.6692 9.72401 19.5946 9.69914C19.7065 9.4753 19.806 9.2639 19.9055 9.06493C20.5397 7.78408 21.1988 6.50323 21.8205 5.22238C21.9449 4.96123 22.0941 4.88662 22.3801 4.88662C23.1387 4.91149 23.9097 4.89906 24.718 4.89906C24.5936 5.55814 24.4942 6.17991 24.3947 6.81412ZM26.4714 7.64729C26.6082 6.82655 26.7574 5.99338 26.8818 5.17264C26.9191 4.96123 26.9812 4.88662 27.2051 4.88662C27.9761 4.89906 28.7346 4.88662 29.5056 4.89906C29.6051 4.89906 29.7917 5.01098 29.8041 5.09802C30.0652 6.56541 30.3015 8.04523 30.5502 9.51261C30.5627 9.57479 30.5502 9.62453 30.5502 9.71158H26.1481C26.2476 9.01519 26.3595 8.33124 26.4714 7.64729ZM30.7616 14.5738C30.7616 14.6982 30.7243 14.8101 30.6994 14.9345C30.4134 16.1034 29.2942 16.9117 28.1502 16.7873C26.8942 16.6506 25.9615 15.6682 25.9367 14.437C25.9242 13.6287 25.9367 12.808 25.9367 11.95H30.7616C30.7616 12.8329 30.7616 13.7034 30.7616 14.5738ZM32.7637 9.51261C32.5026 7.99548 32.2539 6.46592 31.9927 4.89906C32.6394 4.89906 33.2736 4.9488 33.8829 4.88662C34.5296 4.81201 34.8404 5.06072 35.1016 5.64518C35.6612 6.90116 36.3078 8.1074 36.9296 9.33851C36.9918 9.45043 37.0415 9.57479 37.1286 9.74888C35.7109 9.74888 34.3555 9.74888 33.0124 9.73645C32.9254 9.73645 32.7762 9.59966 32.7637 9.51261ZM37.8125 14.35C37.7752 15.6682 36.8799 16.6381 35.599 16.7873C34.4923 16.9117 33.3482 16.1531 33.0622 15.0215C32.9627 14.6111 32.9627 14.151 32.9503 13.7158C32.9378 13.1313 32.9503 12.5593 32.9503 11.95C33.0995 11.9375 33.199 11.9251 33.3109 11.9251C34.6912 11.9251 36.084 11.9251 37.4643 11.9127C37.7255 11.9127 37.825 11.9748 37.825 12.2608C37.8125 12.9697 37.8374 13.666 37.8125 14.35ZM39.4913 9.52504C38.7327 8.05766 37.9991 6.57784 37.2654 5.09802C37.2405 5.04828 37.2281 4.9861 37.1907 4.89906C37.9617 4.89906 38.6954 4.89906 39.4416 4.89906C39.5286 4.89906 39.6281 4.96123 39.6778 5.02341C40.9463 6.54054 42.2147 8.0701 43.4831 9.59966C43.508 9.62453 43.508 9.66183 43.5453 9.73645H42.4758C41.6178 9.73645 40.7473 9.74888 39.8892 9.72401C39.7524 9.73645 39.5535 9.63696 39.4913 9.52504ZM42.2893 16.7873C41.0084 16.6879 40.0509 15.7055 40.0136 14.4122C39.9887 13.6039 40.0136 12.7831 40.0136 11.95H44.8137C44.8137 12.8951 44.9007 13.8401 44.7888 14.7604C44.652 16.0163 43.4955 16.8868 42.2893 16.7873Z" fill="#28663D"/>
<path d="M28.3492 37.4679C23.6983 37.4679 19.918 33.6876 19.918 29.0367C19.918 24.3858 23.6983 20.6055 28.3492 20.6055C33.0001 20.6055 36.7804 24.3858 36.7804 29.0367C36.7804 33.6876 33.0001 37.4679 28.3492 37.4679ZM28.3492 22.8812C24.9543 22.8812 22.1937 25.6418 22.1937 29.0367C22.1937 32.4316 24.9543 35.1923 28.3492 35.1923C31.7441 35.1923 34.5048 32.4316 34.5048 29.0367C34.5048 25.6418 31.7441 22.8812 28.3492 22.8812Z" fill="#28663D"/>
<path d="M27.7648 31.9963L25.0166 29.2481L26.2353 28.0419L27.7648 29.5714L30.9483 26.4004L32.1546 27.6066L27.7648 31.9963Z" fill="#5FB257"/>
</g>
<defs>
<clipPath id="clip0_244_3037">
<rect width="62" height="64.8026" fill="white"/>
</clipPath>
</defs>
</svg>
