<?xml version="1.0" encoding="UTF-8"?>
<svg id="Layer_1" data-name="Layer 1" xmlns="http://www.w3.org/2000/svg" viewBox="0 0 54.39 48.24">
  <defs>
    <style>
      .cls-1 {
        fill: #b9f3fc;
      }

      .cls-2 {
        fill: #2192ff;
      }

      .cls-3 {
        fill: #2d388b;
      }
    </style>
  </defs>
  <g>
    <path class="cls-1" d="M35.41,47.81c0-1.66,.02-3.94,.02-4.94,0-1.66,.53-2.34,.53-2.34l6.66-7.23c-1.78-1.56-3.22,.56-3.22,.56l-5.94,5.97-.66,2.97-.02,5.01h2.63Z"/>
    <path class="cls-1" d="M12.34,46.57l.08,1.45h1.96c.01-.56,.02-1.13,.02-1.51,0-1.03-.72-1.77-.72-1.77,0,0-6.6-4.67-8.74-5.7-2.14-1.03-1.77-2.59-1.77-2.59l.07-7.1c-2.44,.15-1.92,3.62-1.92,3.62l.22,5.47s6.06,4.58,7.91,5.62c1.85,1.03,2.88,2.51,2.88,2.51Z"/>
  </g>
  <path class="cls-1" d="M20.75,2.21s-11.36-.33-13.12,8.83c-1.41,7.31,3.55,10.32,9.76,18.4L6.88,18.82s-5.38-5.2,.84-14.21c0,0,5.25-5.47,13.04-2.4Z"/>
  <g>
    <g>
      <g>
        <path class="cls-2" d="M27.19,7.39c1.33-1.35,2.51-2.64,3.77-3.84C36.74-1.96,46.35,.09,49.38,7.48c1.77,4.33,.78,9.14-2.63,12.56-5.93,5.94-11.87,11.86-17.8,17.78-.28,.28-.55,.57-.85,.82-.57,.48-1.24,.46-1.82,0-.11-.09-.2-.18-.3-.28-6.16-6.15-12.33-12.28-18.46-18.45-4.1-4.13-4.49-10.48-1-15.02C10.63-.47,18.5-1.11,23.4,3.53c1.28,1.21,2.47,2.51,3.79,3.87ZM15.95,1.36c-2.97,0-5.54,.99-7.41,2.71-4.47,4.11-4.64,10.87-.33,15.2,6.09,6.13,12.22,12.22,18.34,18.32,.63,.62,.68,.62,1.31-.01,3.49-3.49,6.99-6.98,10.48-10.47,2.61-2.6,5.23-5.19,7.81-7.82,2.73-2.78,3.74-6.13,2.83-9.93-1.88-7.84-11.49-10.67-17.36-5.15-1.31,1.23-2.56,2.54-3.84,3.81-.54,.53-.65,.53-1.19-.01-1.19-1.19-2.38-2.39-3.58-3.57-2.06-2.04-4.56-3.04-7.06-3.09Z"/>
        <path class="cls-2" d="M27.2,39.37c-.4,0-.8-.15-1.16-.45-.12-.09-.22-.2-.33-.3l-5.28-5.27c-4.4-4.39-8.8-8.78-13.18-13.19C3.02,15.91,2.58,9.38,6.22,4.65,8.25,2.01,11.32,.34,14.65,.08c3.32-.26,6.6,.89,9,3.17,.88,.83,1.7,1.69,2.57,2.6,.32,.33,.64,.67,.96,1,.33-.34,.65-.67,.97-1,.86-.9,1.68-1.75,2.54-2.57,2.8-2.67,6.75-3.78,10.56-2.97,3.83,.81,6.99,3.44,8.46,7.03,1.84,4.48,.8,9.45-2.71,12.97-4.35,4.35-8.7,8.7-13.05,13.04l-4.94,4.94c-.22,.22-.44,.44-.68,.64-.35,.29-.75,.44-1.14,.44ZM15.58,.79c-.29,0-.58,.01-.87,.03-3.12,.25-6,1.81-7.9,4.28-3.4,4.43-3,10.54,.97,14.53,4.38,4.41,8.78,8.8,13.18,13.18l5.28,5.27c.09,.09,.18,.18,.27,.25,.45,.37,.92,.37,1.35,.01,.22-.18,.42-.39,.62-.59l4.95-4.94c4.35-4.34,8.71-8.69,13.05-13.04,3.3-3.3,4.27-7.96,2.55-12.16-1.38-3.36-4.34-5.82-7.92-6.58-3.57-.76-7.27,.28-9.89,2.78-.85,.81-1.66,1.65-2.52,2.54-.4,.42-.82,.85-1.24,1.29l-.27,.27-.27-.27c-.42-.43-.83-.86-1.24-1.28-.87-.9-1.68-1.76-2.55-2.57-2.04-1.93-4.76-3-7.56-3Zm11.62,37.63c-.27,0-.53-.19-.92-.58l-5.43-5.42c-4.31-4.3-8.62-8.59-12.91-12.91-2.15-2.16-3.3-4.99-3.23-7.96,.07-2.96,1.34-5.73,3.58-7.79,1.97-1.81,4.69-2.8,7.66-2.8h0c2.72,.05,5.25,1.16,7.32,3.2,.73,.72,1.45,1.44,2.17,2.16l1.41,1.41c.19,.19,.31,.29,.36,.3,.01-.01,.13-.11,.31-.29,.42-.42,.84-.84,1.26-1.26,.84-.85,1.7-1.72,2.59-2.55,2.87-2.69,6.82-3.64,10.57-2.51,3.73,1.11,6.5,4.05,7.41,7.84,.94,3.89-.05,7.35-2.92,10.28-1.79,1.83-3.61,3.63-5.43,5.44l-12.87,12.85c-.39,.39-.66,.59-.93,.59ZM15.95,1.73c-2.78,0-5.32,.93-7.15,2.61-2.09,1.92-3.28,4.5-3.34,7.25-.06,2.76,1.01,5.39,3.02,7.41,4.29,4.31,8.6,8.61,12.9,12.9l5.43,5.42c.12,.12,.34,.33,.41,.36,.03-.03,.25-.25,.38-.37l12.87-12.85c1.81-1.8,3.63-3.61,5.42-5.43,2.68-2.73,3.6-5.96,2.73-9.58-.85-3.54-3.43-6.27-6.9-7.3-3.49-1.04-7.17-.17-9.84,2.34-.87,.82-1.74,1.69-2.57,2.53-.42,.42-.84,.85-1.26,1.27-.69,.68-1.02,.68-1.72-.02l-1.41-1.41c-.72-.72-1.44-1.44-2.17-2.16-1.92-1.9-4.27-2.93-6.8-2.98Z"/>
      </g>
      <g>
        <path class="cls-2" d="M12.56,47.87h-.83c-.02-.09-.05-.18-.05-.27,0-.97-.46-1.66-1.25-2.19-2.89-1.91-5.76-3.85-8.66-5.75-.96-.63-1.41-1.44-1.39-2.59,.04-1.98,0-3.96,.01-5.94,0-1.48,.99-2.54,2.35-2.54,1.33,0,2.34,1.09,2.35,2.56,0,1.51,.01,3.02,0,4.53,0,.42,.13,.68,.5,.9,2.1,1.22,4.19,2.45,6.28,3.69,.41,.24,.82,.37,1.28,.15,.75-.35,.87-1.25,.23-1.93-.61-.66-1.27-1.28-1.9-1.92-1.09-1.1-1.15-2.6-.14-3.61,.99-1,2.53-.95,3.63,.13,1.77,1.75,3.53,3.51,5.28,5.28,1.2,1.21,1.79,2.69,1.8,4.39,0,1.68,0,3.36,0,5.08h-.94c0-.99,0-1.96,0-2.94,0-.69,0-1.37,0-2.06,.01-1.53-.53-2.83-1.61-3.91-1.69-1.69-3.38-3.38-5.07-5.07-.15-.15-.31-.3-.49-.42-.67-.43-1.48-.33-1.98,.22-.52,.57-.54,1.43,.02,2.03,.65,.71,1.35,1.37,2.02,2.05,.52,.53,.81,1.16,.72,1.91-.18,1.42-1.7,2.28-2.95,1.58-2.34-1.31-4.63-2.7-6.94-4.07-.48-.28-.66-.75-.66-1.3,0-1.61,.02-3.21,0-4.82-.02-1.13-1.01-1.83-1.96-1.4-.55,.25-.85,.69-.85,1.3,0,2.18,0,4.35,0,6.53,0,.58,.32,.97,.79,1.29,2.97,1.97,5.94,3.94,8.9,5.93,1.18,.79,1.69,1.86,1.54,3.18Z"/>
        <path class="cls-2" d="M12.56,48.24h-.83c-.18,0-.33-.12-.37-.3-.04-.14-.06-.24-.06-.35,0-.79-.35-1.39-1.08-1.88-1.14-.75-2.27-1.51-3.4-2.26-1.75-1.17-3.5-2.33-5.26-3.48C.47,39.26-.03,38.34,0,37.06c.03-1.3,.02-2.61,.02-3.92,0-.67,0-1.34,0-2.02,0-1.69,1.15-2.91,2.72-2.91h0c1.54,0,2.71,1.26,2.72,2.93,0,1.51,.01,3.02,0,4.53,0,.3,.07,.43,.31,.57,2.1,1.22,4.19,2.45,6.28,3.69,.39,.23,.65,.27,.92,.14,.23-.11,.37-.29,.42-.51,.05-.27-.06-.57-.3-.83-.4-.42-.81-.83-1.22-1.24-.23-.22-.45-.44-.67-.67-1.23-1.24-1.29-2.98-.14-4.14,1.14-1.15,2.92-1.09,4.16,.13,1.77,1.75,3.53,3.51,5.28,5.28,1.26,1.27,1.9,2.84,1.91,4.66,0,1.16,0,2.33,0,3.5v1.58c0,.21-.17,.38-.38,.38h-.94c-.21,0-.38-.17-.38-.38v-3.58c0-.47,0-.95,0-1.42,.01-1.43-.48-2.62-1.5-3.64l-5.07-5.07c-.13-.13-.28-.27-.43-.37-.52-.33-1.12-.26-1.5,.16-.4,.44-.39,1.08,.02,1.53,.44,.47,.9,.93,1.35,1.38,.22,.22,.44,.44,.66,.66,.65,.66,.93,1.41,.82,2.22-.11,.82-.61,1.54-1.34,1.91-.7,.35-1.49,.34-2.17-.04-1.87-1.04-3.75-2.16-5.56-3.25l-1.39-.83c-.38-.23-.84-.7-.84-1.62v-.8c0-1.34,.02-2.67,0-4.01,0-.44-.2-.82-.52-1.02-.27-.17-.6-.19-.91-.05-.42,.19-.63,.5-.63,.96,0,2.17,0,4.35,0,6.52,0,.39,.19,.68,.63,.98,2.97,1.97,5.94,3.94,8.9,5.93,1.3,.87,1.87,2.06,1.7,3.53-.02,.19-.18,.33-.37,.33Zm-.51-.75h.16c.02-1.03-.44-1.85-1.4-2.49-2.96-1.99-5.93-3.96-8.89-5.93-.65-.43-.96-.95-.96-1.6,0-2.18,0-4.35,0-6.53,0-.74,.38-1.32,1.07-1.64,.54-.24,1.13-.21,1.62,.1,.53,.34,.85,.95,.86,1.64,.02,1.34,.02,2.68,0,4.02v.8c0,.47,.15,.78,.47,.98l1.39,.83c1.81,1.08,3.67,2.2,5.54,3.24,.46,.25,1,.27,1.47,.03,.51-.26,.86-.75,.93-1.33,.07-.58-.13-1.11-.61-1.6-.22-.22-.44-.43-.65-.65-.47-.46-.93-.92-1.38-1.41-.68-.73-.69-1.8-.02-2.54,.63-.7,1.64-.81,2.46-.29,.21,.14,.4,.31,.56,.47l5.07,5.07c1.15,1.15,1.73,2.56,1.72,4.18,0,.47,0,.94,0,1.41v3.21h.19v-1.21c0-1.17,0-2.34,0-3.5,0-1.62-.57-3-1.69-4.13-1.75-1.77-3.51-3.53-5.28-5.28-.94-.93-2.24-.99-3.1-.13-.86,.86-.8,2.13,.14,3.08,.22,.22,.44,.44,.67,.66,.42,.42,.84,.83,1.25,1.26,.41,.43,.58,.97,.49,1.48-.09,.45-.39,.83-.83,1.04-.67,.32-1.25,.06-1.63-.17-2.09-1.24-4.17-2.47-6.27-3.69-.48-.28-.69-.66-.69-1.23,.02-1.51,.01-3.01,0-4.52,0-1.27-.84-2.18-1.97-2.18h0c-1.16,0-1.97,.89-1.98,2.17,0,.67,0,1.34,0,2.01,0,1.31,.01,2.62-.02,3.93-.02,1.01,.35,1.71,1.22,2.27,1.76,1.15,3.51,2.32,5.26,3.49,1.13,.75,2.27,1.51,3.4,2.26,.92,.61,1.39,1.39,1.42,2.4Z"/>
      </g>
      <g>
        <path class="cls-2" d="M42.68,47.85h-.88c-.08-1.4,.47-2.43,1.61-3.19,2.89-1.91,5.76-3.85,8.66-5.75,.71-.47,1.04-1.03,1.02-1.89-.05-1.94-.01-3.88-.02-5.82,0-1.01-.56-1.67-1.41-1.67-.83,0-1.4,.68-1.41,1.69,0,1.53-.01,3.06,0,4.59,0,.68-.26,1.16-.84,1.5-2.18,1.28-4.35,2.57-6.53,3.84-.98,.57-2.09,.37-2.75-.45-.65-.81-.6-1.97,.16-2.79,.68-.73,1.41-1.41,2.1-2.13,.42-.44,.56-.98,.36-1.57-.19-.55-.58-.96-1.14-.96-.47,0-1.07,.13-1.39,.44-1.92,1.84-3.8,3.73-5.65,5.65-.86,.89-1.24,2.03-1.26,3.27-.02,1.55,0,3.1,0,4.64,0,.19,0,.38,0,.61h-.91c-.01-.15-.03-.32-.03-.49,0-1.51,0-3.02,0-4.53,0-1.77,.61-3.29,1.87-4.54,1.73-1.73,3.46-3.47,5.2-5.19,1.1-1.09,2.63-1.14,3.63-.15,1.02,1.02,.96,2.52-.16,3.65-.59,.6-1.2,1.19-1.79,1.79-.56,.57-.65,1.19-.27,1.68,.4,.52,1.01,.59,1.73,.16,2.06-1.21,4.11-2.43,6.18-3.63,.4-.23,.57-.5,.56-.98-.03-1.49-.02-2.98,0-4.47,0-1.47,1.01-2.56,2.34-2.57,1.39,0,2.36,1.06,2.36,2.58,0,2.02-.01,4.04,0,6.06,.01,1.04-.42,1.79-1.27,2.35-2.83,1.87-5.64,3.75-8.46,5.63-1.26,.84-1.45,1.14-1.6,2.64Z"/>
        <path class="cls-2" d="M42.68,48.23h-.88c-.2,0-.36-.16-.37-.35-.08-1.5,.52-2.69,1.78-3.52,1.05-.7,2.1-1.4,3.15-2.1,1.83-1.22,3.67-2.45,5.51-3.65,.63-.41,.86-.85,.85-1.57-.03-1.33-.03-2.66-.02-3.99,0-.61,0-1.23,0-1.84,0-.8-.4-1.29-1.04-1.3h0c-.62,0-1.03,.52-1.03,1.31,0,1.53-.01,3.05,0,4.58,0,.81-.33,1.42-1.02,1.83-.91,.53-1.81,1.07-2.72,1.6-1.27,.75-2.54,1.5-3.81,2.24-1.12,.65-2.45,.43-3.23-.54-.78-.97-.71-2.32,.18-3.28,.39-.42,.8-.82,1.2-1.23,.3-.3,.61-.6,.91-.91,.34-.35,.43-.74,.27-1.19-.07-.21-.29-.7-.78-.7h0c-.46,0-.92,.14-1.13,.34-1.81,1.73-3.65,3.58-5.64,5.64-.75,.78-1.14,1.79-1.15,3.01-.01,1.08-.01,2.17,0,3.25v1.99c0,.21-.17,.38-.37,.38h-.91c-.2,0-.36-.15-.37-.35v-.15c-.02-.12-.03-.24-.03-.36v-4.53c0-1.88,.66-3.49,1.98-4.81l1.95-1.95c1.08-1.08,2.16-2.17,3.25-3.25,1.23-1.22,3.02-1.28,4.15-.15,1.18,1.18,1.11,2.9-.16,4.18l-.74,.74c-.35,.35-.7,.69-1.04,1.05-.29,.3-.58,.76-.24,1.2,.1,.14,.42,.55,1.24,.07l2.04-1.2c1.38-.81,2.75-1.62,4.14-2.42,.3-.17,.38-.32,.38-.65-.03-1.29-.02-2.58-.01-3.88v-.6c.01-1.67,1.18-2.94,2.71-2.94h.02c.73,0,1.38,.26,1.88,.75,.54,.54,.85,1.33,.85,2.21v2.05c0,1.33,0,2.67,0,4,.01,1.15-.46,2.02-1.44,2.67-1.85,1.22-3.7,2.45-5.54,3.68l-2.92,1.95c-1.17,.78-1.29,.98-1.44,2.37-.02,.19-.18,.34-.37,.34Zm-.51-.75h.18c.17-1.33,.48-1.74,1.73-2.58l2.92-1.94c1.85-1.23,3.69-2.46,5.54-3.68,.77-.51,1.12-1.14,1.11-2.04-.01-1.34-.01-2.67,0-4.01v-2.05c0-.68-.22-1.28-.62-1.68-.35-.35-.82-.53-1.35-.53h-.01c-1.13,0-1.96,.93-1.96,2.2v.6c0,1.29-.02,2.57,0,3.86,.01,.6-.22,1-.75,1.31-1.38,.8-2.76,1.61-4.13,2.42l-2.04,1.2c-.88,.51-1.7,.42-2.22-.26-.5-.66-.38-1.47,.3-2.17,.35-.36,.7-.71,1.05-1.05l.74-.74c.98-.99,1.04-2.25,.16-3.13-.85-.85-2.15-.79-3.1,.15-1.09,1.08-2.17,2.16-3.25,3.24l-1.95,1.95c-1.19,1.18-1.76,2.58-1.76,4.27v4.53s0,.08,0,.12h.19v-1.61c0-1.09,0-2.18,0-3.27,.02-1.42,.48-2.61,1.36-3.53,2-2.07,3.85-3.92,5.66-5.66,.42-.4,1.12-.54,1.64-.55h0c.68,0,1.23,.45,1.49,1.21,.24,.72,.09,1.4-.44,1.95-.3,.31-.61,.62-.92,.92-.4,.4-.8,.79-1.18,1.21-.63,.68-.69,1.63-.15,2.3,.55,.68,1.46,.83,2.27,.36,1.27-.74,2.54-1.49,3.81-2.24,.91-.54,1.81-1.07,2.72-1.6,.46-.27,.66-.63,.65-1.17-.02-1.53,0-3.06,0-4.59,0-1.21,.74-2.06,1.78-2.06h0c1.07,0,1.78,.83,1.79,2.04,0,.61,0,1.23,0,1.84,0,1.32-.01,2.65,.02,3.97,.02,.98-.34,1.66-1.19,2.21-1.84,1.2-3.67,2.43-5.5,3.65-1.05,.7-2.1,1.4-3.16,2.1-.95,.63-1.42,1.43-1.45,2.5Z"/>
      </g>
    </g>
    <g>
      <path class="cls-3" d="M26.27,29.94c-.21,0-.39-.13-.45-.33l-3.73-12.19-1.39,4.54c-.06,.2-.24,.33-.45,.33h-5.22c-.26,0-.47-.21-.47-.47s.21-.47,.47-.47h4.87l1.73-5.68c.06-.2,.24-.33,.45-.33h0c.21,0,.39,.14,.45,.33l3.64,11.91,3.27-15.66c.05-.22,.24-.37,.46-.37h0c.22,0,.42,.16,.46,.38l2.1,10.14h6.93c.26,0,.47,.21,.47,.47s-.21,.47-.47,.47h-7.31c-.22,0-.42-.16-.46-.38l-1.71-8.3-3.18,15.23c-.04,.21-.22,.36-.44,.37,0,0-.01,0-.02,0Z"/>
      <path class="cls-3" d="M26.27,30.32c-.38,0-.7-.24-.81-.6l-3.37-11.01-1.03,3.37c-.11,.36-.43,.6-.81,.6h-5.22c-.47,0-.85-.38-.85-.85s.38-.85,.85-.85h4.59l1.65-5.42c.11-.36,.43-.6,.81-.6s.7,.24,.81,.6l3.22,10.51,2.97-14.23c.08-.39,.43-.67,.83-.67s.75,.28,.83,.67l2.03,9.84h6.62c.47,0,.85,.38,.85,.85s-.38,.85-.85,.85h-7.31c-.4,0-.75-.28-.83-.68l-1.35-6.53-2.81,13.47c-.08,.38-.4,.66-.79,.67h-.04Zm-4.18-14.18l4.09,13.36s.05,.07,.09,.07c.06,0,.09-.04,.1-.08l3.55-17,2.08,10.06s.05,.08,.09,.08h7.31c.05,0,.1-.04,.1-.1s-.04-.1-.1-.1h-7.23l-2.16-10.44c-.02-.09-.17-.09-.19,0l-3.57,17.09-4.07-13.31c-.03-.08-.16-.08-.18,0l-1.82,5.95h-5.15c-.05,0-.1,.04-.1,.1s.04,.1,.1,.1h5.22s.08-.03,.09-.07l1.74-5.71Z"/>
    </g>
  </g>
</svg>