<?xml version="1.0" encoding="UTF-8"?>
<svg id="Layer_1" data-name="Layer 1" xmlns="http://www.w3.org/2000/svg" viewBox="0 0 57.22 48.41">
  <defs>
    <style>
      .cls-1 {
        fill: #b9f3fc;
      }

      .cls-2 {
        fill: #2192ff;
      }

      .cls-3 {
        fill: #2d388b;
      }
    </style>
  </defs>
  <g>
    <g>
      <path class="cls-2" d="M17,43.05c-.15-.06-.24-.04-.24,.12v3.67h-6.53c.06-.03,.09-.05,.12-.06,1.36-.51,2.76-.79,4.2-.89,.45-.03,.48-.06,.48-.51v-2.54c0-.23-.12-.26-.22-.32-.06-.03-.27-.1-.28,.08v2.8c-1.85,.11-3.63,.55-5.35,1.32v-.18c0-2.95,0-2.9,0-5.85,0-.16-.13-.2-.25-.2-.05,0-.23,.05-.23,.22,0,.44,0-.12,0,.32v5.68c-1.72-.77-3.49-1.21-5.36-1.32v-7.76c.19,.02,.37,.03,.55,.04,.24,.02,.3,.03,.53,.07,.42,0,.24-.46-.14-.5-.39-.06-.7-.09-1.11-.12-.25-.02-.33,.07-.33,.31,0,.28,0,.56,0,.84v.3c-.31,0-1.59,0-1.88,0-.27,0-.34,.08-.34,.34,0,3.35,0,4.71,0,8.06,0,.25,.08,.33,.32,.33,4.66,0,11.33,0,15.99,0,.15,0,.26-.04,.32-.18v-3.83c-.02-.15-.22-.25-.26-.27Zm-9.39,3.79H1.12v-7.74h1.73v.18c0,2.74,0,3.48,0,6.22,0,.08-.01,.17,.03,.22,.05,.07,.15,.14,.23,.15,.58,.07,1.16,.12,1.73,.2,.93,.14,1.83,.39,2.71,.72,.02,0,.05,.02,.07,.03,0,0,0,.01,0,.02Z"/>
      <path class="cls-2" d="M16.94,47.71H.95c-.45,0-.7-.25-.7-.71v-8.07c0-.47,.25-.71,.72-.71h1.5v-.78c0-.08,0-.34,.19-.52,.19-.18,.45-.16,.54-.16,.41,.02,.73,.06,1.14,.12,.4,.04,.72,.38,.7,.74-.01,.25-.21,.51-.61,.51h0c-.28-.04-.34-.05-.56-.07h-.14s0,6.99,0,6.99c1.58,.13,3.12,.5,4.61,1.1v-5.11s0-.06,0-.09v-.23c0-.41,.36-.6,.61-.6,.36,0,.61,.22,.63,.55v5.48c1.49-.6,3.04-.97,4.61-1.11v-2.45c0-.18,.08-.33,.22-.41,.11-.07,.29-.13,.58,0,.18,.1,.44,.25,.45,.65v2.55c0,.65-.18,.84-.83,.88-.55,.04-1.1,.1-1.63,.2h3.44v-3.3c0-.25,.12-.38,.22-.45,.15-.1,.33-.1,.54-.02l.04,.02-.18,.33,.18-.33c.28,.15,.43,.33,.45,.56v3.95s-.03,.07-.03,.07c-.08,.18-.27,.4-.67,.4Zm-8.97-.75h.31c-.09-.04-.18-.08-.27-.11l-.05,.11Zm-6.48-.49h3.44c-.05,0-.11-.02-.16-.02-.32-.05-.64-.08-.96-.12-.25-.03-.51-.05-.76-.09-.21-.03-.38-.17-.48-.29-.12-.15-.11-.32-.11-.42v-6.06h-.98v6.99Zm15.34-3.08h0s0,0,0,0c0,0,0,0,0,0Zm-2.17-.54h0s0,0,0,0Z"/>
    </g>
    <g>
      <path class="cls-2" d="M16.94,47.58H.95c-.38,0-.57-.2-.57-.58v-8.06c0-.4,.19-.59,.59-.59h1.63v-.9c0-.12,.02-.31,.15-.43,.14-.13,.32-.13,.44-.13,.39,.02,.7,.06,1.13,.12,.34,.04,.61,.32,.6,.61-.01,.2-.17,.39-.49,.39h0c-.26-.04-.32-.05-.55-.07-.09,0-.19-.02-.28-.02v7.26c1.68,.12,3.28,.51,4.86,1.17v-5.62c0-.31,.28-.47,.48-.47,.29,0,.49,.17,.5,.44,0,2.89,0,2.82,0,5.66,1.58-.66,3.18-1.05,4.85-1.18v-2.57c0-.18,.1-.27,.16-.31,.12-.08,.28-.08,.46,0l.06,.03c.1,.06,.3,.17,.31,.51v2.55c0,.58-.13,.72-.71,.76-.95,.06-1.89,.21-2.78,.45h4.72v-3.42c0-.2,.09-.3,.16-.34,.16-.11,.36-.03,.42,0h.02s-.12,.23-.12,.23l.12-.22c.24,.12,.37,.28,.39,.46v3.91s-.02,.05-.02,.05c-.1,.22-.28,.33-.55,.33Zm-7.93-.5h.11l1.01-.47h.01c-.29,.1-.57,.22-.85,.35l-.28,.12Zm-1.34,0h1.2l-.28-.12c-.26-.12-.53-.23-.79-.33l.11,.05-.12,.39h-.12Zm-6.3-.48H6.12c-.45-.12-.88-.21-1.32-.27-.33-.05-.65-.08-.98-.12-.25-.03-.5-.05-.75-.08-.17-.02-.32-.14-.4-.25-.09-.11-.08-.25-.08-.33v-6.19H1.37v7.24Zm2.33-.91l.17,.02c.2,.02,.41,.04,.61,.07-.26-.04-.52-.06-.78-.08Zm11.09-.16v.1s0,0,.01,0c0,0-.01-.04-.01-.09Z"/>
      <path class="cls-2" d="M16.94,47.96H.95C.36,47.95,0,47.59,0,47v-8.06c0-.61,.35-.96,.97-.96h1.26v-.52c0-.12,0-.46,.27-.71,.26-.24,.59-.23,.71-.23,.41,.03,.73,.06,1.17,.12,.53,.06,.95,.51,.92,1-.02,.37-.32,.74-.86,.74-.24-.03-.33-.04-.46-.06v6.5c1.42,.14,2.77,.45,4.11,.96v-5.06c0-.53,.45-.85,.86-.85,.49,0,.85,.33,.88,.79v5.12c1.35-.51,2.7-.83,4.11-.97v-2.22c0-.27,.13-.5,.34-.63,.15-.1,.42-.19,.81-.03l.1,.05c.12,.07,.49,.27,.51,.82v2.56c0,.05,0,.1,0,.15l.4,.15-.43,.11c-.03,.18-.1,.31-.19,.42h.7v-3.05c0-.38,.21-.58,.33-.66,.1-.07,.27-.13,.47-.12l.04-.07,.65,.3-.03,.07c.21,.19,.28,.4,.29,.55v4.03s-.03,.07-.03,.07c-.18,.4-.5,.6-.91,.6Zm-6.87-.75h6.86s0,.38,0,.38v-.38c.13,0,.17-.04,.19-.08v-3.83s-.07-.07-.18-.13l-.09-.03,.02,3.82h-6.63l-.36,.17,.17,.08ZM.97,38.72c-.2,0-.22,.03-.22,.21v8.06c0,.19,.03,.21,.2,.21H7.66s-.01-.18-.01-.18l-.2-.06H1v-7.99h1.97v6.56s0,.09,0,.11c.03,.04,.1,.09,.15,.1,.18,.02,.37,.04,.56,.06l.02-.25s-.1,0-.15-.01l-.35-.03v-8.01l.69,.06c.23,.02,.3,.03,.56,.07,0,0,.07,0,.07-.04,0-.07-.11-.2-.26-.21-.42-.06-.73-.09-1.11-.12-.03,0-.13,0-.17,.03-.02,.02-.03,.08-.03,.16v1.27H.97Zm7.86,7.92l.12,.05,.12-.05v-5.96s0-.06-.13-.06c0,0-.11,.02-.11,.1v5.92Zm-1.27-.08l.23,.07,.06-.13c-1.09-.42-2.2-.71-3.34-.86l-.03,.25c.13,.02,.26,.03,.39,.05,.44,.07,.9,.16,1.36,.28l1.34,.35h0Zm2.55-.1l.06,.14,1.53-.4c.88-.23,1.79-.38,2.71-.45v-.24s-.09,0-.09,0c-1.46,.11-2.84,.42-4.21,.94Zm-6.38-.27h0v-.02s0,.02,0,.02Zm-1.99,0h.74s-.07-.08-.11-.12c-.17-.21-.16-.46-.16-.58v-5.8h-.47v6.49Zm13.05-.69h.03s-.03,0-.03,0Zm-.14-2.91h0l.02,2.9h.09s-.08-.25-.08-.25l.09,.25h.06s.09-.2,.09-.2v-2.47c0-.12-.04-.14-.12-.18-.08-.04-.12-.05-.14-.05Z"/>
    </g>
  </g>
  <g>
    <path class="cls-1" d="M7.6,23.53c-.37-8.33,7.35-15.43,15.42-15.44V2.75l-3.39,.12-.18,3.82-.83,.68-3.57,1.26-4.18,3.24-2.59-1.22-1.26-.54-2.85,4.54-.29,1.91,1.98,1.22,.94,1.08-.61,2.45,.25,5.19,.5,2.23-3.1,1.62-.29,.54,.86,1.19,2.99,4.68,3.31-1.87,2.52,2.85,5.98,2.56c-.22,4.21,.83,3.82,.83,3.82l1.95,.14,.76-.49v-4.81c-8.52-.15-14.79-7.16-15.17-15.44Z"/>
    <g>
      <g>
        <path class="cls-3" d="M27.66,24.2c-.09,0-.18-.03-.26-.08l-7.35-4.92c-.22-.14-.27-.44-.13-.65,.14-.22,.44-.27,.65-.13l7.35,4.92c.22,.14,.27,.44,.13,.65-.09,.14-.24,.21-.39,.21Z"/>
        <path class="cls-3" d="M27.66,24.57c-.17,0-.33-.05-.47-.14l-7.35-4.92c-.19-.13-.32-.32-.36-.54-.04-.22,0-.45,.13-.63,.12-.19,.32-.31,.54-.36,.22-.04,.45,0,.64,.13l7.35,4.92c.39,.26,.49,.79,.23,1.17-.16,.24-.42,.38-.7,.38Zm-7.29-5.85s-.13,.03-.13,.03l.03,.13,7.4,4.94s.05,0,.08-.04c.03-.04,.02-.1-.03-.13l-7.35-4.92Z"/>
      </g>
      <g>
        <path class="cls-3" d="M20.52,29.47c-.15,0-.29-.07-.38-.19-.15-.21-.11-.5,.1-.66l7.14-5.23c.21-.15,.5-.11,.66,.1,.15,.21,.11,.5-.1,.66l-7.14,5.23c-.08,.06-.18,.09-.28,.09Z"/>
        <path class="cls-3" d="M20.51,29.85c-.27,0-.52-.13-.68-.35-.13-.18-.19-.4-.15-.63,.03-.22,.15-.42,.34-.55l7.14-5.23c.18-.13,.4-.19,.63-.15,.22,.03,.42,.15,.55,.34,.28,.38,.19,.91-.18,1.18l-7.14,5.23c-.15,.11-.32,.16-.5,.16Zm7.14-6.17s-.04,0-.05,.01l-7.14,5.23s-.02,.13-.02,.13l.08,.04s.04,0,.06-.02l7.14-5.23s.05-.09,.02-.13c-.02-.02-.05-.04-.08-.04Z"/>
      </g>
      <g>
        <path class="cls-3" d="M20.33,29.56c-.26,0-.47-.21-.47-.47v-10.3c0-.26,.21-.47,.47-.47s.47,.21,.47,.47v10.3c0,.26-.21,.47-.47,.47Z"/>
        <path class="cls-3" d="M20.33,29.93c-.47,0-.85-.38-.85-.85v-10.3c0-.47,.38-.85,.85-.85s.85,.38,.85,.85v10.3c0,.47-.38,.85-.85,.85Zm0-11.24c-.05,0-.1,.04-.1,.1v10.3c0,.1,.19,.11,.19,0v-10.3c0-.05-.04-.1-.1-.1Z"/>
      </g>
    </g>
    <g>
      <g>
        <path class="cls-2" d="M35.66,35.62c-2.25,2.28-4.86,3.85-7.89,4.67-.32,.09-.38,.26-.38,.54,.01,.76,.02,1.53,0,2.29-.02,1.03-.55,1.56-1.57,1.56-1.76,0-3.53,0-5.29,0-1.02,0-1.54-.53-1.56-1.57-.01-.76-.01-1.53,0-2.29,0-.29-.07-.45-.38-.54-3.03-.83-5.64-2.39-7.88-4.67-.76,.44-1.52,.88-2.28,1.31-1.01,.57-1.69,.4-2.27-.59-.87-1.49-1.73-2.98-2.58-4.48-.55-.96-.36-1.66,.58-2.22,.64-.38,1.28-.76,1.93-1.12,.25-.14,.36-.26,.28-.59-.77-2.94-.76-5.89-.02-8.83,.04-.15-.09-.44-.22-.53-.66-.42-1.35-.79-2.02-1.19-.85-.51-1.06-1.24-.58-2.09,.89-1.57,1.79-3.13,2.7-4.68,.49-.83,1.22-1.02,2.05-.56,.8,.44,1.59,.91,2.4,1.38,.47-.42,.9-.84,1.37-1.23,1.88-1.58,4.01-2.73,6.38-3.38,.41-.11,.57-.28,.55-.72-.04-.74-.02-1.49,0-2.23,.03-.95,.56-1.49,1.51-1.5,1.8-.01,3.61-.01,5.41,0,.93,0,1.47,.53,1.5,1.45,.03,.8,.02,1.61,0,2.41,0,.29,.06,.46,.38,.54,3.04,.83,5.64,2.39,7.89,4.67,.74-.43,1.48-.86,2.22-1.28,1.09-.62,1.74-.44,2.38,.65,.83,1.44,1.67,2.88,2.49,4.32,.59,1.03,.41,1.71-.6,2.3-.64,.38-1.3,.73-1.92,1.13-.14,.09-.26,.38-.22,.54,.73,2.95,.73,5.89,0,8.84-.04,.16,.09,.45,.22,.53,.64,.41,1.32,.77,1.97,1.16,.93,.55,1.13,1.25,.6,2.17-.87,1.53-1.75,3.06-2.64,4.58-.52,.89-1.24,1.08-2.14,.58-.78-.44-1.56-.9-2.37-1.37Zm-12.49,8.15c.82,0,1.65,0,2.47,0,.73,0,.84-.1,.84-.86,0-.88,.01-1.76,0-2.65,0-.42,.17-.64,.58-.74,3.13-.76,5.8-2.32,8.02-4.64,.3-.31,.56-.35,.93-.13,.79,.48,1.6,.91,2.38,1.39,.48,.3,.77,.19,1.04-.28,.84-1.48,1.69-2.96,2.56-4.43,.29-.49,.16-.78-.31-1.04-.77-.42-1.52-.9-2.29-1.31-.41-.22-.55-.47-.41-.94,.89-3.07,.9-6.14,0-9.21-.14-.48,0-.72,.41-.95,.79-.43,1.56-.91,2.34-1.34,.42-.24,.54-.51,.28-.95-.88-1.5-1.75-3.01-2.61-4.53-.27-.47-.57-.51-1.01-.24-.77,.47-1.57,.89-2.33,1.36-.41,.25-.69,.2-1.02-.14-2.21-2.3-4.87-3.85-7.98-4.6-.42-.1-.59-.31-.58-.73,.01-.9,0-1.8,0-2.7,0-.68-.12-.8-.78-.8-1.69,0-3.37,0-5.06,0-.65,0-.78,.13-.78,.8,0,.9-.01,1.8,0,2.7,0,.42-.16,.64-.58,.74-3.11,.76-5.77,2.3-7.98,4.6-.33,.34-.61,.4-1.02,.14-.78-.48-1.6-.91-2.38-1.39-.43-.26-.71-.17-.96,.26-.86,1.51-1.73,3.02-2.62,4.53-.26,.44-.15,.71,.28,.95,.79,.43,1.55,.91,2.34,1.34,.41,.22,.55,.47,.41,.95-.9,3.07-.9,6.14,0,9.21,.14,.47,0,.73-.4,.95-.79,.43-1.56,.91-2.34,1.34-.42,.24-.55,.51-.29,.95,.88,1.5,1.75,3.01,2.62,4.53,.24,.43,.52,.53,.96,.26,.79-.48,1.6-.91,2.38-1.39,.41-.25,.69-.2,1.02,.14,2.21,2.31,4.87,3.84,7.98,4.6,.42,.1,.59,.32,.58,.74-.01,.88,0,1.76,0,2.65,0,.75,.11,.86,.84,.86,.82,0,1.65,0,2.47,0Z"/>
        <path class="cls-2" d="M23.17,45.07c-.88,0-1.76,0-2.65,0-1.22,0-1.91-.69-1.94-1.93-.01-.77-.01-1.54,0-2.31,0-.1,0-.13-.01-.14h0s-.03-.02-.1-.04c-2.97-.82-5.61-2.35-7.85-4.56l-.48,.27c-.52,.3-1.04,.6-1.56,.89-1.19,.68-2.1,.44-2.77-.72-.87-1.49-1.73-2.98-2.58-4.48-.65-1.14-.41-2.06,.72-2.73l.14-.08c.6-.35,1.19-.7,1.8-1.04,.07-.04,.1-.06,.12-.08,0,0,0-.04-.02-.09-.77-2.95-.78-5.99-.02-9.02,0-.01-.05-.11-.07-.14-.39-.25-.81-.49-1.23-.73-.26-.15-.52-.29-.77-.45-1.04-.62-1.3-1.57-.71-2.6,.89-1.57,1.79-3.13,2.71-4.68,.59-1,1.54-1.26,2.56-.7,.56,.31,1.11,.63,1.67,.95l.5,.29,.23-.21c.32-.29,.63-.57,.95-.85,1.95-1.64,4.15-2.8,6.53-3.45,.28-.08,.29-.12,.27-.34-.03-.72-.03-1.42,0-2.26,.03-1.16,.74-1.86,1.88-1.86,1.8,0,3.61-.01,5.41,0,1.13,0,1.83,.68,1.87,1.81,.03,.81,.02,1.62,0,2.43,0,.1,0,.13,.01,.14h0s.03,.02,.09,.03c2.99,.81,5.56,2.31,7.86,4.56l1.97-1.14c1.26-.72,2.16-.48,2.89,.79,.83,1.44,1.67,2.88,2.5,4.33,.69,1.21,.46,2.11-.74,2.81-.22,.13-.44,.25-.66,.38-.42,.24-.85,.48-1.25,.75-.01,.02-.05,.11-.05,.16,.74,2.97,.74,6,0,9,0,.01,.05,.11,.08,.14,.38,.25,.79,.48,1.2,.71,.25,.14,.5,.29,.75,.43,1.1,.66,1.36,1.58,.74,2.68-.87,1.53-1.76,3.06-2.65,4.58-.62,1.07-1.56,1.33-2.64,.72-.54-.3-1.08-.62-1.63-.94l-.5-.29c-2.29,2.25-4.86,3.75-7.86,4.56-.07,.02-.09,.04-.1,.04h0s0,.03,0,.14c.01,.77,.01,1.54,0,2.31-.03,1.24-.72,1.92-1.94,1.93-.88,0-1.76,0-2.65,0Zm-12.41-9.92l.2,.21c2.21,2.26,4.74,3.75,7.71,4.57,.6,.17,.66,.6,.66,.91-.01,.76-.01,1.52,0,2.28,.02,.83,.37,1.19,1.19,1.2,1.76,0,3.52,0,5.29,0,.81,0,1.18-.37,1.2-1.19,.02-.76,.01-1.52,0-2.28,0-.31,.06-.75,.66-.91,2.95-.8,5.48-2.3,7.73-4.57l.2-.21,1,.58c.55,.32,1.08,.63,1.62,.93,.72,.41,1.21,.27,1.63-.45,.89-1.52,1.77-3.04,2.64-4.57,.42-.74,.28-1.22-.47-1.67-.24-.15-.49-.29-.74-.43-.42-.24-.84-.48-1.25-.74-.27-.17-.46-.63-.38-.94,.72-2.88,.72-5.79,0-8.66-.08-.31,.11-.77,.38-.94,.42-.27,.85-.52,1.29-.77,.22-.12,.43-.25,.65-.37,.83-.49,.95-.95,.47-1.79-.83-1.44-1.66-2.88-2.49-4.32-.53-.91-.96-1.04-1.87-.52l-2.47,1.43-.2-.21c-2.25-2.28-4.78-3.77-7.72-4.57-.6-.16-.66-.6-.66-.91,.01-.8,.02-1.6,0-2.39-.02-.72-.4-1.08-1.12-1.08-1.8-.01-3.6-.01-5.4,0-.74,0-1.12,.38-1.14,1.13-.02,.82-.03,1.51,0,2.21,.04,.76-.42,.99-.83,1.1-2.28,.62-4.38,1.73-6.24,3.3-.31,.26-.62,.54-.92,.82l-.63,.58-.98-.57c-.55-.32-1.1-.64-1.65-.94-.66-.36-1.17-.23-1.55,.42-.91,1.55-1.81,3.11-2.7,4.67-.38,.67-.24,1.18,.45,1.59,.25,.15,.5,.29,.76,.44,.43,.25,.86,.49,1.28,.76,.27,.17,.46,.63,.38,.94-.73,2.91-.72,5.82,.02,8.65,.16,.59-.16,.85-.46,1.01-.6,.33-1.19,.68-1.78,1.03l-.14,.08c-.77,.45-.89,.93-.45,1.71,.85,1.5,1.71,2.99,2.58,4.48,.47,.8,.92,.92,1.76,.45,.52-.29,1.04-.59,1.55-.89l.98-.56Zm13.12,8.99h-3.17c-.94,0-1.21-.28-1.21-1.23v-.41c0-.75,0-1.5,0-2.25,0-.23-.03-.3-.29-.37-3.16-.77-5.91-2.36-8.16-4.71-.22-.23-.3-.24-.55-.08-.43,.27-.87,.51-1.3,.76-.36,.21-.73,.41-1.08,.63-.3,.18-.57,.24-.83,.17-.26-.07-.47-.25-.65-.57-.86-1.51-1.73-3.02-2.61-4.52-.18-.3-.23-.57-.16-.82,.07-.26,.26-.47,.59-.65,.38-.21,.75-.43,1.12-.64,.41-.24,.81-.47,1.23-.7,.27-.15,.3-.23,.22-.52-.91-3.13-.91-6.3,0-9.42,.08-.29,.05-.36-.23-.51-.41-.22-.81-.46-1.21-.7-.38-.22-.75-.44-1.13-.65-.32-.18-.51-.39-.59-.65-.07-.25-.02-.52,.16-.82,.88-1.5,1.75-3.01,2.61-4.52,.18-.32,.39-.5,.65-.57,.25-.07,.52,0,.83,.18,.36,.22,.73,.43,1.1,.64,.43,.25,.86,.49,1.28,.75,.24,.15,.33,.15,.55-.08,2.26-2.35,5-3.94,8.16-4.71,.25-.06,.3-.12,.29-.37-.01-.9,0-1.81,0-2.71,0-.87,.3-1.17,1.16-1.17,1.69,0,3.37,0,5.06,0,.86,0,1.14,.29,1.15,1.18,0,.9,.01,1.81,0,2.71,0,.23,.03,.3,.3,.37,3.14,.76,5.89,2.34,8.16,4.71,.23,.24,.31,.23,.55,.08,.39-.24,.79-.47,1.2-.7,.38-.22,.76-.43,1.14-.66,.33-.2,.62-.27,.88-.2,.26,.07,.47,.25,.65,.57,.86,1.51,1.73,3.02,2.61,4.52,.18,.3,.23,.57,.16,.82-.07,.26-.26,.47-.58,.65-.35,.19-.69,.39-1.03,.6-.44,.25-.87,.51-1.31,.75-.27,.15-.31,.23-.22,.51,.91,3.12,.91,6.29,0,9.42-.08,.29-.05,.36,.22,.51,.41,.22,.81,.46,1.21,.69,.36,.21,.72,.42,1.08,.62,.22,.12,.53,.33,.63,.68,.07,.26,.01,.55-.18,.88-.87,1.46-1.71,2.94-2.55,4.42-.12,.22-.33,.52-.69,.62-.27,.07-.55,0-.88-.2-.42-.26-.86-.51-1.29-.76-.37-.21-.73-.42-1.09-.63-.2-.12-.28-.12-.46,.07-2.29,2.39-5.05,3.98-8.2,4.75-.26,.06-.3,.14-.29,.37,.01,.78,0,1.57,0,2.35v.3c0,.96-.27,1.23-1.22,1.23h-1.76Zm-.71-.75h2.47c.32,0,.41-.03,.43-.04,0-.01,.03-.11,.03-.45v-.31c0-.78,.01-1.55,0-2.33,0-.59,.28-.97,.87-1.11,3.02-.73,5.65-2.26,7.84-4.54,.42-.44,.88-.51,1.39-.19,.35,.21,.71,.42,1.07,.62,.44,.25,.88,.5,1.31,.77,.2,.12,.27,.12,.29,.11,.02,0,.1-.04,.22-.26,.84-1.48,1.69-2.96,2.56-4.43,.12-.19,.11-.28,.1-.29,0-.03-.05-.1-.26-.22-.37-.21-.74-.42-1.11-.64-.39-.23-.79-.46-1.19-.68-.58-.31-.77-.75-.59-1.38,.87-2.99,.87-6.02,0-9-.18-.63,0-1.06,.59-1.38,.44-.24,.86-.49,1.29-.74,.35-.2,.69-.41,1.05-.6,.19-.11,.22-.17,.23-.19,0-.02,.01-.08-.08-.24-.88-1.51-1.75-3.02-2.62-4.53-.1-.18-.17-.21-.19-.21-.02,0-.1-.01-.3,.11-.38,.23-.77,.46-1.16,.68-.39,.22-.79,.45-1.17,.69-.55,.34-1.03,.28-1.49-.2-2.17-2.26-4.79-3.77-7.79-4.5-.59-.14-.88-.51-.87-1.11,.01-.9,0-1.8,0-2.7,0-.31-.03-.38-.04-.4h0s-.08-.03-.36-.03c-1.68,0-3.37,0-5.05,0-.29,0-.36,.03-.37,.04,0,0-.03,.08-.04,.39,0,.9-.01,1.8,0,2.7,0,.59-.28,.97-.87,1.11-3.02,.74-5.64,2.25-7.79,4.5-.46,.48-.93,.55-1.49,.2-.41-.26-.84-.5-1.26-.74-.38-.21-.75-.43-1.12-.65-.13-.08-.21-.1-.25-.09-.01,0-.08,.03-.18,.22-.86,1.52-1.74,3.03-2.62,4.53-.08,.13-.09,.21-.08,.25,0,.04,.07,.11,.22,.19,.39,.21,.77,.44,1.15,.66,.4,.23,.79,.46,1.19,.68,.58,.32,.77,.76,.59,1.38-.87,2.99-.87,6.01,0,9,.18,.63,0,1.07-.58,1.38-.41,.22-.81,.46-1.21,.69-.38,.22-.75,.44-1.14,.65-.19,.11-.22,.17-.23,.19,0,.03,0,.12,.08,.24,.88,1.5,1.75,3.01,2.62,4.53,.08,.15,.15,.21,.19,.22,.03,0,.12,0,.25-.09,.36-.22,.73-.43,1.1-.64,.43-.24,.86-.49,1.28-.75,.55-.34,1.03-.27,1.49,.2,2.15,2.25,4.78,3.76,7.79,4.5,.58,.14,.88,.51,.87,1.11-.01,.74,0,1.49,0,2.23v.41c0,.34,.03,.43,.05,.46,.01,0,.1,.03,.42,.03h2.47Z"/>
      </g>
      <g>
        <path class="cls-2" d="M52.5,39.06v1.92s0,.03,0,.04c.02,.56,.03,1.12-.04,1.68-.2,1.78-1.58,2.99-3.37,2.94-1.58-.04-3.17-.17-4.74-.32-1.13-.11-2.25-.31-3.37-.47-.97-.14-1.74,.35-1.78,1.23-.03,.63,.08,1.27,.13,1.93,.34-.02,.59-.04,.9-.06-.03-.45-.05-.85-.09-1.26-.09-.89,.08-1.05,.97-.89,2.67,.47,5.35,.75,8.06,.77,2.1,.02,3.93-1.53,4.18-3.62,.1-.81,.06-1.64,.08-2.46,.02-1.35,0-1.44-.92-1.43Z"/>
        <path class="cls-2" d="M38.98,48.41l-.03-.37c-.02-.2-.04-.4-.06-.6-.05-.45-.1-.91-.07-1.38,.02-.48,.23-.9,.58-1.19,.42-.34,.99-.48,1.63-.39,.34,.05,.68,.1,1.01,.15,.77,.12,1.56,.24,2.34,.32,1.91,.18,3.36,.28,4.72,.32,1.55,.05,2.81-1.03,2.99-2.6,.06-.52,.05-1.05,.03-1.63v-2.34s.38,0,.38,0c.47,0,.8,.01,1.04,.25,.28,.29,.27,.74,.26,1.56,0,.22,0,.44,0,.66,0,.6,0,1.22-.08,1.84-.27,2.27-2.21,3.94-4.56,3.95-2.62-.02-5.36-.29-8.12-.78-.42-.07-.52-.04-.54-.03,0,0-.03,.11,.01,.52,.03,.28,.05,.57,.06,.87l.05,.77-1.64,.11Zm1.67-3.21c-.31,0-.58,.08-.77,.24-.19,.16-.3,.38-.31,.65-.02,.41,.02,.82,.07,1.26,0,.08,.02,.17,.03,.25h.16s0-.04,0-.04c-.02-.29-.03-.57-.06-.84-.04-.41-.06-.88,.23-1.15,.3-.27,.76-.22,1.17-.15,2.73,.49,5.42,.74,8,.77,1.93,.02,3.58-1.4,3.81-3.29,.07-.57,.07-1.17,.07-1.75,0-.23,0-.45,0-.68,0-.41,.02-.92-.05-1.02-.02,0-.07-.02-.12-.02v1.54c.01,.62,.02,1.19-.04,1.76-.22,1.98-1.8,3.32-3.75,3.27-1.37-.04-2.84-.14-4.77-.32-.8-.08-1.61-.2-2.38-.32-.33-.05-.67-.1-1-.15-.09-.01-.18-.02-.27-.02Z"/>
      </g>
      <g>
        <path class="cls-2" d="M56.56,31.62c-.93-1.87-1.89-3.74-2.79-5.63-.21-.44-.31-.96-.34-1.45-.11-1.8,0-3.62-.27-5.39-1.37-9.13-8.85-16.09-17.66-16.73-2.29-.16-4.53,.08-6.78,.74,.08,.3,.16,.57,.23,.86,.16-.04,.26-.05,.35-.08,2.39-.66,4.83-.86,7.27-.49,7.54,1.15,13.58,6.77,15.38,14.18,.56,2.31,.54,4.66,.57,7.01,0,.56,.15,1.17,.39,1.68,.91,1.93,1.88,3.83,2.85,5.73,.25,.5,.15,.8-.35,1.02-.57,.26-1.13,.54-1.68,.84-.8,.44-1.23,1.13-1.24,2.05,0,.38,0,.77,0,1.17,0,0,0,0,0,0v.97c.1,0,.19,0,.29,0,.45-.02,.63-.24,.63-.66,0-.45,0-.9,0-1.35-.01-.68,.29-1.15,.91-1.44,.49-.23,.98-.49,1.47-.74,1.09-.55,1.31-1.21,.77-2.3Z"/>
        <path class="cls-2" d="M52.12,38.51v-2.52c.02-1.05,.51-1.87,1.44-2.38,.55-.31,1.12-.59,1.7-.86,.21-.1,.25-.17,.26-.19,0-.02,.02-.11-.09-.32-.89-1.75-1.91-3.74-2.85-5.74-.27-.57-.42-1.22-.43-1.84v-.57c-.03-2.1-.05-4.27-.55-6.36-1.77-7.32-7.68-12.77-15.07-13.9-2.31-.35-4.71-.19-7.12,.48-.07,.02-.14,.03-.23,.05l-.49,.1-.42-1.56,.35-.1c2.3-.68,4.57-.93,6.92-.76,9.05,.65,16.62,7.82,18,17.04,.17,1.15,.19,2.33,.21,3.47,.01,.65,.02,1.31,.06,1.96,.03,.5,.14,.96,.31,1.31,.62,1.31,1.28,2.61,1.93,3.91l.86,1.71c.63,1.27,.33,2.16-.94,2.8l-.3,.15c-.39,.2-.78,.4-1.18,.59-.49,.23-.7,.57-.69,1.1,0,.28,0,.56,0,.84v.52c0,.64-.35,1.01-.99,1.04l-.68,.02Zm.75-1.08v.3c.15-.02,.17-.08,.17-.28v-.53c0-.27,0-.55,0-.82-.02-.83,.36-1.43,1.12-1.79,.39-.18,.77-.38,1.16-.58l.3-.16c.91-.46,1.05-.9,.6-1.8l-.85-1.71c-.65-1.3-1.31-2.61-1.94-3.92-.26-.56-.35-1.17-.38-1.59-.04-.66-.05-1.33-.06-1.99-.02-1.12-.04-2.27-.2-3.37-1.33-8.88-8.61-15.78-17.31-16.41-2.14-.15-4.21,.05-6.3,.63l.04,.16c2.51-.69,5-.86,7.41-.49,7.69,1.18,13.84,6.85,15.68,14.47,.52,2.17,.55,4.38,.57,6.53v.56c.01,.5,.14,1.06,.36,1.53,.94,1.99,1.95,3.97,2.84,5.72,.18,.35,.22,.65,.13,.91-.09,.26-.3,.47-.65,.62-.56,.26-1.12,.54-1.65,.83-.69,.38-1.04,.95-1.04,1.73v.77s0,.67,0,.67h0Z"/>
      </g>
      <g>
        <path class="cls-2" d="M20.55,46.14h.85v1.82h-.85v-1.82Z"/>
        <path class="cls-2" d="M21.77,48.33h-1.59v-2.57h1.59v2.57Zm-.84-.75h.09v-1.07h-.09v1.07Z"/>
      </g>
      <g>
        <path class="cls-2" d="M11.44,23.52c0-6.48,5.26-11.74,11.73-11.74,6.49,0,11.77,5.3,11.74,11.79-.03,6.49-5.29,11.73-11.76,11.72-6.47-.01-11.72-5.29-11.72-11.76Zm.91-.07c-.08,5.83,4.74,10.81,10.55,10.9,6.12,.1,11.02-4.65,11.11-10.75,.09-5.83-4.74-10.82-10.55-10.9-6.12-.09-11.02,4.65-11.11,10.75Z"/>
        <path class="cls-2" d="M23.18,35.66h-.02c-6.67-.01-12.1-5.46-12.09-12.14h0c0-6.68,5.44-12.12,12.11-12.12h0c3.24,0,6.29,1.27,8.58,3.57,2.29,2.3,3.55,5.36,3.53,8.6-.03,6.67-5.46,12.09-12.11,12.09Zm0-23.5h0c-6.25,0-11.35,5.1-11.36,11.37,0,6.27,5.08,11.37,11.34,11.39h.02c6.24,0,11.33-5.08,11.36-11.34,.01-3.04-1.16-5.9-3.31-8.06-2.15-2.16-5.01-3.35-8.05-3.35Zm-.1,22.58c-.06,0-.12,0-.19,0-6-.09-11-5.26-10.92-11.28,.09-6.27,5.05-11.12,11.32-11.12,.06,0,.12,0,.18,0,2.91,.04,5.66,1.25,7.75,3.41,2.09,2.16,3.21,4.95,3.17,7.87-.05,3.05-1.26,5.88-3.41,7.96-2.11,2.04-4.91,3.16-7.9,3.16Zm-10.36-11.27c-.08,5.62,4.58,10.43,10.18,10.52,2.86,.04,5.54-1,7.55-2.95s3.14-4.58,3.18-7.44c.04-2.72-1.01-5.33-2.96-7.34-1.95-2.01-4.51-3.14-7.22-3.18-5.92-.11-10.65,4.47-10.73,10.38h0Z"/>
      </g>
      <g>
        <path class="cls-2" d="M52.78,36.38l-.28,1.74v2.53s.9,.65,.9,.65l.03-4.84s-.38-1.61-.65-.08Z"/>
        <path class="cls-2" d="M53.76,42.04l-1.63-1.19v-2.72s.27-1.81,.27-1.81c.06-.33,.17-.96,.63-.97,.18,0,.53,.09,.75,1.03l-.02,5.66Zm-.88-1.57l.14,.1,.02-3.48-.17,1.09v2.28Z"/>
      </g>
    </g>
  </g>
</svg>