<?xml version="1.0" encoding="UTF-8" standalone="no"?>
<!-- Created with Inkscape (http://www.inkscape.org/) -->

<svg
   width="640"
   height="640"
   viewBox="0 0 169.33333 169.33333"
   version="1.1"
   id="svg384"
   xml:space="preserve"
   inkscape:version="1.2 (dc2aedaf03, 2022-05-15)"
   sodipodi:docname="rakyat-vulnerable-groups.svg"
   xmlns:inkscape="http://www.inkscape.org/namespaces/inkscape"
   xmlns:sodipodi="http://sodipodi.sourceforge.net/DTD/sodipodi-0.dtd"
   xmlns="http://www.w3.org/2000/svg"
   xmlns:svg="http://www.w3.org/2000/svg"><sodipodi:namedview
     id="namedview386"
     pagecolor="#ffffff"
     bordercolor="#000000"
     borderopacity="0.25"
     inkscape:showpageshadow="2"
     inkscape:pageopacity="0.0"
     inkscape:pagecheckerboard="0"
     inkscape:deskcolor="#d1d1d1"
     inkscape:document-units="mm"
     showgrid="false"
     inkscape:zoom="0.70199214"
     inkscape:cx="397.44035"
     inkscape:cy="219.37567"
     inkscape:window-width="1920"
     inkscape:window-height="986"
     inkscape:window-x="-11"
     inkscape:window-y="-11"
     inkscape:window-maximized="1"
     inkscape:current-layer="layer1" /><defs
     id="defs381" /><g
     inkscape:label="Layer 1"
     inkscape:groupmode="layer"
     id="layer1"><g
       id="g435"
       transform="matrix(0.26458333,0,0,0.26458333,-10.849641,-10.593676)"><path
         class="st8"
         d="m 131.38,569.49 c 0,26.08 0,52.16 -0.01,78.24 0,1.89 0.51,4.12 -0.32,5.58 -1.03,1.82 -3.07,3.87 -4.91,4.13 -1.2,0.17 -3.49,-2.44 -4.1,-4.21 -0.77,-2.21 -0.38,-4.85 -0.38,-7.31 -0.01,-50.46 -0.01,-71.68 -0.03,-122.14 0,-2.83 -0.06,-5.67 -0.38,-8.48 -0.63,-5.37 -4.25,-7.83 -9.2,-8.4 -5.13,-0.59 -8.77,1.65 -10.5,6.64 -0.25,0.71 -0.44,1.45 -0.61,2.18 -0.79,3.34 -1.96,6.54 -6.29,5.43 -4.12,-1.06 -3.95,-4.55 -3.51,-7.85 1.21,-9.06 10.55,-16.52 20.32,-16.29 10.62,0.25 19.31,8.25 19.56,18.93 0.4,17.38 0.28,24.14 0.34,41.52 0.04,10.21 0.01,1.8 0.01,12 -0.01,0.03 0,0.03 0.01,0.03 z"
         id="path390" /><path
         class="st5"
         d="m 319.78,344.65 c -0.75,22.68 18.58,39.11 39.3,39.01 21.26,-0.1 38.74,-17.85 38.66,-39.38 -0.08,-20.65 -17.57,-38.47 -37.41,-38.83 -24.57,-0.46 -41.7,19.24 -40.55,39.2 z"
         id="path392" /><path
         class="st8"
         d="m 146.36,328.86 c 20.06,0 39.64,-0.07 59.22,0.16 1.33,0.02 3.44,2.13 3.82,3.62 4.4,17.5 -8.19,36.19 -26,38.94 -19.36,2.99 -37.15,-10.37 -38.51,-28.97 -0.18,-2.48 -0.13,-5 0.09,-7.48 0.18,-1.9 0.81,-3.75 1.38,-6.27 z"
         id="path394" /><path
         class="st8"
         d="m 176.85,324.68 c -10.75,0 -21.49,0.14 -32.23,-0.13 -1.81,-0.05 -3.58,-1.84 -5.37,-2.82 1.16,-1.61 2.24,-3.28 3.49,-4.8 3.21,-3.9 6.97,-7.44 9.6,-11.69 2.38,-3.85 3.31,-8.57 5.3,-12.69 3.09,-6.38 7.28,-7.65 14.14,-6.2 3.71,0.79 7.94,0.58 11.64,-0.36 5.27,-1.35 9.27,-0.22 11.91,4.25 2.51,4.26 4.56,8.84 6.42,13.44 2.25,5.56 5.63,9.86 10.91,12.87 1.45,0.82 2.13,2.99 3.16,4.54 -1.86,1.17 -3.7,3.29 -5.59,3.35 -11.12,0.32 -22.25,0.16 -33.38,0.16 0,0.01 0,0.05 0,0.08 z"
         id="path396" /><path
         class="st8"
         d="m 133.72,420.94 c 2.15,0 3.64,0 5.89,0 0,2.02 0,3.88 0,5.74 0,69.15 -0.01,138.3 0,207.45 0,2.82 -0.03,5.66 0.25,8.46 0.87,8.5 7.49,14.49 16.16,14.82 8.69,0.33 15.77,-5.09 17.39,-13.46 0.39,-2.03 0.46,-4.13 0.46,-6.2 0.03,-39.7 0.02,-79.41 0.02,-119.11 0,-1.74 0,-3.48 0,-5.42 2.35,0 4.14,0 6.69,0 0,1.7 0,3.41 0,5.12 0,39.26 -0.02,78.52 0.03,117.78 0,2.8 0.19,5.67 0.8,8.4 1.8,8.01 8.62,13.1 16.93,12.94 7.95,-0.15 14.92,-5.99 16.24,-13.87 0.44,-2.62 0.44,-5.33 0.44,-8 0.02,-69.45 0.01,-138.89 0.01,-208.34 0,-2.05 0,-4.09 0,-6.45 2.23,0 3.98,0 6.23,0 0.08,1.8 0.24,3.52 0.24,5.24 0.01,24.54 -0.02,49.07 0.02,73.61 0.01,7.74 3.28,12.23 9.46,13.33 6.88,1.23 12.63,-2.43 14.05,-9.05 0.34,-1.59 0.4,-3.25 0.4,-4.88 0.02,-29.44 0.1,-58.89 -0.02,-88.33 -0.07,-17.3 -8.92,-29.04 -24.52,-32.94 -2.8,-0.7 -5.75,-1.22 -8.63,-1.23 -23.19,-0.1 -46.39,-0.3 -69.57,0.02 -17.18,0.23 -29.26,10.4 -32.7,26.61 -0.28,1.3 -0.44,2.65 -0.44,3.98 0,21.26 -0.02,42.53 0.09,63.79 0.04,6.79 4.18,11.73 10.07,12.56 7.68,1.08 13.86,-3.93 13.93,-11.72 0.15,-15.17 0.05,-30.34 0.06,-45.5 0.02,-1.61 0.02,-3.23 0.02,-5.35 z"
         id="path398" /><g
         id="g406">
	<path
   class="st9"
   d="m 669.42,601.55 c -13.35,-23.03 -27.24,-45.75 -40.3,-68.94 -18.01,-31.95 -15.57,-26.12 -47.04,-27.11 -18.48,-0.58 -36.99,-0.11 -56.08,-0.11 0,-7.06 0,-12.49 0,-18.93 18.84,0 37.06,0.03 55.29,-0.01 10.89,-0.02 16.51,-4.4 16.78,-12.95 0.28,-8.87 -5.5,-13.72 -16.87,-13.9 -16.41,-0.27 -32.83,-0.7 -49.24,-0.46 -6.57,0.09 -8.55,-2.27 -8.61,-8.56 -0.08,-8.95 -0.47,-18 -1.88,-26.82 -2.28,-14.19 -14.55,-23.83 -28.99,-23.84 -14.55,-0.01 -25.16,8.7 -28.06,23.41 -0.83,4.23 -1.38,8.66 -1.12,12.94 1.66,27.82 2.72,55.71 5.67,83.4 2.61,24.44 10.26,31.26 34.81,31.91 29.08,0.78 58.21,0.19 87.31,-0.21 5.98,-0.08 9.45,1.53 12.44,6.94 11.09,20.04 22.69,39.8 34.21,59.6 8.45,14.52 18.1,19.21 28.22,13.36 7.72,-4.45 14.02,-11.52 3.46,-29.72 z"
   id="path400" />
	<path
   class="st9"
   d="m 597.08,566.69 c -1.14,3.96 -1.76,5.95 -2.28,7.97 -8.73,33.85 -35.11,58.27 -67.31,62.28 -35.02,4.36 -67.09,-11.73 -83.38,-41.86 -16.39,-30.29 -11.97,-65.9 11.52,-93.36 1.56,-1.83 3.96,-4.01 3.92,-5.98 -0.22,-10.59 -1.1,-21.17 -1.85,-33.46 -4.89,3.56 -8.26,5.71 -11.28,8.26 -30.26,25.67 -44.05,58.18 -40.4,97.87 4.48,48.69 41.96,88.22 92.04,97.11 46.61,8.27 96.29,-17.21 116.37,-59.83 1.09,-2.32 2.32,-5.87 1.33,-7.67 -5.57,-10.16 -11.81,-19.97 -18.68,-31.33 z"
   id="path402" />
	<path
   class="st9"
   d="m 490.07,391.24 c 15.56,0.07 28.24,-12.86 27.94,-28.5 -0.29,-15.3 -12.82,-27.39 -28.18,-27.2 -15.34,0.19 -27.62,12.63 -27.55,27.91 0.07,15.16 12.63,27.72 27.79,27.79 z"
   id="path404" />
</g><path
         d="m 211.28,301.26 -8.43,-5.24 c 2.63,2 5.45,3.76 8.43,5.24 z"
         id="path408" /><path
         class="st7"
         d="M 544.82,141.52 C 519.21,115 489.94,94.55 457.23,79.92 435.98,70.41 413.26,63.39 389.15,58.76 c -1.51,-0.3 -3.01,-0.59 -4.51,-0.87 -6.6,-1.22 -13.14,-2.18 -19.61,-2.92 C 311.11,48.8 262.74,58.31 230.97,67.71 193.92,79.39 160.42,97.73 130.55,122.98 82.3,163.76 38.07,249.56 48.57,281.13 c 22.95,-26.8 53.48,-41.74 91.95,-42.27 38.65,-0.54 69.91,13.56 94.22,40 0,0 24.68,-30.88 64.82,-43.08 17.34,-5.27 37.55,-7.06 59.91,-1.36 19.21,4.89 39.99,15.28 61.89,33.73 25.57,-25.29 57.04,-38.38 95.56,-36.67 38.79,1.72 68.46,18.02 91.08,46.13 -3.29,-48.39 -25.24,-96.8 -63.18,-136.09 z"
         id="path410" /><path
         class="st10"
         d="m 393.9,443.51 c 4.36,21.86 8.73,43.71 13.03,65.58 3.33,-7.3 7.24,-14.28 11.69,-20.87 -8.2,-15.47 -16.26,-30.66 -24.3,-45.83 -0.5,0.56 -0.48,0.84 -0.42,1.12 z"
         id="path412" /><path
         class="st5"
         d="m 407.7,509.09 c -4.21,-21.87 -8.48,-43.73 -12.75,-65.58 -0.05,-0.28 -0.07,-0.56 0.42,-1.12 7.87,15.17 15.74,30.36 23.77,45.83 6.47,-9.8 14.09,-18.74 22.65,-26.64 -6.59,-13.88 -13.08,-27.82 -20,-41.53 -2.9,-5.75 -6.92,-11.04 -11.02,-16.02 -6.68,-8.11 -15.48,-12.76 -25.9,-12.92 -19.13,-0.3 -38.27,-0.4 -57.39,0.01 -15.78,0.34 -27.34,8.94 -34.42,22.72 -13.79,26.85 -26.75,54.16 -40.07,81.27 -5.98,12.17 2.58,22.66 11.18,23.82 6.08,0.83 11.54,-0.71 14.74,-6.29 5.57,-9.71 10.73,-19.68 15.92,-29.62 6.35,-12.15 12.54,-24.38 18.81,-36.58 0.51,-0.99 1.08,-1.95 2.15,-2.73 -1.36,7.04 -2.7,14.08 -4.09,21.12 -6.81,34.26 -13.63,68.51 -20.45,102.77 -0.13,0.66 -0.11,1.36 -0.32,1.99 -0.79,2.42 0.6,2.88 2.45,2.91 6.5,0.1 13,0.18 19.51,0.26 1.29,0.02 2.58,0 4.25,0 0,1.58 -0.01,2.8 0,4.02 0.13,21.49 0.14,42.98 0.47,64.47 0.13,8.19 5.71,14.31 13.5,15.89 8.03,1.63 17.31,-3.68 19.83,-11.44 0.32,-0.97 0.22,-2.09 0.23,-3.15 0.17,-21.88 0.34,-43.75 0.5,-65.63 0.01,-1.23 0,-2.47 0,-3.93 2.67,0 5.06,0 7.9,0 0,1.23 -0.01,2.45 0,3.66 0.14,21.59 0.14,43.17 0.5,64.76 0.16,9.39 8.14,16.42 17.33,15.95 4.54,-0.23 8.5,-2.04 11.44,-5.56 3.2,-3.84 5.38,-8.05 5.32,-13.53 -0.22,-20.53 -0.09,-41.05 -0.09,-61.58 0,-1.14 0,-2.29 0,-3.76 0.34,0 0.66,0 1,0 -0.03,-1.3 -0.05,-2.61 -0.05,-3.92 -0.01,-21.37 4.53,-41.66 12.68,-59.92 z"
         id="path414" /></g></g><style
     type="text/css"
     id="style388">
	.st0{fill:#00D2D7;}
	.st1{fill:#0FDFEB;}
	.st2{fill:#00DAC6;}
	.st3{fill:#00D3D4;}
	.st4{fill:#00DDCB;}
	.st5{fill:#00FFFF;}
	.st6{fill:#00D7EF;}
	.st7{fill:#00F1F7;}
	.st8{fill:#00ECD8;}
	.st9{fill:#00FFE4;}
	.st10{fill:none;}
	.st11{fill:#FFFFFF;}
	.st12{fill:#00E2D5;}
	.st13{fill:#ED1C24;}
	.st14{fill:#231F20;}
	.st15{fill-rule:evenodd;clip-rule:evenodd;fill:#0FDFEB;}
	.st16{fill-rule:evenodd;clip-rule:evenodd;fill:#00FFE4;}
	.st17{fill:#B3E8EF;}
</style></svg>
