<?xml version="1.0" encoding="UTF-8" standalone="no"?>
<!-- Created with Inkscape (http://www.inkscape.org/) -->

<svg
   width="580"
   height="580"
   viewBox="0 0 153.45833 153.45833"
   version="1.1"
   id="svg459"
   xml:space="preserve"
   inkscape:version="1.2 (dc2aedaf03, 2022-05-15)"
   sodipodi:docname="rakyat-social-protection.svg"
   xmlns:inkscape="http://www.inkscape.org/namespaces/inkscape"
   xmlns:sodipodi="http://sodipodi.sourceforge.net/DTD/sodipodi-0.dtd"
   xmlns="http://www.w3.org/2000/svg"
   xmlns:svg="http://www.w3.org/2000/svg"><sodipodi:namedview
     id="namedview461"
     pagecolor="#ffffff"
     bordercolor="#000000"
     borderopacity="0.25"
     inkscape:showpageshadow="2"
     inkscape:pageopacity="0.0"
     inkscape:pagecheckerboard="0"
     inkscape:deskcolor="#d1d1d1"
     inkscape:document-units="mm"
     showgrid="false"
     inkscape:zoom="0.70199214"
     inkscape:cx="397.44035"
     inkscape:cy="105.41429"
     inkscape:window-width="1920"
     inkscape:window-height="986"
     inkscape:window-x="-11"
     inkscape:window-y="-11"
     inkscape:window-maximized="1"
     inkscape:current-layer="layer1" /><defs
     id="defs456" /><g
     inkscape:label="Layer 1"
     inkscape:groupmode="layer"
     id="layer1"><g
       id="g498"
       transform="matrix(0.26458333,0,0,0.26458333,-12.789899,-10.224649)"><path
         class="st12"
         d="m 305.16,395.01 c -1.33,-0.55 -2.74,-0.97 -3.98,-1.67 -4.84,-2.73 -7.2,-6.97 -7.23,-12.48 -0.04,-9.4 -0.01,-18.81 -0.01,-28.21 0,-42.6 0,-85.2 -0.02,-127.81 0,-1.48 0.61,-3.69 -1.77,-3.69 -2.39,0 -1.77,2.22 -1.77,3.7 -0.03,17.43 -0.01,34.86 -0.03,52.29 0,5.37 -2.92,9.42 -7.55,10.62 -6.46,1.67 -12.65,-2.9 -12.79,-9.6 -0.12,-5.64 -0.03,-11.28 -0.03,-16.92 0,-13.89 -0.01,-27.77 0,-41.66 0.01,-21.88 16.61,-38.47 38.46,-38.48 10.56,0 21.12,-0.01 31.68,0 20.69,0.02 37.5,16.13 37.84,36.86 0.33,19.96 0.13,39.92 0.07,59.89 -0.02,5.83 -4.55,10.28 -10.15,10.29 -5.69,0.01 -10.19,-4.51 -10.2,-10.47 -0.04,-17.21 0.01,-34.43 -0.05,-51.64 0,-1.55 0.9,-4.11 -1.7,-4.14 -2.87,-0.03 -1.79,2.67 -1.79,4.23 -0.05,50.63 -0.04,101.26 -0.04,151.89 0,9.94 -2.13,13.17 -11.2,17 -1.74,0 -3.47,0 -5.21,0 -9.08,-3.75 -11.22,-6.99 -11.22,-16.95 0,-26.67 0,-53.35 0,-80.02 0,-2.35 -0.93,-3.65 -2.56,-3.49 -2.09,0.21 -2.38,1.71 -2.36,3.47 0.04,3.98 0.01,7.95 0.01,11.93 0,23.49 0,46.99 0,70.48 0,5.66 -2.23,10.09 -7.24,12.91 -1.24,0.7 -2.64,1.13 -3.96,1.68 -1.73,-0.01 -3.46,-0.01 -5.2,-0.01 z"
         id="path465" /><path
         class="st3"
         d="m 238.76,395.01 c -1.73,-0.86 -3.63,-1.49 -5.17,-2.61 -3.52,-2.55 -5.07,-6.2 -5.07,-10.52 -0.01,-5.35 0,-10.7 0,-16.05 0,-42.52 0,-85.03 0,-127.55 0,-0.79 0.16,-1.66 -0.1,-2.36 -0.24,-0.62 -1.09,-1.52 -1.47,-1.44 -0.65,0.15 -1.3,0.89 -1.64,1.55 -0.27,0.52 -0.08,1.27 -0.08,1.92 0,16.05 0.02,32.1 -0.01,48.16 -0.01,6.58 -4.94,11 -11.03,10 -4.68,-0.77 -7.78,-4.59 -7.8,-9.75 -0.03,-8.17 -0.04,-16.34 -0.01,-24.51 0.04,-10.92 -0.37,-21.86 0.29,-32.74 1.05,-17.24 15.63,-31.04 32.88,-31.57 9.82,-0.31 19.67,-0.08 29.5,-0.08 0.27,0 0.55,0.08 0.99,0.16 -0.25,0.61 -0.42,1.13 -0.67,1.62 -3.27,6.44 -4.77,13.28 -4.75,20.5 0.04,18.73 0.32,37.46 -0.1,56.18 -0.25,10.89 8.11,19.25 19.52,17.21 0,0.89 0,1.72 0,2.55 0,28.49 0,56.98 0,85.47 0,7.1 -2.86,11.12 -9.58,13.51 -0.19,0.07 -0.36,0.23 -0.53,0.35 -1.74,0 -3.47,0 -5.21,0 -7.65,-2.55 -10.28,-7.99 -10.21,-15.83 0.24,-24.3 0.09,-48.6 0.08,-72.9 0,-0.79 0.18,-1.75 -0.19,-2.33 -0.48,-0.74 -1.4,-1.56 -2.19,-1.62 -0.65,-0.05 -1.55,0.85 -2.01,1.55 -0.34,0.53 -0.2,1.4 -0.2,2.12 -0.01,12.15 -0.01,24.3 -0.01,36.45 0,13.09 -0.01,26.18 0.01,39.27 0.01,5.13 -2.08,9.08 -6.53,11.69 -1.1,0.65 -2.33,1.08 -3.5,1.61 -1.74,-0.01 -3.47,-0.01 -5.21,-0.01 z"
         id="path467" /><path
         class="st3"
         d="m 362.45,395.01 c -2,-1.03 -4.01,-2.07 -6.2,-3.19 3.1,-4.79 3.23,-9.66 3.22,-14.63 -0.05,-27.62 -0.03,-55.23 -0.03,-82.85 0,-0.94 0,-1.87 0,-3.11 0.75,0.32 1.32,0.54 1.88,0.79 10.41,4.57 21.88,-2.38 22.01,-13.73 0.23,-20.24 0.1,-40.48 0.01,-60.73 -0.03,-7.38 -2.25,-14.22 -5.99,-20.75 0.44,-0.15 0.74,-0.34 1.05,-0.34 7.45,0.02 14.91,-0.3 22.33,0.16 15.67,0.96 27.84,11.76 31.22,27.05 4.18,18.91 8.42,37.8 12.65,56.7 0.17,0.76 0.49,1.49 0.74,2.23 0,1.59 0,3.18 0,4.77 -0.13,0.25 -0.29,0.5 -0.4,0.77 -2.12,5.57 -6.25,8.37 -11.76,7.95 -5.03,-0.39 -8.83,-4.07 -9.99,-9.62 -3.54,-16.91 -7.1,-33.81 -10.65,-50.72 -0.51,-2.41 -0.93,-4.83 -1.57,-7.2 -0.15,-0.55 -1.04,-0.9 -1.59,-1.34 -0.32,0.57 -0.7,1.12 -0.92,1.73 -0.11,0.3 0.07,0.71 0.13,1.06 4.68,25.67 9.37,51.35 14.05,77.02 0.96,5.25 1.89,10.5 2.89,16.08 -2.59,0 -4.93,0 -7.51,0 0,1.14 0,1.99 0,2.84 0,18.88 0.01,37.75 -0.01,56.63 0,6.1 -2.73,9.95 -8.41,12.02 -0.26,0.09 -0.48,0.28 -0.73,0.42 -1.74,0 -3.47,0 -5.21,0 -0.16,-0.13 -0.29,-0.32 -0.47,-0.4 -6.09,-2.48 -8.41,-5.9 -8.4,-12.42 0.01,-18.87 0.01,-37.73 0,-56.6 0,-0.77 -0.07,-1.53 -0.11,-2.29 -6.19,0 -12.14,0 -18.26,0 0,1.05 0,1.9 0,2.76 0,18.94 0.01,37.88 0,56.82 0,5.71 -2.8,9.7 -8.03,11.61 -0.4,0.15 -0.78,0.35 -1.17,0.52 -1.59,-0.01 -3.18,-0.01 -4.77,-0.01 z"
         id="path469" /><path
         class="st3"
         d="m 295.08,148.01 c 0,-16.05 12.96,-29.02 28.97,-29.01 15.98,0.01 28.95,13.05 28.92,29.08 -0.03,15.91 -12.98,28.86 -28.88,28.89 -16.02,0.03 -29.01,-12.94 -29.01,-28.96 z"
         id="path471" /><path
         class="st3"
         d="m 357.02,166.11 c 0.19,-14.84 12.25,-26.68 27.02,-26.53 14.88,0.15 26.71,12.31 26.53,27.24 -0.18,14.59 -12.41,26.49 -27.03,26.32 -14.85,-0.18 -26.71,-12.27 -26.52,-27.03 z"
         id="path473" /><path
         class="st3"
         d="m 256.36,140.11 c 15.08,0.09 26.79,12.08 26.66,27.29 -0.12,14.43 -12.3,26.31 -26.9,26.22 -14.89,-0.1 -26.69,-12.19 -26.55,-27.21 0.14,-14.57 12.18,-26.39 26.79,-26.3 z"
         id="path475" /><path
         class="st15"
         d="M 179.54,94.17 C 83.5,159.75 34.54,281.04 66.35,399.73 106.6,549.99 261.05,639.16 411.31,598.89 534.1,566 616.07,456.88 620,336.09 603.01,435.22 530.24,520.38 426.72,548.11 284.9,586.12 139.15,501.96 101.14,360.14 74.45,260.54 108.03,158.97 179.54,94.17 Z"
         id="path477" /><path
         class="st16"
         d="M 494.34,482.79 C 575.37,427.45 616.69,325.12 589.85,224.96 555.87,98.16 425.55,22.92 298.75,56.88 195.14,84.65 125.96,176.73 122.65,278.65 136.99,195 198.39,123.15 285.75,99.75 405.41,67.68 528.42,138.7 560.48,258.36 c 22.53,84.06 -5.8,169.76 -66.14,224.43 z"
         id="path479" /><path
         class="st15"
         d="m 502.13,382.47 c -2.6,-6.75 -13.58,-10.94 -26.06,-9.36 -3.12,0 -6.8,1.03 -9.93,2.09 -15.13,4.66 -93.34,31.29 -93.85,31.8 l -1.58,0.51 1.02,1.03 c 8.89,7.31 13.08,15.13 10.99,21.93 -2.6,9.36 -15.13,15.13 -36.49,16.67 -18.25,1.58 -41.72,0 -68.87,-5.21 2.61,0 6.29,0 9.41,0.51 19.78,-0.51 38.6,-0.51 52.65,-1.03 22.44,-2.1 33.37,-6.8 34.96,-15.64 0.5,-5.21 -2.66,-9.91 -10.43,-13.55 -8.37,-4.7 -26.07,-6.79 -43.3,-9.92 -11.49,-1.58 -22.44,-3.11 -30.25,-5.21 -27.1,-6.79 -54.75,-14.11 -86.55,-11.5 -5.21,0.56 -10.43,1.07 -15.12,2.1 -25.01,4.19 -48.98,9.91 -74.54,17.23 l -3.16,0.51 37.56,54.23 c 6.75,-1.58 13.55,-3.11 20.35,-3.62 8.84,-0.56 17.18,-0.56 25.52,0.51 10.47,2.05 35.99,7.26 61.03,11.97 25.55,5.72 50.05,10.43 59.4,11.49 5.76,1.02 10.48,1.02 15.69,0.51 12.52,-1.07 25.56,-7.82 38.03,-14.06 3.68,-2.65 7.87,-4.19 10.98,-6.29 L 491.18,399.7 c 12.5,-7.32 12.5,-13.55 10.95,-17.23 z"
         id="path481" /></g></g><style
     type="text/css"
     id="style463">
	.st0{fill:#00D2D7;}
	.st1{fill:#0FDFEB;}
	.st2{fill:#00DAC6;}
	.st3{fill:#00D3D4;}
	.st4{fill:#00DDCB;}
	.st5{fill:#00FFFF;}
	.st6{fill:#00D7EF;}
	.st7{fill:#00F1F7;}
	.st8{fill:#00ECD8;}
	.st9{fill:#00FFE4;}
	.st10{fill:none;}
	.st11{fill:#FFFFFF;}
	.st12{fill:#00E2D5;}
	.st13{fill:#ED1C24;}
	.st14{fill:#231F20;}
	.st15{fill-rule:evenodd;clip-rule:evenodd;fill:#0FDFEB;}
	.st16{fill-rule:evenodd;clip-rule:evenodd;fill:#00FFE4;}
	.st17{fill:#B3E8EF;}
</style></svg>
