<?xml version="1.0" encoding="UTF-8"?>
<svg id="Layer_1" data-name="Layer 1" xmlns="http://www.w3.org/2000/svg" viewBox="0 0 46.87 48.11">
  <defs>
    <style>
      .cls-1 {
        fill: #eb1d36;
      }

      .cls-2 {
        fill: #ffd6d6;
      }

      .cls-3 {
        fill: #7a0003;
      }
    </style>
  </defs>
  <g>
    <path class="cls-2" d="M35.31,31.74l-6.66,7.23s-.53,.69-.53,2.34-.03,6.87-.03,6.87l-2.63,.03,.03-6.97,.66-2.97,5.94-5.97s1.44-2.13,3.22-.56Z"/>
    <path class="cls-2" d="M3.28,27.58l-.07,7.1s-.52,1.15,1.5,2.1c2.15,1.02,9.09,5.83,9.09,5.83,0,0,.67,.7,.67,1.74v3.81l-1.9,.03-.2-3.39s-1.03-1.48-2.88-2.51c-1.85-1.03-7.91-5.62-7.91-5.62l-.22-5.47s-.52-3.47,1.92-3.62Z"/>
  </g>
  <g>
    <g>
      <path class="cls-1" d="M35.4,47.79h-1c.07-1.07,.06-2.15,.23-3.19,.14-.84,.77-1.42,1.48-1.89,2.84-1.88,5.66-3.79,8.52-5.65,.81-.53,1.17-1.15,1.14-2.13-.06-1.9-.02-3.8-.02-5.7,0-.98-.55-1.61-1.39-1.63-.82-.02-1.42,.64-1.43,1.6-.01,1.55-.02,3.1,0,4.64,0,.7-.27,1.19-.87,1.54-2.15,1.25-4.28,2.53-6.43,3.78-1.06,.62-2.16,.44-2.85-.44-.65-.83-.56-1.97,.25-2.84,.62-.66,1.27-1.28,1.9-1.92,.72-.74,.78-1.66,.15-2.29-.61-.61-1.58-.57-2.31,.15-1.78,1.77-3.56,3.54-5.32,5.32-1,1.01-1.47,2.25-1.47,3.66,0,2.1,0,4.19,0,6.29,0,.21,0,.43,0,.68h-.94c0-.77,0-1.51,0-2.25,0-1.55,0-3.1,0-4.64,0-1.73,.58-3.23,1.79-4.45,1.76-1.78,3.53-3.56,5.32-5.32,1.06-1.04,2.63-1.07,3.59-.1,1,1,.95,2.51-.13,3.62-.59,.6-1.19,1.19-1.78,1.79-.6,.61-.7,1.21-.31,1.72,.4,.53,.99,.59,1.73,.15,2.08-1.22,4.15-2.45,6.23-3.66,.37-.21,.52-.47,.51-.89-.02-1.57-.02-3.14,0-4.7,.01-1.06,.71-1.99,1.64-2.28,.91-.29,1.99,0,2.52,.8,.29,.45,.5,1.04,.51,1.57,.06,2.06,.01,4.11,.03,6.17,0,1.01-.39,1.76-1.23,2.32-2.87,1.9-5.73,3.84-8.61,5.71-1.02,.67-1.54,1.51-1.45,2.73,.04,.56,0,1.13,0,1.72Z"/>
      <path class="cls-1" d="M35.78,48.16h-1.78l.03-.4c.02-.32,.03-.65,.05-.97,.03-.74,.06-1.51,.19-2.26,.18-1.06,1.02-1.73,1.64-2.14,1.04-.69,2.09-1.39,3.13-2.08,1.79-1.2,3.58-2.39,5.39-3.57,.72-.47,.99-.97,.96-1.8-.04-1.32-.04-2.65-.03-3.94,0-.59,0-1.18,0-1.77,0-.77-.38-1.24-1.02-1.25-.27-.02-.5,.08-.68,.26-.23,.22-.36,.57-.36,.97-.01,1.55-.02,3.09,0,4.64,0,.84-.34,1.45-1.06,1.87-1.11,.65-2.21,1.3-3.31,1.95-1.04,.61-2.07,1.22-3.11,1.83-1.22,.71-2.52,.5-3.33-.53-.78-.99-.67-2.32,.27-3.33,.38-.41,.78-.8,1.18-1.2,.24-.24,.49-.48,.73-.73,.58-.59,.64-1.28,.15-1.77-.47-.47-1.21-.41-1.78,.15-1.78,1.76-3.55,3.54-5.32,5.32-.9,.91-1.36,2.06-1.36,3.4v7.34h-1.69v-4.05c0-1.07,0-2.14,0-3.21,0-1.85,.63-3.44,1.9-4.72,1.76-1.78,3.53-3.56,5.32-5.32,1.19-1.17,3-1.22,4.12-.1,1.15,1.15,1.09,2.89-.13,4.14-.32,.32-.64,.64-.96,.96-.28,.28-.55,.55-.83,.83-.69,.7-.38,1.1-.28,1.23,.19,.25,.51,.49,1.24,.06l2.38-1.4c1.28-.76,2.56-1.51,3.85-2.26,.25-.15,.33-.28,.32-.56-.02-1.57-.02-3.14,0-4.71,.02-1.2,.8-2.29,1.9-2.64,1.11-.35,2.35,.05,2.94,.95,.34,.52,.56,1.18,.58,1.77,.04,1.27,.03,2.54,.03,3.81,0,.79,0,1.58,0,2.37,0,1.14-.45,2-1.4,2.63-1.08,.71-2.15,1.43-3.23,2.15-1.79,1.2-3.58,2.39-5.39,3.57-.96,.62-1.36,1.36-1.28,2.39,.03,.4,.02,.79,.01,1.2,0,.18,0,.36,0,.55v.38Zm-.98-.75h.23c0-.06,0-.13,0-.19,0-.39,.01-.76-.01-1.13-.09-1.3,.44-2.3,1.62-3.08,1.8-1.17,3.59-2.37,5.38-3.56,1.07-.72,2.15-1.44,3.23-2.15,.74-.49,1.07-1.12,1.07-2,0-.79,0-1.59,0-2.38,0-1.26,0-2.52-.03-3.78-.01-.44-.19-.97-.45-1.38-.41-.63-1.29-.9-2.09-.65-.8,.25-1.37,1.05-1.38,1.93-.02,1.56-.02,3.13,0,4.69,0,.56-.21,.94-.7,1.22-1.28,.75-2.56,1.5-3.84,2.26l-2.38,1.4c-1.22,.72-1.91,.15-2.22-.25-.51-.67-.39-1.48,.34-2.21,.28-.28,.55-.56,.83-.83,.32-.32,.64-.63,.95-.95,.94-.96,1-2.23,.14-3.09-.82-.82-2.16-.78-3.06,.11-1.79,1.76-3.55,3.53-5.32,5.32-1.12,1.14-1.69,2.55-1.68,4.19,0,1.07,0,2.14,0,3.22v3.3s.19,0,.19,0v-6.59c0-1.55,.54-2.87,1.58-3.93,1.76-1.79,3.54-3.56,5.32-5.33,.86-.85,2.08-.91,2.84-.15,.78,.78,.71,1.94-.15,2.82-.24,.25-.49,.49-.74,.74-.39,.39-.78,.78-1.16,1.18-.67,.72-.77,1.67-.23,2.35,.57,.73,1.48,.86,2.36,.34,1.04-.61,2.08-1.22,3.11-1.83,1.1-.65,2.21-1.3,3.32-1.95,.49-.28,.69-.65,.68-1.21-.02-1.55-.01-3.1,0-4.65,0-.61,.21-1.14,.59-1.5,.32-.31,.77-.48,1.22-.47,1.05,.02,1.75,.83,1.76,2,0,.59,0,1.19,0,1.78,0,1.28-.02,2.61,.03,3.91,.04,1.09-.37,1.84-1.31,2.45-1.8,1.17-3.59,2.37-5.38,3.56-1.04,.7-2.08,1.39-3.13,2.08-.81,.54-1.22,1.04-1.32,1.64-.12,.7-.15,1.42-.18,2.17,0,.19-.02,.39-.03,.58Z"/>
    </g>
    <g>
      <path class="cls-1" d="M22.2,47.79h-.91c0-.21,0-.42,0-.63,0-2.06-.01-4.12,0-6.17,.01-1.57-.52-2.9-1.64-4.01-1.68-1.67-3.35-3.35-5.03-5.03-.17-.16-.34-.33-.54-.45-.66-.41-1.51-.28-1.97,.27-.49,.58-.49,1.41,.04,1.99,.65,.7,1.35,1.37,2.02,2.05,.52,.53,.82,1.15,.73,1.91-.19,1.52-1.79,2.29-3.15,1.5-2.2-1.27-4.38-2.58-6.58-3.87-.56-.33-.82-.8-.81-1.45,.01-1.51,0-3.02,0-4.53,0-.29-.03-.59-.13-.86-.22-.62-.8-.97-1.42-.9-.65,.07-1.23,.55-1.24,1.21-.04,2.29-.03,4.58,0,6.88,0,.56,.42,.89,.86,1.18,2.86,1.89,5.69,3.82,8.56,5.68,1.29,.84,1.92,1.95,1.84,3.49-.03,.56,0,1.13,0,1.73h-.94c0-.63-.02-1.27,0-1.9,.05-1.09-.41-1.86-1.31-2.45-2.81-1.85-5.59-3.76-8.42-5.58-1.1-.71-1.62-1.59-1.57-2.91,.07-1.92,.01-3.84,.02-5.76,0-1.47,1.01-2.54,2.36-2.52,1.32,.01,2.32,1.08,2.34,2.51,.01,1.53,.02,3.06,0,4.59,0,.43,.15,.67,.52,.89,2.1,1.22,4.18,2.46,6.27,3.69,.69,.4,1.29,.33,1.68-.19,.37-.49,.29-1.1-.23-1.64-.63-.65-1.28-1.27-1.91-1.92-1.03-1.06-1.08-2.54-.13-3.53,.95-.99,2.53-1.01,3.59,.03,1.83,1.8,3.65,3.61,5.44,5.45,1.15,1.17,1.7,2.61,1.71,4.25,.01,2.19,0,4.39,0,6.58,0,.13-.02,.27-.03,.43Z"/>
      <path class="cls-1" d="M22.54,48.16h-1.63v-2.92c0-1.42,0-2.84,0-4.27,.01-1.49-.49-2.71-1.53-3.74-.95-.95-1.9-1.9-2.85-2.85l-2.18-2.18c-.14-.14-.3-.29-.47-.4-.5-.31-1.14-.22-1.49,.2-.38,.45-.36,1.07,.03,1.49,.43,.46,.88,.91,1.32,1.35,.23,.23,.46,.46,.69,.69,.65,.66,.93,1.41,.83,2.22-.1,.84-.58,1.53-1.31,1.89-.74,.37-1.64,.33-2.4-.11-1.35-.78-2.68-1.57-4.02-2.36-.85-.5-1.71-1.01-2.56-1.51-.67-.39-1.01-.99-1-1.78,.01-1.51,0-3.01,0-4.52,0-.3-.04-.55-.1-.74-.16-.45-.57-.7-1.03-.65-.43,.05-.9,.36-.91,.85-.03,2-.04,4.11,0,6.87,0,.35,.26,.58,.7,.88,1.02,.67,2.03,1.35,3.04,2.03,1.83,1.23,3.67,2.45,5.52,3.65,1.44,.94,2.1,2.19,2.01,3.82-.02,.38-.01,.75,0,1.14v.94s-1.69,0-1.69,0v-.96c0-.44-.01-.89,0-1.33,.04-.91-.33-1.58-1.15-2.12-1.13-.75-2.26-1.5-3.39-2.26-1.67-1.12-3.34-2.23-5.03-3.32-1.24-.8-1.79-1.83-1.75-3.24,.04-1.27,.04-2.58,.03-3.83,0-.64,0-1.28,0-1.91,0-.84,.3-1.61,.85-2.14,.5-.49,1.13-.76,1.89-.75,1.53,.01,2.69,1.25,2.71,2.88,.01,1.53,.02,3.06,0,4.59,0,.28,.07,.41,.33,.56,1.32,.77,2.64,1.55,3.96,2.33l2.32,1.37c.51,.3,.92,.27,1.19-.1,.35-.46,.02-.92-.21-1.15-.32-.33-.65-.66-.98-.99-.31-.31-.62-.62-.92-.93-1.17-1.2-1.22-2.91-.13-4.05,.52-.54,1.22-.85,1.97-.86,.78,0,1.56,.3,2.15,.88,1.72,1.69,3.5,3.47,5.45,5.45,1.2,1.22,1.81,2.74,1.82,4.51,0,1.7,0,3.39,0,5.09v1.5c0,.1-.01,.2-.02,.31l-.04,.49Zm-.88-.75h.19s0-.04,0-.05v-1.5c0-1.7,0-3.39,0-5.09,0-1.57-.55-2.91-1.6-3.99-1.94-1.98-3.72-3.76-5.44-5.44-.45-.44-1.01-.67-1.61-.67-.55,0-1.06,.23-1.44,.63-.82,.86-.77,2.09,.12,3.01,.3,.31,.61,.61,.91,.92,.33,.33,.67,.66,.99,1,.65,.67,.75,1.48,.27,2.13-.51,.68-1.32,.79-2.17,.29l-2.32-1.37c-1.32-.78-2.63-1.56-3.95-2.32-.5-.29-.71-.66-.7-1.22,.02-1.52,.02-3.05,0-4.58,0-1.23-.84-2.13-1.96-2.14-.51,0-1,.18-1.36,.54-.4,.4-.62,.97-.62,1.61,0,.64,0,1.27,0,1.91,0,1.27,.02,2.58-.03,3.87-.04,1.15,.38,1.93,1.4,2.58,1.69,1.09,3.37,2.21,5.04,3.33,1.13,.75,2.25,1.51,3.39,2.25,1.05,.69,1.53,1.6,1.48,2.78-.02,.43-.01,.86,0,1.29v.22h.19v-.18c0-.41-.01-.8,0-1.19,.07-1.36-.46-2.36-1.67-3.15-1.85-1.2-3.69-2.43-5.53-3.66-1.01-.68-2.03-1.35-3.04-2.03-.36-.24-1.02-.68-1.03-1.49-.03-2.76-.02-4.88,0-6.89,.01-.81,.69-1.49,1.58-1.58,.83-.08,1.54,.38,1.82,1.15,.1,.28,.14,.6,.15,.98,.01,1.51,.01,3.02,0,4.53,0,.52,.19,.87,.63,1.12,.86,.5,1.71,1.01,2.56,1.51,1.33,.79,2.67,1.58,4.01,2.36,.55,.32,1.17,.35,1.69,.09,.5-.25,.83-.73,.9-1.31,.07-.58-.13-1.1-.62-1.6-.23-.23-.46-.46-.69-.69-.46-.45-.91-.9-1.34-1.37-.66-.71-.68-1.73-.05-2.48,.59-.71,1.64-.86,2.46-.35,.24,.15,.44,.34,.61,.5l2.18,2.18c.95,.95,1.9,1.9,2.85,2.85,1.17,1.17,1.76,2.61,1.75,4.28-.01,1.42,0,2.84,0,4.26v2.17Z"/>
    </g>
  </g>
  <path class="cls-3" d="M15.05,15.49c.06,.22,.13,.44,.2,.66,.4,1.14,.99,2.37,1.84,3.42,0,0,0,0,0,0,.46,.55,.97,1.03,1.53,1.46-1.42,1.44-2.17,3.19-2.22,5.18-.01,.46,.15,.87,.44,1.18,.3,.31,.72,.48,1.19,.48,1.73,0,3.46,0,5.19,0s3.46,0,5.19,0c.46,0,.88-.17,1.18-.47,.3-.3,.46-.72,.45-1.19-.02-1.52-.48-2.91-1.35-4.14-.23-.33-.5-.63-.77-.94-.03-.03-.06-.07-.09-.1,.53-.4,1.02-.87,1.46-1.39v-.02c.76-.95,1.03-1.29,1.58-2.5v-.04c.1-.24,.18-.47,.26-.71,.7-2.25,.9-4.69,.9-4.69l.04,.04s.04-.06,.08-.09c.2-.15,.34-.34,.49-.54,.67-.88,.8-1.97,.36-3-.44-1.03-1.36-1.77-2.35-1.88-.23-.03-.46-.02-.69-.01-.29-.99-.84-1.71-1.59-2.09-.77-.39-1.71-.4-2.72-.04-.56-.71-1.48-1.09-2.44-1.12-.97,0-1.85,.41-2.41,1.1-.86-.41-1.78-.39-2.67,.05-.9,.45-1.47,1.16-1.68,2.08-.88-.02-1.7,.28-2.3,.84-.66,.61-1.01,1.46-.98,2.4,.03,.83,.41,1.58,1.2,2.31,0,.28,.01,.55,.02,.82,.02,.17,.14,1.19,.5,2.51m16.78-3.1s0,0,0,0h0s0,0,0,0Zm-1.76-4.2c.61-.1,1.07,.08,1.41,.54,.45,.6,.51,1.13,.19,1.67-.1,.17-.26,.34-.42,.51l-.09,.13c-.94,0-1.88,0-2.83,0,.15-.16,.31-.33,.45-.5,.64-.76,1.05-1.53,1.28-2.34Zm-3.51-1.26c0-.3-.05-.64-.14-1.02,.54-.27,1.05-.21,1.6,.17,.49,.34,.68,.8,.6,1.41-.09,.62-.36,1.2-.93,1.93-.46,.59-.98,1.09-1.57,1.47-.18,.12-.32,.16-.49,.15-.02,0-.05,0-.07,0,.71-1.22,1.04-2.57,1.01-4.11Zm-4.73-.64c.1-.51,.33-.9,.67-1.12,.23-.16,.52-.24,.84-.24,.14,0,.28,.02,.43,.04,.56,.11,.92,.48,1.1,1.11,.07,.27,.11,.54,.14,.76l.03,.2c-.07,1.46-.34,2.47-.91,3.34-.12,.19-.28,.37-.46,.52-.27,.23-.43,.14-.56,0-.29-.28-.52-.57-.66-.85-.65-1.27-.85-2.54-.61-3.78Zm-3.38,.01c.29-.36,.71-.56,1.18-.56,.04,0,.07,0,.11,0,.17,.01,.35,.09,.55,.17h.02c-.33,1.83-.02,3.55,.89,5.12-.11,0-.21,0-.32,0-1.43-.86-2.32-1.95-2.71-3.32-.14-.51-.05-1.02,.27-1.42Zm-3.55,3.62c-.06-.41,.07-.83,.37-1.22,.27-.36,.69-.55,1.12-.55,.1,0,.19,0,.29,.03,.29,1.02,.84,1.94,1.72,2.85-.93,0-1.86,0-2.8,0-.4-.3-.65-.69-.7-1.1Zm1.21,2.68h14.53v.42H15.96v-.42Zm12.53,14c0,.07,0,.12,0,.13-.02,0-.06,.01-.15,.01h-10.19c-.11,0-.17,0-.18,0,0-.02-.01-.07,0-.17,.08-1.7,.75-3.1,2.05-4.27,2.12,1.01,4.28,1.01,6.43,0,1.3,1.18,1.97,2.58,2.05,4.3Zm-.64-7.28c-1,1.07-2.1,1.74-3.38,2.03-1.6,.37-3.1,.06-4.59-.94-1.89-1.27-3.26-3.56-3.48-5.81h13.66c-.22,1.81-.95,3.35-2.21,4.71Z"/>
</svg>