<?xml version="1.0" encoding="UTF-8" standalone="no"?>
<!-- Created with Inkscape (http://www.inkscape.org/) -->

<svg
   width="640"
   height="640"
   viewBox="0 0 169.33334 169.33334"
   version="1.1"
   id="svg295"
   xml:space="preserve"
   inkscape:version="1.2 (dc2aedaf03, 2022-05-15)"
   sodipodi:docname="rakyat-health.svg"
   xmlns:inkscape="http://www.inkscape.org/namespaces/inkscape"
   xmlns:sodipodi="http://sodipodi.sourceforge.net/DTD/sodipodi-0.dtd"
   xmlns="http://www.w3.org/2000/svg"
   xmlns:svg="http://www.w3.org/2000/svg"><sodipodi:namedview
     id="namedview297"
     pagecolor="#ffffff"
     bordercolor="#000000"
     borderopacity="0.25"
     inkscape:showpageshadow="2"
     inkscape:pageopacity="0.0"
     inkscape:pagecheckerboard="0"
     inkscape:deskcolor="#d1d1d1"
     inkscape:document-units="mm"
     showgrid="false"
     inkscape:zoom="0.70199214"
     inkscape:cx="397.44035"
     inkscape:cy="447.29845"
     inkscape:window-width="1920"
     inkscape:window-height="986"
     inkscape:window-x="-11"
     inkscape:window-y="-11"
     inkscape:window-maximized="1"
     inkscape:current-layer="layer1" /><defs
     id="defs292" /><g
     inkscape:label="Layer 1"
     inkscape:groupmode="layer"
     id="layer1"><g
       id="g338"
       transform="translate(0.6171741,-2.7749577)"><g
         id="g333"
         transform="matrix(0.26458333,0,0,0.26458333,-10.745311,-6.4151535)"><path
           class="st4"
           d="m 641.09,366.38 c 15.79,-35.92 29.45,-72.37 31.12,-112.39 1.5,-35.91 -1.27,-70.45 -18.74,-103.06 -26.14,-48.79 -65.74,-78.69 -119.81,-89.67 -5.35,-1.09 -10.78,-1.72 -16.18,-2.57 -7.79,0 -15.59,0 -23.38,0 -9.56,1.73 -19.26,2.9 -28.65,5.29 -37.02,9.45 -67.14,30.26 -93.15,57.63 -4.58,4.82 -9.18,9.63 -14.07,14.75 -2.41,-2.57 -4.34,-4.61 -6.24,-6.68 C 335.25,111.52 317.38,94.98 295.66,82.47 262.3,63.26 226.7,55.39 188.91,60.5 135.02,67.79 95.38,96.88 67.33,143.17 42.22,184.6 41.41,229.76 46.47,275.45 c 3.18,28.75 13.39,56.04 24.58,82.74 4.74,11.31 4.78,11.32 17,11.23 34.72,-0.24 69.44,-0.62 104.15,-0.65 5.13,-0.01 8.23,-1.15 9.75,-6.39 1.27,-4.39 3.38,-8.56 5.25,-12.77 10.21,-22.97 20.48,-45.91 30.67,-68.88 2.39,-5.4 6.73,-6.84 12.13,-6.51 5.47,0.33 9.54,2.55 11.11,8.13 1.25,4.43 2.7,8.83 3.54,13.34 6.38,34.28 12.61,68.59 18.93,102.87 1.95,10.57 4.07,21.12 6.11,31.67 2.02,-2.63 2.9,-5.22 3.52,-7.88 15.94,-68.08 31.83,-136.17 47.8,-204.24 3.11,-13.27 6.42,-26.49 9.9,-39.67 1.68,-6.35 6.51,-10.17 12.03,-10.31 5.43,-0.14 10.18,3.09 12.47,8.97 1.86,4.77 3.59,9.64 4.85,14.6 14.57,57.29 29.12,114.59 43.41,171.95 1.21,4.84 3.17,6.01 7.85,5.96 22.32,-0.24 44.64,-0.27 66.96,0.03 4.92,0.06 7.57,-1.65 10.1,-5.69 9.75,-15.59 24.19,-21.84 42.19,-19.29 19.22,2.72 33.32,19.35 34.15,38.14 h 48.39 c 2.62,-5.44 5.33,-10.83 7.78,-16.42 z"
           id="path321" /><path
           class="st5"
           d="m 538.22,422.66 c -12.72,-2.04 -22.19,-8.91 -29.71,-18.82 -2.81,-3.71 -5.92,-5.18 -10.68,-5.16 -21.96,0.13 -43.93,-0.11 -65.89,-0.35 -6.72,-0.07 -13.44,-0.5 -20.16,-0.93 -4.88,-0.32 -8.3,-2.83 -9.87,-7.57 -1.84,-5.54 -3.96,-11.01 -5.42,-16.65 -9.98,-38.55 -19.81,-77.14 -29.71,-115.72 -0.49,-1.92 -1.17,-3.8 -1.75,-5.7 -2.03,3.26 -2.93,6.42 -3.68,9.62 -17.78,75.83 -35.5,151.67 -53.39,227.48 -2.19,9.28 -5.02,18.43 -8.07,27.47 -1.79,5.31 -7.75,8.76 -13,8.31 -5.73,-0.49 -9.45,-3.65 -11.07,-9.18 -0.75,-2.55 -1.6,-5.09 -2.07,-7.69 -7.79,-43.02 -15.55,-86.04 -23.28,-129.07 -2.1,-11.71 -4.11,-23.44 -6.15,-35.17 -2.21,1.51 -3.31,3.07 -4.05,4.8 -5.02,11.7 -10.31,23.31 -14.8,35.21 -2.89,7.68 -7.65,12.12 -15.77,12.88 -5.46,0.51 -10.93,1.23 -16.41,1.32 -29.75,0.5 -59.51,0.81 -89.26,1.26 -4.02,0.06 -8.04,0.51 -12.88,0.84 1.32,2.63 2.1,4.57 3.19,6.31 10.56,16.79 20.35,34.13 31.9,50.2 57.6,80.1 132.15,140.88 217.17,189.78 10.97,6.31 19.47,6.16 30.09,-0.23 46.68,-28.06 91.71,-58.09 132.12,-95.07 53.02,-48.52 96.54,-103.67 127.68,-168.02 h -48.4 c 0.11,2.55 0.01,5.13 -0.38,7.73 -3.29,21.42 -24.08,35.69 -46.3,32.12 z"
           id="path323" /></g></g></g><style
     type="text/css"
     id="style319">
	.st0{fill:#00D2D7;}
	.st1{fill:#0FDFEB;}
	.st2{fill:#00DAC6;}
	.st3{fill:#00D3D4;}
	.st4{fill:#00DDCB;}
	.st5{fill:#00FFFF;}
	.st6{fill:#00D7EF;}
	.st7{fill:#00F1F7;}
	.st8{fill:#00ECD8;}
	.st9{fill:#00FFE4;}
	.st10{fill:none;}
	.st11{fill:#FFFFFF;}
	.st12{fill:#00E2D5;}
	.st13{fill:#ED1C24;}
	.st14{fill:#231F20;}
	.st15{fill-rule:evenodd;clip-rule:evenodd;fill:#0FDFEB;}
	.st16{fill-rule:evenodd;clip-rule:evenodd;fill:#00FFE4;}
	.st17{fill:#B3E8EF;}
</style></svg>
