<?xml version="1.0" encoding="UTF-8" standalone="no"?>
<!-- Created with Inkscape (http://www.inkscape.org/) -->

<svg
   width="500"
   height="500"
   viewBox="0 0 132.29167 132.29167"
   version="1.1"
   id="svg770"
   xml:space="preserve"
   inkscape:version="1.2 (dc2aedaf03, 2022-05-15)"
   sodipodi:docname="komuniti-protection.svg"
   xmlns:inkscape="http://www.inkscape.org/namespaces/inkscape"
   xmlns:sodipodi="http://sodipodi.sourceforge.net/DTD/sodipodi-0.dtd"
   xmlns="http://www.w3.org/2000/svg"
   xmlns:svg="http://www.w3.org/2000/svg"><sodipodi:namedview
     id="namedview772"
     pagecolor="#ffffff"
     bordercolor="#000000"
     borderopacity="0.25"
     inkscape:showpageshadow="2"
     inkscape:pageopacity="0.0"
     inkscape:pagecheckerboard="0"
     inkscape:deskcolor="#d1d1d1"
     inkscape:document-units="mm"
     showgrid="false"
     inkscape:zoom="0.70199214"
     inkscape:cx="397.44035"
     inkscape:cy="333.33706"
     inkscape:window-width="1920"
     inkscape:window-height="986"
     inkscape:window-x="-11"
     inkscape:window-y="-11"
     inkscape:window-maximized="1"
     inkscape:current-layer="layer1" /><defs
     id="defs767" /><g
     inkscape:label="Layer 1"
     inkscape:groupmode="layer"
     id="layer1"><g
       id="g791"
       transform="matrix(0.26458333,0,0,0.26458333,2.5508279,-5.2410417)"><path
         class="st5"
         d="M 40.96,196.99 C 40.95,163.8 41.2,130.6 40.76,97.41 40.66,89.69 43.31,86.52 50.51,84.28 110.6,65.58 170.52,46.33 230.66,27.76 c 5.93,-1.83 13.4,-1.88 19.33,-0.05 59.73,18.46 119.24,37.63 178.93,56.2 8.01,2.49 11.16,5.73 11.08,14.72 -0.49,60.92 0.56,121.86 -0.47,182.77 -1.44,85.81 -40.48,150.08 -115.17,192.07 -24.85,13.97 -50.78,26.05 -76.55,38.3 -4.13,1.96 -10.78,1.99 -14.9,0.03 C 207.14,499.55 181.22,487.45 156.37,473.5 82.14,431.8 43.42,367.98 41.1,282.71 40.32,254.16 40.97,225.57 40.96,196.99 Z M 392.19,121.15 C 353.77,108.91 313.8,97.55 274.88,83.29 c -23.74,-8.7 -45.12,-8.76 -68.89,-0.05 -38.92,14.26 -78.9,25.6 -118.35,38.14 -0.32,2.47 -0.71,4.1 -0.71,5.73 -0.01,53.33 -1.64,106.73 0.46,159.98 2.54,64.44 33.46,113.26 89.79,145.08 18.24,10.3 37.24,19.3 56.23,28.18 3.82,1.78 9.87,1.86 13.67,0.09 19,-8.87 37.95,-17.96 56.24,-28.18 51,-28.51 84,-71.66 87.96,-129.99 4.07,-59.71 0.91,-119.91 0.91,-181.12 z"
         id="path776" /><path
         class="st6"
         d="m 392.19,121.15 c 0,61.21 3.16,121.41 -0.9,181.13 -3.96,58.32 -36.97,101.48 -87.96,129.99 -18.29,10.22 -37.25,19.31 -56.24,28.18 -3.79,1.77 -9.85,1.7 -13.67,-0.09 -18.99,-8.88 -37.99,-17.88 -56.23,-28.18 C 120.85,400.36 89.94,351.54 87.4,287.1 85.3,233.85 86.93,180.45 86.94,127.12 c 0,-1.63 0.39,-3.26 0.71,-5.73 39.44,-12.55 79.43,-23.89 118.35,-38.15 23.77,-8.71 45.15,-8.65 68.89,0.05 38.91,14.25 78.88,25.62 117.3,37.86 z M 208.41,348.63 C 258.51,296.38 307.78,245 357.62,193.02 345.95,181.91 335.21,171.68 324.11,161.11 285.13,201.72 247.14,241.29 209.22,280.8 190.74,263.26 172.95,246.37 154,228.38 c -9.41,10.17 -19.3,20.87 -29.9,32.34 27.59,28.76 55.39,57.75 84.31,87.91 z"
         id="path778" /><path
         class="st7"
         d="m 208.41,348.63 c -28.92,-30.16 -56.73,-59.15 -84.31,-87.92 10.61,-11.47 20.5,-22.17 29.9,-32.34 18.95,17.99 36.74,34.88 55.22,52.42 37.92,-39.5 75.91,-79.08 114.89,-119.69 11.1,10.58 21.85,20.8 33.51,31.91 C 307.78,245 258.51,296.38 208.41,348.63 Z"
         id="path780" /></g></g><style
     type="text/css"
     id="style774">
	.st0{fill-rule:evenodd;clip-rule:evenodd;fill:#1A1A1B;}
	.st1{fill:url(#SVGID_1_);}
	.st2{fill:url(#SVGID_00000003064140183440241190000005260157695562896513_);}
	.st3{fill:url(#SVGID_00000106834550894176244660000000057436407767914420_);}
	.st4{fill:#FFFFFF;}
	.st5{fill:#FF9196;}
	.st6{fill:#FF4952;}
	.st7{fill:#F4B9B2;}
	.st8{fill:url(#SVGID_00000140693232297146445410000010844889595168544394_);}
	.st9{fill:url(#SVGID_00000169518226804607270430000015919466842837011871_);}
	.st10{fill:#A80000;}
	.st11{fill:#FF2337;}
	.st12{fill:#FF9396;}
	.st13{fill:#FF8D5F;}
	.st14{fill:#FF4237;}
	.st15{fill:#A7A9AC;}
	.st16{fill:#FF7579;}
	.st17{fill:#E7D7C4;}
	.st18{fill:#C3B8AB;}
	.st19{fill:#928A80;}
	.st20{fill:#F1E7DC;}
	.st21{fill:#DF0000;}
	.st22{opacity:0.1;}
	.st23{fill:#3C2415;}
	.st24{fill:#A1A09F;}
	.st25{fill:#C1C0BF;}
	.st26{fill:#EBE8E8;}
	.st27{fill:#683F29;}
	.st28{fill:#759DAE;}
	.st29{fill:#A2745C;}
	.st30{fill:#C19274;}
	.st31{fill:#AA7B61;}
	.st32{fill:#FF1E00;}
</style></svg>
