<?xml version="1.0" encoding="UTF-8" standalone="no"?>
<!-- Created with Inkscape (http://www.inkscape.org/) -->

<svg
   width="780"
   height="780"
   viewBox="0 0 206.375 206.375"
   version="1.1"
   id="svg676"
   xml:space="preserve"
   inkscape:version="1.2 (dc2aedaf03, 2022-05-15)"
   sodipodi:docname="komuniti-ngo-development.svg"
   xmlns:inkscape="http://www.inkscape.org/namespaces/inkscape"
   xmlns:sodipodi="http://sodipodi.sourceforge.net/DTD/sodipodi-0.dtd"
   xmlns="http://www.w3.org/2000/svg"
   xmlns:svg="http://www.w3.org/2000/svg"><sodipodi:namedview
     id="namedview678"
     pagecolor="#ffffff"
     bordercolor="#000000"
     borderopacity="0.25"
     inkscape:showpageshadow="2"
     inkscape:pageopacity="0.0"
     inkscape:pagecheckerboard="0"
     inkscape:deskcolor="#d1d1d1"
     inkscape:document-units="mm"
     showgrid="false"
     inkscape:zoom="0.70199214"
     inkscape:cx="397.44035"
     inkscape:cy="561.25984"
     inkscape:window-width="1920"
     inkscape:window-height="986"
     inkscape:window-x="-11"
     inkscape:window-y="-11"
     inkscape:window-maximized="1"
     inkscape:current-layer="layer1" /><defs
     id="defs673" /><g
     inkscape:label="Layer 1"
     inkscape:groupmode="layer"
     id="layer1"><g
       id="g715"
       transform="matrix(0.26458333,0,0,0.26458333,-4.2545869,27.753945)"><g
         id="g690">
	<path
   class="st5"
   d="m 401.72,515.18 c 0,0 364.89,-91.38 391.85,-456.49 0,0 -35.28,131.21 -167.02,119.38 -131.74,-11.82 -197.24,29.7 -235.24,109.02 0,0 105,-101.25 159.8,-17.85 54.8,83.4 -149.39,245.94 -149.39,245.94 z"
   id="path682" />
	<path
   class="st11"
   d="m 401.72,515.18 c 0,0 -168.66,-22.45 -288.31,-177.74 -119.65,-155.29 25.1,-198.91 142.42,-155.15 117.32,43.76 135.48,104.81 135.48,104.81 0,0 -54.68,-52.12 -127.36,-38.14 -72.68,13.98 -56.36,106.75 9.71,167.91 66.06,61.16 128.06,98.31 128.06,98.31 z"
   id="path684" />
	<path
   class="st11"
   d="m 101.81,115 c 8.15,27.43 -3.28,55.03 -25.53,61.64 C 54.03,183.25 29.37,166.38 21.22,138.95 13.07,111.52 24.5,83.92 46.75,77.31 69.01,70.7 93.66,87.57 101.81,115 Z"
   id="path686" />
	
		<ellipse
   transform="matrix(0.9586,-0.2849,0.2849,0.9586,-3.8265,185.9005)"
   class="st11"
   cx="637.03998"
   cy="106.1"
   rx="42.040001"
   ry="51.810001"
   id="ellipse688" />
</g><g
         id="g698">
	<path
   class="st16"
   d="M 339.41,383.04 H 319.17 L 285.33,331.8 v 51.24 h -20.24 v -83.07 h 20.24 l 33.84,51.48 v -51.48 h 20.24 z"
   id="path692" />
	<path
   class="st16"
   d="m 403.31,326.23 c -1.5,-2.76 -3.65,-4.87 -6.45,-6.33 -2.8,-1.46 -6.09,-2.19 -9.88,-2.19 -6.55,0 -11.79,2.15 -15.74,6.45 -3.95,4.3 -5.92,10.04 -5.92,17.22 0,7.65 2.07,13.63 6.21,17.93 4.14,4.3 9.84,6.45 17.1,6.45 4.97,0 9.17,-1.26 12.6,-3.79 3.43,-2.52 5.93,-6.15 7.51,-10.89 h -25.68 v -14.91 h 44.02 v 18.81 c -1.5,5.05 -4.04,9.74 -7.63,14.08 -3.59,4.34 -8.15,7.85 -13.67,10.53 -5.52,2.68 -11.76,4.02 -18.7,4.02 -8.21,0 -15.52,-1.79 -21.95,-5.38 -6.43,-3.59 -11.44,-8.58 -15.03,-14.97 -3.59,-6.39 -5.38,-13.69 -5.38,-21.89 0,-8.2 1.79,-15.52 5.38,-21.95 3.59,-6.43 8.58,-11.44 14.97,-15.03 6.39,-3.59 13.69,-5.38 21.89,-5.38 9.94,0 18.32,2.41 25.15,7.22 6.82,4.81 11.34,11.48 13.55,20 z"
   id="path694" />
	<path
   class="st16"
   d="m 450.23,378.42 c -6.51,-3.63 -11.68,-8.7 -15.5,-15.21 -3.83,-6.51 -5.74,-13.82 -5.74,-21.95 0,-8.12 1.91,-15.42 5.74,-21.89 3.83,-6.47 8.99,-11.52 15.5,-15.15 6.51,-3.63 13.67,-5.44 21.48,-5.44 7.81,0 14.97,1.82 21.48,5.44 6.51,3.63 11.64,8.68 15.38,15.15 3.75,6.47 5.62,13.77 5.62,21.89 0,8.13 -1.89,15.44 -5.68,21.95 -3.79,6.51 -8.92,11.58 -15.38,15.21 -6.47,3.63 -13.61,5.44 -21.42,5.44 -7.82,0 -14.97,-1.81 -21.48,-5.44 z m 37.39,-19.64 c 3.98,-4.42 5.98,-10.25 5.98,-17.51 0,-7.34 -1.99,-13.19 -5.98,-17.57 -3.98,-4.38 -9.29,-6.57 -15.92,-6.57 -6.71,0 -12.05,2.17 -16.03,6.51 -3.99,4.34 -5.98,10.22 -5.98,17.63 0,7.34 1.99,13.19 5.98,17.57 3.98,4.38 9.33,6.57 16.03,6.57 6.63,-0.01 11.94,-2.21 15.92,-6.63 z"
   id="path696" />
</g></g></g><style
     type="text/css"
     id="style680">
	.st0{fill-rule:evenodd;clip-rule:evenodd;fill:#1A1A1B;}
	.st1{fill:url(#SVGID_1_);}
	.st2{fill:url(#SVGID_00000062871375569335459770000017635335391359764921_);}
	.st3{fill:url(#SVGID_00000166665901749148364970000010519801169596795544_);}
	.st4{fill:#FFFFFF;}
	.st5{fill:#FF9196;}
	.st6{fill:#FF4952;}
	.st7{fill:#F4B9B2;}
	.st8{fill:url(#SVGID_00000029751265503483897580000002363397452028045184_);}
	.st9{fill:url(#SVGID_00000045609029367771526870000000019174649722776720_);}
	.st10{fill:#A80000;}
	.st11{fill:#FF2337;}
	.st12{fill:#FF9396;}
	.st13{fill:#FF8D5F;}
	.st14{fill:#FF4237;}
	.st15{fill:#A7A9AC;}
	.st16{fill:#FF7579;}
	.st17{fill:#E7D7C4;}
	.st18{fill:#C3B8AB;}
	.st19{fill:#928A80;}
	.st20{fill:#F1E7DC;}
	.st21{fill:#DF0000;}
	.st22{opacity:0.1;}
	.st23{fill:#3C2415;}
	.st24{fill:#A1A09F;}
	.st25{fill:#C1C0BF;}
	.st26{fill:#EBE8E8;}
	.st27{fill:#683F29;}
	.st28{fill:#759DAE;}
	.st29{fill:#A2745C;}
	.st30{fill:#C19274;}
	.st31{fill:#AA7B61;}
	.st32{fill:#FF1E00;}
</style></svg>
