<?xml version="1.0" encoding="UTF-8"?>
<svg id="Layer_1" data-name="Layer 1" xmlns="http://www.w3.org/2000/svg" viewBox="0 0 56.34 48.64">
  <defs>
    <style>
      .cls-1 {
        fill: #b3ffae;
      }

      .cls-2 {
        fill: #5fb257;
      }
    </style>
  </defs>
  <g>
    <g>
      <path class="cls-1" d="M37.22,48.48c0-1.68-.03-4.29-.03-5.27,0-1.69,.54-2.39,.54-2.39l6.8-7.37c-1.82-1.59-3.28,.57-3.28,.57l-6.06,6.09-.67,3.03-.09,5.33h2.8Z"/>
      <path class="cls-1" d="M1.52,38.48s6.18,4.67,8.07,5.73c1.88,1.06,2.94,2.56,2.94,2.56l.11,1.75,1.93,.05c.01-.51,.07-1.52,.07-1.87,0-1.06-.73-1.81-.73-1.81,0,0-6.73-4.76-8.92-5.82-2.19-1.06-1.81-2.64-1.81-2.64l.08-7.24c-2.49,.15-1.96,3.69-1.96,3.69l.23,5.58Z"/>
    </g>
    <g>
      <g>
        <path class="cls-2" d="M12.76,48.26h-.83c-.02-.09-.05-.18-.05-.27,0-.97-.46-1.66-1.25-2.19-2.89-1.91-5.76-3.85-8.66-5.75-.96-.63-1.41-1.44-1.39-2.59,.04-1.98,0-3.96,.01-5.94,0-1.48,.99-2.54,2.35-2.54,1.33,0,2.34,1.09,2.35,2.56,0,1.51,.01,3.02,0,4.53,0,.42,.13,.68,.5,.9,2.1,1.22,4.19,2.45,6.28,3.69,.41,.24,.82,.37,1.28,.15,.75-.35,.87-1.25,.23-1.93-.61-.66-1.27-1.28-1.9-1.92-1.09-1.1-1.15-2.6-.14-3.61,.99-1,2.53-.95,3.63,.13,1.77,1.75,3.53,3.51,5.28,5.28,1.2,1.21,1.79,2.69,1.8,4.39,0,1.68,0,3.36,0,5.08h-.94c0-.99,0-1.96,0-2.94,0-.69,0-1.37,0-2.06,.01-1.53-.53-2.83-1.61-3.91-1.69-1.69-3.38-3.38-5.07-5.07-.15-.15-.31-.3-.49-.42-.67-.43-1.48-.33-1.98,.22-.52,.57-.54,1.43,.02,2.03,.65,.71,1.35,1.37,2.02,2.05,.52,.53,.81,1.16,.72,1.91-.18,1.42-1.7,2.28-2.95,1.58-2.34-1.31-4.63-2.7-6.94-4.07-.48-.28-.66-.75-.66-1.3,0-1.61,.02-3.21,0-4.82-.02-1.13-1.01-1.83-1.96-1.4-.55,.25-.85,.69-.85,1.3,0,2.18,0,4.35,0,6.53,0,.58,.32,.97,.79,1.29,2.97,1.97,5.94,3.94,8.9,5.93,1.18,.79,1.69,1.86,1.54,3.18Z"/>
        <path class="cls-2" d="M13.1,48.64h-1.46l-.07-.29c-.04-.14-.06-.24-.06-.35,0-.79-.35-1.39-1.08-1.88-1.14-.76-2.28-1.51-3.42-2.27-1.74-1.16-3.49-2.33-5.24-3.47-1.09-.71-1.58-1.64-1.56-2.92,.03-1.3,.02-2.61,.02-3.92,0-.67,0-1.34,0-2.02,0-1.69,1.15-2.91,2.72-2.91h0c1.54,0,2.71,1.26,2.72,2.93,0,1.51,.01,3.02,0,4.53,0,.3,.07,.43,.31,.57,2.1,1.22,4.19,2.45,6.28,3.69,.38,.23,.65,.27,.92,.14,.23-.11,.37-.29,.42-.51,.05-.27-.06-.57-.3-.83-.39-.42-.81-.83-1.22-1.23-.23-.22-.46-.45-.68-.68-1.23-1.24-1.29-2.98-.14-4.14,1.14-1.15,2.92-1.09,4.15,.13,1.77,1.75,3.53,3.51,5.28,5.28,1.26,1.27,1.9,2.83,1.91,4.65,0,1.2,0,2.4,0,3.61v1.85h-1.69v-3.95c0-.47,0-.95,0-1.42,.01-1.43-.48-2.62-1.5-3.64l-5.07-5.07c-.13-.13-.28-.27-.43-.37-.51-.33-1.12-.27-1.5,.16-.4,.44-.39,1.08,.02,1.53,.44,.48,.9,.93,1.36,1.39,.22,.22,.44,.43,.66,.65,.65,.66,.93,1.4,.82,2.22-.1,.82-.6,1.54-1.34,1.91-.7,.35-1.49,.34-2.17-.04-1.87-1.04-3.73-2.15-5.53-3.23l-1.42-.85c-.38-.23-.84-.7-.84-1.62v-.66c0-1.39,.02-2.77,0-4.16,0-.44-.2-.82-.52-1.02-.28-.17-.6-.19-.91-.05-.42,.19-.63,.5-.63,.96,0,2.17,0,4.35,0,6.52,0,.39,.19,.68,.63,.97,2.97,1.97,5.94,3.94,8.9,5.93,1.3,.87,1.87,2.06,1.7,3.53l-.04,.33Zm-.85-.75h.16c.02-1.03-.44-1.85-1.4-2.49-2.96-1.99-5.93-3.96-8.89-5.93-.65-.43-.96-.95-.96-1.6,0-2.18,0-4.35,0-6.53,0-.75,.39-1.33,1.08-1.64,.54-.25,1.13-.21,1.62,.1,.53,.34,.85,.95,.86,1.64,.02,1.39,.01,2.78,0,4.17v.66c0,.47,.15,.78,.47,.98l1.42,.85c1.8,1.07,3.65,2.18,5.51,3.22,.46,.26,1,.27,1.47,.03,.51-.26,.86-.76,.93-1.33,.07-.58-.13-1.11-.61-1.6-.21-.22-.43-.43-.65-.65-.47-.46-.94-.93-1.38-1.41-.68-.74-.69-1.8-.02-2.54,.63-.69,1.64-.81,2.46-.29,.21,.13,.39,.3,.55,.47l5.07,5.07c1.15,1.15,1.73,2.56,1.72,4.18,0,.47,0,.94,0,1.41v3.21h.19v-1.1c0-1.21,0-2.41,0-3.61,0-1.62-.57-3.01-1.69-4.13-1.75-1.77-3.51-3.53-5.28-5.28-.94-.93-2.24-.99-3.09-.13-.86,.86-.8,2.13,.14,3.08,.22,.23,.45,.45,.67,.67,.42,.41,.84,.83,1.24,1.26,.41,.43,.58,.97,.49,1.48-.09,.45-.39,.83-.83,1.04-.67,.32-1.25,.06-1.63-.17-2.09-1.24-4.18-2.47-6.27-3.69-.48-.28-.69-.66-.69-1.23,.02-1.51,.01-3.01,0-4.52,0-1.26-.84-2.18-1.97-2.18h0c-1.16,0-1.97,.89-1.98,2.17,0,.67,0,1.34,0,2.01,0,1.31,.01,2.62-.02,3.93-.02,1.01,.35,1.71,1.22,2.27,1.76,1.15,3.5,2.31,5.25,3.48,1.14,.76,2.28,1.52,3.42,2.27,.92,.61,1.39,1.4,1.42,2.4Z"/>
      </g>
      <g>
        <path class="cls-2" d="M44.33,48.25h-.88c-.08-1.4,.47-2.43,1.61-3.19,2.89-1.91,5.76-3.85,8.66-5.75,.71-.47,1.04-1.03,1.02-1.89-.05-1.94-.01-3.88-.02-5.82,0-1.01-.56-1.67-1.41-1.67-.83,0-1.4,.68-1.41,1.69,0,1.53-.01,3.06,0,4.59,0,.68-.26,1.16-.84,1.5-2.18,1.28-4.35,2.57-6.53,3.84-.98,.57-2.09,.37-2.75-.45-.65-.81-.6-1.97,.16-2.79,.68-.73,1.41-1.41,2.1-2.13,.42-.44,.56-.98,.36-1.57-.19-.55-.58-.96-1.14-.96-.47,0-1.07,.13-1.39,.44-1.92,1.84-3.8,3.73-5.65,5.65-.86,.89-1.24,2.03-1.26,3.27-.02,1.55,0,3.1,0,4.64,0,.19,0,.38,0,.61h-.91c-.01-.15-.03-.32-.03-.49,0-1.51,0-3.02,0-4.53,0-1.77,.61-3.29,1.87-4.54,1.73-1.73,3.46-3.47,5.2-5.19,1.1-1.09,2.63-1.14,3.63-.15,1.02,1.02,.96,2.52-.16,3.65-.59,.6-1.2,1.19-1.79,1.79-.56,.57-.65,1.19-.27,1.68,.4,.52,1.01,.59,1.73,.16,2.06-1.21,4.11-2.43,6.18-3.63,.4-.23,.57-.5,.56-.98-.03-1.49-.02-2.98,0-4.47,0-1.47,1.01-2.56,2.34-2.57,1.39,0,2.36,1.06,2.36,2.58,0,2.02-.01,4.04,0,6.06,.01,1.04-.42,1.79-1.27,2.35-2.83,1.87-5.64,3.75-8.46,5.63-1.26,.84-1.45,1.14-1.6,2.64Z"/>
        <path class="cls-2" d="M44.67,48.62h-1.58l-.02-.35c-.08-1.5,.52-2.69,1.78-3.52,1.06-.71,2.12-1.41,3.19-2.12,1.82-1.22,3.64-2.43,5.48-3.63,.63-.41,.86-.85,.85-1.57-.03-1.32-.03-2.64-.02-3.96,0-.62,0-1.25,0-1.87,0-.8-.4-1.29-1.04-1.3h0c-.62,0-1.02,.52-1.03,1.31,0,1.53-.01,3.05,0,4.58,0,.81-.33,1.42-1.02,1.83-.9,.53-1.8,1.06-2.69,1.59-1.28,.75-2.56,1.51-3.84,2.25-1.12,.65-2.46,.43-3.23-.54-.78-.97-.71-2.32,.18-3.28,.39-.42,.79-.82,1.2-1.22,.31-.3,.61-.61,.91-.92,.34-.35,.43-.74,.28-1.19-.07-.21-.29-.7-.78-.7h0c-.46,0-.92,.14-1.13,.34-1.81,1.73-3.65,3.58-5.64,5.64-.75,.78-1.14,1.79-1.15,3.01-.01,1.08-.01,2.17,0,3.26v2.37s-1.63,0-1.63,0l-.03-.5c-.01-.12-.02-.24-.02-.37v-4.53c0-1.87,.66-3.49,1.98-4.81l1.93-1.94c1.09-1.09,2.17-2.18,3.27-3.26,1.23-1.22,3.02-1.29,4.15-.15,1.18,1.18,1.11,2.9-.16,4.18l-.74,.74c-.35,.35-.7,.7-1.04,1.05-.29,.3-.58,.76-.24,1.2,.1,.14,.42,.55,1.24,.07l2.06-1.21c1.37-.81,2.74-1.62,4.12-2.41,.3-.17,.38-.32,.38-.65-.03-1.34-.02-2.68-.01-4.02v-.46c.01-1.67,1.18-2.94,2.71-2.94h.02c.73,0,1.38,.26,1.88,.75,.54,.54,.85,1.33,.85,2.21v2.09c0,1.32,0,2.64,0,3.97,.01,1.15-.46,2.02-1.44,2.67-1.87,1.23-3.73,2.48-5.6,3.72l-2.86,1.91c-1.17,.78-1.29,.98-1.44,2.37l-.04,.34Zm-.85-.75h.18c.17-1.33,.48-1.74,1.73-2.58l2.86-1.91c1.87-1.24,3.73-2.49,5.6-3.73,.76-.5,1.12-1.15,1.11-2.04-.01-1.33-.01-2.65,0-3.98v-2.08c0-.68-.22-1.28-.62-1.68-.35-.35-.87-.53-1.36-.53-1.13,0-1.96,.93-1.96,2.2v.46c0,1.33-.02,2.67,0,4,.01,.6-.22,1.01-.75,1.31-1.38,.8-2.74,1.6-4.11,2.41l-2.06,1.21c-.89,.52-1.7,.43-2.22-.26-.5-.66-.38-1.47,.3-2.17,.35-.36,.7-.71,1.05-1.06l.74-.73c.98-.99,1.04-2.24,.16-3.13-.85-.85-2.15-.79-3.1,.15-1.09,1.08-2.18,2.17-3.26,3.26l-1.93,1.94c-1.19,1.19-1.76,2.58-1.76,4.27v4.53s0,.08,0,.11h.19v-1.61c0-1.09,0-2.18,0-3.27,.02-1.42,.48-2.61,1.36-3.53,2-2.07,3.85-3.92,5.66-5.66,.41-.4,1.12-.54,1.64-.54h0c.68,0,1.24,.45,1.49,1.21,.24,.72,.09,1.4-.45,1.95-.3,.32-.61,.62-.93,.93-.4,.39-.79,.79-1.17,1.2-.63,.68-.69,1.63-.15,2.3,.55,.69,1.46,.83,2.27,.36,1.28-.75,2.56-1.5,3.83-2.25,.9-.53,1.8-1.06,2.7-1.59,.46-.27,.66-.63,.65-1.17-.02-1.53,0-3.06,0-4.59,0-1.21,.74-2.06,1.78-2.06h0c1.07,0,1.78,.82,1.79,2.04,0,.62,0,1.25,0,1.88,0,1.31-.01,2.62,.02,3.94,.02,.98-.34,1.66-1.19,2.21-1.83,1.2-3.65,2.41-5.47,3.63-1.06,.71-2.12,1.42-3.19,2.12-.95,.63-1.42,1.43-1.45,2.5Z"/>
      </g>
    </g>
  </g>
  <g>
    <path class="cls-1" d="M17.91,9.26c.23-.72,.53-1.4,.88-2.05-.51-.2-1.02-.4-1.53-.61-1.95,2.4-3.01,5.18-3.15,8.34h2.41c0-2.02,.45-3.91,1.38-5.68Z"/>
    <path class="cls-1" d="M17.11,19.64c-.16-1.23-.33-2.45-.49-3.68h-2.5c.15,3.16,1.21,5.94,3.15,8.33,.53-.21,1.06-.42,1.58-.63-.75-1.24-1.33-2.58-1.74-4.02Z"/>
    <path class="cls-1" d="M21.21,4.12c.62-.67,1.29-1.25,2.01-1.75-1.98,.72-3.72,1.86-5.29,3.46,.47,.18,.92,.35,1.37,.53,.53-.81,1.17-1.55,1.91-2.24Z"/>
    <path class="cls-1" d="M21.21,26.68c-.69-.69-1.3-1.43-1.84-2.2-.47,.19-.93,.4-1.38,.64,1.68,1.74,3.64,2.94,5.89,3.62-.89-.69-1.78-1.37-2.67-2.06Z"/>
    <g>
      <path class="cls-2" d="M28.73,30.62h-1.75c-.28-.04-.55-.07-.83-.11-3.73-.45-6.89-2.05-9.37-4.84-3.29-3.7-4.5-8.06-3.57-12.92,.87-4.5,3.38-7.91,7.37-10.13C24.44,.46,28.55,.05,32.72,1.55c5.43,1.96,8.7,5.87,9.85,11.54,.11,.56,.16,1.13,.24,1.7v1.81c-.02,.07-.04,.15-.05,.22-.13,1.8-.56,3.54-1.35,5.16-2.26,4.64-5.94,7.44-11.01,8.41-.55,.11-1.11,.15-1.67,.23Zm-7.88-22.27c-1.29-.52-2.54-1.01-3.81-1.52-1.95,2.4-3.01,5.18-3.15,8.34h5.97c.04-2.34,.36-4.62,.99-6.82Zm13.98,0c.63,2.19,.96,4.48,.99,6.82h5.98c-.15-3.16-1.21-5.94-3.15-8.34-1.29,.51-2.54,1.01-3.81,1.52Zm0,14.66c1.29,.51,2.54,1.01,3.81,1.52,1.94-2.4,3-5.18,3.15-8.33h-5.98c-.03,2.34-.36,4.62-.98,6.81Zm-20.95-6.82c.15,3.16,1.21,5.94,3.15,8.33,1.28-.51,2.54-1.01,3.82-1.52-.64-2.2-.95-4.49-.99-6.82h-5.97Zm20.92-1.02c-.03-2.27-.35-4.47-.96-6.56-1.84,.22-3.66,.44-5.49,.65v5.91h6.45Zm-7.49-5.91c-1.84-.22-3.66-.44-5.49-.65-.6,2.1-.93,4.29-.96,6.55h6.45v-5.9Zm1.03,12.92c1.87,.01,3.68,.26,5.48,.64,.63-2.19,.96-4.38,.98-6.63h-6.46v5.99Zm-1.02-5.99h-6.46c.03,2.26,.35,4.46,.97,6.61,.92-.15,1.82-.32,2.72-.43,.91-.11,1.83-.15,2.76-.23v-5.95Zm1.03-14.44v6.42c1.75-.04,3.45-.22,5.19-.62-.33-.72-.62-1.43-.98-2.11-.56-1.07-1.26-2.06-2.24-2.81-.58-.45-1.23-.77-1.98-.88Zm0,27.82c.57-.02,1.36-.35,2.01-.87,1.6-1.28,2.44-3.04,3.16-4.91-1.71-.38-3.42-.59-5.17-.61v6.39ZM27.32,1.76c-.92,.14-1.67,.58-2.33,1.17-1.12,1.01-1.84,2.3-2.44,3.66-.14,.32-.25,.64-.38,.98,1.72,.39,3.42,.58,5.16,.61V1.76Zm0,27.85v-6.39c-.99-.09-4.22,.29-5.15,.61,.14,.35,.27,.71,.42,1.05,.6,1.33,1.31,2.59,2.41,3.57,.66,.59,1.41,1.03,2.31,1.16ZM17.7,6.07c1.18,.46,2.3,.89,3.45,1.33,.66-2.03,1.69-3.73,3.13-5.19-2.52,.65-4.68,1.92-6.58,3.87Zm16.8,1.26c1.21-.32,2.33-.75,3.41-1.32-1.84-1.89-4-3.16-6.6-3.86,1.51,1.5,2.55,3.2,3.19,5.18Zm3.37,18.03c-.49-.36-2.91-1.29-3.39-1.28-.61,1.92-1.65,3.6-3.12,5.09,1.93-.3,5.49-2.4,6.51-3.81Zm-13.62,3.8c-1.43-1.47-2.45-3.16-3.09-5.11-1.19,.31-2.31,.74-3.41,1.31,1.83,1.89,3.99,3.15,6.5,3.8Z"/>
      <path class="cls-2" d="M28.73,31l-2.07-.04-.56-.07c-3.86-.47-7.09-2.14-9.61-4.97-3.38-3.81-4.61-8.26-3.65-13.24,.89-4.6,3.43-8.09,7.56-10.39C24.43,.04,28.62-.32,32.84,1.2c5.51,1.99,8.91,5.96,10.09,11.81,.08,.4,.13,.8,.18,1.2l.06,.52v1.86s-.02,.14-.03,.17c-.16,1.99-.62,3.77-1.41,5.38-2.3,4.73-6.1,7.63-11.27,8.61-.39,.07-.78,.12-1.17,.17l-.52,.06s-.03,0-.05,0Zm-.98-29.97c-2.37,0-4.71,.64-6.99,1.91-3.93,2.19-6.35,5.51-7.19,9.88-.91,4.74,.26,8.98,3.48,12.6,2.39,2.69,5.46,4.28,9.14,4.72l.84,.11h1.68s.51-.07,.51-.07c.37-.04,.75-.09,1.12-.16,4.93-.94,8.54-3.7,10.74-8.2,.74-1.52,1.18-3.21,1.31-5.02,0-.08,.02-.15,.04-.22v-1.79s-.06-.49-.06-.49c-.04-.38-.09-.76-.17-1.14-1.13-5.58-4.36-9.37-9.61-11.26-1.62-.58-3.24-.88-4.84-.88Zm-.44,28.95s-.04,0-.05,0c-.89-.13-1.71-.54-2.51-1.25-1.25-1.12-2-2.57-2.5-3.7-.11-.24-.2-.48-.29-.72l-.14-.34c-.04-.1-.04-.2,0-.3s.12-.17,.22-.2c.98-.33,4.25-.72,5.3-.62,.19,.02,.34,.18,.34,.37v6.39c0,.11-.05,.21-.13,.28-.07,.06-.16,.09-.25,.09Zm-4.65-5.91c.08,.22,.17,.43,.26,.64,.48,1.07,1.18,2.42,2.32,3.45,.56,.5,1.1,.82,1.69,.98v-5.57c-1.05,0-3.21,.25-4.27,.5Zm5.68,5.88c-.1,0-.19-.04-.26-.11-.07-.07-.11-.17-.11-.27v-6.39c0-.1,.04-.2,.11-.27,.07-.07,.14-.14,.27-.11,1.71,.01,3.43,.21,5.25,.62,.11,.02,.2,.09,.25,.19,.05,.1,.06,.21,.02,.31-.83,2.13-1.7,3.8-3.28,5.06-.71,.57-1.57,.94-2.23,.95h0Zm.38-6.38v5.57c.44-.11,.96-.38,1.4-.73,1.35-1.08,2.15-2.52,2.89-4.34-1.47-.3-2.88-.47-4.28-.5Zm2.64,5.97c-.14,0-.27-.08-.33-.2-.07-.14-.05-.32,.07-.43,1.45-1.46,2.44-3.08,3.03-4.94,.05-.15,.19-.26,.34-.26,.61-.03,3.07,.94,3.63,1.35,.17,.12,.2,.36,.08,.52-1.09,1.51-4.76,3.65-6.76,3.96-.02,0-.04,0-.06,0Zm3.38-5.04c-.5,1.45-1.24,2.76-2.23,3.96,1.68-.63,3.81-1.94,4.79-3-.68-.34-1.99-.82-2.56-.96Zm-10.49,5.03s-.06,0-.09-.01c-2.56-.66-4.8-1.97-6.67-3.9-.08-.08-.12-.2-.1-.32,.02-.12,.09-.22,.2-.27,1.13-.59,2.27-1.03,3.49-1.34,.19-.05,.39,.06,.45,.25,.62,1.91,1.6,3.53,3,4.96,.12,.12,.14,.3,.06,.45-.07,.12-.19,.19-.32,.19Zm-5.86-4.07c1.39,1.34,2.94,2.31,4.7,2.95-.93-1.17-1.66-2.48-2.17-3.91-.87,.25-1.71,.56-2.54,.96Zm20.25-.55s-.09,0-.14-.03l-3.81-1.52c-.18-.07-.27-.27-.22-.45,.61-2.16,.94-4.42,.97-6.71,0-.21,.17-.37,.38-.37h5.98c.1,0,.2,.04,.27,.12,.07,.07,.11,.17,.1,.28-.15,3.2-1.24,6.08-3.24,8.54-.07,.09-.18,.14-.29,.14Zm-3.36-2.12l3.24,1.29c1.71-2.19,2.67-4.71,2.87-7.5h-5.21c-.06,2.12-.36,4.2-.9,6.21Zm-18.25,2.12c-.11,0-.22-.05-.29-.14-2-2.46-3.09-5.34-3.24-8.55,0-.1,.03-.2,.1-.28,.07-.07,.17-.12,.27-.12h5.97c.2,0,.37,.16,.38,.37,.05,2.38,.38,4.64,.98,6.72,.05,.19-.04,.38-.22,.45l-3.82,1.52s-.09,.03-.14,.03Zm-2.75-8.33c.2,2.8,1.17,5.32,2.88,7.51l3.24-1.29c-.53-1.94-.84-4.03-.91-6.22h-5.21Zm19.55,6.64s-.05,0-.08,0c-1.94-.42-3.71-.62-5.41-.63-.21,0-.37-.17-.37-.38v-5.99c0-.21,.17-.38,.38-.38h6.46c.1,0,.2,.04,.27,.11s.11,.17,.11,.27c-.02,2.27-.35,4.47-.99,6.73-.05,.16-.2,.27-.36,.27Zm-5.11-1.39c1.53,.03,3.12,.22,4.84,.57,.53-1.95,.81-3.85,.86-5.81h-5.7v5.24Zm-6.88,1.36c-.17,0-.31-.11-.36-.27-.63-2.18-.96-4.43-.99-6.71,0-.1,.04-.2,.11-.27s.17-.11,.27-.11h6.46c.21,0,.38,.17,.38,.38v5.95c0,.2-.15,.36-.34,.37l-.86,.06c-.63,.04-1.26,.09-1.89,.16-.62,.07-1.24,.18-1.86,.28l-.85,.14s-.04,0-.06,0Zm-.59-6.61c.05,1.96,.34,3.91,.86,5.81l.51-.08c.64-.11,1.26-.21,1.9-.29,.64-.08,1.28-.12,1.93-.17l.5-.04v-5.23h-5.7Zm13.55-1.02h-6.45c-.21,0-.38-.17-.38-.38v-5.91c0-.19,.14-.35,.33-.37l5.49-.65c.18-.02,.35,.09,.4,.27,.62,2.15,.95,4.39,.97,6.66,0,.1-.04,.2-.11,.27s-.17,.11-.27,.11Zm-6.08-.75h5.69c-.05-1.97-.34-3.91-.85-5.78l-4.84,.58v5.2Zm13.06,.74h-5.98c-.21,0-.37-.17-.38-.37-.03-2.3-.36-4.56-.97-6.72-.05-.19,.04-.38,.22-.45l3.81-1.52c.15-.06,.33-.02,.43,.11,2,2.46,3.09,5.34,3.24,8.56,0,.1-.03,.2-.1,.28-.07,.07-.17,.12-.27,.12Zm-5.61-.75h5.21c-.2-2.8-1.17-5.33-2.88-7.51l-3.24,1.29c.54,2.01,.85,4.1,.9,6.22Zm-16.33,.75h-5.97c-.1,0-.2-.04-.27-.12-.07-.07-.11-.17-.1-.28,.14-3.2,1.23-6.08,3.23-8.56,.1-.13,.28-.17,.43-.11l3.81,1.52c.18,.07,.28,.27,.22,.45-.61,2.11-.94,4.38-.98,6.72,0,.2-.17,.37-.38,.37Zm-5.58-.75h5.21c.07-2.16,.37-4.25,.91-6.22l-3.24-1.29c-1.71,2.2-2.68,4.72-2.87,7.51Zm13.04,.75h-6.45c-.1,0-.2-.04-.27-.11-.07-.07-.11-.17-.11-.27,.02-2.25,.35-4.49,.97-6.65,.05-.18,.22-.29,.4-.27l5.49,.65c.19,.02,.33,.18,.33,.37v5.9c0,.21-.17,.38-.38,.38Zm-6.07-.75h5.69v-5.19l-4.84-.58c-.51,1.88-.8,3.82-.85,5.77Zm7.1-6.24c-.1,0-.19-.04-.26-.11-.07-.07-.11-.17-.11-.27V1.76c0-.11,.05-.21,.13-.28,.08-.07,.19-.1,.3-.09,.76,.11,1.46,.42,2.16,.96,.92,.7,1.66,1.63,2.34,2.93,.25,.47,.46,.96,.68,1.45,.1,.22,.2,.45,.3,.67,.05,.1,.05,.22,0,.32-.05,.1-.14,.17-.25,.2-1.67,.38-3.39,.59-5.27,.63h0Zm.38-6.33V7.79c1.51-.05,2.92-.22,4.29-.51-.04-.09-.08-.17-.12-.26-.21-.48-.42-.95-.66-1.41-.63-1.2-1.31-2.05-2.13-2.68-.45-.35-.91-.59-1.38-.72Zm-1.41,6.33h0c-1.83-.03-3.54-.24-5.23-.62-.11-.02-.2-.09-.25-.19-.05-.1-.06-.21-.02-.31l.12-.32c.09-.23,.17-.46,.27-.68,.52-1.16,1.27-2.64,2.54-3.78,.79-.71,1.61-1.12,2.52-1.27,.11-.02,.22,.01,.3,.09,.08,.07,.13,.18,.13,.29v6.42c0,.1-.04,.2-.11,.27-.07,.07-.16,.11-.26,.11Zm-4.65-1.26c1.39,.29,2.79,.45,4.28,.5V2.22c-.6,.17-1.15,.49-1.7,.99-1.15,1.04-1.84,2.37-2.35,3.53-.08,.18-.15,.36-.22,.55Zm-1.52,.48s-.09,0-.13-.02l-3.45-1.33c-.12-.05-.21-.15-.23-.27-.03-.12,0-.25,.1-.34,1.95-2,4.16-3.29,6.75-3.97,.16-.04,.33,.03,.42,.18,.08,.15,.06,.33-.06,.45-1.41,1.44-2.41,3.09-3.04,5.05-.03,.1-.1,.18-.2,.22-.05,.02-.11,.04-.16,.04Zm-2.77-1.84l2.54,.98c.52-1.47,1.24-2.77,2.18-3.95-1.75,.64-3.31,1.62-4.73,2.97Zm16.12,1.78c-.16,0-.31-.1-.36-.26-.62-1.92-1.63-3.57-3.1-5.02-.12-.12-.15-.31-.06-.45,.09-.15,.25-.22,.42-.18,2.67,.72,4.89,2.01,6.78,3.96,.08,.08,.12,.2,.1,.32s-.09,.22-.2,.27c-1.08,.57-2.22,1.01-3.49,1.35-.03,0-.06,.01-.1,.01Zm-1.97-4.77c.98,1.19,1.71,2.49,2.22,3.94,.9-.26,1.74-.58,2.54-.96-1.38-1.33-2.95-2.31-4.76-2.98Z"/>
    </g>
  </g>
</svg>