<?xml version="1.0" encoding="UTF-8" standalone="no"?>
<!-- Created with Inkscape (http://www.inkscape.org/) -->

<svg
   width="590"
   height="590"
   viewBox="0 0 156.10416 156.10417"
   version="1.1"
   id="svg805"
   xml:space="preserve"
   inkscape:version="1.2 (dc2aedaf03, 2022-05-15)"
   sodipodi:docname="komuniti-orang-asli.svg"
   xmlns:inkscape="http://www.inkscape.org/namespaces/inkscape"
   xmlns:sodipodi="http://sodipodi.sourceforge.net/DTD/sodipodi-0.dtd"
   xmlns="http://www.w3.org/2000/svg"
   xmlns:svg="http://www.w3.org/2000/svg"><sodipodi:namedview
     id="namedview807"
     pagecolor="#ffffff"
     bordercolor="#000000"
     borderopacity="0.25"
     inkscape:showpageshadow="2"
     inkscape:pageopacity="0.0"
     inkscape:pagecheckerboard="0"
     inkscape:deskcolor="#d1d1d1"
     inkscape:document-units="mm"
     showgrid="false"
     inkscape:zoom="0.70199214"
     inkscape:cx="397.44035"
     inkscape:cy="561.25984"
     inkscape:window-width="1920"
     inkscape:window-height="986"
     inkscape:window-x="-11"
     inkscape:window-y="-11"
     inkscape:window-maximized="1"
     inkscape:current-layer="g1183" /><defs
     id="defs802" /><g
     inkscape:label="Layer 1"
     inkscape:groupmode="layer"
     id="layer1"><g
       id="g1183"
       transform="matrix(0.26458333,0,0,0.26458333,43.286057,66.799637)">
	
	
	<g
   id="g1564"
   transform="translate(-193.60946,-190.76042)"><g
     id="g1141">
		<path
   class="st10"
   d="m 535.35,76.7 v 289.51 c 0,8.94 -1.95,17.47 -5.47,25.26 -6.9,15.22 -19.84,27.65 -36.14,34.87 h -0.01 c -9.89,4.38 -21.02,6.84 -32.8,6.84 h -272.9 c -10.74,0 -20.95,-2.05 -30.17,-5.73 -22.82,-9.12 -39.6,-28.28 -43.42,-51.24 -0.55,-3.26 -0.83,-6.6 -0.83,-10 V 76.7 Z"
   id="path811" />
		<g
   id="g817">
			<polygon
   class="st12"
   points="143.52,272.35 113.62,298.33 113.62,232.67 150.07,266.66 "
   id="polygon813" />
			<path
   class="st21"
   d="m 113.3,299.03 v -67.1 l 37.25,34.73 z m 0.64,-65.62 v 64.22 l 35.66,-30.98 z"
   id="path815" />
		</g>
		<g
   id="g823">
			<polygon
   class="st12"
   points="113.62,153.07 114.04,152.71 150.79,186.96 144.24,192.65 113.62,219.26 "
   id="polygon819" />
			<path
   class="st21"
   d="m 113.3,219.96 v -67.04 l 0.75,-0.65 37.22,34.7 z m 0.64,-66.75 v 65.34 l 36.37,-31.6 -36.28,-33.82 z"
   id="path821" />
		</g>
		<g
   id="g829">
			<polygon
   class="st16"
   points="113.62,219.04 144.11,192.54 144.24,192.65 151.64,199.56 188.39,233.82 194.88,239.87 156.81,272.94 150.07,266.66 113.62,232.67 "
   id="polygon825" />
			<path
   class="st21"
   d="m 156.81,273.38 -6.95,-6.48 -36.56,-34.08 v -13.93 l 0.11,-0.1 30.71,-26.69 7.74,7.22 43.5,40.56 -0.27,0.24 z m -42.87,-40.85 42.88,39.98 37.57,-32.65 -50.29,-46.89 -30.16,26.21 z"
   id="path827" />
		</g>
		<g
   id="g835">
			<polygon
   class="st12"
   points="118.71,76.7 153.41,109.05 146.86,114.74 113.62,143.63 113.62,76.7 114.47,76.7 116.81,77.06 "
   id="polygon831" />
			<path
   class="st21"
   d="m 113.62,143.95 c -0.04,0 -0.09,-0.01 -0.13,-0.03 -0.11,-0.05 -0.19,-0.17 -0.19,-0.29 V 76.7 c 0,-0.18 0.14,-0.32 0.32,-0.32 h 0.85 l 2.34,0.36 1.84,-0.35 c 0.1,-0.02 0.2,0.01 0.28,0.08 l 34.71,32.35 c 0.07,0.06 0.1,0.15 0.1,0.24 0,0.09 -0.04,0.18 -0.11,0.24 l -39.79,34.58 c -0.07,0.04 -0.15,0.07 -0.22,0.07 z m 0.32,-66.94 v 65.91 l 38.99,-33.88 -34.33,-32 -1.73,0.33 c -0.04,0.01 -0.07,0.01 -0.11,0 l -2.34,-0.36 z"
   id="path833" />
		</g>
		<g
   id="g841">
			<polygon
   class="st12"
   points="188.39,233.82 239.55,189.36 202.8,155.1 151.64,199.56 "
   id="polygon837" />
			<path
   class="st21"
   d="m 188.38,234.25 -0.21,-0.2 -37.01,-34.5 51.65,-44.88 0.21,0.2 37.01,34.5 z m -36.26,-34.69 36.28,33.82 50.68,-44.03 -36.28,-33.82 z"
   id="path839" />
		</g>
		<g
   id="g847">
			<polygon
   class="st16"
   points="187.4,168.49 158.19,193.86 150.79,186.96 114.04,152.71 113.62,152.31 113.62,143.63 146.86,114.74 152.93,120.4 189.68,154.66 196.25,160.79 194.71,162.13 "
   id="polygon843" />
			<path
   class="st21"
   d="M 158.18,194.3 113.3,152.46 v -8.97 l 0.11,-0.1 33.46,-29.08 49.86,46.49 z m -44.24,-42.12 0.32,0.3 43.94,40.96 37.58,-32.65 -48.92,-45.61 -32.91,28.6 v 8.4 z"
   id="path845" />
		</g>
		<g
   id="g853">
			<polygon
   class="st12"
   points="189.68,154.66 240.84,110.21 204.09,75.94 152.93,120.4 "
   id="polygon849" />
			<path
   class="st21"
   d="m 189.67,155.09 -0.21,-0.2 -37.01,-34.5 51.65,-44.88 0.21,0.2 37.01,34.5 z m -36.26,-34.68 36.28,33.82 50.68,-44.03 -36.28,-33.82 z"
   id="path851" />
		</g>
		<g
   id="g859">
			<polygon
   class="st16"
   points="113.62,76.7 159.48,114.71 204.09,75.94 157.44,33.37 "
   id="polygon855" />
			<path
   class="st21"
   d="m 159.48,115.03 c -0.07,0 -0.14,-0.02 -0.2,-0.07 L 113.42,76.94 c -0.07,-0.06 -0.11,-0.14 -0.12,-0.23 0,-0.09 0.03,-0.18 0.09,-0.24 l 43.83,-43.32 c 0.12,-0.12 0.31,-0.12 0.44,-0.01 l 46.65,42.57 c 0.07,0.06 0.11,0.15 0.1,0.24 0,0.09 -0.04,0.18 -0.11,0.24 l -44.61,38.77 c -0.06,0.04 -0.14,0.07 -0.21,0.07 z m -45.39,-38.36 45.38,37.62 44.14,-38.35 -46.16,-42.12 z"
   id="path857" />
		</g>
		<g
   id="g865">
			<polygon
   class="st16"
   points="196.23,148.97 246.74,196.07 284.81,162.99 234.29,115.9 "
   id="polygon861" />
			<path
   class="st21"
   d="m 246.74,196.5 -50.99,-47.54 38.56,-33.5 50.98,47.54 z m -50.03,-47.52 50.04,46.65 37.57,-32.65 -50.04,-46.65 z"
   id="path863" />
		</g>
		<g
   id="g871">
			<path
   class="st12"
   d="m 149.09,346.1 -34.64,30.1 c -0.54,-3.26 -0.83,-6.6 -0.83,-10 v -53.17 z"
   id="path867" />
			<path
   class="st21"
   d="m 114.22,376.82 -0.09,-0.56 c -0.55,-3.3 -0.83,-6.69 -0.83,-10.05 V 312.3 l 36.27,33.81 z m -0.28,-63.05 v 52.44 c 0,3.14 0.25,6.29 0.73,9.38 l 33.94,-29.49 z"
   id="path869" />
		</g>
		<g
   id="g877">
			<path
   class="st12"
   d="m 235.23,426.41 -7.79,6.77 h -39.41 c -10.74,0 -20.95,-2.05 -30.17,-5.73 l 34.07,-29.61 6.55,-5.69 z"
   id="path873" />
			<path
   class="st21"
   d="m 227.56,433.5 h -39.53 c -10.55,0 -20.73,-1.94 -30.29,-5.76 l -0.49,-0.19 41.23,-35.83 0.21,0.2 37.01,34.5 z m -69.09,-6.16 c 9.33,3.66 19.28,5.52 29.56,5.52 h 39.29 l 7.43,-6.46 -36.28,-33.82 z"
   id="path875" />
		</g>
		<g
   id="g883">
			<path
   class="st16"
   d="m 191.94,397.84 -34.07,29.61 c -22.82,-9.12 -39.6,-28.27 -43.42,-51.24 v 0 l 28.1,-24.41 5.76,5.37 2.52,2.35 34.23,31.91 z"
   id="path879" />
			<path
   class="st21"
   d="m 157.93,427.82 -0.18,-0.07 C 146.41,423.22 136.39,416.12 128.79,407.23 121.07,398.2 116,387.5 114.13,376.26 v -0.15 l 0.11,-0.15 28.32,-24.6 8.49,7.92 41.37,38.57 -0.27,0.23 z m -43.14,-51.49 c 3.79,22.46 19.86,41.42 43.02,50.74 l 33.66,-29.25 -48.92,-45.61 z"
   id="path881" />
		</g>
		<g
   id="g889">
			<polygon
   class="st12"
   points="185.05,391.42 236.21,346.97 199.47,312.71 148.3,357.16 "
   id="polygon885" />
			<path
   class="st21"
   d="m 185.04,391.86 -0.21,-0.2 -37.01,-34.5 0.27,-0.23 51.38,-44.65 0.21,0.2 37.01,34.5 -0.27,0.23 z m -36.26,-34.69 36.28,33.82 50.68,-44.03 -36.28,-33.82 z"
   id="path887" />
		</g>
		<g
   id="g895">
			<polygon
   class="st16"
   points="143.52,272.35 150.66,279 187.41,313.26 192.92,318.4 154.85,351.48 149.09,346.1 113.62,313.03 113.62,298.33 "
   id="polygon891" />
			<path
   class="st21"
   d="m 154.85,351.91 -5.97,-5.57 -35.57,-33.16 v -14.99 l 0.11,-0.1 30.12,-26.17 7.35,6.85 42.52,39.64 z m -40.91,-39.02 40.92,38.15 37.58,-32.65 -48.92,-45.61 -29.58,25.7 z"
   id="path893" />
		</g>
		<g
   id="g901">
			<polygon
   class="st16"
   points="191.6,385.73 242.38,433.08 280.45,400 229.67,352.66 "
   id="polygon897" />
			<path
   class="st21"
   d="m 242.38,433.52 -0.21,-0.2 -51.05,-47.59 38.56,-33.5 0.21,0.2 51.05,47.59 z m -50.29,-47.78 50.31,46.9 37.56,-32.64 -50.31,-46.9 z"
   id="path899" />
		</g>
		<g
   id="g907">
			<polygon
   class="st12"
   points="187.41,313.26 238.57,268.8 201.82,234.54 150.66,279 "
   id="polygon903" />
			<path
   class="st21"
   d="m 187.4,313.69 -0.21,-0.2 -37.01,-34.5 0.27,-0.23 51.38,-44.65 0.21,0.2 37.01,34.5 -0.27,0.23 z m -36.26,-34.68 36.28,33.82 50.68,-44.03 -36.28,-33.82 z"
   id="path905" />
		</g>
		<g
   id="g913">
			<polygon
   class="st12"
   points="273.55,393.57 324.71,349.11 287.96,314.85 236.8,359.31 "
   id="polygon909" />
			<path
   class="st21"
   d="m 273.54,394 -0.21,-0.2 -37.01,-34.5 0.27,-0.23 51.38,-44.65 0.21,0.2 37.01,34.5 -0.27,0.23 z m -36.26,-34.68 36.28,33.82 50.68,-44.03 -36.28,-33.82 z"
   id="path911" />
		</g>
		<g
   id="g919">
			<polygon
   class="st16"
   points="193.96,307.57 243.35,353.62 281.41,320.54 232.02,274.49 "
   id="polygon915" />
			<path
   class="st21"
   d="m 243.34,354.05 -0.21,-0.2 -49.65,-46.29 38.55,-33.5 0.21,0.2 49.65,46.29 z m -48.91,-46.47 48.92,45.61 37.58,-32.65 -48.92,-45.61 z"
   id="path917" />
		</g>
		<g
   id="g925">
			<polygon
   class="st12"
   points="274.53,314.13 325.69,269.67 288.94,235.41 237.78,279.87 "
   id="polygon921" />
			<path
   class="st21"
   d="m 274.52,314.56 -0.21,-0.2 -37.01,-34.5 0.27,-0.23 51.38,-44.65 37.22,34.7 -0.27,0.23 z m -36.26,-34.69 36.28,33.82 50.68,-44.03 -36.28,-33.82 z"
   id="path923" />
		</g>
		<g
   id="g931">
			<polygon
   class="st16"
   points="194.94,228.13 244.33,274.18 282.39,241.1 233,195.05 "
   id="polygon927" />
			<path
   class="st21"
   d="m 244.32,274.61 -0.21,-0.2 -49.65,-46.29 38.55,-33.5 0.21,0.2 49.65,46.29 z m -48.9,-46.48 48.92,45.61 37.58,-32.65 L 233,195.48 Z"
   id="path929" />
		</g>
		<g
   id="g937">
			<polygon
   class="st16"
   points="281.08,308.44 331.86,355.78 369.93,322.71 319.14,275.36 "
   id="polygon933" />
			<path
   class="st21"
   d="m 331.85,356.22 -0.21,-0.2 -51.05,-47.59 38.56,-33.5 0.21,0.2 51.05,47.59 z m -50.29,-47.78 50.31,46.9 37.57,-32.65 -50.31,-46.9 z"
   id="path935" />
		</g>
		<g
   id="g943">
			<polygon
   class="st12"
   points="277.92,156.57 329.09,112.12 292.34,77.86 241.18,122.31 "
   id="polygon939" />
			<path
   class="st21"
   d="m 277.92,157 -0.21,-0.2 -37.01,-34.5 51.65,-44.88 0.21,0.2 37.01,34.5 z m -36.27,-34.68 36.28,33.82 50.68,-44.03 -36.28,-33.82 z"
   id="path941" />
		</g>
		<g
   id="g949">
			<polygon
   class="st16"
   points="198.33,70.57 247.73,116.62 287.11,82.4 236.4,37.5 "
   id="polygon945" />
			<path
   class="st21"
   d="M 247.72,117.05 197.86,70.56 236.4,37.07 236.61,37.26 287.6,82.4 Z M 198.81,70.58 247.73,116.19 286.62,82.4 236.39,37.93 Z"
   id="path947" />
		</g>
		<g
   id="g955">
			<polygon
   class="st16"
   points="280.04,76.14 336.22,118.77 378.25,82.25 323.52,38.36 "
   id="polygon951" />
			<path
   class="st21"
   d="m 336.24,119.19 -0.21,-0.16 -56.5,-42.87 43.98,-38.22 55.24,44.3 z m -55.68,-43.06 55.65,42.22 41.53,-36.09 -54.21,-43.48 z"
   id="path953" />
		</g>
		<g
   id="g961">
			<polygon
   class="st12"
   points="535.35,155.5 504.23,126.48 510.78,120.79 535.35,99.43 "
   id="polygon957" />
			<path
   class="st21"
   d="m 535.67,156.23 -31.92,-29.76 31.92,-27.74 z m -30.96,-29.74 30.33,28.27 v -54.63 z"
   id="path959" />
		</g>
		<g
   id="g967">
			<polygon
   class="st16"
   points="458.84,76.95 510.78,120.79 535.35,99.43 535.24,88.64 535.35,76.7 499.45,41.66 "
   id="polygon963" />
			<path
   class="st21"
   d="m 510.78,121.21 -52.43,-44.26 41.11,-35.72 36.21,35.33 -0.12,12.08 0.12,10.93 z m -51.45,-44.27 51.44,43.42 24.26,-21.08 -0.12,-10.64 0.12,-11.82 -35.6,-34.73 z"
   id="path965" />
		</g>
		<g
   id="g973">
			<polygon
   class="st12"
   points="276.94,236.02 328.11,191.56 291.36,157.3 240.2,201.76 "
   id="polygon969" />
			<path
   class="st21"
   d="m 276.94,236.45 -0.21,-0.2 -37.01,-34.5 51.65,-44.88 0.21,0.2 37.01,34.5 z m -36.27,-34.68 36.28,33.82 50.68,-44.03 -36.28,-33.82 z"
   id="path971" />
		</g>
		<g
   id="g979">
			<polygon
   class="st12"
   points="363.09,316.33 414.25,271.87 377.5,237.61 326.34,282.07 "
   id="polygon975" />
			<path
   class="st21"
   d="m 363.08,316.76 -0.21,-0.2 -37.01,-34.5 0.27,-0.23 51.38,-44.65 0.21,0.2 37.01,34.5 -0.27,0.23 z m -36.27,-34.69 36.28,33.82 50.68,-44.03 -36.28,-33.82 z"
   id="path977" />
		</g>
		<g
   id="g985">
			<polygon
   class="st16"
   points="283.49,230.33 332.89,276.38 370.95,243.3 321.56,197.25 "
   id="polygon981" />
			<path
   class="st21"
   d="m 332.88,276.81 -0.21,-0.2 -49.65,-46.29 38.55,-33.5 0.21,0.2 49.65,46.29 z m -48.91,-46.47 48.92,45.61 37.58,-32.65 -48.92,-45.61 z"
   id="path983" />
		</g>
		<g
   id="g991">
			<polygon
   class="st12"
   points="364.07,236.88 415.23,192.43 378.48,158.17 327.32,202.62 "
   id="polygon987" />
			<path
   class="st21"
   d="m 364.06,237.31 -0.21,-0.2 -37.01,-34.5 51.65,-44.88 0.21,0.2 37.01,34.5 -0.27,0.23 z m -36.26,-34.68 36.28,33.82 50.68,-44.03 -36.28,-33.82 z"
   id="path989" />
		</g>
		<g
   id="g997">
			<polygon
   class="st16"
   points="284.47,150.88 333.87,196.93 371.93,163.86 322.54,117.81 "
   id="polygon993" />
			<path
   class="st21"
   d="M 333.86,197.36 284,150.87 l 38.55,-33.5 0.21,0.2 49.65,46.29 z m -48.91,-46.47 48.92,45.61 37.58,-32.65 -48.92,-45.61 z"
   id="path995" />
		</g>
		<g
   id="g1003">
			<polygon
   class="st16"
   points="370.62,231.19 421.4,278.54 459.46,245.46 408.68,198.12 "
   id="polygon999" />
			<path
   class="st21"
   d="m 421.39,278.97 -0.21,-0.2 -51.05,-47.59 38.56,-33.5 0.21,0.2 51.05,47.59 -0.27,0.24 z m -50.29,-47.77 50.31,46.9 37.57,-32.65 -50.31,-46.9 z"
   id="path1001" />
		</g>
		<g
   id="g1009">
			<polygon
   class="st12"
   points="366.42,158.72 417.58,114.26 380.83,80 329.67,124.46 "
   id="polygon1005" />
			<path
   class="st21"
   d="m 366.41,159.15 -0.21,-0.2 -37.01,-34.5 51.65,-44.88 0.21,0.2 37.01,34.5 -0.27,0.23 z m -36.26,-34.68 36.28,33.82 50.68,-44.03 -36.28,-33.82 z"
   id="path1007" />
		</g>
		<g
   id="g1015">
			<polygon
   class="st12"
   points="452.56,239.03 503.72,194.57 466.98,160.31 415.81,204.77 "
   id="polygon1011" />
			<path
   class="st21"
   d="m 452.56,239.46 -0.21,-0.2 -37.01,-34.5 0.27,-0.23 51.38,-44.65 0.21,0.2 37.01,34.5 -0.27,0.23 z m -36.27,-34.68 36.28,33.82 50.68,-44.03 -36.28,-33.82 z"
   id="path1013" />
		</g>
		<g
   id="g1021">
			<polygon
   class="st16"
   points="372.97,153.03 422.36,199.08 460.43,166 411.03,119.95 "
   id="polygon1017" />
			<path
   class="st21"
   d="m 422.36,199.51 -0.21,-0.2 -49.65,-46.29 38.55,-33.5 0.21,0.2 49.65,46.29 z m -48.91,-46.47 48.92,45.61 37.58,-32.65 -48.92,-45.61 z"
   id="path1019" />
		</g>
		<g
   id="g1027">
			<polygon
   class="st12"
   points="453.54,159.58 504.71,115.13 466.03,82.54 416.8,125.32 "
   id="polygon1023" />
			<path
   class="st21"
   d="m 453.54,160.01 -0.21,-0.2 -37.01,-34.5 0.27,-0.23 49.44,-42.96 39.17,33 z m -36.27,-34.68 36.28,33.82 50.66,-44.02 -38.18,-32.17 z"
   id="path1025" />
		</g>
		<g
   id="g1033">
			<polygon
   class="st16"
   points="370.41,75.97 423.34,119.63 466.03,82.54 412.02,40.51 "
   id="polygon1029" />
			<path
   class="st21"
   d="m 423.35,120.05 -0.21,-0.17 -53.23,-43.91 0.29,-0.25 41.81,-35.63 0.21,0.16 54.32,42.27 z m -52.44,-44.09 52.43,43.25 42.19,-36.66 -53.5,-41.63 z"
   id="path1031" />
		</g>
		<g
   id="g1039">
			<polygon
   class="st16"
   points="460.09,153.9 498.16,120.82 504.23,126.48 535.35,155.5 535.35,179.97 510.87,201.24 503.72,194.57 466.97,160.31 "
   id="polygon1035" />
			<path
   class="st21"
   d="m 510.87,201.68 -7.36,-6.87 -43.9,-40.92 38.56,-33.5 37.51,34.97 v 24.76 z m -50.29,-47.78 50.31,46.9 24.15,-20.98 v -24.19 l -36.88,-34.38 z"
   id="path1037" />
		</g>
		<g
   id="g1045">
			<polygon
   class="st12"
   points="318.44,433.18 242.27,433.18 242.39,433.08 280.45,400 287,394.31 323.74,428.57 "
   id="polygon1041" />
			<path
   class="st21"
   d="m 318.56,433.5 h -77.15 l 45.59,-39.62 37.22,34.7 z m -75.43,-0.64 h 75.2 l 4.94,-4.3 L 287,394.74 Z"
   id="path1043" />
		</g>
		<g
   id="g1049">
			<polygon
   class="st21"
   points="329.83,433.5 329.83,432.86 "
   id="polygon1047" />
		</g>
		<g
   id="g1055">
			<polygon
   class="st12"
   points="367.3,400.62 373.85,394.93 410.6,429.19 406.01,433.18 329.83,433.18 "
   id="polygon1051" />
			<path
   class="st21"
   d="m 406.13,433.5 h -77.15 l 44.88,-39 37.22,34.7 z m -75.44,-0.64 h 75.2 l 4.23,-3.68 -36.28,-33.82 z"
   id="path1053" />
		</g>
		<g
   id="g1061">
			<polygon
   class="st16"
   points="323.74,428.57 287,394.31 280.1,387.88 318.16,354.81 325.31,361.47 362.06,395.73 367.3,400.62 367.31,400.62 329.83,433.18 328.69,433.18 "
   id="polygon1057" />
			<path
   class="st21"
   d="m 329.95,433.5 h -1.39 l -48.94,-45.63 38.55,-33.49 49.61,46.25 -0.26,0.24 z m -1.14,-0.64 h 0.9 l 37.12,-32.25 -48.67,-45.38 -37.58,32.65 z"
   id="path1059" />
		</g>
		<g
   id="g1067">
			<polygon
   class="st16"
   points="227.44,433.18 228.69,432.1 229.84,433.18 "
   id="polygon1063" />
			<path
   class="st21"
   d="m 230.66,433.5 h -4.07 l 2.11,-1.83 z m -2.36,-0.64 h 0.73 l -0.35,-0.33 z"
   id="path1065" />
		</g>
		<g
   id="g1073">
			<polygon
   class="st12"
   points="362.06,395.73 413.22,351.28 376.48,317.02 325.31,361.47 "
   id="polygon1069" />
			<path
   class="st21"
   d="m 362.05,396.16 -0.21,-0.2 -37.01,-34.5 0.27,-0.23 51.38,-44.65 0.21,0.2 37.01,34.5 -0.27,0.23 z m -36.26,-34.68 36.28,33.82 50.68,-44.03 -36.28,-33.82 z"
   id="path1071" />
		</g>
		<g
   id="g1079">
			<path
   class="st12"
   d="m 493.74,426.34 c -9.89,4.38 -21.03,6.84 -32.8,6.84 h -39.58 l 34.71,-30.17 6.55,-5.69 z"
   id="path1075" />
			<path
   class="st21"
   d="M 460.94,433.5 H 420.5 l 42.13,-36.61 0.21,0.2 31.47,29.34 -0.44,0.2 c -10.29,4.56 -21.37,6.87 -32.93,6.87 z m -38.73,-0.64 h 38.73 c 11.31,0 22.15,-2.23 32.23,-6.62 l -30.55,-28.49 z"
   id="path1077" />
		</g>
		<g
   id="g1085">
			<polygon
   class="st16"
   points="373.85,394.93 368.61,390.04 406.67,356.97 412.74,362.63 449.49,396.89 456.07,403.01 421.35,433.18 414.89,433.18 410.6,429.19 "
   id="polygon1081" />
			<path
   class="st21"
   d="m 421.47,433.5 h -6.72 l -46.63,-43.47 0.27,-0.23 38.28,-33.26 6.28,5.86 43.58,40.63 -0.27,0.23 z m -6.46,-0.64 h 6.22 L 455.58,403 406.66,357.39 369.08,390.04 Z"
   id="path1083" />
		</g>
		<g
   id="g1091">
			<polygon
   class="st12"
   points="449.5,396.89 500.66,352.43 463.91,318.17 412.75,362.63 "
   id="polygon1087" />
			<path
   class="st21"
   d="m 449.49,397.32 -0.21,-0.2 -37.01,-34.5 0.27,-0.23 51.38,-44.65 0.21,0.2 37.01,34.5 -0.27,0.23 z m -36.27,-34.69 36.28,33.82 50.68,-44.03 -36.28,-33.82 z"
   id="path1089" />
		</g>
		<g
   id="g1097">
			<polygon
   class="st16"
   points="369.63,310.64 419.3,356.94 457.36,323.86 407.7,277.56 "
   id="polygon1093" />
			<path
   class="st21"
   d="m 419.29,357.37 -0.21,-0.2 -49.92,-46.54 0.27,-0.23 38.28,-33.26 0.21,0.2 49.92,46.54 z m -49.18,-46.73 49.19,45.86 37.58,-32.65 -49.19,-45.86 z"
   id="path1095" />
		</g>
		<g
   id="g1103">
			<path
   class="st16"
   d="m 493.74,426.34 v 0 l -31.12,-29.01 -6.57,-6.13 38.06,-33.08 6.88,6.42 28.89,26.93 c -6.9,15.23 -19.84,27.65 -36.14,34.87 z"
   id="path1099" />
			<path
   class="st21"
   d="m 493.81,426.66 h -0.2 l -0.09,-0.09 -37.95,-35.39 38.55,-33.5 7.1,6.62 29.06,27.09 -0.1,0.21 c -6.93,15.29 -19.82,27.73 -36.3,35.03 z m -37.28,-35.45 37.27,34.75 c 16.17,-7.21 28.83,-19.42 35.69,-34.41 L 494.1,358.56 Z"
   id="path1101" />
		</g>
		<g
   id="g1109">
			<polygon
   class="st12"
   points="451.6,318.49 502.76,274.03 466.01,239.77 414.85,284.23 "
   id="polygon1105" />
			<path
   class="st21"
   d="m 451.59,318.92 -0.21,-0.2 -37.01,-34.5 0.27,-0.23 51.38,-44.65 0.21,0.2 37.01,34.5 -0.27,0.23 z m -36.26,-34.68 36.28,33.82 50.68,-44.04 -36.28,-33.82 z"
   id="path1107" />
		</g>
		<g
   id="g1115">
			<path
   class="st12"
   d="m 535.35,334.68 v 31.52 c 0,8.94 -1.95,17.47 -5.47,25.27 l -28.89,-26.93 6.55,-5.69 z"
   id="path1111" />
			<path
   class="st21"
   d="m 529.99,392.01 -29.47,-27.48 6.82,-5.93 28.34,-24.63 v 32.23 c 0,8.78 -1.85,17.33 -5.5,25.4 z m -28.52,-27.46 28.3,26.38 c 3.49,-7.87 5.26,-16.18 5.26,-24.73 v -30.82 z"
   id="path1113" />
		</g>
		<g
   id="g1121">
			<polygon
   class="st16"
   points="458.15,312.8 496.21,279.72 501.97,285.09 535.35,316.21 535.35,334.68 507.54,358.85 500.66,352.43 463.91,318.17 "
   id="polygon1117" />
			<path
   class="st21"
   d="m 507.53,359.28 -49.86,-46.49 0.27,-0.23 38.28,-33.26 39.46,36.79 v 18.75 l -0.11,0.1 z m -48.9,-46.47 48.92,45.61 27.48,-23.88 v -18.18 l -38.83,-36.2 z"
   id="path1119" />
		</g>
		<g
   id="g1127">
			<polygon
   class="st12"
   points="535.35,256.09 535.35,316.21 501.97,285.09 527.55,262.87 "
   id="polygon1123" />
			<path
   class="st21"
   d="m 535.67,316.95 -34.18,-31.86 0.27,-0.23 33.91,-29.47 z m -33.22,-31.85 32.58,30.38 v -58.69 z"
   id="path1125" />
		</g>
		<g
   id="g1133">
			<polygon
   class="st16"
   points="502.76,274.03 466.01,239.77 459.13,233.36 497.19,200.28 504.33,206.93 535.35,235.86 535.35,256.09 527.55,262.87 508.52,279.4 "
   id="polygon1129" />
			<path
   class="st21"
   d="m 508.51,279.83 -49.86,-46.49 0.27,-0.23 38.28,-33.26 38.47,35.87 v 20.52 l -7.91,6.87 z m -48.9,-46.47 48.92,45.61 26.51,-23.03 v -19.95 l -37.85,-35.28 z"
   id="path1131" />
		</g>
		<g
   id="g1139">
			<polygon
   class="st12"
   points="535.35,179.97 535.35,235.86 504.33,206.93 510.87,201.24 "
   id="polygon1135" />
			<path
   class="st21"
   d="m 535.67,236.59 -31.82,-29.67 31.82,-27.65 z m -30.86,-29.65 30.23,28.18 v -54.45 z"
   id="path1137" />
		</g>
	</g><g
     id="g1161">
		<path
   class="st22"
   d="M 218.02,130.46 113.62,351.04 V 246.89 l 67.16,-136.23 c 3.91,-7.93 14.89,-10.2 24.53,-5.07 l 2.08,1.11 c 0.01,0.01 0.02,0.01 0.03,0.02 l 0.92,-3.86 c 9.64,5.14 13.59,19.67 9.68,27.6 z"
   id="path1143" />
		<path
   class="st23"
   d="M 80,401.93 216.63,124.76 c 3.91,-7.93 -0.74,-18.53 -10.39,-23.67 l -2.62,-1.4 c -0.01,-0.01 -0.02,-0.01 -0.03,-0.02 l -2.08,-1.11 c -9.64,-5.12 -20.62,-2.85 -24.53,5.07 L 40.35,380.82 c -3.9,7.9 0.71,18.45 10.28,23.61 l 2.17,1.15 2.65,1.41 c 9.65,5.14 20.64,2.88 24.55,-5.06 z"
   id="path1145" />
		<path
   class="st13"
   d="M 77.64,400.47 214.28,123.3 c 3.91,-7.92 -0.73,-18.51 -10.36,-23.65 -0.01,-0.01 -0.02,-0.01 -0.03,-0.02 l -2.08,-1.11 c -9.64,-5.12 -20.62,-2.85 -24.53,5.07 L 40.65,380.76 c -3.9,7.9 0.71,18.45 10.28,23.61 l 2.17,1.15 c 14.01,7.32 20.63,2.88 24.54,-5.05 z"
   id="path1147" />
		<g
   id="g1159">
			<g
   id="g1153">
				<path
   class="st24"
   d="m 183.07,115.17 c 0.27,5.86 5.33,10.91 11.32,11.27 5.98,0.36 10.62,-4.1 10.35,-9.96 -0.02,-0.51 -0.08,-1.01 -0.18,-1.5 -0.98,-5.2 -5.68,-9.44 -11.14,-9.77 -5.47,-0.33 -9.8,3.36 -10.31,8.47 -0.05,0.48 -0.06,0.98 -0.04,1.49 z"
   id="path1149" />
				<path
   class="st24"
   d="m 186.8,123.73 c -2.44,-2.17 -4.06,-5.23 -4.21,-8.53 v 0 c -0.02,-0.53 -0.01,-1.06 0.04,-1.56 0.54,-5.42 5.19,-9.24 10.82,-8.9 5.58,0.34 10.56,4.71 11.59,10.16 0.1,0.51 0.16,1.04 0.18,1.57 0.13,2.93 -0.9,5.63 -2.9,7.6 -2.06,2.03 -4.89,3.05 -7.97,2.86 -2.83,-0.18 -5.48,-1.37 -7.55,-3.2 z m 13.58,-15.07 c -1.92,-1.7 -4.38,-2.81 -6.98,-2.97 -5.1,-0.31 -9.32,3.15 -9.8,8.03 -0.05,0.46 -0.06,0.94 -0.04,1.42 v 0 c 0.25,5.61 5.13,10.46 10.86,10.81 2.8,0.17 5.37,-0.75 7.23,-2.58 1.8,-1.78 2.73,-4.22 2.61,-6.87 -0.02,-0.48 -0.08,-0.97 -0.17,-1.44 -0.47,-2.48 -1.83,-4.73 -3.71,-6.4 z"
   id="path1151" />
			</g>
			<path
   class="st25"
   d="m 183.58,111.6 c -0.48,1.46 -0.37,3.11 0.3,4.62 1.82,4.05 5.94,7.04 10.55,7.23 4.61,0.19 8.36,-2.47 9.66,-6.4 0.48,-1.46 0.37,-3.11 -0.3,-4.62 -1.82,-4.05 -5.94,-7.05 -10.55,-7.24 -4.61,-0.18 -8.36,2.49 -9.66,6.41 z"
   id="path1155" />
			<path
   class="st26"
   d="m 199.97,110.9 c 0.34,0.22 -6.08,-9.06 -13.1,-0.79 3.58,-2.17 8.23,-2.3 13.1,0.79 z"
   id="path1157" />
		</g>
	</g><g
     id="g1181">
		<path
   class="st22"
   d="m 535.35,234.25 v 115.51 l -94.4,-221.3 c -2.73,-7.68 -0.02,-16.6 8.28,-23.29 l 3.04,-0.71 c 0.01,-0.01 0.02,-0.01 0.03,-0.02 l 2.11,-1.05 c 9.82,-4.85 20.71,-2.28 24.34,5.75 z"
   id="path1163" />
		<path
   class="st23"
   d="M 569.51,406.54 442.49,125.7 c -3.64,-8.04 1.38,-18.5 11.2,-23.37 l 2.67,-1.32 c 0.01,0 0.02,-0.01 0.03,-0.02 l 2.12,-1.05 c 9.82,-4.85 20.71,-2.28 24.34,5.75 l 127.02,280.85 c 3.62,8.01 -1.34,18.42 -11.09,23.31 l -2.2,1.09 -2.7,1.34 c -9.82,4.87 -20.73,2.3 -24.37,-5.74 z"
   id="path1165" />
		<path
   class="st13"
   d="M 571.92,405.14 444.9,124.3 c -3.63,-8.03 1.36,-18.48 11.17,-23.35 0.01,0 0.02,-0.01 0.03,-0.02 l 2.12,-1.05 c 9.82,-4.85 20.71,-2.28 24.34,5.75 l 127.02,280.85 c 3.62,8.01 -1.34,18.42 -11.09,23.31 l -2.2,1.09 c -14.27,6.93 -20.74,2.3 -24.37,-5.74 z"
   id="path1167" />
		<g
   id="g1179">
			<g
   id="g1173">
				<path
   class="st24"
   d="m 455.7,117.58 c 0.27,5.86 5.33,10.91 11.32,11.27 5.98,0.36 10.62,-4.1 10.35,-9.96 -0.02,-0.51 -0.08,-1.01 -0.18,-1.5 -0.98,-5.2 -5.68,-9.44 -11.14,-9.77 -5.47,-0.33 -9.8,3.36 -10.31,8.47 -0.05,0.48 -0.06,0.98 -0.04,1.49 z"
   id="path1169" />
				<path
   class="st24"
   d="m 459.43,126.14 c -2.44,-2.17 -4.06,-5.23 -4.21,-8.53 v 0 c -0.02,-0.53 -0.01,-1.06 0.04,-1.56 0.54,-5.42 5.19,-9.24 10.82,-8.9 5.58,0.34 10.56,4.71 11.59,10.16 0.1,0.51 0.16,1.04 0.18,1.57 0.13,2.93 -0.9,5.63 -2.9,7.6 -2.06,2.03 -4.89,3.05 -7.97,2.86 -2.84,-0.18 -5.49,-1.37 -7.55,-3.2 z m 13.58,-15.07 c -1.92,-1.7 -4.38,-2.81 -6.98,-2.97 -5.1,-0.31 -9.32,3.15 -9.8,8.03 -0.05,0.46 -0.06,0.94 -0.04,1.42 v 0 c 0.25,5.61 5.13,10.46 10.86,10.81 2.8,0.17 5.37,-0.75 7.23,-2.58 1.8,-1.78 2.73,-4.22 2.61,-6.87 -0.02,-0.48 -0.08,-0.97 -0.17,-1.44 -0.47,-2.48 -1.83,-4.73 -3.71,-6.4 z"
   id="path1171" />
			</g>
			<path
   class="st25"
   d="m 456.21,114.01 c -0.48,1.46 -0.37,3.11 0.3,4.62 1.82,4.05 5.94,7.04 10.55,7.23 4.61,0.19 8.36,-2.47 9.66,-6.4 0.48,-1.46 0.37,-3.11 -0.3,-4.62 -1.82,-4.05 -5.94,-7.05 -10.55,-7.24 -4.61,-0.18 -8.36,2.49 -9.66,6.41 z"
   id="path1175" />
			<path
   class="st26"
   d="m 472.59,113.31 c 0.34,0.22 -6.08,-9.06 -13.1,-0.79 3.59,-2.17 8.24,-2.3 13.1,0.79 z"
   id="path1177" />
		</g>
	</g></g>
</g></g><style
     type="text/css"
     id="style809">
	.st0{fill-rule:evenodd;clip-rule:evenodd;fill:#1A1A1B;}
	.st1{fill:url(#SVGID_1_);}
	.st2{fill:url(#SVGID_00000002381967194347795860000018260498928762707083_);}
	.st3{fill:url(#SVGID_00000181045430836232185060000008065154823397093552_);}
	.st4{fill:#FFFFFF;}
	.st5{fill:#FF9196;}
	.st6{fill:#FF4952;}
	.st7{fill:#F4B9B2;}
	.st8{fill:url(#SVGID_00000033364171389114996950000008898371820053669767_);}
	.st9{fill:url(#SVGID_00000082351260064161004490000015298355900543421850_);}
	.st10{fill:#A80000;}
	.st11{fill:#FF2337;}
	.st12{fill:#FF9396;}
	.st13{fill:#FF8D5F;}
	.st14{fill:#FF4237;}
	.st15{fill:#A7A9AC;}
	.st16{fill:#FF7579;}
	.st17{fill:#E7D7C4;}
	.st18{fill:#C3B8AB;}
	.st19{fill:#928A80;}
	.st20{fill:#F1E7DC;}
	.st21{fill:#DF0000;}
	.st22{opacity:0.1;}
	.st23{fill:#3C2415;}
	.st24{fill:#A1A09F;}
	.st25{fill:#C1C0BF;}
	.st26{fill:#EBE8E8;}
	.st27{fill:#683F29;}
	.st28{fill:#759DAE;}
	.st29{fill:#A2745C;}
	.st30{fill:#C19274;}
	.st31{fill:#AA7B61;}
	.st32{fill:#FF1E00;}
</style></svg>
