<?xml version="1.0" encoding="UTF-8" standalone="no"?>
<svg
   xmlns:dc="http://purl.org/dc/elements/1.1/"
   xmlns:cc="http://creativecommons.org/ns#"
   xmlns:rdf="http://www.w3.org/1999/02/22-rdf-syntax-ns#"
   xmlns:svg="http://www.w3.org/2000/svg"
   xmlns="http://www.w3.org/2000/svg"
   xmlns:sodipodi="http://sodipodi.sourceforge.net/DTD/sodipodi-0.dtd"
   xmlns:inkscape="http://www.inkscape.org/namespaces/inkscape"
   width="110mm"
   height="110mm"
   viewBox="0 0 110 110"
   version="1.1"
   id="svg386"
   inkscape:version="1.0.2-2 (e86c870879, 2021-01-15)"
   sodipodi:docname="perniagaan-tax.svg">
  <defs
     id="defs380" />
  <sodipodi:namedview
     id="base"
     pagecolor="#ffffff"
     bordercolor="#666666"
     borderopacity="1.0"
     inkscape:pageopacity="0.0"
     inkscape:pageshadow="2"
     inkscape:zoom="0.35"
     inkscape:cx="146.46363"
     inkscape:cy="19.336128"
     inkscape:document-units="mm"
     inkscape:current-layer="layer1"
     inkscape:document-rotation="0"
     showgrid="false"
     fit-margin-top="0"
     fit-margin-left="0"
     fit-margin-right="0"
     fit-margin-bottom="0"
     inkscape:window-width="1920"
     inkscape:window-height="986"
     inkscape:window-x="-11"
     inkscape:window-y="-11"
     inkscape:window-maximized="1" />
  <metadata
     id="metadata383">
    <rdf:RDF>
      <cc:Work
         rdf:about="">
        <dc:format>image/svg+xml</dc:format>
        <dc:type
           rdf:resource="http://purl.org/dc/dcmitype/StillImage" />
        <dc:title></dc:title>
      </cc:Work>
    </rdf:RDF>
  </metadata>
  <g
     inkscape:label="Layer 1"
     inkscape:groupmode="layer"
     id="layer1"
     transform="translate(-67.081498,-143.05065)">
    <g
       id="g431"
       transform="matrix(0.26458333,0,0,0.26458333,48.42813,160.07248)">
      <path
         class="st3"
         d="m 198.23,148.67 c 1.27,6.12 3.57,11.56 7.08,16.66 -0.54,0.34 -1.01,0.64 -1.49,0.92 -15.61,8.93 -31.21,17.88 -46.84,26.77 -1.25,0.71 -1.62,1.3 -1.29,2.81 4.53,20.23 -8.47,39.66 -29.06,43.56 -20.09,3.8 -39.73,-10.05 -42.84,-30.22 -2.32,-15.04 5.25,-30.07 18.8,-37.36 13.62,-7.33 30.69,-5.25 42.23,5.25 1.15,1.05 1.86,0.99 3.09,0.29 16.2,-9.29 32.42,-18.53 48.64,-27.78 0.5,-0.28 1,-0.54 1.68,-0.9 z m -58.78,54.99 c 0.01,-10.48 -8.78,-19.18 -19.38,-19.18 -10.66,-0.01 -19.46,8.73 -19.44,19.3 0.01,10.5 8.78,19.17 19.38,19.18 10.67,-0.01 19.43,-8.7 19.44,-19.3 z"
         id="path390" />
      <path
         class="st3"
         d="m 210.42,120.23 c 2.85,-2.23 5.42,-4.74 8.43,-6.51 12.33,-7.26 24.8,-14.29 37.22,-21.4 0.13,-0.07 0.28,-0.11 0.58,-0.23 0.04,0.51 0.11,0.95 0.11,1.39 0.01,13.68 -0.01,27.37 0.03,41.05 0,1.18 -0.38,1.8 -1.4,2.34 -2.48,1.31 -4.88,2.78 -7.36,4.1 -0.42,0.22 -1.16,0.28 -1.55,0.06 -11.81,-6.69 -23.59,-13.42 -35.37,-20.16 -0.11,-0.08 -0.21,-0.21 -0.69,-0.64 z"
         id="path392" />
      <path
         class="st4"
         d="m 217.74,156.71 c -5.02,0.01 -9.18,-4.12 -9.15,-9.08 0.03,-5 4.19,-9.1 9.18,-9.07 5.06,0.04 9.12,4.08 9.15,9.1 0.03,4.96 -4.11,9.04 -9.18,9.05 z"
         id="path394" />
      <path
         class="st15"
         d="m 120.06,64.02 c -10.62,-0.01 -19.37,8.61 -19.42,19.13 -0.05,10.57 8.74,19.33 19.4,19.33 10.62,0 19.39,-8.65 19.42,-19.14 0.02,-10.59 -8.73,-19.3 -19.4,-19.32 z"
         id="path396" />
      <path
         class="st15"
         d="m 217.77,138.56 c -4.99,-0.03 -9.15,4.07 -9.18,9.07 -0.03,4.96 4.13,9.08 9.15,9.08 5.07,-0.01 9.21,-4.09 9.18,-9.04 -0.03,-5.03 -4.09,-9.07 -9.15,-9.11 z"
         id="path398" />
      <path
         class="st12"
         d="M 472,66.45 H 261 v 82.08 c 33.88,19.38 67.77,38.75 101.65,58.13 0.46,0.26 0.92,0.52 1.38,0.79 H 472 Z"
         id="path400" />
      <g
         id="g408">
	<path
   class="st4"
   d="m 323.52,94.11 v 15.77 H 302.1 v 65.05 H 282.41 V 109.88 H 261 V 94.11 Z"
   id="path402" />

	<path
   class="st4"
   d="m 375.09,160.65 h -30.16 l -4.84,14.28 h -20.61 l 29.24,-80.82 h 22.8 l 29.24,80.82 h -20.84 z m -5.06,-15.2 -10.02,-29.59 -9.9,29.59 z"
   id="path404" />

	<path
   class="st4"
   d="m 450.5,174.93 -16.46,-24.75 -14.51,24.75 H 397.2 l 25.9,-41.1 -26.48,-39.72 h 22.91 l 16.23,24.41 14.28,-24.41 h 22.33 l -25.67,40.75 26.71,40.07 z"
   id="path406" />

</g>
      <path
         class="st3"
         d="m 366.03,213.45 c -0.46,-0.26 -0.92,-0.53 -1.38,-0.79 C 330.77,193.28 296.88,173.91 263,154.53 247.8,145.84 232.59,137.14 217.39,128.45 197.13,116.86 176.88,105.26 156.6,93.7 c -1,-0.57 -1.25,-1.06 -0.97,-2.22 1.12,-4.53 1.32,-9.13 0.51,-13.74 -3.56,-20.2 -21.46,-33.16 -41.77,-30.28 -19.75,2.8 -33.82,21.83 -30.56,41.33 3.87,23.19 27.86,36.75 49.76,28.15 4.76,-1.87 8.92,-4.64 12.6,-8.22 0.33,0.16 0.47,0.22 0.61,0.3 17.72,10.15 35.44,20.31 53.17,30.43 0.82,0.47 1.02,1.01 1.05,1.89 0.53,14.42 6.8,25.67 19.31,32.89 14.2,8.21 28.43,16.37 42.68,24.51 8.59,4.91 17.18,9.81 25.77,14.71 9.14,5.21 18.28,10.41 27.41,15.62 14.03,8 31.72,6.34 44.11,-3.99 3.39,-2.83 6.24,-6.12 8.48,-10.06 -0.94,-0.55 -1.84,-1.06 -2.73,-1.57 z M 120.04,102.49 c -10.66,0 -19.45,-8.77 -19.4,-19.33 0.05,-10.53 8.8,-19.15 19.42,-19.13 10.67,0.01 19.42,8.73 19.4,19.32 -0.03,10.49 -8.81,19.14 -19.42,19.14 z m 97.7,54.22 c -5.02,0.01 -9.18,-4.12 -9.15,-9.08 0.03,-5 4.19,-9.1 9.18,-9.07 5.06,0.04 9.12,4.08 9.15,9.1 0.03,4.96 -4.11,9.04 -9.18,9.05 z"
         id="path410" />
    </g>
  </g>
  <style
     type="text/css"
     id="style388">
	.st0{fill:#00A100;}
	.st1{fill:#00E100;}
	.st2{fill:#00FF02;}
	.st3{fill:#00D57C;}
	.st4{fill:#FFFFFF;}
	.st5{fill:#00FF00;}
	.st6{fill:#DAEDBD;}
	.st7{fill:#6FFF77;}
	.st8{fill:#ABFF83;}
	.st9{fill:#00C100;}
	.st10{fill:#ED1C24;}
	.st11{fill-rule:evenodd;clip-rule:evenodd;fill:#00DA00;}
	.st12{fill:#00DA00;}
	.st13{fill-rule:evenodd;clip-rule:evenodd;fill:#00D57C;}
	.st14{fill:#00ECAA;}
	.st15{fill:none;}
	.st16{clip-path:url(#SVGID_00000024001239691117765320000009925152038486278584_);fill:#00DA00;}
	.st17{fill:#858E37;}
	.st18{fill:#00AD11;}
	.st19{fill-rule:evenodd;clip-rule:evenodd;fill:#00AD11;}
	.st20{fill-rule:evenodd;clip-rule:evenodd;fill:#8BE8A1;}
	.st21{fill:#43434B;}
</style>
</svg>
