<?xml version="1.0" encoding="UTF-8"?>
<svg id="Layer_1" data-name="Layer 1" xmlns="http://www.w3.org/2000/svg" viewBox="0 0 54.65 48.57">
  <defs>
    <style>
      .cls-1 {
        fill: #eb1d36;
      }

      .cls-2 {
        fill: #ffd6d6;
      }

      .cls-3 {
        fill: #7a0003;
      }
    </style>
  </defs>
  <path class="cls-2" d="M29.83,3.84L5.34,21.68s-.96,.48-.96,3.18v18.51l-2.12,.1s-1.54,.1-1.54-3.37,.29-19.57,.29-19.57l15.33-10.89L27.22,2.01l2.6,1.83Z"/>
  <g>
    <g>
      <path class="cls-3" d="M24.58,11.32h-.97l-1.63-2.46v2.46h-.97v-3.99h.97l1.63,2.47v-2.47h.97v3.99Z"/>
      <path class="cls-3" d="M27.93,8.59c-.07-.13-.18-.23-.31-.3-.13-.07-.29-.11-.47-.11-.31,0-.57,.1-.76,.31-.19,.21-.28,.48-.28,.83,0,.37,.1,.65,.3,.86,.2,.21,.47,.31,.82,.31,.24,0,.44-.06,.61-.18s.29-.3,.36-.52h-1.23v-.72h2.12v.9c-.07,.24-.19,.47-.37,.68-.17,.21-.39,.38-.66,.51-.27,.13-.56,.19-.9,.19-.39,0-.75-.09-1.05-.26-.31-.17-.55-.41-.72-.72-.17-.31-.26-.66-.26-1.05s.09-.75,.26-1.05c.17-.31,.41-.55,.72-.72,.31-.17,.66-.26,1.05-.26,.48,0,.88,.12,1.21,.35s.54,.55,.65,.96h-1.07Z"/>
      <path class="cls-3" d="M30.47,11.1c-.31-.17-.56-.42-.74-.73s-.28-.66-.28-1.05,.09-.74,.28-1.05,.43-.55,.74-.73c.31-.17,.66-.26,1.03-.26s.72,.09,1.03,.26c.31,.17,.56,.42,.74,.73,.18,.31,.27,.66,.27,1.05s-.09,.74-.27,1.05-.43,.56-.74,.73c-.31,.17-.65,.26-1.03,.26s-.72-.09-1.03-.26Zm1.8-.94c.19-.21,.29-.49,.29-.84s-.1-.63-.29-.84c-.19-.21-.45-.32-.76-.32s-.58,.1-.77,.31c-.19,.21-.29,.49-.29,.85s.1,.63,.29,.84,.45,.32,.77,.32,.57-.11,.76-.32Z"/>
    </g>
    <g>
      <g>
        <g>
          <path class="cls-1" d="M16.36,34.51c1.46,.57,2.66,1.65,3.44,3.34,.78-1.69,1.98-2.78,3.6-3.41-.45-1.47-.44-2.95-.2-4.39,.36-2.18,2.33-3.58,4.59-3.38,2.03,.17,3.72,1.97,3.75,4.08,.02,1.22-.08,2.44-.12,3.74,1.49,.81,1.97,.91,3.46,3.29,.74-1.61,1.95-2.69,3.56-3.33-.43-1.49-.44-2.98-.19-4.45,.36-2.1,2.25-3.47,4.46-3.35,2,.11,3.75,1.79,3.86,3.84,.07,1.3,.2,2.62-.27,3.87,.6,.37,1.22,.68,1.75,1.09,1.5,1.16,2.27,2.73,2.3,4.62,.04,2.18,.01,4.35,0,6.53,0,1.03-.56,1.58-1.61,1.59-14.29,0-28.57,0-42.86,0-1.07,0-1.61-.56-1.62-1.64,0-2.04,0-4.08,0-6.12,0-2.78,1.3-4.72,3.82-5.87,.07-.03,.14-.06,.09-.04-.05-1.25-.14-2.43-.14-3.61,0-2.41,1.87-4.27,4.24-4.26,2.34,0,4.2,1.85,4.21,4.23,0,1.18-.09,2.37-.14,3.64Zm18.02,12.71c0-2.28,0-4.51,0-6.75,0-.25,.01-.51-.02-.76-.26-2.01-1.3-3.44-3.14-4.29-.29-.13-.48-.15-.75,.13-1.78,1.9-4.52,1.91-6.28,0-.26-.28-.45-.28-.75-.15-2,.93-3.09,2.49-3.16,4.69-.06,1.96-.01,3.92-.01,5.88,0,.41,0,.81,0,1.24h14.11Zm-15.09,.02c.02-.13,.04-.2,.04-.27,0-2.33,.06-4.67-.02-7-.07-2.16-1.22-3.66-3.17-4.56-.31-.14-.5-.09-.74,.17-1.75,1.87-4.49,1.86-6.25,0-.25-.27-.44-.3-.74-.16-2.01,.94-3.13,2.51-3.18,4.74-.04,2.06,0,4.12,0,6.17,0,.85,.06,.91,.9,.91,4.19,0,8.39,0,12.58,0,.19,0,.38,0,.59,0Zm16.03,0c4.57,0,9.05,0,13.53,0,.47,0,.58-.28,.58-.69,0-2.17,.02-4.35-.01-6.52-.03-2.04-1.36-3.91-3.23-4.64-.27-.11-.43-.08-.65,.15-1.83,1.93-4.5,1.93-6.32,0-.21-.22-.38-.28-.65-.16-1.66,.74-2.79,1.95-3.12,3.77-.14,.78-.12,1.6-.12,2.4-.02,1.88,0,3.75,0,5.69ZM15.61,31.85h-.06c0-.4,.02-.79,0-1.18-.1-1.74-1.55-3.09-3.31-3.08-1.75,0-3.2,1.39-3.26,3.13-.03,.74-.03,1.49,0,2.23,.07,1.63,1.33,2.9,3.01,3.08,1.53,.17,3.07-.9,3.43-2.44,.13-.56,.12-1.16,.18-1.75Zm8.37-.1s.03,0,.05,0c0,.37-.01,.75,0,1.12,.06,1.77,1.53,3.18,3.29,3.17,1.74,0,3.2-1.39,3.28-3.13,.03-.74,.03-1.49,0-2.23-.07-1.58-1.35-2.93-2.88-3.08-1.71-.17-3.21,.84-3.58,2.46-.12,.55-.11,1.12-.16,1.69Zm15.06,0h.04c0,.36,0,.71,0,1.06,.04,1.72,1.31,3.06,3.05,3.23,1.59,.15,3.14-.96,3.42-2.59,.16-.95,.15-1.95,.08-2.93-.11-1.56-1.45-2.82-2.97-2.92-1.69-.11-3.13,.9-3.48,2.52-.12,.53-.1,1.09-.15,1.63Z"/>
          <path class="cls-1" d="M27.32,48.57c-7.14,0-14.29,0-21.43,0-1.28,0-1.99-.72-1.99-2.02,0-2.04,0-4.08,0-6.12,0-2.85,1.32-4.92,3.9-6.15-.01-.3-.03-.6-.04-.89-.04-.85-.09-1.66-.08-2.48,0-1.27,.48-2.44,1.35-3.31,.86-.86,2.01-1.33,3.25-1.33h.01c2.56,0,4.58,2.03,4.58,4.6,0,.82-.04,1.63-.08,2.48-.01,.3-.03,.61-.04,.92,1.29,.57,2.32,1.5,3.05,2.77,.74-1.29,1.78-2.21,3.15-2.81-.34-1.29-.38-2.68-.12-4.23,.39-2.35,2.48-3.92,4.99-3.7,2.23,.19,4.06,2.18,4.09,4.45,.01,.84-.03,1.67-.07,2.54-.02,.32-.03,.65-.04,.98l.15,.08c1.14,.61,1.72,.91,2.89,2.69,.72-1.25,1.78-2.19,3.15-2.8-.34-1.33-.37-2.74-.11-4.29,.38-2.25,2.42-3.79,4.85-3.66,2.2,.12,4.09,2,4.22,4.19l.02,.32c.07,1.12,.14,2.28-.21,3.41,.1,.06,.21,.12,.31,.18,.41,.24,.84,.48,1.22,.78,1.59,1.23,2.41,2.89,2.45,4.91,.03,1.75,.02,3.51,.01,5.27v1.27c0,1.24-.73,1.96-1.99,1.96-7.14,0-14.29,0-21.43,0Zm-19-13.7l-.07,.03c-2.42,1.11-3.6,2.92-3.6,5.53,0,2.04,0,4.08,0,6.11,0,.88,.38,1.27,1.24,1.27,14.29,0,28.57,0,42.86,0,.84,0,1.24-.39,1.24-1.21v-1.27c.01-1.75,.02-3.5,0-5.25-.03-1.79-.75-3.24-2.16-4.33-.34-.27-.73-.49-1.14-.72-.19-.11-.39-.22-.58-.34l-.26-.16,.11-.29c.41-1.07,.34-2.2,.27-3.39l-.02-.32c-.1-1.82-1.68-3.39-3.51-3.49-2.03-.11-3.75,1.17-4.06,3.04-.27,1.56-.21,2.96,.18,4.28l.1,.33-.32,.12c-1.58,.62-2.67,1.64-3.36,3.13l-.29,.63-.37-.59c-1.32-2.09-1.77-2.33-2.97-2.97l-.56-.3v-.23c.02-.42,.04-.82,.06-1.23,.04-.86,.08-1.67,.07-2.49-.02-1.89-1.55-3.56-3.41-3.71-2.12-.18-3.87,1.11-4.19,3.07-.26,1.57-.2,2.95,.19,4.22l.1,.33-.32,.13c-1.57,.61-2.68,1.66-3.39,3.22l-.34,.74-.34-.74c-.7-1.52-1.79-2.58-3.24-3.15l-.25-.1v-.27c.03-.4,.05-.8,.07-1.18,.04-.84,.08-1.64,.08-2.44,0-2.16-1.69-3.85-3.84-3.85-1.02-.03-2.01,.39-2.73,1.11-.73,.72-1.13,1.71-1.13,2.78,0,.8,.04,1.6,.08,2.44,.02,.31,.03,.63,.05,.95l.04,.03-.04,.43-.23,.1Zm6.18,12.76H6.11c-1.05,0-1.27-.23-1.27-1.28v-1.81c-.01-1.46-.02-2.91,0-4.37,.05-2.33,1.19-4.04,3.39-5.07,.46-.22,.82-.14,1.18,.24,.78,.83,1.79,1.29,2.85,1.29h0c1.06,0,2.07-.45,2.85-1.28,.24-.26,.59-.52,1.17-.25,2.14,.99,3.31,2.68,3.39,4.89,.06,1.64,.04,3.31,.03,4.92,0,.7-.01,1.4-.01,2.09,0,.07,0,.13-.02,.22l-.06,.43h-5.12Zm-5.8-11.91s-.08,.02-.14,.05c-1.95,.91-2.92,2.36-2.96,4.41-.03,1.45-.02,2.9-.02,4.35v1.81c0,.12,0,.45,.04,.52,.04,.01,.37,.01,.49,.01h12.83c0-.67,0-1.33,.01-2,.01-1.6,.03-3.26-.03-4.88-.07-1.94-1.06-3.36-2.95-4.23-.15-.07-.16-.07-.31,.09-.92,.98-2.12,1.52-3.39,1.52h0c-1.27,0-2.48-.54-3.4-1.52-.08-.09-.12-.12-.17-.12Zm40.15,11.91h-13.91v-2.06c0-1.35,0-2.68,0-4.01v-.4c0-.68,0-1.38,.13-2.06,.34-1.85,1.46-3.2,3.34-4.04,.53-.24,.86,.02,1.07,.24,.81,.85,1.83,1.32,2.88,1.32h0c1.05,0,2.08-.47,2.9-1.33,.31-.33,.64-.4,1.06-.24,2.05,.8,3.44,2.81,3.47,4.98,.02,1.36,.02,2.72,.01,4.08,0,.81,0,1.63,0,2.44,0,.24-.03,.58-.27,.82-.17,.17-.4,.25-.69,.25Zm-13.16-.75h13.16c.1,0,.15-.02,.16-.03,0,0,.05-.06,.05-.29,0-.82,0-1.63,0-2.45,0-1.36,0-2.71-.01-4.07-.02-1.85-1.26-3.61-3-4.3-.13-.05-.14-.05-.24,.06-.96,1.01-2.18,1.56-3.44,1.56h0c-1.26,0-2.47-.55-3.42-1.56-.09-.09-.12-.1-.12-.1s-.02,0-.1,.03c-1.64,.73-2.61,1.9-2.91,3.49-.11,.62-.12,1.28-.12,1.93v.4c-.01,1.33-.01,2.65,0,4.01v1.31Zm-.94,.73h-14.86v-1.61c0-.6,0-1.21,0-1.81,0-1.34-.02-2.72,.02-4.08,.07-2.32,1.2-4.01,3.38-5.02,.46-.22,.83-.15,1.18,.23,.78,.84,1.79,1.3,2.85,1.3h0c1.07,0,2.09-.47,2.88-1.31,.44-.47,.84-.37,1.18-.22,1.95,.9,3.08,2.44,3.36,4.58,.03,.21,.03,.42,.02,.64v7.3Zm-14.11-.75h13.36v-6.55c0-.18,0-.36-.02-.53-.24-1.9-1.2-3.2-2.93-3.99-.19-.09-.2-.09-.32,.05-.93,1-2.15,1.55-3.42,1.55h0c-1.27,0-2.48-.55-3.4-1.54-.14-.15-.15-.14-.31-.06-1.89,.88-2.88,2.35-2.94,4.36-.04,1.35-.03,2.72-.02,4.05,0,.61,0,1.21,0,1.82v.86Zm21.78-10.42c-.11,0-.21,0-.32-.02-1.92-.18-3.34-1.69-3.39-3.59,0-.24,0-.48,0-.72h-.03s-.01-.39-.01-.39c.01-.17,.02-.33,.03-.5,.02-.38,.04-.78,.12-1.18,.39-1.78,1.98-2.94,3.87-2.81,1.74,.11,3.2,1.55,3.32,3.27,.08,1.2,.06,2.16-.08,3.01-.28,1.67-1.81,2.92-3.5,2.92Zm-2.98-5.03h.02s0,.69,0,.69c0,.24,0,.47,0,.71,.04,1.54,1.16,2.72,2.71,2.86,1.44,.14,2.78-.89,3.01-2.28,.13-.79,.16-1.69,.08-2.84-.09-1.35-1.24-2.48-2.62-2.57-1.52-.1-2.78,.79-3.09,2.22-.07,.33-.09,.68-.11,1.05,0,.05,0,.1,0,.15Zm-27.13,5.03c-.12,0-.23,0-.35-.02-1.86-.2-3.26-1.65-3.34-3.44-.03-.7-.03-1.44,0-2.26,.07-1.95,1.67-3.48,3.63-3.49h.02c1.95,0,3.56,1.51,3.66,3.44,.02,.28,.01,.55,0,.83l.05,.41c-.02,.18-.03,.36-.04,.54-.02,.41-.05,.84-.15,1.26-.37,1.57-1.89,2.74-3.49,2.74Zm-.05-8.46h-.01c-1.56,0-2.83,1.22-2.89,2.77-.03,.8-.03,1.52,0,2.2,.07,1.44,1.17,2.56,2.68,2.73,1.36,.14,2.71-.82,3.03-2.15,.08-.36,.11-.73,.13-1.13,0-.07,0-.13,.01-.2l-.03-.33v-.38c0-.26,.01-.52,0-.78-.08-1.53-1.36-2.73-2.92-2.73Zm15.06,8.46c-1.95,0-3.59-1.58-3.66-3.53,0-.26,0-.52,0-.78l-.05-.39c.01-.17,.02-.34,.03-.52,.02-.4,.04-.81,.14-1.22,.4-1.78,2.07-2.93,3.98-2.75,1.73,.17,3.14,1.68,3.22,3.44,.03,.75,.03,1.51,0,2.27-.08,1.95-1.69,3.48-3.65,3.49h0Zm-2.94-5.01h.02s0,.7,0,.7c0,.25,0,.5,0,.75,.06,1.55,1.36,2.81,2.91,2.81h0c1.54,0,2.84-1.25,2.9-2.77,.03-.73,.03-1.47,0-2.2-.06-1.37-1.2-2.6-2.54-2.73-1.54-.15-2.85,.74-3.18,2.17-.08,.35-.1,.71-.12,1.1,0,.06,0,.11,0,.17Z"/>
        </g>
        <g>
          <path class="cls-1" d="M42.03,26.36c.01,.11,.02,.22,.02,.32,.29,0,.59,.01,.88,.04-.1-.8-.17-1.61-.48-2.35-.03-.07-.05-.15-.06-.22-1.36-2.12-1.86-2.25-3.29-3.02,.05-1.29,.14-2.52,.12-3.74-.03-2.11-1.72-3.91-3.75-4.08-2.26-.19-4.23,1.2-4.59,3.38-.24,1.44-.25,2.92,.2,4.39-1.62,.63-2.82,1.72-3.6,3.41-.78-1.68-1.98-2.77-3.44-3.34,.05-1.27,.14-2.46,.14-3.64,0-2.38-1.87-4.22-4.21-4.23-2.37,0-4.23,1.85-4.24,4.26,0,1.18,.09,2.36,.14,3.61-.02,0-.06,.03-.09,.04-2.49,1.14-3.78,3.06-3.81,5.8,.32,.05,.63,.11,.94,.19,0-.13,0-.25,0-.38,.05-2.24,1.16-3.8,3.18-4.74,.3-.14,.49-.11,.74,.16,1.75,1.87,4.49,1.87,6.25,0,.25-.26,.43-.32,.74-.17,1.95,.9,3.1,2.41,3.17,4.56,0,.17,0,.34,.01,.51,.32,0,.64-.01,.96,0,0-.12,0-.25,0-.37,.06-2.2,1.16-3.76,3.16-4.69,.29-.14,.49-.13,.75,.15,1.76,1.9,4.5,1.9,6.28,0,.27-.28,.46-.26,.75-.13,1.84,.85,2.88,2.28,3.14,4.29Zm-18.92-6.12c-.36,1.54-1.9,2.6-3.43,2.44-1.68-.18-2.94-1.46-3.01-3.08-.03-.74-.03-1.49,0-2.23,.06-1.74,1.51-3.12,3.26-3.13,1.76,0,3.21,1.34,3.31,3.08,.02,.39,0,.78,0,1.18,.02,0,.04,0,.06,0-.06,.58-.05,1.18-.18,1.75Zm11.89,2.45c-1.76,0-3.23-1.4-3.29-3.17-.01-.37,0-.74,0-1.12-.02,0-.03,0-.05,0,.05-.56,.04-1.14,.16-1.69,.37-1.62,1.87-2.63,3.58-2.46,1.53,.15,2.81,1.5,2.88,3.08,.03,.74,.03,1.49,0,2.23-.07,1.74-1.54,3.12-3.28,3.13Z"/>
          <path class="cls-1" d="M13.26,27.67l-.46-.12c-.3-.08-.6-.14-.9-.18l-.32-.05v-.33c.03-2.81,1.34-4.85,3.9-6.07-.01-.3-.03-.6-.04-.89-.04-.85-.09-1.66-.08-2.48,0-1.27,.48-2.44,1.35-3.31,.86-.86,2.01-1.33,3.25-1.33h.01c2.56,0,4.58,2.03,4.59,4.6,0,.82-.04,1.62-.08,2.47-.02,.3-.03,.61-.04,.92,1.3,.57,2.32,1.5,3.05,2.77,.74-1.29,1.78-2.21,3.15-2.81-.34-1.29-.38-2.68-.12-4.23,.39-2.35,2.49-3.91,5-3.7,2.23,.19,4.06,2.18,4.09,4.45,.01,.85-.03,1.68-.07,2.56-.02,.32-.03,.63-.04,.96l.15,.08c1.19,.63,1.78,.95,3.08,2.96l.05,.14s.02,.09,.04,.14c.31,.72,.4,1.49,.48,2.23l.08,.68-.46-.04c-.28-.03-.56-.04-.85-.04h-.37v-.36c-.01-.1-.01-.19-.03-.29-.24-1.9-1.2-3.2-2.93-3.99-.19-.09-.2-.08-.32,.05-.93,1-2.15,1.55-3.42,1.55h0c-1.27,0-2.48-.55-3.4-1.54-.14-.15-.15-.14-.31-.06-1.89,.88-2.88,2.35-2.94,4.36l-.02,.75h-.37c-.31-.01-.63,0-.94,0h-.37s-.02-.88-.02-.88c-.07-1.94-1.06-3.36-2.95-4.23-.14-.06-.16-.07-.31,.09-.92,.98-2.12,1.52-3.39,1.52h0c-1.27,0-2.48-.54-3.4-1.52-.14-.15-.15-.15-.31-.07-1.95,.91-2.92,2.36-2.96,4.41v.85Zm10.23-6.06c.13,0,.29,.03,.46,.11,2.14,.99,3.31,2.68,3.39,4.89v.15c.08,0,.15,0,.23,0h0c.07-2.33,1.2-4.01,3.38-5.03,.46-.22,.83-.15,1.18,.23,.78,.84,1.79,1.3,2.85,1.3h0c1.06,0,2.09-.47,2.88-1.31,.44-.47,.84-.37,1.18-.22,1.95,.9,3.08,2.44,3.36,4.58h0s.07,0,.1,0c-.08-.64-.17-1.24-.4-1.8-.03-.07-.05-.15-.07-.22-1.16-1.8-1.64-2.05-2.76-2.65l-.56-.3v-.23c.02-.41,.04-.81,.06-1.2,.04-.87,.08-1.69,.07-2.52-.02-1.89-1.55-3.56-3.4-3.71-2.11-.18-3.87,1.12-4.19,3.07-.26,1.57-.2,2.95,.19,4.22l.1,.33-.32,.13c-1.57,.61-2.68,1.66-3.39,3.22l-.34,.74-.34-.74c-.7-1.52-1.79-2.58-3.24-3.15l-.25-.1v-.27c.03-.41,.05-.8,.07-1.19,.04-.84,.08-1.63,.08-2.43,0-2.16-1.69-3.85-3.84-3.85h0c-1.04,0-2.01,.39-2.72,1.11-.73,.72-1.13,1.71-1.13,2.78,0,.8,.04,1.6,.08,2.44,.02,.38,.04,.76,.06,1.15v.25s-.22,.1-.22,.1l-.25-.3,.16,.34c-2.29,1.05-3.47,2.73-3.58,5.14,.06,.01,.12,.02,.19,.04,.08-2.29,1.21-3.97,3.39-4.99,.46-.21,.82-.14,1.18,.24,.78,.83,1.79,1.29,2.85,1.29h0c1.06,0,2.07-.45,2.85-1.28,.17-.18,.4-.37,.72-.37Zm-3.51,1.46c-.12,0-.25,0-.37-.02-1.85-.2-3.26-1.65-3.34-3.44-.03-.7-.03-1.44,0-2.26,.07-1.95,1.67-3.48,3.63-3.49h.02c1.95,0,3.56,1.51,3.66,3.44,.02,.28,.01,.55,0,.83v.03s.03,0,.03,0l.02,.37c-.02,.18-.03,.36-.04,.54-.02,.41-.05,.84-.15,1.26h0c-.38,1.6-1.86,2.74-3.47,2.74Zm-.06-8.46h-.02c-1.56,0-2.83,1.22-2.89,2.77-.03,.8-.03,1.52,0,2.2,.07,1.44,1.17,2.56,2.68,2.73,1.35,.14,2.71-.82,3.03-2.15h0c.08-.36,.11-.73,.13-1.13,0-.1,.01-.2,.02-.31l-.04-.23v-.38c0-.26,.01-.52,0-.78-.08-1.53-1.36-2.73-2.92-2.73Zm15.05,8.46c-1.95,0-3.59-1.58-3.66-3.53,0-.26,0-.52,0-.78l-.04-.39c.01-.17,.02-.35,.03-.52,.02-.4,.04-.81,.14-1.22,.4-1.78,2.08-2.94,3.98-2.75,1.73,.17,3.14,1.68,3.22,3.44,.03,.75,.03,1.51,0,2.27-.08,1.92-1.72,3.48-3.65,3.49h0Zm-2.94-4.89l.03,.22v.36c0,.25,0,.5,0,.75,.06,1.55,1.36,2.81,2.91,2.81h0c1.54,0,2.84-1.25,2.9-2.77,.03-.73,.03-1.48,0-2.2-.06-1.37-1.2-2.6-2.54-2.73-1.54-.15-2.85,.74-3.18,2.17-.08,.34-.1,.71-.12,1.09,0,.1-.01,.2-.02,.3Z"/>
        </g>
      </g>
      <g>
        <path class="cls-1" d="M2.84,43.51v.97c-.52-.06-1.04-.04-1.5-.2-.61-.22-.84-.77-.84-1.42,0-1.67,0-3.33,0-5,0-7.78,0-9.56-.01-17.34,0-.78,.27-1.32,.91-1.77C9.67,12.85,17.93,6.95,26.18,1.05c.94-.67,1.34-.67,2.27,0,8.27,5.91,16.54,11.82,24.82,17.72,.6,.43,.86,.94,.86,1.68-.01,9.29-.03,12.58,.01,21.87,0,1.79-.78,2.28-2.33,2.07v-.84s.06-.05,.09-.05c1.3-.02,1.28,.09,1.28-1.37,0-9.15,0-12.31,0-21.46,0-.57-.16-.92-.63-1.26C44.37,13.58,36.17,7.72,27.99,1.86c-.5-.36-.84-.36-1.34,0C18.5,7.7,10.34,13.53,2.17,19.34c-.54,.39-.73,.79-.73,1.44,.02,9.19,.01,12.39,.01,21.58q0,1.1,1.1,1.12c.08,0,.15,.01,.29,.02Z"/>
        <path class="cls-1" d="M2.84,44.97s-.04,0-.06,0c-.15-.02-.31-.03-.46-.04-.38-.03-.77-.05-1.15-.19-.76-.27-1.17-.94-1.17-1.89,0-1.16,0-2.32,0-3.47v-1.52S.01,32.86,.01,32.86c0-4.09,0-6.56-.01-12.35,0-.94,.35-1.64,1.12-2.18C7.53,13.76,13.95,9.18,20.36,4.6L25.89,.65c1.11-.79,1.75-.79,2.86,0l6.27,4.48c6.18,4.42,12.37,8.83,18.55,13.24,.73,.52,1.07,1.19,1.07,2.09v4.22c-.02,6.34-.02,9.91,.01,17.65,0,1.01-.23,1.7-.72,2.13-.49,.43-1.18,.57-2.18,.43-.25-.03-.43-.25-.43-.5v-.84c0-.18,.09-.34,.25-.43,.03-.02,.16-.12,.34-.12h.25c.19,0,.4,0,.51-.02,.02-.15,.02-.47,.02-.78v-1.9c0-7.79,0-11.12,0-19.63,0-.43-.09-.62-.42-.85-8.2-5.84-16.4-11.69-24.58-17.55-.33-.23-.43-.23-.76,0C18.79,8.11,10.63,13.94,2.46,19.75c-.4,.29-.52,.53-.52,1.04,.02,7.24,.02,10.76,.02,16.42v5.16c0,.23,0,.47,.01,.6,.12,.02,.36,.02,.59,.03,.06,0,.12,0,.19,.01h.13c.26,.03,.46,.25,.46,.51v.97c0,.14-.06,.28-.17,.37-.09,.08-.21,.13-.33,.13ZM27.32,1.09c.11,0,.22,.01,.33,.04-.23-.11-.42-.11-.65,0,.11-.03,.22-.04,.33-.04Z"/>
      </g>
    </g>
  </g>
</svg>