<svg width="58" height="61" viewBox="0 0 58 61" fill="none" xmlns="http://www.w3.org/2000/svg">
<path d="M53.922 1.37598C50.0038 1.37598 13.1304 1.43739 13.1304 1.43739C13.1304 1.43739 8.97876 1.1426 8.34005 5.69957C8.34005 5.69957 3.31633 6.33828 3.61112 12.185L4.33581 22.171C4.33581 22.171 4.6306 21.4586 6.645 20.1443V12.013C6.645 11.0426 7.02577 10.318 7.60307 9.82663C8.0821 9.33532 8.75767 9.01596 9.64204 9.01596C9.83856 9.01596 10.0105 9.04053 10.1825 9.06509V9.02824C10.1825 9.02824 9.814 5.04857 16.4836 5.04857C19.9965 5.04857 56.7471 5.04857 56.7471 5.04857C56.7471 5.04857 57.8403 1.37598 53.922 1.37598Z" fill="#FFD6D6"/>
<path d="M31.5922 32.2186C31.3588 31.9729 31.15 31.7518 30.8921 31.4693C31.2114 31.1008 31.5308 30.7569 31.8256 30.4007C34.9946 26.5561 36.0509 22.1834 34.7858 17.3685C34.3559 15.7226 35.2279 14.6049 36.8616 14.654C39.5761 14.7523 42.3029 14.6908 45.0174 14.6786C50.8273 14.654 55.4579 10.4532 56.0598 4.66796C56.0966 4.31176 56.1089 3.94327 56.0844 3.58707C56.0229 2.71498 55.3719 2.06398 54.4999 1.978C54.2665 1.95344 54.0208 1.96572 53.7752 1.96572C40.2762 1.96572 26.7773 1.96572 13.2661 1.96572C10.5393 1.96572 9.08987 3.21858 8.72138 5.93311C8.65997 6.37529 8.45116 6.54725 8.02126 6.59638C5.47869 6.89117 4.103 8.43882 4.09072 10.9691C4.09072 13.2537 4.09072 19.2232 4.07844 21.5201C4.07844 21.5693 4.06615 21.6184 4.04159 21.729C3.70995 21.729 3.36603 21.729 2.93612 21.729C2.93612 21.2868 2.93612 22.0606 2.93612 21.6184C2.93612 19.6163 2.92384 12.7133 2.93612 10.7112C2.94841 8.15632 4.56975 6.14192 7.06319 5.5769C7.45624 5.47864 7.61592 5.31896 7.7019 4.92591C8.26691 2.44475 10.2813 0.811123 12.8362 0.811123C26.6299 0.79884 40.4113 0.811123 54.2051 0.811123C56.0475 0.811123 57.2512 2.06398 57.239 3.91871C57.1898 10.2935 51.8467 15.7103 45.4719 15.8209C42.6346 15.87 39.7972 15.8331 36.9476 15.8331C35.7438 15.8331 35.6578 15.9683 35.9404 17.1351C37.2669 22.773 35.9281 27.6985 31.9853 31.9238C31.9238 31.9975 31.8501 32.0589 31.7764 32.1326C31.7519 32.1572 31.7027 32.1694 31.5922 32.2186Z" fill="#EB1D36"/>
<path d="M31.6048 32.6474C31.4697 32.6474 31.3345 32.6105 31.2608 32.5368L30.5607 31.7876C30.401 31.6156 30.3888 31.3454 30.5484 31.1734L30.8555 30.8295C31.0643 30.5961 31.2731 30.3505 31.4819 30.1171C34.5895 26.334 35.5599 22.0841 34.3439 17.4902C34.0859 16.5322 34.221 15.6724 34.7123 15.0705C35.1791 14.4809 35.9406 14.1739 36.8741 14.2107C38.9254 14.2844 41.0135 14.2721 43.0279 14.2476L45.0177 14.2353C50.5819 14.2107 55.0283 10.1696 55.6056 4.63002C55.6425 4.26153 55.6547 3.92989 55.6302 3.6351C55.581 2.99639 55.1143 2.51735 54.4633 2.45594C54.3036 2.44366 54.1317 2.44366 53.972 2.44366H53.7877H13.2786C10.7852 2.44366 9.52005 3.54912 9.18841 6.01799C9.10243 6.6567 8.73395 7.00062 8.08295 7.07432C5.78604 7.31998 4.57003 8.6711 4.55775 10.968L4.54547 21.5191C4.54547 21.5559 4.5209 21.691 4.5209 21.7279C4.47177 21.9367 4.26296 22.1823 4.05415 22.1823H3.10836C2.83814 22.2929 2.48193 22.0718 2.48193 21.7524V19.7503C2.48193 18.3746 2.48193 12.0735 2.48193 10.6978C2.5065 7.92184 4.26296 5.73548 6.9652 5.12133C7.17401 5.0722 7.19858 5.04764 7.24771 4.82654C7.86186 2.11202 10.0605 0.355557 12.8364 0.355557C26.6302 0.343274 40.4239 0.355557 54.2054 0.355557C55.2248 0.355557 56.0969 0.699479 56.7234 1.32591C57.3744 1.9769 57.706 2.87356 57.6937 3.92989C57.6446 10.5258 52.0436 16.176 45.4722 16.2865C43.5192 16.3234 41.5662 16.3111 39.6132 16.2988H36.9478C36.5425 16.2988 36.2968 16.3234 36.2231 16.3602C36.2354 16.4093 36.346 16.8761 36.3828 17.0358C37.7462 22.7842 36.3705 27.8939 32.3172 32.2421C32.2312 32.328 32.1575 32.414 32.0715 32.4754C32.0347 32.5123 31.8873 32.586 31.8504 32.5983C31.789 32.6351 31.703 32.6474 31.6048 32.6474ZM31.5188 31.4682L31.6662 31.6156C35.4985 27.5008 36.7882 22.6614 35.5107 17.2446C35.3511 16.5813 35.2651 16.1146 35.5476 15.7584C35.8301 15.4021 36.3091 15.3776 36.9601 15.3776H39.6255C41.5785 15.3899 43.5192 15.3899 45.4722 15.3653C51.5645 15.267 56.7356 10.0222 56.7848 3.92989C56.7848 3.1315 56.5514 2.45594 56.0724 1.98919C55.6179 1.52244 54.9669 1.28906 54.2054 1.28906C40.4116 1.28906 26.6179 1.27678 12.8364 1.28906C10.5027 1.28906 8.66025 2.76301 8.14437 5.04764C8.02154 5.61265 7.72675 5.90744 7.16173 6.03027C4.90167 6.53387 3.42772 8.37631 3.40315 10.7101C3.39087 12.0858 3.39087 18.3746 3.40315 19.7503V21.2611H3.63653V10.968C3.63653 8.21663 5.22103 6.44789 7.9724 6.14082C8.23035 6.11625 8.24263 6.06712 8.26719 5.88288C8.66025 2.94726 10.3062 1.51015 13.2663 1.51015H53.9474C54.1439 1.51015 54.3528 1.51015 54.537 1.52244C55.6302 1.63298 56.4531 2.46822 56.5268 3.54912C56.5514 3.90532 56.5514 4.2861 56.5023 4.716C55.8758 10.7346 51.0486 15.1196 45.0054 15.1442L43.0279 15.1565C41.0012 15.1811 38.9008 15.1933 36.8373 15.1196C36.1863 15.0951 35.7073 15.2793 35.4248 15.6355C35.1177 16.0163 35.0563 16.5813 35.2282 17.2446C36.5179 22.1455 35.4985 26.6656 32.1821 30.6944C31.9733 30.9523 31.7522 31.1857 31.5311 31.4314L31.5188 31.4682Z" fill="#EB1D36"/>
<path d="M51.7112 48.4803V50.8387C51.7112 50.8632 51.7112 50.8755 51.7112 50.8878C51.7358 51.5756 51.7481 52.2635 51.6621 52.9513C51.4164 55.1377 49.7214 56.6239 47.5227 56.5625C45.582 56.5134 43.629 56.3537 41.7006 56.1695C40.3127 56.0343 38.937 55.7887 37.5613 55.5922C36.3698 55.4202 35.424 56.0221 35.3749 57.103C35.3381 57.8768 35.4732 58.6629 35.5346 59.4736C35.9522 59.449 36.2593 59.4244 36.6401 59.3999C36.6032 58.8471 36.5786 58.3558 36.5295 57.8522C36.419 56.759 36.6278 56.5625 37.721 56.759C41.0005 57.3363 44.2923 57.6803 47.621 57.7048C50.2004 57.7294 52.4482 55.8255 52.7553 53.2584C52.8781 52.2635 52.829 51.244 52.8535 50.2368C52.8658 48.5663 52.8412 48.4681 51.7112 48.4803Z" fill="#EB1D36"/>
<path d="M35.5221 59.9282C35.2887 59.9282 35.0799 59.7439 35.0676 59.4983C35.0431 59.2526 35.0185 58.9947 34.9939 58.7613C34.9325 58.2086 34.8711 57.6435 34.8957 57.0662C34.9325 56.4767 35.1782 55.9485 35.6081 55.5923C36.1117 55.1747 36.8241 55.0027 37.6102 55.1133C38.0278 55.1747 38.4332 55.2361 38.8508 55.2975C39.7966 55.4449 40.7669 55.5923 41.725 55.6906C44.071 55.9117 45.8643 56.0345 47.5225 56.0836C49.451 56.1327 50.974 54.8185 51.1951 52.8901C51.2688 52.2391 51.2566 51.5758 51.232 50.8879V48.4682C51.232 48.2103 51.4408 48.0137 51.6865 48.0015C52.2515 47.9892 52.6691 48.0137 52.9639 48.3085C53.3078 48.6647 53.2955 49.2175 53.2832 50.2247C53.2832 50.4949 53.2832 50.7528 53.2832 51.023C53.2832 51.7723 53.2832 52.5338 53.185 53.2954C52.8533 56.0713 50.4704 58.1471 47.6331 58.1471C47.6208 58.1471 47.5962 58.1471 47.584 58.1471C44.3658 58.1226 41.0126 57.7909 37.6102 57.1891C37.0943 57.1031 36.9715 57.1277 36.9469 57.1522C36.9592 57.1522 36.9101 57.2751 36.9592 57.7909C36.9961 58.1349 37.0083 58.4665 37.0329 58.8227L37.0698 59.3386C37.082 59.4614 37.0329 59.5843 36.9592 59.6702C36.8855 59.7562 36.7627 59.8176 36.6399 59.8299L35.5344 59.9036C35.5467 59.9282 35.5344 59.9282 35.5221 59.9282ZM37.1435 56.0222C36.7627 56.0222 36.431 56.1205 36.1977 56.317C35.9643 56.5135 35.8292 56.7837 35.8169 57.1154C35.7923 57.6067 35.8538 58.1226 35.9029 58.663C35.9152 58.7613 35.9274 58.8718 35.9397 58.9824L36.1363 58.9701V58.8964C36.1117 58.5525 36.0994 58.2208 36.0626 57.8892C36.0134 57.361 35.9889 56.8083 36.3574 56.4767C36.689 56.1696 37.1557 56.1819 37.7945 56.2924C41.1477 56.882 44.4518 57.2014 47.6208 57.2382C47.6331 57.2382 47.6454 57.2382 47.6699 57.2382C50.0283 57.2382 52.0181 55.5063 52.3006 53.1971C52.3866 52.497 52.3866 51.7477 52.3866 51.0353C52.3866 50.7651 52.3866 50.4949 52.3866 50.2247C52.3989 49.7211 52.4111 49.0946 52.3252 48.9718C52.3006 48.9595 52.2392 48.9472 52.1778 48.9472V50.8388C52.1901 51.6003 52.2023 52.3005 52.1286 53.0006C51.8584 55.4326 49.9423 57.0662 47.5225 57.0171C45.8398 56.968 44.0342 56.8452 41.6636 56.6241C40.6809 56.5258 39.686 56.3784 38.728 56.231C38.3226 56.1696 37.905 56.1082 37.4997 56.0468C37.3646 56.0222 37.254 56.0222 37.1435 56.0222Z" fill="#EB1D36"/>
<path d="M53.2714 32.4272C53.0135 31.8868 52.8907 31.248 52.8538 30.6462C52.7187 28.4353 52.8538 26.1998 52.5222 24.0257C52.2519 22.2201 51.7852 20.4882 51.1465 18.8423C50.7657 18.9405 50.3972 19.0142 50.041 19.0511C50.4464 20.0583 50.778 21.1023 51.0359 22.1832C51.7238 25.0206 51.6992 27.9071 51.7361 30.7936C51.7483 31.4814 51.9203 32.2307 52.2151 32.8571C53.3328 35.2277 54.5243 37.5615 55.7157 39.8952C56.0228 40.5094 55.9 40.8779 55.2858 41.1481C54.5857 41.4674 53.8979 41.8114 53.2223 42.1799C52.2397 42.7203 51.7115 43.5678 51.6992 44.6979C51.6992 45.1646 51.6992 45.6436 51.6992 46.135H51.6869V47.3264C51.8098 47.3264 51.9203 47.3264 52.0431 47.3141C52.5959 47.2896 52.817 47.0193 52.817 46.5034C52.817 45.9507 52.8292 45.398 52.817 44.8452C52.8047 44.01 53.1732 43.4327 53.9347 43.0765C54.5366 42.794 55.1384 42.4746 55.7403 42.1676C57.0791 41.492 57.3494 40.6813 56.6861 39.3425C55.5561 37.0456 54.3769 34.7487 53.2714 32.4272Z" fill="#EB1D36"/>
<path d="M51.6996 47.7928C51.5768 47.7928 51.4662 47.7436 51.3803 47.6577C51.2943 47.5717 51.2451 47.4489 51.2451 47.326V46.1346C51.2451 46.0977 51.2451 46.0732 51.2574 46.0363V45.6924C51.2574 45.3608 51.2574 45.0291 51.2574 44.6975C51.2697 43.4078 51.8716 42.4006 53.0139 41.7741C53.6894 41.3934 54.4019 41.0494 55.102 40.7178C55.3599 40.595 55.4091 40.509 55.4213 40.4844C55.4336 40.4599 55.4459 40.3493 55.3108 40.0914C54.2053 37.9296 52.9525 35.473 51.7979 33.041C51.4662 32.3408 51.282 31.5425 51.2697 30.7809L51.2574 30.0808C51.2329 27.5014 51.2083 24.836 50.5819 22.2688C50.3362 21.2494 50.0046 20.2176 49.6115 19.1981C49.5624 19.063 49.5747 18.9156 49.6484 18.7928C49.7221 18.6699 49.8449 18.584 49.9923 18.5717C50.3485 18.5348 50.6924 18.4611 51.0363 18.3752C51.2697 18.3137 51.5031 18.4366 51.5891 18.6577C52.2523 20.365 52.7191 22.146 52.9893 23.9393C53.1981 25.3519 53.2227 26.789 53.2473 28.1892C53.2595 28.9999 53.2718 29.7983 53.321 30.5967C53.3578 31.2108 53.4929 31.7758 53.7017 32.2057C54.4633 33.8148 55.2617 35.3993 56.0601 36.9961L57.1164 39.1087C57.8902 40.6687 57.5217 41.7619 55.9618 42.548L55.5565 42.7568C55.0897 42.9901 54.6229 43.2358 54.1439 43.4569C53.5421 43.7394 53.2841 44.157 53.2964 44.808C53.3087 45.1642 53.2964 45.5204 53.2964 45.8766V46.4785C53.2964 47.2646 52.8665 47.7191 52.0804 47.7559C51.9576 47.7805 51.8347 47.7928 51.6996 47.7928C51.7119 47.7928 51.7119 47.7928 51.6996 47.7928ZM52.1664 46.2451V46.847C52.3506 46.8224 52.3752 46.7487 52.3752 46.5031V45.8889C52.3752 45.545 52.3752 45.2011 52.3752 44.8449C52.3506 43.8254 52.8174 43.0884 53.7509 42.6462C54.2176 42.4251 54.6721 42.1918 55.1265 41.9584L55.5442 41.7619C56.6496 41.1968 56.8339 40.6564 56.2811 39.5509L55.2248 37.4383C54.4264 35.8415 53.6157 34.2447 52.8542 32.6356C52.5226 31.9478 52.4243 31.1862 52.3875 30.6826C52.3383 29.872 52.326 29.049 52.3138 28.2261C52.2892 26.8627 52.2646 25.4501 52.0681 24.099C51.8224 22.5022 51.4171 20.9177 50.8644 19.3824C50.803 19.3946 50.7415 19.4069 50.6801 19.4192C50.9995 20.2913 51.282 21.1879 51.4908 22.0723C52.1418 24.7377 52.1664 27.4522 52.1909 30.0931L52.2032 30.7809C52.2155 31.3951 52.3752 32.0829 52.6454 32.6602C53.7877 35.0799 55.0406 37.5242 56.146 39.686C56.3671 40.1159 56.4163 40.4844 56.3057 40.8038C56.1952 41.1231 55.9372 41.3688 55.5073 41.5653C54.8195 41.8847 54.1316 42.2286 53.4806 42.5848C52.6331 43.0516 52.2155 43.7517 52.2032 44.7098C52.2032 45.0414 52.2032 45.3608 52.2032 45.7047V46.1469C52.1786 46.1714 52.1786 46.2083 52.1664 46.2451Z" fill="#EB1D36"/>
<path d="M52.0431 45.1884L51.6992 47.3257L51.7115 50.4332L52.8047 51.2316L52.8415 45.2867C52.8415 45.2867 52.3748 43.3091 52.0431 45.1884Z" fill="#EB1D36"/>
<path d="M52.8051 51.699C52.7068 51.699 52.6085 51.6744 52.5348 51.613L51.4416 50.8146C51.3188 50.7287 51.2574 50.5936 51.2574 50.4462L51.2451 47.3263L51.589 45.1154C51.589 45.1154 51.589 45.1154 51.589 45.1031C51.6627 44.6977 51.7978 43.9239 52.3629 43.9116C52.6085 43.8748 53.0139 44.0222 53.2841 45.1768L53.2595 51.2323C53.2595 51.4042 53.1613 51.5639 53.0016 51.6376C52.9524 51.6867 52.8787 51.699 52.8051 51.699ZM52.1786 50.2128L52.3506 50.3356L52.3751 46.0611L52.1663 47.4L52.1786 50.2128Z" fill="#EB1D36"/>
<path d="M24.0625 58.9583C23.5958 58.8846 23.1413 58.8354 22.6746 58.7495C18.9897 58.0739 16.0786 56.17 13.9782 53.0747C10.7724 48.3335 10.9935 42.057 14.5801 37.586C17.5403 33.9011 21.4463 32.2183 26.1506 32.5745C32.0342 33.0167 36.9473 37.5982 37.9914 43.4204C39.1951 50.176 35.0066 56.6614 28.5458 58.4547C27.7843 58.6635 26.9736 58.7495 26.1875 58.8969C26.0892 58.9091 26.0032 58.9337 25.905 58.9583C25.2908 58.9583 24.6767 58.9583 24.0625 58.9583ZM24.0011 39.2442C24.0011 39.0354 23.9888 38.8265 24.0011 38.6177C24.0257 38.3721 23.9274 38.2247 23.7186 38.0773C22.6131 37.2912 21.52 36.4928 20.4268 35.6821C20.2303 35.5347 20.0829 35.5347 19.8741 35.6453C18.7809 36.2103 17.7982 36.9227 16.9261 37.7825C16.7542 37.9545 16.7051 38.0896 16.791 38.3352C17.2209 39.6249 17.6508 40.9269 18.0562 42.2289C18.1299 42.4623 18.2527 42.5728 18.4738 42.6342C18.8791 42.7448 19.2722 42.8799 19.6652 43.0273C19.8863 43.1133 20.046 43.0764 20.2425 42.9413C21.2252 42.2166 22.1955 41.4674 23.2027 40.8041C23.8046 40.3988 24.2099 39.9934 24.0011 39.2442ZM25.9173 39.2196C25.9173 39.4407 25.8927 39.6741 25.9295 39.8829C25.9541 40.0426 26.0278 40.2391 26.1506 40.3373C27.3421 41.2217 28.5335 42.0938 29.7372 42.9413C29.8478 43.0273 30.0566 43.0519 30.204 43.015C30.6462 42.9045 31.0761 42.7571 31.506 42.5974C31.6534 42.536 31.8008 42.3763 31.8499 42.2412C32.2921 40.9392 32.7097 39.6249 33.1519 38.3229C33.2256 38.1018 33.1765 37.9667 33.0168 37.8071C32.1324 36.9227 31.1252 36.198 30.0075 35.6207C29.8355 35.5347 29.7127 35.5347 29.5407 35.6575C28.5949 36.3577 27.6491 37.0824 26.6665 37.7334C26.1015 38.1018 25.7084 38.4949 25.9173 39.2196ZM17.4543 51.2077C17.7245 51.2077 17.9948 51.2077 18.265 51.2077C18.7809 51.1955 19.3827 51.3551 19.7881 51.134C20.2057 50.9129 20.4391 50.3234 20.7584 49.9057C20.7707 49.8935 20.783 49.8935 20.783 49.8812C20.8076 49.7338 20.8935 49.5741 20.8567 49.439C20.4022 48.0142 19.9477 46.5771 19.4687 45.1645C19.4319 45.054 19.2968 44.9312 19.1862 44.882C18.7563 44.7223 18.3264 44.575 17.8842 44.4644C17.7245 44.4276 17.4912 44.4521 17.3561 44.5381C16.226 45.3365 15.1206 46.1595 14.0028 46.9578C13.8063 47.093 13.7694 47.2403 13.8063 47.4614C14.0151 48.6897 14.3713 49.8812 14.9854 50.9744C15.0469 51.0849 15.2434 51.1955 15.3662 51.2077C16.0418 51.22 16.7419 51.2077 17.4543 51.2077ZM32.4641 51.2077C33.1519 51.2077 33.8397 51.1955 34.5399 51.2077C34.7855 51.2077 34.9084 51.1463 35.0189 50.9252C35.5716 49.8198 35.9524 48.6529 36.1489 47.4246C36.1858 47.1912 36.1244 47.0684 35.9401 46.9456C34.9575 46.2454 33.9626 45.5576 33.0168 44.8083C32.5623 44.4521 32.157 44.2924 31.6288 44.5872C31.42 44.6978 31.1621 44.7592 30.9287 44.8083C30.6462 44.8697 30.4988 45.0171 30.4251 45.2996C30.1303 46.2577 29.8109 47.1912 29.5039 48.1493C29.3442 48.6529 29.0126 49.1933 29.0863 49.6478C29.1722 50.1268 29.6513 50.5445 29.9829 50.9744C30.0689 51.0849 30.2531 51.1832 30.4005 51.1832C31.0761 51.22 31.7762 51.2077 32.4641 51.2077ZM24.9715 41.8727C23.7923 42.7325 22.6254 43.5678 21.4708 44.4276C21.3971 44.489 21.348 44.6855 21.3849 44.796C21.7902 46.0735 22.2078 47.3509 22.6131 48.6283C22.6746 48.8248 22.7851 48.8863 22.9816 48.8863C24.3082 48.874 25.647 48.8863 26.9736 48.874C27.0841 48.874 27.2684 48.7512 27.3052 48.6529C27.7474 47.3632 28.165 46.0612 28.5704 44.7592C28.5949 44.6732 28.5581 44.5135 28.4967 44.4644C27.3298 43.58 26.1506 42.7325 24.9715 41.8727ZM24.9592 50.7901C24.2468 50.7901 23.5344 50.8024 22.8097 50.7901C22.5517 50.7901 22.4043 50.8638 22.2692 51.0726C22.0358 51.4165 21.7656 51.7359 21.5445 52.0921C21.4586 52.2395 21.4094 52.4606 21.4585 52.6203C21.8639 53.9223 22.2938 55.212 22.7114 56.514C22.7851 56.7719 22.9202 56.8579 23.1782 56.8947C24.3942 57.079 25.6102 57.079 26.8262 56.8825C27.035 56.8456 27.1455 56.7719 27.207 56.5631C27.4895 55.6419 27.7965 54.7329 28.0913 53.824C28.251 53.3204 28.5826 52.7922 28.509 52.3255C28.4353 51.8587 27.9562 51.4411 27.6246 51.0358C27.5263 50.9129 27.3052 50.8024 27.1455 50.8024C26.4086 50.7778 25.6839 50.7901 24.9592 50.7901ZM15.2925 39.8952C14.3713 41.4305 13.8677 43.015 13.6957 44.7838C14.5555 44.1573 15.3539 43.58 16.1523 42.9905C16.2137 42.9536 16.226 42.7939 16.2015 42.7079C15.9189 41.799 15.6119 40.8901 15.2925 39.8952ZM29.3565 56.1578C30.9901 55.4454 32.3289 54.475 33.5081 53.1239C32.4395 53.1239 31.4569 53.1239 30.4742 53.1362C30.4128 53.1362 30.3145 53.2099 30.29 53.2713C29.9829 54.2048 29.6881 55.1383 29.3565 56.1578ZM16.4225 53.1239C17.614 54.4627 18.9283 55.4331 20.5865 56.1455C20.2548 55.1137 19.9477 54.1925 19.6407 53.2713C19.6161 53.2099 19.5056 53.1239 19.4319 53.1239C18.4615 53.1239 17.4912 53.1239 16.4225 53.1239ZM34.6381 39.8952C34.3802 40.6935 34.1468 41.406 33.9134 42.1184C33.6555 42.9168 33.6555 42.9168 34.3433 43.4204C34.6259 43.6292 34.8961 43.8257 35.1786 44.0222C35.4979 44.2556 35.8296 44.489 36.2226 44.7715C36.063 43.0027 35.5471 41.4305 34.6381 39.8952ZM27.5263 34.7363C25.819 34.2696 23.0922 34.4047 22.4658 34.7855C23.301 35.3873 24.1239 35.9892 24.9592 36.6033C25.819 35.9892 26.6419 35.3873 27.5263 34.7363Z" fill="#7A0003"/>
<path d="M0.307129 33.3599C0.429958 32.672 0.503656 31.9719 0.663334 31.2963C1.85478 26.1621 6.03098 22.207 11.2267 21.298C17.2821 20.2294 23.2394 23.423 25.6591 29.024C25.9416 29.6873 25.7328 30.3014 25.1309 30.4734C24.6273 30.6208 24.1974 30.3874 23.9272 29.8838C23.4973 29.0854 23.0306 28.2993 22.5638 27.5132C22.5024 27.4026 22.4041 27.3044 22.2444 27.0956C21.79 27.808 21.3232 28.459 20.9425 29.1591C20.6477 29.6873 20.4511 30.2523 20.2178 30.8173C19.9844 31.3946 19.4931 31.6771 18.9649 31.4928C18.449 31.3086 18.2034 30.7804 18.3999 30.1909C18.9403 28.5572 19.7879 27.0956 20.9302 25.769C19.0754 24.1845 16.9628 23.2879 14.4816 23.0545C14.4816 23.2019 14.4816 23.3247 14.4816 23.4475C14.4816 27.0341 14.4816 30.6208 14.4939 34.2074C14.4939 34.8829 14.0763 35.3006 13.3762 35.3006C12.1233 35.2883 10.8582 35.2883 9.60531 35.2883C9.49476 35.2883 9.38422 35.3006 9.26139 35.3128C9.01573 38.1625 7.97168 40.6682 6.08011 42.8914C6.63284 43.2722 7.14872 43.6652 7.70145 44.0092C8.13136 44.2794 8.58582 44.4882 9.05258 44.697C9.66672 44.9918 9.91238 45.5077 9.66672 46.0358C9.43335 46.5517 8.88062 46.736 8.27875 46.4535C3.8569 44.4022 1.22835 40.9753 0.442241 36.1481C0.393109 35.8656 0.356261 35.5708 0.307129 35.276C0.307129 34.6496 0.307129 34.0109 0.307129 33.3599ZM12.5532 33.3353C12.5532 29.8961 12.5532 26.4937 12.5532 23.1036C10.8705 22.9562 7.19785 24.5161 6.14152 25.8181C7.98396 27.9799 9.01573 30.4856 9.27367 33.3353C10.3791 33.3353 11.46 33.3353 12.5532 33.3353ZM4.77812 27.1693C3.31645 28.9994 2.49349 31.0138 2.28468 33.323C3.99201 33.323 5.66249 33.323 7.35753 33.323C7.11187 31.0015 6.27663 28.9871 4.77812 27.1693ZM2.2724 35.2883C2.49349 37.622 3.31645 39.6487 4.77812 41.4543C6.27663 39.6364 7.12416 37.6097 7.34525 35.2883C5.63792 35.2883 3.97973 35.2883 2.2724 35.2883Z" fill="#7A0003"/>
<path d="M18.0678 42.2284C18.0924 42.3021 18.1292 42.3512 18.1661 42.4003C19.3207 40.4228 20.856 38.6909 22.6616 37.3029C21.9247 36.7625 21.1754 36.2343 20.4384 35.6816C20.2419 35.5342 20.0945 35.5342 19.8857 35.6447C18.7925 36.2097 17.8099 36.9221 16.9378 37.7819C16.7658 37.9539 16.7167 38.089 16.8027 38.3347C17.2326 39.6244 17.6502 40.9264 18.0678 42.2284Z" fill="#FFD6D6"/>
<path d="M15.8079 50.9125C15.8079 48.763 16.2501 46.6871 17.0116 44.771C16.0044 45.4957 14.9972 46.2327 13.99 46.9451C13.7935 47.0802 13.7566 47.2276 13.7935 47.4487C14.0023 48.677 14.3585 49.8684 14.9726 50.9616C15.034 51.0721 15.2306 51.1827 15.3534 51.195C15.5131 51.195 15.6728 51.195 15.8324 51.195C15.8202 51.0967 15.8079 51.0107 15.8079 50.9125Z" fill="#FFD6D6"/>
<path d="M15.2921 39.895C15.6115 40.8777 15.9185 41.7866 16.201 42.7078C16.2256 42.7938 16.2133 42.9535 16.1519 42.9903C15.3535 43.5799 14.5551 44.1695 13.6953 44.7836C13.8673 43.0149 14.3709 41.4304 15.2921 39.895Z" fill="#FFD6D6"/>
<path d="M27.3416 34.6987C25.622 34.2933 23.0794 34.4285 22.4775 34.7847C23.104 35.2391 23.7181 35.6813 24.3445 36.1358C25.2903 35.5708 26.2852 35.0795 27.3416 34.6987Z" fill="#FFD6D6"/>
</svg>
