<svg width="52" height="55" viewBox="0 0 52 55" fill="none" xmlns="http://www.w3.org/2000/svg">
<g clip-path="url(#clip0_244_3060)">
<path d="M23.5053 2.79365C23.5053 2.79365 6.84091 8.51476 6.25328 26.5096C6.25328 26.5096 1.652 18.5489 9.16927 9.78981C16.6865 1.03075 23.5053 2.79365 23.5053 2.79365Z" fill="#B3FFAE"/>
<path d="M38.9724 35.7666L31.5882 43.7828C31.5882 43.7828 31.0005 44.5478 31.0005 46.3773C31.0005 48.2178 30.9673 53.9943 30.9673 53.9943L28.0513 54.0276L28.0845 46.2997L28.8163 43.0067L35.4022 36.3875C35.4022 36.3875 36.9988 34.037 38.9724 35.7666Z" fill="#B3FFAE"/>
<path d="M3.39268 31.0996L3.31507 38.9717C3.31507 38.9717 2.90483 40.6902 5.27754 41.8433C7.65025 42.9853 14.9679 48.1631 14.9679 48.1631C14.9679 48.1631 15.7662 48.9836 15.7662 50.1256C15.7662 51.2676 15.6886 53.8843 15.6886 53.8843L13.6929 53.9508L13.4711 50.1921C13.4711 50.1921 12.3291 48.5512 10.278 47.4092C8.22679 46.2672 1.50782 41.1781 1.50782 41.1781L1.26389 35.1133C1.26389 35.1133 0.687349 31.2548 3.39268 31.0996Z" fill="#B3FFAE"/>
<path d="M39.2159 53.8293C38.8389 53.8293 38.5506 53.8293 38.2402 53.8293C38.2402 52.776 38.1626 51.7338 38.2623 50.7138C38.3732 49.5939 39.0828 48.7956 40.0142 48.1747C43.2406 46.046 46.4338 43.8728 49.6713 41.7551C50.4031 41.2784 50.7135 40.6796 50.7024 39.8148C50.6692 37.6417 50.6913 35.4686 50.6913 33.2954C50.6913 32.1645 50.0815 31.4327 49.1391 31.4327C48.2188 31.4327 47.5647 32.1756 47.5647 33.2843C47.5536 34.9807 47.5536 36.6771 47.5647 38.3735C47.5758 39.1496 47.2542 39.6929 46.589 40.0809C44.2052 41.4669 41.8436 42.886 39.4598 44.272C38.3178 44.9372 37.0427 44.7266 36.2999 43.7619C35.5792 42.8195 35.679 41.5777 36.5881 40.6242C37.2756 39.9035 37.9962 39.2161 38.7058 38.4954C39.482 37.7082 39.5596 36.6993 38.9054 36.0008C38.2402 35.2801 37.1536 35.2912 36.3442 36.0784C34.3707 38.0297 32.4082 40.0033 30.4568 41.988C29.2815 43.1743 28.7493 44.6046 28.7715 46.2899C28.8048 48.7845 28.7826 51.2792 28.7826 53.8182C28.4278 53.8182 28.1174 53.8182 27.7736 53.8182C27.7626 53.6187 27.7404 53.4302 27.7404 53.2417C27.7404 50.869 27.7515 48.5074 27.7404 46.1347C27.7293 44.2831 28.3391 42.6754 29.6252 41.356C31.6321 39.3048 33.65 37.2758 35.7012 35.269C36.8432 34.1492 38.5728 34.1602 39.6261 35.2357C40.6905 36.3334 40.6572 37.9854 39.5263 39.1496C38.85 39.8481 38.1404 40.5244 37.453 41.2229C36.8099 41.8882 36.699 42.5867 37.1536 43.141C37.6082 43.6954 38.2845 43.7509 39.0828 43.2741C41.3668 41.9325 43.6397 40.5799 45.9348 39.2494C46.3672 39.0054 46.5336 38.7061 46.5225 38.2071C46.5003 36.4664 46.4892 34.7257 46.5225 32.9961C46.5446 31.6212 47.598 30.5014 48.8841 30.3905C50.2035 30.2796 51.3677 31.1334 51.6559 32.4417C51.7114 32.6967 51.7225 32.9628 51.7225 33.2178C51.7225 35.4796 51.7114 37.7415 51.7336 39.9922C51.7446 41.0899 51.3012 41.8993 50.392 42.5091C47.1877 44.6268 44.0056 46.7888 40.7903 48.8843C39.6815 49.605 39.1161 50.5364 39.2048 51.8668C39.2491 52.4988 39.2159 53.1308 39.2159 53.8293Z" fill="#5FB257"/>
<path d="M39.2154 54.2514H38.2397C38.0069 54.2514 37.8184 54.0629 37.8184 53.8301C37.8184 53.5086 37.8073 53.1981 37.8073 52.8766C37.7852 52.1559 37.7741 51.4019 37.8517 50.6702C37.9626 49.5503 38.5945 48.619 39.792 47.8318C41.1003 46.967 42.3975 46.0911 43.7058 45.2263C45.6129 43.9512 47.531 42.6761 49.4491 41.4122C50.0589 41.013 50.3029 40.5474 50.2918 39.8156C50.2696 38.3631 50.2696 36.9107 50.2807 35.4582C50.2807 34.7376 50.2807 34.0058 50.2807 33.2851C50.2807 32.3759 49.8594 31.8437 49.1498 31.8326C48.8504 31.8437 48.5954 31.9324 48.3958 32.132C48.1408 32.387 47.9967 32.7973 47.9856 33.274V33.6177C47.9745 35.1921 47.9745 36.7776 47.9856 38.3521C47.9967 39.2723 47.6086 39.9486 46.8103 40.4254C45.6351 41.1128 44.4598 41.8113 43.2845 42.4987C42.0871 43.2083 40.8786 43.9179 39.6811 44.6164C38.3728 45.3815 36.8538 45.1265 35.989 44.0066C35.1353 42.8979 35.2683 41.4233 36.3105 40.3256C36.7208 39.8932 37.1421 39.4719 37.5745 39.0506C37.8628 38.7623 38.151 38.4851 38.4282 38.1968C39.0491 37.5648 39.1157 36.8109 38.6167 36.2787C38.3839 36.0237 38.0845 35.8906 37.7519 35.8906C37.3417 35.8574 36.9758 36.057 36.6542 36.3785C34.6807 38.3299 32.7182 40.3034 30.7668 42.277C29.6913 43.3636 29.1813 44.683 29.2035 46.2796C29.2257 48.0203 29.2257 49.7721 29.2146 51.5239V53.8079C29.2146 54.0408 29.0261 54.2292 28.7933 54.2292H27.7843C27.5626 54.2292 27.3852 54.0518 27.3741 53.8412L27.363 53.6638C27.3519 53.5196 27.3408 53.3755 27.3408 53.2425V50.9917C27.3408 49.373 27.3408 47.7542 27.3297 46.1465C27.3186 44.1619 27.995 42.4544 29.3365 41.0796C31.5319 38.8399 33.5165 36.8442 35.4125 34.9815C36.0555 34.3495 36.8982 33.9836 37.7408 34.028C38.5724 34.039 39.3485 34.3717 39.925 34.9704C41.1668 36.2454 41.1225 38.1303 39.8252 39.4608C39.4594 39.8378 39.0935 40.2037 38.7276 40.5695C38.4061 40.8911 38.0845 41.2126 37.763 41.5452C37.4193 41.9 37.0977 42.4211 37.4858 42.909C37.5967 43.0531 37.9626 43.4966 38.8828 42.9533L41.067 41.6672C42.6193 40.7469 44.1715 39.8378 45.7348 38.9286C46.0342 38.7512 46.1229 38.596 46.1229 38.2523C46.0896 36.3009 46.0896 34.5823 46.1229 33.019C46.1562 31.4668 47.3536 30.1363 48.8615 30.0143C50.3916 29.8813 51.7442 30.8791 52.0768 32.387C52.1434 32.6753 52.1545 32.9747 52.1545 33.2518V35.8241C52.1545 37.2211 52.1545 38.6181 52.1655 40.0263C52.1766 41.268 51.6777 42.1994 50.6355 42.8868C49.4491 43.674 48.2628 44.4723 47.0653 45.2595C45.0585 46.6011 43.0517 47.9427 41.0227 49.2621C39.9805 49.9384 39.5481 50.7367 39.6257 51.8676C39.6589 52.3 39.6478 52.7435 39.6368 53.1981C39.6368 53.4088 39.6257 53.6194 39.6257 53.8412C39.6257 54.0629 39.4372 54.2514 39.2154 54.2514ZM38.65 53.4199H38.8052C38.8052 53.3422 38.8052 53.2535 38.8052 53.1759C38.8163 52.7435 38.8163 52.3222 38.7941 51.912C38.7054 50.4928 39.282 49.3951 40.5681 48.5525C42.586 47.2331 44.5928 45.8915 46.5997 44.5499C47.786 43.7516 48.9724 42.9644 50.1698 42.1661C50.9681 41.6339 51.334 40.9465 51.3229 40.0041C51.3118 38.6071 51.3118 37.199 51.3118 35.8019V33.2297C51.3118 32.9636 51.3007 32.7418 51.2564 32.5422C51.0125 31.4446 50.0589 30.7239 48.9169 30.8126C47.8304 30.9013 46.9545 31.877 46.9323 33.0079C46.899 34.5602 46.899 36.2676 46.9323 38.2079C46.9434 38.851 46.6994 39.2945 46.134 39.616C44.5707 40.5141 43.0295 41.4344 41.4773 42.3546L39.293 43.6408C38.3063 44.2173 37.4193 44.1286 36.8316 43.4079C36.244 42.6761 36.366 41.7559 37.1532 40.9354C37.4747 40.6028 37.8073 40.2813 38.1289 39.9597C38.4948 39.5938 38.8606 39.228 39.2265 38.8621C40.1911 37.8642 40.2355 36.4672 39.3263 35.5248C38.905 35.0924 38.3395 34.8484 37.7297 34.8373C37.0756 34.8484 36.4768 35.0813 35.989 35.558C34.093 37.4207 32.1084 39.4054 29.9242 41.645C28.7378 42.8535 28.1391 44.3614 28.1502 46.1243C28.1613 47.7431 28.1613 49.3619 28.1613 50.9806V53.2314C28.1613 53.2868 28.1613 53.3422 28.1613 53.3977H28.3719V51.5239C28.3719 49.7721 28.383 48.0314 28.3609 46.2906C28.3387 44.4834 28.9374 42.9312 30.1681 41.6894C32.1195 39.7047 34.082 37.7312 36.0666 35.7798C36.5545 35.303 37.1975 35.0369 37.763 35.0591C38.3174 35.0702 38.8274 35.303 39.2154 35.7132C40.0248 36.5781 39.9361 37.842 39.0159 38.7845C38.7276 39.0727 38.4393 39.361 38.151 39.6493C37.7297 40.0595 37.3195 40.4808 36.9093 40.9022C36.1442 41.7005 36.0444 42.7205 36.6432 43.4966C37.253 44.2949 38.3063 44.4501 39.2598 43.8958C40.4572 43.1973 41.6658 42.4877 42.8632 41.7781C44.0385 41.0906 45.2137 40.3921 46.389 39.7047C46.9323 39.3832 47.1651 38.984 47.154 38.3631C47.1319 36.7776 47.1429 35.1921 47.154 33.6066V33.2629C47.154 32.5644 47.3869 31.9435 47.8082 31.5333C48.163 31.1785 48.6176 31.0011 49.1387 31.0011H49.1498C50.325 31.0122 51.1122 31.9213 51.1122 33.2851C51.1122 34.0058 51.1122 34.7376 51.1122 35.4582C51.1122 36.8996 51.1012 38.3521 51.1233 39.7934C51.1455 40.8024 50.7574 41.5341 49.9037 42.0885C47.9856 43.3525 46.0786 44.6275 44.1715 45.9026C42.8632 46.7785 41.566 47.6433 40.2577 48.5081C39.2709 49.1623 38.7719 49.8719 38.6832 50.7367C38.6167 51.4241 38.6278 52.1115 38.65 52.8433C38.6389 53.0429 38.6389 53.2314 38.65 53.4199Z" fill="#5FB257"/>
<path d="M14.1805 53.841C13.8035 53.841 13.5152 53.841 13.1382 53.841C13.1382 53.1314 13.1161 52.4218 13.1382 51.7122C13.1826 50.5148 12.6947 49.65 11.6858 48.9958C8.49261 46.9003 5.33269 44.7493 2.13952 42.6538C1.07512 41.9553 0.576189 41.0572 0.598364 39.7822C0.642713 37.609 0.609451 35.4359 0.609451 33.2628C0.609451 31.5664 1.68493 30.3911 3.21499 30.3911C4.72288 30.3911 5.80945 31.5996 5.82054 33.296C5.83163 34.948 5.83163 36.6001 5.80945 38.2521C5.79836 38.7289 5.96468 39.006 6.37491 39.25C8.70327 40.6026 11.0205 41.9775 13.3378 43.3412C14.0918 43.7847 14.7681 43.696 15.2005 43.1306C15.6107 42.5984 15.5331 41.9109 14.9455 41.3122C14.247 40.5915 13.5263 39.9041 12.8278 39.1834C11.6636 37.9971 11.6303 36.3229 12.728 35.2252C13.7924 34.1608 15.4999 34.1608 16.653 35.2918C18.6819 37.2875 20.6888 39.3054 22.6845 41.3344C23.9928 42.6649 24.6137 44.2836 24.5915 46.1685C24.5694 48.7075 24.5915 51.2466 24.5915 53.8188C24.2367 53.8188 23.9263 53.8188 23.5493 53.8188C23.5493 53.5638 23.5493 53.331 23.5493 53.0981C23.5493 50.792 23.5272 48.4969 23.5604 46.1907C23.5715 44.6163 23.0837 43.2303 21.986 42.1105C20.0014 40.0704 17.9834 38.0636 15.9544 36.0679C15.1672 35.2918 14.125 35.2918 13.4487 35.9792C12.7724 36.6666 12.8278 37.6866 13.5928 38.4738C14.2692 39.1724 14.9787 39.8487 15.6662 40.5472C16.6419 41.5561 16.7638 42.8201 16.0099 43.7847C15.2559 44.7493 13.992 44.9267 12.7945 44.2171C10.4773 42.8534 8.15999 41.4785 5.83163 40.1259C5.09986 39.7045 4.75615 39.128 4.76723 38.2743C4.8005 36.6444 4.77832 35.0146 4.77832 33.3847C4.77832 33.1297 4.76723 32.8636 4.70071 32.6086C4.47896 31.8214 3.79154 31.3446 3.04868 31.4333C2.29474 31.522 1.68493 32.1318 1.67384 32.9301C1.65167 35.3805 1.65167 37.8419 1.66276 40.2922C1.66276 40.9463 2.07299 41.3455 2.5941 41.6892C5.7651 43.7847 8.90284 45.9246 12.096 47.9979C13.5485 48.9404 14.2802 50.1711 14.1805 51.9118C14.1472 52.5327 14.1805 53.1647 14.1805 53.841Z" fill="#5FB257"/>
<path d="M14.1803 54.2627H13.1381C12.9053 54.2627 12.7168 54.0743 12.7168 53.8414V53.1873C12.7168 52.6883 12.7057 52.1894 12.7279 51.7016C12.7722 50.6704 12.3842 49.9387 11.4639 49.3399C9.94494 48.3421 8.42596 47.3331 6.90698 46.3131C5.24387 45.2043 3.58076 44.0956 1.90656 42.9979C0.69803 42.2107 0.154746 41.1796 0.176921 39.7604C0.210183 38.2969 0.199096 36.8333 0.199096 35.3698C0.199096 34.6602 0.188008 33.9617 0.199096 33.2521C0.199096 32.3097 0.487369 31.5003 1.04174 30.9016C1.58502 30.3028 2.36114 29.9702 3.22596 29.9702C3.22596 29.9702 3.22596 29.9702 3.23705 29.9702C4.97777 29.9702 6.24174 31.3672 6.25283 33.2854V33.9506C6.25283 35.3809 6.26391 36.8112 6.24174 38.2414C6.24174 38.563 6.31935 38.7071 6.59654 38.8734C8.06008 39.7271 9.52362 40.5809 10.9872 41.4457L13.5594 42.9647C13.9586 43.1975 14.5019 43.3638 14.8899 42.8649C15.278 42.3549 14.9232 41.8448 14.6682 41.5898C14.2801 41.1907 13.881 40.7915 13.4929 40.4035C13.1825 40.093 12.872 39.7826 12.5616 39.461C11.2533 38.1306 11.2089 36.1681 12.4618 34.9152C13.6925 33.6734 15.6771 33.7067 16.9744 34.9817C19.0034 36.9775 21.0102 38.9954 23.017 41.0244C24.3808 42.4103 25.0571 44.1288 25.046 46.1468C25.0349 47.9318 25.0349 49.7169 25.0349 51.5131V53.7971C25.0349 54.0299 24.8464 54.2184 24.6136 54.2184H23.5714C23.3385 54.2184 23.1501 54.0299 23.1501 53.7971V51.0363C23.1501 49.4175 23.139 47.7877 23.1611 46.1689C23.1722 44.6389 22.7066 43.3971 21.7087 42.377C19.8349 40.4589 17.8614 38.4743 15.6882 36.3344C15.3778 36.0239 14.9897 35.8355 14.6349 35.8576C14.3134 35.8576 14.014 35.9907 13.7701 36.2346C13.2601 36.7557 13.3155 37.5318 13.9142 38.1527C14.2469 38.4964 14.5795 38.8291 14.9232 39.1617C15.278 39.5165 15.6328 39.8713 15.9876 40.2261C17.1074 41.3903 17.2515 42.876 16.3535 44.0069C15.4665 45.1267 13.9586 45.3485 12.5948 44.5391L10.0558 43.0423C8.58119 42.1775 7.11765 41.3016 5.64302 40.4478C4.76711 39.9378 4.35688 39.2171 4.37905 38.2303C4.40123 36.922 4.40123 35.6137 4.39014 34.2943V33.3519C4.39014 33.1412 4.37905 32.8973 4.32362 32.6866C4.1573 32.099 3.68055 31.7442 3.11509 31.8107C2.54963 31.8773 2.11722 32.3429 2.10613 32.8973C2.08396 35.3476 2.08396 37.809 2.10613 40.2593C2.10613 40.6696 2.31679 40.9578 2.84899 41.3126C3.96882 42.0555 5.08865 42.8094 6.20848 43.5523C8.24856 44.9161 10.2886 46.2798 12.3398 47.6103C13.9697 48.6747 14.7125 50.0717 14.6127 51.89C14.5906 52.3114 14.5906 52.7216 14.6017 53.1651V53.8082C14.6017 54.0743 14.4132 54.2627 14.1803 54.2627ZM13.5483 53.4312H13.759V53.2205C13.7479 52.7659 13.7479 52.3224 13.7701 51.89C13.8588 50.3711 13.249 49.2512 11.8741 48.3532C9.81189 47.0116 7.7718 45.6478 5.73172 44.2841C4.61189 43.5412 3.49206 42.7873 2.37223 42.0444C1.85112 41.7007 1.26349 41.1907 1.2524 40.3037C1.24131 37.8423 1.23023 35.392 1.2524 32.9306C1.26349 31.9549 2.00635 31.1344 2.99313 31.0235C3.94664 30.9126 4.82255 31.5225 5.09974 32.4981C5.18843 32.7975 5.19952 33.119 5.19952 33.3741V34.3165C5.21061 35.6359 5.21061 36.9553 5.18843 38.2747C5.17735 38.9732 5.42127 39.4056 6.04217 39.7604C7.51679 40.6141 8.99142 41.49 10.466 42.3549L13.0051 43.8517C14.0251 44.4504 15.0562 44.3173 15.6882 43.519C16.3202 42.7097 16.1982 41.6896 15.3778 40.8248C15.0341 40.47 14.6793 40.1152 14.3245 39.7715C13.9808 39.4278 13.637 39.0952 13.3044 38.7515C12.3731 37.7979 12.3176 36.534 13.1603 35.6691C13.5594 35.27 14.0695 35.0483 14.6127 35.0483H14.6238C15.2115 35.0483 15.788 35.3033 16.2537 35.7578C18.4268 37.9088 20.4004 39.8824 22.2852 41.8116C23.4272 42.9758 23.9927 44.4504 23.9705 46.1911C23.9594 47.8099 23.9594 49.4286 23.9594 51.0474V53.3979H24.1701V51.5352C24.1701 49.7391 24.159 47.9429 24.1812 46.1578C24.1923 44.3395 23.6046 42.8649 22.385 41.6231C20.3893 39.5941 18.3825 37.5762 16.3535 35.5804C15.3778 34.6158 13.9364 34.5826 13.0162 35.5028C12.0848 36.4453 12.1292 37.8645 13.127 38.8734C13.4375 39.1839 13.7479 39.4943 14.0584 39.8048C14.4575 40.2039 14.8567 40.603 15.2447 41.0022C15.9654 41.7451 16.0763 42.6542 15.5219 43.3638C14.9565 44.0956 14.0362 44.2175 13.1159 43.6743L10.5437 42.1553C9.08012 41.2905 7.62767 40.4367 6.16413 39.583C5.62084 39.2726 5.38801 38.8512 5.3991 38.2193C5.42127 36.8001 5.41018 35.3698 5.41018 33.9395V33.2743C5.41018 31.8107 4.50101 30.7907 3.22596 30.7907C2.59398 30.7907 2.0507 31.0235 1.66264 31.4559C1.2524 31.8994 1.04174 32.5203 1.04174 33.2521C1.04174 33.9617 1.04174 34.6602 1.04174 35.3698C1.05283 36.8444 1.05283 38.308 1.01956 39.7826C0.99739 40.9024 1.40762 41.6785 2.37223 42.2994C4.04643 43.3971 5.70954 44.5058 7.37266 45.6146C8.89163 46.6235 10.3995 47.6325 11.9185 48.6303C13.0716 49.3843 13.6038 50.3932 13.5483 51.7126C13.5262 52.1894 13.5373 52.6772 13.5373 53.1651L13.5483 53.4312Z" fill="#5FB257"/>
<path d="M41.7438 6.89627C37.2978 2.48348 31.3993 0.221648 25.1792 0.498833C18.937 0.776019 13.2713 3.58114 9.22443 8.39308C4.60098 13.8924 2.93787 21.066 4.68968 28.0622L4.83382 28.6276L5.38819 28.4613C5.7319 28.3615 6.07561 28.2506 6.40823 28.1287L6.88499 27.9624L6.76303 27.4634C6.34171 25.7227 6.15322 23.9376 6.19757 22.1637C6.34171 16.4425 8.57028 11.6084 12.8057 7.80544C20.4116 0.964504 31.8871 0.953417 39.5042 7.76109C43.2628 11.1206 45.4581 15.3227 46.0236 20.2455C46.3008 22.6848 46.1788 25.0464 45.6688 27.275L45.5468 27.8293L46.1012 27.9513C46.4227 28.0178 46.7332 28.0954 47.0436 28.1841L47.6091 28.3504L47.7421 27.785C49.5161 20.179 47.2765 12.3845 41.7438 6.89627Z" fill="#5FB257"/>
<path d="M13.4601 28.0402C14.0256 28.2287 14.6243 28.3285 15.2119 28.4726V30.5681C14.0699 30.7788 13.0166 30.6347 12.0077 30.0803C11.5198 29.8142 10.9987 29.6146 10.4665 29.4927C9.84561 29.3707 9.47973 29.7809 9.39103 30.2577C9.31342 30.6457 9.25798 31.2666 10.4554 31.566C10.7659 31.699 11.0652 31.821 11.3535 31.9651C12.8947 32.7302 14.4912 32.8189 16.1211 32.3643C16.5979 32.2312 17.0524 31.9873 17.507 31.7767C18.8375 31.1447 20.168 31.3221 21.5318 31.8875C25.0576 33.3178 25.9445 33.2624 28.2286 32.8965C29.2042 32.7413 30.1023 32.3421 31.1335 31.8986C32.2533 31.4108 33.3399 31.1779 34.504 31.4662C34.9143 31.566 35.3023 31.7656 35.6904 31.943C37.6639 32.8965 39.6375 32.8965 41.6111 31.9319C41.9326 31.7767 42.2652 31.6436 42.5978 31.5106C44.0836 31.2001 43.7288 29.2044 42.5092 29.4927C41.7774 29.6257 41.1232 29.9805 40.458 30.2909C39.4158 30.7788 38.3403 30.7677 37.2205 30.4683C36.8989 30.4018 36.6217 30.3131 36.3002 30.1912C35.8345 30.0027 35.7237 29.9694 35.4021 29.8364C35.0251 29.6811 34.6038 29.5259 34.1603 29.415C33.1181 29.2155 32.0426 29.3818 31.0115 29.7809C31.0115 29.7809 31.0115 29.7698 31.0004 29.7698C30.8341 29.8475 30.6567 29.9361 30.4571 30.0138C30.0691 30.1579 29.6367 30.424 29.1488 30.546C29.1266 30.546 29.1155 30.557 29.0934 30.557C29.0934 30.557 29.0934 30.5681 29.1045 30.5681C29.049 30.5792 28.9936 30.5903 28.9271 30.6125C27.2196 31.2112 25.0021 31.4662 22.4853 30.0803C21.2878 29.4261 20.0017 29.2376 18.6601 29.415C18.1723 29.4816 17.6844 29.6035 17.2077 29.7033V28.4615C17.5403 28.4061 17.8507 28.3617 18.1612 28.2952C19.7799 27.9404 21.1215 27.1643 21.942 25.6453C22.5629 24.4811 22.7957 23.2393 22.7846 21.931C22.7735 21.3434 22.3633 20.9221 21.7868 20.9221C20.168 20.911 18.649 21.2436 17.3296 22.2415C17.2964 22.2637 17.2631 22.2747 17.2187 22.2858C17.119 21.6982 17.2409 21.2436 17.6401 20.7779C18.5271 19.7579 19.1147 18.5605 19.159 17.1745C19.2145 15.1455 18.2166 13.5933 16.8196 12.2517C16.4537 11.8969 15.9215 11.9524 15.5335 12.3072C15.2784 12.54 15.0456 12.7839 14.835 13.05C13.9036 14.2142 13.2273 15.4892 13.2495 17.0304C13.2716 18.5161 13.8925 19.7801 14.846 20.8666C15.2452 21.3212 15.2341 21.7647 15.2008 22.2858C15.1454 22.2637 15.1121 22.2526 15.09 22.2304C13.7816 21.2547 12.2848 20.9221 10.6993 20.911C10.0341 20.911 9.61278 21.3212 9.63495 21.9754C9.64604 22.4965 9.6793 23.0287 9.768 23.5498C10.1671 25.7118 11.2759 27.3306 13.4601 28.0402ZM20.7224 22.9511C20.545 25.102 19.2477 26.1886 17.2853 26.3882C17.5514 24.3924 18.5492 23.195 20.7224 22.9511ZM16.2098 14.5025C17.5846 16.1988 17.4738 17.7622 16.2431 19.3588C14.9458 18.3387 14.9126 16.0769 16.2098 14.5025ZM15.1343 26.3882C13.1053 26.1997 11.9079 25.0244 11.7083 22.9622C13.7484 23.1506 14.9458 24.337 15.1343 26.3882Z" fill="#28663D"/>
<path d="M39.8704 9.30273C40.2917 9.50231 40.4248 9.83493 40.4137 10.2895C40.4026 12.8729 40.3804 13.1501 40.4137 15.7334C40.4359 16.8865 39.9259 17.9287 38.551 18.2725C38.5843 18.8047 38.6175 19.3368 38.6508 19.8801C38.7728 21.765 38.9058 22.1309 39.0278 24.0157C39.1165 25.3351 39.2274 24.7253 39.2717 26.0447C39.3271 27.475 38.1962 28.6392 36.7881 28.6725C35.3246 28.7057 34.105 27.5305 34.1604 26.0669C34.2048 24.8584 34.3045 25.5902 34.3822 24.3816C34.493 22.7629 34.6039 22.6742 34.7037 21.0554C34.7702 20.1351 34.8256 19.2149 34.8922 18.2725C34.8035 18.2503 34.7259 18.217 34.6372 18.1948C33.6947 17.9177 33.0406 17.0861 33.0406 16.1104C33.0295 13.3275 33.0406 12.8507 33.0406 10.0789C33.0406 9.69079 33.2623 9.46904 33.5839 9.31382C33.7169 9.31382 33.85 9.31382 33.9719 9.31382C34.3932 9.51339 34.5263 9.84602 34.5152 10.3006C34.493 12.1633 34.5041 11.7198 34.5041 13.5825C34.5041 13.6712 34.5041 13.771 34.5041 13.8597C35.0141 13.8597 35.4798 13.8597 35.9787 13.8597C35.9787 13.7599 35.9787 13.6712 35.9787 13.5825C35.9787 11.7198 35.9898 12.1633 35.9677 10.3006C35.9677 9.84602 36.0896 9.50231 36.5109 9.31382C36.644 9.31382 36.777 9.31382 36.899 9.31382C37.3203 9.51339 37.4534 9.84602 37.4423 10.3006C37.4201 12.1633 37.4312 11.7198 37.4312 13.5825C37.4312 13.6712 37.4312 13.771 37.4312 13.8597C37.9412 13.8597 38.4069 13.8597 38.9058 13.8597C38.9058 13.7599 38.9058 13.6712 38.9058 13.5825C38.9058 11.7198 38.9169 12.1633 38.8947 10.3006C38.8947 9.84602 39.0167 9.50231 39.438 9.31382C39.6043 9.30273 39.7374 9.30273 39.8704 9.30273ZM36.3779 18.2946C36.3668 18.5053 36.3446 18.6938 36.3335 18.8712C36.2338 20.4567 36.1229 20.5121 36.0231 22.0976C35.89 24.049 35.757 24.0601 35.6461 26.0115C35.635 26.2221 35.6905 26.455 35.7903 26.6435C36.0231 27.098 36.5553 27.2976 37.0542 27.1535C37.5532 27.0093 37.8636 26.5658 37.8303 26.0115C37.7306 24.4814 37.6308 24.8806 37.531 23.3505C37.409 21.51 37.2871 21.1995 37.1651 19.3701C37.1429 19.0153 37.1097 18.6605 37.0875 18.3057C36.8325 18.2946 36.6218 18.2946 36.3779 18.2946ZM34.5263 15.3565C34.5263 15.6337 34.5152 15.8997 34.5263 16.1548C34.5485 16.5206 34.8589 16.8089 35.2248 16.8089C36.2227 16.82 37.2205 16.82 38.2184 16.8089C38.5843 16.8089 38.8836 16.5428 38.928 16.1769C38.9613 15.8997 38.928 15.6226 38.928 15.3454C37.4534 15.3565 36.0009 15.3565 34.5263 15.3565Z" fill="#5FB257"/>
<path d="M27.9734 9.16998C28.1397 9.20324 28.3061 9.23651 28.4724 9.28086C29.4148 9.52478 30.1133 10.0681 30.6455 10.7777C31.5547 11.9862 31.8429 13.3389 31.7321 14.7691C31.6434 15.8668 31.3107 16.8979 30.5679 17.7849C30.2685 18.1397 29.8694 18.4169 29.5368 18.7495C29.4702 18.816 29.4037 18.9158 29.4037 18.9934C29.5257 20.7231 29.6476 21.0779 29.7807 22.7964C29.8805 24.2156 29.9913 23.9052 30.0911 25.3244C30.1133 25.6459 30.1466 25.9674 30.1466 26.289C30.1687 27.5973 29.0267 28.6506 27.5743 28.6506C26.1329 28.6506 24.9577 27.5862 25.0242 26.2779C25.0796 24.9806 25.2016 25.4241 25.2903 24.1269C25.4012 22.6855 25.512 22.6079 25.6118 21.1555C25.6672 20.4348 25.7227 19.7141 25.767 18.9934C25.767 18.9158 25.7338 18.7939 25.6672 18.7495C24.4698 17.9512 23.86 16.8425 23.5606 15.5674C23.5052 15.3124 23.4609 15.0463 23.4165 14.7913C23.4165 14.4032 23.4165 14.0263 23.4165 13.6382C23.4941 13.2502 23.5606 12.8621 23.6715 12.474C24.0041 11.3542 24.6029 10.3785 25.6783 9.69109C26.1329 9.39173 26.6651 9.24759 27.2084 9.13672C27.4412 9.16998 27.7073 9.16998 27.9734 9.16998ZM30.2796 14.0263C30.2353 13.7823 30.1909 13.3056 30.0579 12.851C29.8583 12.1303 29.4924 11.4762 28.8493 10.9661C28.051 10.3342 27.0643 10.3342 26.2771 10.9772C26.0331 11.1768 25.8114 11.4096 25.634 11.6647C24.869 12.8177 24.7026 14.0595 25.002 15.3678C25.1905 16.1883 25.5564 16.9423 26.266 17.5188C27.0643 18.1619 28.051 18.1841 28.8493 17.5299C29.0933 17.3303 29.315 17.0864 29.4924 16.8425C30.0579 16.0553 30.2574 15.1794 30.2796 14.0263ZM27.2306 19.1597C27.2195 19.3593 27.1973 19.5367 27.1862 19.7141C27.0864 21.1555 26.9756 21.1998 26.8758 22.6301C26.7427 24.4041 26.6097 24.4152 26.4988 26.2003C26.4877 26.3887 26.5432 26.6105 26.6429 26.7768C26.8758 27.1981 27.408 27.3755 27.9069 27.2425C28.4058 27.1094 28.7163 26.6992 28.683 26.2003C28.5832 24.8032 28.4835 25.1691 28.3837 23.7721C28.2617 22.0979 28.1397 21.8096 28.0178 20.1354C27.9956 19.8139 27.9623 19.4924 27.9402 19.1597C27.6741 19.1597 27.4634 19.1597 27.2306 19.1597Z" fill="#5FB257"/>
</g>
<defs>
<clipPath id="clip0_244_3060">
<rect width="52" height="54.3505" fill="white"/>
</clipPath>
</defs>
</svg>
