<?xml version="1.0" encoding="UTF-8"?>
<svg id="Layer_1" data-name="Layer 1" xmlns="http://www.w3.org/2000/svg" viewBox="0 0 47.12 48.37">
  <defs>
    <style>
      .cls-1 {
        fill: #eb1d36;
      }

      .cls-2 {
        fill: #ffd6d6;
      }

      .cls-3 {
        fill: #7a0003;
      }
    </style>
  </defs>
  <path class="cls-2" d="M5.04,1.49s-2.4,.63-2.4,1.54V14.55s.06,1.88,1.54,3.65c0,0-3.88-3.93-3.88-6.79s.06-9.3,.06-9.3l.86-.8,3.82,.17Z"/>
  <g>
    <g>
      <path class="cls-2" d="M34.72,31.42l-6.66,7.23s-.53,.69-.53,2.34-.03,6.87-.03,6.87l-2.63,.03,.03-6.97,.66-2.97,5.94-5.97s1.44-2.13,3.22-.56Z"/>
      <path class="cls-2" d="M2.57,27.26l-.07,7.1s-.37,1.55,1.77,2.59,8.74,5.7,8.74,5.7c0,0,.72,.74,.72,1.77s-.07,3.39-.07,3.39l-1.8,.06-.2-3.39s-1.03-1.48-2.88-2.51S.87,36.35,.87,36.35l-.22-5.47s-.52-3.47,1.92-3.62Z"/>
    </g>
    <g>
      <g>
        <path class="cls-3" d="M33.22,9.68c.26-.23,.46-.4,.71-.61,.43,.49,.88,1,1.37,1.56,1.21-1.22,2.3-2.32,3.43-3.46,.24,.24,.43,.43,.66,.67-.73,.73-1.43,1.42-2.13,2.12-.49,.48-.97,.97-1.45,1.45-.24,.24-.49,.31-.75,.06-.6-.58-1.2-1.16-1.84-1.79Z"/>
        <path class="cls-3" d="M35.4,12.13c-.26,0-.5-.12-.68-.29-.42-.4-.83-.8-1.25-1.22l-.6-.58c-.1-.1-.16-.23-.15-.37,0-.14,.07-.27,.17-.36l.71-.61c.21-.18,.52-.16,.7,.05l1.02,1.16,3.05-3.08c.09-.09,.22-.15,.36-.15h0c.13,0,.26,.05,.36,.15l.66,.67c.19,.2,.19,.51,0,.71l-2.3,2.29c-.43,.43-.86,.85-1.28,1.28-.26,.26-.52,.37-.77,.37Z"/>
      </g>
      <g>
        <path class="cls-3" d="M6.48,9.44c.26-.23,.46-.4,.71-.61,.43,.49,.88,1,1.37,1.56,1.21-1.22,2.3-2.32,3.43-3.46,.24,.24,.43,.43,.66,.67-.73,.73-1.43,1.42-2.13,2.12-.49,.48-.97,.97-1.45,1.45-.24,.24-.49,.31-.75,.06-.6-.58-1.2-1.16-1.84-1.79Z"/>
        <path class="cls-3" d="M8.66,11.89c-.26,0-.5-.12-.68-.29-.42-.4-.83-.81-1.26-1.23l-.58-.57c-.1-.1-.16-.23-.15-.37,0-.14,.07-.27,.17-.36l.71-.61c.21-.18,.52-.16,.7,.05l1.02,1.16,3.05-3.08c.09-.09,.22-.15,.36-.15h0c.13,0,.26,.05,.36,.15l.66,.67c.19,.2,.19,.51,0,.71l-2.42,2.41c-.39,.39-.78,.77-1.16,1.16-.26,.26-.53,.37-.77,.37Z"/>
      </g>
      <g>
        <path class="cls-3" d="M19.86,19.99c.26-.23,.46-.4,.71-.61,.43,.49,.88,1,1.37,1.56,1.21-1.22,2.3-2.32,3.43-3.46,.24,.24,.43,.43,.66,.67-.73,.73-1.43,1.42-2.13,2.12-.49,.48-.97,.97-1.45,1.45-.24,.24-.49,.31-.75,.06-.6-.58-1.2-1.16-1.84-1.79Z"/>
        <path class="cls-3" d="M22.04,22.44c-.26,0-.5-.12-.68-.29-.42-.4-.83-.8-1.25-1.22l-.6-.58c-.1-.1-.16-.23-.15-.37,0-.14,.07-.27,.17-.36l.71-.61c.21-.18,.52-.16,.7,.05l1.02,1.16,3.05-3.08c.09-.09,.22-.15,.36-.15h0c.13,0,.26,.05,.36,.15l.66,.67c.19,.2,.19,.51,0,.71l-2.36,2.35c-.41,.41-.82,.81-1.22,1.22-.26,.26-.52,.37-.77,.37Z"/>
      </g>
      <g>
        <g>
          <path class="cls-1" d="M34.73,47.45h-.91c0-.92-.07-1.82,.02-2.71,.1-1.06,.74-1.82,1.62-2.4,2.9-1.91,5.77-3.86,8.67-5.76,.68-.44,.99-.98,.97-1.8-.04-1.96,0-3.92-.01-5.89,0-1.02-.56-1.68-1.41-1.68-.83,0-1.41,.68-1.42,1.68,0,1.51-.02,3.02,0,4.53,.01,.72-.26,1.23-.89,1.6-2.15,1.25-4.29,2.53-6.44,3.78-1.02,.6-2.14,.42-2.81-.41-.68-.85-.6-2.01,.23-2.89,.62-.65,1.28-1.27,1.91-1.92,.72-.74,.76-1.67,.12-2.3-.61-.6-1.56-.57-2.27,.13-1.8,1.78-3.59,3.57-5.37,5.37-1,1.01-1.46,2.26-1.46,3.67,0,2.1,0,4.2,0,6.3,0,.21,0,.42,0,.67h-.9c-.01-.13-.04-.28-.04-.42,0-2.2,0-4.4,0-6.59,0-1.64,.55-3.08,1.71-4.26,1.8-1.83,3.61-3.66,5.45-5.46,1.45-1.42,3.72-.83,4.2,1.08,.22,.88,0,1.67-.64,2.33-.66,.68-1.33,1.33-1.99,2-.41,.42-.62,.91-.34,1.49,.28,.57,.97,.8,1.56,.46,2.24-1.29,4.47-2.6,6.69-3.94,.19-.11,.3-.49,.31-.75,.03-1.57,0-3.14,.02-4.71,.03-1.74,1.7-2.87,3.24-2.22,.92,.39,1.43,1.11,1.45,2.1,.03,2.22,.02,4.43,0,6.65,0,.9-.48,1.54-1.21,2.03-2.88,1.91-5.73,3.85-8.62,5.73-1.03,.67-1.55,1.5-1.47,2.73,.04,.56,0,1.13,0,1.75Z"/>
          <path class="cls-1" d="M34.73,47.82h-.91c-.21,0-.38-.17-.38-.38,0-.28,0-.56-.01-.84-.01-.62-.03-1.27,.03-1.91,.11-1.07,.71-1.97,1.78-2.68,1.2-.79,2.39-1.58,3.58-2.38,1.7-1.13,3.39-2.26,5.1-3.38,.58-.38,.82-.81,.8-1.47-.02-1.32-.02-2.64-.02-3.95,0-.65,0-1.29,0-1.94,0-.8-.4-1.3-1.03-1.3h0c-.63,0-1.04,.51-1.04,1.31v.55c0,1.32-.02,2.65,0,3.97,.01,.87-.34,1.5-1.07,1.93-1.12,.65-2.24,1.31-3.35,1.97-1.03,.61-2.06,1.21-3.09,1.81-1.18,.69-2.5,.48-3.29-.5-.8-1-.7-2.39,.26-3.38,.35-.37,.71-.72,1.07-1.08,.28-.28,.56-.56,.84-.84,.57-.59,.62-1.28,.13-1.77-.47-.47-1.19-.41-1.74,.13-1.8,1.78-3.59,3.57-5.36,5.37-.9,.91-1.35,2.06-1.35,3.41v6.97c0,.21-.17,.38-.38,.38h-.9c-.19,0-.35-.15-.37-.34v-.11c-.03-.11-.04-.23-.04-.35v-1.04c0-1.85,0-3.7,0-5.55,0-1.78,.62-3.3,1.81-4.52,2.11-2.15,3.84-3.88,5.46-5.46,.79-.78,1.88-1.07,2.88-.79,.96,.27,1.69,1.04,1.94,2.04,.25,1,0,1.93-.74,2.68-.35,.36-.71,.72-1.06,1.07-.31,.31-.62,.62-.93,.93-.46,.47-.39,.81-.27,1.07,.09,.18,.25,.32,.44,.38,.2,.06,.41,.03,.6-.08,2.42-1.39,4.6-2.68,6.68-3.94,.04-.04,.12-.25,.13-.43,.01-.77,.01-1.53,.01-2.3,0-.8,0-1.61,.01-2.41,.02-.97,.49-1.84,1.27-2.35,.75-.49,1.66-.56,2.49-.21,1.07,.45,1.66,1.32,1.68,2.44,.03,2.28,.02,4.55,0,6.66,0,.95-.47,1.74-1.38,2.34-1.01,.67-2.02,1.35-3.03,2.02-1.86,1.24-3.72,2.49-5.6,3.71-.97,.63-1.37,1.36-1.3,2.39,.03,.39,.02,.79,.01,1.2,0,.19,0,.38,0,.57,0,.21-.17,.38-.38,.38Zm-.54-.75h.16c0-.07,0-.14,0-.21,0-.39,.01-.77-.01-1.14-.09-1.31,.43-2.29,1.64-3.07,1.88-1.22,3.73-2.46,5.59-3.7,1.01-.68,2.02-1.35,3.03-2.02,.71-.47,1.04-1.02,1.04-1.72,.02-2.11,.03-4.37,0-6.64-.01-.83-.42-1.42-1.22-1.76-.6-.25-1.25-.2-1.79,.15-.58,.37-.91,1-.93,1.73-.02,.8-.01,1.6-.01,2.4,0,.77,0,1.54-.01,2.31,0,.31-.14,.85-.49,1.06-2.08,1.26-4.27,2.55-6.69,3.95-.37,.21-.8,.27-1.2,.14-.39-.12-.71-.4-.89-.76-.22-.46-.34-1.16,.41-1.92,.31-.32,.62-.63,.94-.94,.35-.35,.71-.7,1.06-1.06,.55-.57,.74-1.23,.55-1.98-.19-.75-.7-1.3-1.42-1.5-.75-.21-1.55,.01-2.16,.6-1.61,1.58-3.34,3.31-5.45,5.45-1.05,1.07-1.59,2.42-1.6,4,0,1.85,0,3.7,0,5.55v1.04s0,.03,0,.05h.19v-6.59c0-1.56,.53-2.88,1.57-3.94,1.78-1.8,3.57-3.6,5.37-5.38,.85-.84,2.02-.89,2.79-.13,.79,.78,.75,1.94-.12,2.83-.28,.29-.56,.57-.85,.85-.36,.35-.71,.71-1.06,1.07-.7,.73-.78,1.69-.21,2.39,.56,.7,1.47,.82,2.33,.33,1.03-.6,2.06-1.21,3.09-1.81,1.12-.66,2.23-1.32,3.35-1.97,.5-.29,.71-.67,.7-1.27-.02-1.33-.01-2.66,0-3.99v-.55c0-1.21,.74-2.06,1.79-2.06h0c1.06,0,1.78,.83,1.78,2.05,0,.65,0,1.3,0,1.94,0,1.31,0,2.62,.02,3.94,.02,.92-.35,1.59-1.14,2.12-1.7,1.12-3.4,2.25-5.09,3.38-1.19,.8-2.39,1.59-3.58,2.38-.89,.59-1.37,1.29-1.45,2.13-.06,.59-.04,1.19-.03,1.82,0,.16,0,.32,.01,.48Z"/>
        </g>
        <g>
          <path class="cls-1" d="M21.51,47.46h-.91c0-.21,0-.42,0-.63,0-2.14,0-4.28,0-6.42,0-1.37-.45-2.59-1.41-3.57-1.78-1.82-3.59-3.63-5.41-5.42-.94-.93-2.31-.65-2.66,.5-.19,.63,0,1.16,.46,1.61,.64,.64,1.28,1.27,1.91,1.92,.52,.53,.81,1.16,.71,1.92-.19,1.42-1.72,2.27-2.97,1.57-2.34-1.31-4.64-2.71-6.95-4.08-.48-.28-.65-.76-.65-1.31,0-1.53,0-3.06,0-4.59,0-.25-.02-.51-.1-.75-.21-.68-.83-1.07-1.48-.99-.65,.08-1.22,.62-1.22,1.31-.03,2.26-.02,4.51,0,6.77,0,.53,.36,.88,.79,1.17,2.78,1.84,5.52,3.74,8.34,5.52,1.54,.97,2.33,2.21,2.16,4.04-.04,.46,0,.93,0,1.42h-.94c0-.66-.02-1.32,0-1.98,.03-1.04-.4-1.79-1.27-2.36-2.88-1.9-5.74-3.84-8.63-5.72-.98-.64-1.45-1.45-1.43-2.64,.04-1.98,0-3.96,.01-5.95,0-1.48,1-2.53,2.37-2.53,1.31,0,2.33,1.08,2.34,2.51,.01,1.53,.02,3.06,0,4.59,0,.43,.15,.68,.51,.89,2.09,1.21,4.16,2.44,6.24,3.66,.72,.42,1.34,.36,1.73-.16,.38-.5,.29-1.11-.27-1.69-.62-.63-1.25-1.25-1.87-1.88-1.05-1.07-1.08-2.58-.08-3.57,.96-.96,2.5-.95,3.54,.07,1.85,1.82,3.68,3.65,5.49,5.5,1.07,1.1,1.63,2.45,1.66,3.98,.04,2.33,.01,4.67,.01,7.01,0,.08-.02,.15-.03,.28Z"/>
          <path class="cls-1" d="M21.51,47.84h-.91c-.21,0-.38-.17-.38-.38v-2.77c0-1.43,0-2.85,0-4.28,0-1.31-.44-2.43-1.31-3.31-1.75-1.79-3.57-3.61-5.4-5.41-.38-.37-.85-.52-1.28-.41-.36,.09-.64,.37-.75,.76-.14,.46-.02,.85,.36,1.24l.74,.74c.39,.39,.78,.78,1.17,1.17,.65,.66,.93,1.41,.82,2.23-.11,.82-.62,1.53-1.35,1.9-.7,.35-1.5,.33-2.18-.05-1.92-1.08-3.84-2.22-5.7-3.33l-1.26-.75c-.38-.23-.83-.7-.83-1.63,0-1.53,0-3.06,0-4.59,0-.26-.03-.47-.08-.64-.16-.5-.59-.8-1.08-.73-.5,.06-.89,.48-.9,.94-.02,2.08-.02,4.29,0,6.76,0,.31,.19,.57,.63,.86,.9,.6,1.79,1.2,2.69,1.8,1.84,1.24,3.74,2.51,5.64,3.72,1.76,1.11,2.5,2.51,2.33,4.39-.03,.3-.02,.61-.01,.92,0,.15,0,.31,0,.47,0,.21-.17,.38-.38,.38h-.94c-.21,0-.38-.17-.38-.38v-.6c0-.46,0-.92,0-1.38,.03-.88-.32-1.53-1.1-2.04-1.21-.8-2.41-1.6-3.62-2.4-1.67-1.11-3.33-2.22-5.01-3.32-1.12-.73-1.63-1.67-1.6-2.96,.03-1.31,.02-2.62,.02-3.94,0-.67,0-1.33,0-2,0-.85,.3-1.61,.84-2.14,.49-.49,1.17-.76,1.89-.76h.01c1.53,0,2.7,1.25,2.71,2.88,.01,1.53,.02,3.07,0,4.6,0,.28,.07,.42,.33,.56,1.37,.8,2.74,1.61,4.11,2.41l2.13,1.25c.55,.32,.97,.3,1.24-.07,.33-.44,.05-.9-.24-1.2-.32-.33-.65-.66-.98-.99-.3-.3-.6-.59-.89-.89-1.18-1.21-1.21-2.97-.08-4.1,1.11-1.11,2.9-1.08,4.07,.07,1.85,1.82,3.7,3.67,5.49,5.5,1.15,1.17,1.74,2.59,1.77,4.23,.03,1.67,.02,3.35,.02,5.02v1.99c0,.06-.01,.13-.02,.21v.1c-.04,.19-.2,.33-.39,.33Zm-.53-.75h.19v-1.89c0-1.67,.01-3.34-.01-5.01-.02-1.44-.54-2.69-1.55-3.72-1.79-1.83-3.63-3.67-5.48-5.49-.89-.87-2.18-.9-3.02-.07-.85,.85-.81,2.13,.08,3.05,.29,.3,.59,.59,.88,.88,.33,.33,.66,.66,.99,.99,.69,.7,.8,1.52,.3,2.17-.51,.68-1.34,.78-2.22,.26l-2.13-1.25c-1.37-.81-2.74-1.61-4.11-2.41-.49-.29-.71-.66-.7-1.22,.02-1.53,.02-3.05,0-4.58,0-1.22-.85-2.14-1.97-2.14h0c-.54,0-1.01,.19-1.36,.54-.4,.39-.62,.97-.62,1.61,0,.67,0,1.33,0,2,0,1.32,.01,2.64-.02,3.96-.02,1.03,.35,1.72,1.26,2.31,1.68,1.1,3.35,2.21,5.01,3.32,1.2,.8,2.41,1.61,3.61,2.4,1,.66,1.47,1.54,1.43,2.69-.01,.45,0,.9,0,1.36v.23h.19s0-.05,0-.08c0-.34-.01-.68,.02-1,.14-1.59-.47-2.73-1.99-3.69-1.91-1.21-3.82-2.49-5.66-3.73-.89-.6-1.79-1.2-2.69-1.8-.41-.27-.96-.72-.96-1.47-.02-2.48-.02-4.69,0-6.78,0-.84,.68-1.56,1.55-1.67,.84-.11,1.62,.4,1.89,1.25,.08,.24,.11,.52,.12,.86,0,1.53,0,3.06,0,4.6,0,.63,.26,.86,.46,.98l1.26,.75c1.85,1.11,3.77,2.25,5.68,3.32,.46,.26,1,.27,1.47,.03,.51-.26,.86-.75,.94-1.33,.08-.59-.12-1.11-.61-1.6-.39-.39-.78-.78-1.17-1.17l-.75-.75c-.58-.58-.77-1.26-.55-1.98,.2-.65,.66-1.11,1.29-1.27,.68-.17,1.43,.05,1.99,.61,1.84,1.81,3.66,3.63,5.41,5.42,1.01,1.03,1.52,2.32,1.52,3.83,0,1.43,0,2.85,0,4.28v2.39Z"/>
        </g>
        <g>
          <path class="cls-1" d="M22.96,10.3c2.31,0,4.63,0,6.94,0,1.55,0,2.47,.91,2.46,2.47-.02,2.35,.04,4.71-.1,7.05-.19,3.2-1.66,5.83-4.09,7.87-1.25,1.05-2.65,1.94-4,2.86-.66,.45-1.42,.54-2.13,.15-2.32-1.3-4.5-2.8-6.14-4.95-1.57-2.06-2.29-4.42-2.34-6.99-.04-2.05-.02-4.11,0-6.16,0-1.34,.96-2.29,2.3-2.3,2.37-.01,4.74,0,7.11,0Zm8.62,5.64s-.08,0-.11,0c0-1.08,0-2.17,0-3.25,0-.93-.53-1.48-1.45-1.48-4.7,0-9.41,0-14.11,0-.92,0-1.46,.54-1.47,1.47,0,2.05-.04,4.11,.01,6.16,.07,2.6,.89,4.94,2.58,6.94,1.48,1.76,3.38,2.98,5.34,4.11,.46,.27,.95,.17,1.38-.11,.99-.66,2.01-1.29,2.96-2.01,2.26-1.73,3.98-3.88,4.46-6.75,.28-1.66,.28-3.37,.41-5.06Z"/>
          <path class="cls-1" d="M22.96,31.3c-.38,0-.75-.1-1.1-.29-1.96-1.09-4.43-2.66-6.25-5.05-1.55-2.03-2.36-4.45-2.41-7.2-.04-1.73-.03-3.49-.02-5.2v-.97c.01-1.53,1.13-2.64,2.66-2.65,1.67,0,3.35,0,5.02,0h9.04c.86,0,1.58,.27,2.07,.76,.49,.5,.75,1.21,.74,2.07,0,.61,0,1.23,0,1.84,0,1.71,0,3.49-.1,5.23-.19,3.2-1.61,5.93-4.22,8.12-1.03,.86-2.16,1.62-3.25,2.36l-.77,.52c-.45,.3-.93,.46-1.4,.46Zm-4.19-20.65c-.98,0-1.95,0-2.93,0-1.14,0-1.94,.8-1.95,1.94v.97c-.01,1.7-.02,3.45,0,5.18,.05,2.59,.81,4.87,2.27,6.78,1.74,2.29,4.14,3.8,6.03,4.86,.55,.31,1.18,.26,1.75-.13l.78-.52c1.08-.72,2.19-1.47,3.19-2.31,2.46-2.05,3.79-4.62,3.97-7.61,.1-1.72,.1-3.48,.1-5.19,0-.62,0-1.23,0-1.85,0-.67-.18-1.2-.54-1.56-.36-.36-.9-.55-1.57-.55h-4.81s-2.14,0-2.14,0h-2.09c-.7,0-1.39,0-2.09,0Zm4.17,19.74c-.26,0-.51-.07-.75-.21-2.22-1.28-3.99-2.48-5.43-4.19-1.7-2.01-2.59-4.42-2.66-7.16-.04-1.58-.03-3.19-.02-4.74v-1.43c.01-1.12,.71-1.82,1.83-1.82,4.7,0,9.41,0,14.11,0,1.1,0,1.79,.71,1.8,1.84,0,.75,0,1.51,0,2.26v.74c.08,.07,.12,.18,.11,.29-.04,.52-.07,1.05-.09,1.57-.06,1.16-.12,2.36-.32,3.52-.45,2.66-1.96,4.94-4.6,6.97-.71,.55-1.48,1.05-2.21,1.53l-.76,.5c-.33,.22-.67,.33-1,.33Zm.02-18.84c-2.35,0-4.7,0-7.06,0-.72,0-1.11,.38-1.11,1.11v1.43c-.02,1.55-.03,3.15,.01,4.72,.07,2.58,.91,4.84,2.5,6.72,1.37,1.63,3.09,2.79,5.24,4.03,.3,.18,.63,.14,1-.1l.77-.51c.73-.47,1.48-.96,2.17-1.5,2.49-1.91,3.91-4.05,4.33-6.52,.19-1.13,.25-2.3,.31-3.44,.02-.44,.05-.89,.08-1.33-.06-.06-.1-.15-.1-.24v-.99c0-.75,0-1.5,0-2.26,0-.75-.37-1.13-1.09-1.13-2.35,0-4.7,0-7.05,0Z"/>
        </g>
        <g>
          <path class="cls-1" d="M27.19,8.33h-.94c0-.2,0-.41,0-.62,0-1.63,0-3.26,0-4.89,0-1.48,1-2.47,2.48-2.48,4.94,0,9.89,0,14.83,0,1.33,0,2.43,.88,2.45,2.13,.04,2.55,.1,5.11-.07,7.65-.27,4.02-2.27,7.15-5.45,9.54-.94,.7-1.97,1.28-2.96,1.91-.94,.6-1.88,.58-2.81-.03-.28-.18-.56-.35-.89-.54,.16-.27,.31-.51,.48-.79,.39,.23,.72,.5,1.1,.62,.41,.12,.95,.27,1.27,.1,2.74-1.4,5.18-3.18,6.78-5.91,1.05-1.78,1.59-3.71,1.63-5.76,.05-2.14,.02-4.28,.01-6.42,0-.98-.56-1.55-1.53-1.55-4.94,0-9.89,0-14.83,0-.96,0-1.53,.58-1.53,1.55,0,1.63,0,3.26,0,4.89,0,.19,0,.38,0,.6Z"/>
          <path class="cls-1" d="M36.14,22.39c-.55,0-1.09-.18-1.64-.53-.18-.12-.37-.23-.57-.35l-.31-.19c-.18-.11-.23-.34-.13-.51l.48-.79c.11-.18,.34-.23,.51-.13,.13,.07,.25,.15,.37,.23,.23,.15,.44,.29,.65,.35,.19,.06,.78,.23,.99,.12,3.16-1.61,5.26-3.44,6.62-5.76,1-1.71,1.54-3.59,1.58-5.58,.04-1.69,.03-3.41,.02-5.08v-1.33c0-.77-.41-1.17-1.16-1.18-4.94,0-9.89,0-14.83,0-.75,0-1.15,.41-1.16,1.17,0,1.15,0,2.31,0,3.46v2.03c0,.21-.17,.38-.37,.38h-.94c-.21,0-.38-.17-.38-.38v-2.08c0-1.14,0-2.28,0-3.42,0-1.7,1.15-2.85,2.85-2.85,4.95,0,9.89,0,14.83,0,1.59,0,2.8,1.07,2.82,2.5v.52c.05,2.35,.09,4.78-.07,7.16-.26,3.91-2.14,7.22-5.6,9.82-.67,.5-1.39,.95-2.09,1.38-.3,.18-.6,.37-.89,.55-.52,.33-1.05,.5-1.58,.5Zm-1.81-1.52c.2,.12,.39,.24,.58,.36,.81,.53,1.6,.54,2.41,.03,.3-.19,.6-.38,.9-.56,.68-.42,1.39-.85,2.03-1.34,3.28-2.46,5.06-5.58,5.3-9.27,.16-2.35,.12-4.76,.08-7.1v-.52c-.03-1-.92-1.76-2.08-1.76-4.94,0-9.88,0-14.83,0-1.27,0-2.09,.83-2.1,2.1,0,1.14,0,2.28,0,3.42v1.71h.19v-1.65c0-1.15,0-2.31,0-3.46,0-1.18,.74-1.92,1.91-1.92,4.94,0,9.89,0,14.83,0,1.17,0,1.9,.74,1.9,1.92v1.32c.01,1.67,.02,3.4-.01,5.1-.05,2.12-.61,4.12-1.68,5.95-1.44,2.45-3.64,4.37-6.93,6.05-.43,.22-1,.09-1.55-.07-.31-.09-.58-.27-.85-.44,0,0-.01,0-.02-.01l-.09,.14Z"/>
        </g>
        <g>
          <path class="cls-1" d="M19.64,8.33h-.93c0-1.16,0-2.29,0-3.42,0-.71,.01-1.41,0-2.12-.02-.91-.57-1.49-1.47-1.5-4.98,0-9.97,0-14.95,0-.82,0-1.46,.54-1.46,1.31,0,2.53-.06,5.07,.08,7.59,.19,3.35,1.82,6.01,4.39,8.08,1.16,.93,2.43,1.71,3.67,2.55,.52,.36,1.07,.33,1.61,0,.33-.2,.67-.4,1.03-.62,.16,.27,.3,.5,.44,.73-1.64,1.38-2.64,1.31-3.89,.51-1.79-1.15-3.53-2.34-4.99-3.9C1.01,15.23-.04,12.46-.11,9.33c-.05-2.2-.02-4.4-.01-6.59C-.12,1.36,.89,.35,2.27,.35c5,0,10.01,0,15.01,0,1.25,0,2.31,.9,2.35,2.11,.06,1.94,.02,3.88,.02,5.87Z"/>
          <path class="cls-1" d="M9.78,22.39c-.58,0-1.17-.21-1.82-.63-1.63-1.05-3.51-2.3-5.06-3.96C.72,15.48-.41,12.63-.49,9.33c-.04-1.89-.03-3.81-.02-5.66v-.94C-.49,1.14,.67-.02,2.27-.02c5,0,10.01,0,15.01,0,1.48,0,2.68,1.09,2.72,2.47,.04,1.37,.04,2.77,.03,4.12,0,.58,0,1.17,0,1.76,0,.21-.17,.38-.38,.38h-.93c-.21,0-.38-.17-.38-.38V4.26c0-.49,0-.98,0-1.46-.01-.71-.41-1.13-1.09-1.13-4.98,0-9.97,0-14.95,0-.64,0-1.08,.39-1.08,.94v1.45c-.02,2.01-.03,4.09,.08,6.12,.17,3.05,1.6,5.68,4.25,7.8,.83,.67,1.75,1.28,2.63,1.86,.34,.22,.67,.45,1.01,.67,.38,.26,.76,.26,1.2-.01l1.04-.62c.17-.1,.41-.05,.51,.13l.44,.73c.09,.16,.06,.36-.08,.48-.93,.79-1.72,1.17-2.51,1.17Zm-.1-21.67c-2.47,0-4.94,0-7.41,0-1.16,0-2.01,.85-2.02,2.01v.94c-.02,1.85-.03,3.76,0,5.64,.07,3.1,1.14,5.79,3.18,7.97,1.49,1.6,3.32,2.82,4.92,3.84,1.02,.65,1.82,.79,3.19-.28l-.08-.13-.71,.42c-.69,.42-1.38,.42-2.01-.01-.33-.23-.67-.45-1-.67-.9-.6-1.83-1.21-2.69-1.9C2.25,16.3,.72,13.49,.54,10.22c-.12-2.06-.1-4.15-.09-6.17v-1.44c0-.96,.8-1.68,1.84-1.69,4.99,0,9.97,0,14.96,0,1.1,0,1.82,.73,1.84,1.86,0,.49,0,.99,0,1.48v3.69s.18,0,.18,0c0-.47,0-.93,0-1.39,0-1.41,.02-2.74-.03-4.09-.03-.98-.9-1.74-1.97-1.75-2.53,0-5.07,0-7.6,0Z"/>
        </g>
      </g>
    </g>
  </g>
</svg>