<svg width="67" height="67" viewBox="0 0 67 67" fill="none" xmlns="http://www.w3.org/2000/svg">
<g clip-path="url(#clip0_244_3083)">
<path d="M32.4681 3.16775C32.4681 3.16775 29.6399 12.119 25.8077 13.8725C21.9755 15.626 14.7494 13.2786 14.4383 15.3573C14.1272 17.436 14.311 23.2762 14.1131 24.4217C13.9151 25.5671 14.0989 27.5751 7.35367 32.6517C7.35367 32.6517 5.75574 34.0234 9.22028 36.8233C11.0586 38.3081 12.4444 44.3463 11.9212 46.6371L9.33341 41.6595L2.06494 33.5709L10.3657 23.5025L10.8889 10.9453L23.8562 10.6342L31.5348 2.64453L32.4681 3.16775Z" fill="#FFD6D6"/>
<path d="M64.8647 30.9829L64.4546 30.5728C62.3193 28.4234 60.184 26.2881 58.0346 24.1528C57.6528 23.7852 57.4972 23.4175 57.5113 22.9084C57.5255 19.5853 57.5255 16.2621 57.5113 12.9249C57.4972 10.9876 56.0831 9.54518 54.1316 9.5169C53.1559 9.50276 52.1943 9.50276 51.2186 9.5169C50.7237 9.5169 50.3277 9.67245 50.059 9.94113C49.8328 10.1674 49.7197 10.4926 49.7197 10.8462C49.7338 11.6098 50.3136 12.1047 51.1903 12.1188C51.7135 12.1188 52.2226 12.1188 52.7458 12.1188H53.7781C54.6831 12.1188 54.8953 12.331 54.8953 13.2501V15.8238C54.8953 18.1712 54.9094 20.5044 54.8811 22.8518C54.867 24.1387 55.2771 25.1427 56.1821 26.0336C57.8649 27.6881 59.5335 29.3567 61.188 31.0253L62.9698 32.8071C63.6485 33.4859 63.6485 33.7545 62.9698 34.4333L61.5839 35.8191C59.7456 37.6716 57.8931 39.5099 56.0407 41.3483C55.2488 42.1402 54.8528 43.0735 54.867 44.2047C54.8811 46.6794 54.8811 49.1541 54.8811 51.6288V53.9903C54.8811 54.8953 54.669 55.1216 53.764 55.1216H51.5156C49.0267 55.1216 46.5379 55.1357 44.0491 55.1074C44.035 55.1074 44.0208 55.1074 44.0067 55.1074C42.833 55.1074 41.8714 55.5175 41.0371 56.3518C39.4533 57.9639 37.8412 59.5618 36.2433 61.1598L34.3484 63.0547C33.4717 63.9314 33.302 63.9314 32.4535 63.083L30.5303 61.1598C28.9041 59.5477 27.292 57.9215 25.68 56.2953C24.8881 55.5034 23.9689 55.1074 22.8659 55.1074C22.8518 55.1074 22.8518 55.1074 22.8376 55.1074C20.2074 55.1216 17.5913 55.1216 14.9611 55.1216H12.9955C12.1329 55.1216 11.9067 54.8953 11.9067 54.0186V51.7702C11.9067 49.2814 11.8925 46.7925 11.9208 44.2896C11.9349 43.1017 11.5248 42.1119 10.6764 41.2776C8.90877 39.5382 7.15528 37.7706 5.4018 36.0171L3.80387 34.405C3.15338 33.7545 3.15338 33.4717 3.80387 32.8212L5.48665 31.1385C7.21185 29.3991 8.95119 27.6739 10.6905 25.9487C11.539 25.1144 11.9491 24.1245 11.9349 22.9367C11.9208 20.561 11.9208 18.1853 11.9208 15.8096V13.2784C11.9208 12.3168 12.1188 12.1188 13.0662 12.1188H15.4843C17.9024 12.1188 20.3064 12.1047 22.7245 12.133C22.7387 12.133 22.7528 12.133 22.7811 12.133C23.9689 12.133 24.9588 11.7229 25.7931 10.8603C27.391 9.23408 29.0031 7.63615 30.6152 6.02408L32.3828 4.24231C32.8212 3.80394 33.1606 3.50698 33.401 3.50698C33.6555 3.50698 33.9949 3.80394 34.4474 4.25645L36.2574 6.0665C37.8836 7.69271 39.5099 9.31893 41.1361 10.9593C41.8855 11.7088 42.6916 12.0906 43.5966 12.1047C44.5441 12.1188 45.5056 12.1188 46.4531 12.1047C47.2733 12.0906 47.853 11.5673 47.8672 10.8462C47.8813 10.4926 47.7541 10.1815 47.5278 9.94113C47.2733 9.67245 46.8773 9.5169 46.4248 9.5169H46.2975C45.5481 9.50276 44.7703 9.48862 44.0067 9.5169C43.5542 9.54518 43.2289 9.38963 42.8754 9.03611C40.9098 7.05637 38.9442 5.09077 36.9645 3.12517L36.0029 2.16359C34.3343 0.49495 32.4252 0.49495 30.7425 2.16359L29.8374 3.06861C27.8577 5.04835 25.878 7.01394 23.9124 9.00782C23.5447 9.37549 23.177 9.5169 22.6538 9.53104C20.1791 9.5169 17.7045 9.5169 15.2298 9.5169H13.1086C10.5915 9.5169 9.24815 10.8462 9.24815 13.3491V15.5975C9.24815 18.0015 9.24815 20.4055 9.26229 22.8094C9.26229 23.3892 9.0926 23.7993 8.66837 24.2235C7.55123 25.3124 6.44823 26.4154 5.34524 27.5325C4.35537 28.5224 3.35136 29.5264 2.36149 30.5163C1.66858 31.2092 1.01809 31.9021 0.692852 32.8778L0.678711 34.2495L0.692852 34.3626C1.01809 35.3383 1.66858 36.0312 2.36149 36.7242C3.3655 37.714 4.35537 38.7039 5.35938 39.7079C6.47652 40.825 7.59365 41.9422 8.71079 43.0452C9.10674 43.4411 9.27643 43.8371 9.26229 44.4169C9.24815 47.0188 9.24815 49.6207 9.24815 52.2085V54.0044C9.24815 56.366 10.6057 57.7235 12.9672 57.7235H14.65C17.2802 57.7235 19.9246 57.7377 22.5548 57.7094C22.569 57.7094 22.569 57.7094 22.5831 57.7094C23.1487 57.7094 23.5447 57.8791 23.9689 58.3033C25.0578 59.4063 26.1466 60.4952 27.2355 61.584C28.2395 62.588 29.2435 63.592 30.2475 64.6102C30.898 65.2748 31.6192 65.9536 32.5949 66.2788L34.0373 66.293L34.0939 66.2788C35.0837 65.9394 35.8049 65.2607 36.4554 64.6102C37.4877 63.5637 38.5341 62.5173 39.5806 61.4709C40.6553 60.4103 41.7159 59.3356 42.7764 58.2609C43.1724 57.8649 43.5683 57.7377 44.0774 57.7094C46.4672 57.7235 48.8571 57.7235 51.2469 57.7235H53.5519C56.1397 57.7235 57.4406 56.4226 57.4406 53.863V51.3459C57.4406 49.0127 57.4406 46.6653 57.4265 44.332C57.4265 43.8229 57.5679 43.4553 57.9497 43.0876C60.0002 41.0654 62.0365 39.015 64.0728 36.9787L64.7939 36.2575C66.5191 34.5747 66.5191 32.6516 64.8647 30.9829Z" fill="#EB1D36"/>
<path d="M43.808 42.3949C42.2949 42.5787 40.796 42.5363 39.2122 42.2535C35.9173 41.6596 32.8912 39.6233 30.8831 36.6819C28.8751 33.7265 28.0974 30.1347 28.7478 26.8115C29.1862 24.5773 30.0488 22.6541 31.3781 20.9147C31.9296 20.1936 31.9579 19.4017 31.4629 18.737C31.1235 18.2845 30.4872 17.8179 29.3559 18.2138C23.643 20.1936 19.1885 26.2035 19.0047 32.1851C18.9764 33.0336 19.4148 33.6134 20.136 33.6982C20.8572 33.7689 21.4794 33.2598 21.5925 32.3972C21.6208 32.2134 21.6349 32.0296 21.6491 31.8457C21.6774 31.5771 21.7056 31.3084 21.7481 31.0397C22.4551 27.1933 24.3924 24.1813 27.5317 22.0884C25.156 27.3065 25.3399 32.3548 28.0832 37.1062C30.869 41.9565 35.2244 44.6433 41.0081 45.11C38.2647 46.5099 35.38 46.92 32.4386 46.312C27.1216 45.2231 23.6147 41.999 22.0026 36.7385C21.7198 35.8193 21.1259 35.3951 20.3764 35.5789C20.0229 35.6638 19.74 35.8759 19.5703 36.1587C19.3724 36.484 19.3441 36.9082 19.4714 37.3749C20.942 42.7343 24.8025 46.7503 30.0771 48.4048C31.6892 48.9139 33.3295 49.1543 34.9557 49.1543C38.6465 49.1543 42.2384 47.8816 45.1373 45.4635C45.8019 44.8979 46.014 44.1625 45.7029 43.4272C45.4059 42.6777 44.6565 42.2818 43.808 42.3949Z" fill="#7A0003"/>
<path d="M46.0146 26.8256C45.6045 26.7691 45.1944 26.7125 44.7843 26.6418C44.2611 26.557 43.7237 26.4863 43.2005 26.4156C42.946 26.3873 42.8328 26.3024 42.7197 26.062C42.5076 25.5954 42.2813 25.1287 42.0551 24.6621C41.843 24.2378 41.645 23.8136 41.447 23.3894C41.0793 22.5833 40.542 22.1874 39.8208 22.1733C38.6754 22.1308 38.2512 23.0783 38.1097 23.3894C37.6148 24.4217 37.1764 25.2701 36.7381 26.062C36.6815 26.161 36.5118 26.2883 36.3845 26.3024C35.5078 26.458 34.6311 26.5711 33.7543 26.6842L33.2735 26.7408C32.4392 26.8539 31.916 27.2499 31.7039 27.9569C31.4918 28.6498 31.6897 29.2862 32.2695 29.8518C33.019 30.573 33.7543 31.28 34.4472 32.0295C34.5321 32.1285 34.6028 32.3548 34.5745 32.4962C34.4614 33.2739 34.32 34.0658 34.1785 34.8436L34.0371 35.5931C33.8957 36.3708 34.1078 36.9789 34.6876 37.4031C35.2674 37.8273 35.932 37.8556 36.6674 37.4738C37.0633 37.2617 37.4593 37.0637 37.8552 36.8657C38.3784 36.5971 38.9016 36.3284 39.4107 36.0456C39.6087 35.9324 39.7218 35.9466 39.9339 36.0597C40.8107 36.5546 41.7157 37.0354 42.6066 37.5021C42.8187 37.6152 43.0308 37.6859 43.2005 37.7425L43.4409 37.8132C43.4409 37.8132 43.455 37.8132 43.4692 37.8132C44.0631 37.8132 44.5863 37.6011 44.9257 37.2051C45.2509 36.8375 45.3924 36.3425 45.3075 35.8193C45.2509 35.4092 45.1802 34.9991 45.1095 34.589C44.9964 33.9386 44.8974 33.3022 44.8126 32.6517C44.7984 32.4962 44.8691 32.2416 44.9681 32.1285C45.6327 31.4356 46.3539 30.771 47.0327 30.1346C47.5135 29.6821 48.0367 29.0458 47.7398 28.0983C47.4711 27.1509 46.6792 26.9246 46.0146 26.8256ZM42.1399 32.4538C42.2389 33.0194 42.3238 33.5992 42.4227 34.2214L42.4652 34.4618L42.3238 34.3911C41.7864 34.1082 41.2915 33.8537 40.8107 33.5709C40.4289 33.3446 40.0612 33.2456 39.6794 33.2456C39.3117 33.2456 38.9299 33.3588 38.5481 33.5709C38.0673 33.8396 37.5724 34.0941 37.035 34.3628L36.8936 34.4335L36.9219 34.3062C37.0209 33.7406 37.1057 33.2032 37.2189 32.68C37.431 31.7467 37.1906 31.0114 36.5118 30.4033C36.1017 30.0498 35.7341 29.668 35.3098 29.2579C35.2674 29.2155 35.2391 29.1872 35.1967 29.1448C35.225 29.1448 35.2533 29.1306 35.2815 29.1306C35.7906 29.0458 36.2714 28.9751 36.7522 28.9468C37.8835 28.8761 38.633 28.3529 39.043 27.3489C39.2269 26.8822 39.4673 26.4438 39.7218 25.963C39.736 25.9489 39.7501 25.9206 39.7501 25.9065L39.8208 26.0479C40.1036 26.6277 40.3723 27.1792 40.6268 27.7307C40.9379 28.4236 41.4753 28.8054 42.253 28.9185C42.8328 29.0034 43.4126 29.0882 43.9924 29.1872L44.1055 29.2013C44.0772 29.2437 44.0348 29.272 44.0065 29.3145C43.5964 29.7528 43.2005 30.1771 42.7763 30.573C42.2248 31.0962 42.0127 31.7184 42.1399 32.4538Z" fill="#7A0003"/>
</g>
<defs>
<clipPath id="clip0_244_3083">
<rect width="66.7737" height="67" fill="white"/>
</clipPath>
</defs>
</svg>
