<?xml version="1.0" encoding="UTF-8"?>
<svg id="Layer_1" data-name="Layer 1" xmlns="http://www.w3.org/2000/svg" viewBox="0 0 46.85 49.27">
  <defs>
    <style>
      .cls-1 {
        fill: #b3ffae;
      }

      .cls-2 {
        fill: #28663d;
      }

      .cls-3 {
        fill: #5fb257;
      }
    </style>
  </defs>
  <path class="cls-1" d="M22.14,4.05l-13.63,.96s-1.29,.04-1.29,1.3v5.04l-2.46-.29-.03-7.04,2.66-.35,14.75,.39Z"/>
  <g>
    <g>
      <path class="cls-3" d="M11.62,40.67v.9c-.21,.01-.41,.04-.61,.04-3.31,0-4.62,0-7.94,0-1.79,0-2.7-.93-2.7-2.73,0-13.56,0-22.12,0-35.68,0-1.76,.91-2.68,2.67-2.68,10.44,0,20.89,0,31.33,0,1.77,0,2.68,.91,2.68,2.67,0,10.37,0,13.73,0,24.1v.62h-.94v-.72c0-10.29,0-13.57,0-23.86,0-1.42-.45-1.87-1.86-1.87-10.37,0-20.73,0-31.1,0-1.41,0-1.85,.45-1.85,1.87,0,13.48,0,21.96,0,35.44,0,1.43,.47,1.9,1.9,1.9,3.21,0,4.43,0,7.64,0,.23,0,.47,0,.77,0Z"/>
      <path class="cls-3" d="M6.45,41.99c-.97,0-2,0-3.38,0C1.09,41.98,0,40.88,0,38.88V3.2C0,1.23,1.08,.15,3.05,.15h31.33c1.97,0,3.06,1.08,3.06,3.04V27.9c0,.21-.17,.38-.38,.38h-.94c-.21,0-.38-.17-.38-.38V3.33c0-1.21-.28-1.49-1.48-1.49H3.17c-1.2,0-1.48,.28-1.48,1.49V38.77c0,1.23,.3,1.52,1.52,1.53H11.62c.21,0,.38,.17,.38,.38v.9c0,.2-.15,.36-.35,.37h-.19c-.15,.02-.29,.04-.44,.04h-1.62c-1.1,0-1.99,0-2.94,0ZM3.05,.9c-1.54,0-2.3,.75-2.3,2.31V38.88c0,1.61,.74,2.35,2.32,2.36,2.71,0,4.08,0,6.31,0h1.62c.08,0,.16,0,.24-.01v-.18H3.21c-1.64,0-2.27-.64-2.27-2.28V3.33C.94,1.7,1.54,1.09,3.17,1.09h31.1c1.63,0,2.23,.61,2.23,2.24V27.53h.19V3.19c0-1.56-.73-2.29-2.31-2.29H3.05Z"/>
    </g>
    <g>
      <path class="cls-2" d="M29.51,39.23h-.91c0-.22,0-.43,0-.64,0-3.82,0-7.64,0-11.46,0-1.89-1.92-3.05-3.51-2.13-.84,.48-1.2,1.25-1.2,2.21,0,4.45,0,8.9,0,13.35,0,.16,.04,.33,0,.47-.06,.19-.15,.44-.29,.5-.15,.06-.43-.02-.56-.14-.44-.39-.84-.82-1.26-1.24-.79-.79-1.56-1.6-2.38-2.36-1.26-1.18-3.33-.68-3.77,.9-.24,.86,.06,1.57,.68,2.18,2.33,2.33,4.66,4.66,6.99,6.98,.14,.14,.31,.24,.57,.45-.33,.23-.57,.4-.85,.59-.07-.06-.21-.19-.35-.32-2.32-2.31-4.63-4.63-6.94-6.94-1.38-1.38-1.5-3.21-.29-4.45,1.27-1.31,3.33-1.32,4.69,0,.91,.88,1.79,1.81,2.83,2.85,0-.37,0-.57,0-.77,0-4.08-.01-8.15,0-12.23,0-1.3,.62-2.3,1.77-2.9,1.13-.59,2.28-.52,3.34,.19,.96,.64,1.45,1.58,1.46,2.74,.01,1.68,0,3.36,0,5.16,.84-.72,1.74-1.04,2.76-.92,1.02,.12,1.77,.67,2.41,1.51,.73-.95,1.63-1.54,2.84-1.53,1.19,.01,2.09,.56,2.8,1.54,.79-1.04,1.75-1.61,3.04-1.54,1.62,.09,3.04,1.39,3.06,3.02,.05,4.76,.02,9.52,.02,14.33h-.93c0-.24,0-.47,0-.69,0-4.41,0-8.82,0-13.23,0-1.35-.87-2.36-2.1-2.48-1.42-.13-2.58,.88-2.6,2.32-.02,1.55,0,3.09,0,4.68h-.94c0-1.57,.01-3.11,0-4.65-.01-1.23-.89-2.21-2.05-2.34-1.45-.15-2.62,.87-2.65,2.33-.02,1.35,0,2.7,0,4.06,0,.19,0,.38,0,.61h-.91c-.01-.18-.03-.37-.03-.56,0-1.35,0-2.7,0-4.06-.01-1.39-1.02-2.41-2.36-2.4-1.33,0-2.33,1.03-2.34,2.42-.01,1.33,0,2.67,0,4,0,.19-.02,.38-.03,.6Z"/>
      <path class="cls-2" d="M23.02,49.27c-.09,0-.18-.03-.25-.1-.15-.13-.25-.23-.36-.33-2.32-2.31-4.63-4.63-6.94-6.94-1.53-1.53-1.65-3.58-.3-4.98,1.42-1.46,3.72-1.47,5.22,0,.62,.6,1.22,1.22,1.87,1.88l.32,.33v-3.22c0-2.96,0-5.91,0-8.87,0-1.45,.69-2.56,1.98-3.23,1.25-.65,2.54-.58,3.72,.21,1.05,.7,1.61,1.75,1.62,3.04,0,1.17,0,2.34,0,3.55v.87c.76-.47,1.56-.65,2.43-.55,.91,.1,1.68,.53,2.37,1.29,.8-.89,1.72-1.32,2.81-1.32h.04c1.12,.01,2.04,.44,2.8,1.32,.85-.95,1.83-1.38,3.06-1.31,1.86,.1,3.39,1.62,3.41,3.39,.04,3.42,.03,6.85,.02,10.29v4.05c0,.21-.17,.38-.38,.38h-.93c-.21,0-.38-.17-.38-.38v-4c0-3.31,0-6.61,0-9.92,0-1.14-.72-2.01-1.75-2.1-.59-.06-1.14,.12-1.55,.49-.4,.36-.63,.88-.64,1.46-.01,1.07-.01,2.14,0,3.23v1.44c0,.21-.17,.38-.37,.38h-.94c-.21,0-.38-.17-.38-.38v-1.41c0-1.09,0-2.16,0-3.24,0-1.04-.73-1.86-1.71-1.97-.6-.06-1.16,.1-1.58,.47-.41,.36-.64,.89-.65,1.49-.01,.94-.01,1.89,0,2.83v1.83c0,.21-.17,.38-.37,.38h-.91c-.2,0-.36-.16-.37-.35v-.18c-.02-.13-.03-.27-.03-.4v-1.5c0-.85,0-1.71,0-2.56,0-1.18-.84-2.03-1.97-2.03h0c-1.13,0-1.96,.87-1.97,2.05,0,.82,0,1.64,0,2.47v1.53c0,.13,0,.27-.02,.42v.2c-.02,.2-.18,.36-.38,.36h-.91c-.21,0-.38-.17-.38-.38v-3.97c0-2.71,0-5.42,0-8.13,0-.78-.38-1.46-1.02-1.82-.6-.35-1.31-.34-1.92,.02-.68,.39-1.01,1.01-1.01,1.88,0,3.26,0,6.52,0,9.79v3.56s0,.12,0,.12c0,.13,.02,.29-.03,.46-.09,.29-.22,.61-.5,.73-.3,.13-.73,0-.96-.2-.32-.28-.63-.59-.93-.9l-1.08-1.09c-.54-.54-1.07-1.09-1.63-1.61-.52-.49-1.24-.67-1.92-.48-.62,.17-1.07,.61-1.23,1.2-.18,.66,0,1.24,.58,1.82l6.99,6.98c.08,.08,.17,.14,.28,.23l.25,.19c.09,.07,.15,.19,.15,.31,0,.12-.06,.23-.16,.3l-.85,.59c-.07,.05-.14,.07-.22,.07Zm-5.27-12.7c-.75,0-1.48,.29-2.05,.87-1.05,1.09-.93,2.7,.29,3.92,2.31,2.32,4.63,4.63,6.94,6.94,.04,.04,.08,.07,.11,.11l.18-.12c-.07-.06-.14-.11-.2-.17l-6.99-6.98c-.77-.77-1.03-1.62-.77-2.55,.23-.84,.89-1.48,1.75-1.73,.93-.26,1.92-.02,2.63,.65,.57,.53,1.11,1.08,1.65,1.63l1.08,1.09c.29,.29,.58,.59,.89,.86,.03,.03,.13,.06,.18,.07-.02-.01,.01-.09,.07-.26,0-.03,0-.12,0-.18,0-.06,0-.12,0-.17v-3.56c0-3.26,0-6.52,0-9.79,0-1.15,.46-2,1.38-2.53,.84-.49,1.84-.5,2.67-.02,.87,.5,1.39,1.42,1.4,2.47,0,2.71,0,5.42,0,8.14v3.59s.18,0,.18,0c0-.08,0-.15,0-.23v-1.53c0-.82,0-1.65,0-2.47,.01-1.59,1.18-2.79,2.71-2.79h.01c1.54,0,2.71,1.19,2.72,2.77,0,.85,0,1.71,0,2.57v1.49c0,.06,0,.12,0,.18h.18v-1.45c0-.95,0-1.9,0-2.85,.01-.81,.33-1.53,.9-2.04,.58-.51,1.34-.75,2.16-.66,1.37,.15,2.37,1.28,2.38,2.71,.01,1.08,0,2.16,0,3.25v1.03s.19,0,.19,0v-1.07c0-1.09,0-2.17,0-3.24,.01-.79,.33-1.5,.88-2.01,.57-.51,1.32-.75,2.12-.68,1.43,.13,2.44,1.3,2.44,2.85,0,3.31,0,6.61,0,9.92v3.63h.18v-3.67c.01-3.44,.02-6.86-.02-10.28-.01-1.38-1.23-2.56-2.7-2.65-1.11-.07-1.96,.38-2.72,1.39-.07,.09-.22,.13-.3,.15-.12,0-.23-.06-.3-.15-.68-.94-1.47-1.38-2.5-1.39-1.02,0-1.81,.43-2.54,1.39-.07,.09-.18,.15-.3,.15h0c-.12,0-.23-.06-.3-.15-.63-.83-1.32-1.27-2.15-1.36-.91-.1-1.69,.16-2.47,.83-.11,.09-.27,.12-.4,.05-.13-.06-.22-.19-.22-.34v-1.61c0-1.21,0-2.38,0-3.55,0-1.04-.44-1.86-1.29-2.43-.95-.64-1.95-.69-2.96-.17-1.04,.54-1.57,1.4-1.57,2.57-.01,2.95-.01,5.91,0,8.86v4.13c0,.15-.09,.29-.23,.35s-.3,.02-.41-.08l-.97-.98c-.64-.66-1.24-1.27-1.85-1.86-.61-.59-1.37-.88-2.12-.88Z"/>
    </g>
    <path class="cls-3" d="M18.75,3.28c4.23,0,8.46,0,12.69,0,1.41,0,1.86,.45,1.86,1.86,0,1.64,0,3.29,0,4.93,0,1.11-.53,1.66-1.66,1.66-8.62,0-17.24,0-25.85,0-1.12,0-1.65-.55-1.65-1.67,0-1.7,0-3.41,0-5.11,0-1.17,.51-1.68,1.69-1.68,4.31,0,8.62,0,12.93,0Zm-.07,1.14c-4.15,0-8.3,0-12.46,0-.67,0-.76,.09-.76,.73,0,1.56,0,3.13,0,4.69,0,.64,.11,.76,.75,.76,8.3,0,16.61,0,24.91,0,.52,0,.75-.19,.74-.72-.02-1.49,0-2.98,0-4.47q0-1-1-1c-4.06,0-8.11,0-12.17,0Z"/>
    <path class="cls-3" d="M33.3,17.67c0,.59,.01,1.17,0,1.76-.02,.85-.51,1.43-1.36,1.47-1.29,.05-2.58,.05-3.87,0-.85-.03-1.34-.61-1.35-1.47-.01-1.19-.01-2.39,0-3.58,0-.91,.54-1.48,1.45-1.5,1.23-.02,2.46-.02,3.7,0,.88,.02,1.41,.57,1.44,1.44,.02,.63,0,1.25,0,1.88Zm-1.23,.07c0-.5,0-1,0-1.49,0-.35-.14-.56-.51-.55-1.03,0-2.06,0-3.09,0-.36,0-.53,.18-.53,.54,0,1.01,0,1.78,0,2.79,0,.34,.16,.53,.49,.53,1.05,.01,2.1,0,3.14,0,.33,0,.5-.18,.5-.52,0-.52,0-.78,0-1.3Z"/>
    <path class="cls-3" d="M10.72,17.61c0,.61,.01,1.21,0,1.82-.02,.85-.51,1.44-1.36,1.47-1.29,.05-2.58,.05-3.87,0-.85-.03-1.34-.61-1.35-1.47-.01-1.19-.01-2.39,0-3.58,0-.92,.54-1.48,1.44-1.5,1.23-.02,2.46-.02,3.7,0,.88,.02,1.41,.57,1.44,1.44,.02,.61,0,1.21,0,1.82Zm-5.32,.16c0,.47,.01,.67,0,1.14-.01,.4,.15,.6,.56,.6,.98,0,1.96,0,2.94,0,.36,0,.57-.15,.56-.55,0-1,0-1.72,0-2.71,0-.36-.18-.52-.53-.52-1,0-1.99,0-2.99,0-.39,0-.55,.18-.54,.56,.01,.49,0,.98,0,1.47Z"/>
    <path class="cls-3" d="M18.25,17.67c0,.59,.01,1.17,0,1.76-.02,.85-.51,1.43-1.36,1.47-1.29,.05-2.58,.05-3.87,0-.85-.03-1.34-.61-1.35-1.47-.01-1.19-.01-2.39,0-3.58,0-.91,.54-1.48,1.45-1.5,1.23-.02,2.46-.02,3.7,0,.88,.02,1.41,.57,1.44,1.45,.02,.63,0,1.25,0,1.88Zm-1.1,.09c0-.5-.01-.99,0-1.49,.01-.4-.15-.6-.58-.6-1.02,0-2.04,0-3.06,0-.43,0-.59,.19-.59,.6,.01,.97,.01,1.69,0,2.67,0,.39,.17,.58,.56,.58,1.04,0,2.07,0,3.11,0,.39,0,.57-.19,.56-.58-.01-.48,0-.7,0-1.18Z"/>
    <path class="cls-3" d="M19.19,17.63c0-.59,0-1.17,0-1.76,.01-.95,.54-1.51,1.47-1.53,1.21-.02,2.43-.02,3.64,0,.91,.01,1.46,.57,1.47,1.47,.02,1.21,.02,2.42,0,3.64-.01,.82-.51,1.4-1.32,1.44-1.31,.05-2.62,.05-3.93,0-.82-.03-1.3-.61-1.32-1.44-.02-.61,0-1.21,0-1.82Zm1.22,.1c0,.48,.02,.73,0,1.22-.02,.44,.17,.64,.61,.64,.99,0,1.97,0,2.96,0,.4,0,.6-.17,.6-.59-.01-.99-.01-1.74,0-2.72,0-.41-.16-.61-.58-.6-1,0-2.01,0-3.01,0-.43,0-.58,.2-.57,.61,.02,.48,0,.97,0,1.45Z"/>
    <path class="cls-3" d="M7.43,21.86c.61,0,1.21-.01,1.82,0,.91,.03,1.46,.57,1.47,1.47,.02,1.21,.02,2.42,0,3.64-.01,.82-.5,1.41-1.32,1.44-1.31,.05-2.62,.05-3.93,0-.82-.03-1.31-.61-1.33-1.43-.02-1.23-.02-2.46,0-3.7,.01-.84,.56-1.38,1.41-1.41,.62-.02,1.25,0,1.88,0,0,0,0,0,0,0Zm2.12,3.29c0-.51,0-1.02,0-1.53,0-.4-.16-.59-.57-.58-1.02,0-2.05,0-3.07,0-.42,0-.61,.17-.61,.6,.01,1.01,.01,2.01,0,3.02,0,.43,.18,.62,.6,.62,1.02,0,2.05,0,3.07,0,.39,0,.59-.17,.58-.58-.01-.51,0-1.02,0-1.53Z"/>
    <path class="cls-3" d="M11.67,25.09c0-.59-.01-1.17,0-1.76,.02-.88,.55-1.44,1.42-1.46,1.25-.02,2.5-.02,3.75,0,.84,.02,1.38,.58,1.4,1.42,.02,1.23,.02,2.46,0,3.7-.01,.82-.51,1.4-1.33,1.43-1.31,.05-2.62,.05-3.93,0-.81-.03-1.29-.62-1.31-1.44-.01-.63,0-1.25,0-1.88Zm3.31-2.09c-.52,0-1.04,0-1.56,0-.43,0-.62,.18-.61,.61,.01,1.02,.01,2.04,0,3.07,0,.44,.19,.63,.61,.63,1.04,0,2.08,0,3.12,0,.39,0,.59-.18,.59-.59-.01-1.04,0-2.08,0-3.12,0-.4-.17-.6-.58-.59-.52,0-1.04,0-1.56,0Z"/>
    <path class="cls-3" d="M7.46,29.39c.61,0,1.21-.02,1.82,0,.88,.03,1.43,.57,1.44,1.44,.02,1.23,.02,2.46,0,3.7-.01,.79-.5,1.37-1.29,1.4-1.33,.05-2.66,.05-3.99,0-.79-.03-1.28-.61-1.29-1.4-.02-1.25-.02-2.5,0-3.75,.02-.81,.57-1.35,1.38-1.38,.64-.03,1.29,0,1.94,0,0,0,0,0,0,0Zm2.1,3.28c0-.51,0-1.03,0-1.54,0-.4-.18-.58-.58-.58-1.05,0-2.09,0-3.14,0-.38,0-.55,.18-.55,.56,0,1.05,0,2.09,0,3.14,0,.38,.19,.56,.55,.56,1.06,0,2.13,0,3.19,0,.34,0,.52-.18,.52-.54,0-.53,0-1.06,0-1.6Z"/>
    <path class="cls-3" d="M18.23,34.88c-.32-.07-.58-.13-.92-.21,0-.93,0-1.86,0-2.79,0-1.69,.15-1.55-1.55-1.55-.82,0-1.65,.01-2.47,0-.5,0-.7,.2-.7,.71,.02,1.1,.02,2.19,0,3.29,0,.51,.21,.72,.7,.71,.64,0,1.29,0,1.97,0v.87c-.85,0-1.71,.06-2.55-.02-.59-.05-1.02-.62-1.03-1.26-.03-1.29-.03-2.59,0-3.88,.02-.78,.57-1.33,1.35-1.34,1.29-.03,2.59-.03,3.88,0,.71,.01,1.29,.5,1.31,1.19,.05,1.4,.02,2.81,.02,4.29Z"/>
    <path class="cls-3" d="M27.26,22.06c.37-.08,.67-.18,.96-.19,1.17-.02,2.35-.02,3.52,0,1.02,.01,1.55,.56,1.55,1.57,0,2.02,0,4.03,0,6.05,0,.13-.02,.27-.03,.43h-.91c0-.21,0-.42,0-.62,0-1.9,0-3.8,0-5.69,0-.7-.09-.79-.77-.79-1.06,0-2.11,0-3.17,0-.68,0-.68,0-1.16-.75Z"/>
    <path class="cls-3" d="M24.82,21.94c-.23,.57-.16,1.04-.73,1-1.07-.07-2.14,0-3.22-.01-.52,0-.58,.06-.57,.6,.02,1.02-.01,2.05-.01,3.07,0,.83-.07,.77,.74,.79,.15,0,.32,0,.5,.01,0,.29-.02,.7-.02,.97-1.63,.37-2.42-.48-2.34-1.78,.07-1.05,0-2.11,.02-3.17,0-.98,.54-1.53,1.53-1.54,1.19-.01,2.39-.02,3.59,0,.29,0,.21,0,.51,.07Z"/>
    <path class="cls-3" d="M21.52,35.95c-.37,0-.68,.03-.99,0-.82-.09-1.32-.62-1.33-1.44-.02-1.23-.02-2.46,0-3.7,.01-.84,.56-1.37,1.41-1.42,.29-.01,.58,0,.9,0v.94c-.2,0-.41,0-.61,0-.68,.01-.76,.1-.76,.8,0,1.04,0,2.07,0,3.11,0,.66,.12,.77,.79,.79,.19,0,.38,.02,.6,.03v.89Z"/>
  </g>
</svg>