<?xml version="1.0" encoding="UTF-8" standalone="no"?>
<svg
   xmlns:dc="http://purl.org/dc/elements/1.1/"
   xmlns:cc="http://creativecommons.org/ns#"
   xmlns:rdf="http://www.w3.org/1999/02/22-rdf-syntax-ns#"
   xmlns:svg="http://www.w3.org/2000/svg"
   xmlns="http://www.w3.org/2000/svg"
   xmlns:sodipodi="http://sodipodi.sourceforge.net/DTD/sodipodi-0.dtd"
   xmlns:inkscape="http://www.inkscape.org/namespaces/inkscape"
   width="130mm"
   height="130mm"
   viewBox="0 0 130 130"
   version="1.1"
   id="svg106"
   inkscape:version="1.0.2-2 (e86c870879, 2021-01-15)"
   sodipodi:docname="perniagaan-training.svg">
  <defs
     id="defs100" />
  <sodipodi:namedview
     id="base"
     pagecolor="#ffffff"
     bordercolor="#666666"
     borderopacity="1.0"
     inkscape:pageopacity="0.0"
     inkscape:pageshadow="2"
     inkscape:zoom="0.35"
     inkscape:cx="159.06428"
     inkscape:cy="254.40763"
     inkscape:document-units="mm"
     inkscape:current-layer="layer1"
     inkscape:document-rotation="0"
     showgrid="false"
     fit-margin-top="0"
     fit-margin-left="0"
     fit-margin-right="0"
     fit-margin-bottom="0"
     inkscape:window-width="1920"
     inkscape:window-height="986"
     inkscape:window-x="-11"
     inkscape:window-y="-11"
     inkscape:window-maximized="1" />
  <metadata
     id="metadata103">
    <rdf:RDF>
      <cc:Work
         rdf:about="">
        <dc:format>image/svg+xml</dc:format>
        <dc:type
           rdf:resource="http://purl.org/dc/dcmitype/StillImage" />
        <dc:title></dc:title>
      </cc:Work>
    </rdf:RDF>
  </metadata>
  <g
     inkscape:label="Layer 1"
     inkscape:groupmode="layer"
     id="layer1"
     transform="translate(-63.747575,-80.854647)">
    <g
       id="g172"
       transform="matrix(0.26458333,0,0,0.26458333,75.727722,70.47973)">
      <path
         class="st0"
         d="m 337.83,342.51 c 0,48.67 0,97.21 0,146.09 -91.72,0 -182.84,0 -274.51,0 0,-48.79 0,-97.1 0,-146.09 91.12,0 182.24,0 274.51,0 z"
         id="path110" />
      <path
         class="st5"
         d="m 79.01,44.89 c 13.96,0 27.31,0 40.66,0 64.49,0.01 128.98,0.15 193.46,-0.13 6.83,-0.03 9.83,1.9 11.75,8.46 8.66,29.64 17.83,59.12 26.78,88.67 0.76,2.49 1.3,5.04 2.08,8.07 -102.27,0 -203.85,0 -306.7,0 10.73,-35.27 21.3,-69.99 31.97,-105.07 z m 140.26,101.76 c -1.42,-33.25 -2.79,-65.44 -4.16,-97.74 -10.15,0 -19.4,0 -29.07,0 -1.42,32.93 -2.81,65.07 -4.22,97.74 12.91,0 24.62,0 37.45,0 z m -87.19,0.04 c 4.33,-33.17 8.55,-65.41 12.88,-98.55 -8.78,0 -16.52,-0.52 -24.1,0.31 -2.29,0.25 -5.4,3.93 -6.05,6.56 -3.5,14.12 -6.35,28.41 -9.42,42.63 -3.49,16.14 -6.98,32.28 -10.61,49.04 12.84,0.01 24.61,0.01 37.3,0.01 z m 124.3,-97.42 c 4.01,31.22 7.95,62.35 12.17,93.44 0.22,1.63 2.81,4.13 4.36,4.19 10.82,0.37 21.67,0.19 33.54,0.19 -5.67,-26.05 -11,-50.62 -16.37,-75.19 -5.52,-25.25 -5.54,-25.25 -31.54,-23.52 -0.27,0.01 -0.53,0.2 -2.16,0.89 z"
         id="path112" />
      <path
         class="st3"
         d="m 52.43,338.48 c 0,-7.55 0,-14.54 0,-21.93 98.98,0 197.48,0 296.4,0 0,7.52 0,14.48 0,21.93 -99.08,0 -197.59,0 -296.4,0 z"
         id="path114" />
      <path
         class="st3"
         d="m 309.99,163.21 c -4.38,9.67 -10.91,16.28 -22.19,15.92 -10.4,-0.33 -16.89,-6.2 -21.15,-16.51 -4.94,9.51 -10.93,16.54 -21.81,16.55 -10.91,0.01 -17.64,-5.93 -22.08,-16.49 -4.93,9.6 -11.06,16.6 -22.19,16.48 -10.85,-0.11 -17.46,-6.18 -21.91,-16.81 -5.04,11.06 -12.04,17.5 -23.61,16.75 -10.1,-0.66 -16.09,-6.71 -20.11,-16.37 -5,9.33 -11.03,16.61 -22.35,16.47 -11,-0.14 -17.2,-6.79 -21.65,-16.07 -8.28,14 -17.45,18.72 -28.85,15.16 -9.77,-3.05 -15.2,-11.66 -14.87,-24.18 101.84,0 203.7,0 305.56,0 2.18,10.6 -2.31,19.35 -12.04,23.44 -11.71,4.93 -21.23,0.56 -30.75,-14.34 z m -3.23,-6.28 c -12.38,0 -24.42,0 -36.45,0 -0.07,10.91 6.72,18.56 16.76,19.38 8.97,0.74 20.51,-7.16 19.69,-19.38 z m -124.16,0.08 c 0.01,11.43 7.34,19.19 17.74,19.34 10.48,0.16 18.22,-7.95 18.21,-19.34 -11.99,0 -23.97,0 -35.95,0 z m -88.4,-0.06 c 1.7,12.92 9.35,20.03 19.74,19.28 9.99,-0.72 16.48,-7.99 16.77,-19.28 -11.97,0 -23.92,0 -36.51,0 z"
         id="path116" />
      <path
         class="st3"
         d="m 86.83,484.14 c 7.8,0 14.51,0 21.45,0 1.23,7.3 3.36,13.87 12.07,14.07 9.18,0.21 11.61,-6.48 12.87,-14 7.02,0 13.72,0 21.19,0 0.73,12.9 -3.73,22.89 -13.89,30.06 -11.43,8.07 -23.79,8.92 -36.05,2.26 -12.25,-6.64 -17.83,-17.46 -17.64,-32.39 z"
         id="path118" />
      <path
         class="st3"
         d="m 246.65,488.32 c 7.26,0 13.99,0 21.12,0 1.72,6.8 3.54,14.09 12.94,13.9 8.82,-0.18 10.72,-6.96 12.16,-14.01 7.08,0 13.78,0 21.27,0 0.59,13.26 -4.05,23.56 -14.69,30.65 -11.63,7.73 -24.04,8.22 -36.16,1.16 -11.8,-6.87 -16.98,-17.56 -16.64,-31.7 z"
         id="path120" />
      <path
         class="st3"
         d="m 319.24,317.6 c -6.45,0 -11.41,0 -17.39,0 0,-20.18 -0.37,-116.88 0.34,-136.66 0.13,-3.62 4.7,-7.07 7.19,-10.56 8.22,4.59 10.45,11.13 10.07,20.01 -0.72,16.54 -0.21,110.01 -0.21,127.21 z"
         id="path122" />
      <path
         class="st3"
         d="m 99.47,317.63 c -6.17,0 -11.12,0 -17.15,0 0,-20.1 -0.4,-116.75 0.35,-136.47 0.14,-3.77 4.82,-7.37 7.15,-10.67 9.09,4.76 10.03,12.13 9.79,20.61 -0.46,16.24 -0.14,109.39 -0.14,126.53 z"
         id="path124" />
      <path
         class="st6"
         d="m 219.27,146.65 c -12.83,0 -24.54,0 -37.45,0 1.41,-32.67 2.8,-64.81 4.22,-97.74 9.67,0 18.92,0 29.07,0 1.37,32.3 2.74,64.49 4.16,97.74 z"
         id="path126" />
      <path
         class="st6"
         d="m 132.08,146.69 c -12.69,0 -24.46,0 -37.31,0 3.63,-16.76 7.12,-32.9 10.61,-49.04 3.08,-14.23 5.92,-28.51 9.42,-42.63 0.65,-2.63 3.76,-6.3 6.05,-6.56 7.59,-0.83 15.32,-0.31 24.1,-0.31 -4.33,33.13 -8.54,65.37 -12.87,98.54 z"
         id="path128" />
      <path
         class="st6"
         d="m 256.38,49.27 c 1.63,-0.68 1.89,-0.87 2.16,-0.89 26,-1.73 26.02,-1.73 31.54,23.52 5.37,24.57 10.7,49.14 16.37,75.19 -11.88,0 -22.72,0.17 -33.54,-0.19 -1.55,-0.05 -4.14,-2.56 -4.36,-4.19 -4.22,-31.09 -8.16,-62.22 -12.17,-93.44 z"
         id="path130" />
      <path
         class="st7"
         d="m 306.76,156.93 c 0.82,12.22 -10.72,20.12 -19.69,19.38 -10.04,-0.82 -16.83,-8.47 -16.76,-19.38 12.04,0 24.08,0 36.45,0 z"
         id="path132" />
      <path
         class="st8"
         d="m 182.6,157.01 c 11.98,0 23.96,0 35.95,0 0.01,11.39 -7.73,19.5 -18.21,19.34 -10.4,-0.16 -17.73,-7.92 -17.74,-19.34 z"
         id="path134" />
      <path
         class="st8"
         d="m 94.2,156.95 c 12.59,0 24.54,0 36.5,0 -0.29,11.29 -6.77,18.56 -16.77,19.28 -10.37,0.75 -18.03,-6.36 -19.73,-19.28 z"
         id="path136" />
      <path
         class="st3"
         d="m 223.73,242.79 c 24.24,5.7 45.69,45.48 43.78,77.75 -16.54,3.09 -16.16,3 -19.84,-12.67 -2.25,-9.61 -5.89,-18.9 -8.9,-28.33 -1.35,0.21 -2.7,0.43 -4.05,0.64 0,10.72 0.41,21.46 -0.25,32.13 -0.2,3.27 -3.33,6.37 -5.11,9.54 -1.88,-3.04 -5.32,-6.05 -5.38,-9.13 -0.46,-22.88 -0.25,-45.79 -0.25,-69.93 z"
         id="path138" />
      <path
         class="st3"
         d="m 202.2,181.26 c 14.75,-0.19 27.11,11.96 27.05,26.58 -0.06,14.87 -12.06,26.79 -26.9,26.71 -14.42,-0.08 -25.77,-11.3 -26.15,-25.88 -0.39,-14.98 11.22,-27.23 26,-27.41 z"
         id="path140" />
      <path
         class="st3"
         d="m 165.88,279.5 c -3.97,13.72 -7.93,27.44 -12.1,41.87 -4.96,0 -10.32,0 -15.64,0 -4,-29.39 17.99,-71.41 43.31,-79.06 0,8 0,15.34 0,22.67 0,16.2 0.26,32.4 -0.23,48.58 -0.08,2.81 -3.29,5.52 -5.06,8.28 -1.91,-2.63 -5.31,-5.17 -5.46,-7.9 -0.62,-11.32 -0.26,-22.69 -0.26,-34.05 -1.52,-0.12 -3.04,-0.25 -4.56,-0.39 z"
         id="path142" />
      <path
         class="st3"
         d="m 215.32,242.92 c 4.36,22.36 1.99,24.18 -26.17,20.27 0,-6.33 0,-12.8 0,-20.83 5.02,0 9.54,-0.07 14.04,0.02 4.12,0.09 8.24,0.36 12.13,0.54 z"
         id="path144" />
    </g>
  </g>
  <style
     type="text/css"
     id="style108">
	.st0{fill:#00A100;}
	.st1{fill:#00E100;}
	.st2{fill:#00FF02;}
	.st3{fill:#00D57C;}
	.st4{fill:#FFFFFF;}
	.st5{fill:#00FF00;}
	.st6{fill:#DAEDBD;}
	.st7{fill:#6FFF77;}
	.st8{fill:#ABFF83;}
	.st9{fill:#00C100;}
	.st10{fill:#ED1C24;}
	.st11{fill-rule:evenodd;clip-rule:evenodd;fill:#00DA00;}
	.st12{fill:#00DA00;}
	.st13{fill-rule:evenodd;clip-rule:evenodd;fill:#00D57C;}
	.st14{fill:#00ECAA;}
	.st15{fill:none;}
	.st16{clip-path:url(#SVGID_00000150787266157145507320000000691181159615027360_);fill:#00DA00;}
	.st17{fill:#858E37;}
	.st18{fill:#00AD11;}
	.st19{fill-rule:evenodd;clip-rule:evenodd;fill:#00AD11;}
	.st20{fill-rule:evenodd;clip-rule:evenodd;fill:#8BE8A1;}
	.st21{fill:#43434B;}
</style>
</svg>
