<?xml version="1.0" encoding="UTF-8" standalone="no"?>
<!-- Created with Inkscape (http://www.inkscape.org/) -->

<svg
   width="420"
   height="420"
   viewBox="0 0 111.125 111.125"
   version="1.1"
   id="svg735"
   xml:space="preserve"
   inkscape:version="1.2 (dc2aedaf03, 2022-05-15)"
   sodipodi:docname="komuniti-esg-development.svg"
   xmlns:inkscape="http://www.inkscape.org/namespaces/inkscape"
   xmlns:sodipodi="http://sodipodi.sourceforge.net/DTD/sodipodi-0.dtd"
   xmlns="http://www.w3.org/2000/svg"
   xmlns:svg="http://www.w3.org/2000/svg"><sodipodi:namedview
     id="namedview737"
     pagecolor="#ffffff"
     bordercolor="#000000"
     borderopacity="0.25"
     inkscape:showpageshadow="2"
     inkscape:pageopacity="0.0"
     inkscape:pagecheckerboard="0"
     inkscape:deskcolor="#d1d1d1"
     inkscape:document-units="mm"
     showgrid="false"
     inkscape:zoom="0.70199214"
     inkscape:cx="397.44035"
     inkscape:cy="219.37567"
     inkscape:window-width="1920"
     inkscape:window-height="986"
     inkscape:window-x="-11"
     inkscape:window-y="-11"
     inkscape:window-maximized="1"
     inkscape:current-layer="layer1" /><defs
     id="defs732" /><g
     inkscape:label="Layer 1"
     inkscape:groupmode="layer"
     id="layer1"><g
       id="g756"
       transform="matrix(0.26458333,0,0,0.26458333,0.39386976,-4.5574472)"><path
         class="st6"
         d="m 291.05,25.45 c 3.81,0.61 7.68,0.96 11.42,1.87 26.84,6.59 47.07,21.72 59.6,46.63 9.11,18.11 11.37,37.3 9.11,57.26 -2.67,23.54 -11.19,45.09 -21.73,66.04 -15.32,30.46 -36.23,56.53 -60.94,79.93 -22.2,21.03 -47.24,37.85 -73.4,53.32 -4.51,2.67 -8.12,2.55 -12.71,0 C 157.09,305.31 117.9,273.13 87.61,230.72 69.78,205.76 56.4,178.63 49.21,148.69 45.24,132.18 43.35,115.37 46.92,98.61 c 6.95,-32.68 25.4,-56.15 57,-68.42 12.05,-4.68 24.69,-5.27 37.35,-3.93 24.57,2.6 44.16,14.76 60.72,32.47 2.12,2.26 4.24,4.53 6.21,6.63 1.69,-1.53 3.35,-2.82 4.76,-4.35 10.22,-11.15 21.64,-20.73 35.44,-27.21 9.15,-4.29 18.71,-7.07 28.81,-7.92 0.57,-0.05 1.13,-0.27 1.69,-0.42 4.07,-0.01 8.11,-0.01 12.15,-0.01 z"
         id="path741" /><path
         class="st12"
         d="m 302.19,158.3 v 0 c -5.87,-5.87 -15.48,-5.87 -21.35,0 l -58.56,58.56 V 151.5 c 0,-8.31 -6.79,-15.1 -15.1,-15.1 -8.3,0 -15.1,6.79 -15.1,15.1 v 66.15 l -15.27,-14.42 c -6.04,-5.7 -15.64,-5.43 -21.35,0.61 v 0 c -5.7,6.04 -5.43,15.64 0.61,21.35 l 34.07,32.17 c 0.26,1.98 0.9,3.9 1.93,5.67 v 150.42 c 0,8.3 6.79,15.1 15.1,15.1 8.3,0 15.1,-6.8 15.1,-15.1 V 287.71 259.56 l 6.89,-6.89 73.02,-73.02 c 5.88,-5.87 5.88,-15.48 0.01,-21.35 z m -112.16,96.59 c -0.01,0.41 -0.01,0.83 0.01,1.24 -0.02,-0.41 -0.03,-0.82 -0.01,-1.24 z m 4.38,11.19 c -0.23,-0.23 -0.45,-0.47 -0.67,-0.71 0.21,0.24 0.43,0.48 0.67,0.71 0.33,0.33 0.68,0.65 1.03,0.94 -0.36,-0.3 -0.7,-0.61 -1.03,-0.94 z"
         id="path743" /><rect
         x="59"
         y="407"
         class="st13"
         width="291"
         height="22"
         id="rect745" /></g></g><style
     type="text/css"
     id="style739">
	.st0{fill-rule:evenodd;clip-rule:evenodd;fill:#1A1A1B;}
	.st1{fill:url(#SVGID_1_);}
	.st2{fill:url(#SVGID_00000116920228933726517420000012007828150513066916_);}
	.st3{fill:url(#SVGID_00000060753139719054604490000015970741231509660058_);}
	.st4{fill:#FFFFFF;}
	.st5{fill:#FF9196;}
	.st6{fill:#FF4952;}
	.st7{fill:#F4B9B2;}
	.st8{fill:url(#SVGID_00000023969732481151748980000013859056075828526477_);}
	.st9{fill:url(#SVGID_00000052802581851001937010000007032310419111630782_);}
	.st10{fill:#A80000;}
	.st11{fill:#FF2337;}
	.st12{fill:#FF9396;}
	.st13{fill:#FF8D5F;}
	.st14{fill:#FF4237;}
	.st15{fill:#A7A9AC;}
	.st16{fill:#FF7579;}
	.st17{fill:#E7D7C4;}
	.st18{fill:#C3B8AB;}
	.st19{fill:#928A80;}
	.st20{fill:#F1E7DC;}
	.st21{fill:#DF0000;}
	.st22{opacity:0.1;}
	.st23{fill:#3C2415;}
	.st24{fill:#A1A09F;}
	.st25{fill:#C1C0BF;}
	.st26{fill:#EBE8E8;}
	.st27{fill:#683F29;}
	.st28{fill:#759DAE;}
	.st29{fill:#A2745C;}
	.st30{fill:#C19274;}
	.st31{fill:#AA7B61;}
	.st32{fill:#FF1E00;}
</style></svg>
