<svg width="90" height="78" viewBox="0 0 90 78" fill="none" xmlns="http://www.w3.org/2000/svg">
<path d="M83.5714 13.6071H61.8214V6.42857C61.8214 2.89286 58.9286 0 55.3929 0H34.6071C31.0714 0 28.1786 2.89286 28.1786 6.42857V13.6071H6.42857C2.89286 13.6071 0 16.5 0 20.0357V70.9286C0 74.4643 2.89286 77.3571 6.42857 77.3571H83.5714C87.1071 77.3571 90 74.4643 90 70.9286V20.0357C90 16.5 87.1071 13.6071 83.5714" fill="#FAF7F4"/>
<path d="M83.5714 13.6071H61.8214V6.42857C61.8214 2.89286 58.9286 0 55.3929 0H34.6071C31.0714 0 28.1786 2.89286 28.1786 6.42857V13.6071H6.42857C2.89286 13.6071 0 16.5 0 20.0357V70.9286C0 74.4643 2.89286 77.3571 6.42857 77.3571H83.5714C87.1071 77.3571 90 74.4643 90 70.9286V20.0357C90 16.5 87.1071 13.6071 83.5714 13.6071ZM30.3214 6.42857C30.3214 4.07143 32.25 2.14286 34.6071 2.14286H55.3929C57.75 2.14286 59.6786 4.07143 59.6786 6.42857V13.6071H30.3214V6.42857ZM87.8571 70.9286C87.8571 73.2857 85.9286 75.2143 83.5714 75.2143H6.42857C4.07143 75.2143 2.14286 73.2857 2.14286 70.9286V38.5714H31.2857V44.7857C31.1786 45.3214 31.6071 45.75 32.1429 45.8571C32.25 45.8571 32.25 45.8571 32.3571 45.8571H57.6429C58.1786 45.9643 58.6071 45.5357 58.7143 45C58.7143 44.8928 58.7143 44.8929 58.7143 44.7857V38.5714H87.8571V70.9286ZM33.4286 43.7143V31.1786H56.5714V43.7143H33.4286ZM87.8571 36.4286H58.7143V30.1071C58.7143 29.4643 58.2857 29.0357 57.6429 29.0357H32.3571C31.7143 29.0357 31.2857 29.4643 31.2857 30.1071V36.4286H2.14286V20.0357C2.14286 17.6786 4.07143 15.75 6.42857 15.75H83.5714C85.9286 15.75 87.8571 17.6786 87.8571 20.0357V36.4286Z" fill="black"/>
</svg>
