<svg width="105" height="89" viewBox="0 0 105 89" fill="none" xmlns="http://www.w3.org/2000/svg">
<path d="M104.007 20.9902C104.003 20.7036 103.914 20.4246 103.75 20.1894C103.587 19.9542 103.356 19.7736 103.088 19.6712L53.0118 0.476535C52.6824 0.349456 52.3175 0.349456 51.9882 0.476535L1.91164 19.6712C1.64399 19.7738 1.41336 19.9545 1.24965 20.1898C1.08594 20.425 0.996718 20.7041 0.993556 20.9907C0.990395 21.2773 1.07344 21.5583 1.23192 21.7971C1.3904 22.036 1.61699 22.2217 1.88231 22.3301L16.8547 28.4549V50.6103C16.8547 50.9727 16.9921 51.3216 17.2394 51.5865C17.7512 52.1346 30.0577 65.0123 54.4599 65.0123C61.3875 65.048 68.2726 63.9282 74.8319 61.6988V68.2255C71.032 68.6216 68.6238 69.9944 67.7042 72.3382C65.4251 78.1434 73.8746 87.1695 74.8458 88.1792C75.1057 88.4496 75.4613 88.6071 75.8361 88.6178C76.2109 88.6285 76.575 88.4915 76.8498 88.2364C77.8951 87.2658 87.0015 78.5832 84.8942 72.6859C84.0429 70.3041 81.6217 68.8344 77.6919 68.3032V60.6366C83.1034 58.5748 88.0795 55.5149 92.3612 51.6158C92.6259 51.348 92.7744 50.9868 92.7746 50.6103V26.5612L103.118 22.3301C103.383 22.2216 103.61 22.0358 103.768 21.7968C103.927 21.5579 104.01 21.2769 104.007 " fill="#FAF7F4"/>
<path d="M104.007 20.9902C104.003 20.7036 103.914 20.4246 103.75 20.1894C103.587 19.9542 103.356 19.7736 103.088 19.6712L53.0118 0.476535C52.6824 0.349456 52.3175 0.349456 51.9882 0.476535L1.91164 19.6712C1.64399 19.7738 1.41336 19.9545 1.24965 20.1898C1.08594 20.425 0.996718 20.7041 0.993556 20.9907C0.990395 21.2773 1.07344 21.5583 1.23192 21.7971C1.3904 22.036 1.61699 22.2217 1.88231 22.3301L16.8547 28.4549V50.6103C16.8547 50.9727 16.9921 51.3216 17.2394 51.5865C17.7512 52.1346 30.0577 65.0123 54.4599 65.0123C61.3875 65.048 68.2726 63.9282 74.8319 61.6988V68.2255C71.032 68.6216 68.6238 69.9944 67.7042 72.3382C65.4251 78.1434 73.8746 87.1695 74.8458 88.1792C75.1057 88.4496 75.4613 88.6071 75.8361 88.6178C76.2109 88.6285 76.575 88.4915 76.8498 88.2364C77.8951 87.2658 87.0015 78.5832 84.8942 72.6859C84.0429 70.3041 81.6217 68.8344 77.6919 68.3032V60.6366C83.1034 58.5748 88.0795 55.5149 92.3612 51.6158C92.6259 51.348 92.7744 50.9868 92.7746 50.6103V26.5612L103.118 22.3301C103.383 22.2216 103.61 22.0358 103.768 21.7968C103.927 21.5579 104.01 21.2769 104.007 20.9902ZM82.2004 73.6481C83.2087 76.4648 79.2301 81.7917 75.9351 85.1363C72.8852 81.6598 69.2676 76.1786 70.3667 73.3821C71.046 71.6525 73.7168 71.1275 75.8737 70.9948C78.4062 71.1603 81.5238 71.7572 82.2004 73.6481ZM54.4599 62.1523C33.667 62.1523 21.933 52.1053 19.7147 50.0112V29.6249L51.9589 42.8152C52.3057 42.9567 52.6942 42.9567 53.0411 42.8152L73.3662 34.5007L74.8319 35.0416V58.6196C68.3027 60.9895 61.4058 62.1855 54.4599 62.1523ZM89.9146 49.9889C86.2535 53.1045 82.1299 55.6316 77.6919 57.4795V34.0453C77.6911 33.8346 77.6438 33.6268 77.5531 33.4366C77.4624 33.2465 77.3308 33.0788 77.1676 32.9456L89.9146 27.7312L89.9146 49.9889ZM73.3123 31.4325L48.6157 22.3168C48.2599 22.1855 47.8666 22.201 47.5222 22.3597C47.1778 22.5184 46.9106 22.8074 46.7793 23.1631C46.648 23.5189 46.6634 23.9122 46.8221 24.2566C46.9808 24.601 47.2698 24.8682 47.6255 24.9995L69.3951 33.0349L52.5 39.9461L18.8413 26.1774H18.8412L6.30567 21.0495L52.5 3.34281L98.6943 21.0495L73.3123 31.4325Z" fill="black"/>
</svg>
