<svg width="90" height="92" viewBox="0 0 90 92" fill="none" xmlns="http://www.w3.org/2000/svg">
<path d="M78.7386 21.6989C73.6114 16.1139 64.4557 9.61343 49.8067 8.51475V5.85961C49.8067 2.65514 47.1516 0 43.9471 0C40.7426 0 38.0875 2.65514 38.0875 5.85961V8.78942C26.0936 10.4374 18.1282 15.8393 13.2757 20.6002C3.93693 29.7558 1.28179 40.8342 0.549338 46.6022L0 50.9054L2.92981 47.7009C4.39471 46.1445 6.04273 44.7711 7.87386 43.6724L8.05697 43.5809C11.0783 41.7497 13.7335 40.7426 15.9308 40.7426C21.6073 40.7426 26.826 44.6796 29.2981 50.9969L30.4883 54.0183L31.7701 51.0885C32.8688 48.6165 34.6083 46.3276 36.6226 44.588C38.4537 43.0315 40.5595 41.8413 42.8484 41.1088L47.7009 40.9257C52.5534 41.7497 56.765 45.5036 58.9624 50.9969L60.2442 54.2014L61.5259 50.9969C63.998 44.8627 69.3998 40.8342 75.5341 40.7426C81.6684 40.6511 85.7884 44.6796 86.9786 45.8698L90 49.1658L89.3591 44.7711C88.6267 38.5453 86.0631 29.5727 78.7386 " fill="#FAF7F4"/>
<path d="M78.7386 21.6989C73.6114 16.1139 64.4557 9.61343 49.8067 8.51475V5.85961C49.8067 2.65514 47.1516 0 43.9471 0C40.7426 0 38.0875 2.65514 38.0875 5.85961V8.78942C26.0936 10.4374 18.1282 15.8393 13.2757 20.6002C3.93693 29.7558 1.28179 40.8342 0.549338 46.6022L0 50.9054L2.92981 47.7009C4.39471 46.1445 6.04273 44.7711 7.87386 43.6724L8.05697 43.5809C11.0783 41.7497 13.7335 40.7426 15.9308 40.7426C21.6073 40.7426 26.826 44.6796 29.2981 50.9969L30.4883 54.0183L31.7701 51.0885C32.8688 48.6165 34.6083 46.3276 36.6226 44.588C38.4537 43.0315 40.5595 41.8413 42.8484 41.1088L47.7009 40.9257C52.5534 41.7497 56.765 45.5036 58.9624 50.9969L60.2442 54.2014L61.5259 50.9969C63.998 44.8627 69.3998 40.8342 75.5341 40.7426C81.6684 40.6511 85.7884 44.6796 86.9786 45.8698L90 49.1658L89.3591 44.7711C88.6267 38.5453 86.0631 29.5727 78.7386 21.6989ZM40.8342 5.85961C40.8342 4.12004 42.2075 2.74669 43.9471 2.74669C45.6867 2.74669 47.06 4.12004 47.06 5.85961V8.33164C46.5107 8.33164 45.9613 8.33164 45.412 8.33164C43.8555 8.33164 42.2991 8.42319 40.8342 8.51475V5.85961ZM75.6256 37.9044C69.3998 37.9959 63.7233 41.6582 60.4273 47.2431C57.6806 42.2991 53.1943 38.9115 48.2503 38.0875H48.1587L42.6653 38.2706L42.4822 38.3622C39.7355 39.1862 37.2635 40.5595 35.0661 42.3906C33.4181 43.764 31.9532 45.5036 30.763 47.3347C27.5585 41.4751 22.0651 37.9044 16.0224 37.9044C13.3672 37.9044 10.1628 39.003 6.68362 41.1088L6.59207 41.2004C5.76806 41.7497 4.85249 42.2991 4.12004 42.94C5.40183 37.2635 8.33164 29.2981 15.2899 22.5229C20.6918 17.3042 30.2136 10.9868 45.5036 10.9868C61.8006 10.9868 71.5056 17.762 76.8159 23.53C82.2177 29.3896 84.8728 35.8901 86.1546 41.2004C83.591 39.5524 80.1119 37.8128 75.6256 37.9044Z" fill="black"/>
<path d="M32.777 64.7303C32.777 60.3356 29.2063 56.6733 24.7201 56.6733C20.2338 56.6733 16.6631 60.3356 16.6631 64.7303C16.6631 69.125 20.2338 72.7873 24.7201 72.7873C29.2063 72.7873 32.777 69.125 32.777 " fill="#FAF7F4"/>
<path d="M32.777 64.7303C32.777 60.3356 29.2063 56.6733 24.7201 56.6733C20.2338 56.6733 16.6631 60.3356 16.6631 64.7303C16.6631 69.125 20.2338 72.7873 24.7201 72.7873C29.2063 72.7873 32.777 69.125 32.777 64.7303ZM19.4098 64.7303C19.4098 61.8005 21.7902 59.42 24.7201 59.42C27.6499 59.42 30.0303 61.8005 30.0303 64.7303C30.0303 67.6601 27.6499 70.0406 24.7201 70.0406C21.7902 70.0406 19.4098 67.6601 19.4098 64.7303Z" fill="black"/>
<path d="M73.1539 67.2024C73.1539 63.174 69.8579 59.8779 65.8294 59.8779C61.8009 59.8779 58.5049 63.174 58.5049 67.2024C58.5049 71.2309 61.8009 74.527 65.8294 74.527C69.8579 74.527 73.1539 71.2309 73.1539 " fill="#FAF7F4"/>
<path d="M73.1539 67.2024C73.1539 63.174 69.8579 59.8779 65.8294 59.8779C61.8009 59.8779 58.5049 63.174 58.5049 67.2024C58.5049 71.2309 61.8009 74.527 65.8294 74.527C69.8579 74.527 73.1539 71.2309 73.1539 67.2024ZM61.3431 67.2024C61.3431 64.7304 63.3574 62.6246 65.921 62.6246C68.4845 62.6246 70.4988 64.6389 70.4988 67.2024C70.4988 69.766 68.4845 71.7803 65.921 71.7803C63.3574 71.7803 61.3431 69.6745 61.3431 67.2024Z" fill="black"/>
<path d="M68.9416 75.3511H62.4411C58.4127 75.3511 54.9335 77.64 53.1939 80.9361C51.729 79.3796 49.6232 78.4641 47.4259 78.4641H42.5734C41.0169 78.4641 39.4605 78.9218 38.1787 79.7458C36.1644 76.2667 32.4106 73.8862 28.1075 73.8862H20.7829C14.374 73.8862 9.15527 79.1049 9.15527 85.5139V91.1904H39.7351V90.6411H51.9121V90.9157H79.3791V85.697C79.4706 80.0205 74.7097 75.3511 68.9416 " fill="#FAF7F4"/>
<path d="M68.9416 75.3511H62.4411C58.4127 75.3511 54.9335 77.64 53.1939 80.9361C51.729 79.3796 49.6232 78.4641 47.4259 78.4641H42.5734C41.0169 78.4641 39.4605 78.9218 38.1787 79.7458C36.1644 76.2667 32.4106 73.8862 28.1075 73.8862H20.7829C14.374 73.8862 9.15527 79.1049 9.15527 85.5139V91.1904H39.7351V90.6411H51.9121V90.9157H79.3791V85.697C79.4706 80.0205 74.7097 75.3511 68.9416 75.3511ZM36.9884 88.4437H11.9935V85.5139C11.9935 80.6614 15.9305 76.6329 20.8745 76.6329H28.199C33.0515 76.6329 37.08 80.5698 37.08 85.5139V88.4437H36.9884ZM52.0037 85.7886V87.8944H39.7351V85.5139C39.7351 84.4152 39.552 83.3165 39.2774 82.3094C40.1929 81.577 41.3831 81.2107 42.5734 81.2107H47.4259C49.1654 81.2107 50.8135 82.1263 51.8206 83.5912C51.9121 83.6828 52.0037 83.8659 52.1868 83.9574C52.0037 84.5068 52.0037 85.1477 52.0037 85.7886ZM76.7239 88.2606H54.9335C54.842 88.169 54.8419 88.169 54.7504 88.169V85.8801C54.7504 81.6685 58.2295 78.1894 62.4411 78.1894H69.0332C73.2448 78.1894 76.7239 81.6685 76.7239 85.8801V88.2606Z" fill="black"/>
<path d="M50.9057 72.6042C50.9057 69.4913 48.3422 66.9277 45.2292 66.9277C42.1163 66.9277 39.5527 69.4913 39.5527 72.6042C39.5527 75.7172 42.1163 78.2807 45.2292 78.2807C48.3422 78.2807 50.9057 75.7172 50.9057 " fill="#FAF7F4"/>
<path d="M50.9057 72.6042C50.9057 69.4913 48.3422 66.9277 45.2292 66.9277C42.1163 66.9277 39.5527 69.4913 39.5527 72.6042C39.5527 75.7172 42.1163 78.2807 45.2292 78.2807C48.3422 78.2807 50.9057 75.7172 50.9057 72.6042ZM42.2079 72.6042C42.2079 70.9562 43.5812 69.6744 45.1377 69.6744C46.6941 69.6744 48.0675 71.0478 48.0675 72.6042C48.0675 74.1607 46.6941 75.534 45.1377 75.534C43.5812 75.534 42.2079 74.2522 42.2079 72.6042Z" fill="black"/>
</svg>
