<svg width="70" height="91" viewBox="0 0 70 91" fill="none" xmlns="http://www.w3.org/2000/svg">
<path d="M54.415 16.341C54.2073 16.341 54.0688 16.2718 53.9303 16.1333C53.7919 15.9948 53.7227 15.8564 53.7227 15.6487V0.695101C53.7227 0.418183 53.8611 0.141264 54.138 0.0720346C54.415 -0.0664245 54.6919 0.00280509 54.8996 0.210494L69.7839 15.0949C69.9916 15.3025 70.0608 15.5795 69.9224 15.8564C69.7839 16.1333 69.5762 16.2718 69.2993 16.2718L54.415 16.341ZM55.1765 2.35661V14.9564H67.7763L55.1765 2.35661Z" fill="black"/>
<path d="M69.368 90.0028H0.692296C0.276918 90.0028 0 89.7259 0 89.3105V0.69669C0 0.281313 0.276918 0.00439453 0.692296 0.00439453H54.4144C54.6221 0.00439453 54.7606 0.0736241 54.899 0.212083L69.7834 15.0964C69.9219 15.2349 69.9911 15.3734 69.9911 15.581V89.3105C70.0603 89.7259 69.7142 90.0028 69.368 90.0028ZM1.38459 88.6182H68.6757V15.858L54.2067 1.38899H1.38459V88.6182Z" fill="black"/>
<path d="M35.0303 21.2565C32.6073 21.2565 30.5996 19.2489 30.5996 16.8258C30.5996 14.4028 32.6073 12.4644 35.0303 12.4644C37.4533 12.4644 39.461 14.472 39.461 16.895H38.0764C38.0764 15.2335 36.6918 13.8489 35.0303 13.8489C33.3688 13.8489 31.9842 15.2335 31.9842 16.895C31.9842 18.5566 33.3688 19.9411 35.0303 19.9411V21.2565Z" fill="black"/>
<path d="M35.0303 28.733C32.6073 28.733 30.5996 26.7253 30.5996 24.3023H31.9842C31.9842 25.9638 33.3688 27.3484 35.0303 27.3484C36.6918 27.3484 38.0764 25.9638 38.0764 24.3023C38.0764 22.6408 36.6918 21.2562 35.0303 21.2562V19.8716C37.4533 19.8716 39.461 21.8792 39.461 24.3023C39.461 26.7253 37.4533 28.733 35.0303 28.733Z" fill="black"/>
<path d="M35.7225 28.0405H34.3379V30.1174H35.7225V28.0405Z" fill="black"/>
<path d="M35.7225 11.0796H34.3379V13.1565H35.7225V11.0796Z" fill="black"/>
<path d="M62.8607 36.5562H7.13086V37.9407H62.8607V36.5562Z" fill="black"/>
<path d="M62.8607 45.833H7.13086V47.2176H62.8607V45.833Z" fill="black"/>
<path d="M62.8607 55.0405H7.13086V56.4251H62.8607V55.0405Z" fill="black"/>
<path d="M47.2148 64.3169H7.13086V65.7015H47.2148V64.3169Z" fill="black"/>
<path d="M33.1612 73.5249H7.13086V74.9095H33.1612V73.5249Z" fill="black"/>
<path d="M49.568 84.2549C49.3603 84.2549 49.2219 84.1857 49.0834 84.0472L42.9912 77.955L43.9604 76.9858L49.568 82.5934L63.137 69.0244L64.1062 69.9936L50.0526 84.0472C49.9142 84.1857 49.7757 84.2549 49.568 84.2549Z" fill="black"/>
<path d="M49.5679 77.2632C49.3602 77.2632 49.2218 77.1939 49.0833 77.0555L46.7295 74.7017L47.6987 73.7325L49.5679 75.6017L59.6754 65.4941L60.6446 66.4634L50.0525 77.0555C49.914 77.1939 49.7756 77.2632 49.5679 77.2632Z" fill="black"/>
</svg>
