<svg width="100" height="100" viewBox="0 0 100 100" fill="none" xmlns="http://www.w3.org/2000/svg">
<path d="M38.9908 62.9648H61.0445C61.6816 62.9648 62.1984 62.4479 62.1984 61.8109V57.3232C62.1984 52.5741 58.3387 48.71 53.5956 48.71H46.4397C41.6966 48.71 37.8369 52.5741 37.8369 57.3232V61.8109C37.8369 62.4479 38.3537 62.9648 38.9908 62.9648ZM40.1446 57.3232C40.1446 53.8467 42.9691 51.0177 46.4397 51.0177H53.5956C57.0662 51.0177 59.8907 53.8467 59.8907 57.3232V60.6571H40.1446V57.3232Z" fill="black"/>
<path d="M50.0179 47.5345C53.2766 47.5345 55.9268 44.8828 55.9268 41.6241C55.9268 38.3653 53.2766 35.7144 50.0179 35.7144C46.7592 35.7144 44.1074 38.3653 44.1074 41.6241C44.1074 44.8828 46.7592 47.5345 50.0179 47.5345ZM50.0179 38.022C52.0041 38.022 53.6191 39.6379 53.6191 41.6241C53.6191 43.611 52.0041 45.2268 50.0179 45.2268C48.0317 45.2268 46.4151 43.611 46.4151 41.6241C46.4151 39.6379 48.0317 38.022 50.0179 38.022Z" fill="black"/>
<path d="M34.0143 73.1252L40.3905 67.7909C41.7381 68.5593 43.1864 69.1611 44.7144 69.587L45.4566 77.8727C45.5107 78.4677 46.008 78.9237 46.6059 78.9237H53.4298C54.0278 78.9237 54.5266 78.4677 54.5792 77.8727L55.3184 69.5938C56.8132 69.1858 58.2676 68.5811 59.6603 67.7894L66.0395 73.1252C66.4977 73.5098 67.1753 73.479 67.5975 73.0545L72.4052 68.2288C72.8259 67.8066 72.8559 67.1336 72.4743 66.6753L67.1528 60.2931C67.9325 58.9139 68.532 57.4656 68.9407 55.9715L77.2189 55.2308C77.8139 55.1774 78.2706 54.6786 78.2706 54.0814V47.2583C78.2706 46.6611 77.8139 46.1623 77.2189 46.1089L68.9422 45.369C68.5335 43.8726 67.928 42.4183 67.1363 41.027L72.4728 34.6478C72.8559 34.1889 72.8259 33.5135 72.4037 33.0913L67.596 28.2837C67.1753 27.86 66.4962 27.8322 66.0395 28.2145L59.6603 33.5503C58.2676 32.7578 56.8132 32.1538 55.3184 31.7459L54.5792 23.4669C54.5266 22.872 54.0278 22.416 53.4298 22.416H46.6059C46.008 22.416 45.5107 22.872 45.4566 23.4669L44.7144 31.7527C43.1864 32.1786 41.7381 32.7803 40.3905 33.5488L34.0143 28.2145C33.559 27.8322 32.8845 27.8622 32.4593 28.2822L27.632 33.0898C27.2069 33.5128 27.1768 34.1896 27.563 34.6486L32.916 41.0285C32.1227 42.422 31.5188 43.8756 31.1116 45.3682L22.8154 46.1089C22.2204 46.1623 21.7637 46.6611 21.7637 47.2583V54.0814C21.7637 54.6786 22.2204 55.1774 22.8154 55.2308L31.1131 55.9715C31.5203 57.4633 32.1197 58.9109 32.8995 60.2916L27.5614 66.6746C27.1783 67.1328 27.2084 67.8081 27.6306 68.2303L32.4578 73.056C32.8815 73.482 33.559 73.5083 34.0143 73.1252ZM35.1937 61.1457C35.5137 60.7641 35.5512 60.2195 35.2883 59.7966C34.2787 58.1725 33.562 56.4387 33.1594 54.6426C33.0497 54.1528 32.6366 53.79 32.1363 53.7456L24.0714 53.026V48.3137L32.1363 47.5941C32.6381 47.549 33.0512 47.1854 33.1609 46.6949C33.5575 44.9055 34.2787 43.1672 35.3048 41.5273C35.5708 41.1029 35.5317 40.5568 35.2102 40.1737L30.0119 33.977L33.3412 30.6605L39.5401 35.846C39.9262 36.1675 40.4746 36.2028 40.8983 35.9361C42.4593 34.9476 44.1931 34.2264 46.0545 33.7922C46.5383 33.6788 46.8959 33.2671 46.941 32.7713L47.6606 24.7237H52.3751L53.0933 32.7713C53.1384 33.2716 53.502 33.6855 53.9932 33.7952C55.7841 34.1926 57.5224 34.9138 59.1585 35.9392C59.5852 36.2043 60.1276 36.166 60.5122 35.846L66.7111 30.662L70.0254 33.9763L64.8406 40.1744C64.5206 40.5583 64.483 41.1044 64.7474 41.5273C65.7721 43.1627 66.4932 44.9017 66.8929 46.6956C67.0026 47.1861 67.4172 47.549 67.9175 47.5941L75.9629 48.3137V53.026L67.9175 53.7456C67.4172 53.7907 67.0041 54.1528 66.8944 54.6418C66.4887 56.4425 65.7736 58.1762 64.7655 59.7966C64.5026 60.2188 64.5401 60.7626 64.8586 61.145L70.0284 67.3454L66.7096 70.677L60.5122 65.4937C60.1276 65.1722 59.5852 65.1346 59.1585 65.4005C57.5224 66.4252 55.7841 67.1471 53.9917 67.546C53.502 67.6549 53.1384 68.0688 53.0933 68.5691L52.3751 76.616H47.6606L46.941 68.5691C46.8959 68.0733 46.5398 67.6617 46.0545 67.5482C44.1931 67.1133 42.4578 66.3914 40.8983 65.4035C40.4746 65.1376 39.9262 65.1722 39.5401 65.4937L33.3427 70.6777L30.0089 67.3447L35.1937 61.1457Z" fill="black"/>
<path d="M9.51801 67.361C6.99647 68.8068 6.12971 72.0166 7.5754 74.538C8.99509 77.0122 12.1965 77.9469 14.7509 76.4813C16.8764 75.2613 17.8871 72.747 17.15 70.3729L21.3415 67.968L30.1595 83.2421C30.3654 83.599 30.747 83.8191 31.1586 83.8191H48.8645V88.4675C46.5197 88.9962 44.7599 91.087 44.7599 93.5885C44.7599 96.4873 47.1187 98.8461 50.0183 98.8461C52.9164 98.8461 55.2752 96.4873 55.2752 93.5885C55.2752 91.0871 53.5156 88.9965 51.1721 88.4677V83.8191H68.8765C69.2881 83.8191 69.6698 83.599 69.8756 83.2421L78.6856 67.9832L82.8505 70.3729C82.1142 72.7443 83.1221 75.2616 85.2482 76.4806C87.806 77.9477 91.0064 77.0117 92.4252 74.538C93.8771 72.0057 92.9925 68.801 90.481 67.361C88.3438 66.1328 85.6694 66.5579 83.9999 68.3727L79.8391 65.9852L88.7353 50.5769C88.9411 50.2201 88.9411 49.7799 88.7353 49.423L80.0217 34.3314L84.0001 32.0486C85.6563 33.8484 88.3254 34.2979 90.481 33.0611C92.9926 31.6195 93.877 28.4156 92.4252 25.8834C91.0049 23.407 87.8036 22.475 85.2482 23.9408C83.1373 25.151 82.1092 27.6609 82.8505 30.0484L78.8681 32.3335L69.8756 16.7585C69.6698 16.4017 69.2881 16.1816 68.8765 16.1816H51.1721V11.5322C53.5156 11.0034 55.2752 8.91279 55.2752 6.41147C55.2752 3.51258 52.9164 1.15381 50.0183 1.15381C47.1187 1.15381 44.7599 3.51258 44.7599 6.41147C44.7599 8.91297 46.5197 11.0038 48.8645 11.5324V16.1816H31.1586C30.747 16.1816 30.3654 16.4017 30.1595 16.7585L21.1589 32.3487L17.15 30.0484C17.8854 27.6799 16.8812 25.1622 14.7509 23.9408C12.2119 22.4817 9.00367 23.3931 7.5754 25.8834C6.12964 28.4049 6.99659 31.6147 9.51801 33.0604C11.6794 34.3001 14.3475 33.8454 16.0007 32.0487L20.0054 34.3466L11.3014 49.423C11.0955 49.7799 11.0955 50.2201 11.3014 50.5769L20.188 65.97L16.0007 68.3727C14.3468 66.5751 11.6785 66.1218 9.51801 67.361ZM52.9675 93.5885C52.9675 95.2148 51.6439 96.5384 50.0183 96.5384C48.3912 96.5384 47.0676 95.2148 47.0676 93.5885C47.0676 91.9621 48.3912 90.6385 50.0183 90.6385C51.6439 90.6385 52.9675 91.9621 52.9675 93.5885ZM89.3332 69.3629C90.7491 70.1736 91.2341 71.9779 90.424 73.3886C89.6457 74.7461 87.7707 75.2651 86.396 74.4794C84.981 73.6659 84.4969 71.8632 85.3068 70.4529C86.0986 69.0712 87.89 68.5348 89.3332 69.3629ZM86.396 25.942C87.8246 25.1246 89.6222 25.6336 90.424 27.0327C91.2333 28.4421 90.7506 30.2461 89.3332 31.0592C87.9089 31.8741 86.1111 31.3719 85.3068 29.9684C84.4972 28.5587 84.9805 26.7557 86.396 25.942ZM47.0676 6.41147C47.0676 4.78512 48.3912 3.4615 50.0183 3.4615C51.6439 3.4615 52.9675 4.78512 52.9675 6.41147C52.9675 8.03782 51.6439 9.36144 50.0183 9.36144C48.3912 9.36144 47.0676 8.03782 47.0676 6.41147ZM10.6658 31.0592C9.25087 30.2457 8.76677 28.4429 9.5766 27.0327C10.3684 25.651 12.1598 25.1146 13.603 25.9427C15.019 26.7534 15.5039 28.5577 14.6938 29.9684C13.917 31.3266 12.0405 31.8449 10.6658 31.0592ZM31.8242 18.4893H68.2109L77.2944 34.2226C77.3198 34.3201 77.338 34.4193 77.3906 34.5109C77.4315 34.5823 77.5034 34.6169 77.5562 34.6758L86.4035 50L68.2109 81.5114H31.8242L13.6331 50C17.9239 42.574 27.3187 26.3064 31.8242 18.4893ZM13.603 74.4794C12.1788 75.2943 10.3809 74.7921 9.5766 73.3886C8.76705 71.9789 9.25031 70.176 10.6658 69.3622C12.0944 68.5448 13.892 69.0538 14.6938 70.4529C15.5031 71.8623 15.0205 73.6663 13.603 74.4794Z" fill="black"/>
</svg>
