<svg width="90" height="66" viewBox="0 0 90 66" fill="none" xmlns="http://www.w3.org/2000/svg">
<path d="M0.848571 62.8144C6.68225 64.8637 12.8313 65.8752 19.0157 65.8028C27.8486 65.8028 36.6429 64.0713 45.2443 62.3783C59.3871 59.595 74.0314 56.722 88.2771 61.8396C88.4713 61.9096 88.6794 61.932 88.884 61.9048C89.0886 61.8776 89.2837 61.8017 89.4526 61.6834C89.6216 61.5652 89.7596 61.4081 89.8549 61.2254C89.9501 61.0427 89.9999 60.8399 90 60.6339V14.4603C89.9999 14.1967 89.9184 13.9396 89.7665 13.7238C89.6147 13.5081 89.3999 13.3443 89.1514 13.2547C74.2371 7.88056 59.2457 10.8305 44.7557 13.6907C30.6129 16.474 15.9557 19.347 1.72286 14.2294C1.52874 14.1594 1.32058 14.1371 1.11598 14.1642C0.911371 14.1914 0.716332 14.2674 0.547351 14.3856C0.37837 14.5039 0.240413 14.661 0.145142 14.8436C0.0498713 15.0263 8.78085e-05 15.2292 0 15.4351V61.6087C0.000112422 61.8723 0.0816336 62.1295 0.233469 62.3452C0.385305 62.5609 0.600081 62.7247 0.848571 62.8144ZM2.57143 17.2179C16.9071 21.7711 31.3071 18.9494 45.2443 16.2046C59.1814 13.4599 73.4657 10.6638 87.4286 15.3709V58.8511C73.0929 54.2979 58.6929 57.1196 44.7557 59.8644C30.8186 62.6091 16.5343 65.4052 2.57143 60.6981V17.2179ZM9.23143 11.0999C20.9957 13.229 33.0686 10.8562 44.7557 8.53468C56.6743 6.18752 68.9914 3.76341 81.2314 5.96948C81.5724 6.03071 81.8751 6.22456 82.0728 6.50839C82.2705 6.79222 82.3471 7.14278 82.2857 7.48295C82.2243 7.82312 82.03 8.12503 81.7455 8.32227C81.461 8.51951 81.1096 8.59591 80.7686 8.53468C69.0043 6.40556 56.9314 8.77838 45.2443 11.0999C36.6429 12.7929 27.8229 14.5244 18.99 14.5244C15.5639 14.544 12.143 14.2564 8.76857 13.6651C8.42758 13.6039 8.12493 13.41 7.92722 13.1262C7.7295 12.8423 7.65291 12.4918 7.71429 12.1516C7.77566 11.8115 7.96999 11.5095 8.25451 11.3123C8.53903 11.1151 8.89044 11.0387 9.23143 11.0999ZM44.7557 3.40428C54.09 1.59581 63.7586 -0.315266 73.2857 0.0438621C73.6267 0.0438621 73.9537 0.178994 74.1949 0.419529C74.436 0.660063 74.5714 0.986296 74.5714 1.32646C74.5714 1.66663 74.436 1.99287 74.1949 2.2334C73.9537 2.47393 73.6267 2.60906 73.2857 2.60906C64.0029 2.27559 54.4886 4.14819 45.2957 5.95665C36.7071 7.64969 27.8614 9.3812 19.0414 9.3812C18.2614 9.3812 17.4857 9.3812 16.7143 9.3812C16.3733 9.3812 16.0463 9.24607 15.8051 9.00554C15.564 8.765 15.4286 8.43876 15.4286 8.0986C15.4286 7.75843 15.564 7.4322 15.8051 7.19166C16.0463 6.95113 16.3733 6.816 16.7143 6.816C26.0486 7.09817 35.55 5.2384 44.7557 3.40428ZM45.2571 53.4257C54 51.6686 63.1029 49.8857 72 50.0268C72.1714 50.0295 72.3415 49.998 72.5005 49.9341C72.6595 49.8702 72.8041 49.7753 72.9257 49.6549C73.0472 49.5361 73.1438 49.3944 73.2101 49.2381C73.2763 49.0818 73.3107 48.9139 73.3114 48.7442C73.2998 47.8721 73.4777 47.0077 73.8328 46.2107C74.1879 45.4136 74.7119 44.7027 75.3686 44.1269C75.9366 43.6381 76.605 43.2791 77.3269 43.0753C78.0487 42.8714 78.8065 42.8276 79.5471 42.9469C79.7314 42.9748 79.9196 42.9624 80.0985 42.9105C80.2775 42.8587 80.4431 42.7687 80.5837 42.6466C80.7244 42.5246 80.8368 42.3736 80.9131 42.204C80.9894 42.0343 81.0278 41.8502 81.0257 41.6643V28.8383C81.0292 28.5289 80.9205 28.2288 80.7197 27.9931C80.5189 27.7574 80.2394 27.602 79.9329 27.5557C78.1724 27.353 76.5402 26.5368 75.3241 25.2509C74.108 23.965 73.3861 22.292 73.2857 20.527C73.2857 20.1868 73.1503 19.8606 72.9091 19.6201C72.668 19.3795 72.341 19.2444 72 19.2444C62.8586 19.1033 53.64 20.9118 44.73 22.6689C35.82 24.4261 26.8971 26.1833 18 26.0422C17.6556 26.0462 17.3253 26.1789 17.0743 26.4141C16.9528 26.5329 16.8562 26.6746 16.7899 26.8309C16.7237 26.9872 16.6893 27.1551 16.6886 27.3248C16.7002 28.197 16.5223 29.0613 16.1672 29.8583C15.8121 30.6554 15.2881 31.3663 14.6314 31.9422C14.0634 32.431 13.395 32.7899 12.6731 32.9937C11.9513 33.1976 11.1935 33.2414 10.4529 33.1221C10.2686 33.0942 10.0804 33.1066 9.90145 33.1585C9.72246 33.2103 9.5569 33.3004 9.41626 33.4224C9.27561 33.5444 9.16324 33.6954 9.08692 33.865C9.01061 34.0347 8.97217 34.2188 8.97429 34.4047V47.2308C8.97078 47.5401 9.07945 47.8402 9.28028 48.0759C9.48111 48.3116 9.76056 48.467 10.0671 48.5134C11.8276 48.716 13.4598 49.5323 14.6759 50.8182C15.892 52.104 16.6139 53.777 16.7143 55.542C16.7143 55.8822 16.8497 56.2084 17.0909 56.449C17.332 56.6895 17.659 56.8246 18 56.8246H19.0286C27.81 56.8374 36.6686 55.0931 45.2443 53.4257H45.2571ZM11.5714 46.1662V35.7387C13.3244 35.683 15.0045 35.0262 16.3286 33.8789C17.8934 32.5266 18.9123 30.6532 19.1957 28.6074C27.9386 28.6074 36.7329 26.8502 45.2571 25.1828C53.7814 23.5155 62.3186 21.8224 70.8171 21.7968C71.1363 23.7489 72.0305 25.5621 73.3859 27.0056C74.7414 28.4492 76.4967 29.4577 78.4286 29.9028V40.3304C76.6756 40.386 74.9955 41.0428 73.6714 42.1901C72.1066 43.5424 71.0877 45.4158 70.8043 47.4616C62.0614 47.4616 53.2671 49.2188 44.7429 50.8862C36.2186 52.5535 27.6814 54.2466 19.1829 54.2722C18.8637 52.3201 17.9695 50.5069 16.6141 49.0634C15.2586 47.6199 13.5033 46.6113 11.5714 46.1662ZM39.6129 44.4475C40.7748 45.3777 42.2246 45.8764 43.7143 45.8584C44.2273 45.8665 44.7398 45.8235 45.2443 45.7301C47.32 45.2894 49.1863 44.1637 50.5417 42.5346C51.8971 40.9056 52.6625 38.8684 52.7143 36.7519C52.7366 35.7774 52.5391 34.8104 52.1363 33.9224C51.7335 33.0343 51.1357 32.248 50.3871 31.6215C49.6037 30.9978 48.6893 30.5585 47.712 30.3364C46.7347 30.1144 45.7198 30.1152 44.7429 30.3389C42.6695 30.7821 40.8062 31.9089 39.4533 33.5378C38.1004 35.1666 37.3369 37.2024 37.2857 39.3171C37.2634 40.2916 37.4609 41.2586 37.8637 42.1466C38.2665 43.0347 38.8643 43.821 39.6129 44.4475ZM45.2571 32.9041C45.5948 32.8269 45.9394 32.7839 46.2857 32.7758C47.2172 32.7387 48.1307 33.0395 48.8571 33.6224C49.2882 34.0182 49.6268 34.5037 49.849 35.0445C50.0711 35.5853 50.1715 36.1682 50.1429 36.7519C50.0794 38.2638 49.5168 39.7124 48.5424 40.8723C47.5681 42.0321 46.2368 42.8381 44.7557 43.1649C44.1522 43.3115 43.5233 43.3208 42.9157 43.192C42.3081 43.0633 41.7374 42.7997 41.2457 42.421C40.7994 42.0376 40.4435 41.5606 40.2034 41.024C39.9634 40.4874 39.8451 39.9046 39.8571 39.3171C39.9206 37.8052 40.4832 36.3566 41.4576 35.1968C42.4319 34.0369 43.7632 33.2309 45.2443 32.9041H45.2571ZM25.83 42.4082C23.5029 42.6134 21.3171 42.716 19.1829 42.7288C18.8419 42.7288 18.5148 42.5937 18.2737 42.3532C18.0326 42.1126 17.8971 41.7864 17.8971 41.4462C17.8971 41.1061 18.0326 40.7798 18.2737 40.5393C18.5148 40.2988 18.8419 40.1636 19.1829 40.1636C21.2529 40.1636 23.3486 40.061 25.6114 39.8558C25.9524 39.8252 26.2916 39.931 26.5545 40.1498C26.8173 40.3687 26.9822 40.6828 27.0129 41.023C27.0435 41.3631 26.9375 41.7015 26.7181 41.9637C26.4987 42.2259 26.1838 42.3904 25.8429 42.421L25.83 42.4082ZM62.8971 35.0589C62.8812 34.8903 62.899 34.7203 62.9493 34.5586C62.9996 34.3969 63.0815 34.2467 63.1902 34.1167C63.299 33.9868 63.4325 33.8796 63.583 33.8013C63.7335 33.7231 63.898 33.6753 64.0671 33.6608C66.4071 33.4556 68.58 33.3402 70.7143 33.3402C71.0553 33.3402 71.3823 33.4753 71.6234 33.7159C71.8645 33.9564 72 34.2826 72 34.6228C72 34.963 71.8645 35.2892 71.6234 35.5297C71.3823 35.7703 71.0553 35.9054 70.7143 35.9054C68.6571 35.9054 66.5486 36.0208 64.2857 36.226H64.17C63.8504 36.2241 63.5429 36.1035 63.3076 35.8877C63.0722 35.672 62.9259 35.3765 62.8971 35.0589Z" fill="black"/>
</svg>
