<svg xmlns="http://www.w3.org/2000/svg" width="90" height="83" viewBox="0 0 90 83" fill="none">
<path xmlns="http://www.w3.org/2000/svg" d="M65.3429 1.01793H65.2298C57.6647 1.14199 50.4287 4.1334 44.9844 9.38756C38.4244 3.16689 32.3168 0 26.7748 0C23.2503 0.0134276 19.7641 0.730675 16.5206 2.10965C13.277 3.48863 10.3416 5.50156 7.88657 8.03032C2.82877 13.2431 0 20.2208 0 27.484C0 34.7473 2.82877 41.725 7.88657 46.9378L44.9844 82.7915L82.0822 46.8247C84.6143 44.2839 86.6177 41.2665 87.9767 37.9468C89.3356 34.6271 90.0231 31.071 89.9994 27.484C90.0275 20.2094 87.1821 13.2179 82.0822 8.03032C79.9031 5.80107 77.2987 4.03179 74.4234 2.82727C71.5481 1.62275 68.4603 1.00749 65.3429" fill="#FAF7F4"/>


<path xmlns="http://www.w3.org/2000/svg" d="M65.3429 1.01793H65.2298C57.6647 1.14199 50.4287 4.1334 44.9844 9.38756C38.4244 3.16689 32.3168 0 26.7748 0C23.2503 0.0134276 19.7641 0.730675 16.5206 2.10965C13.277 3.48863 10.3416 5.50156 7.88657 8.03032C2.82877 13.2431 0 20.2208 0 27.484C0 34.7473 2.82877 41.725 7.88657 46.9378L44.9844 82.7915L82.0822 46.8247C84.6143 44.2839 86.6177 41.2665 87.9767 37.9468C89.3356 34.6271 90.0231 31.071 89.9994 27.484C90.0275 20.2094 87.1821 13.2179 82.0822 8.03032C79.9031 5.80107 77.2987 4.03179 74.4234 2.82727C71.5481 1.62275 68.4603 1.00749 65.3429 1.01793ZM80.4988 45.2412L44.9844 79.6246L9.47001 45.2412C8.39703 44.1535 7.41361 42.981 6.52933 41.735H22.0245L29.0368 30.9902L41.4782 54.7419L55.2768 32.2344L63.6464 40.2647L65.2298 38.6813L54.8244 28.6151L41.7044 50.1047L29.2631 26.4661L20.7803 39.473H5.17209C2.66304 34.6748 1.72795 29.2087 2.49936 23.8493C3.27078 18.49 5.70957 13.5095 9.47001 9.61376C11.7259 7.30616 14.4167 5.46836 17.3868 4.20652C20.357 2.94468 23.5478 2.28381 26.7748 2.26206C31.9775 2.26206 37.7458 5.54205 44.1927 11.7627L44.9844 12.5544L45.7761 11.7627C50.8994 6.49643 57.8846 3.4506 65.2298 3.27999H65.3429C68.163 3.27797 70.9552 3.83692 73.5571 4.9243C76.1591 6.01168 78.5187 7.60577 80.4988 9.61376C85.1621 14.3905 87.7618 20.8084 87.7374 27.484C87.7687 34.1277 85.1658 40.5129 80.4988 45.2412Z" fill="black"/></svg>